<?xml version="1.0" encoding="utf-8"?>
<!-- Generator: Adobe Illustrator 19.1.0, SVG Export Plug-In . SVG Version: 6.00 Build 0)  -->
<svg version="1.1" id="Layer_1" xmlns="http://www.w3.org/2000/svg" xmlns:xlink="http://www.w3.org/1999/xlink" x="0px" y="0px"
	 viewBox="0 0 320 240" style="enable-background:new 0 0 320 240;" xml:space="preserve">
<style type="text/css">
	.st0{fill:#607D8B;}
	.st1{fill:#FF9800;}
	.st2{fill:none;stroke:#607D8B;stroke-width:3;stroke-miterlimit:10;}
</style>
<g>
	<path class="st0" d="M160.8,240c-2,0-4-0.1-6-0.3l0.2-3c1.9,0.1,3.9,0.2,5.8,0.3L160.8,240z M166.8,240l-0.1-3
		c1.9,0,3.9-0.1,5.8-0.3l0.2,3C170.8,239.8,168.8,239.9,166.8,240z M148.9,239.1c-2-0.2-4-0.5-5.9-0.9l0.5-2.9
		c1.9,0.3,3.8,0.6,5.8,0.9L148.9,239.1z M178.7,239.1l-0.4-2.9c1.9-0.2,3.9-0.5,5.8-0.9l0.5,2.9
		C182.7,238.5,180.7,238.8,178.7,239.1z M137.1,237c-1.9-0.4-3.9-0.9-5.8-1.5l0.8-2.9c1.9,0.5,3.8,1,5.7,1.4L137.1,237z M190.5,237
		l-0.7-2.9c1.9-0.4,3.8-0.9,5.7-1.4l0.8,2.9C194.4,236.1,192.4,236.6,190.5,237z M125.6,233.8c-1.9-0.6-3.8-1.3-5.6-2l1.1-2.8
		c1.8,0.7,3.6,1.4,5.5,2L125.6,233.8z M202,233.8l-0.9-2.8c1.8-0.6,3.7-1.3,5.5-2l1.1,2.8C205.8,232.5,203.9,233.2,202,233.8z
		 M114.4,229.4c-1.8-0.8-3.6-1.7-5.4-2.6l1.4-2.6c1.7,0.9,3.5,1.7,5.3,2.5L114.4,229.4z M213.1,229.4l-1.2-2.7
		c1.8-0.8,3.5-1.7,5.2-2.5l1.4,2.6C216.8,227.7,214.9,228.6,213.1,229.4z M103.8,224c-1.7-1-3.4-2.1-5.1-3.1l1.6-2.5
		c1.6,1,3.3,2.1,5,3L103.8,224z M223.8,224l-1.5-2.6c1.7-1,3.4-2,5-3l1.6,2.5C227.2,221.9,225.5,223,223.8,224z M93.7,217.5
		c-1.6-1.2-3.2-2.4-4.8-3.6l1.8-2.3c1.5,1.2,3.1,2.4,4.7,3.5L93.7,217.5z M233.8,217.5l-1.7-2.4c1.6-1.1,3.1-2.3,4.6-3.5l1.8,2.3
		C237,215.1,235.4,216.3,233.8,217.5z M84.3,210c-1.5-1.3-3-2.7-4.4-4.1l2.1-2.1c1.4,1.3,2.8,2.7,4.3,4L84.3,210z M243.1,210l-2-2.2
		c1.5-1.3,2.9-2.6,4.3-4l2.1,2.1C246.1,207.3,244.6,208.7,243.1,210z M75.8,201.7c-1.4-1.5-2.7-3-4-4.5l2.3-1.9
		c1.2,1.5,2.5,2.9,3.9,4.4L75.8,201.7z M251.7,201.7l-2.2-2c1.3-1.4,2.6-2.9,3.9-4.4l2.3,1.9C254.4,198.7,253,200.2,251.7,201.7z
		 M68.1,192.5c-1.2-1.6-2.4-3.2-3.5-4.9L67,186c1.1,1.6,2.2,3.2,3.4,4.7L68.1,192.5z M259.4,192.5l-2.4-1.8c1.2-1.5,2.3-3.1,3.4-4.7
		l2.4,1.7C261.8,189.3,260.6,190.9,259.4,192.5z M61.3,182.6c-1-1.7-2-3.4-3-5.2l2.6-1.4c0.9,1.7,1.9,3.4,2.9,5L61.3,182.6z
		 M266.1,182.6l-2.5-1.5c1-1.7,2-3.4,2.9-5.1l2.6,1.4C268.2,179.2,267.2,180.9,266.1,182.6z M55.6,172.2c-0.9-1.8-1.7-3.6-2.5-5.4
		l2.7-1.2c0.8,1.8,1.6,3.6,2.4,5.3L55.6,172.2z M271.9,172.1l-2.7-1.3c0.8-1.7,1.7-3.5,2.4-5.3l2.7,1.2
		C273.6,168.5,272.8,170.3,271.9,172.1z M51,161.2c-0.7-1.9-1.3-3.8-1.9-5.7l2.8-0.9c0.6,1.8,1.2,3.7,1.9,5.5L51,161.2z
		 M276.5,161.1l-2.8-1c0.7-1.8,1.3-3.7,1.9-5.5l2.8,0.9C277.9,157.3,277.2,159.2,276.5,161.1z M47.4,149.7c-0.5-1.9-0.9-3.9-1.3-5.8
		l2.9-0.6c0.4,1.9,0.8,3.8,1.3,5.7L47.4,149.7z M280.1,149.6l-2.9-0.7c0.5-1.9,0.9-3.8,1.3-5.7l2.9,0.6
		C281,145.7,280.6,147.7,280.1,149.6z M45.1,138c-0.3-2-0.5-4-0.7-5.9l2.9-0.3c0.2,1.9,0.4,3.9,0.7,5.8L45.1,138z M282.4,137.9
		l-2.9-0.4c0.3-1.9,0.5-3.9,0.7-5.8l2.9,0.3C283,133.9,282.7,135.9,282.4,137.9z M43.9,126.1c-0.1-2-0.2-4-0.2-6l3,0
		c0,1.9,0.1,3.9,0.1,5.8L43.9,126.1z M283.5,126l-3-0.1c0.1-1.9,0.1-3.8,0.1-5.8l0,0h3l0,0C283.5,120,283.6,124,283.5,126z
		 M46.8,114.3l-3-0.1c0.1-2,0.2-4,0.4-6l2.9,0.3C47.1,110.4,46.9,112.4,46.8,114.3z M280.6,113.9c-0.1-1.9-0.2-3.9-0.4-5.8l2.9-0.3
		c0.2,2,0.4,4,0.5,6L280.6,113.9z M48,102.7l-2.9-0.4c0.3-2,0.6-3.9,1-5.9l2.9,0.6C48.6,98.8,48.2,100.8,48,102.7z M279.5,102.3
		c-0.3-1.9-0.6-3.8-1-5.7l2.9-0.6c0.4,1.9,0.7,3.9,1,5.9L279.5,102.3z M50.2,91.2l-2.9-0.7c0.5-1.9,1-3.9,1.6-5.8l2.8,0.9
		C51.2,87.5,50.7,89.4,50.2,91.2z M277.1,90.9c-0.5-1.9-1-3.8-1.6-5.6l2.8-0.9c0.6,1.9,1.1,3.8,1.6,5.8L277.1,90.9z M53.7,80.1
		l-2.8-1c0.7-1.9,1.4-3.7,2.2-5.6l2.7,1.1C55,76.4,54.3,78.3,53.7,80.1z M273.7,79.7c-0.7-1.8-1.4-3.6-2.1-5.4l2.7-1.2
		c0.8,1.8,1.5,3.7,2.2,5.6L273.7,79.7z M58.2,69.3L55.5,68c0.9-1.8,1.8-3.6,2.7-5.3l2.6,1.4C59.9,65.8,59,67.6,58.2,69.3z M269.1,69
		c-0.8-1.7-1.7-3.5-2.7-5.2l2.6-1.4c1,1.7,1.9,3.5,2.7,5.3L269.1,69z M63.8,59l-2.5-1.5c1-1.7,2.1-3.4,3.2-5l2.4,1.7
		C65.9,55.7,64.8,57.4,63.8,59z M263.5,58.8c-1-1.7-2.1-3.3-3.2-4.9l2.4-1.7c1.1,1.6,2.2,3.3,3.3,5L263.5,58.8z M70.4,49.4L68,47.6
		c1.2-1.6,2.5-3.2,3.7-4.7l2.3,1.9C72.8,46.3,71.5,47.9,70.4,49.4z M256.9,49.2c-1.2-1.5-2.4-3.1-3.6-4.6l2.3-1.9
		c1.3,1.5,2.5,3.1,3.7,4.7L256.9,49.2z M77.9,40.5l-2.2-2c1.4-1.5,2.8-2.9,4.2-4.3l2.1,2.1C80.6,37.6,79.2,39,77.9,40.5z
		 M249.4,40.3c-1.3-1.4-2.7-2.8-4.1-4.2l2.1-2.1c1.4,1.4,2.8,2.8,4.2,4.3L249.4,40.3z M86.2,32.3l-2-2.2c1.5-1.3,3-2.6,4.6-3.9
		l1.9,2.3C89.2,29.8,87.7,31,86.2,32.3z M241.1,32.1c-1.5-1.3-3-2.5-4.5-3.7l1.8-2.3c1.6,1.2,3.1,2.5,4.6,3.8L241.1,32.1z M95.3,25
		l-1.7-2.4c1.6-1.2,3.3-2.3,4.9-3.4l1.6,2.5C98.5,22.8,96.9,23.9,95.3,25z M231.9,24.9c-1.6-1.1-3.2-2.2-4.8-3.3l1.6-2.5
		c1.7,1.1,3.3,2.2,4.9,3.4L231.9,24.9z M105.1,18.7l-1.5-2.6c1.7-1,3.5-2,5.2-2.9l1.4,2.6C108.5,16.8,106.8,17.7,105.1,18.7z
		 M222.1,18.5c-1.7-1-3.4-1.9-5.1-2.8l1.4-2.6c1.8,0.9,3.5,1.9,5.3,2.9L222.1,18.5z M115.4,13.3l-1.2-2.7c1.8-0.8,3.7-1.6,5.5-2.3
		l1.1,2.8C119,11.8,117.2,12.5,115.4,13.3z M211.7,13.2c-1.8-0.8-3.6-1.6-5.4-2.3l1.1-2.8c1.8,0.7,3.7,1.5,5.5,2.3L211.7,13.2z
		 M126.3,9.1l-0.9-2.8c1.9-0.6,3.8-1.2,5.7-1.8l0.8,2.9C130,7.9,128.1,8.4,126.3,9.1z M200.8,8.9c-1.8-0.6-3.7-1.2-5.6-1.7l0.8-2.9
		c1.9,0.5,3.8,1.1,5.7,1.8L200.8,8.9z M137.5,5.9L136.9,3c1.9-0.4,3.9-0.8,5.9-1.2l0.5,2.9C141.3,5.1,139.4,5.5,137.5,5.9z
		 M189.6,5.8c-1.9-0.4-3.8-0.8-5.7-1.1l0.5-2.9c2,0.3,3.9,0.7,5.9,1.2L189.6,5.8z M149,3.9l-0.4-2.9c2-0.2,4-0.4,6-0.6l0.2,3
		C152.9,3.4,150.9,3.6,149,3.9z M178.1,3.8c-1.9-0.2-3.9-0.4-5.8-0.6l0.2-3c2,0.1,4,0.3,6,0.6L178.1,3.8z M160.6,3l-0.1-3
		c2-0.1,4-0.1,6,0l-0.1,3C164.5,2.9,162.6,2.9,160.6,3z"/>
</g>
<g>
	<path class="st1" d="M163.7,80.3c-10.9,0-19.7-8.8-19.7-19.7s8.8-19.7,19.7-19.7c10.9,0,19.7,8.8,19.7,19.7S174.6,80.3,163.7,80.3z
		 M163.7,43.8c-9.2,0-16.8,7.5-16.8,16.8s7.5,16.8,16.8,16.8c9.2,0,16.8-7.5,16.8-16.8S173,43.8,163.7,43.8z"/>
</g>
<g>
	<path class="st1" d="M135.8,33.7H131v-10h4.6c2,0,3.3,1,3.3,2.6v0c0,1.1-0.6,1.8-1.3,2.2c1.2,0.4,1.9,1.1,1.9,2.5v0
		C139.5,32.8,138,33.7,135.8,33.7z M136.8,26.6c0-0.7-0.5-1-1.4-1h-2.2v2.1h2C136.2,27.7,136.8,27.4,136.8,26.6L136.8,26.6z
		 M137.3,30.6c0-0.7-0.5-1.1-1.6-1.1h-2.5v2.2h2.6C136.8,31.8,137.3,31.4,137.3,30.6L137.3,30.6z"/>
	<path class="st1" d="M148.8,33.7l-0.9-2.2h-4.2l-0.9,2.2h-2.2l4.3-10.1h2l4.3,10.1H148.8z M145.7,26.3l-1.3,3.2h2.7L145.7,26.3z"/>
	<path class="st1" d="M156,33.8c-1.5,0-3-0.5-4.2-1.6l1.3-1.6c0.9,0.7,1.8,1.2,3,1.2c0.9,0,1.4-0.4,1.4-0.9v0c0-0.6-0.3-0.8-2-1.3
		c-2-0.5-3.3-1.1-3.3-3.1v0c0-1.8,1.5-3,3.5-3c1.5,0,2.7,0.5,3.7,1.3l-1.1,1.7c-0.9-0.6-1.8-1-2.6-1c-0.8,0-1.3,0.4-1.3,0.9v0
		c0,0.7,0.4,0.9,2.2,1.3c2,0.5,3.2,1.3,3.2,3v0C159.7,32.7,158.2,33.8,156,33.8z"/>
	<path class="st1" d="M165.9,25.7v8h-2.2v-8h-3v-2h8.3v2H165.9z"/>
	<path class="st1" d="M170.7,33.7v-10h2.2v10H170.7z"/>
	<path class="st1" d="M180.3,33.9c-3.1,0-5.3-2.3-5.3-5.1v0c0-2.8,2.2-5.2,5.3-5.2c3.1,0,5.3,2.3,5.3,5.1v0
		C185.6,31.5,183.4,33.9,180.3,33.9z M183.3,28.7c0-1.7-1.3-3.1-3-3.1s-3,1.4-3,3.1v0c0,1.7,1.3,3.1,3,3.1
		C182.1,31.8,183.3,30.4,183.3,28.7L183.3,28.7z"/>
	<path class="st1" d="M194.6,33.7l-4.8-6.4v6.4h-2.2v-10h2l4.7,6.2v-6.2h2.2v10H194.6z"/>
</g>
<g>
	<path class="st0" d="M163.7,160.3c-10.9,0-19.7-8.8-19.7-19.7c0-10.9,8.8-19.7,19.7-19.7c10.9,0,19.7,8.8,19.7,19.7
		C183.5,151.5,174.6,160.3,163.7,160.3z M163.7,123.9c-9.2,0-16.8,7.5-16.8,16.8c0,9.2,7.5,16.8,16.8,16.8c9.2,0,16.8-7.5,16.8-16.8
		C180.5,131.4,173,123.9,163.7,123.9z"/>
</g>
<g>
	<path class="st0" d="M226.3,134.8c-4.6,0-9.1-1.6-12.6-4.6c-4-3.4-6.5-8.1-7-13.4c-0.5-5.2,1.2-10.4,4.5-14.4c3.4-4,8.1-6.5,13.4-7
		c5.2-0.5,10.4,1.2,14.4,4.5v0c4,3.4,6.5,8.1,7,13.4c0.5,5.2-1.2,10.4-4.5,14.4c-3.4,4-8.1,6.5-13.4,7
		C227.5,134.8,226.9,134.8,226.3,134.8z M226.4,98.4c-0.5,0-1,0-1.5,0.1c-4.5,0.4-8.5,2.5-11.4,5.9c-2.9,3.4-4.2,7.8-3.9,12.2
		c0.4,4.5,2.5,8.5,5.9,11.4c3.4,2.9,7.8,4.2,12.2,3.9c4.5-0.4,8.5-2.5,11.4-5.9c2.9-3.4,4.2-7.8,3.9-12.2c-0.4-4.5-2.5-8.5-5.9-11.4
		l0,0C234.1,99.7,230.3,98.4,226.4,98.4z"/>
</g>
<g>
	<g>
		<path class="st0" d="M145.1,176.2c-2.8,0-4.7-1.9-4.7-4.6v0c0-2.5,2-4.6,4.7-4.6c1.6,0,2.6,0.4,3.5,1.2l-1.2,1.5
			c-0.7-0.6-1.3-0.9-2.3-0.9c-1.4,0-2.6,1.3-2.6,2.8v0c0,1.6,1.1,2.8,2.7,2.8c0.7,0,1.3-0.2,1.8-0.5v-1.3h-2v-1.7h3.9v3.9
			C148,175.6,146.7,176.2,145.1,176.2z"/>
		<path class="st0" d="M156.2,176l-1.9-2.8h-1.5v2.8h-2v-8.9h4.1c2.1,0,3.4,1.1,3.4,2.9v0c0,1.4-0.8,2.3-1.9,2.8l2.2,3.2H156.2z
			 M156.2,170.2c0-0.8-0.6-1.3-1.5-1.3h-1.9v2.6h2C155.7,171.5,156.2,171,156.2,170.2L156.2,170.2z"/>
		<path class="st0" d="M164.3,176.2c-2.7,0-4.7-2-4.7-4.6v0c0-2.5,2-4.6,4.7-4.6c2.7,0,4.7,2,4.7,4.6v0
			C169,174.1,167,176.2,164.3,176.2z M166.9,171.6c0-1.5-1.1-2.8-2.7-2.8c-1.6,0-2.7,1.2-2.7,2.8v0c0,1.5,1.1,2.8,2.7,2.8
			C165.9,174.4,166.9,173.1,166.9,171.6L166.9,171.6z"/>
		<path class="st0" d="M174.4,176.2c-2.4,0-3.8-1.3-3.8-3.9v-5.1h2v5c0,1.4,0.7,2.2,1.9,2.2s1.9-0.7,1.9-2.1v-5.1h2v5
			C178.3,174.9,176.8,176.2,174.4,176.2z"/>
		<path class="st0" d="M183.7,173.4h-1.5v2.7h-2v-8.9h3.6c2.1,0,3.4,1.3,3.4,3.1v0C187.3,172.3,185.7,173.4,183.7,173.4z
			 M185.4,170.3c0-0.9-0.6-1.3-1.6-1.3h-1.5v2.7h1.5C184.8,171.6,185.4,171.1,185.4,170.3L185.4,170.3z"/>
	</g>
</g>
<g>
	<g>
		<path class="st0" d="M202,150.7c-1.3,0-2.7-0.5-3.8-1.4l1.2-1.4c0.8,0.7,1.6,1.1,2.7,1.1c0.8,0,1.3-0.3,1.3-0.8v0
			c0-0.5-0.3-0.7-1.8-1.1c-1.8-0.5-2.9-1-2.9-2.7v0c0-1.6,1.3-2.7,3.1-2.7c1.3,0,2.4,0.4,3.3,1.1l-1,1.5c-0.8-0.5-1.6-0.9-2.3-0.9
			s-1.1,0.3-1.1,0.8v0c0,0.6,0.4,0.8,1.9,1.2c1.8,0.5,2.8,1.1,2.8,2.7v0C205.2,149.7,203.9,150.7,202,150.7z"/>
		<path class="st0" d="M206.9,150.5v-8.9h6.7v1.7h-4.8v1.8h4.2v1.7h-4.2v1.9h4.8v1.7H206.9z"/>
		<path class="st0" d="M220.8,150.5l-1.9-2.8h-1.5v2.8h-2v-8.9h4.1c2.1,0,3.4,1.1,3.4,2.9v0c0,1.4-0.8,2.3-1.9,2.8l2.2,3.2H220.8z
			 M220.9,144.7c0-0.8-0.6-1.3-1.5-1.3h-1.9v2.6h2C220.3,146,220.9,145.5,220.9,144.7L220.9,144.7z"/>
		<path class="st0" d="M228.9,150.6h-1.7l-3.6-8.9h2.2l2.3,6.3l2.3-6.3h2.1L228.9,150.6z"/>
		<path class="st0" d="M234,150.5v-8.9h2v8.9H234z"/>
		<path class="st0" d="M242.3,150.7c-2.6,0-4.6-2-4.6-4.6v0c0-2.5,1.9-4.6,4.6-4.6c1.7,0,2.7,0.6,3.5,1.4l-1.2,1.4
			c-0.7-0.6-1.4-1-2.3-1c-1.5,0-2.6,1.2-2.6,2.8v0c0,1.5,1.1,2.8,2.6,2.8c1,0,1.6-0.4,2.3-1l1.2,1.3
			C245,150.1,244,150.7,242.3,150.7z"/>
		<path class="st0" d="M247.5,150.5v-8.9h6.7v1.7h-4.8v1.8h4.2v1.7h-4.2v1.9h4.8v1.7H247.5z"/>
	</g>
</g>
<g>
	<g>
		<path class="st0" d="M68.7,150.5v-8.9h2v8.9H68.7z"/>
		<path class="st0" d="M79.1,150.5l-4.3-5.6v5.6h-1.9v-8.9h1.8l4.2,5.5v-5.5h1.9v8.9H79.1z"/>
		<path class="st0" d="M86.1,150.7c-1.3,0-2.7-0.5-3.8-1.4l1.2-1.4c0.8,0.7,1.6,1.1,2.7,1.1c0.8,0,1.3-0.3,1.3-0.8v0
			c0-0.5-0.3-0.7-1.8-1.1c-1.8-0.5-2.9-1-2.9-2.7v0c0-1.6,1.3-2.7,3.1-2.7c1.3,0,2.4,0.4,3.3,1.1l-1,1.5c-0.8-0.5-1.6-0.9-2.3-0.9
			c-0.7,0-1.1,0.3-1.1,0.8v0c0,0.6,0.4,0.8,1.9,1.2c1.8,0.5,2.8,1.1,2.8,2.7v0C89.3,149.7,88,150.7,86.1,150.7z"/>
		<path class="st0" d="M94.8,143.5v7.1h-2v-7.1h-2.7v-1.8h7.4v1.8H94.8z"/>
		<path class="st0" d="M104.5,150.5l-0.8-2h-3.8l-0.8,2h-2l3.8-8.9h1.8l3.8,8.9H104.5z M101.8,143.9l-1.2,2.9h2.4L101.8,143.9z"/>
		<path class="st0" d="M114.2,150.5l-4.3-5.6v5.6h-1.9v-8.9h1.8l4.2,5.5v-5.5h1.9v8.9H114.2z"/>
		<path class="st0" d="M122.1,150.7c-2.6,0-4.6-2-4.6-4.6v0c0-2.5,1.9-4.6,4.6-4.6c1.7,0,2.7,0.6,3.5,1.4l-1.2,1.4
			c-0.7-0.6-1.4-1-2.3-1c-1.5,0-2.6,1.2-2.6,2.8v0c0,1.5,1.1,2.8,2.6,2.8c1,0,1.6-0.4,2.3-1l1.2,1.3
			C124.8,150.1,123.8,150.7,122.1,150.7z"/>
		<path class="st0" d="M127.3,150.5v-8.9h6.7v1.7h-4.8v1.8h4.2v1.7h-4.2v1.9h4.8v1.7H127.3z"/>
	</g>
</g>
<g>
	<path class="st0" d="M137.1,208.9h-1v-3.5l-3.7-5.4h1.2l3,4.4l3-4.4h1.2l-3.7,5.4V208.9z"/>
	<path class="st0" d="M143.8,209.1c-2,0-3.4-1.5-3.4-3.4c0-1.9,1.4-3.4,3.4-3.4c2,0,3.4,1.5,3.4,3.4
		C147.2,207.5,145.8,209.1,143.8,209.1z M143.8,203.1c-1.4,0-2.4,1.1-2.4,2.6c0,1.4,1,2.6,2.4,2.6c1.4,0,2.4-1.1,2.4-2.5
		C146.2,204.2,145.2,203.1,143.8,203.1z"/>
	<path class="st0" d="M153.7,202.4h1v6.6h-1v-1.1c-0.4,0.7-1.1,1.3-2.2,1.3c-1.6,0-2.5-1.1-2.5-2.6v-4.1h1v3.8c0,1.2,0.7,2,1.8,2
		c1.1,0,2-0.8,2-2.1V202.4z"/>
	<path class="st0" d="M157.8,208.9h-1v-6.6h1v1.7c0.5-1.1,1.4-1.9,2.7-1.8v1.1h-0.1c-1.4,0-2.6,1-2.6,3V208.9z"/>
	<path class="st0" d="M174.2,208.9h-1.1l-1-2.3h-4.8l-1.1,2.3h-1l4-8.9h0.9L174.2,208.9z M169.7,201.2l-2,4.5h4L169.7,201.2z"/>
	<path class="st0" d="M180.2,200h0.8l2.4,7.4l2.5-7.4h1.1l-3.2,8.9H183l-2.4-7.2l-2.5,7.2h-0.8l-3.2-8.9h1.1l2.5,7.4L180.2,200z"/>
	<path class="st0" d="M191.8,204c2,0.4,2.9,1.2,2.9,2.5c0,1.5-1.3,2.5-3,2.5c-1.4,0-2.6-0.5-3.6-1.4l0.6-0.7c0.9,0.8,1.8,1.3,3,1.3
		c1.2,0,2-0.6,2-1.5c0-0.8-0.4-1.3-2.3-1.7c-2-0.4-3-1.1-3-2.6c0-1.4,1.2-2.4,2.9-2.4c1.3,0,2.2,0.4,3.1,1.1l-0.6,0.8
		c-0.8-0.7-1.6-1-2.6-1c-1.2,0-1.9,0.6-1.9,1.4C189.4,203.1,189.8,203.6,191.8,204z"/>
	<path class="st0" d="M131.3,216.2h-5.4v3h4.8v0.9h-4.8v3.1h5.5v0.9h-6.5v-8.9h6.4V216.2z"/>
	<path class="st0" d="M134.2,224.2h-1v-6.6h1v1.1c0.4-0.7,1.1-1.3,2.2-1.3c1.6,0,2.5,1.1,2.5,2.6v4.1h-1v-3.8c0-1.2-0.7-2-1.8-2
		c-1.1,0-2,0.8-2,2.1V224.2z"/>
	<path class="st0" d="M145.6,217.6h1.1l-2.9,6.6H143l-2.8-6.6h1.1l2.2,5.4L145.6,217.6z"/>
	<path class="st0" d="M148.2,216.2v-1.1h1.1v1.1H148.2z M148.3,224.2v-6.6h1v6.6H148.3z"/>
	<path class="st0" d="M152.5,224.2h-1v-6.6h1v1.7c0.5-1.1,1.4-1.9,2.7-1.8v1.1h-0.1c-1.4,0-2.6,1-2.6,3V224.2z"/>
	<path class="st0" d="M159.4,224.3c-2,0-3.4-1.5-3.4-3.4c0-1.9,1.4-3.4,3.4-3.4c2,0,3.4,1.5,3.4,3.4
		C162.9,222.7,161.4,224.3,159.4,224.3z M159.4,218.3c-1.4,0-2.4,1.1-2.4,2.6c0,1.4,1,2.6,2.4,2.6c1.4,0,2.4-1.1,2.4-2.5
		C161.8,219.5,160.8,218.3,159.4,218.3z"/>
	<path class="st0" d="M165.6,224.2h-1v-6.6h1v1.1c0.4-0.7,1.1-1.3,2.2-1.3c1.6,0,2.5,1.1,2.5,2.6v4.1h-1v-3.8c0-1.2-0.7-2-1.8-2
		c-1.1,0-2,0.8-2,2.1V224.2z"/>
	<path class="st0" d="M179.9,217.5c1.5,0,2.4,1,2.4,2.6v4.1h-1v-3.8c0-1.3-0.6-2-1.7-2c-1,0-1.8,0.7-1.8,2v3.8h-1v-3.9
		c0-1.2-0.6-2-1.7-2s-1.8,0.9-1.8,2.1v3.7h-1v-6.6h1v1.1c0.4-0.6,1-1.2,2.1-1.2c1.1,0,1.8,0.6,2.1,1.3
		C178.1,218.1,178.8,217.5,179.9,217.5z"/>
	<path class="st0" d="M187.4,223.5c0.9,0,1.5-0.4,2.1-0.9l0.6,0.5c-0.7,0.7-1.5,1.2-2.7,1.2c-1.8,0-3.3-1.4-3.3-3.4
		c0-1.9,1.3-3.4,3.1-3.4c1.9,0,3.1,1.5,3.1,3.5c0,0.1,0,0.2,0,0.3h-5.2C185.2,222.7,186.2,223.5,187.4,223.5z M189.3,220.5
		c-0.1-1.2-0.8-2.2-2.1-2.2c-1.1,0-2,1-2.1,2.2H189.3z"/>
	<path class="st0" d="M193,224.2h-1v-6.6h1v1.1c0.4-0.7,1.1-1.3,2.2-1.3c1.6,0,2.5,1.1,2.5,2.6v4.1h-1v-3.8c0-1.2-0.7-2-1.8-2
		c-1.1,0-2,0.8-2,2.1V224.2z"/>
	<path class="st0" d="M201.1,222.3c0,0.8,0.4,1.1,1.1,1.1c0.3,0,0.6-0.1,1-0.2v0.8c-0.3,0.2-0.7,0.3-1.2,0.3c-1.1,0-1.9-0.5-1.9-1.9
		v-4h-0.9v-0.9h0.9v-2h1v2h2.1v0.9h-2.1V222.3z"/>
</g>
<g>
	<line class="st2" x1="163.5" y1="96" x2="163.5" y2="109"/>
	<g>
		<polygon class="st0" points="154.3,101.9 155.9,100.4 163.3,108.4 170.8,100.4 172.4,101.9 163.3,111.7 		"/>
	</g>
</g>
<g>
	<line class="st2" x1="189.7" y1="84.4" x2="199.7" y2="93.4"/>
	<g>
		<polygon class="st0" points="188.2,95.2 188.1,93 199.1,92.8 198.1,81.9 200.3,81.7 201.5,95 		"/>
	</g>
</g>
<g>
	<line class="st2" x1="137.7" y1="84.4" x2="127.7" y2="93.4"/>
	<g>
		<polygon class="st0" points="127.1,81.7 129.4,81.9 128.4,92.8 139.3,93 139.3,95.2 125.9,95 		"/>
	</g>
</g>
<path class="st1" d="M170.2,56.1v-5h-1.4v1.5h-3.4V51h-3.3v1.5h-3.4V51h-1.4v5l1.9,3v9.6h-1.1V70h11.3v-1.4h-1.1v-9.6L170.2,56.1z
	 M164.8,57.1h-2.1V54h2.1V57.1z"/>
<g>
	<circle class="st0" cx="163.7" cy="133.7" r="6.3"/>
	<circle class="st0" cx="170.5" cy="146" r="6.3"/>
	<circle class="st0" cx="157" cy="146" r="6.3"/>
</g>
<path class="st0" d="M232.9,112.6c-0.6-3.1-3.3-5.4-6.6-5.4c-2.6,0-4.8,1.5-5.9,3.6c-2.7,0.3-4.8,2.6-4.8,5.3c0,3,2.4,5.4,5.4,5.4
	h11.6c2.5,0,4.5-2,4.5-4.5C237,114.6,235.2,112.7,232.9,112.6z"/>
<g>
	<path class="st0" d="M101.1,134.8c-10.9,0-19.7-8.8-19.7-19.7s8.8-19.7,19.7-19.7s19.7,8.8,19.7,19.7S112,134.8,101.1,134.8z
		 M101.1,98.4c-9.2,0-16.8,7.5-16.8,16.8s7.5,16.8,16.8,16.8c9.2,0,16.8-7.5,16.8-16.8S110.4,98.4,101.1,98.4z"/>
</g>
<circle class="st0" cx="101.1" cy="115.1" r="10.3"/>
</svg>
