<?xml version="1.0" encoding="utf-8"?>
<!-- Generator: Adobe Illustrator 19.1.0, SVG Export Plug-In . SVG Version: 6.00 Build 0)  -->
<svg version="1.1" id="Layer_1" xmlns="http://www.w3.org/2000/svg" xmlns:xlink="http://www.w3.org/1999/xlink" x="0px" y="0px"
	 viewBox="148 -138 320 300" style="enable-background:new 148 -138 320 300;" xml:space="preserve">
<style type="text/css">
	.st0{fill:none;}
	.st1{fill:#FFFFFE;}
	.st2{fill:#303030;}
	.st3{fill:#BDBDBD;}
	.st4{fill:#212121;}
	.st5{fill:#FFFFFF;}
	.st6{fill:#E0E0E0;}
	.st7{fill:#7CB342;}
	.st8{opacity:0.15;}
	.st9{fill:#757575;}
	.st10{fill:#424242;}
</style>
<rect x="169.1" y="-138" class="st0" width="277.8" height="300"/>
<rect x="169.1" y="-138" class="st0" width="277.8" height="300"/>
<g>
	<g>
		<path class="st1" d="M446.9-91.5c0-24.1-19.8-43.9-44-43.9h-1.5c0,0,0-0.6,0-1.3s-0.7-1.3-1.5-1.3h-42.5c-0.8,0-1.5,0.6-1.5,1.3
			s0,1.3,0,1.3H216c-24.2,0-44,19.8-44,44v36.6c0,0-0.8,0-1.5,0s-1.5,0.5-1.5,1.3v22.7c0,0.8,0.8,1.6,1.5,1.6s1.5,0,1.5,0V0.1
			c0,0-0.8,0-1.5,0S169,0.6,169,1.4v17.2c0,0.8,0.8,1.6,1.5,1.6s1.5,0,1.5,0v27.9c0,0-0.8,0-1.5,0s-1.5,0.5-1.5,1.3v17.2
			c0,0.8,0.8,1.6,1.5,1.6s1.5,0,1.5,0V162h274.9V-91.5z"/>
	</g>
	<g>
		<rect x="192.6" y="-50.8" class="st2" width="234.5" height="212.8"/>
	</g>
	<path class="st3" d="M332.2-90.7h-44c-3,0-5.5,2.5-5.5,5.5s2.5,5.5,5.5,5.5h44c3,0,5.5-2.5,5.5-5.5
		C337.7-88.3,335.2-90.7,332.2-90.7z"/>
	<circle class="st3" cx="309.5" cy="-107.2" r="5.5"/>
	<g>
		<path class="st0" d="M402.9-133.4h-1.5c-1.1,0-2-0.9-2-2v-0.6H358v0.4c0,1.1-0.9,2-2,2H216c-23.2,0-42,18.9-42,42V-55
			c0,1.1-0.9,2-2,2h-0.9v21.7h0.9c1.1,0,2,0.9,2,2V0c0,1.1-0.9,2-2,2h-0.9v16.2h0.9c1.1,0,2,0.9,2,2v27.9c0,1.1-0.9,2-2,2h-0.9v16.2
			h0.9c1.1,0,2,0.9,2,2V162h270.9V-91.4C444.9-114.6,426-133.4,402.9-133.4z"/>
		<path class="st3" d="M174,68.3c0-1.1-0.9-2-2-2h-0.9V50.1h0.9c1.1,0,2-0.9,2-2V20.2c0-1.1-0.9-2-2-2h-0.9V2h0.9c1.1,0,2-0.9,2-2
			v-29.3c0-1.1-0.9-2-2-2h-0.9V-53h0.9c1.1,0,2-0.9,2-2v-36.6c0-23.1,18.8-42,42-42h140c1.1,0,2-0.9,2-2v-0.4h41.4v0.6
			c0,1.1,0.9,2,2,2h1.5c23.1,0,42,18.8,42,42V162h2V-91.5c0-24.2-19.8-44-44-44h-1.5c0,0,0-0.6,0-1.3s-0.6-1.2-1.4-1.2h-42.5
			c-0.8,0-1.5,0.6-1.5,1.3s0,1.3,0,1.3H216c-24.2,0-44,19.8-44,44v36.6c0,0-0.8,0-1.5,0s-1.5,0.5-1.5,1.3v22.7
			c0,0.8,0.8,1.6,1.5,1.6s1.5,0,1.5,0V0.1c0,0-0.8,0-1.5,0S169,0.6,169,1.4v17.2c0,0.8,0.8,1.6,1.5,1.6s1.5,0,1.5,0v27.9
			c0,0-0.8,0-1.5,0s-1.5,0.5-1.5,1.3v17.2c0,0.8,0.8,1.6,1.5,1.6s1.5,0,1.5,0V162h2V68.3z"/>
	</g>
</g>
<g>
	<g>
		<g>
			<rect id="SVGID_3_" x="193.1" y="-51" class="st4" width="233.9" height="43"/>
		</g>
	</g>
	<g>
		<path class="st5" d="M205.7-38.9v15.5h3.6v0.9h-4.5v-16.3L205.7-38.9L205.7-38.9z"/>
		<path class="st5" d="M210.7-26.7c0-1.3,0.5-1.9,1.8-2.5l2.6-1v-2.6c0-1-0.5-1.5-1.6-1.5h-0.2c-1.1,0-1.7,0.5-1.7,1.5v1.7h-0.9
			v-1.6c0-1.6,0.9-2.4,2.5-2.4h0.2c1.7,0,2.5,0.8,2.5,2.4v10.2H215v-0.9c-0.8,0.6-1.4,1-2.4,1h-0.1c-1.3,0-2-0.7-2-2v-2.3
			C210.5-26.7,210.7-26.7,210.7-26.7z M215.1-24.2v-5.2l-2.2,0.9c-1,0.4-1.3,0.8-1.3,1.8v2.1c0,0.9,0.4,1.3,1.3,1.3h0.1
			C213.6-23.3,214.2-23.5,215.1-24.2z"/>
		<path class="st5" d="M223.6-22.5h-0.9v-0.9c-0.8,0.7-1.5,1-2.4,1h-0.1c-1.4,0-2.1-0.7-2.1-2V-35h0.9v10.4c0,0.9,0.5,1.3,1.4,1.3
			h0.1c0.7,0,1.3-0.3,2.2-1V-35h0.9L223.6-22.5L223.6-22.5z"/>
		<path class="st5" d="M225.9-35h0.9v0.9c0.8-0.7,1.5-1,2.4-1h0.1c1.4,0,2.1,0.7,2.1,2v10.6h-0.9V-33c0-0.9-0.5-1.3-1.4-1.3H229
			c-0.7,0-1.3,0.3-2.2,1v10.8h-0.9L225.9-35L225.9-35z"/>
		<path class="st5" d="M238.1-32.6c0-1.1-0.6-1.7-1.7-1.7H236c-1.1,0-1.7,0.6-1.7,1.7v7.6c0,1.1,0.6,1.7,1.7,1.7h0.4
			c1.1,0,1.7-0.6,1.7-1.7v-2.3h0.9v2.2c0,1.7-0.9,2.6-2.5,2.6H236c-1.7,0-2.6-0.9-2.6-2.6v-7.6c0-1.7,0.9-2.6,2.6-2.6h0.4
			c1.7,0,2.5,0.9,2.5,2.5v1.9H238v-1.7C238-32.6,238.1-32.6,238.1-32.6z"/>
		<path class="st5" d="M241.1-39.1h0.9v5c0.8-0.7,1.5-1,2.4-1h0.1c1.4,0,2.1,0.7,2.1,2v10.6h-0.9V-33c0-0.9-0.5-1.3-1.4-1.3h-0.1
			c-0.7,0-1.3,0.3-2.2,1v10.8h-0.9L241.1-39.1L241.1-39.1z"/>
		<path class="st5" d="M257.5-28.3v3.1c0,1.8-0.9,2.7-2.7,2.7h-3.1v-16.3h3.1c1.8,0,2.7,0.9,2.7,2.7v2.8c0,1.5-0.6,2.3-1.6,2.6
			C256.8-30.6,257.5-29.8,257.5-28.3z M254.8-38h-2.2v6.7h1.9c1.4,0,2.1-0.7,2.1-2v-3C256.6-37.4,256-38,254.8-38z M252.6-23.4h2.2
			c1.2,0,1.8-0.6,1.8-1.8v-3.2c0-1.4-0.7-2-2.1-2h-1.9V-23.4z"/>
		<path class="st5" d="M259.6-26.7c0-1.3,0.5-1.9,1.8-2.5l2.6-1v-2.6c0-1-0.5-1.5-1.6-1.5h-0.2c-1.1,0-1.7,0.5-1.7,1.5v1.7h-0.9
			v-1.6c0-1.6,0.9-2.4,2.5-2.4h0.2c1.7,0,2.5,0.8,2.5,2.4v10.2H264v-0.9c-0.8,0.6-1.4,1-2.4,1h-0.1c-1.3,0-2-0.7-2-2v-2.3
			C259.5-26.7,259.6-26.7,259.6-26.7z M264-24.2v-5.2l-2.2,0.9c-1,0.4-1.3,0.8-1.3,1.8v2.1c0,0.9,0.4,1.3,1.3,1.3h0.1
			C262.5-23.3,263.1-23.5,264-24.2z"/>
		<path class="st5" d="M271.4-32.8c0-1-0.5-1.5-1.6-1.5h-0.4c-1.1,0-1.6,0.5-1.6,1.5v1.2c0,0.8,0.3,1.3,0.9,1.7l2.1,1.3
			c1,0.6,1.4,1.3,1.4,2.4v1.4c0,1.5-0.8,2.4-2.5,2.4h-0.4c-1.7,0-2.4-0.9-2.4-2.4v-2h0.9v2c0,1,0.5,1.5,1.6,1.5h0.4
			c1.1,0,1.6-0.5,1.6-1.5v-1.4c0-0.8-0.3-1.3-0.9-1.7l-2.1-1.4c-1-0.6-1.4-1.2-1.4-2.4v-1.2c0-1.5,0.8-2.4,2.5-2.4h0.4
			c1.7,0,2.4,0.9,2.4,2.4v1.9h-0.9V-32.8z"/>
		<path class="st5" d="M275.6-22.5h-0.9v-11.6h-1V-35h1v-2.1h0.9v2.1h1.6v0.8h-1.6V-22.5z"/>
		<path class="st5" d="M278.7-38.3h0.9v1.6h-0.9V-38.3z M278.7-35h0.9v12.5h-0.9V-35z"/>
		<path class="st5" d="M284.4-22.4c-1.7,0-2.6-0.9-2.6-2.6v-7.6c0-1.7,0.9-2.6,2.6-2.6h0.5c1.7,0,2.5,0.9,2.5,2.6v7.6
			c0,1.7-0.9,2.6-2.5,2.6C284.9-22.4,284.4-22.4,284.4-22.4z M284.4-34.3c-1.1,0-1.7,0.6-1.7,1.7v7.6c0,1.1,0.6,1.7,1.7,1.7h0.4
			c1.1,0,1.7-0.6,1.7-1.7v-7.6c0-1.1-0.6-1.7-1.7-1.7H284.4z"/>
		<path class="st5" d="M289.5-35h0.9v0.9c0.8-0.7,1.5-1,2.4-1h0.1c1.4,0,2.1,0.7,2.1,2v10.6h-0.9V-33c0-0.9-0.5-1.3-1.4-1.3h-0.1
			c-0.7,0-1.3,0.3-2.2,1v10.8h-0.9V-35z"/>
		<path class="st5" d="M301.1-22.5h-0.9v-16.3h0.9V-22.5z"/>
		<path class="st5" d="M303.5-35h0.9v0.9c0.8-0.7,1.5-1,2.4-1h0.1c1.4,0,2.1,0.7,2.1,2v10.6h-0.9V-33c0-0.9-0.5-1.3-1.4-1.3h-0.1
			c-0.7,0-1.3,0.3-2.2,1v10.8h-0.9V-35z"/>
		<path class="st5" d="M315.4-32.8c0-1-0.5-1.5-1.6-1.5h-0.3c-1.1,0-1.6,0.5-1.6,1.5v1.2c0,0.8,0.3,1.3,0.9,1.7l2.1,1.3
			c1,0.6,1.4,1.3,1.4,2.4v1.4c0,1.5-0.8,2.4-2.5,2.4h-0.4c-1.7,0-2.5-0.9-2.5-2.4v-2h0.9v2c0,1,0.5,1.5,1.6,1.5h0.4
			c1.1,0,1.6-0.5,1.6-1.5v-1.4c0-0.8-0.3-1.3-0.9-1.7l-2.1-1.4c-1-0.6-1.4-1.2-1.4-2.4v-1.2c0-1.5,0.8-2.4,2.5-2.4h0.3
			c1.7,0,2.4,0.9,2.4,2.4v1.9h-0.9v-1.8H315.4z"/>
		<path class="st5" d="M319.7-22.5h-0.9v-11.6h-1V-35h1v-2.1h0.9v2.1h1.6v0.8h-1.6V-22.5z"/>
		<path class="st5" d="M322.3-26.7c0-1.3,0.5-1.9,1.8-2.5l2.6-1v-2.6c0-1-0.5-1.5-1.6-1.5H325c-1.1,0-1.7,0.5-1.7,1.5v1.7h-0.9v-1.6
			c0-1.6,0.9-2.4,2.5-2.4h0.2c1.7,0,2.5,0.8,2.5,2.4v10.2h-0.9v-0.9c-0.8,0.6-1.4,1-2.4,1h-0.1c-1.3,0-2-0.7-2-2L322.3-26.7
			L322.3-26.7z M326.7-24.2v-5.2l-2.2,0.9c-1,0.4-1.3,0.8-1.3,1.8v2.1c0,0.9,0.4,1.3,1.3,1.3h0.1C325.3-23.3,325.8-23.5,326.7-24.2z
			"/>
		<path class="st5" d="M329.9-35h0.9v0.9c0.8-0.7,1.5-1,2.4-1h0.1c1.4,0,2.1,0.7,2.1,2v10.6h-0.9V-33c0-0.9-0.5-1.3-1.4-1.3H333
			c-0.7,0-1.3,0.3-2.2,1v10.8h-0.9V-35z"/>
		<path class="st5" d="M342-32.6c0-1.1-0.6-1.7-1.7-1.7H340c-1.1,0-1.7,0.6-1.7,1.7v7.6c0,1.1,0.6,1.7,1.7,1.7h0.4
			c1.1,0,1.7-0.6,1.7-1.7v-2.3h0.9v2.2c0,1.7-0.9,2.6-2.5,2.6H340c-1.7,0-2.6-0.9-2.6-2.6v-7.6c0-1.7,0.9-2.6,2.6-2.6h0.4
			c1.7,0,2.5,0.9,2.5,2.5v1.9H342V-32.6z"/>
		<path class="st5" d="M345.8-28.4v3.4c0,1.1,0.6,1.7,1.7,1.7h0.3c1.1,0,1.7-0.6,1.7-1.7v-1.4h0.9v1.4c0,1.7-0.9,2.6-2.6,2.6h-0.3
			c-1.7,0-2.6-0.9-2.6-2.6v-7.5c0-1.7,0.9-2.6,2.6-2.6h0.3c1.7,0,2.6,0.9,2.6,2.6v4.1H345.8z M345.8-29.2h3.7v-3.3
			c0-1.1-0.6-1.7-1.7-1.7h-0.2c-1.2,0-1.7,0.6-1.7,1.7L345.8-29.2L345.8-29.2z"/>
		<path class="st5" d="M356.7-32.8c0-1-0.5-1.5-1.6-1.5h-0.3c-1.1,0-1.6,0.5-1.6,1.5v1.2c0,0.8,0.3,1.3,0.9,1.7l2.1,1.3
			c1,0.6,1.4,1.3,1.4,2.4v1.4c0,1.5-0.8,2.4-2.5,2.4h-0.4c-1.7,0-2.5-0.9-2.5-2.4v-2h0.9v2c0,1,0.5,1.5,1.6,1.5h0.4
			c1.1,0,1.6-0.5,1.6-1.5v-1.4c0-0.8-0.3-1.3-0.9-1.7l-2.1-1.4c-1-0.6-1.4-1.2-1.4-2.4v-1.2c0-1.5,0.8-2.4,2.5-2.4h0.3
			c1.7,0,2.4,0.9,2.4,2.4v1.9h-0.9v-1.8H356.7z"/>
	</g>
	<g>
		<path class="st3" d="M206.5,16.7c-0.9,0-1.9-0.3-2.6-1l0.8-1c0.6,0.5,1.1,0.8,1.9,0.8c0.6,0,0.9-0.2,0.9-0.6l0,0
			c0-0.3-0.2-0.5-1.3-0.8c-1.3-0.3-2.1-0.7-2.1-1.9l0,0c0-1.1,0.9-1.9,2.2-1.9c0.9,0,1.7,0.3,2.3,0.8l-0.7,1
			c-0.6-0.4-1.1-0.6-1.6-0.6s-0.8,0.2-0.8,0.5l0,0c0,0.4,0.3,0.5,1.3,0.8c1.3,0.3,2,0.8,2,1.9l0,0C208.8,16,207.9,16.7,206.5,16.7z"
			/>
		<path class="st3" d="M214.3,14.7H211c0.1,0.6,0.6,0.9,1.2,0.9c0.5,0,0.8-0.1,1.2-0.5l0.8,0.7c-0.4,0.6-1.1,0.9-1.9,0.9
			c-1.4,0-2.5-1-2.5-2.5l0,0c0-1.4,1-2.5,2.4-2.5c1.6,0,2.3,1.2,2.3,2.6l0,0C214.3,14.5,214.3,14.6,214.3,14.7z M212,12.9
			c-0.6,0-0.9,0.4-1,1h2C212.9,13.3,212.5,12.9,212,12.9z"/>
		<path class="st3" d="M215.4,16.6v-6.5h1.4v6.5H215.4z"/>
		<path class="st3" d="M222.4,14.7h-3.3c0.1,0.6,0.6,0.9,1.2,0.9c0.5,0,0.8-0.1,1.2-0.5l0.8,0.7c-0.4,0.6-1.1,0.9-1.9,0.9
			c-1.4,0-2.5-1-2.5-2.5l0,0c0-1.4,1-2.5,2.4-2.5c1.6,0,2.3,1.2,2.3,2.6l0,0C222.4,14.5,222.4,14.6,222.4,14.7z M220.1,12.9
			c-0.6,0-0.9,0.4-1,1h2C221,13.3,220.7,12.9,220.1,12.9z"/>
		<path class="st3" d="M225.7,16.7c-1.4,0-2.5-1.1-2.5-2.5l0,0c0-1.4,1-2.5,2.5-2.5c0.9,0,1.5,0.3,1.9,0.8l-0.8,0.9
			c-0.3-0.3-0.6-0.5-1.1-0.5c-0.7,0-1.2,0.6-1.2,1.3l0,0c0,0.7,0.5,1.3,1.2,1.3c0.5,0,0.8-0.2,1.1-0.5l0.8,0.8
			C227.2,16.4,226.6,16.7,225.7,16.7z"/>
		<path class="st3" d="M230.1,16.7c-0.8,0-1.4-0.3-1.4-1.4V13h-0.6v-1.2h0.6v-1.2h1.4v1.2h1.1V13h-1.1v2c0,0.3,0.1,0.5,0.4,0.5
			c0.2,0,0.5-0.1,0.7-0.2v1.1C230.9,16.6,230.6,16.7,230.1,16.7z"/>
		<path class="st3" d="M238.8,16.6l-1.3-2h-1.1v2H235v-6.2h2.8c1.5,0,2.3,0.8,2.3,2.1l0,0c0,1-0.5,1.6-1.3,1.9l1.5,2.2H238.8z
			 M238.8,12.5c0-0.6-0.4-0.9-1.1-0.9h-1.4v1.8h1.4C238.4,13.4,238.8,13.1,238.8,12.5L238.8,12.5z"/>
		<path class="st3" d="M245.6,14.7h-3.3c0.1,0.6,0.6,0.9,1.2,0.9c0.5,0,0.8-0.1,1.2-0.5l0.8,0.7c-0.4,0.6-1.1,0.9-1.9,0.9
			c-1.4,0-2.5-1-2.5-2.5l0,0c0-1.4,1-2.5,2.4-2.5c1.6,0,2.3,1.2,2.3,2.6l0,0C245.6,14.5,245.6,14.6,245.6,14.7z M243.3,12.9
			c-0.6,0-0.9,0.4-1,1h2C244.3,13.3,243.9,12.9,243.3,12.9z"/>
		<path class="st3" d="M248.8,18.1c-0.8,0-1.5-0.2-2.1-0.5l0.5-1c0.5,0.3,1,0.4,1.6,0.4c0.9,0,1.4-0.4,1.4-1.3v-0.2
			c-0.4,0.5-0.8,0.8-1.6,0.8c-1.1,0-2.1-0.8-2.1-2.2l0,0c0-1.4,1-2.2,2.1-2.2c0.7,0,1.2,0.3,1.5,0.7V12h1.4v3.7
			C251.4,17.4,250.6,18.1,248.8,18.1z M250.1,14c0-0.6-0.5-1.1-1.2-1.1s-1.2,0.5-1.2,1.1l0,0c0,0.7,0.5,1.1,1.2,1.1
			S250.1,14.7,250.1,14L250.1,14z"/>
		<path class="st3" d="M252.7,11.3v-1.2h1.4v1.2H252.7z M252.7,16.6v-4.8h1.4v4.8C254.1,16.6,252.7,16.6,252.7,16.6z"/>
		<path class="st3" d="M257.7,16.7c-1.5,0-2.6-1.1-2.6-2.5l0,0c0-1.4,1.1-2.5,2.6-2.5s2.6,1.1,2.6,2.5l0,0
			C260.3,15.6,259.2,16.7,257.7,16.7z M258.9,14.3c0-0.7-0.5-1.3-1.3-1.3s-1.2,0.6-1.2,1.3l0,0c0,0.7,0.5,1.3,1.3,1.3
			C258.5,15.6,258.9,15,258.9,14.3L258.9,14.3z"/>
		<path class="st3" d="M264.3,16.6V14c0-0.6-0.3-1-0.8-1s-0.8,0.3-0.8,1v2.7h-1.4v-4.8h1.4v0.7c0.3-0.4,0.7-0.8,1.4-0.8
			c1,0,1.6,0.7,1.6,1.8v3.1h-1.4L264.3,16.6L264.3,16.6z"/>
		<path class="st3" d="M268.4,16.7c-0.7,0-1.4-0.2-2-0.7l0.6-0.9c0.5,0.4,1.1,0.6,1.5,0.6s0.6-0.1,0.6-0.4l0,0c0-0.3-0.5-0.4-1-0.6
			c-0.7-0.2-1.4-0.5-1.4-1.4l0,0c0-1,0.8-1.5,1.7-1.5c0.6,0,1.3,0.2,1.8,0.6l-0.5,0.9c-0.5-0.3-0.9-0.4-1.3-0.4
			c-0.3,0-0.5,0.1-0.5,0.3l0,0c0,0.3,0.5,0.4,1,0.6c0.7,0.2,1.4,0.5,1.4,1.4l0,0C270.3,16.2,269.5,16.7,268.4,16.7z"/>
		<path class="st3" d="M275.5,16.7c-0.8,0-1.4-0.3-1.4-1.4V13h-0.6v-1.2h0.6v-1.2h1.4v1.2h1.1V13h-1.1v2c0,0.3,0.1,0.5,0.4,0.5
			c0.2,0,0.5-0.1,0.7-0.2v1.1C276.3,16.6,276,16.7,275.5,16.7z"/>
		<path class="st3" d="M279.8,16.7c-1.5,0-2.6-1.1-2.6-2.5l0,0c0-1.4,1.1-2.5,2.6-2.5s2.6,1.1,2.6,2.5l0,0
			C282.4,15.6,281.3,16.7,279.8,16.7z M281.1,14.3c0-0.7-0.5-1.3-1.3-1.3s-1.2,0.6-1.2,1.3l0,0c0,0.7,0.5,1.3,1.3,1.3
			C280.6,15.6,281.1,15,281.1,14.3L281.1,14.3z"/>
		<path class="st3" d="M286.2,16.6v-6.2h1.4v5h3.1v1.2H286.2z"/>
		<path class="st3" d="M294.3,16.6v-0.5c-0.3,0.4-0.8,0.6-1.4,0.6c-0.9,0-1.6-0.5-1.6-1.5l0,0c0-1,0.8-1.5,1.9-1.5
			c0.5,0,0.8,0.1,1.2,0.2v-0.1c0-0.6-0.3-0.9-1-0.9c-0.5,0-0.9,0.1-1.3,0.3l-0.3-1c0.5-0.2,1-0.4,1.9-0.4c1.5,0,2.1,0.8,2.1,2.1v2.8
			h-1.5L294.3,16.6L294.3,16.6z M294.3,14.7c-0.2-0.1-0.5-0.2-0.9-0.2c-0.6,0-0.9,0.2-0.9,0.7l0,0c0,0.4,0.3,0.6,0.7,0.6
			c0.6,0,1.1-0.3,1.1-0.8L294.3,14.7L294.3,14.7z"/>
		<path class="st3" d="M299.8,16.6V16c-0.3,0.4-0.7,0.8-1.4,0.8c-1,0-1.6-0.7-1.6-1.8v-3.1h1.4v2.7c0,0.6,0.3,1,0.8,1s0.8-0.3,0.8-1
			v-2.7h1.4v4.8h-1.4L299.8,16.6L299.8,16.6z"/>
		<path class="st3" d="M305.3,16.6V14c0-0.6-0.3-1-0.8-1s-0.8,0.3-0.8,1v2.7h-1.4v-4.8h1.4v0.7c0.3-0.4,0.7-0.8,1.4-0.8
			c1,0,1.6,0.7,1.6,1.8v3.1h-1.4L305.3,16.6L305.3,16.6z"/>
		<path class="st3" d="M310.1,16.7c-1.4,0-2.5-1.1-2.5-2.5l0,0c0-1.4,1-2.5,2.5-2.5c0.9,0,1.5,0.3,1.9,0.8l-0.8,0.9
			c-0.3-0.3-0.6-0.5-1.1-0.5c-0.7,0-1.2,0.6-1.2,1.3l0,0c0,0.7,0.5,1.3,1.2,1.3c0.5,0,0.8-0.2,1.1-0.5l0.8,0.8
			C311.6,16.4,311.1,16.7,310.1,16.7z"/>
		<path class="st3" d="M316,16.6V14c0-0.6-0.3-1-0.8-1s-0.8,0.3-0.8,1v2.7H313v-6.5h1.4v2.4c0.3-0.4,0.7-0.8,1.4-0.8
			c1,0,1.6,0.7,1.6,1.8v3.1H316V16.6z"/>
		<path class="st3" d="M321.4,16.6v-6.2h1.4v6.2H321.4z"/>
		<path class="st3" d="M327.1,16.6V14c0-0.6-0.3-1-0.8-1s-0.8,0.3-0.8,1v2.7h-1.4v-4.8h1.4v0.7c0.3-0.4,0.7-0.8,1.4-0.8
			c1,0,1.6,0.7,1.6,1.8v3.1h-1.4L327.1,16.6L327.1,16.6z"/>
	</g>
	<g>
		<g>
			<path class="st6" d="M253.6,40c0,2.7-1.6,4.1-3.9,4.1c-2.3,0-3.9-1.4-3.9-4.1v-5.4h1.1V40c0,2,1.1,3.1,2.9,3.1
				c1.7,0,2.8-1,2.8-3.1v-5.4h1.1V40H253.6z"/>
			<path class="st6" d="M259.5,38.8c2.1,0.5,3,1.2,3,2.7c0,1.6-1.3,2.7-3.2,2.7c-1.5,0-2.7-0.5-3.8-1.5l0.7-0.8
				c1,0.9,1.9,1.3,3.2,1.3c1.3,0,2.1-0.7,2.1-1.6c0-0.9-0.5-1.4-2.4-1.8c-2.1-0.5-3.1-1.2-3.1-2.7s1.3-2.6,3.1-2.6
				c1.4,0,2.3,0.4,3.3,1.1l-0.6,0.8c-0.9-0.7-1.7-1-2.7-1c-1.2,0-2,0.7-2,1.5C256.9,37.8,257.4,38.3,259.5,38.8z"/>
			<path class="st6" d="M264.2,40.5v-1.1h3.7v1.1H264.2z"/>
			<path class="st6" d="M276.8,35.6h-5.7v3.2h5.1v1h-5.1V43h5.8v1h-6.8v-9.3h6.7V35.6z"/>
			<path class="st6" d="M279.2,38.4l-0.3-0.8c0.8-0.3,1.5-0.6,2.5-0.6c1.9,0,2.9,1,2.9,2.8V44h-1v-1c-0.5,0.6-1.3,1.2-2.5,1.2
				c-1.3,0-2.6-0.7-2.6-2.2s1.2-2.2,2.9-2.2c0.9,0,1.5,0.1,2.1,0.3v-0.2c0-1.2-0.8-1.9-2.1-1.9C280.5,37.9,279.9,38.1,279.2,38.4z
				 M279.4,41.9c0,0.9,0.8,1.4,1.7,1.4c1.3,0,2.3-0.8,2.3-1.9v-0.7c-0.5-0.1-1.2-0.3-2-0.3C280.1,40.5,279.4,41,279.4,41.9z"/>
			<path class="st6" d="M288.8,44.1c-1,0-2.1-0.4-2.9-1l0.5-0.7c0.7,0.6,1.6,0.9,2.4,0.9s1.4-0.4,1.4-1.1l0,0c0-0.7-0.8-1-1.7-1.2
				c-1.1-0.3-2.3-0.7-2.3-1.9l0,0c0-1.2,1-2,2.3-2c0.8,0,1.8,0.3,2.5,0.8l-0.5,0.8c-0.6-0.4-1.4-0.7-2-0.7c-0.8,0-1.3,0.4-1.3,1l0,0
				c0,0.7,0.9,0.9,1.8,1.2c1.1,0.3,2.2,0.7,2.2,2l0,0C291.3,43.3,290.2,44.1,288.8,44.1z"/>
			<path class="st6" d="M294.5,42c0,0.8,0.5,1.1,1.2,1.1c0.3,0,0.6-0.1,1-0.2v0.9c-0.4,0.2-0.7,0.3-1.2,0.3c-1.1,0-1.9-0.5-1.9-1.9
				V38h-1v-0.9h1V35h1v2.1h2.2V38h-2.2v4H294.5z"/>
			<path class="st6" d="M298.2,40.5v-1.1h3.7v1.1H298.2z"/>
			<path class="st6" d="M305,34.6h0.8V44h-1v-8.3l-1.8,0.5l-0.3-0.9L305,34.6z"/>
		</g>
		<path class="st7" d="M226.4,46.4h-14.7c-3.3,0-6-2.7-6-6v-1.3c0-3.3,2.7-6,6-6h14.7c3.3,0,6,2.7,6,6v1.3
			C232.4,43.8,229.8,46.4,226.4,46.4z"/>
		<g class="st8">
			<g>
				<path d="M225.8,49.7L225.8,49.7c-4.9,0-8.9-4-8.9-8.9l0,0c0-4.9,4-8.9,8.9-8.9l0,0c4.9,0,8.9,4,8.9,8.9l0,0
					C234.7,45.7,230.7,49.7,225.8,49.7z"/>
			</g>
		</g>
		<g>
			<g>
				<path class="st6" d="M225.8,48.7L225.8,48.7c-4.9,0-8.9-4-8.9-8.9l0,0c0-4.9,4-8.9,8.9-8.9l0,0c4.9,0,8.9,4,8.9,8.9l0,0
					C234.7,44.7,230.7,48.7,225.8,48.7z"/>
			</g>
		</g>
	</g>
	<g>
		<g>
			<path class="st6" d="M253.6,73.3c0,2.7-1.6,4.1-3.9,4.1c-2.3,0-3.9-1.4-3.9-4.1V68h1.1v5.4c0,2,1.1,3.1,2.9,3.1
				c1.7,0,2.8-1,2.8-3.1V68h1.1v5.3H253.6z"/>
			<path class="st6" d="M259.5,72.1c2.1,0.5,3,1.2,3,2.7c0,1.6-1.3,2.7-3.2,2.7c-1.5,0-2.7-0.5-3.8-1.5l0.7-0.8
				c1,0.9,1.9,1.3,3.2,1.3c1.3,0,2.1-0.7,2.1-1.6s-0.5-1.4-2.4-1.8c-2.1-0.5-3.1-1.2-3.1-2.7s1.3-2.6,3.1-2.6c1.4,0,2.3,0.4,3.3,1.1
				l-0.6,0.8c-0.9-0.7-1.7-1-2.7-1c-1.2,0-2,0.7-2,1.5C256.9,71.2,257.4,71.7,259.5,72.1z"/>
			<path class="st6" d="M264.2,73.8v-1.1h3.7v1.1H264.2z"/>
			<path class="st6" d="M275.3,67.9h0.9l2.6,7.8l2.7-7.8h1.1l-3.3,9.4h-0.9l-2.6-7.6l-2.6,7.6h-0.9l-3.3-9.4h1.1l2.7,7.8L275.3,67.9
				z"/>
			<path class="st6" d="M286.4,76.6c0.9,0,1.6-0.4,2.2-1l0.6,0.6c-0.7,0.8-1.5,1.3-2.8,1.3c-1.9,0-3.4-1.5-3.4-3.6
				c0-2,1.4-3.6,3.3-3.6c2,0,3.2,1.6,3.2,3.7c0,0.1,0,0.2,0,0.3H284C284.1,75.7,285.2,76.6,286.4,76.6z M288.4,73.5
				c-0.1-1.3-0.8-2.3-2.2-2.3c-1.2,0-2.1,1-2.2,2.3H288.4z"/>
			<path class="st6" d="M293.5,77.4c-1,0-2.1-0.4-2.9-1l0.5-0.7c0.7,0.6,1.6,0.9,2.4,0.9s1.4-0.4,1.4-1.1l0,0c0-0.7-0.8-1-1.7-1.2
				c-1.1-0.3-2.3-0.7-2.3-1.9l0,0c0-1.2,1-2,2.3-2c0.8,0,1.8,0.3,2.5,0.8l-0.5,0.8c-0.6-0.4-1.4-0.7-2-0.7c-0.8,0-1.3,0.4-1.3,1l0,0
				c0,0.7,0.9,0.9,1.8,1.2c1.1,0.3,2.2,0.7,2.2,2l0,0C296,76.7,294.9,77.4,293.5,77.4z"/>
			<path class="st6" d="M299.1,75.3c0,0.8,0.5,1.1,1.2,1.1c0.3,0,0.6-0.1,1-0.2v0.9c-0.4,0.2-0.7,0.3-1.2,0.3
				c-1.1,0-1.9-0.5-1.9-1.9v-4.2h-1v-0.9h1v-2.1h1v2.1h2.2v0.9h-2.2v4C299.2,75.3,299.1,75.3,299.1,75.3z"/>
			<path class="st6" d="M302.8,73.8v-1.1h3.7v1.1H302.8z"/>
			<path class="st6" d="M309.7,67.9h0.8v9.4h-1V69l-1.8,0.5l-0.3-0.9L309.7,67.9z"/>
		</g>
		<path class="st9" d="M226.4,79.8h-14.7c-3.3,0-6-2.7-6-6v-1.3c0-3.3,2.7-6,6-6h14.7c3.3,0,6,2.7,6,6v1.3
			C232.4,77.1,229.8,79.8,226.4,79.8z"/>
		<g class="st8">
			<g>
				<path d="M213.3,83h-0.9c-4.9,0-8.9-4-8.9-8.9l0,0c0-4.9,4-8.9,8.9-8.9l0,0c4.9,0,8.9,4,8.9,8.9V75C221.3,79.4,217.8,83,213.3,83
					z"/>
			</g>
		</g>
		<g>
			<g>
				<path class="st6" d="M213.3,82h-0.9c-4.9,0-8.9-4-8.9-8.9l0,0c0-4.9,4-8.9,8.9-8.9l0,0c4.9,0,8.9,4,8.9,8.9V74
					C221.3,78.4,217.8,82,213.3,82z"/>
			</g>
		</g>
	</g>
	<g>
		<g>
			<path class="st6" d="M253.6,106.6c0,2.7-1.6,4.1-3.9,4.1c-2.3,0-3.9-1.4-3.9-4.1v-5.4h1.1v5.4c0,2,1.1,3.1,2.9,3.1
				c1.7,0,2.8-1,2.8-3.1v-5.4h1.1v5.4H253.6z"/>
			<path class="st6" d="M259.5,105.4c2.1,0.5,3,1.2,3,2.7c0,1.6-1.3,2.7-3.2,2.7c-1.5,0-2.7-0.5-3.8-1.5l0.7-0.8
				c1,0.9,1.9,1.3,3.2,1.3c1.3,0,2.1-0.7,2.1-1.6s-0.5-1.4-2.4-1.8c-2.1-0.5-3.1-1.2-3.1-2.7s1.3-2.6,3.1-2.6c1.4,0,2.3,0.4,3.3,1.1
				l-0.6,0.8c-0.9-0.7-1.7-1-2.7-1c-1.2,0-2,0.7-2,1.5C256.9,104.5,257.4,105,259.5,105.4z"/>
			<path class="st6" d="M264.2,107.2v-1.1h3.7v1.1H264.2z"/>
			<path class="st6" d="M275.3,101.3h0.9l2.6,7.8l2.7-7.8h1.1l-3.3,9.4h-0.9l-2.6-7.6l-2.6,7.6h-0.9l-3.3-9.4h1.1l2.7,7.8
				L275.3,101.3z"/>
			<path class="st6" d="M286.4,109.9c0.9,0,1.6-0.4,2.2-1l0.6,0.6c-0.7,0.8-1.5,1.3-2.8,1.3c-1.9,0-3.4-1.5-3.4-3.6
				c0-2,1.4-3.6,3.3-3.6c2,0,3.2,1.6,3.2,3.7c0,0.1,0,0.2,0,0.3H284C284.1,109,285.2,109.9,286.4,109.9z M288.4,106.8
				c-0.1-1.3-0.8-2.3-2.2-2.3c-1.2,0-2.1,1-2.2,2.3H288.4z"/>
			<path class="st6" d="M293.5,110.8c-1,0-2.1-0.4-2.9-1l0.5-0.7c0.7,0.6,1.6,0.9,2.4,0.9s1.4-0.4,1.4-1.1l0,0c0-0.7-0.8-1-1.7-1.2
				c-1.1-0.3-2.3-0.7-2.3-1.9l0,0c0-1.2,1-2,2.3-2c0.8,0,1.8,0.3,2.5,0.8l-0.5,0.8c-0.6-0.4-1.4-0.7-2-0.7c-0.8,0-1.3,0.4-1.3,1l0,0
				c0,0.7,0.9,0.9,1.8,1.2c1.1,0.3,2.2,0.7,2.2,2l0,0C296,110,294.9,110.8,293.5,110.8z"/>
			<path class="st6" d="M299.1,108.7c0,0.8,0.5,1.1,1.2,1.1c0.3,0,0.6-0.1,1-0.2v0.9c-0.4,0.2-0.7,0.3-1.2,0.3
				c-1.1,0-1.9-0.5-1.9-1.9v-4.2h-1v-0.9h1v-2.1h1v2.1h2.2v0.9h-2.2v4C299.2,108.7,299.1,108.7,299.1,108.7z"/>
			<path class="st6" d="M302.8,107.2v-1.1h3.7v1.1H302.8z"/>
			<path class="st6" d="M309,103.7l-0.8-0.6c0.8-1.3,1.7-2,3.4-2c1.7,0,2.9,1.1,2.9,2.7c0,1.4-0.7,2.2-2.4,3.6l-2.5,2.2h4.9v1H308
				v-0.8l3.4-3c1.4-1.3,1.9-2,1.9-2.9c0-1.1-0.9-1.8-1.9-1.8C310.4,102.1,309.7,102.7,309,103.7z"/>
		</g>
		<path class="st9" d="M226.4,113.1h-14.7c-3.3,0-6-2.7-6-6v-1.3c0-3.3,2.7-6,6-6h14.7c3.3,0,6,2.7,6,6v1.3
			C232.4,110.4,229.8,113.1,226.4,113.1z"/>
		<g class="st8">
			<g>
				<path d="M212.4,116.3L212.4,116.3c-4.9,0-8.9-4-8.9-8.9l0,0c0-4.9,4-8.9,8.9-8.9l0,0c4.9,0,8.9,4,8.9,8.9l0,0
					C221.3,112.3,217.3,116.3,212.4,116.3z"/>
			</g>
		</g>
		<g>
			<g>
				<path class="st6" d="M212.4,115.3L212.4,115.3c-4.9,0-8.9-4-8.9-8.9l0,0c0-4.9,4-8.9,8.9-8.9l0,0c4.9,0,8.9,4,8.9,8.9l0,0
					C221.3,111.3,217.3,115.3,212.4,115.3z"/>
			</g>
		</g>
	</g>
	<g>
		<rect x="193.1" y="129" class="st10" width="233.9" height="1"/>
	</g>
	<g>
		<path class="st7" d="M347,142.4h1.6v7.8h4.9v1.5H347V142.4z"/>
		<path class="st7" d="M364.2,151.7h-1.7l-0.9-2.3h-4.4l-1,2.3h-1.7l4.1-9.4h1.5L364.2,151.7z M359.3,144.3l-1.6,3.7h3.2
			L359.3,144.3z"/>
		<path class="st7" d="M373.3,147.7c0,2.8-1.6,4.2-4,4.2s-4-1.4-4-4.1v-5.4h1.6v5.3c0,1.7,0.9,2.7,2.4,2.7s2.3-0.9,2.3-2.6v-5.4h1.6
			v5.3H373.3z"/>
		<path class="st7" d="M382.1,142.4h1.6v9.3h-1.4l-5.1-6.6v6.6h-1.6v-9.3h1.5l5,6.5V142.4z"/>
		<path class="st7" d="M390.4,151.9c-2.7,0-4.7-2.1-4.7-4.8s2-4.8,4.8-4.8c1.7,0,2.8,0.6,3.7,1.5l-1.1,1.2c-0.7-0.7-1.5-1.2-2.6-1.2
			c-1.8,0-3.1,1.5-3.1,3.3s1.3,3.3,3.1,3.3c1.1,0,1.9-0.5,2.7-1.2l1.1,1.1C393.2,151.3,392.1,151.9,390.4,151.9z"/>
		<path class="st7" d="M397.5,147.8v3.9h-1.6v-9.3h1.6v3.9h4.5v-3.9h1.6v9.3H402v-3.9H397.5z"/>
		<path class="st7" d="M409.5,149.5l1.8-2.3l-1.8-2.4l1.2-0.6l2.2,2.9v0.1l-2.2,2.9L409.5,149.5z"/>
	</g>
</g>
</svg>
