<?xml version="1.0" encoding="utf-8"?>
<!-- Generator: Adobe Illustrator 19.1.0, SVG Export Plug-In . SVG Version: 6.00 Build 0)  -->
<svg version="1.1" id="Layer_1" xmlns="http://www.w3.org/2000/svg" xmlns:xlink="http://www.w3.org/1999/xlink" x="0px" y="0px"
	 viewBox="0 16 320 240" style="enable-background:new 0 16 320 240;" xml:space="preserve">
<style type="text/css">
	.st0{fill:#FFFFFF;}
	.st1{fill:#424242;}
	.st2{fill:#E0E0E0;}
	.st3{fill:#BDBDBD;}
	.st4{fill:#212121;}
	.st5{opacity:0.87;}
	.st6{fill:#EF5350;}
	.st7{fill:#D3AB74;}
</style>
<g>
	<path d="M293.2,200.5c0,6.7-5.4,12.2-12.2,12.2H37.8c-6.7,0-12.2-5.4-12.2-12.2V30.2c0-6.7,5.4-12.2,12.2-12.2H281
		c6.7,0,12.2,5.4,12.2,12.2V200.5L293.2,200.5z"/>
	<rect x="129.3" y="212.7" class="st0" width="60" height="16.5"/>
	<path class="st1" d="M279.5,37.7c0-3.3-2.7-6-6-6h-228c-3.3,0-6,2.7-6,6v146c0,3.3,2.7,6,6,6h228c3.3,0,6-2.7,6-6V37.7z"/>
	<path class="st2" d="M218.2,241.3H100.6c-1.1,0-2-0.9-2-2v-8.2c0-1.1,0.9-2,2-2h117.7c1.1,0,2,0.9,2,2v8.2
		C220.2,240.4,219.3,241.3,218.2,241.3z"/>
</g>
<g>
	<path class="st0" d="M52.9,229.8c0,4.7-3.8,8.5-8.5,8.5H10.3c-4.7,0-8.5-3.8-8.5-8.5V156c0-4.7,3.8-8.5,8.5-8.5h34.1
		c4.7,0,8.5,3.8,8.5,8.5V229.8z"/>
	<rect x="4.6" y="164.5" class="st1" width="45.4" height="56.8"/>
	<circle class="st3" cx="17.4" cy="157.4" r="1.4"/>
	<path class="st3" d="M38.8,157.4c0,0.8-0.6,1.4-1.4,1.4H23.2c-0.8,0-1.4-0.6-1.4-1.4c0-0.8,0.6-1.4,1.4-1.4h14.2
		C38.1,156,38.8,156.6,38.8,157.4z"/>
	<circle class="st3" cx="27.3" cy="229.8" r="4.5"/>
</g>
<g>
	<path class="st4" d="M44.3,212.4c0,2.2-1.8,4-4,4h-26c-2.2,0-4-1.8-4-4v-39c0-2.2,1.8-4,4-4h26c2.2,0,4,1.8,4,4V212.4z"/>
	<g class="st5">
		<path class="st0" d="M36.8,195c0.9,0,1.7,1.2,1.7,2.2v11.4c0,1-0.8,1.4-1.7,1.4H18.1c-0.9,0-1.6-0.4-1.6-1.4v-11.4
			c0-1,0.7-2.2,1.6-2.2h18.4 M36.8,194H18.1c-1.5,0-2.6,1.6-2.6,3.2v11.4c0,1.5,1.1,2.4,2.6,2.4h18.7c1.5,0,2.7-0.9,2.7-2.4v-11.4
			C39.4,195.6,38.1,194,36.8,194L36.8,194z"/>
		<g>
			<path class="st0" d="M20.4,200.2v1.6h3.7v1.5h-3.7v3h-1.7v-7.7h5.9v1.5L20.4,200.2L20.4,200.2z"/>
			<path class="st0" d="M26.1,206.4v-7.7h1.7v7.7H26.1z"/>
			<path class="st0" d="M34.6,206.4l-1.7-2.6l-1.7,2.6h-1.9l2.7-3.9l-2.6-3.8h2l1.6,2.5l1.6-2.5h1.9l-2.6,3.8l2.7,3.9H34.6z"/>
		</g>
	</g>
	<path class="st6" d="M27.3,173.7c-4.4,0-8,3.6-8,8c0,4.4,3.6,8,8,8s8-3.6,8-8S31.8,173.7,27.3,173.7z M28.1,185.7h-1.6v-1.6h1.6
		V185.7z M28.1,182.5h-1.6v-4.8h1.6V182.5z"/>
</g>
<g>
	<path class="st4" d="M243.4,136.2c0,2.2-1.8,4-4,4h-160c-2.2,0-4-1.8-4-4v-65c0-2.2,1.8-4,4-4h160c2.2,0,4,1.8,4,4V136.2z"/>
	<g class="st5">
		<path class="st0" d="M221.8,107c0.9,0,1.6,1,1.6,2v17.4c0,1-0.7,1.6-1.6,1.6H97.1c-0.9,0-1.7-0.6-1.7-1.6V109c0-1,0.8-2,1.7-2
			h124.3 M221.8,106H97.1c-1.5,0-2.7,1.4-2.7,3v17.4c0,1.5,1.2,2.6,2.7,2.6h124.7c1.5,0,2.6-1.1,2.6-2.6V109
			C224.4,107.4,223.2,106,221.8,106L221.8,106z"/>
		<g>
			<path class="st0" d="M121.2,122.3c-1.5,0-2.5-0.7-3.2-1.5l1.4-1.5c0.6,0.6,1.1,1,1.8,1c0.8,0,1.3-0.5,1.3-1.6v-6.3h2.2v6.4
				C124.6,121.2,123.2,122.3,121.2,122.3z"/>
			<path class="st0" d="M130.9,122.3c-2.6,0-4.2-1.5-4.2-4.4v-5.6h2.2v5.5c0,1.6,0.8,2.4,2.1,2.4c1.3,0,2.1-0.8,2.1-2.4v-5.6h2.2
				v5.5C135.2,120.9,133.6,122.3,130.9,122.3z"/>
			<path class="st0" d="M140.9,122.3c-1.5,0-3-0.5-4.2-1.6l1.3-1.5c0.9,0.7,1.8,1.2,2.9,1.2c0.9,0,1.4-0.4,1.4-0.9l0,0
				c0-0.5-0.3-0.8-2-1.2c-2-0.5-3.2-1.1-3.2-3l0,0c0-1.8,1.4-3,3.4-3c1.4,0,2.6,0.4,3.6,1.2l-1.1,1.6c-0.9-0.6-1.7-1-2.5-1
				s-1.3,0.4-1.3,0.9l0,0c0,0.6,0.4,0.9,2.1,1.3c2,0.5,3.1,1.2,3.1,2.9l0,0C144.6,121.2,143.2,122.3,140.9,122.3z"/>
			<path class="st0" d="M150.9,114.3v7.8h-2.2v-7.8h-3v-2h8.1v2H150.9z"/>
			<path class="st0" d="M162.2,114.3v2.1h4.7v2h-4.7v3.8h-2.2v-9.8h7.5v2L162.2,114.3L162.2,114.3z"/>
			<path class="st0" d="M169.3,122.2v-9.8h2.2v9.8C171.6,122.2,169.3,122.2,169.3,122.2z"/>
			<path class="st0" d="M180.2,122.2l-2.2-3.4l-2.2,3.4h-2.5l3.4-5l-3.3-4.8h2.5l2.1,3.2l2.1-3.2h2.5l-3.3,4.8l3.4,5
				C182.7,122.2,180.2,122.2,180.2,122.2z"/>
			<path class="st0" d="M188.7,122.2v-9.8h2.2v9.8C190.9,122.2,188.7,122.2,188.7,122.2z"/>
			<path class="st0" d="M197.7,114.3v7.8h-2.2v-7.8h-3v-2h8.1v2H197.7z"/>
		</g>
	</g>
	<g class="st5">
		<path class="st6" d="M104.2,95.2v-15h-2.5v-1.8h7v1.8h-2.5v15H104.2z"/>
		<path class="st6" d="M109.7,78.2h1.8v4.9c0.5-0.5,1.2-1,2.3-1c1.5,0,2.2,0.9,2.2,2.3v10.8h-1.8V84.8c0-0.7-0.3-1-0.9-1
			s-1.1,0.2-1.8,0.6v10.7h-1.8L109.7,78.2L109.7,78.2z"/>
		<path class="st6" d="M119.6,89.4v3.1c0,0.8,0.4,1.2,1.2,1.2h0.3c0.8,0,1.2-0.4,1.2-1.2V91h1.8v1.4c0,1.9-1,2.9-2.9,2.9h-0.4
			c-1.9,0-2.9-1-2.9-2.9V85c0-1.9,1-2.9,2.9-2.9h0.4c1.9,0,2.9,1,2.9,2.9v4.4H119.6z M119.6,87.7h2.6V85c0-0.8-0.4-1.2-1.2-1.2h-0.3
			c-0.8,0-1.2,0.4-1.2,1.2v2.7H119.6z"/>
		<path class="st6" d="M125.6,82.2h1.8v1.4c0.6-1,1.1-1.5,2.1-1.5v2.1c-0.9,0.1-1.6,0.3-2.1,0.8v10.2h-1.8V82.2z"/>
		<path class="st6" d="M132.2,89.4v3.1c0,0.8,0.4,1.2,1.2,1.2h0.3c0.8,0,1.2-0.4,1.2-1.2V91h1.8v1.4c0,1.9-1,2.9-2.9,2.9h-0.4
			c-1.9,0-2.9-1-2.9-2.9V85c0-1.9,1-2.9,2.9-2.9h0.4c1.9,0,2.9,1,2.9,2.9v4.4H132.2z M132.2,87.7h2.6V85c0-0.8-0.4-1.2-1.2-1.2h-0.3
			c-0.8,0-1.2,0.4-1.2,1.2v2.7H132.2z"/>
		<path class="st6" d="M139.9,80.3c0,1.1-0.1,1.5-0.6,2.5l-0.5,0.9l-0.8-0.2l0.3-0.7c0.2-0.6,0.4-1.1,0.4-1.5H138v-2.8h1.9
			L139.9,80.3L139.9,80.3z"/>
		<path class="st6" d="M145.2,84.9c0-0.7-0.4-1.1-1.1-1.1h-0.3c-0.7,0-1.1,0.4-1.1,1.1V86c0,0.6,0.2,0.9,0.7,1.2l2.2,1.3
			c1.1,0.7,1.5,1.3,1.5,2.6v1.3c0,1.9-1,2.9-2.9,2.9h-0.4c-1.9,0-2.9-1-2.9-2.9v-1.9h1.8v2c0,0.7,0.4,1.1,1.1,1.1h0.4
			c0.7,0,1.1-0.4,1.1-1.1v-1.2c0-0.6-0.2-0.9-0.7-1.2l-2.2-1.3c-1-0.7-1.5-1.3-1.5-2.6V85c0-1.9,1-2.9,2.9-2.9h0.3
			c1.9,0,2.9,1,2.9,2.9v1.8h-1.8V84.9z"/>
		<path class="st6" d="M151.3,90.7c0-1.6,0.5-2.3,1.9-2.7l2.4-0.8V85c0-0.8-0.4-1.2-1.2-1.2h0c-0.8,0-1.2,0.4-1.2,1.2v1.6h-1.8V85
			c0-1.9,1-2.9,2.9-2.9h0.2c1.9,0,2.9,1,2.9,2.9v10.2h-1.8v-0.8c-0.5,0.5-1.2,1-2.2,1c-1.5,0-2.1-0.8-2.1-2.3V90.7z M155.7,93v-4.2
			l-1.7,0.6c-0.7,0.3-0.9,0.6-0.9,1.3v2c0,0.6,0.3,0.9,0.9,0.9C154.7,93.6,155.2,93.4,155.7,93z"/>
		<path class="st6" d="M164.1,95.2h-1.9V78.4h3.3c2.1,0,3.1,1,3.1,3.1v4.2c0,2.1-1,3.1-3.1,3.1h-1.4V95.2z M165.3,80.2h-1.3v7h1.3
			c0.9,0,1.3-0.4,1.3-1.3v-4.4C166.7,80.6,166.2,80.2,165.3,80.2z"/>
		<path class="st6" d="M170.1,82.2h1.8v1.4c0.6-1,1.1-1.5,2.1-1.5v2.1c-0.9,0.1-1.6,0.3-2.1,0.8v10.2h-1.8V82.2z"/>
		<path class="st6" d="M177.7,95.4c-1.9,0-2.9-1-2.9-2.9V85c0-1.9,1-2.9,2.9-2.9h0.5c1.9,0,2.9,1,2.9,2.9v7.4c0,1.9-1,2.9-2.9,2.9
			L177.7,95.4L177.7,95.4z M177.8,83.8c-0.8,0-1.2,0.4-1.2,1.2v7.5c0,0.8,0.4,1.2,1.2,1.2h0.4c0.8,0,1.2-0.4,1.2-1.2V85
			c0-0.8-0.4-1.2-1.2-1.2H177.8z"/>
		<path class="st6" d="M182.8,78.2h1.8v4.9c0.4-0.5,1.2-1,2.2-1c1.6,0,2.3,1,2.3,2.6v8.1c0,1.5-0.8,2.6-2.3,2.6
			c-1.1,0-1.8-0.5-2.2-0.9v0.8h-1.8V78.2z M184.7,93c0.5,0.4,1.1,0.7,1.7,0.7c0.7,0,1.1-0.3,1.1-1.1v-7.7c0-0.7-0.4-1.1-1.1-1.1
			c-0.6,0-1.2,0.2-1.7,0.7V93z"/>
		<path class="st6" d="M190.9,78.2h1.8v17h-1.8V78.2z"/>
		<path class="st6" d="M196.2,89.4v3.1c0,0.8,0.4,1.2,1.2,1.2h0.3c0.8,0,1.2-0.4,1.2-1.2V91h1.8v1.4c0,1.9-1,2.9-2.9,2.9h-0.4
			c-1.9,0-2.9-1-2.9-2.9V85c0-1.9,1-2.9,2.9-2.9h0.4c1.9,0,2.9,1,2.9,2.9v4.4H196.2z M196.2,87.7h2.6V85c0-0.8-0.4-1.2-1.2-1.2h-0.2
			c-0.8,0-1.2,0.4-1.2,1.2V87.7z"/>
		<path class="st6" d="M208.4,95.2h-1.8V84.8c0-0.6-0.3-0.9-0.9-0.9c-0.5,0-1,0.2-1.7,0.6v10.7h-1.8v-13h1.8V83c0.5-0.5,1.2-1,2.2-1
			c0.9,0,1.6,0.4,1.9,1.1c0.6-0.6,1.4-1.1,2.5-1.1c1.4,0,2.1,0.9,2.1,2.3v10.8H211V84.7c0-0.6-0.3-0.9-0.9-0.9c-0.5,0-1,0.2-1.7,0.6
			L208.4,95.2L208.4,95.2z"/>
		<path class="st6" d="M215.8,90.5h-0.7l-0.6-8.2v-3.9h1.9v3.9L215.8,90.5z M216.4,95.2h-1.9v-2.8h1.9V95.2z"/>
	</g>
</g>
<g>
	<path class="st0" d="M281.5,242.5c0,2.5-2,4.5-4.5,4.5h-89.4c-2.5,0-4.5-2-4.5-4.5V130.8c0-2.5,2-4.5,4.5-4.5H277
		c2.5,0,4.5,2,4.5,4.5V242.5z"/>
	<rect x="192.1" y="139.8" class="st1" width="80.4" height="89.4"/>
	<circle class="st3" cx="232.2" cy="238.1" r="4.5"/>
	<path class="st7" d="M318.2,256l-18.8-31.3c0-26.9-17.9-44.7-17.9-44.7v35.7l-12.4-8.3c-0.7-0.4-1.4-0.7-2.2-0.7
		c-1.8,0-3.3,1.5-3.3,3.3c0,0.8,0.3,1.5,0.8,2.1c7.4,10.4,12.6,21.4,23.8,30.4l3.4,13.5H318.2z"/>
	<circle class="st1" cx="230.1" cy="133.1" r="2.2"/>
</g>
<g>
	<path class="st4" d="M260.2,212.9c0,2.2-1.8,4-4,4h-48c-2.2,0-4-1.8-4-4v-57c0-2.2,1.8-4,4-4h48c2.2,0,4,1.8,4,4V212.9z"/>
	<g class="st5">
		<path class="st0" d="M251.7,191c0.9,0,1.8,0.8,1.8,1.7v11.4c0,1-0.9,1.9-1.8,1.9h-38.7c-0.9,0-1.5-0.9-1.5-1.9v-11.4
			c0-1,0.6-1.7,1.5-1.7h38.5 M251.7,190h-38.7c-1.5,0-2.5,1.2-2.5,2.7v11.4c0,1.5,1,2.9,2.5,2.9h38.7c1.5,0,2.8-1.3,2.8-2.9v-11.4
			C254.4,191.2,253.2,190,251.7,190L251.7,190z"/>
		<g>
			<path class="st0" d="M216.9,196.2v1.8h4v1.7h-4v3.2h-1.8v-8.4h6.4v1.7C221.6,196.2,216.9,196.2,216.9,196.2z"/>
			<path class="st0" d="M223.2,202.9v-8.4h1.8v8.4H223.2z"/>
			<path class="st0" d="M232.3,202.9l-1.9-2.9l-1.9,2.9h-2.1l2.9-4.3l-2.8-4.1h2.2l1.8,2.7l1.8-2.7h2.1l-2.8,4.1l2.9,4.3H232.3z"/>
			<path class="st0" d="M239.7,202.9v-8.4h1.8v8.4H239.7z"/>
			<path class="st0" d="M247.6,196.3v6.7h-1.8v-6.7h-2.6v-1.7h7v1.7H247.6z"/>
		</g>
	</g>
	<path class="st6" d="M232.2,159.3c-5.5,0-10,4.5-10,10s4.5,10,10,10s10-4.5,10-10S237.8,159.3,232.2,159.3z M233.2,174.3h-2v-2h2
		V174.3z M233.2,170.3h-2v-6h2V170.3z"/>
</g>
</svg>
