<?xml version="1.0" encoding="utf-8"?>
<!-- Generator: Adobe Illustrator 19.1.0, SVG Export Plug-In . SVG Version: 6.00 Build 0)  -->
<svg version="1.1" id="Layer_1" xmlns="http://www.w3.org/2000/svg" xmlns:xlink="http://www.w3.org/1999/xlink" x="0px" y="0px"
	 viewBox="0 -40 320 320" style="enable-background:new 0 -40 320 320;" xml:space="preserve">
<style type="text/css">
	.st0{fill:#607D8B;}
	.st1{fill:#FF9800;}
	.st2{fill:none;stroke:#607D8B;stroke-width:3;stroke-miterlimit:10;}
</style>
<g>
	<path class="st0" d="M163.8,270.5l0-3c2,0,4,0,6-0.1l0.1,3C167.9,270.5,165.8,270.5,163.8,270.5z M157.7,270.4
		c-2-0.1-4.1-0.2-6.1-0.4l0.2-3c2,0.2,4,0.3,5.9,0.3L157.7,270.4z M176,270l-0.2-3c2-0.2,4-0.4,5.9-0.6l0.4,3
		C180,269.6,178,269.8,176,270z M145.6,269.4c-2-0.2-4-0.5-6-0.8l0.5-3c2,0.3,3.9,0.6,5.9,0.8L145.6,269.4z M188,268.6l-0.5-3
		c2-0.3,3.9-0.7,5.9-1.1l0.6,2.9C192,267.9,190,268.2,188,268.6z M133.6,267.5c-2-0.4-4-0.8-5.9-1.3l0.7-2.9
		c1.9,0.5,3.9,0.9,5.8,1.3L133.6,267.5z M200,266.1l-0.7-2.9c1.9-0.5,3.9-1,5.8-1.5l0.8,2.9C203.9,265.1,201.9,265.6,200,266.1z
		 M121.8,264.6c-1.9-0.6-3.9-1.2-5.8-1.8l0.9-2.8c1.9,0.6,3.8,1.2,5.7,1.8L121.8,264.6z M211.6,262.7l-1-2.8c1.9-0.6,3.8-1.3,5.6-2
		l1.1,2.8C215.5,261.4,213.5,262.1,211.6,262.7z M110.3,260.8c-1.9-0.7-3.8-1.5-5.7-2.3l1.2-2.8c1.8,0.8,3.7,1.5,5.5,2.2
		L110.3,260.8z M223,258.4l-1.2-2.8c1.8-0.8,3.6-1.6,5.4-2.4l1.3,2.7C226.7,256.8,224.8,257.6,223,258.4z M99.1,256
		c-1.8-0.9-3.6-1.8-5.4-2.7l1.4-2.7c1.8,0.9,3.6,1.8,5.3,2.7L99.1,256z M233.9,253.2l-1.4-2.7c1.7-0.9,3.5-1.9,5.2-2.9l1.5,2.6
		C237.5,251.3,235.7,252.3,233.9,253.2z M88.3,250.3c-1.7-1-3.5-2.1-5.2-3.2l1.6-2.5c1.7,1.1,3.4,2.1,5.1,3.1L88.3,250.3z
		 M244.4,247.1l-1.6-2.5c1.7-1.1,3.3-2.2,5-3.3l1.7,2.5C247.9,244.9,246.2,246.1,244.4,247.1z M78,243.8c-1.7-1.2-3.3-2.3-4.9-3.6
		l1.8-2.4c1.6,1.2,3.2,2.4,4.8,3.5L78,243.8z M254.4,240.2l-1.8-2.4c1.6-1.2,3.2-2.4,4.7-3.7l1.9,2.3
		C257.7,237.8,256,239,254.4,240.2z M68.3,236.5c-1.6-1.3-3.1-2.6-4.6-3.9l2-2.2c1.5,1.3,3,2.6,4.5,3.9L68.3,236.5z M263.8,232.6
		l-2-2.2c1.5-1.3,2.9-2.7,4.4-4l2.1,2.2C266.8,229.8,265.3,231.2,263.8,232.6z M59.2,228.4c-1.5-1.4-2.9-2.8-4.3-4.3l2.2-2.1
		c1.4,1.4,2.8,2.8,4.2,4.2L59.2,228.4z M272.6,224.1l-2.2-2.1c1.4-1.4,2.7-2.9,4-4.4l2.2,2C275.4,221.2,274,222.7,272.6,224.1z
		 M50.7,219.7c-1.3-1.5-2.7-3.1-3.9-4.6l2.3-1.9c1.3,1.5,2.6,3.1,3.9,4.5L50.7,219.7z M280.7,215l-2.3-1.9c1.3-1.5,2.5-3.1,3.7-4.7
		l2.4,1.8C283.2,211.9,282,213.5,280.7,215z M43,210.3c-1.2-1.6-2.4-3.3-3.6-4.9l2.5-1.7c1.1,1.6,2.3,3.3,3.5,4.8L43,210.3z
		 M288,205.3l-2.5-1.7c1.1-1.6,2.2-3.3,3.3-5l2.5,1.6C290.3,202,289.1,203.7,288,205.3z M36.1,200.3c-1.1-1.7-2.1-3.5-3.1-5.2
		l2.6-1.5c1,1.7,2,3.4,3.1,5.1L36.1,200.3z M294.5,195l-2.6-1.5c1-1.7,2-3.5,2.9-5.2l2.7,1.4C296.5,191.5,295.5,193.3,294.5,195z
		 M30.1,189.8c-0.9-1.8-1.9-3.6-2.7-5.4l2.7-1.3c0.8,1.8,1.7,3.6,2.7,5.3L30.1,189.8z M300.2,184.3l-2.7-1.3
		c0.9-1.8,1.7-3.6,2.5-5.4l2.8,1.2C301.9,180.6,301.1,182.4,300.2,184.3z M24.8,178.8c-0.8-1.8-1.6-3.7-2.3-5.6l2.8-1.1
		c0.7,1.8,1.5,3.7,2.2,5.5L24.8,178.8z M305,173.1l-2.8-1.1c0.7-1.9,1.4-3.7,2-5.6l2.8,0.9C306.4,169.2,305.7,171.2,305,173.1z
		 M20.5,167.5c-0.6-1.9-1.3-3.9-1.8-5.8l2.9-0.8c0.6,1.9,1.1,3.8,1.8,5.7L20.5,167.5z M308.8,161.5l-2.9-0.8
		c0.6-1.9,1.1-3.8,1.5-5.8l2.9,0.7C309.9,157.6,309.4,159.6,308.8,161.5z M17.1,155.8c-0.5-2-0.9-4-1.3-5.9l2.9-0.6
		c0.4,1.9,0.8,3.9,1.3,5.8L17.1,155.8z M311.7,149.7l-2.9-0.6c0.4-1.9,0.8-3.9,1.1-5.9l3,0.5C312.5,145.7,312.1,147.7,311.7,149.7z
		 M14.7,143.9c-0.3-2-0.6-4-0.9-6l3-0.4c0.2,2,0.5,4,0.8,5.9L14.7,143.9z M313.7,137.7l-3-0.4c0.2-2,0.4-3.9,0.6-5.9l3,0.2
		C314.1,133.7,313.9,135.7,313.7,137.7z M13.2,131.8c-0.2-2-0.3-4-0.4-6.1l3-0.1c0.1,2,0.2,4,0.4,6L13.2,131.8z M314.7,125.6
		l-2.9-0.1c0.1-2,0.2-4,0.2-6V119h3v0.5C315,121.5,314.8,123.6,314.7,125.6z M16,120h-3v-0.5c0-2-0.1-4,0-5.9l3.1,0.1
		c-0.1,1.9,0,3.9,0,5.8V120z M311.6,113.2c-0.1-2-0.2-4-0.4-5.9l3-0.2c0.2,2,0.3,4.1,0.4,6.1L311.6,113.2z M16.2,107.8l-3-0.2
		c0.2-2,0.4-4,0.6-6l3,0.4C16.5,103.8,16.4,105.8,16.2,107.8z M310.6,101.3c-0.2-2-0.5-3.9-0.8-5.9l3-0.5c0.3,2,0.6,4,0.9,6
		L310.6,101.3z M17.6,95.9l-3-0.5c0.3-2,0.7-4,1.1-6l2.9,0.6C18.3,92,17.9,94,17.6,95.9z M308.7,89.6c-0.4-1.9-0.8-3.9-1.3-5.8
		l2.9-0.7c0.5,2,0.9,4,1.3,5.9L308.7,89.6z M20,84.2L17,83.5c0.5-2,1-3.9,1.6-5.9l2.9,0.8C20.9,80.4,20.4,82.3,20,84.2z M305.8,78
		c-0.6-1.9-1.2-3.8-1.8-5.7l2.8-1c0.6,1.9,1.3,3.9,1.8,5.8L305.8,78z M23.3,72.8l-2.8-0.9c0.6-1.9,1.3-3.9,2-5.7l2.8,1.1
		C24.6,69,23.9,70.9,23.3,72.8z M302,66.7c-0.7-1.8-1.5-3.7-2.2-5.5l2.8-1.2c0.8,1.9,1.6,3.7,2.3,5.6L302,66.7z M27.5,61.6l-2.8-1.2
		c0.8-1.9,1.6-3.7,2.5-5.6l2.7,1.3C29.1,58,28.3,59.8,27.5,61.6z M297.4,55.8c-0.9-1.8-1.7-3.6-2.7-5.3l2.7-1.4
		c0.9,1.8,1.9,3.6,2.7,5.4L297.4,55.8z M32.6,50.8l-2.7-1.4c0.9-1.8,1.9-3.6,2.9-5.3l2.6,1.5C34.5,47.3,33.5,49.1,32.6,50.8z
		 M291.8,45.3c-1-1.7-2-3.4-3.1-5.1l2.5-1.6c1.1,1.7,2.1,3.4,3.2,5.2L291.8,45.3z M38.6,40.5L36,38.9c1.1-1.7,2.2-3.4,3.4-5.1
		l2.5,1.7C40.7,37.2,39.6,38.8,38.6,40.5z M285.4,35.2c-1.1-1.6-2.3-3.2-3.5-4.8l2.4-1.8c1.2,1.6,2.4,3.3,3.6,4.9L285.4,35.2z
		 M45.3,30.7l-2.4-1.8c1.2-1.6,2.5-3.2,3.8-4.8L49,26C47.8,27.5,46.5,29.1,45.3,30.7z M278.3,25.7c-1.2-1.5-2.6-3-3.9-4.5l2.2-2
		c1.3,1.5,2.7,3.1,3.9,4.6L278.3,25.7z M52.9,21.4l-2.2-2c1.3-1.5,2.7-3,4.1-4.5l2.2,2.1C55.5,18.5,54.2,20,52.9,21.4z M270.3,16.8
		c-1.4-1.4-2.8-2.8-4.2-4.2l2.1-2.2c1.5,1.4,2.9,2.8,4.3,4.3L270.3,16.8z M61.1,12.8L59,10.7c1.5-1.4,3-2.8,4.5-4.1l2,2.2
		C64,10.1,62.6,11.5,61.1,12.8z M261.7,8.6c-1.5-1.3-3-2.6-4.5-3.9l1.9-2.3c1.6,1.3,3.1,2.6,4.6,3.9L261.7,8.6z M70,4.9l-1.9-2.3
		c1.6-1.3,3.2-2.5,4.8-3.8l1.8,2.4C73.1,2.4,71.6,3.7,70,4.9z M252.5,1.1c-1.6-1.2-3.2-2.4-4.8-3.5l1.7-2.5c1.7,1.1,3.3,2.3,4.9,3.6
		L252.5,1.1z M79.5-2.2l-1.7-2.5c1.7-1.1,3.4-2.3,5.1-3.4l1.6,2.5C82.8-4.5,81.2-3.4,79.5-2.2z M242.7-5.7c-1.7-1.1-3.4-2.1-5.1-3.1
		l1.5-2.6c1.7,1,3.5,2.1,5.2,3.1L242.7-5.7z M89.6-8.6l-1.5-2.6c1.7-1,3.5-2,5.3-2.9l1.4,2.7C93-10.6,91.3-9.6,89.6-8.6z
		 M232.3-11.7c-1.7-0.9-3.5-1.8-5.3-2.7l1.3-2.7c1.8,0.9,3.7,1.8,5.5,2.7L232.3-11.7z M100.1-14.2l-1.3-2.7c1.8-0.9,3.7-1.7,5.5-2.5
		l1.2,2.8C103.7-15.8,101.9-15,100.1-14.2z M221.5-16.8c-1.8-0.8-3.7-1.5-5.5-2.2l1.1-2.8c1.9,0.7,3.8,1.5,5.7,2.3L221.5-16.8z
		 M111-18.8l-1.1-2.8c1.9-0.7,3.8-1.4,5.7-2.1l1,2.8C114.8-20.2,112.9-19.5,111-18.8z M210.4-21c-1.9-0.6-3.8-1.2-5.7-1.8l0.8-2.9
		c1.9,0.6,3.9,1.2,5.8,1.8L210.4-21z M122.3-22.6l-0.8-2.9c1.9-0.6,3.9-1.1,5.9-1.6l0.7,2.9C126.2-23.7,124.2-23.2,122.3-22.6z
		 M198.9-24.3c-1.9-0.5-3.9-0.9-5.8-1.3l0.6-2.9c2,0.4,4,0.8,5.9,1.3L198.9-24.3z M133.9-25.5l-0.6-2.9c2-0.4,4-0.8,6-1.1l0.5,3
		C137.8-26.2,135.8-25.9,133.9-25.5z M187.2-26.6c-2-0.3-3.9-0.6-5.9-0.8l0.4-3c2,0.2,4,0.5,6,0.8L187.2-26.6z M145.7-27.4l-0.4-3
		c2-0.2,4-0.5,6-0.6l0.2,3C149.6-27.8,147.6-27.6,145.7-27.4z M175.4-28c-2-0.2-4-0.3-5.9-0.3l0.1-3c2,0.1,4.1,0.2,6.1,0.4L175.4-28
		z M157.5-28.4l-0.1-3c2-0.1,4.1-0.1,6.1-0.1l0,3C161.5-28.5,159.5-28.5,157.5-28.4z"/>
</g>
<g>
	<path class="st1" d="M163.7,69c-13.5,0-24.5-11-24.5-24.5s11-24.5,24.5-24.5s24.5,11,24.5,24.5S177.2,69,163.7,69z M163.7,23
		c-11.9,0-21.5,9.6-21.5,21.5S151.9,66,163.7,66s21.5-9.6,21.5-21.5S175.6,23,163.7,23z"/>
</g>
<g>
	<path class="st1" d="M128.5,10.6h-6V-2h5.9c2.6,0,4.2,1.3,4.2,3.3v0c0,1.4-0.8,2.2-1.7,2.7c1.5,0.6,2.4,1.4,2.4,3.1v0
		C133.2,9.5,131.3,10.6,128.5,10.6z M129.7,1.8c0-0.8-0.6-1.3-1.8-1.3h-2.7v2.7h2.6C129,3.1,129.7,2.7,129.7,1.8L129.7,1.8z
		 M130.5,6.8c0-0.8-0.6-1.4-2.1-1.4h-3.2v2.8h3.3C129.7,8.2,130.5,7.8,130.5,6.8L130.5,6.8z"/>
	<path class="st1" d="M144.9,10.6l-1.2-2.8h-5.3l-1.2,2.8h-2.8l5.4-12.7h2.6l5.4,12.7H144.9z M141.1,1.3l-1.7,4.1h3.3L141.1,1.3z"/>
	<path class="st1" d="M154,10.8c-1.9,0-3.8-0.7-5.3-2l1.6-2c1.1,0.9,2.3,1.5,3.8,1.5c1.1,0,1.8-0.5,1.8-1.2v0c0-0.7-0.4-1.1-2.5-1.6
		c-2.5-0.6-4.2-1.3-4.2-3.9v0c0-2.3,1.8-3.8,4.4-3.8c1.8,0,3.4,0.6,4.7,1.6l-1.4,2.1c-1.1-0.8-2.2-1.2-3.3-1.2
		c-1.1,0-1.6,0.5-1.6,1.1v0c0,0.8,0.5,1.1,2.7,1.7c2.6,0.7,4,1.6,4,3.8v0C158.6,9.4,156.7,10.8,154,10.8z"/>
	<path class="st1" d="M166.5,0.6v10h-2.8v-10h-3.8V-2h10.4v2.6H166.5z"/>
	<path class="st1" d="M172.6,10.6V-2h2.8v12.6H172.6z"/>
	<path class="st1" d="M184.6,10.9c-3.9,0-6.7-2.9-6.7-6.5v0c0-3.6,2.8-6.5,6.7-6.5c3.9,0,6.7,2.9,6.7,6.5v0
		C191.3,7.9,188.5,10.9,184.6,10.9z M188.4,4.3c0-2.2-1.6-4-3.8-4s-3.8,1.8-3.8,3.9v0c0,2.2,1.6,4,3.8,4
		C186.9,8.3,188.4,6.5,188.4,4.3L188.4,4.3z"/>
	<path class="st1" d="M202.6,10.6l-6.1-8v8h-2.7V-2h2.6l5.9,7.8V-2h2.7v12.6H202.6z"/>
</g>
<g>
	<path class="st0" d="M163.7,170c-13.5,0-24.5-11-24.5-24.5s11-24.5,24.5-24.5s24.5,11,24.5,24.5S177.2,170,163.7,170z M163.7,124
		c-11.9,0-21.5,9.6-21.5,21.5s9.6,21.5,21.5,21.5s21.5-9.6,21.5-21.5S175.6,124,163.7,124z"/>
</g>
<g>
	<path class="st0" d="M242.7,137.8c-5.6,0-11.1-1.9-15.7-5.7c-5-4.2-8.1-10.1-8.7-16.6c-0.6-6.5,1.4-12.9,5.6-17.9
		c8.7-10.3,24.2-11.7,34.5-3l0,0c10.3,8.7,11.7,24.2,3,34.5C256.6,134.9,249.7,137.8,242.7,137.8z M242.7,91.9
		c-6.1,0-12.2,2.6-16.5,7.7c-3.7,4.4-5.4,10-4.9,15.7c0.5,5.7,3.2,10.9,7.6,14.6c9.1,7.6,22.7,6.4,30.3-2.7
		c7.6-9.1,6.4-22.7-2.7-30.3l0,0C252.5,93.5,247.6,91.9,242.7,91.9z"/>
</g>
<g>
	<g>
		<path class="st0" d="M140.2,190.4c-3.5,0-5.9-2.4-5.9-5.8v0c0-3.2,2.5-5.8,5.9-5.8c2,0,3.2,0.5,4.4,1.5l-1.6,1.9
			c-0.9-0.7-1.6-1.1-2.9-1.1c-1.8,0-3.2,1.6-3.2,3.5v0c0,2,1.4,3.6,3.4,3.6c0.9,0,1.7-0.2,2.3-0.7v-1.6h-2.5v-2.1h4.9v4.9
			C143.9,189.6,142.3,190.4,140.2,190.4z"/>
		<path class="st0" d="M154.2,190.2l-2.4-3.6h-1.9v3.6h-2.5V179h5.1c2.6,0,4.2,1.4,4.2,3.7v0c0,1.8-1,2.9-2.4,3.5l2.7,4H154.2z
			 M154.2,182.8c0-1.1-0.7-1.6-1.9-1.6h-2.4v3.2h2.5C153.5,184.4,154.2,183.8,154.2,182.8L154.2,182.8z"/>
		<path class="st0" d="M164.4,190.4c-3.5,0-5.9-2.6-5.9-5.8v0c0-3.2,2.5-5.8,6-5.8c3.5,0,5.9,2.6,5.9,5.8v0
			C170.4,187.8,167.8,190.4,164.4,190.4z M167.8,184.6c0-1.9-1.4-3.5-3.4-3.5c-2,0-3.4,1.6-3.4,3.5v0c0,1.9,1.4,3.5,3.4,3.5
			C166.4,188.1,167.8,186.5,167.8,184.6L167.8,184.6z"/>
		<path class="st0" d="M177.2,190.4c-3,0-4.9-1.7-4.9-5V179h2.5v6.3c0,1.8,0.9,2.8,2.4,2.8c1.5,0,2.4-0.9,2.4-2.7V179h2.5v6.3
			C182.1,188.7,180.2,190.4,177.2,190.4z"/>
		<path class="st0" d="M189,186.8h-1.9v3.4h-2.5V179h4.6c2.7,0,4.3,1.6,4.3,3.9v0C193.5,185.5,191.5,186.8,189,186.8z M191,182.9
			c0-1.1-0.8-1.7-2-1.7h-1.9v3.4h2C190.3,184.6,191,183.9,191,182.9L191,182.9z"/>
	</g>
</g>
<g>
	<g>
		<path class="st0" d="M212,158.2c-1.7,0-3.4-0.6-4.8-1.8l1.5-1.7c1,0.8,2.1,1.4,3.3,1.4c1,0,1.6-0.4,1.6-1.1v0
			c0-0.6-0.4-0.9-2.3-1.4c-2.3-0.6-3.7-1.2-3.7-3.4v0c0-2,1.6-3.4,3.9-3.4c1.6,0,3,0.5,4.2,1.4l-1.3,1.9c-1-0.7-2-1.1-2.9-1.1
			s-1.4,0.4-1.4,1v0c0,0.7,0.5,1,2.4,1.5c2.3,0.6,3.6,1.4,3.6,3.4v0C216.1,156.9,214.4,158.2,212,158.2z"/>
		<path class="st0" d="M218.2,158v-11.2h8.5v2.2h-6v2.3h5.3v2.2h-5.3v2.4h6.1v2.2H218.2z"/>
		<path class="st0" d="M235.7,158l-2.4-3.6h-1.9v3.6h-2.5v-11.2h5.1c2.6,0,4.2,1.4,4.2,3.7v0c0,1.8-1,2.9-2.4,3.5l2.7,4H235.7z
			 M235.8,150.6c0-1.1-0.7-1.6-1.9-1.6h-2.4v3.2h2.5C235.1,152.3,235.8,151.6,235.8,150.6L235.8,150.6z"/>
		<path class="st0" d="M245.9,158.1h-2.2l-4.5-11.3h2.7l2.9,7.9l2.9-7.9h2.7L245.9,158.1z"/>
		<path class="st0" d="M252.3,158v-11.2h2.5V158H252.3z"/>
		<path class="st0" d="M262.8,158.2c-3.3,0-5.7-2.5-5.7-5.8v0c0-3.2,2.4-5.8,5.8-5.8c2.1,0,3.4,0.7,4.4,1.7l-1.6,1.8
			c-0.9-0.8-1.7-1.3-2.9-1.3c-1.9,0-3.2,1.6-3.2,3.5v0c0,1.9,1.3,3.5,3.2,3.5c1.3,0,2.1-0.5,2.9-1.3l1.6,1.6
			C266.2,157.5,265,158.2,262.8,158.2z"/>
		<path class="st0" d="M269.4,158v-11.2h8.5v2.2h-6v2.3h5.3v2.2h-5.3v2.4h6.1v2.2H269.4z"/>
	</g>
</g>
<g>
	<g>
		<path class="st0" d="M43.9,158v-11.2h2.5V158H43.9z"/>
		<path class="st0" d="M57,158l-5.4-7.1v7.1h-2.4v-11.2h2.3l5.2,6.9v-6.9h2.4V158H57z"/>
		<path class="st0" d="M65.8,158.2c-1.7,0-3.4-0.6-4.8-1.8l1.5-1.7c1,0.8,2.1,1.4,3.3,1.4c1,0,1.6-0.4,1.6-1.1v0
			c0-0.6-0.4-0.9-2.3-1.4c-2.3-0.6-3.7-1.2-3.7-3.4v0c0-2,1.6-3.4,3.9-3.4c1.6,0,3,0.5,4.2,1.4l-1.3,1.9c-1-0.7-2-1.1-2.9-1.1
			s-1.4,0.4-1.4,1v0c0,0.7,0.5,1,2.4,1.5c2.3,0.6,3.6,1.4,3.6,3.4v0C69.9,156.9,68.2,158.2,65.8,158.2z"/>
		<path class="st0" d="M76.8,149.1v8.9h-2.5v-8.9H71v-2.3h9.3v2.3H76.8z"/>
		<path class="st0" d="M89,158l-1-2.5h-4.7l-1,2.5h-2.5l4.8-11.3h2.3l4.8,11.3H89z M85.6,149.7l-1.5,3.6h3L85.6,149.7z"/>
		<path class="st0" d="M101.2,158l-5.4-7.1v7.1h-2.4v-11.2h2.3l5.2,6.9v-6.9h2.4V158H101.2z"/>
		<path class="st0" d="M111.2,158.2c-3.3,0-5.7-2.5-5.7-5.8v0c0-3.2,2.4-5.8,5.8-5.8c2.1,0,3.4,0.7,4.4,1.7l-1.6,1.8
			c-0.9-0.8-1.7-1.3-2.9-1.3c-1.9,0-3.2,1.6-3.2,3.5v0c0,1.9,1.3,3.5,3.2,3.5c1.3,0,2.1-0.5,2.9-1.3l1.6,1.6
			C114.7,157.5,113.4,158.2,111.2,158.2z"/>
		<path class="st0" d="M117.8,158v-11.2h8.5v2.2h-6v2.3h5.3v2.2h-5.3v2.4h6.1v2.2H117.8z"/>
	</g>
</g>
<g>
	<path class="st0" d="M130.1,231.7h-1.3v-4.4l-4.7-6.8h1.5l3.8,5.6l3.8-5.6h1.5l-4.7,6.8V231.7z"/>
	<path class="st0" d="M138.6,231.9c-2.5,0-4.3-2-4.3-4.3c0-2.4,1.8-4.3,4.3-4.3c2.5,0,4.3,2,4.3,4.3
		C142.9,229.9,141.1,231.9,138.6,231.9z M138.6,224.3c-1.8,0-3,1.4-3,3.2c0,1.8,1.3,3.2,3.1,3.2c1.8,0,3-1.4,3-3.2
		C141.7,225.8,140.3,224.3,138.6,224.3z"/>
	<path class="st0" d="M151,223.4h1.2v8.3H151v-1.4c-0.6,0.9-1.4,1.6-2.8,1.6c-2,0-3.2-1.3-3.2-3.3v-5.1h1.2v4.8
		c0,1.5,0.8,2.5,2.3,2.5c1.4,0,2.5-1,2.5-2.6V223.4z"/>
	<path class="st0" d="M156.2,231.7H155v-8.3h1.2v2.2c0.6-1.4,1.8-2.4,3.4-2.3v1.3h-0.1c-1.8,0-3.3,1.3-3.3,3.8V231.7z"/>
	<path class="st0" d="M176.9,231.7h-1.4l-1.3-3h-6.1l-1.3,3h-1.3l5.1-11.3h1.2L176.9,231.7z M171.2,221.9l-2.6,5.7h5.1L171.2,221.9z
		"/>
	<path class="st0" d="M184.5,220.4h1l3.1,9.4l3.2-9.3h1.3l-4,11.3H188l-3.1-9.1l-3.1,9.1h-1.1l-4-11.3h1.4l3.2,9.3L184.5,220.4z"/>
	<path class="st0" d="M199.1,225.5c2.5,0.5,3.7,1.5,3.7,3.2c0,1.9-1.6,3.2-3.8,3.2c-1.8,0-3.2-0.6-4.6-1.8l0.8-0.9
		c1.2,1.1,2.3,1.6,3.8,1.6c1.5,0,2.5-0.8,2.5-1.9c0-1.1-0.6-1.6-2.9-2.1c-2.6-0.6-3.8-1.4-3.8-3.2c0-1.8,1.6-3.1,3.7-3.1
		c1.6,0,2.8,0.5,3.9,1.4l-0.7,1c-1-0.8-2.1-1.2-3.2-1.2c-1.5,0-2.4,0.8-2.4,1.8C196.1,224.3,196.6,224.9,199.1,225.5z"/>
	<path class="st0" d="M122.8,240.8H116v3.8h6.1v1.2H116v3.9h6.9v1.2h-8.2v-11.2h8.1V240.8z"/>
	<path class="st0" d="M126.5,250.9h-1.2v-8.3h1.2v1.4c0.5-0.9,1.4-1.6,2.8-1.6c2,0,3.2,1.3,3.2,3.3v5.1h-1.2V246
		c0-1.5-0.8-2.5-2.3-2.5c-1.4,0-2.5,1-2.5,2.6V250.9z"/>
	<path class="st0" d="M140.9,242.6h1.3l-3.6,8.3h-1.1l-3.6-8.3h1.4l2.8,6.9L140.9,242.6z"/>
	<path class="st0" d="M144.2,240.8v-1.4h1.4v1.4H144.2z M144.3,250.9v-8.3h1.2v8.3H144.3z"/>
	<path class="st0" d="M149.6,250.9h-1.2v-8.3h1.2v2.2c0.6-1.4,1.8-2.4,3.4-2.3v1.3h-0.1c-1.8,0-3.3,1.3-3.3,3.8V250.9z"/>
	<path class="st0" d="M158.3,251.1c-2.5,0-4.3-2-4.3-4.3c0-2.4,1.8-4.3,4.3-4.3c2.5,0,4.3,2,4.3,4.3
		C162.6,249.1,160.8,251.1,158.3,251.1z M158.3,243.5c-1.8,0-3,1.4-3,3.2c0,1.8,1.3,3.2,3.1,3.2c1.8,0,3-1.4,3-3.2
		C161.4,245,160,243.5,158.3,243.5z"/>
	<path class="st0" d="M166.1,250.9h-1.2v-8.3h1.2v1.4c0.5-0.9,1.4-1.6,2.8-1.6c2,0,3.2,1.3,3.2,3.3v5.1h-1.2V246
		c0-1.5-0.8-2.5-2.3-2.5c-1.4,0-2.5,1-2.5,2.6V250.9z"/>
	<path class="st0" d="M184.2,242.4c1.9,0,3.1,1.3,3.1,3.3v5.1H186V246c0-1.6-0.8-2.5-2.1-2.5c-1.2,0-2.3,0.9-2.3,2.6v4.8h-1.2V246
		c0-1.6-0.8-2.5-2.1-2.5s-2.3,1.1-2.3,2.6v4.7h-1.2v-8.3h1.2v1.4c0.5-0.8,1.3-1.6,2.7-1.6c1.3,0,2.2,0.7,2.7,1.6
		C181.9,243.2,182.7,242.4,184.2,242.4z"/>
	<path class="st0" d="M193.6,250c1.1,0,1.9-0.5,2.6-1.2l0.8,0.7c-0.8,0.9-1.8,1.6-3.4,1.6c-2.3,0-4.1-1.7-4.1-4.3
		c0-2.4,1.7-4.3,4-4.3c2.4,0,3.9,2,3.9,4.4c0,0.1,0,0.2,0,0.4h-6.6C190.8,249,192.1,250,193.6,250z M196,246.3
		c-0.1-1.5-1-2.8-2.6-2.8c-1.4,0-2.5,1.2-2.7,2.8H196z"/>
	<path class="st0" d="M200.6,250.9h-1.2v-8.3h1.2v1.4c0.5-0.9,1.4-1.6,2.8-1.6c2,0,3.2,1.3,3.2,3.3v5.1h-1.2V246
		c0-1.5-0.8-2.5-2.3-2.5c-1.4,0-2.5,1-2.5,2.6V250.9z"/>
	<path class="st0" d="M210.9,248.5c0,1,0.6,1.4,1.4,1.4c0.4,0,0.8-0.1,1.2-0.3v1.1c-0.4,0.2-0.9,0.4-1.5,0.4c-1.3,0-2.3-0.7-2.3-2.3
		v-5h-1.2v-1.1h1.2v-2.5h1.2v2.5h2.6v1.1h-2.6V248.5z"/>
</g>
<g>
	<line class="st2" x1="163.5" y1="89" x2="163.5" y2="107"/>
	<g>
		<polygon class="st0" points="154,99.1 155.7,97.6 163.2,105.7 170.8,97.6 172.4,99.1 163.2,109 		"/>
	</g>
</g>
<g>
	<line class="st2" x1="196.5" y1="74.6" x2="209.6" y2="86.3"/>
	<g>
		<polygon class="st0" points="197.9,88.2 197.8,85.9 208.9,85.8 207.9,74.7 210.2,74.5 211.4,88 		"/>
	</g>
</g>
<g>
	<line class="st2" x1="131" y1="74.6" x2="117.9" y2="86.3"/>
	<g>
		<polygon class="st0" points="117.3,74.5 119.5,74.7 118.5,85.8 129.6,85.9 129.6,88.2 116.1,88 		"/>
	</g>
</g>
<path class="st1" d="M171.9,38.9v-6.4h-1.8v1.8h-4.3v-1.8h-4.1v1.8h-4.3v-1.8h-1.8v6.4l2.5,3.8v12.1h-1.4v1.7h14.2v-1.7h-1.4V42.7
	L171.9,38.9z M165.1,40.2h-2.7v-4h2.7V40.2z"/>
<g>
	<circle class="st0" cx="163.7" cy="136.8" r="8"/>
	<circle class="st0" cx="172.2" cy="152.2" r="8"/>
	<circle class="st0" cx="155.3" cy="152.2" r="8"/>
</g>
<path class="st0" d="M251,110.1c-0.8-3.9-4.2-6.8-8.3-6.8c-3.3,0-6.1,1.8-7.5,4.5c-3.4,0.4-6,3.2-6,6.7c0,3.7,3,6.8,6.8,6.8h14.6
	c3.1,0,5.6-2.5,5.6-5.6C256.2,112.8,253.9,110.3,251,110.1z"/>
<g>
	<path class="st0" d="M84.8,137.8c-13.5,0-24.5-11-24.5-24.5s11-24.5,24.5-24.5s24.5,11,24.5,24.5S98.3,137.8,84.8,137.8z
		 M84.8,91.8c-11.9,0-21.5,9.6-21.5,21.5s9.6,21.5,21.5,21.5s21.5-9.6,21.5-21.5S96.6,91.8,84.8,91.8z"/>
</g>
<circle class="st0" cx="84.8" cy="113.3" r="13"/>
</svg>
