<?xml version="1.0" encoding="utf-8"?>
<!-- Generator: Adobe Illustrator 19.1.0, SVG Export Plug-In . SVG Version: 6.00 Build 0)  -->
<svg version="1.1" id="Layer_1" xmlns="http://www.w3.org/2000/svg" xmlns:xlink="http://www.w3.org/1999/xlink" x="0px" y="0px"
	 viewBox="148 -49 320 123" style="enable-background:new 148 -49 320 123;" xml:space="preserve">
<style type="text/css">
	.st0{fill:#01579B;}
	.st1{fill:#201C1D;}
	.st2{fill:#FF9900;}
</style>
<g>
	<path class="st0" d="M305-31.8c0-9.2,2.6-13.3,8.4-13.3c5.9,0,8.4,4.1,8.4,13.3s-2.6,13.3-8.4,13.3C307.6-18.4,305-22.5,305-31.8z
		 M317.9-31.8c0-8.6-2-10.1-4.4-10.1s-4.4,1.5-4.4,10.1c0,8.8,2,10.3,4.4,10.3S317.9-23,317.9-31.8z"/>
	<path class="st0" d="M325.3-38.1h3.7v2.2h0.1c0.9-1.7,2.8-2.7,5-2.7c2.9,0,4.8,1.3,4.8,5.2v14.5h-3.8v-13.2c0-2.5-0.7-3.5-2.7-3.5
		c-1.6,0-3.1,1.2-3.1,3.7V-19h-3.8v-19.1H325.3z"/>
	<path class="st0" d="M342.8-44.5h3.8V-19h-3.8V-44.5z"/>
	<path class="st0" d="M353.1-38.1l3.4,14.5h0.1l3.1-14.5h4l-5.3,20c-1.5,5.2-2.7,6-6.7,5.9c-0.5,0-1-0.1-1.5-0.2v-3.1
		c0.5,0.1,0.8,0.2,1.2,0.2c1.3,0,2.2-0.3,2.6-1.5l0.5-1.6L348.9-38L353.1-38.1L353.1-38.1L353.1-38.1z"/>
	<path class="st0" d="M380.8-38.8c5.6,0,7.2,4.1,7.2,10.1s-1.9,10.1-7.2,10.1s-7.2-4.1-7.2-10.1S375.2-38.8,380.8-38.8z M380.8-21.3
		c2.8,0,3.4-2.3,3.4-7.3c0-4.3-0.5-7.3-3.4-7.3c-2.8,0-3.3,3-3.3,7.3C377.4-23.6,378-21.3,380.8-21.3z"/>
	<path class="st0" d="M390.9-38.1h3.7v2.2h0.1c0.9-1.7,2.8-2.7,5-2.7c2.9,0,4.8,1.3,4.8,5.2v14.5h-3.8v-13.2c0-2.5-0.7-3.5-2.7-3.5
		c-1.6,0-3.1,1.2-3.1,3.7V-19h-3.8v-19.1H390.9z"/>
</g>
<g>
	<rect x="302.6" y="-15.2" class="st0" width="62.7" height="0.9"/>
</g>
<path id="path243_3_" class="st1" d="M255.5-1.4c-5.9,0-12.4,2.2-13.8,9.7c-0.2,0.7,0.4,1.1,0.8,1.3l6,0.7c0.6,0,0.9-0.7,1-1.2
	c0.5-2.5,2.6-3.7,5-3.7c1.3,0,2.1,0.5,2.8,1.6c0.8,1.3,0.2,3.1,0.2,4.6v0.8c-1.9,0.4-7.7,0.7-11,2.2c-3.8,1.7-6.3,5.2-6.3,10.4
	c0,6.6,4.2,9.8,9.4,9.8c4.4,0,6.9-1,10.3-4.6c1.1,1.7,1.1,2.4,3.1,4.2c0.5,0.3,1,0.2,1-0.2v0.1c1.9-1.1,3.9-3.2,5.1-4.2
	c0.5-0.4,0.4-1.1,0-1.7c-1.1-1.6-2.3-2.9-2.3-5.9v-9.8c0-4.2,0.6-8-2.4-11C262.3-0.5,258.6-1.4,255.5-1.4z M336.5-1.4
	c-5.9,0-12.4,2.2-13.8,9.7c-0.2,0.7,0.4,1.1,0.8,1.3l6,0.7c0.6,0,0.9-0.7,1-1.2c0.6-2.5,2.6-3.7,5-3.7c1.3,0,2.3,0.5,3.1,1.6
	c0.8,1.3,0.4,3.1,0.4,4.6v0.8c-2.8,0.4-7.9,0.7-11.2,2.2c-3.8,1.7-6.5,5.2-6.5,10.4c0,6.6,4.1,9.8,9.3,9.8c4.4,0,6.8-1,10.2-4.6
	c1.1,1.7,1.3,2.4,3.4,4.2c0.5,0.3,0.4,0.2,1.3-0.2v0.1c0.9-1.1,3.7-3.2,4.9-4.2c0.5-0.4,0-1.1-0.4-1.7c-1.1-1.6-2.7-2.9-2.7-5.9
	v-9.8c0-4.2,0.7-8-2.2-11C342.9-0.5,339.5-1.4,336.5-1.4z M291-0.8c-3.8,0-6.6,2.4-8.1,6.2H282V0.8c0-0.6,0.3-0.1-0.4-0.1h-5.8
	c-0.7,0-1.3-0.5-1.3,0.1v32.5c0,0.6,0.7,2,1.3,2h6.2c0.7,0,0.9-1.4,0.9-2.1V16c0-3.7,0-8.9,4.5-8.9c4.4,0,3.9,5.2,3.9,8.9v17.2
	c0,0.7,0.3,2.1,0.9,2.1h6.2c0.7,0,0.4-1.4,0.4-2.1V16c0-1.9,0.4-4.5,1-6.2s2.4-2.7,3.9-2.7c1.8,0,3,0.7,3.5,2.8c0.3,1.3,0,4.8,0,6.1
	v17.2c0,0.7,0.9,2.1,1.6,2.1h6.2c0.7,0,0.7-1.4,0.7-2.1V12.7c0-3.5,0.7-7.5-1.3-10.2c-1.7-2.4-4.4-3.6-7-3.6c-3.7,0-6.9,2-8.4,6.1
	C297.2,1,294.8-0.8,291-0.8z M396-1c-8.9,0-13.9,7.9-13.9,18c0,10,4.9,18.2,13.9,18.2c8.6,0,14.1-7.9,14.1-17.8
	C410.2,7.1,405.2-1,396-1z M431.2-1.1c-4.3,0-6.7,2.7-8.4,6.5h-0.4V0.6c0-0.5-0.3,0.1-0.8,0.1H416c-0.7,0-1.9-0.6-1.9,0.1v32.5
	c0,0.7,1.2,2.1,1.9,2.1h6.1c0.7,0,0.5-1.4,0.5-2.1V15.8c0-2.2,0.6-4.2,1.4-6.2c0.7-1.6,1.9-2.5,3.4-2.5c4.2,0,3.7,5.1,3.7,8.7v17.7
	c0,0.6,1.3,1.9,1.9,1.9h6.2c0.7,0,1.3-1.3,1.3-1.9V13c0-3.2-0.1-7.5-1.7-10.1C436.8,0.1,434-1.1,431.2-1.1L431.2-1.1z M357.1,0.7
	c-0.7,0-1.1-0.7-1.1,0.1v4.7c0,0.7,0.5,1.9,1.1,1.9h10.6L355.4,25c-0.7,1.1-1.1,2.2-1.1,2.9v4.8c0,0.7,1.1,1.4,1.8,1
	c6.9-3.7,15.4-3.5,21.7-0.1c0.7,0.4,1.8-0.4,1.8-1v-5c0-0.7-0.5-1.3-1.2-1.8c-3.6-2.1-7.7-2.6-11.6-2.5L377,7.8
	c0.9-1.4,1.5-2.2,1.5-2.9v-4c0-0.7-0.4-0.1-1-0.1L357.1,0.7L357.1,0.7L357.1,0.7z M396,5.7c2,0,3.4,0.8,4.1,3.1
	c0.8,2.6,0.8,5.8,0.8,8.6c0,4.2-0.2,11-5,11c-4.9,0-4.8-8.5-4.8-12.5C391.2,11.9,391.4,5.7,396,5.7z M257.8,17.6V19
	c0,2.4,0.7,4.6-0.6,6.7c-0.9,1.8-2.2,2.9-3.9,2.9c-2.3,0-4.2-1.9-4.2-4.7C249,18.5,253.9,17.6,257.8,17.6z M339.1,17.6V19
	c0,2.4,0.4,4.6-0.8,6.7c-0.9,1.8-2.3,2.9-4.1,2.9c-2.3,0-4-1.9-4-4.7C330.2,18.5,335.4,17.6,339.1,17.6z"/>
<path id="path257_3_" d="M379.4,36.2V41h2.8v-4.7H379.4z M288.6,37.2v32.8h2.8v-3.5c0.9,1.2,1.6,2.1,2.4,2.6c0.8,0.6,2,0.8,3,0.8
	c2.2,0,4-1.1,5.6-3.3s2.4-5.4,2.4-9.5c0-2.6-0.3-4.9-1-6.7c-0.7-1.9-1.6-3.3-2.8-4.2c-1.2-0.9-2.5-1.4-3.9-1.4c-1,0-1.9,0.3-2.7,0.8
	c-0.8,0.6-2.1,1.4-2.1,2.5V37h-3.7V37.2z M318.8,44c-2.2,0-3.9,0.7-5.1,2s-1.9,2.9-1.9,5c0,1.2,0.3,2.2,0.7,3.1
	c0.5,0.9,1.1,1.7,2,2.2s2.4,1.3,4.9,2.1c1.7,0.6,2.7,1,3.1,1.4c0.7,0.6,0.9,1.2,0.9,2.2c0,1.1-0.4,2.1-1.1,2.7c-0.7,0.7-1.8,1-3.1,1
	c-1.3,0-2.4-0.4-3.3-1.2c-0.8-0.8-1.2-2.1-1.4-3.7l-3.1,0.7c0.7,5.1,3.3,7.7,7.7,7.7c2.3,0,4.2-0.7,5.5-2.1c1.4-1.4,2.1-3.4,2.1-5.6
	c0-1.2-0.2-2.3-0.7-3.2s-1-1.6-1.8-2.1c-0.7-0.6-2.4-1.2-5.1-2.1c-1.9-0.7-3-1.1-3.4-1.4c-0.7-0.5-0.9-1.2-0.9-2.1
	c0-0.9,0.3-1.7,0.9-2.2c0.7-0.6,1.7-0.8,3.1-0.8c2.4,0,3.7,1.3,4,3.9l3.1-0.5c-0.2-1.7-0.6-3-1.1-3.8c-0.6-0.8-1.4-1.6-2.4-2.2
	C321.3,44.2,320.1,44,318.8,44z M337.9,44c-2.5,0-4.6,1-6.3,3.2c-1.6,2.2-2.4,5.3-2.4,9.5c0,4,0.7,7.1,2.4,9.3
	c1.6,2.2,3.7,3.1,6.4,3.1c2.1,0,3.8-0.7,5.2-2c1.4-1.3,2.4-3.2,3-5.8l-3.2-0.6c-0.9,3.3-2.6,4.9-5,4.9c-1.5,0-2.7-0.6-3.7-2
	c-1-1.4-1.7-3.2-1.8-6h13.1v-1.2c0-4-0.5-7.1-2.2-9.3C341.9,45.2,340.3,44,337.9,44z M356.9,44c-0.7,0-1.8,0.3-2.3,0.8
	c-0.6,0.6-1.4,1.7-2.3,3.4v-3.7h-2.8v24.4h3.7V56c0-1.8,0.2-3.5,0.6-5c0.2-0.8,0.7-1.6,1.2-2.1c0.6-0.5,1.2-0.7,1.9-0.7
	c0.7,0,1.5,0.3,2.2,0.8l1-3.7C359.1,44.5,358,44,356.9,44z M395.3,44c-2.4,0-4.5,1-6.1,3.1s-2.4,5.2-2.4,9.4s0.8,7.3,2.4,9.4
	c1.6,2.2,3.6,3.1,5.9,3.1c2,0,3.7-0.7,5.1-2.2s2.3-3.7,2.6-6.6l-3.1-0.5c-0.2,2.1-0.7,3.6-1.6,4.5c-0.8,0.9-1.9,1.4-3.1,1.4
	c-1.5,0-2.8-0.7-3.7-2.2c-0.9-1.5-1.4-3.8-1.4-7s0.5-5.4,1.5-6.9s2.3-2.2,3.8-2.2c1,0,1.9,0.4,2.6,1.2s1.2,2.1,1.5,3.7l3.1-0.7
	c-0.4-2.5-1.2-4.4-2.5-5.7C398.8,44.7,397.3,44,395.3,44z M413.2,44c-2.5,0-4.6,1-6.3,3.2c-1.6,2.2-2.4,5.3-2.4,9.5
	c0,4,0.7,7.1,2.4,9.3c1.6,2.2,3.7,3.1,6.4,3.1c2.1,0,3.8-0.7,5.2-2c1.4-1.3,2.4-3.2,3-5.8l-3.2-0.6c-0.9,3.3-2.5,4.9-4.9,4.9
	c-1.5,0-2.8-0.6-3.8-2c-1-1.4-1.6-3.2-1.8-6h13.7v-1.2c0-4-0.7-7.1-2.3-9.3C417.5,45.2,415.6,44,413.2,44z M431.8,44
	c-2.2,0-3.9,0.7-5.1,2s-1.9,2.9-1.9,5c0,1.2,0.2,2.2,0.7,3.1c0.5,0.9,1.1,1.7,2,2.2c0.8,0.6,2.4,1.3,4.9,2.1c1.7,0.6,2.8,1,3.2,1.4
	c0.7,0.6,0.9,1.2,0.9,2.2c0,1.1-0.4,2.1-1.1,2.7c-0.7,0.7-1.8,1-3.1,1c-1.4,0-2.4-0.4-3.3-1.2c-0.8-0.8-1.3-2.1-1.5-3.7l-3.1,0.7
	c0.7,5.1,3.3,7.7,7.7,7.7c2.3,0,4.2-0.7,5.6-2.1c1.4-1.4,2.1-3.4,2.1-5.6c0-1.2-0.2-2.3-0.7-3.2s-1.1-1.6-1.9-2.1
	c-0.7-0.6-2.3-1.2-5-2.1c-1.9-0.7-3.1-1.1-3.5-1.4c-0.7-0.5-0.9-1.2-0.9-2.1c0-0.9,0.4-1.7,1-2.2c0.7-0.6,1.7-0.8,3.1-0.8
	c2.4,0,3.7,1.3,4,3.9l3.1-0.5c-0.2-1.7-0.6-3-1.1-3.8s-1.4-1.6-2.4-2.2C434.3,44.2,433.1,44,431.8,44z M360.2,44.7l7,24.3h3l7-24.3
	H374l-4.1,14.6c-0.5,1.8-0.9,3.3-1.2,4.6c-0.4-1.6-0.7-3.2-1.1-4.9l-4.1-14.3H360.2z M379.4,44.7v24.3h2.8V44.7H379.4z M277,44.9
	c-2.5,0-4.5,1.1-6.1,3.3s-2.5,5.3-2.5,9.5c0,4,0.8,7,2.4,9.2c1.6,2.2,3.7,3.2,6.4,3.2c2.1,0,3.7-0.7,5.1-2s2.3-3.2,2.9-5.8l-3.1-0.5
	c-0.9,3.3-2.5,4.9-4.9,4.9c-1.5,0-2.7-0.6-3.7-1.9c-1-1.4-1.7-3.2-1.8-6h13.7l0.1-1.2c0-4-0.8-7.2-2.4-9.4
	C281.3,46,279.3,44.9,277,44.9z M241.7,45.5l5.6,24.3h3.3l3.7-18.7l0.7,4.2l3,14.5h3.2l5.7-24.3h-3l-3.1,13.8l-1,4.6l-0.9-4.6
	L256,45.5h-3.2l-2.9,13.9l-0.9,5l-1.1-5.1l-3-13.8C244.9,45.5,241.7,45.5,241.7,45.5z M441.2,45.5v0.9h2.8V55h0.9v-8.4h2.8v-0.9
	L441.2,45.5L441.2,45.5z M449.6,45.5V55h0.9v-8l3.2,8h1.1l2.2-7.8V55h0.9v-9.4h-1l-2.2,6.5c-0.2,0.7-0.4,1.1-0.5,1.5l-0.5-1.4
	l-2.2-6.6H449.6z M337.8,47.4c1.6,0,2.8,1.1,3.8,2.6c0.7,1,1.1,2.2,1.3,5h-10.4c0.1-2.8,0.7-4.1,1.7-5.3
	C335.3,48.4,336.4,47.4,337.8,47.4z M413.1,47.4c1.6,0,2.8,1.1,3.8,2.6c0.7,1,1.1,2.2,1.3,5h-10.4c0.1-2.8,0.7-4.1,1.7-5.3
	C410.5,48.4,411.8,47.4,413.1,47.4z M277,48.2c1.5,0,2.8,1.1,3.7,2.6c0.7,1,1.1,2.2,1.3,5.1h-10.2c0.1-2.8,0.7-4.2,1.6-5.4
	S275.6,48.2,277,48.2z M296.8,48.2c1.4,0,2.6,0.7,3.6,2.2c0.9,1.5,1.4,3.7,1.4,6.9c0,3.1-0.5,5.3-1.4,6.9c-0.9,1.6-2.2,2.3-3.5,2.3
	c-0.9,0-1.8-0.3-2.5-0.9c-0.7-0.7-1.3-1.6-1.8-2.8c-0.4-1.2-0.7-3.1-0.7-5.6c0-2.9,0.6-5.1,1.5-6.6C294.4,49,295.5,48.2,296.8,48.2z
	"/>
<g>
	<path class="st2" d="M194.7,59.4l-16.2-5.8V29.9l16.2,5.5V59.4"/>
	<path class="st2" d="M197.7,59.4l16.2-5.8V29.9l-16.2,5.5V59.4"/>
	<path class="st2" d="M180.2,28.2l16.4-4.6l15.2,4.9l-15.2,5.2L180.2,28.2"/>
	<path class="st2" d="M175.5,26.3l-16.2-5.8V-3.2l16.2,5.5V26.3"/>
	<path class="st2" d="M178.4,26.3l16.2-5.8V-3.2l-16.2,5.5V26.3"/>
	<path class="st2" d="M161-4.9l16.4-4.6l15.2,4.9l-15.2,5.2L161-4.9"/>
	<path class="st2" d="M213.2,26.3L197,20.5V-3.2l16.2,5.5V26.3"/>
	<path class="st2" d="M216.2,26.3l16.2-5.8V-3.2l-16.2,5.5V26.3"/>
	<path class="st2" d="M198.7-4.9L215-9.5l15.2,4.9L215,0.5L198.7-4.9"/>
	<path class="st2" d="M232.4-6.8l-16.2-5.8v-23.7l16.2,5.5V-6.8"/>
	<path class="st2" d="M235.4-6.8l16.2-5.8v-23.7l-16.2,5.5V-6.8"/>
	<path class="st2" d="M217.9-38l16.4-4.6l15.2,4.9l-15.2,5.2L217.9-38"/>
	<path class="st2" d="M270.2-6.8L254-12.6v-23.7l16.2,5.5V-6.8"/>
	<path class="st2" d="M273.1-6.8l16.2-5.8v-23.7l-16.2,5.5V-6.8"/>
	<path class="st2" d="M255.7-38l16.4-4.6l15.2,4.9L272-32.6L255.7-38"/>
</g>
</svg>
