<?xml version="1.0" encoding="utf-8"?>
<!-- Generator: Adobe Illustrator 19.1.0, SVG Export Plug-In . SVG Version: 6.00 Build 0)  -->
<svg version="1.1" id="Layer_1" xmlns="http://www.w3.org/2000/svg" xmlns:xlink="http://www.w3.org/1999/xlink" x="0px" y="0px"
	 viewBox="0 -30 320 300" style="enable-background:new 0 -30 320 300;" xml:space="preserve">
<style type="text/css">
	.st0{fill:#FFFFFF;}
	.st1{fill:#303030;}
	.st2{fill:#BDBDBD;}
	.st3{fill:#7CB342;}
	.st4{fill:#E53935;}
	.st5{fill:#212121;}
	.st6{fill:#9E9E9E;}
	.st7{fill:#3B80B7;}
	.st8{fill:#757575;}
	.st9{fill:#FBC8C8;}
</style>
<g>
	<g>
		<path class="st0" d="M175.7,171.1c0,11.5-9.3,20.8-20.8,20.8H71.6c-11.5,0-20.8-9.3-20.8-20.8V-9.2c0-11.5,9.3-20.8,20.8-20.8
			h83.2c11.5,0,20.8,9.3,20.8,20.8V171.1z"/>
		<rect x="57.8" y="11.6" class="st1" width="110.9" height="138.7"/>
		<circle class="st2" cx="89" cy="-5.7" r="3.5"/>
		<path class="st2" d="M141-5.7c0,1.9-1.6,3.5-3.5,3.5h-34.7c-1.9,0-3.5-1.6-3.5-3.5s1.6-3.5,3.5-3.5h34.7
			C139.4-9.2,141-7.6,141-5.7z"/>
		<circle class="st2" cx="113.2" cy="171.1" r="13.9"/>
	</g>
	<g>
		<circle class="st3" cx="73.6" cy="73.9" r="6.1"/>
		<circle class="st4" cx="73.6" cy="93.4" r="6.1"/>
		<circle class="st3" cx="73.6" cy="112.9" r="6.1"/>
		<rect x="57.8" y="11.6" class="st5" width="110.9" height="19.5"/>
		<g>
			<path class="st6" d="M126,23H70c-0.6,0-1-0.4-1-1s0.4-1,1-1h56c0.6,0,1,0.4,1,1S126.6,23,126,23z"/>
		</g>
		<g>
			<path class="st7" d="M104,47H70c-0.6,0-1-0.4-1-1s0.4-1,1-1h34c0.6,0,1,0.4,1,1S104.6,47,104,47z"/>
		</g>
		<g>
			<path class="st8" d="M149,47h-34c-0.6,0-1-0.4-1-1s0.4-1,1-1h34c0.6,0,1,0.4,1,1S149.6,47,149,47z"/>
		</g>
		<g>
			<path class="st6" d="M136,75H87c-0.3,0-0.5-0.2-0.5-0.5S86.7,74,87,74h49c0.3,0,0.5,0.2,0.5,0.5S136.3,75,136,75z"/>
		</g>
		<g>
			<path class="st6" d="M136,96H87c-0.3,0-0.5-0.2-0.5-0.5S86.7,95,87,95h49c0.3,0,0.5,0.2,0.5,0.5S136.3,96,136,96z"/>
		</g>
		<g>
			<path class="st6" d="M136,116H87c-0.3,0-0.5-0.2-0.5-0.5s0.2-0.5,0.5-0.5h49c0.3,0,0.5,0.2,0.5,0.5S136.3,116,136,116z"/>
		</g>
		<circle class="st3" cx="73.6" cy="132.4" r="6.1"/>
		<g>
			<path class="st6" d="M136,134H87c-0.3,0-0.5-0.2-0.5-0.5s0.2-0.5,0.5-0.5h49c0.3,0,0.5,0.2,0.5,0.5S136.3,134,136,134z"/>
		</g>
	</g>
	<path class="st9" d="M198.1,270l-4.6-18.5c-32.9-26.4-48.5-58.8-70.2-89.5c-1.5-1.7-2.3-4-2.3-6.3c0-5.3,4.3-9.6,9.6-9.6
		c2.3,0,4.6,0.7,6.5,2l36.6,24.4V67c0,0,52.7,52.7,52.7,131.8l42.8,71.2L198.1,270z"/>
</g>
</svg>
