<?xml version="1.0" encoding="utf-8"?>
<!-- Generator: Adobe Illustrator 19.1.0, SVG Export Plug-In . SVG Version: 6.00 Build 0)  -->
<svg version="1.1" id="Layer_1" xmlns="http://www.w3.org/2000/svg" xmlns:xlink="http://www.w3.org/1999/xlink" x="0px" y="0px"
	 viewBox="148 -108 320 240" style="enable-background:new 148 -108 320 240;" xml:space="preserve">
<style type="text/css">
	.st0{fill:#FFFFFF;}
	.st1{fill:#424242;}
	.st2{fill:#E0E0E0;}
	.st3{fill:#BDBDBD;}
	.st4{opacity:0.87;}
	.st5{fill:#EF5350;}
	.st6{fill:#D3AB74;}
</style>
<g>
	<path d="M441.8,76.5c0,6.7-5.4,12.2-12.2,12.2H186.3c-6.7,0-12.2-5.4-12.2-12.2V-93.8c0-6.7,5.4-12.2,12.2-12.2h243.3
		c6.7,0,12.2,5.4,12.2,12.2V76.5z"/>
	<rect x="277.9" y="88.7" class="st0" width="60" height="16.5"/>
	<path class="st1" d="M428-86.3c0-3.3-2.7-6-6-6H194c-3.3,0-6,2.7-6,6v146c0,3.3,2.7,6,6,6h228c3.3,0,6-2.7,6-6V-86.3z"/>
	<path class="st2" d="M366.8,117.3H249.1c-1.1,0-2-0.9-2-2v-8.2c0-1.1,0.9-2,2-2h117.7c1.1,0,2,0.9,2,2v8.2
		C368.8,116.4,367.9,117.3,366.8,117.3z"/>
</g>
<g>
	<path class="st0" d="M201.5,105.8c0,4.7-3.8,8.5-8.5,8.5h-34.1c-4.7,0-8.5-3.8-8.5-8.5V32c0-4.7,3.8-8.5,8.5-8.5h34.1
		c4.7,0,8.5,3.8,8.5,8.5V105.8z"/>
	<rect x="153.2" y="40.5" class="st1" width="45.4" height="56.8"/>
	<circle class="st3" cx="166" cy="33.4" r="1.4"/>
	<path class="st3" d="M187.3,33.4c0,0.8-0.6,1.4-1.4,1.4h-14.2c-0.8,0-1.4-0.6-1.4-1.4s0.6-1.4,1.4-1.4h14.2
		C186.6,32,187.3,32.6,187.3,33.4z"/>
	<circle class="st3" cx="175.9" cy="105.8" r="4.5"/>
</g>
<g>
	<path d="M192.9,88.4c0,2.2-1.8,4-4,4h-26c-2.2,0-4-1.8-4-4v-39c0-2.2,1.8-4,4-4h26c2.2,0,4,1.8,4,4V88.4z"/>
	<g class="st4">
		<path class="st0" d="M185.3,71c0.9,0,1.7,1.2,1.7,2.2v11.4c0,1-0.8,1.4-1.7,1.4h-18.7c-0.9,0-1.6-0.4-1.6-1.4V73.2
			c0-1,0.7-2.2,1.6-2.2H185 M185.3,70h-18.7c-1.5,0-2.6,1.6-2.6,3.2v11.4c0,1.5,1.1,2.4,2.6,2.4h18.7c1.5,0,2.7-0.9,2.7-2.4V73.2
			C188,71.6,186.7,70,185.3,70L185.3,70z"/>
		<g>
			<path class="st0" d="M169,76.2v1.6h3.7v1.5H169v3h-1.7v-7.7h5.9v1.5H169z"/>
			<path class="st0" d="M174.7,82.4v-7.7h1.7v7.7H174.7z"/>
			<path class="st0" d="M183.1,82.4l-1.7-2.6l-1.7,2.6h-1.9l2.7-3.9l-2.6-3.8h2l1.6,2.5l1.6-2.5h1.9l-2.6,3.8l2.7,3.9H183.1z"/>
		</g>
	</g>
	<path class="st5" d="M175.9,49.7c-4.4,0-8,3.6-8,8s3.6,8,8,8s8-3.6,8-8S180.3,49.7,175.9,49.7z M176.7,61.7h-1.6v-1.6h1.6V61.7z
		 M176.7,58.5h-1.6v-4.8h1.6V58.5z"/>
</g>
<g>
	<path d="M392,12.2c0,2.2-1.8,4-4,4H228c-2.2,0-4-1.8-4-4v-65c0-2.2,1.8-4,4-4h160c2.2,0,4,1.8,4,4V12.2z"/>
	<g class="st4">
		<path class="st0" d="M370.4-17c0.9,0,1.6,1,1.6,2V2.4c0,1-0.7,1.6-1.6,1.6H245.7c-0.9,0-1.7-0.6-1.7-1.6V-15c0-1,0.8-2,1.7-2H370
			 M370.4-18H245.7c-1.5,0-2.7,1.4-2.7,3V2.4c0,1.5,1.2,2.6,2.7,2.6h124.7c1.5,0,2.6-1.1,2.6-2.6V-15C373-16.6,371.8-18,370.4-18
			L370.4-18z"/>
		<g>
			<path class="st0" d="M269.7-1.7c-1.5,0-2.5-0.7-3.2-1.5l1.4-1.5c0.6,0.6,1.1,1,1.8,1c0.8,0,1.3-0.5,1.3-1.6v-6.3h2.2v6.4
				C273.1-2.8,271.7-1.7,269.7-1.7z"/>
			<path class="st0" d="M279.5-1.7c-2.6,0-4.2-1.5-4.2-4.4v-5.6h2.2v5.5c0,1.6,0.8,2.4,2.1,2.4c1.3,0,2.1-0.8,2.1-2.4v-5.6h2.2v5.5
				C283.8-3.1,282.1-1.7,279.5-1.7z"/>
			<path class="st0" d="M289.5-1.7c-1.5,0-3-0.5-4.2-1.6l1.3-1.5c0.9,0.7,1.8,1.2,2.9,1.2c0.9,0,1.4-0.4,1.4-0.9v0
				c0-0.5-0.3-0.8-2-1.2c-2-0.5-3.2-1.1-3.2-3v0c0-1.8,1.4-3,3.4-3c1.4,0,2.6,0.4,3.6,1.2l-1.1,1.6c-0.9-0.6-1.7-1-2.5-1
				s-1.3,0.4-1.3,0.9v0c0,0.6,0.4,0.9,2.1,1.3c2,0.5,3.1,1.2,3.1,2.9v0C293.1-2.8,291.7-1.7,289.5-1.7z"/>
			<path class="st0" d="M299.5-9.7v7.8h-2.2v-7.8h-3v-2h8.1v2H299.5z"/>
			<path class="st0" d="M310.7-9.7v2.1h4.7v2h-4.7v3.8h-2.2v-9.8h7.5v2H310.7z"/>
			<path class="st0" d="M317.9-1.8v-9.8h2.2v9.8H317.9z"/>
			<path class="st0" d="M328.7-1.8l-2.2-3.4l-2.2,3.4h-2.5l3.4-5l-3.3-4.8h2.5l2.1,3.2l2.1-3.2h2.5l-3.3,4.8l3.4,5H328.7z"/>
			<path class="st0" d="M337.2-1.8v-9.8h2.2v9.8H337.2z"/>
			<path class="st0" d="M346.3-9.7v7.8h-2.2v-7.8h-3v-2h8.1v2H346.3z"/>
		</g>
	</g>
	<g class="st4">
		<path class="st5" d="M252.8-28.8v-15h-2.5v-1.8h7v1.8h-2.5v15H252.8z"/>
		<path class="st5" d="M258.3-45.8h1.8v4.9c0.5-0.5,1.2-1,2.3-1c1.5,0,2.2,0.9,2.2,2.3v10.8h-1.8v-10.4c0-0.7-0.3-1-0.9-1
			c-0.6,0-1.1,0.2-1.8,0.6v10.7h-1.8V-45.8z"/>
		<path class="st5" d="M268.1-34.6v3.1c0,0.8,0.4,1.2,1.2,1.2h0.3c0.8,0,1.2-0.4,1.2-1.2V-33h1.8v1.4c0,1.9-1,2.9-2.9,2.9h-0.4
			c-1.9,0-2.9-1-2.9-2.9V-39c0-1.9,1-2.9,2.9-2.9h0.4c1.9,0,2.9,1,2.9,2.9v4.4H268.1z M268.1-36.3h2.6V-39c0-0.8-0.4-1.2-1.2-1.2
			h-0.3c-0.8,0-1.2,0.4-1.2,1.2V-36.3z"/>
		<path class="st5" d="M274.1-41.8h1.8v1.4c0.6-1,1.1-1.5,2.1-1.5v2.1c-0.9,0.1-1.6,0.3-2.1,0.8v10.2h-1.8V-41.8z"/>
		<path class="st5" d="M280.7-34.6v3.1c0,0.8,0.4,1.2,1.2,1.2h0.3c0.8,0,1.2-0.4,1.2-1.2V-33h1.8v1.4c0,1.9-1,2.9-2.9,2.9h-0.4
			c-1.9,0-2.9-1-2.9-2.9V-39c0-1.9,1-2.9,2.9-2.9h0.4c1.9,0,2.9,1,2.9,2.9v4.4H280.7z M280.7-36.3h2.6V-39c0-0.8-0.4-1.2-1.2-1.2
			h-0.3c-0.8,0-1.2,0.4-1.2,1.2V-36.3z"/>
		<path class="st5" d="M288.5-43.7c0,1.1-0.1,1.5-0.6,2.5l-0.5,0.9l-0.8-0.2l0.3-0.7c0.2-0.6,0.4-1.1,0.4-1.5h-0.7v-2.8h1.9V-43.7z"
			/>
		<path class="st5" d="M293.8-39.1c0-0.7-0.4-1.1-1.1-1.1h-0.3c-0.7,0-1.1,0.4-1.1,1.1v1.1c0,0.6,0.2,0.9,0.7,1.2l2.2,1.3
			c1.1,0.7,1.5,1.3,1.5,2.6v1.3c0,1.9-1,2.9-2.9,2.9h-0.4c-1.9,0-2.9-1-2.9-2.9v-1.9h1.8v2c0,0.7,0.4,1.1,1.1,1.1h0.4
			c0.7,0,1.1-0.4,1.1-1.1v-1.2c0-0.6-0.2-0.9-0.7-1.2l-2.2-1.3c-1-0.7-1.5-1.3-1.5-2.6V-39c0-1.9,1-2.9,2.9-2.9h0.3
			c1.9,0,2.9,1,2.9,2.9v1.8h-1.8V-39.1z"/>
		<path class="st5" d="M299.9-33.3c0-1.6,0.5-2.3,1.9-2.7l2.4-0.8V-39c0-0.8-0.4-1.2-1.2-1.2H303c-0.8,0-1.2,0.4-1.2,1.2v1.6H300
			V-39c0-1.9,1-2.9,2.9-2.9h0.2c1.9,0,2.9,1,2.9,2.9v10.2h-1.8v-0.8c-0.5,0.5-1.2,1-2.2,1c-1.5,0-2.1-0.8-2.1-2.3V-33.3z M304.3-31
			v-4.2l-1.7,0.6c-0.7,0.3-0.9,0.6-0.9,1.3v2c0,0.6,0.3,0.9,0.9,0.9C303.2-30.4,303.7-30.6,304.3-31z"/>
		<path class="st5" d="M312.6-28.8h-1.9v-16.8h3.3c2.1,0,3.1,1,3.1,3.1v4.2c0,2.1-1,3.1-3.1,3.1h-1.4V-28.8z M313.9-43.8h-1.3v7h1.3
			c0.9,0,1.3-0.4,1.3-1.3v-4.4C315.2-43.4,314.8-43.8,313.9-43.8z"/>
		<path class="st5" d="M318.6-41.8h1.8v1.4c0.6-1,1.1-1.5,2.1-1.5v2.1c-0.9,0.1-1.6,0.3-2.1,0.8v10.2h-1.8V-41.8z"/>
		<path class="st5" d="M326.3-28.6c-1.9,0-2.9-1-2.9-2.9V-39c0-1.9,1-2.9,2.9-2.9h0.5c1.9,0,2.9,1,2.9,2.9v7.4c0,1.9-1,2.9-2.9,2.9
			H326.3z M326.4-40.2c-0.8,0-1.2,0.4-1.2,1.2v7.5c0,0.8,0.4,1.2,1.2,1.2h0.4c0.8,0,1.2-0.4,1.2-1.2V-39c0-0.8-0.4-1.2-1.2-1.2
			H326.4z"/>
		<path class="st5" d="M331.4-45.8h1.8v4.9c0.4-0.5,1.2-1,2.2-1c1.6,0,2.3,1,2.3,2.6v8.1c0,1.5-0.8,2.6-2.3,2.6
			c-1.1,0-1.8-0.5-2.2-0.9v0.8h-1.8V-45.8z M333.2-31c0.5,0.4,1.1,0.7,1.7,0.7c0.7,0,1.1-0.3,1.1-1.1v-7.7c0-0.7-0.4-1.1-1.1-1.1
			c-0.6,0-1.2,0.2-1.7,0.7V-31z"/>
		<path class="st5" d="M339.5-45.8h1.8v17h-1.8V-45.8z"/>
		<path class="st5" d="M344.8-34.6v3.1c0,0.8,0.4,1.2,1.2,1.2h0.3c0.8,0,1.2-0.4,1.2-1.2V-33h1.8v1.4c0,1.9-1,2.9-2.9,2.9h-0.4
			c-1.9,0-2.9-1-2.9-2.9V-39c0-1.9,1-2.9,2.9-2.9h0.4c1.9,0,2.9,1,2.9,2.9v4.4H344.8z M344.8-36.3h2.6V-39c0-0.8-0.4-1.2-1.2-1.2
			H346c-0.8,0-1.2,0.4-1.2,1.2V-36.3z"/>
		<path class="st5" d="M357-28.8h-1.8v-10.4c0-0.6-0.3-0.9-0.9-0.9c-0.5,0-1,0.2-1.7,0.6v10.7h-1.8v-13h1.8v0.8c0.5-0.5,1.2-1,2.2-1
			c0.9,0,1.6,0.4,1.9,1.1c0.6-0.6,1.4-1.1,2.5-1.1c1.4,0,2.1,0.9,2.1,2.3v10.8h-1.8v-10.4c0-0.6-0.3-0.9-0.9-0.9
			c-0.5,0-1,0.2-1.7,0.6V-28.8z"/>
		<path class="st5" d="M364.4-33.5h-0.7l-0.6-8.2v-3.9h1.9v3.9L364.4-33.5z M365-28.8h-1.9v-2.8h1.9V-28.8z"/>
	</g>
</g>
<g>
	<path class="st0" d="M430,118.5c0,2.5-2,4.5-4.5,4.5h-89.4c-2.5,0-4.5-2-4.5-4.5V6.8c0-2.5,2-4.5,4.5-4.5h89.4c2.5,0,4.5,2,4.5,4.5
		V118.5z"/>
	<rect x="340.6" y="15.8" class="st1" width="80.4" height="89.4"/>
	<circle class="st3" cx="380.8" cy="114.1" r="4.5"/>
	<path class="st6" d="M466.7,132l-18.8-31.3C447.9,73.8,430,56,430,56v35.7l-12.4-8.3c-0.7-0.4-1.4-0.7-2.2-0.7
		c-1.8,0-3.3,1.5-3.3,3.3c0,0.8,0.3,1.5,0.8,2.1c7.4,10.4,12.6,21.4,23.8,30.4l3.4,13.5L466.7,132z"/>
	<circle class="st1" cx="378.6" cy="9.1" r="2.2"/>
</g>
<g>
	<path d="M408.8,88.9c0,2.2-1.8,4-4,4h-48c-2.2,0-4-1.8-4-4v-57c0-2.2,1.8-4,4-4h48c2.2,0,4,1.8,4,4V88.9z"/>
	<g class="st4">
		<path class="st0" d="M400.2,67c0.9,0,1.8,0.8,1.8,1.7v11.4c0,1-0.9,1.9-1.8,1.9h-38.7c-0.9,0-1.5-0.9-1.5-1.9V68.7
			c0-1,0.6-1.7,1.5-1.7H400 M400.2,66h-38.7c-1.5,0-2.5,1.2-2.5,2.7v11.4c0,1.5,1,2.9,2.5,2.9h38.7c1.5,0,2.8-1.3,2.8-2.9V68.7
			C403,67.2,401.7,66,400.2,66L400.2,66z"/>
		<g>
			<path class="st0" d="M365.5,72.2V74h4v1.7h-4v3.2h-1.8v-8.4h6.4v1.7H365.5z"/>
			<path class="st0" d="M371.7,78.9v-8.4h1.8v8.4H371.7z"/>
			<path class="st0" d="M380.9,78.9l-1.9-2.9l-1.9,2.9h-2.1l2.9-4.3l-2.8-4.1h2.2l1.8,2.7l1.8-2.7h2.1l-2.8,4.1l2.9,4.3H380.9z"/>
			<path class="st0" d="M388.3,78.9v-8.4h1.8v8.4H388.3z"/>
			<path class="st0" d="M396.1,72.3v6.7h-1.8v-6.7h-2.6v-1.7h7v1.7H396.1z"/>
		</g>
	</g>
	<path class="st5" d="M380.8,35.3c-5.5,0-10,4.5-10,10s4.5,10,10,10c5.5,0,10-4.5,10-10S386.4,35.3,380.8,35.3z M381.8,50.3h-2v-2h2
		V50.3z M381.8,46.3h-2v-6h2V46.3z"/>
</g>
</svg>
