<?xml version="1.0" encoding="utf-8"?>
<!-- Generator: Adobe Illustrator 19.1.0, SVG Export Plug-In . SVG Version: 6.00 Build 0)  -->
<svg version="1.1" id="Layer_1" xmlns="http://www.w3.org/2000/svg" xmlns:xlink="http://www.w3.org/1999/xlink" x="0px" y="0px"
	 viewBox="148 -138 320 300" style="enable-background:new 148 -138 320 300;" xml:space="preserve">
<style type="text/css">
	.st0{fill:none;}
	.st1{fill:#FFFFFE;}
	.st2{fill:#303030;}
	.st3{fill:#BDBDBD;}
	.st4{fill:#212121;}
	.st5{opacity:0.15;enable-background:new    ;}
	.st6{fill:#3F51B5;}
	.st7{fill:#FFFFFF;}
	.st8{fill:#7AB439;}
	.st9{fill:#9D9D9D;}
</style>
<g>
	<rect x="169.2" y="-138" class="st0" width="277.8" height="300"/>
	<g>
		<g>
			<path class="st1" d="M447-91.5c0-24.1-19.8-43.9-44-43.9h-1.5c0,0,0-0.6,0-1.3s-0.7-1.3-1.5-1.3h-42.5c-0.8,0-1.5,0.6-1.5,1.3
				s0,1.3,0,1.3H216.1c-24.2,0-44,19.8-44,44v36.6c0,0-0.8,0-1.5,0s-1.5,0.5-1.5,1.3v22.7c0,0.8,0.8,1.6,1.5,1.6s1.5,0,1.5,0V0.1
				c0,0-0.8,0-1.5,0s-1.5,0.5-1.5,1.3v17.2c0,0.8,0.8,1.6,1.5,1.6s1.5,0,1.5,0v27.9c0,0-0.8,0-1.5,0s-1.5,0.5-1.5,1.3v17.2
				c0,0.8,0.8,1.6,1.5,1.6s1.5,0,1.5,0V162H447V-91.5z"/>
		</g>
		<g>
			<rect x="192.7" y="-50.8" class="st2" width="234.5" height="212.8"/>
		</g>
		<path class="st3" d="M332.2-90.7h-44c-3,0-5.5,2.5-5.5,5.5s2.5,5.5,5.5,5.5h44c3,0,5.5-2.5,5.5-5.5
			C337.8-88.3,335.2-90.7,332.2-90.7z"/>
		<circle class="st3" cx="309.5" cy="-107.2" r="5.5"/>
		<g>
			<path class="st0" d="M403-133.4h-1.5c-1.1,0-2-0.9-2-2v-0.6H358v0.4c0,1.1-0.9,2-2,2h-140c-23.2,0-42,18.9-42,42V-55
				c0,1.1-0.9,2-2,2h-0.9v21.7h0.9c1.1,0,2,0.9,2,2V0c0,1.1-0.9,2-2,2h-0.9v16.2h0.9c1.1,0,2,0.9,2,2v27.9c0,1.1-0.9,2-2,2h-0.9
				v16.2h0.9c1.1,0,2,0.9,2,2V162H445V-91.4C445-114.6,426-133.4,403-133.4z"/>
			<path class="st3" d="M174.1,68.3c0-1.1-0.9-2-2-2h-0.9V50.1h0.9c1.1,0,2-0.9,2-2V20.2c0-1.1-0.9-2-2-2h-0.9V2h0.9
				c1.1,0,2-0.9,2-2v-29.3c0-1.1-0.9-2-2-2h-0.9V-53h0.9c1.1,0,2-0.9,2-2v-36.6c0-23.1,18.8-42,42-42h140c1.1,0,2-0.9,2-2v-0.4h41.4
				v0.6c0,1.1,0.9,2,2,2h1.5c23.1,0,42,18.8,42,42V162h2V-91.5c0-24.2-19.8-44-44-44h-1.5c0,0,0-0.6,0-1.3s-0.6-1.2-1.4-1.2h-42.5
				c-0.8,0-1.5,0.6-1.5,1.3s0,1.3,0,1.3h-140c-24.2,0-44,19.8-44,44v36.6c0,0-0.8,0-1.5,0s-1.5,0.5-1.5,1.3v22.7
				c0,0.8,0.8,1.6,1.5,1.6s1.5,0,1.5,0V0.1c0,0-0.8,0-1.5,0s-1.5,0.5-1.5,1.3v17.2c0,0.8,0.8,1.6,1.5,1.6s1.5,0,1.5,0v27.9
				c0,0-0.8,0-1.5,0s-1.5,0.5-1.5,1.3v17.2c0,0.8,0.8,1.6,1.5,1.6s1.5,0,1.5,0V162h2V68.3z"/>
		</g>
	</g>
	<g>
		<g>
			<rect id="SVGID_3_" x="192.7" y="-50.8" class="st4" width="234" height="45"/>
		</g>
	</g>
	<g>
		<circle class="st5" cx="404.2" cy="-3.7" r="13.3"/>
		<circle class="st6" cx="403.2" cy="-5.7" r="13.3"/>
		<path class="st7" d="M408.2-4.8h-4.1v4.1h-1.7v-4.1h-4.1v-1.7h4.1v-4.1h1.7v4.1h4.1V-4.8z"/>
	</g>
	<g>
		<path class="st7" d="M210.2-27.8v3.4c0,1.7-0.9,2.6-2.6,2.6h-0.6c-1.7,0-2.6-0.9-2.6-2.6v-10.9c0-1.7,0.9-2.5,2.6-2.5h0.6
			c1.7,0,2.6,0.9,2.6,2.5v2.9h-0.9v-3c0-1.1-0.6-1.7-1.7-1.7H207c-1.2,0-1.8,0.6-1.8,1.7v10.9c0,1.1,0.6,1.7,1.8,1.7h0.6
			c1.1,0,1.7-0.6,1.7-1.7v-3.3H210.2z"/>
		<path class="st7" d="M212.2-37.9h0.8v4.9c0.8-0.6,1.4-1,2.3-1h0.1c1.3,0,2,0.7,2,1.9v10.2h-0.8V-32c0-0.9-0.5-1.3-1.4-1.3h-0.1
			c-0.7,0-1.3,0.3-2.2,0.9V-22h-0.8L212.2-37.9L212.2-37.9z"/>
		<path class="st7" d="M220.4-27.6v3.3c0,1.1,0.5,1.7,1.7,1.7h0.2c1.1,0,1.7-0.6,1.7-1.7v-1.4h0.8v1.4c0,1.6-0.9,2.5-2.5,2.5h-0.3
			c-1.7,0-2.5-0.9-2.5-2.5v-7.2c0-1.6,0.8-2.5,2.5-2.5h0.3c1.6,0,2.5,0.9,2.5,2.5v4h-4.4V-27.6z M220.4-28.4h3.6v-3.2
			c0-1.1-0.6-1.7-1.7-1.7h-0.2c-1.1,0-1.7,0.6-1.7,1.7L220.4-28.4L220.4-28.4z"/>
		<path class="st7" d="M231.1-31.6c0-1.1-0.5-1.6-1.6-1.6h-0.3c-1.1,0-1.6,0.5-1.6,1.6v7.3c0,1.1,0.5,1.6,1.6,1.6h0.3
			c1.1,0,1.6-0.5,1.6-1.6v-2.2h0.8v2.2c0,1.6-0.8,2.5-2.5,2.5H229c-1.6,0-2.5-0.8-2.5-2.5v-7.3c0-1.6,0.8-2.5,2.5-2.5h0.4
			c1.6,0,2.5,0.8,2.5,2.5v1.8h-0.8V-31.6z"/>
		<path class="st7" d="M239.3-34l-3.5,5.9l3.4,6.2h-1l-3.3-6v6h-0.8v-16h0.8v9.8l3.4-5.9C238.2-34,239.3-34,239.3-34z"/>
		<path class="st7" d="M244.5-31.8c0-0.9-0.5-1.4-1.5-1.4h-0.3c-1,0-1.5,0.5-1.5,1.4v1.1c0,0.8,0.3,1.2,0.9,1.6l2.1,1.3
			c0.9,0.6,1.3,1.2,1.3,2.3v1.3c0,1.5-0.8,2.3-2.4,2.3h-0.4c-1.6,0-2.4-0.8-2.4-2.3v-1.9h0.8v2c0,0.9,0.5,1.4,1.5,1.4h0.4
			c1,0,1.5-0.5,1.5-1.4v-1.3c0-0.8-0.3-1.2-0.9-1.6l-2.1-1.3c-0.9-0.6-1.3-1.2-1.3-2.3v-1.1c0-1.5,0.8-2.3,2.4-2.3h0.3
			c1.6,0,2.3,0.8,2.3,2.3v1.8h-0.8L244.5-31.8L244.5-31.8z"/>
	</g>
	<g>
		<path class="st8" d="M210.5,20.1l-0.8-1.9h-3.5l-0.8,1.9h-1.9l3.6-8.5h1.7l3.6,8.5H210.5z M208,13.9l-1.1,2.7h2.2L208,13.9z"/>
		<path class="st8" d="M213.6,20.1v-8.8h1.8v8.8H213.6z"/>
		<path class="st8" d="M217.3,20.1v-8.8h1.8v8.8H217.3z"/>
		<path class="st8" d="M228.5,20.3c-2.5,0-4.3-1.9-4.3-4.3l0,0c0-2.4,1.8-4.3,4.4-4.3c1.6,0,2.5,0.5,3.3,1.3l-1.2,1.2
			c-0.6-0.6-1.3-0.9-2.1-0.9c-1.4,0-2.4,1.2-2.4,2.6l0,0c0,1.4,1,2.6,2.4,2.6c1,0,1.5-0.4,2.2-1l1.2,1.2
			C231.1,19.7,230.1,20.3,228.5,20.3z"/>
		<path class="st8" d="M237.3,20.1v-3.6c0-0.9-0.4-1.3-1.1-1.3c-0.7,0-1.1,0.4-1.1,1.3v3.6h-1.8v-8.8h1.8v3.2c0.4-0.5,1-1,1.9-1
			c1.4,0,2.2,0.9,2.2,2.4v4.2H237.3z"/>
		<path class="st8" d="M246.7,17.5h-4.5c0.2,0.8,0.8,1.3,1.6,1.3c0.6,0,1.1-0.2,1.6-0.7l1,0.9c-0.6,0.7-1.5,1.2-2.6,1.2
			c-1.9,0-3.4-1.4-3.4-3.3l0,0c0-1.8,1.3-3.3,3.2-3.3c2.1,0,3.1,1.7,3.1,3.5l0,0C246.7,17.3,246.7,17.4,246.7,17.5z M243.6,15
			c-0.8,0-1.2,0.5-1.4,1.4h2.7C244.8,15.6,244.4,15,243.6,15z"/>
		<path class="st8" d="M251.1,20.3c-1.9,0-3.3-1.5-3.3-3.3l0,0c0-1.8,1.4-3.3,3.4-3.3c1.2,0,2,0.4,2.6,1.1l-1.1,1.2
			c-0.4-0.4-0.8-0.7-1.5-0.7c-0.9,0-1.6,0.8-1.6,1.8l0,0c0,1,0.6,1.8,1.6,1.8c0.6,0,1-0.3,1.5-0.7l1.1,1.1
			C253.1,19.8,252.4,20.3,251.1,20.3z"/>
		<path class="st8" d="M259,20.1l-1.7-2.6l-0.6,0.7v2h-1.8v-8.8h1.8v4.7l2.1-2.3h2.2l-2.4,2.5l2.5,3.9L259,20.1L259,20.1z"/>
		<path class="st8" d="M264.2,20.2c-0.9,0-1.9-0.3-2.8-1l0.8-1.2c0.7,0.5,1.4,0.8,2,0.8c0.5,0,0.8-0.2,0.8-0.5l0,0
			c0-0.4-0.6-0.5-1.3-0.7c-0.9-0.3-1.9-0.7-1.9-1.9l0,0c0-1.3,1.1-2,2.4-2c0.8,0,1.7,0.3,2.4,0.7l-0.7,1.3c-0.6-0.4-1.3-0.6-1.7-0.6
			s-0.7,0.2-0.7,0.4l0,0c0,0.4,0.6,0.5,1.3,0.8c0.9,0.3,1.9,0.7,1.9,1.9l0,0C266.8,19.6,265.7,20.2,264.2,20.2z"/>
		<path class="st8" d="M275,17.6h-1.4v2.5h-1.8v-8.4h3.4c2,0,3.2,1.2,3.2,2.9l0,0C278.5,16.6,277,17.6,275,17.6z M276.5,14.7
			c0-0.8-0.6-1.3-1.5-1.3h-1.4V16h1.5C276,15.9,276.5,15.4,276.5,14.7L276.5,14.7z"/>
		<path class="st8" d="M283.2,20.1v-0.7c-0.4,0.5-1.1,0.8-1.9,0.8c-1.2,0-2.2-0.7-2.2-2l0,0c0-1.4,1.1-2.1,2.6-2.1
			c0.6,0,1.1,0.1,1.6,0.3v-0.1c0-0.8-0.5-1.2-1.4-1.2c-0.7,0-1.2,0.1-1.8,0.3l-0.5-1.4c0.7-0.3,1.4-0.5,2.5-0.5c2,0,2.9,1,2.9,2.8
			V20h-1.8L283.2,20.1L283.2,20.1z M283.4,17.5c-0.3-0.1-0.7-0.2-1.2-0.2c-0.8,0-1.3,0.3-1.3,0.9l0,0c0,0.5,0.4,0.8,1,0.8
			c0.9,0,1.4-0.5,1.4-1.1v-0.4C283.2,17.5,283.4,17.5,283.4,17.5z"/>
		<path class="st8" d="M288.9,20.2c-0.9,0-1.9-0.3-2.8-1l0.8-1.2c0.7,0.5,1.4,0.8,2,0.8c0.5,0,0.8-0.2,0.8-0.5l0,0
			c0-0.4-0.6-0.5-1.3-0.7c-0.9-0.3-1.9-0.7-1.9-1.9l0,0c0-1.3,1.1-2,2.4-2c0.8,0,1.7,0.3,2.4,0.7l-0.7,1.3c-0.6-0.4-1.3-0.6-1.7-0.6
			c-0.4,0-0.7,0.2-0.7,0.4l0,0c0,0.4,0.6,0.5,1.3,0.8c0.9,0.3,1.9,0.7,1.9,1.9l0,0C291.4,19.6,290.2,20.2,288.9,20.2z"/>
		<path class="st8" d="M294.8,20.2c-0.9,0-1.9-0.3-2.8-1l0.8-1.2c0.7,0.5,1.4,0.8,2,0.8c0.5,0,0.8-0.2,0.8-0.5l0,0
			c0-0.4-0.6-0.5-1.3-0.7c-0.9-0.3-1.9-0.7-1.9-1.9l0,0c0-1.3,1.1-2,2.4-2c0.8,0,1.7,0.3,2.4,0.7l-0.7,1.3c-0.6-0.4-1.3-0.6-1.7-0.6
			s-0.7,0.2-0.7,0.4l0,0c0,0.4,0.6,0.5,1.3,0.8c0.9,0.3,1.9,0.7,1.9,1.9l0,0C297.2,19.6,296.2,20.2,294.8,20.2z"/>
		<path class="st8" d="M298.5,13v-1.6h1.9V13H298.5z M298.7,20.1v-6.4h1.8v6.4H298.7z"/>
		<path class="st8" d="M306.2,20.1v-3.6c0-0.9-0.4-1.3-1.1-1.3s-1.1,0.4-1.1,1.3v3.6h-1.8v-6.4h1.8v0.9c0.4-0.5,1-1,1.9-1
			c1.4,0,2.2,0.9,2.2,2.4v4.2L306.2,20.1L306.2,20.1z"/>
		<path class="st8" d="M312.5,22.1c-1,0-2-0.2-2.8-0.7l0.6-1.4c0.7,0.4,1.3,0.6,2.2,0.6c1.2,0,1.8-0.6,1.8-1.8v-0.3
			c-0.5,0.6-1.1,1-2.1,1c-1.5,0-2.9-1.1-2.9-3l0,0c0-1.9,1.4-3,2.9-3c1,0,1.6,0.4,2.1,1v-0.8h1.8v5C316.2,21.1,315,22.1,312.5,22.1z
			 M314.4,16.6c0-0.9-0.7-1.5-1.6-1.5c-0.9,0-1.6,0.6-1.6,1.5l0,0c0,0.9,0.7,1.5,1.6,1.5C313.7,18.1,314.4,17.5,314.4,16.6
			L314.4,16.6z"/>
	</g>
	<g>
		<path class="st7" d="M236.5,46.2V50h-0.9v-8.4h0.9v3.7h4.8v-3.7h0.9V50h-0.9v-3.8C241.3,46.2,236.5,46.2,236.5,46.2z"/>
		<path class="st7" d="M247.9,50h-1v-7.5h-2.8v-0.9h6.6v0.9h-2.8V50z"/>
		<path class="st7" d="M255.6,50h-1v-7.5h-2.8v-0.9h6.6v0.9h-2.8L255.6,50L255.6,50z"/>
		<path class="st7" d="M263.2,47.1h-2v3h-0.9v-8.4h3.1c1.9,0,3.1,1,3.1,2.7C266.5,46.1,265,47.1,263.2,47.1z M263.2,42.5h-2.1v3.7
			h2.1c1.4,0,2.3-0.7,2.3-1.9S264.7,42.5,263.2,42.5z"/>
		<path class="st7" d="M268,45.1v-1.3h1.1v1.3H268z M268,50v-1.3h1.1V50H268z"/>
		<path class="st7" d="M278.7,50.2c-2.4,0-4.2-1.9-4.2-4.3s1.8-4.4,4.2-4.4c1.5,0,2.4,0.5,3.3,1.3l-0.6,0.7
			c-0.7-0.7-1.5-1.2-2.6-1.2c-1.9,0-3.3,1.5-3.3,3.5s1.4,3.5,3.3,3.5c1.2,0,1.9-0.4,2.7-1.2l0.6,0.6
			C281.2,49.6,280.2,50.2,278.7,50.2z"/>
		<path class="st7" d="M286.2,50.2c-1.9,0-3.2-1.5-3.2-3.2c0-1.8,1.4-3.3,3.2-3.3c1.9,0,3.2,1.5,3.2,3.2
			C289.5,48.7,288.2,50.2,286.2,50.2z M286.2,44.5c-1.3,0-2.3,1.1-2.3,2.4s1,2.4,2.3,2.4s2.3-1.1,2.3-2.4S287.5,44.5,286.2,44.5z"/>
		<path class="st7" d="M296.2,50v-1.2c-0.5,0.7-1.2,1.4-2.4,1.4c-1.5,0-3-1.2-3-3.2s1.5-3.2,3-3.2c1.2,0,1.9,0.6,2.4,1.3v-3.7h0.9
			v8.8h-0.9V50z M294,44.5c-1.2,0-2.2,0.9-2.2,2.4s1,2.4,2.2,2.4s2.2-1,2.2-2.4S295.2,44.5,294,44.5z"/>
		<path class="st7" d="M301.9,49.4c0.9,0,1.5-0.3,2-0.9l0.6,0.5c-0.6,0.7-1.4,1.2-2.6,1.2c-1.7,0-3.1-1.3-3.1-3.2
			c0-1.8,1.3-3.2,3-3.2c1.8,0,2.9,1.5,2.9,3.3c0,0.1,0,0.2,0,0.3h-4.9C299.9,48.6,300.8,49.4,301.9,49.4z M303.7,46.6
			c-0.1-1.1-0.7-2.1-2-2.1c-1.1,0-1.9,0.9-2,2.1H303.7z"/>
		<path class="st7" d="M310.2,43.8l-0.7-0.5c0.8-1.1,1.5-1.8,3-1.8s2.6,1,2.6,2.4c0,1.2-0.6,2-2.1,3.3l-2.2,2h4.4v0.9h-5.9v-0.7
			l3-2.7c1.3-1.2,1.8-1.8,1.8-2.6c0-1-0.8-1.6-1.7-1.6C311.5,42.4,311,42.9,310.2,43.8z"/>
		<path class="st7" d="M320.2,50.2c-2.2,0-3.5-2-3.5-4.3c0-2.4,1.4-4.4,3.6-4.4s3.5,2,3.5,4.3C323.9,48.2,322.5,50.2,320.2,50.2z
			 M320.2,42.3c-1.6,0-2.6,1.6-2.6,3.5s1,3.5,2.6,3.5c1.6,0,2.5-1.6,2.5-3.5S321.9,42.3,320.2,42.3z"/>
		<path class="st7" d="M328.9,50.2c-2.2,0-3.5-2-3.5-4.3c0-2.4,1.4-4.4,3.6-4.4s3.5,2,3.5,4.3C332.5,48.2,331,50.2,328.9,50.2z
			 M328.9,42.3c-1.6,0-2.6,1.6-2.6,3.5s1,3.5,2.6,3.5c1.6,0,2.5-1.6,2.5-3.5S330.5,42.3,328.9,42.3z"/>
		<path class="st9" d="M239.4,64.6c-2.4,0-4.2-1.9-4.2-4.3s1.8-4.4,4.2-4.4c1.5,0,2.4,0.5,3.3,1.3l-0.6,0.7
			c-0.7-0.7-1.5-1.2-2.6-1.2c-1.9,0-3.3,1.5-3.3,3.5s1.4,3.5,3.3,3.5c1.2,0,1.9-0.4,2.7-1.2l0.6,0.6C241.9,64,240.9,64.6,239.4,64.6
			z"/>
		<path class="st9" d="M245.2,64.4h-0.9v-8.8h0.9v3.6c0.4-0.7,1.1-1.2,2.1-1.2c1.5,0,2.4,1,2.4,2.5v3.8h-0.9v-3.6
			c0-1.2-0.6-1.9-1.7-1.9c-1.1,0-1.9,0.8-1.9,1.9L245.2,64.4L245.2,64.4z"/>
		<path class="st9" d="M254.4,63.8c0.9,0,1.5-0.3,2-0.9l0.6,0.5c-0.6,0.7-1.4,1.2-2.6,1.2c-1.7,0-3.1-1.3-3.1-3.2
			c0-1.8,1.3-3.2,3-3.2c1.8,0,2.9,1.5,2.9,3.3c0,0.1,0,0.2,0,0.3h-4.9C252.3,63,253.3,63.8,254.4,63.8z M256.2,61
			c-0.1-1.1-0.7-2.1-2-2.1c-1.1,0-1.9,0.9-2,2.1H256.2z"/>
		<path class="st9" d="M261.5,64.6c-1.8,0-3.2-1.5-3.2-3.2c0-1.8,1.4-3.3,3.2-3.3c1.2,0,1.9,0.5,2.5,1.1l-0.6,0.6
			c-0.5-0.5-1-0.9-1.9-0.9c-1.3,0-2.2,1.1-2.2,2.4c0,1.4,1,2.4,2.3,2.4c0.8,0,1.4-0.4,1.9-0.9l0.6,0.6
			C263.5,64.1,262.7,64.6,261.5,64.6z"/>
		<path class="st9" d="M271,64.4H270l-2.2-2.9l-1.3,1.3v1.6h-0.9v-8.8h0.9v6l3.3-3.5h1.2l-2.6,2.7L271,64.4z"/>
		<path class="st9" d="M274.9,63.8c0.9,0,1.5-0.3,2-0.9l0.6,0.5c-0.6,0.7-1.4,1.2-2.6,1.2c-1.7,0-3.1-1.3-3.1-3.2
			c0-1.8,1.3-3.2,3-3.2c1.8,0,2.9,1.5,2.9,3.3c0,0.1,0,0.2,0,0.3h-5C272.8,63,273.8,63.8,274.9,63.8z M276.7,61
			c-0.1-1.1-0.7-2.1-2-2.1c-1.1,0-1.9,0.9-2,2.1H276.7z"/>
		<path class="st9" d="M284.2,64.4v-1.2c-0.5,0.7-1.2,1.4-2.4,1.4c-1.5,0-3-1.2-3-3.2s1.5-3.2,3-3.2c1.2,0,1.9,0.6,2.4,1.3v-3.7h0.9
			v8.8h-0.9V64.4z M282,58.9c-1.2,0-2.2,0.9-2.2,2.4s1,2.4,2.2,2.4s2.2-1,2.2-2.4S283.2,58.9,282,58.9z"/>
		<path class="st9" d="M290.8,56.9V56h5.4v0.7l-2.6,2.9c1.5,0.1,2.8,0.8,2.8,2.4c0,1.5-1.2,2.5-2.8,2.5c-1.4,0-2.4-0.6-3.1-1.5
			l0.7-0.6c0.6,0.8,1.4,1.2,2.5,1.2c1,0,1.8-0.6,1.8-1.6c0-1.1-1-1.6-2.4-1.6h-0.5l-0.2-0.6l2.7-3L290.8,56.9L290.8,56.9z"/>
		<path class="st9" d="M301.4,64.6c-2.2,0-3.5-2-3.5-4.3c0-2.4,1.4-4.4,3.6-4.4s3.5,2,3.5,4.3C305,62.6,303.5,64.6,301.4,64.6z
			 M301.4,56.7c-1.6,0-2.6,1.6-2.6,3.5s1,3.5,2.6,3.5c1.6,0,2.5-1.6,2.5-3.5S303,56.7,301.4,56.7z"/>
		<path class="st9" d="M308.8,64.5c-0.9,0-1.9-0.3-2.6-0.9l0.5-0.7c0.7,0.5,1.4,0.8,2.1,0.8s1.3-0.4,1.3-1l0,0
			c0-0.6-0.7-0.9-1.5-1.1c-1-0.3-2.1-0.6-2.1-1.8l0,0c0-1.1,0.9-1.8,2.1-1.8c0.8,0,1.6,0.3,2.2,0.7l-0.4,0.7
			c-0.6-0.4-1.2-0.6-1.8-0.6c-0.7,0-1.2,0.4-1.2,0.9l0,0c0,0.6,0.8,0.8,1.6,1.1c1,0.3,2,0.7,2,1.8l0,0C311,63.9,310,64.5,308.8,64.5
			z"/>
		<path class="st9" d="M316.7,59.4l-0.3-0.8c0.7-0.3,1.4-0.5,2.3-0.5c1.7,0,2.6,0.9,2.6,2.5v3.8h-0.9v-0.9c-0.4,0.6-1.2,1.1-2.2,1.1
			c-1.2,0-2.3-0.6-2.3-1.9s1.1-2,2.7-2c0.8,0,1.4,0.1,1.9,0.3v-0.2c0-1.1-0.7-1.7-1.8-1.7C317.8,58.9,317.2,59.1,316.7,59.4z
			 M316.8,62.6c0,0.8,0.7,1.2,1.6,1.2c1.1,0,2.1-0.7,2.1-1.7v-0.6c-0.5-0.1-1.1-0.3-1.8-0.3C317.4,61.3,316.8,61.8,316.8,62.6z"/>
		<path class="st9" d="M326,66.4c-1,0-2-0.3-2.8-0.9l0.4-0.7c0.7,0.5,1.5,0.8,2.4,0.8c1.4,0,2.3-0.8,2.3-2.2v-0.7
			c-0.5,0.7-1.3,1.3-2.4,1.3c-1.5,0-2.9-1.1-2.9-2.9s1.4-2.9,2.9-2.9c1.2,0,1.9,0.6,2.4,1.2v-1.2h0.9v5.1
			C329.2,65.3,327.9,66.4,326,66.4z M326,58.9c-1.2,0-2.1,0.8-2.1,2.1c0,1.3,1,2.1,2.1,2.1c1.2,0,2.3-0.8,2.3-2.1
			S327.2,58.9,326,58.9z"/>
		<path class="st9" d="M334,64.6c-1.9,0-3.2-1.5-3.2-3.2c0-1.8,1.4-3.3,3.2-3.3c1.9,0,3.2,1.5,3.2,3.2
			C337.2,63.1,335.9,64.6,334,64.6z M334,58.9c-1.3,0-2.3,1.1-2.3,2.4s1,2.4,2.3,2.4s2.3-1.1,2.3-2.4C336.4,60,335.4,58.9,334,58.9z
			"/>
	</g>
	<g>
		<path class="st0" d="M393.2,43.9h20v20h-20V43.9z"/>
		<path class="st9" d="M398.2,52.2c-0.9,0-1.7,0.8-1.7,1.7c0,0.9,0.8,1.7,1.7,1.7s1.7-0.8,1.7-1.7C399.9,53,399.2,52.2,398.2,52.2z
			 M408.2,52.2c-0.9,0-1.7,0.8-1.7,1.7c0,0.9,0.8,1.7,1.7,1.7s1.7-0.8,1.7-1.7C409.9,53,409.2,52.2,408.2,52.2z M403.2,52.2
			c-0.9,0-1.7,0.8-1.7,1.7c0,0.9,0.8,1.7,1.7,1.7s1.7-0.8,1.7-1.7C404.9,53,404.2,52.2,403.2,52.2z"/>
	</g>
	<path class="st8" d="M212.1,42.8c-6.1,0-11.1,5-11.1,11.1s5,11.1,11.1,11.1s11.1-5,11.1-11.1C223.3,47.8,218.3,42.8,212.1,42.8z
		 M210.6,58l-4-4l1.1-1.1l2.8,2.8l6-6l1.1,1.1L210.6,58z"/>
	<g>
		<path class="st7" d="M238.6,87.6c1.9,0.4,2.7,1.1,2.7,2.4c0,1.5-1.2,2.4-2.9,2.4c-1.3,0-2.4-0.4-3.4-1.3l0.6-0.7
			c0.9,0.8,1.7,1.2,2.9,1.2c1.1,0,1.9-0.6,1.9-1.4s-0.4-1.2-2.2-1.6c-1.9-0.4-2.8-1-2.8-2.4c0-1.3,1.2-2.3,2.8-2.3
			c1.2,0,2.1,0.3,3,1l-0.6,0.7c-0.8-0.6-1.6-0.9-2.4-0.9c-1.1,0-1.8,0.6-1.8,1.4C236.3,86.7,236.7,87.2,238.6,87.6z"/>
		<path class="st7" d="M251.5,91.8l-0.6,0.7l-1.1-1c-0.7,0.6-1.6,0.9-2.7,0.9c-2.6,0-4.3-2-4.3-4.3s1.7-4.4,4.3-4.4s4.3,2,4.3,4.3
			c0,1.1-0.4,2.1-1,2.8L251.5,91.8z M247.5,89.5l0.6-0.7l1.5,1.4c0.5-0.6,0.7-1.4,0.7-2.2c0-1.9-1.4-3.5-3.3-3.5s-3.3,1.5-3.3,3.5
			s1.4,3.5,3.3,3.5c0.7,0,1.4-0.2,1.9-0.6L247.5,89.5z"/>
		<path class="st7" d="M253.4,83.8h0.9v7.5h4.7v0.9h-5.7v-8.4H253.4z"/>
		<path class="st7" d="M260.7,87.3V86h1.1v1.3H260.7z M260.7,92.2v-1.3h1.1v1.3H260.7z"/>
		<path class="st7" d="M267.5,83.8h0.9v7.5h4.7v0.9h-5.7v-8.4H267.5z"/>
		<path class="st7" d="M275.2,87.2l-0.3-0.8c0.7-0.3,1.4-0.5,2.3-0.5c1.7,0,2.6,0.9,2.6,2.5v3.8h-0.9v-0.9c-0.4,0.6-1.2,1.1-2.2,1.1
			c-1.2,0-2.3-0.6-2.3-1.9s1.1-2,2.7-2c0.8,0,1.4,0.1,1.9,0.3v-0.2c0-1.1-0.7-1.7-1.8-1.7C276.2,86.8,275.7,87,275.2,87.2z
			 M275.2,90.4c0,0.8,0.7,1.2,1.6,1.2c1.1,0,2.1-0.7,2.1-1.7v-0.6c-0.5-0.1-1.1-0.3-1.8-0.3C275.9,89.1,275.2,89.6,275.2,90.4z"/>
		<path class="st7" d="M282.9,90.5c0,0.8,0.4,1,1,1c0.3,0,0.6-0.1,0.9-0.2v0.8c-0.3,0.2-0.7,0.3-1.1,0.3c-1,0-1.8-0.5-1.8-1.8v-3.7
			H281v-0.8h0.9v-1.9h0.9v1.9h2v0.8h-2v3.6C282.8,90.5,282.9,90.5,282.9,90.5z"/>
		<path class="st7" d="M289,91.6c0.9,0,1.5-0.3,2-0.9l0.6,0.5c-0.6,0.7-1.4,1.2-2.6,1.2c-1.7,0-3.1-1.3-3.1-3.2c0-1.8,1.3-3.2,3-3.2
			c1.8,0,2.9,1.5,2.9,3.3c0,0.1,0,0.2,0,0.3H287C287,90.8,288,91.6,289,91.6z M290.9,88.8c-0.1-1.1-0.7-2.1-2-2.1
			c-1.1,0-1.9,0.9-2,2.1H290.9z"/>
		<path class="st7" d="M294.4,92.2h-0.9V86h0.9v1.1c0.4-0.7,1.1-1.2,2.1-1.2c1.5,0,2.4,1,2.4,2.5v3.8H298v-3.6
			c0-1.2-0.6-1.9-1.7-1.9c-1.1,0-1.9,0.8-1.9,1.9V92.2z"/>
		<path class="st7" d="M303.5,92.4c-1.8,0-3.2-1.5-3.2-3.2c0-1.8,1.4-3.2,3.2-3.2c1.2,0,1.9,0.5,2.5,1.1l-0.6,0.6
			c-0.5-0.5-1-0.9-1.9-0.9c-1.3,0-2.2,1.1-2.2,2.4c0,1.4,1,2.4,2.3,2.4c0.8,0,1.4-0.4,1.9-0.9l0.6,0.6
			C305.5,91.9,304.8,92.4,303.5,92.4z"/>
		<path class="st7" d="M310.7,92.4c-0.5,1.3-1.1,1.8-2.1,1.8c-0.5,0-0.9-0.1-1.3-0.3l0.3-0.7c0.3,0.2,0.6,0.2,1,0.2
			c0.6,0,0.9-0.3,1.3-1.2L307,86h1l2.3,5.2l2-5.2h1L310.7,92.4z"/>
		<path class="st7" d="M323.8,84.8v0.9l-4.6,2.3l4.6,2.3v0.9l-5.6-2.8v-0.8L323.8,84.8z"/>
		<path class="st7" d="M331,83.8h0.7v8.5h-1v-7.5l-1.6,0.5l-0.2-0.8L331,83.8z"/>
		<path class="st7" d="M337.2,92.4c-2.2,0-3.5-2-3.5-4.3c0-2.4,1.4-4.4,3.6-4.4s3.5,2,3.5,4.3C340.7,90.4,339.2,92.4,337.2,92.4z
			 M337.2,84.6c-1.6,0-2.6,1.6-2.6,3.5c0,1.9,1,3.5,2.6,3.5c1.6,0,2.5-1.6,2.5-3.5C339.7,86.2,338.7,84.6,337.2,84.6z"/>
		<path class="st7" d="M345.7,92.4c-2.2,0-3.5-2-3.5-4.3c0-2.4,1.4-4.4,3.6-4.4s3.5,2,3.5,4.3C349.2,90.4,347.9,92.4,345.7,92.4z
			 M345.7,84.6c-1.6,0-2.6,1.6-2.6,3.5c0,1.9,1,3.5,2.6,3.5c1.6,0,2.5-1.6,2.5-3.5C348.2,86.2,347.2,84.6,345.7,84.6z"/>
		<path class="st7" d="M358.2,85.9c1.4,0,2.3,1,2.3,2.5v3.8h-0.9v-3.6c0-1.2-0.6-1.9-1.6-1.9c-0.9,0-1.7,0.7-1.7,1.9v3.6h-0.9v-3.6
			c0-1.2-0.6-1.8-1.6-1.8s-1.7,0.8-1.7,2v3.5h-0.9v-6.2h0.9v1c0.4-0.6,1-1.2,2-1.2s1.7,0.5,2,1.2C356.4,86.5,357,85.9,358.2,85.9z"
			/>
		<path class="st7" d="M364.5,92.4c-0.9,0-1.9-0.3-2.6-0.9l0.5-0.7c0.7,0.5,1.4,0.8,2.1,0.8s1.3-0.4,1.3-1l0,0
			c0-0.6-0.7-0.9-1.5-1.1c-1-0.3-2.1-0.6-2.1-1.8l0,0c0-1.1,0.9-1.8,2.1-1.8c0.8,0,1.6,0.3,2.2,0.7l-0.4,0.7
			c-0.6-0.4-1.2-0.6-1.8-0.6c-0.7,0-1.2,0.4-1.2,0.9l0,0c0,0.6,0.8,0.8,1.6,1.1c1,0.3,2,0.7,2,1.8l0,0
			C366.7,91.7,365.8,92.4,364.5,92.4z"/>
		<path class="st9" d="M239.4,106.8c-2.4,0-4.2-1.9-4.2-4.3c0-2.4,1.8-4.4,4.2-4.4c1.5,0,2.4,0.5,3.3,1.3l-0.6,0.7
			c-0.7-0.7-1.5-1.2-2.6-1.2c-1.9,0-3.3,1.5-3.3,3.5s1.4,3.5,3.3,3.5c1.2,0,1.9-0.4,2.7-1.2l0.6,0.6
			C241.9,106.2,240.9,106.8,239.4,106.8z"/>
		<path class="st9" d="M245.2,106.6h-0.9v-8.8h0.9v3.6c0.4-0.7,1.1-1.2,2.1-1.2c1.5,0,2.4,1,2.4,2.5v3.8h-0.9v-3.6
			c0-1.2-0.6-1.9-1.7-1.9c-1.1,0-1.9,0.8-1.9,1.9L245.2,106.6L245.2,106.6z"/>
		<path class="st9" d="M254.4,106c0.9,0,1.5-0.3,2-0.9l0.6,0.5c-0.6,0.7-1.4,1.2-2.6,1.2c-1.7,0-3.1-1.3-3.1-3.2
			c0-1.8,1.3-3.2,3-3.2c1.8,0,2.9,1.5,2.9,3.3c0,0.1,0,0.2,0,0.3h-4.9C252.3,105.2,253.3,106,254.4,106z M256.2,103.2
			c-0.1-1.1-0.7-2.1-2-2.1c-1.1,0-1.9,0.9-2,2.1H256.2z"/>
		<path class="st9" d="M261.5,106.8c-1.8,0-3.2-1.5-3.2-3.2c0-1.8,1.4-3.2,3.2-3.2c1.2,0,1.9,0.5,2.5,1.1l-0.6,0.6
			c-0.5-0.5-1-0.9-1.9-0.9c-1.3,0-2.2,1.1-2.2,2.4c0,1.4,1,2.4,2.3,2.4c0.8,0,1.4-0.4,1.9-0.9l0.6,0.6
			C263.5,106.3,262.7,106.8,261.5,106.8z"/>
		<path class="st9" d="M271,106.6H270l-2.2-2.9l-1.3,1.3v1.6h-0.9v-8.8h0.9v6l3.3-3.5h1.2l-2.6,2.7L271,106.6z"/>
		<path class="st9" d="M274.9,106c0.9,0,1.5-0.3,2-0.9l0.6,0.5c-0.6,0.7-1.4,1.2-2.6,1.2c-1.7,0-3.1-1.3-3.1-3.2
			c0-1.8,1.3-3.2,3-3.2c1.8,0,2.9,1.5,2.9,3.3c0,0.1,0,0.2,0,0.3h-5C272.8,105.2,273.8,106,274.9,106z M276.7,103.2
			c-0.1-1.1-0.7-2.1-2-2.1c-1.1,0-1.9,0.9-2,2.1H276.7z"/>
		<path class="st9" d="M284.2,106.6v-1.2c-0.5,0.7-1.2,1.4-2.4,1.4c-1.5,0-3-1.2-3-3.2s1.5-3.2,3-3.2c1.2,0,1.9,0.6,2.4,1.3V98h0.9
			v8.8h-0.9V106.6z M282,101.1c-1.2,0-2.2,0.9-2.2,2.4s1,2.4,2.2,2.4s2.2-1,2.2-2.4C284.2,102.1,283.2,101.1,282,101.1z"/>
		<path class="st9" d="M291.2,100.4l-0.7-0.5c0.8-1.1,1.5-1.8,3-1.8s2.6,1,2.6,2.4c0,1.2-0.6,2-2.1,3.3l-2.2,2h4.4v0.9h-5.9V106
			l3-2.7c1.3-1.2,1.8-1.8,1.8-2.6c0-1-0.8-1.6-1.7-1.6C292.5,99,291.9,99.5,291.2,100.4z"/>
		<path class="st9" d="M305,100.3c1.4,0,2.3,1,2.3,2.5v3.8h-0.9V103c0-1.2-0.6-1.9-1.6-1.9c-0.9,0-1.7,0.7-1.7,1.9v3.6h-0.9V103
			c0-1.2-0.6-1.8-1.6-1.8s-1.7,0.8-1.7,2v3.5H298v-6.2h0.9v1c0.4-0.6,1-1.2,2-1.2s1.7,0.5,2,1.2C303.4,100.9,304,100.3,305,100.3z"
			/>
		<path class="st9" d="M313.4,101.6l-0.3-0.8c0.7-0.3,1.4-0.5,2.3-0.5c1.7,0,2.6,0.9,2.6,2.5v3.8h-0.9v-0.9
			c-0.4,0.6-1.2,1.1-2.2,1.1c-1.2,0-2.3-0.6-2.3-1.9s1.1-2,2.7-2c0.8,0,1.4,0.1,1.9,0.3V103c0-1.1-0.7-1.7-1.8-1.7
			C314.5,101.2,313.9,101.4,313.4,101.6z M313.5,104.8c0,0.8,0.7,1.2,1.6,1.2c1.1,0,2.1-0.7,2.1-1.7v-0.6c-0.5-0.1-1.1-0.3-1.8-0.3
			C314,103.5,313.5,104,313.5,104.8z"/>
		<path class="st9" d="M322.7,108.6c-1,0-2-0.3-2.8-0.9l0.4-0.7c0.7,0.5,1.5,0.8,2.4,0.8c1.4,0,2.3-0.8,2.3-2.2v-0.7
			c-0.5,0.7-1.3,1.3-2.4,1.3c-1.5,0-2.9-1.1-2.9-2.9s1.4-2.9,2.9-2.9c1.2,0,1.9,0.6,2.4,1.2v-1.1h0.9v5.1
			C325.9,107.6,324.5,108.6,322.7,108.6z M322.7,101.1c-1.2,0-2.1,0.8-2.1,2.1c0,1.3,1,2.1,2.1,2.1c1.2,0,2.3-0.8,2.3-2.1
			S323.9,101.1,322.7,101.1z"/>
		<path class="st9" d="M330.7,106.8c-1.9,0-3.2-1.5-3.2-3.2c0-1.8,1.4-3.2,3.2-3.2c1.9,0,3.2,1.5,3.2,3.2S332.5,106.8,330.7,106.8z
			 M330.7,101.1c-1.3,0-2.3,1.1-2.3,2.4s1,2.4,2.3,2.4s2.3-1.1,2.3-2.4C333,102.2,332,101.1,330.7,101.1z"/>
	</g>
	<g>
		<path class="st0" d="M393.2,86.1h20v20h-20V86.1z"/>
		<path class="st9" d="M398.2,94.4c-0.9,0-1.7,0.8-1.7,1.7c0,0.9,0.8,1.7,1.7,1.7s1.7-0.8,1.7-1.7C399.9,95.2,399.2,94.4,398.2,94.4
			z M408.2,94.4c-0.9,0-1.7,0.8-1.7,1.7c0,0.9,0.8,1.7,1.7,1.7s1.7-0.8,1.7-1.7C409.9,95.2,409.2,94.4,408.2,94.4z M403.2,94.4
			c-0.9,0-1.7,0.8-1.7,1.7c0,0.9,0.8,1.7,1.7,1.7s1.7-0.8,1.7-1.7C404.9,95.2,404.2,94.4,403.2,94.4z"/>
	</g>
	<path class="st8" d="M212.1,85c-6.1,0-11.1,5-11.1,11.1c0,6.1,5,11.1,11.1,11.1s11.1-5,11.1-11.1C223.3,90,218.3,85,212.1,85z
		 M210.6,100.3l-4-4l1.1-1.1l2.8,2.8l6-6l1.1,1.1L210.6,100.3z"/>
	<g>
		<path class="st7" d="M238.5,134.5h-2.9v-8.4h2.9c2.6,0,4.5,1.8,4.5,4.2C242.9,132.6,241.1,134.5,238.5,134.5z M238.5,126.9h-2v6.6
			h2c2.1,0,3.5-1.4,3.5-3.3S240.6,126.9,238.5,126.9z"/>
		<path class="st7" d="M247.6,134.6c-1.9,0-3.2-1.5-3.2-3.2c0-1.8,1.4-3.3,3.2-3.3c1.9,0,3.2,1.5,3.2,3.2
			C250.9,133.1,249.5,134.6,247.6,134.6z M247.6,128.9c-1.3,0-2.3,1.1-2.3,2.4s1,2.4,2.3,2.4s2.3-1.1,2.3-2.4
			C249.9,130,248.9,128.9,247.6,128.9z"/>
		<path class="st7" d="M255.3,134.6c-1.8,0-3.2-1.5-3.2-3.2c0-1.8,1.4-3.3,3.2-3.3c1.2,0,1.9,0.5,2.5,1.1l-0.6,0.6
			c-0.5-0.5-1-0.9-1.9-0.9c-1.3,0-2.2,1.1-2.2,2.4c0,1.4,1,2.4,2.3,2.4c0.8,0,1.4-0.4,1.9-0.9l0.6,0.6
			C257.2,134.1,256.5,134.6,255.3,134.6z"/>
		<path class="st7" d="M264.9,134.5h-1.1l-2.2-2.9l-1.3,1.3v1.6h-0.9v-8.8h0.9v6l3.3-3.5h1.2l-2.6,2.7L264.9,134.5z"/>
		<path class="st7" d="M268.5,133.8c0.9,0,1.5-0.3,2-0.9l0.6,0.5c-0.6,0.7-1.4,1.2-2.6,1.2c-1.7,0-3.1-1.3-3.1-3.2
			c0-1.8,1.3-3.2,3-3.2c1.8,0,2.9,1.5,2.9,3.3c0,0.1,0,0.2,0,0.3h-4.9C266.5,133,267.5,133.8,268.5,133.8z M270.5,131
			c-0.1-1.1-0.7-2.1-2-2.1c-1.1,0-1.9,0.9-2,2.1H270.5z"/>
		<path class="st7" d="M273.9,134.5H273v-6.2h0.9v1.6c0.5-1,1.4-1.8,2.5-1.7v1h-0.1c-1.4,0-2.5,1-2.5,2.8v2.5L273.9,134.5
			L273.9,134.5z"/>
		<path class="st7" d="M277.8,129.5v-1.3h1.1v1.3H277.8z M277.8,134.5v-1.3h1.1v1.3H277.8z"/>
		<path class="st7" d="M285.5,134.5h-0.9v-6.2h0.9v1.6c0.5-1,1.4-1.8,2.5-1.7v1h-0.1c-1.4,0-2.5,1-2.5,2.8v2.5L285.5,134.5
			L285.5,134.5z"/>
		<path class="st7" d="M293.8,128.3h0.9v6.2h-0.9v-1.1c-0.4,0.7-1.1,1.2-2.1,1.2c-1.5,0-2.4-1-2.4-2.5v-3.8h0.9v3.6
			c0,1.2,0.6,1.9,1.7,1.9c1.1,0,1.9-0.8,1.9-1.9V128.3z"/>
		<path class="st7" d="M297.7,134.5h-0.9v-6.2h0.9v1.1c0.4-0.7,1.1-1.2,2.1-1.2c1.5,0,2.4,1,2.4,2.5v3.8h-0.9v-3.6
			c0-1.2-0.6-1.9-1.7-1.9c-1.1,0-1.9,0.8-1.9,1.9V134.5z"/>
		<path class="st7" d="M305,134.5h-0.9v-6.2h0.9v1.1c0.4-0.7,1.1-1.2,2.1-1.2c1.5,0,2.4,1,2.4,2.5v3.8h-0.9v-3.6
			c0-1.2-0.6-1.9-1.7-1.9c-1.1,0-1.9,0.8-1.9,1.9V134.5z"/>
		<path class="st7" d="M311.5,126.9v-1h1.1v1H311.5z M311.7,134.5v-6.2h0.9v6.2H311.7z"/>
		<path class="st7" d="M315.7,134.5h-1v-6.2h0.9v1.1c0.4-0.7,1.1-1.2,2.1-1.2c1.5,0,2.4,1,2.4,2.5v3.8h-0.9v-3.6
			c0-1.2-0.6-1.9-1.7-1.9c-1.1,0-1.9,0.8-1.9,1.9v3.6L315.7,134.5L315.7,134.5z"/>
		<path class="st7" d="M324.9,136.4c-1,0-2-0.3-2.8-0.9l0.4-0.7c0.7,0.5,1.5,0.8,2.4,0.8c1.4,0,2.3-0.8,2.3-2.2v-0.7
			c-0.5,0.7-1.3,1.3-2.4,1.3c-1.5,0-2.9-1.1-2.9-2.9s1.4-2.9,2.9-2.9c1.2,0,1.9,0.6,2.4,1.2v-1.1h0.9v5.1
			C328,135.4,326.8,136.4,324.9,136.4z M324.9,128.9c-1.2,0-2.1,0.8-2.1,2.1s1,2.1,2.1,2.1c1.2,0,2.3-0.8,2.3-2.1
			C327,129.8,326,128.9,324.9,128.9z"/>
		<path class="st9" d="M239.4,149c-2.4,0-4.2-1.9-4.2-4.3s1.8-4.4,4.2-4.4c1.5,0,2.4,0.5,3.3,1.3l-0.6,0.7c-0.7-0.7-1.5-1.2-2.6-1.2
			c-1.9,0-3.3,1.5-3.3,3.5s1.4,3.5,3.3,3.5c1.2,0,1.9-0.4,2.7-1.2l0.6,0.6C241.9,148.4,240.9,149,239.4,149z"/>
		<path class="st9" d="M245.2,148.9h-0.9v-8.8h0.9v3.6c0.4-0.7,1.1-1.2,2.1-1.2c1.5,0,2.4,1,2.4,2.5v3.8h-0.9v-3.6
			c0-1.2-0.6-1.9-1.7-1.9c-1.1,0-1.9,0.8-1.9,1.9L245.2,148.9L245.2,148.9z"/>
		<path class="st9" d="M254.4,148.2c0.9,0,1.5-0.3,2-0.9l0.6,0.5c-0.6,0.7-1.4,1.2-2.6,1.2c-1.7,0-3.1-1.3-3.1-3.2
			c0-1.8,1.3-3.2,3-3.2c1.8,0,2.9,1.5,2.9,3.3c0,0.1,0,0.2,0,0.3h-4.9C252.3,147.4,253.3,148.2,254.4,148.2z M256.2,145.4
			c-0.1-1.1-0.7-2.1-2-2.1c-1.1,0-1.9,0.9-2,2.1H256.2z"/>
		<path class="st9" d="M261.5,149c-1.8,0-3.2-1.5-3.2-3.2c0-1.8,1.4-3.3,3.2-3.3c1.2,0,1.9,0.5,2.5,1.1l-0.6,0.6
			c-0.5-0.5-1-0.9-1.9-0.9c-1.3,0-2.2,1.1-2.2,2.4c0,1.4,1,2.4,2.3,2.4c0.8,0,1.4-0.4,1.9-0.9l0.6,0.6
			C263.5,148.5,262.7,149,261.5,149z"/>
		<path class="st9" d="M271,148.9H270l-2.2-2.9l-1.3,1.3v1.6h-0.9v-8.8h0.9v6l3.3-3.5h1.2l-2.6,2.7L271,148.9z"/>
		<path class="st9" d="M274.9,148.2c0.9,0,1.5-0.3,2-0.9l0.6,0.5c-0.6,0.7-1.4,1.2-2.6,1.2c-1.7,0-3.1-1.3-3.1-3.2
			c0-1.8,1.3-3.2,3-3.2c1.8,0,2.9,1.5,2.9,3.3c0,0.1,0,0.2,0,0.3h-5C272.8,147.4,273.8,148.2,274.9,148.2z M276.7,145.4
			c-0.1-1.1-0.7-2.1-2-2.1c-1.1,0-1.9,0.9-2,2.1H276.7z"/>
		<path class="st9" d="M284.2,148.9v-1.2c-0.5,0.7-1.2,1.4-2.4,1.4c-1.5,0-3-1.2-3-3.2s1.5-3.2,3-3.2c1.2,0,1.9,0.6,2.4,1.3v-3.7
			h0.9v8.8h-0.9V148.9z M282,143.4c-1.2,0-2.2,0.9-2.2,2.4s1,2.4,2.2,2.4s2.2-1,2.2-2.4C284.2,144.3,283.2,143.4,282,143.4z"/>
		<path class="st9" d="M292.2,140.4h0.7v8.5H292v-7.5l-1.6,0.5l-0.2-0.8L292.2,140.4z"/>
		<path class="st9" d="M297.5,149c-1.1,0-1.9-0.4-2.6-1l0.6-0.7c0.7,0.6,1.3,0.9,2.1,0.9c1.5,0,2.5-1.5,2.5-3.7
			c-0.5,0.7-1.2,1.3-2.4,1.3c-1.7,0-2.9-1.1-2.9-2.6c0-1.6,1.2-2.9,3-2.9c1,0,1.7,0.3,2.2,0.9c0.7,0.7,1,1.6,1,3.3
			C301,147.1,299.7,149,297.5,149z M297.8,141.2c-1.3,0-2,0.9-2,2s0.8,1.8,2.1,1.8c1.3,0,2.1-0.9,2.1-1.9
			C299.9,142,299,141.2,297.8,141.2z"/>
		<path class="st9" d="M310,142.5c1.4,0,2.3,1,2.3,2.5v3.8h-0.9v-3.6c0-1.2-0.6-1.9-1.6-1.9c-0.9,0-1.7,0.7-1.7,1.9v3.6h-0.9v-3.6
			c0-1.2-0.6-1.8-1.6-1.8s-1.7,0.8-1.7,2v3.5h-0.9v-6.2h0.9v1c0.4-0.6,1-1.2,2-1.2s1.7,0.5,2,1.2C308.2,143.1,308.9,142.5,310,142.5
			z"/>
		<path class="st9" d="M318.2,143.8l-0.3-0.8c0.7-0.3,1.4-0.5,2.3-0.5c1.7,0,2.6,0.9,2.6,2.5v3.8h-0.9v-0.9
			c-0.4,0.6-1.2,1.1-2.2,1.1c-1.2,0-2.3-0.6-2.3-1.9s1.1-2,2.7-2c0.8,0,1.4,0.1,1.9,0.3v-0.2c0-1.1-0.7-1.7-1.8-1.7
			C319.4,143.4,318.8,143.6,318.2,143.8z M318.2,147c0,0.8,0.7,1.2,1.6,1.2c1.1,0,2.1-0.7,2.1-1.7v-0.6c-0.5-0.1-1.1-0.3-1.8-0.3
			C319,145.7,318.2,146.2,318.2,147z"/>
		<path class="st9" d="M327.5,150.8c-1,0-2-0.3-2.8-0.9l0.4-0.7c0.7,0.5,1.5,0.8,2.4,0.8c1.4,0,2.3-0.8,2.3-2.2v-0.7
			c-0.5,0.7-1.3,1.3-2.4,1.3c-1.5,0-2.9-1.1-2.9-2.9s1.4-2.9,2.9-2.9c1.2,0,1.9,0.6,2.4,1.2v-1.1h0.9v5.1
			C330.7,149.8,329.5,150.8,327.5,150.8z M327.5,143.3c-1.2,0-2.1,0.8-2.1,2.1s1,2.1,2.1,2.1c1.2,0,2.3-0.8,2.3-2.1
			C329.8,144.2,328.7,143.3,327.5,143.3z"/>
		<path class="st9" d="M335.5,149c-1.9,0-3.2-1.5-3.2-3.2c0-1.8,1.4-3.3,3.2-3.3c1.9,0,3.2,1.5,3.2,3.2
			C338.9,147.5,337.5,149,335.5,149z M335.5,143.3c-1.3,0-2.3,1.1-2.3,2.4s1,2.4,2.3,2.4s2.3-1.1,2.3-2.4
			C337.9,144.4,336.9,143.3,335.5,143.3z"/>
	</g>
	<g>
		<path class="st0" d="M393.2,128.3h20v20h-20V128.3z"/>
		<path class="st9" d="M398.2,136.7c-0.9,0-1.7,0.8-1.7,1.7s0.8,1.7,1.7,1.7s1.7-0.8,1.7-1.7S399.2,136.7,398.2,136.7z M408.2,136.7
			c-0.9,0-1.7,0.8-1.7,1.7s0.8,1.7,1.7,1.7s1.7-0.8,1.7-1.7S409.2,136.7,408.2,136.7z M403.2,136.7c-0.9,0-1.7,0.8-1.7,1.7
			s0.8,1.7,1.7,1.7s1.7-0.8,1.7-1.7S404.2,136.7,403.2,136.7z"/>
	</g>
	<path class="st8" d="M212.1,127.2c-6.1,0-11.1,5-11.1,11.1s5,11.1,11.1,11.1s11.1-5,11.1-11.1C223.3,132.2,218.3,127.2,212.1,127.2
		z M210.6,142.5l-4-4l1.1-1.1l2.8,2.8l6-6l1.1,1.1L210.6,142.5z"/>
</g>
</svg>
