<?xml version="1.0" encoding="utf-8"?>
<!-- Generator: Adobe Illustrator 19.1.0, SVG Export Plug-In . SVG Version: 6.00 Build 0)  -->
<svg version="1.1" id="Layer_1" xmlns="http://www.w3.org/2000/svg" xmlns:xlink="http://www.w3.org/1999/xlink" x="0px" y="0px"
	 viewBox="0 0 320 240" style="enable-background:new 0 0 320 240;" xml:space="preserve">
<style type="text/css">
	.st0{fill:#FF9800;}
	.st1{fill:#607D8B;}
	.st2{fill:#78909C;}
</style>
<g>
	<g>
		<path class="st0" d="M48.9,68.7v-5.1h-5.1v5.1H41V56.1h2.8v5h5.1v-5h2.8v12.6H48.9z"/>
		<path class="st0" d="M54.7,68.7V56.1h9.5v2.5h-6.8v2.6h5.9v2.5h-5.9v2.6h6.8v2.5L54.7,68.7L54.7,68.7z"/>
		<path class="st0" d="M76.1,68.7L75,65.9h-5.3l-1.2,2.8h-2.8L71.1,56h2.6L79,68.7H76.1z M72.3,59.3l-1.7,4.1H74L72.3,59.3z"/>
		<path class="st0" d="M81,68.7V56.1h2.8v10.1H90v2.5H81z"/>
		<path class="st0" d="M96,58.7v10h-2.8v-10h-3.8v-2.6h10.4v2.6C99.8,58.7,96,58.7,96,58.7z"/>
		<path class="st0" d="M109.9,68.7v-5.1h-5.1v5.1H102V56.1h2.8v5h5.1v-5h2.8v12.6H109.9z"/>
		<path class="st0" d="M127,68.9c-3.7,0-6.5-2.9-6.5-6.5l0,0c0-3.6,2.7-6.5,6.6-6.5c2.4,0,3.8,0.8,5,1.9l-1.8,2
			c-1-0.9-2-1.4-3.2-1.4c-2.1,0-3.7,1.8-3.7,3.9l0,0c0,2.2,1.5,4,3.7,4c1.4,0,2.3-0.6,3.3-1.5l1.8,1.8
			C130.8,68.1,129.4,68.9,127,68.9z"/>
		<path class="st0" d="M142.2,68.7v-5.1h-5.1v5.1h-2.8V56.1h2.8v5h5.1v-5h2.8v12.6H142.2z"/>
		<path class="st0" d="M148,68.7V56.1h9.5v2.5h-6.8v2.6h5.9v2.5h-5.9v2.6h6.8v2.5L148,68.7L148,68.7z"/>
		<path class="st0" d="M166,68.9c-3.7,0-6.5-2.9-6.5-6.5l0,0c0-3.6,2.7-6.5,6.6-6.5c2.4,0,3.8,0.8,5,1.9l-1.8,2
			c-1-0.9-2-1.4-3.2-1.4c-2.1,0-3.7,1.8-3.7,3.9l0,0c0,2.2,1.5,4,3.7,4c1.4,0,2.3-0.6,3.3-1.5l1.8,1.8
			C169.9,68.1,168.4,68.9,166,68.9z"/>
		<path class="st0" d="M181.5,68.7l-3.9-5.4l-1.5,1.5v3.9h-2.8V56.1h2.8v5.5l5.1-5.5h3.3l-5.1,5.3l5.4,7.3H181.5z"/>
	</g>
</g>
<g>
	<g>
		<g>
			<rect x="111" y="85" class="st1" width="3" height="17"/>
		</g>
		<g>
			<g>
				<polygon class="st1" points="103,94.7 104.7,93.1 112.2,101.3 119.8,93.1 121.4,94.7 112.2,104.6 				"/>
			</g>
		</g>
	</g>
</g>
<g>
	<path class="st1" d="M60,204.7v-12.6h2.8v12.6H60z"/>
	<path class="st1" d="M74.7,204.7l-6.1-8v8h-2.7v-12.6h2.6l5.9,7.8v-7.8h2.7v12.6H74.7z"/>
	<path class="st1" d="M84.6,204.9c-1.9,0-3.8-0.7-5.3-2l1.6-2c1.1,0.9,2.3,1.5,3.8,1.5c1.1,0,1.8-0.5,1.8-1.2l0,0
		c0-0.7-0.4-1.1-2.5-1.6c-2.5-0.6-4.2-1.3-4.2-3.9l0,0c0-2.3,1.8-3.8,4.4-3.8c1.8,0,3.4,0.6,4.7,1.6l-1.4,2.1
		c-1.1-0.8-2.2-1.2-3.3-1.2c-1.1,0-1.6,0.5-1.6,1.1l0,0c0,0.8,0.5,1.1,2.7,1.7c2.6,0.7,4,1.6,4,3.8l0,0
		C89.2,203.5,87.3,204.9,84.6,204.9z"/>
	<path class="st1" d="M97.1,194.7v10h-2.8v-10h-3.8v-2.6h10.4v2.6H97.1z"/>
	<path class="st1" d="M110.8,204.7l-1.2-2.8h-5.3l-1.2,2.8h-2.8l5.4-12.7h2.6l5.4,12.7H110.8z M107,195.3l-1.7,4.1h3.3L107,195.3z"
		/>
	<path class="st1" d="M124.5,204.7l-6.1-8v8h-2.7v-12.6h2.6l5.9,7.8v-7.8h2.7v12.6H124.5z"/>
	<path class="st1" d="M135.7,204.9c-3.7,0-6.5-2.9-6.5-6.5l0,0c0-3.6,2.7-6.5,6.6-6.5c2.4,0,3.8,0.8,5,1.9l-1.8,2
		c-1-0.9-2-1.4-3.2-1.4c-2.1,0-3.7,1.8-3.7,3.9l0,0c0,2.2,1.5,4,3.7,4c1.4,0,2.3-0.6,3.3-1.5l1.8,1.8
		C139.6,204.1,138.2,204.9,135.7,204.9z"/>
	<path class="st1" d="M143.1,204.7v-12.6h9.5v2.5h-6.8v2.6h5.9v2.5h-5.9v2.6h6.8v2.5h-9.5V204.7z"/>
	<path class="st1" d="M159.7,204.9c-1.9,0-3.8-0.7-5.3-2l1.6-2c1.1,0.9,2.3,1.5,3.8,1.5c1.1,0,1.8-0.5,1.8-1.2l0,0
		c0-0.7-0.4-1.1-2.5-1.6c-2.5-0.6-4.2-1.3-4.2-3.9l0,0c0-2.3,1.8-3.8,4.4-3.8c1.8,0,3.4,0.6,4.7,1.6l-1.4,2.1
		c-1.1-0.8-2.2-1.2-3.3-1.2s-1.6,0.5-1.6,1.1l0,0c0,0.8,0.5,1.1,2.7,1.7c2.6,0.7,4,1.6,4,3.8l0,0
		C164.3,203.5,162.4,204.9,159.7,204.9z"/>
</g>
<g>
	<path class="st1" d="M77.2,239.4c-1.9,0-3.8-0.7-5.3-2l1.6-2c1.1,0.9,2.3,1.5,3.8,1.5c1.1,0,1.8-0.5,1.8-1.2l0,0
		c0-0.7-0.4-1.1-2.5-1.6c-2.5-0.6-4.2-1.3-4.2-3.9l0,0c0-2.3,1.8-3.8,4.4-3.8c1.8,0,3.4,0.6,4.7,1.6l-1.4,2.1
		c-1.1-0.8-2.2-1.2-3.3-1.2c-1.1,0-1.6,0.5-1.6,1.1l0,0c0,0.8,0.5,1.1,2.7,1.7c2.6,0.7,4,1.6,4,3.8l0,0
		C81.8,238,79.9,239.4,77.2,239.4z"/>
	<path class="st1" d="M84.2,239.2v-12.6h9.5v2.5H87v2.6h5.9v2.5H87v2.6h6.8v2.5h-9.6C84.2,239.3,84.2,239.2,84.2,239.2z"/>
	<path class="st1" d="M103.9,239.2l-2.7-4H99v4h-2.8v-12.6h5.8c3,0,4.8,1.6,4.8,4.2l0,0c0,2-1.1,3.3-2.7,3.9l3.1,4.5L103.9,239.2
		L103.9,239.2z M104,230.9c0-1.2-0.8-1.8-2.2-1.8H99v3.6h2.8C103.2,232.7,104,232,104,230.9L104,230.9z"/>
	<path class="st1" d="M115.4,239.3H113l-5.1-12.7h3.1l3.3,8.9l3.3-8.9h3L115.4,239.3z"/>
	<path class="st1" d="M122.6,239.2v-12.6h2.8v12.6H122.6z"/>
	<path class="st1" d="M134.4,239.4c-3.7,0-6.5-2.9-6.5-6.5l0,0c0-3.6,2.7-6.5,6.6-6.5c2.4,0,3.8,0.8,5,1.9l-1.8,2
		c-1-0.9-2-1.4-3.2-1.4c-2.1,0-3.7,1.8-3.7,3.9l0,0c0,2.2,1.5,4,3.7,4c1.4,0,2.3-0.6,3.3-1.5l1.8,1.8
		C138.3,238.6,136.8,239.4,134.4,239.4z"/>
	<path class="st1" d="M141.8,239.2v-12.6h9.5v2.5h-6.8v2.6h5.9v2.5h-5.9v2.6h6.8v2.5h-9.5V239.2z"/>
</g>
<path class="st0" d="M112.8,0.1c-4.5,0-8.7,1.2-12.3,3.3c-7.6,4-12.8,12-12.8,21.2s5.3,17.2,12.8,21.2c3.6,2.1,7.8,3.3,12.3,3.3
	c13.5,0,24.5-11,24.5-24.5S126.3,0.1,112.8,0.1z M112.8,46.1c-0.4,0-0.7,0-1.1-0.1V35.3l-1.8,1.9c-0.6,0.6-1.4,0.9-2.1,0.9
	s-1.5-0.3-2.1-0.9l-8.8-8.8c-0.6-0.6-0.9-1.3-0.9-2.1s0.3-1.6,0.9-2.1l2.2-2.2c0.6-0.6,1.3-0.9,2.1-0.9s1.5,0.3,2.1,0.9l4.4,4.4l4-4
	V3.2c0.4,0,0.7-0.1,1.1-0.1c11.9,0,21.5,9.6,21.5,21.5S124.7,46.1,112.8,46.1z"/>
<g>
	<polygon class="st0" points="124.3,14.1 111.8,26.6 107.7,30.6 101.2,24.1 99,26.3 107.7,35.1 111.8,31.1 126.5,16.3 	"/>
</g>
<g>
	<g>
		<g>
			<rect x="234" y="160" class="st1" width="17" height="3"/>
		</g>
		<g>
			<g>
				<polygon class="st1" points="241.1,152.4 242.7,154 234.6,161.6 242.7,169.1 241.1,170.8 231.2,161.6 				"/>
			</g>
		</g>
	</g>
</g>
<g>
	<path class="st2" d="M111.8,186.1c-13.5,0-24.5-11-24.5-24.5s11-24.5,24.5-24.5s24.5,11,24.5,24.5S125.3,186.1,111.8,186.1z
		 M111.8,140.1c-11.9,0-21.5,9.6-21.5,21.5s9.6,21.5,21.5,21.5s21.5-9.6,21.5-21.5S123.7,140.1,111.8,140.1z"/>
</g>
<g>
	<path class="st2" d="M51.8,186.1c-13.5,0-24.5-11-24.5-24.5s11-24.5,24.5-24.5s24.5,11,24.5,24.5S65.3,186.1,51.8,186.1z
		 M51.8,140.1c-11.9,0-21.5,9.6-21.5,21.5s9.6,21.5,21.5,21.5s21.5-9.6,21.5-21.5S63.7,140.1,51.8,140.1z"/>
</g>
<circle class="st1" cx="51.8" cy="161.6" r="13"/>
<circle class="st1" cx="111.8" cy="161.6" r="13"/>
<g>
	<path class="st2" d="M171.8,186.1c-13.5,0-24.5-11-24.5-24.5s11-24.5,24.5-24.5s24.5,11,24.5,24.5S185.3,186.1,171.8,186.1z
		 M171.8,140.1c-11.9,0-21.5,9.6-21.5,21.5s9.6,21.5,21.5,21.5s21.5-9.6,21.5-21.5S183.7,140.1,171.8,140.1z"/>
</g>
<circle class="st1" cx="171.8" cy="161.6" r="13"/>
<g>
	<path class="st1" d="M289.8,186.1c-13.5,0-24.5-11-24.5-24.5s11-24.5,24.5-24.5s24.5,11,24.5,24.5S303.3,186.1,289.8,186.1z
		 M289.8,140.1c-11.9,0-21.5,9.6-21.5,21.5s9.6,21.5,21.5,21.5s21.5-9.6,21.5-21.5S301.7,140.1,289.8,140.1z"/>
</g>
<circle class="st1" cx="289.8" cy="161.6" r="13"/>
<g>
	<path class="st1" d="M165.7,220.6h-0.2v-3h0.2c1.9,0,3.7-0.1,5.6-0.3l0.3,3C169.7,220.5,167.7,220.6,165.7,220.6z M159.5,220.6h-6
		v-3h6V220.6z M147.5,220.6h-6v-3h6V220.6z M135.5,220.6h-6v-3h6V220.6z M123.5,220.6h-6v-3h6V220.6z M111.5,220.6h-6v-3h6V220.6z
		 M99.5,220.6h-6v-3h6V220.6z M87.5,220.6h-6v-3h6V220.6z M75.5,220.6h-6v-3h6V220.6z M63.5,220.6h-6v-3h6V220.6z M51.3,220.3
		c-2-0.2-4.1-0.6-6.1-1l0.7-2.9c1.9,0.4,3.8,0.8,5.7,1L51.3,220.3z M177.7,219.2l-0.7-2.9c1.9-0.5,3.7-1,5.6-1.7l1.1,2.8
		C181.7,218.1,179.7,218.7,177.7,219.2z M39.3,217.5c-1.9-0.7-3.8-1.5-5.7-2.5l1.4-2.7c1.7,0.9,3.5,1.7,5.3,2.3L39.3,217.5z
		 M189.2,214.8l-1.4-2.7c1.7-0.9,3.4-1.9,5-3l1.7,2.5C192.8,212.8,191.1,213.9,189.2,214.8z M28.3,212c-1.7-1.1-3.4-2.4-4.9-3.7
		l2-2.3c1.5,1.3,3,2.5,4.6,3.5L28.3,212z M199.4,207.8l-2-2.2c1.4-1.3,2.8-2.7,4.1-4.1l2.2,2C202.4,205,200.9,206.5,199.4,207.8z
		 M19,203.9c-1.4-1.5-2.7-3.1-3.9-4.8l2.4-1.7c1.1,1.6,2.3,3.1,3.6,4.5L19,203.9z M207.6,198.6l-2.5-1.7c1.1-1.6,2.1-3.3,3-5
		l2.7,1.4C209.9,195.2,208.8,197,207.6,198.6z M11.8,193.8c-1-1.8-1.9-3.7-2.6-5.6l2.8-1.1c0.7,1.8,1.5,3.6,2.5,5.3L11.8,193.8z
		 M213.4,187.7l-2.8-1.1c0.7-1.8,1.3-3.7,1.7-5.5l2.9,0.7C214.7,183.8,214.1,185.8,213.4,187.7z M7.3,182.4c-0.5-2-0.9-4-1.2-6.1
		l3-0.4c0.3,1.9,0.6,3.8,1.1,5.7L7.3,182.4z M216.3,175.8l-3-0.4c0.2-1.9,0.3-3.9,0.3-5.8c0-0.4,0-0.7,0-1.1l3-0.1
		c0,0.4,0,0.8,0,1.1C216.7,171.7,216.6,173.7,216.3,175.8z M5.7,170.2v-0.6c0-1.9,0.1-3.8,0.3-5.6l3,0.3c-0.2,1.7-0.3,3.5-0.3,5.3
		v0.5L5.7,170.2z M213.2,162.7c-0.3-1.9-0.7-3.8-1.2-5.7l2.9-0.8c0.5,2,1,4,1.2,6L213.2,162.7z M10,158.6l-2.9-0.7
		c0.5-2,1.1-4,1.8-5.9l2.8,1C11,154.8,10.4,156.7,10,158.6z M210.2,151.5c-0.7-1.8-1.6-3.5-2.5-5.2l2.6-1.5c1,1.8,1.9,3.7,2.7,5.6
		L210.2,151.5z M14,147.7l-2.7-1.4c0.9-1.8,2-3.6,3.2-5.3l2.5,1.7C15.9,144.3,14.9,146,14,147.7z M204.6,141.4
		c-1.1-1.6-2.4-3.1-3.7-4.5l2.2-2c1.4,1.5,2.7,3.1,3.9,4.8L204.6,141.4z M20.5,138.1l-2.3-2c1.4-1.5,2.8-3,4.3-4.4l2,2.2
		C23.2,135.2,21.8,136.6,20.5,138.1z M196.7,132.9c-1.5-1.2-3-2.4-4.7-3.5l1.6-2.5c1.7,1.1,3.4,2.4,5,3.7L196.7,132.9z M29.1,130.3
		l-1.7-2.5c1.7-1.2,3.4-2.3,5.3-3.2l1.4,2.6C32.4,128.2,30.7,129.2,29.1,130.3z M187,126.5c-1.7-0.9-3.5-1.6-5.4-2.2l1-2.8
		c1.9,0.7,3.9,1.5,5.7,2.4L187,126.5z M39.4,124.8l-1.1-2.8c1.9-0.7,3.9-1.4,5.9-1.9l0.7,2.9C43,123.5,41.2,124.1,39.4,124.8z
		 M176,122.7c-1.9-0.4-3.8-0.7-5.7-0.9l0.3-3c2,0.2,4.1,0.5,6.1,0.9L176,122.7z M50.6,122l-0.4-3c2-0.3,4.1-0.4,6.2-0.4v3
		C54.5,121.6,52.5,121.7,50.6,122z M164.4,121.6h-6v-3h6V121.6z M152.4,121.6h-6v-3h6V121.6z M140.4,121.6h-6v-3h6V121.6z
		 M128.4,121.6h-6v-3h6V121.6z M116.4,121.6h-6v-3h6V121.6z M104.4,121.6h-6v-3h6V121.6z M92.4,121.6h-6v-3h6V121.6z M80.4,121.6h-6
		v-3h6V121.6z M68.4,121.6h-6v-3h6V121.6z"/>
</g>
</svg>
