<?xml version="1.0" encoding="utf-8"?>
<!-- Generator: Adobe Illustrator 19.1.0, SVG Export Plug-In . SVG Version: 6.00 Build 0)  -->
<svg version="1.1" id="Layer_1" xmlns="http://www.w3.org/2000/svg" xmlns:xlink="http://www.w3.org/1999/xlink" x="0px" y="0px"
	 viewBox="148 -123 320 320" style="enable-background:new 148 -123 320 320;" xml:space="preserve">
<style type="text/css">
	.st0{fill:#424242;}
	.st1{fill:#FFFFFF;}
	.st2{fill:#212121;}
	.st3{fill:#E53935;}
</style>
<path d="M457.1,83.5c0,7.5-6.1,13.6-13.6,13.6H170.7c-7.5,0-13.6-6.1-13.6-13.6v-190.9c0-7.5,6.1-13.6,13.6-13.6h272.7
	c7.5,0,13.6,6.1,13.6,13.6V83.5z"/>
<path class="st0" d="M441.7-99c0-3.7-3-6.7-6.7-6.7H179.4c-3.7,0-6.7,3-6.7,6.7V64.7c0,3.7,3,6.7,6.7,6.7h255.5c3.7,0,6.7-3,6.7-6.7
	V-99z"/>
<g>
	<path class="st1" d="M187.2-82.1v-1.5h2.4v-4.7h-2.4v-1.5h4.3v6.2h2.4v1.5H187.2z M190.7-91c-0.4,0-0.7-0.1-1-0.2
		c-0.3-0.1-0.4-0.3-0.4-0.7V-92c0-0.3,0.1-0.5,0.4-0.7c0.3-0.1,0.6-0.2,1-0.2s0.7,0.1,1,0.2c0.3,0.1,0.4,0.4,0.4,0.7v0.1
		c0,0.3-0.1,0.5-0.4,0.7C191.4-91,191.1-91,190.7-91z"/>
	<path class="st1" d="M198-82.1v-6.2h-2.1v-1.5h2.1v-0.5c0-0.8,0.3-1.3,0.9-1.8c0.6-0.4,1.3-0.6,2.2-0.6c0.4,0,0.7,0,1.1,0.1
		c0.3,0.1,0.6,0.1,0.9,0.2l-0.3,1.3c-0.2-0.1-0.5-0.1-0.8-0.2c-0.3,0-0.5-0.1-0.8-0.1c-0.4,0-0.7,0.1-1,0.3
		c-0.2,0.2-0.4,0.5-0.4,0.8v0.4h3v1.5h-3v6.2H198z"/>
	<path class="st1" d="M220.8-83.8c-0.3,0.7-0.7,1.2-1.2,1.5c-0.5,0.3-1.3,0.4-2.3,0.4c-1,0-1.9-0.2-2.5-0.7s-1-1.2-1-2.2v-2
		c0-1,0.3-1.7,0.9-2.2c0.6-0.5,1.5-0.8,2.5-0.8c1.1,0,1.9,0.3,2.5,0.8s0.9,1.3,0.9,2.2v1.3h-5v0.7c0,0.5,0.1,0.9,0.4,1.1
		s0.7,0.4,1.2,0.4c0.5,0,0.9-0.1,1.1-0.2c0.3-0.1,0.5-0.4,0.7-0.8L220.8-83.8z M215.8-87v0.4h3.1v-0.3c0-0.6-0.1-1-0.4-1.3
		c-0.2-0.2-0.6-0.4-1.2-0.4s-0.9,0.1-1.2,0.4C215.9-87.9,215.8-87.5,215.8-87z"/>
	<path class="st1" d="M223.2-82.1v-7.6h1.9v1.3h0.4c0.2-0.5,0.5-0.9,0.9-1.1c0.4-0.2,0.8-0.3,1.4-0.3c0.6,0,1.1,0.2,1.5,0.6
		c0.4,0.4,0.5,0.9,0.5,1.6v1.3H228v-0.7c0-0.4-0.1-0.7-0.3-0.9c-0.2-0.2-0.5-0.3-0.8-0.3c-0.3,0-0.7,0.1-1,0.2
		c-0.3,0.2-0.6,0.4-0.8,0.8v5.2H223.2z"/>
	<path class="st1" d="M232.1-82.1v-7.6h1.9v1.3h0.4c0.2-0.5,0.5-0.9,0.9-1.1c0.4-0.2,0.8-0.3,1.4-0.3c0.6,0,1.1,0.2,1.5,0.6
		c0.4,0.4,0.5,0.9,0.5,1.6v1.3h-1.8v-0.7c0-0.4-0.1-0.7-0.3-0.9c-0.2-0.2-0.5-0.3-0.8-0.3c-0.3,0-0.7,0.1-1,0.2
		c-0.3,0.2-0.6,0.4-0.8,0.8v5.2H232.1z"/>
	<path class="st1" d="M253-81.9c-0.5,0-0.9-0.1-1.2-0.3s-0.4-0.4-0.4-0.8v-0.4c0-0.4,0.1-0.6,0.4-0.8c0.3-0.2,0.6-0.3,1.2-0.3
		s0.9,0.1,1.2,0.3c0.3,0.2,0.4,0.5,0.4,0.8v0.4c0,0.4-0.1,0.6-0.4,0.8S253.5-81.9,253-81.9z M252.1-85.9l-0.4-6.4h2.4l-0.4,6.4
		H252.1z"/>
	<path class="st1" d="M258.2-87.6v-1.7h7.3v1.7H258.2z M258.2-83.8v-1.7h7.3v1.7H258.2z"/>
	<path class="st1" d="M276.2-82.1v-7.6h1.9v1.3h0.4c0.2-0.5,0.5-0.8,0.9-1.1s0.9-0.4,1.4-0.4c0.7,0,1.2,0.2,1.6,0.7
		c0.4,0.4,0.6,1,0.6,1.8v5.3h-1.9v-5c0-0.4-0.1-0.7-0.3-0.9s-0.5-0.3-0.8-0.3c-0.3,0-0.7,0.1-1,0.3s-0.7,0.5-0.9,0.8v5.1H276.2z"/>
	<path class="st1" d="M285.2-82.1v-1.5h2.4v-4.7h-2.4v-1.5h4.3v6.2h2.4v1.5H285.2z M288.7-91c-0.4,0-0.7-0.1-1-0.2
		c-0.3-0.1-0.4-0.3-0.4-0.7V-92c0-0.3,0.1-0.5,0.4-0.7c0.3-0.1,0.6-0.2,1-0.2s0.7,0.1,1,0.2c0.3,0.1,0.4,0.4,0.4,0.7v0.1
		c0,0.3-0.1,0.5-0.4,0.7C289.4-91,289.1-91,288.7-91z"/>
	<path class="st1" d="M294.2-82.1v-1.5h2.5v-7.3h-2.5v-1.5h4.4v8.7h2.4v1.5H294.2z"/>
</g>
<path class="st2" d="M421.6,162.2c-10.5-27.6-28.2-34-42.4-36.6c-11.9-2.1-26.7-6.6-32-9.5c-0.2-2.4-0.3-7.2,0.2-15.2
	c0.3-0.3,0.6-0.6,0.9-1l-0.2-0.1c7-9.4,10.4-18.3,11.9-24.3c4.5-3.2,9.3-9.4,12.1-21.5c1.6-7,2.8-15.8-2.2-22.2
	c-0.1-0.2-0.2-0.3-0.4-0.4c4.5-44.3-23.9-66.7-40.6-72.6l-0.2-0.1l-0.2-0.1c-6.3-1.9-12.4-2.9-18-2.9c-1.3,0-2.6,0.1-3.8,0.2
	c-1.2-0.1-2.5-0.2-3.7-0.2c-5.6,0-11.7,1-18,2.9l-0.2,0.1l-0.2,0.1c-16.7,5.8-45.1,28.2-40.6,72.6c-0.1,0.2-0.2,0.3-0.4,0.4
	c-5,6.3-3.8,15.2-2.2,22.2c2.8,12.1,7.6,18.3,12.1,21.5c1.5,5.9,4.8,14.7,11.7,24v0c0,0,0.1,0.1,0.1,0.1c0.4,0.5,0.7,1,1.1,1.6
	c0.4,7.6,0.4,12.3,0.2,14.8c-5.3,2.9-20.1,7.3-31.9,9.4c-14.3,2.5-32,9-42.4,36.6c-1.8,4.7-1.1,9.8,1.7,13.9
	c10.7,15.6,67.3,18.8,112.9,18.8s102.2-3.3,112.9-18.8C422.7,172,423.3,166.9,421.6,162.2z M277.2,121.8c0.7-1.9,1-5.5,1-9.5
	c6.8,5.1,15.9,9.9,26.8,10.4c0.6,0,1.2,0.1,1.8,0.1c9.9,0,19.5-3.7,28.8-10.7c0,4.1,0.3,7.8,1,9.8c1.1,3,7.6,6,15.3,8.6
	c-11.2,11-27.2,17.9-45.1,17.9c-17.9,0-33.9-7-45.1-17.9C269.5,127.8,276,124.8,277.2,121.8z"/>
<g>
	<g id="Pads_2_">
		<g>
			<path d="M239.7,20.2c-2.6,0-4.8,2.1-4.8,4.8v38.2c0,2.6,2.1,4.8,4.8,4.8c2.6,0,4.8-2.1,4.8-4.8V24.9
				C244.5,22.3,242.3,20.2,239.7,20.2z M374.1,20.2c-2.6,0-4.8,2.1-4.8,4.8v38.2c0,2.6,2.1,4.8,4.8,4.8c2.6,0,4.8-2.1,4.8-4.8V24.9
				C378.9,22.3,376.8,20.2,374.1,20.2z"/>
		</g>
	</g>
	<g id="Frame_7_">
		<g>
			<path class="st3" d="M388.4,17.6c0,0,1.8-66.4-81.3-66.4s-81.7,66.4-81.7,66.4c-6.7,2.9-9.6,7.3-9.6,26.4
				c0,25.9,19.1,23.9,19.1,23.9V15.4c0,0,2.3-56.7,72.2-56.7s71.8,56.7,71.8,56.7v52.5c0,0,19.1,2,19.1-23.9
				C398,24.9,395.1,20.5,388.4,17.6z"/>
		</g>
	</g>
</g>
</svg>
