<?xml version="1.0" encoding="utf-8"?>
<!-- Generator: Adobe Illustrator 19.0.0, SVG Export Plug-In . SVG Version: 6.00 Build 0)  -->
<svg version="1.1" id="Layer_1" xmlns="http://www.w3.org/2000/svg" xmlns:xlink="http://www.w3.org/1999/xlink" x="0px" y="0px"
	 viewBox="-139.3 277.1 308.6 246.3" style="enable-background:new -139.3 277.1 308.6 246.3;" xml:space="preserve">
<style type="text/css">
	.st0{fill:#FF9800;}
	.st1{fill:#607D8B;}
	.st2{fill:#78909C;}
</style>
<g>
	<g>
		<path class="st0" d="M-96.1,345.7v-5.1h-5.1v5.1h-2.8v-12.6h2.8v5h5.1v-5h2.8v12.6H-96.1z"/>
		<path class="st0" d="M-90.3,345.7v-12.6h9.5v2.5h-6.8v2.6h5.9v2.5h-5.9v2.6h6.8v2.5L-90.3,345.7L-90.3,345.7z"/>
		<path class="st0" d="M-68.9,345.7l-1.1-2.8h-5.3l-1.2,2.8h-2.8l5.4-12.7h2.6l5.3,12.7H-68.9z M-72.7,336.3l-1.7,4.1h3.4
			L-72.7,336.3z"/>
		<path class="st0" d="M-64,345.7v-12.6h2.8v10.1h6.2v2.5H-64z"/>
		<path class="st0" d="M-49,335.7v10h-2.8v-10h-3.8v-2.6h10.4v2.6C-45.2,335.7-49,335.7-49,335.7z"/>
		<path class="st0" d="M-35.1,345.7v-5.1h-5.1v5.1H-43v-12.6h2.8v5h5.1v-5h2.8v12.6H-35.1z"/>
		<path class="st0" d="M-18,345.9c-3.7,0-6.5-2.9-6.5-6.5l0,0c0-3.6,2.7-6.5,6.6-6.5c2.4,0,3.8,0.8,5,1.9l-1.8,2
			c-1-0.9-2-1.4-3.2-1.4c-2.1,0-3.7,1.8-3.7,3.9l0,0c0,2.2,1.5,4,3.7,4c1.4,0,2.3-0.6,3.3-1.5l1.8,1.8
			C-14.2,345.1-15.6,345.9-18,345.9z"/>
		<path class="st0" d="M-2.8,345.7v-5.1h-5.1v5.1h-2.8v-12.6h2.8v5h5.1v-5H0v12.6H-2.8z"/>
		<path class="st0" d="M3,345.7v-12.6h9.5v2.5H5.7v2.6h5.9v2.5H5.7v2.6h6.8v2.5L3,345.7L3,345.7z"/>
		<path class="st0" d="M21,345.9c-3.7,0-6.5-2.9-6.5-6.5l0,0c0-3.6,2.7-6.5,6.6-6.5c2.4,0,3.8,0.8,5,1.9l-1.8,2
			c-1-0.9-2-1.4-3.2-1.4c-2.1,0-3.7,1.8-3.7,3.9l0,0c0,2.2,1.5,4,3.7,4c1.4,0,2.3-0.6,3.3-1.5l1.8,1.8
			C24.9,345.1,23.4,345.9,21,345.9z"/>
		<path class="st0" d="M36.5,345.7l-3.9-5.4l-1.5,1.5v3.9h-2.8v-12.6h2.8v5.5l5.1-5.5h3.3l-5.1,5.3l5.4,7.3H36.5z"/>
	</g>
</g>
<g>
	<g>
		<g>
			<rect x="-34" y="362" class="st1" width="3" height="17"/>
		</g>
		<g>
			<g>
				<polygon class="st1" points="-42,371.7 -40.3,370.1 -32.8,378.3 -25.2,370.1 -23.6,371.7 -32.8,381.6 				"/>
			</g>
		</g>
	</g>
</g>
<g>
	<path class="st1" d="M-67.7,523.4c-1.9,0-3.8-0.7-5.3-2l1.6-2c1.1,0.9,2.3,1.5,3.8,1.5c1.1,0,1.8-0.5,1.8-1.2l0,0
		c0-0.7-0.4-1.1-2.5-1.6c-2.5-0.6-4.2-1.3-4.2-3.9l0,0c0-2.3,1.8-3.8,4.4-3.8c1.8,0,3.4,0.6,4.7,1.6l-1.4,2.1
		c-1.1-0.8-2.2-1.2-3.3-1.2c-1.1,0-1.6,0.5-1.6,1.1l0,0c0,0.8,0.5,1.1,2.7,1.7c2.6,0.7,4,1.6,4,3.8l0,0
		C-63.1,522-65,523.4-67.7,523.4z"/>
	<path class="st1" d="M-60.7,523.2v-12.6h9.5v2.5h-6.7v2.6h5.9v2.5h-5.9v2.6h6.8v2.5L-60.7,523.2C-60.7,523.3-60.7,523.2-60.7,523.2
		z"/>
	<path class="st1" d="M-41,523.2l-2.7-4h-2.2v4h-2.8v-12.6h5.8c3,0,4.8,1.6,4.8,4.2l0,0c0,2-1.1,3.3-2.7,3.9l3.1,4.5H-41L-41,523.2z
		 M-40.9,514.9c0-1.2-0.8-1.8-2.2-1.8h-2.8v3.6h2.8C-41.7,516.7-40.9,516-40.9,514.9L-40.9,514.9z"/>
	<path class="st1" d="M-29.5,523.3h-2.4l-5.1-12.7h3.1l3.3,8.9l3.3-8.9h3L-29.5,523.3z"/>
	<path class="st1" d="M-22.3,523.2v-12.6h2.8v12.6H-22.3z"/>
	<path class="st1" d="M-10.5,523.4c-3.7,0-6.5-2.9-6.5-6.5l0,0c0-3.6,2.7-6.5,6.6-6.5c2.4,0,3.8,0.8,5,1.9l-1.8,2
		c-1-0.9-2-1.4-3.2-1.4c-2.1,0-3.7,1.8-3.7,3.9l0,0c0,2.2,1.5,4,3.7,4c1.4,0,2.3-0.6,3.3-1.5l1.8,1.8
		C-6.6,522.6-8.1,523.4-10.5,523.4z"/>
	<path class="st1" d="M-3.1,523.2v-12.6h9.5v2.5h-6.8v2.6h5.9v2.5h-5.9v2.6h6.8v2.5L-3.1,523.2L-3.1,523.2z"/>
</g>
<path class="st0" d="M-32.2,277.1c-4.5,0-8.7,1.2-12.3,3.3c-7.6,4-12.8,12-12.8,21.2s5.3,17.2,12.8,21.2c3.6,2.1,7.8,3.3,12.3,3.3
	c13.5,0,24.5-11,24.5-24.5S-18.7,277.1-32.2,277.1z M-32.2,323.1c-0.4,0-0.7,0-1.1-0.1v-10.7l-1.8,1.9c-0.6,0.6-1.4,0.9-2.1,0.9
	s-1.5-0.3-2.1-0.9l-8.8-8.8c-0.6-0.6-0.9-1.3-0.9-2.1c0-0.8,0.3-1.6,0.9-2.1l2.2-2.2c0.6-0.6,1.3-0.9,2.1-0.9s1.5,0.3,2.1,0.9
	l4.4,4.4l4-4v-19.2c0.4,0,0.7-0.1,1.1-0.1c11.9,0,21.5,9.6,21.5,21.5S-20.3,323.1-32.2,323.1z"/>
<g>
	<polygon class="st0" points="-20.7,291.1 -33.2,303.6 -37.3,307.6 -43.8,301.1 -46,303.3 -37.3,312.1 -33.2,308.1 -18.5,293.3 	"/>
</g>
<g>
	<g>
		<g>
			<g>
				<rect x="89" y="445.9" class="st1" width="17" height="3"/>
			</g>
			<g>
				<g>
					<polygon class="st1" points="96.1,438.2 97.7,439.9 89.6,447.5 97.7,455 96.1,456.6 86.2,447.5 					"/>
				</g>
			</g>
		</g>
	</g>
	<g>
		<path class="st1" d="M144.8,472c-13.5,0-24.5-11-24.5-24.5s11-24.5,24.5-24.5s24.5,11,24.5,24.5S158.3,472,144.8,472z M144.8,426
			c-11.9,0-21.5,9.6-21.5,21.5s9.6,21.5,21.5,21.5s21.5-9.6,21.5-21.5S156.7,426,144.8,426z"/>
	</g>
	<circle class="st1" cx="144.8" cy="447.5" r="13"/>
</g>
<g>
	<g>
		<g>
			<path class="st1" d="M-85.1,483.1v-12.6h2.8v12.6H-85.1z"/>
			<path class="st1" d="M-70.4,483.1l-6.1-8v8h-2.7v-12.6h2.6l5.9,7.8v-7.8h2.7v12.6H-70.4z"/>
			<path class="st1" d="M-60.5,483.4c-1.9,0-3.8-0.7-5.3-2l1.6-2c1.1,0.9,2.3,1.5,3.8,1.5c1.1,0,1.8-0.5,1.8-1.2l0,0
				c0-0.7-0.4-1.1-2.5-1.6c-2.5-0.6-4.2-1.3-4.2-3.9l0,0c0-2.3,1.8-3.8,4.4-3.8c1.8,0,3.4,0.6,4.7,1.6l-1.4,2.1
				c-1.1-0.8-2.2-1.2-3.3-1.2c-1.1,0-1.6,0.5-1.6,1.1l0,0c0,0.8,0.5,1.1,2.7,1.7c2.6,0.7,4,1.6,4,3.8l0,0
				C-55.9,482-57.8,483.4-60.5,483.4z"/>
			<path class="st1" d="M-48,473.1v10h-2.8v-10h-3.8v-2.6h10.4v2.6H-48z"/>
			<path class="st1" d="M-34.3,483.1l-1.2-2.8h-5.3l-1.2,2.8h-2.8l5.4-12.7h2.6l5.4,12.7H-34.3z M-38.1,473.8l-1.7,4.1h3.3
				L-38.1,473.8z"/>
			<path class="st1" d="M-20.6,483.1l-6.1-8v8h-2.7v-12.6h2.6l5.9,7.8v-7.8h2.7v12.6H-20.6z"/>
			<path class="st1" d="M-9.4,483.4c-3.7,0-6.5-2.9-6.5-6.5l0,0c0-3.6,2.7-6.5,6.6-6.5c2.4,0,3.8,0.8,5,1.9l-1.8,2
				c-1-0.9-2-1.4-3.2-1.4c-2.1,0-3.7,1.8-3.7,3.9l0,0c0,2.2,1.5,4,3.7,4c1.4,0,2.3-0.6,3.3-1.5l1.8,1.8
				C-5.5,482.6-6.9,483.4-9.4,483.4z"/>
			<path class="st1" d="M-2,483.1v-12.6h9.5v2.5H0.7v2.6h5.9v2.5H0.7v2.6h6.8v2.5H-2V483.1z"/>
			<path class="st1" d="M14.6,483.4c-1.9,0-3.8-0.7-5.3-2l1.6-2c1.1,0.9,2.3,1.5,3.8,1.5c1.1,0,1.8-0.5,1.8-1.2l0,0
				c0-0.7-0.4-1.1-2.5-1.6c-2.5-0.6-4.2-1.3-4.2-3.9l0,0c0-2.3,1.8-3.8,4.4-3.8c1.8,0,3.4,0.6,4.7,1.6l-1.4,2.1
				c-1.1-0.8-2.2-1.2-3.3-1.2s-1.6,0.5-1.6,1.1l0,0c0,0.8,0.5,1.1,2.7,1.7c2.6,0.7,4,1.6,4,3.8l0,0C19.2,482,17.3,483.4,14.6,483.4z
				"/>
		</g>
		<g>
			<path class="st2" d="M-33.3,460.6c-13.5,0-24.5-11-24.5-24.5s11-24.5,24.5-24.5s24.5,11,24.5,24.5S-19.8,460.6-33.3,460.6z
				 M-33.3,414.6c-11.9,0-21.5,9.6-21.5,21.5s9.6,21.5,21.5,21.5s21.5-9.6,21.5-21.5S-21.4,414.6-33.3,414.6z"/>
		</g>
		<g>
			<path class="st2" d="M-93.3,460.6c-13.5,0-24.5-11-24.5-24.5s11-24.5,24.5-24.5s24.5,11,24.5,24.5S-79.8,460.6-93.3,460.6z
				 M-93.3,414.6c-11.9,0-21.5,9.6-21.5,21.5s9.6,21.5,21.5,21.5s21.5-9.6,21.5-21.5S-81.4,414.6-93.3,414.6z"/>
		</g>
		<circle class="st1" cx="-93.3" cy="436.1" r="13"/>
		<circle class="st1" cx="-33.3" cy="436.1" r="13"/>
		<g>
			<path class="st2" d="M26.7,460.6c-13.5,0-24.5-11-24.5-24.5s11-24.5,24.5-24.5s24.5,11,24.5,24.5S40.2,460.6,26.7,460.6z
				 M26.7,414.6c-11.9,0-21.5,9.6-21.5,21.5s9.6,21.5,21.5,21.5s21.5-9.6,21.5-21.5S38.6,414.6,26.7,414.6z"/>
		</g>
		<circle class="st1" cx="26.7" cy="436.1" r="13"/>
	</g>
	<g>
		<path class="st1" d="M20.7,498.5h-0.2v-3h0.2c1.9,0,3.7-0.1,5.6-0.3l0.3,3C24.7,498.4,22.7,498.5,20.7,498.5z M14.5,498.5h-6v-3h6
			V498.5z M2.5,498.5h-6v-3h6V498.5z M-9.5,498.5h-6v-3h6V498.5z M-21.5,498.5h-6v-3h6V498.5z M-33.5,498.5h-6v-3h6V498.5z
			 M-45.5,498.5h-6v-3h6V498.5z M-57.5,498.5h-6v-3h6V498.5z M-69.5,498.5h-6v-3h6V498.5z M-81.5,498.5h-6v-3h6V498.5z M-93.7,498.2
			c-2-0.2-4.1-0.6-6.1-1l0.7-2.9c1.9,0.4,3.8,0.8,5.7,1L-93.7,498.2z M32.7,497.1l-0.7-2.9c1.9-0.5,3.7-1,5.6-1.7l1.1,2.8
			C36.7,496,34.7,496.6,32.7,497.1z M-105.7,495.4c-1.9-0.7-3.8-1.5-5.7-2.5l1.4-2.7c1.7,0.9,3.5,1.7,5.3,2.3L-105.7,495.4z
			 M44.2,492.7l-1.4-2.7c1.7-0.9,3.4-1.9,5-3l1.7,2.5C47.8,490.7,46.1,491.8,44.2,492.7z M-116.7,489.9c-1.7-1.1-3.4-2.4-4.9-3.7
			l2-2.3c1.5,1.3,3,2.5,4.6,3.5L-116.7,489.9z M54.4,485.7l-2-2.2c1.4-1.3,2.8-2.7,4.1-4.1l2.2,2C57.4,482.9,55.9,484.4,54.4,485.7z
			 M-126,481.8c-1.4-1.5-2.7-3.1-3.9-4.8l2.4-1.7c1.1,1.6,2.3,3.1,3.6,4.5L-126,481.8z M62.6,476.5l-2.5-1.7c1.1-1.6,2.1-3.3,3-5
			l2.7,1.4C64.9,473.1,63.8,474.9,62.6,476.5z M-133.2,471.7c-1-1.8-1.9-3.7-2.6-5.6l2.8-1.1c0.7,1.8,1.5,3.6,2.5,5.3L-133.2,471.7z
			 M68.4,465.6l-2.8-1.1c0.7-1.8,1.3-3.7,1.7-5.5l2.9,0.7C69.7,461.7,69.1,463.7,68.4,465.6z M-137.7,460.2c-0.5-2-0.9-4-1.2-6.1
			l3-0.4c0.3,1.9,0.6,3.8,1.1,5.7L-137.7,460.2z M71.3,453.7l-3-0.4c0.2-1.9,0.3-3.9,0.3-5.8c0-0.4,0-0.7,0-1.1l3-0.1
			c0,0.4,0,0.8,0,1.1C71.7,449.6,71.6,451.6,71.3,453.7z M-139.3,448.1v-0.6c0-1.9,0.1-3.8,0.3-5.6l3,0.3c-0.2,1.7-0.3,3.5-0.3,5.3
			v0.5L-139.3,448.1z M68.2,440.6c-0.3-1.9-0.7-3.8-1.2-5.7l2.9-0.8c0.5,2,1,4,1.2,6L68.2,440.6z M-135,436.5l-2.9-0.7
			c0.5-2,1.1-4,1.8-5.9l2.8,1C-134,432.7-134.6,434.6-135,436.5z M65.2,429.4c-0.7-1.8-1.6-3.5-2.5-5.2l2.6-1.5
			c1,1.8,1.9,3.7,2.7,5.6L65.2,429.4z M-131,425.6l-2.7-1.4c0.9-1.8,2-3.6,3.2-5.3l2.5,1.7C-129.1,422.2-130.1,423.9-131,425.6z
			 M59.6,419.2c-1.1-1.6-2.4-3.1-3.7-4.5l2.2-2c1.4,1.5,2.7,3.1,3.9,4.8L59.6,419.2z M-124.5,416l-2.3-2c1.4-1.5,2.8-3,4.3-4.4
			l2,2.2C-121.8,413.1-123.2,414.5-124.5,416z M51.7,410.8c-1.5-1.2-3-2.4-4.7-3.5l1.6-2.5c1.7,1.1,3.4,2.4,5,3.7L51.7,410.8z
			 M-115.9,408.2l-1.7-2.5c1.7-1.2,3.4-2.3,5.3-3.2l1.4,2.6C-112.6,406.1-114.3,407.1-115.9,408.2z M42,404.4
			c-1.7-0.9-3.5-1.6-5.4-2.2l1-2.8c1.9,0.7,3.9,1.5,5.7,2.4L42,404.4z M-105.6,402.7l-1.1-2.8c1.9-0.7,3.9-1.4,5.9-1.9l0.7,2.9
			C-102,401.4-103.8,402-105.6,402.7z M31,400.6c-1.9-0.4-3.8-0.7-5.7-0.9l0.3-3c2,0.2,4.1,0.5,6.1,0.9L31,400.6z M-94.4,399.9
			l-0.4-3c2-0.3,4.1-0.4,6.2-0.4v3C-90.5,399.5-92.5,399.6-94.4,399.9z M19.4,399.5h-6v-3h6V399.5z M7.4,399.5h-6v-3h6V399.5z
			 M-4.6,399.5h-6v-3h6V399.5z M-16.6,399.5h-6v-3h6V399.5z M-28.6,399.5h-6v-3h6V399.5z M-40.6,399.5h-6v-3h6V399.5z M-52.6,399.5
			h-6v-3h6V399.5z M-64.6,399.5h-6v-3h6V399.5z M-76.6,399.5h-6v-3h6V399.5z"/>
	</g>
</g>
</svg>
