<?xml version="1.0" encoding="utf-8"?>
<!-- Generator: Adobe Illustrator 19.1.0, SVG Export Plug-In . SVG Version: 6.00 Build 0)  -->
<svg version="1.1" id="Layer_1" xmlns="http://www.w3.org/2000/svg" xmlns:xlink="http://www.w3.org/1999/xlink" x="0px" y="0px"
	 viewBox="148 -108 320 123" style="enable-background:new 148 -108 320 123;" xml:space="preserve">
<style type="text/css">
	.st0{fill:#01579B;}
	.st1{fill:#201C1D;}
	.st2{fill:#F7A80D;}
</style>
<g>
	<path class="st0" d="M304.5-93.8c0-9.8,2.8-14.2,9-14.2c6.3,0,9,4.4,9,14.2s-2.8,14.2-9,14.2S304.5-84,304.5-93.8z M318.3-93.9
		c0-9.2-2.1-10.8-4.7-10.8s-4.7,1.6-4.7,10.8c0,9.4,2.1,11,4.7,11S318.3-84.5,318.3-93.9z"/>
	<path class="st0" d="M326.2-100.7h3.9v2.4h0.1c1-1.8,3-2.9,5.3-2.9c3.1,0,5.1,1.4,5.1,5.6v15.5h-4.1v-14.1c0-2.7-0.8-3.7-2.9-3.7
		c-1.7,0-3.3,1.3-3.3,4v13.8h-4.1V-100.7z"/>
	<path class="st0" d="M344.8-107.5h4.1v27.3h-4.1V-107.5z"/>
	<path class="st0" d="M355.9-100.7l3.6,15.5h0.1l3.3-15.5h4.3l-5.7,21.4c-1.6,5.6-2.9,6.4-7.2,6.3c-0.5,0-1.1-0.1-1.6-0.2v-3.3
		c0.5,0.1,0.9,0.2,1.3,0.2c1.4,0,2.3-0.3,2.8-1.6l0.5-1.7l-5.9-21h4.5V-100.7z"/>
	<path class="st0" d="M385.5-101.3c6,0,7.7,4.4,7.7,10.8c0,6.4-2,10.8-7.7,10.8s-7.7-4.4-7.7-10.8
		C377.8-96.9,379.5-101.3,385.5-101.3z M385.5-82.7c3,0,3.6-2.5,3.6-7.8c0-4.6-0.5-7.8-3.6-7.8c-3,0-3.5,3.2-3.5,7.8
		C381.9-85.2,382.5-82.7,385.5-82.7z"/>
	<path class="st0" d="M396.3-100.7h3.9v2.4h0.1c1-1.8,3-2.9,5.3-2.9c3.1,0,5.1,1.4,5.1,5.6v15.5h-4.1v-14.1c0-2.7-0.8-3.7-2.9-3.7
		c-1.7,0-3.3,1.3-3.3,4v13.8h-4.1V-100.7z"/>
</g>
<g>
	<rect x="302" y="-76.2" class="st0" width="67" height="1"/>
</g>
<g>
	<path id="path243_3_" class="st1" d="M251.7-61.4c-6.3,0-13.3,2.4-14.7,10.4c-0.2,0.8,0.4,1.2,0.9,1.4l6.4,0.8c0.6,0,1-0.7,1.1-1.3
		c0.5-2.7,2.8-4,5.3-4c1.4,0,2.2,0.5,3,1.7c0.9,1.4,0.2,3.3,0.2,4.9v0.9c-2,0.4-8.2,0.7-11.8,2.3c-4.1,1.8-6.7,5.6-6.7,11.1
		c0,7,4.5,10.5,10,10.5c4.7,0,7.4-1.1,11-4.9c1.2,1.8,1.2,2.6,3.3,4.5c0.5,0.3,1.1,0.2,1.1-0.2v0.1c2-1.2,4.2-3.4,5.5-4.5
		c0.5-0.4,0.4-1.2,0-1.8c-1.2-1.7-2.5-3.1-2.5-6.3v-10.5c0-4.5,0.6-8.6-2.6-11.7C258.9-60.5,255-61.4,251.7-61.4z M338.2-61.4
		c-6.3,0-13.3,2.4-14.7,10.4c-0.2,0.8,0.4,1.2,0.9,1.4l6.4,0.8c0.6,0,1-0.7,1.1-1.3c0.6-2.7,2.8-4,5.3-4c1.4,0,2.5,0.5,3.3,1.7
		c0.9,1.4,0.4,3.3,0.4,4.9v0.9c-3,0.4-8.4,0.7-12,2.3c-4.1,1.8-6.9,5.6-6.9,11.1c0,7,4.4,10.5,9.9,10.5c4.7,0,7.3-1.1,10.9-4.9
		c1.2,1.8,1.4,2.6,3.6,4.5c0.5,0.3,0.4,0.2,1.4-0.2v0.1c1-1.2,3.9-3.4,5.2-4.5c0.5-0.4,0-1.2-0.4-1.8c-1.2-1.7-2.9-3.1-2.9-6.3
		v-10.5c0-4.5,0.8-8.6-2.4-11.7C345-60.5,341.4-61.4,338.2-61.4z M289.6-60.8c-4.1,0-7.1,2.6-8.7,6.6H280v-4.9
		c0-0.6,0.3-0.1-0.4-0.1h-6.2c-0.7,0-1.4-0.5-1.4,0.1v34.7c0,0.6,0.7,2.1,1.4,2.1h6.6c0.7,0,1-1.5,1-2.2v-18.4c0-4,0-9.5,4.8-9.5
		c4.7,0,4.2,5.6,4.2,9.5v18.4c0,0.7,0.3,2.2,1,2.2h6.6c0.7,0,0.4-1.5,0.4-2.2v-18.4c0-2,0.4-4.8,1.1-6.6c0.7-1.8,2.6-2.9,4.2-2.9
		c1.9,0,3.2,0.7,3.7,3c0.3,1.4,0,5.1,0,6.5v18.4c0,0.7,1,2.2,1.7,2.2h6.6c0.7,0,0.7-1.5,0.7-2.2v-21.9c0-3.7,0.7-8-1.4-10.9
		c-1.8-2.6-4.7-3.8-7.5-3.8c-3.9,0-7.4,2.1-9,6.5C296.2-58.9,293.7-60.8,289.6-60.8z M401.8-61c-9.5,0-14.8,8.4-14.8,19.2
		c0,10.7,5.2,19.4,14.8,19.4c9.2,0,15.1-8.4,15.1-19C416.9-52.4,411.6-61,401.8-61z M439.4-61.1c-4.6,0-7.2,2.9-9,6.9H430v-5.1
		c0-0.5-0.3,0.1-0.9,0.1H423c-0.7,0-2-0.6-2,0.1v34.7c0,0.7,1.3,2.2,2,2.2h6.5c0.7,0,0.5-1.5,0.5-2.2v-18.7c0-2.3,0.6-4.5,1.5-6.6
		c0.7-1.7,2-2.7,3.6-2.7c4.5,0,3.9,5.5,3.9,9.3v18.9c0,0.6,1.4,2,2,2h6.6c0.7,0,1.4-1.4,1.4-2v-21.9c0-3.4-0.1-8-1.8-10.8
		C445.4-59.9,442.4-61.1,439.4-61.1L439.4-61.1z M360.2-59.2c-0.7,0-1.2-0.7-1.2,0.1v5c0,0.7,0.5,2,1.2,2h11.3l-13.3,18.8
		c-0.8,1.2-1.2,2.3-1.2,3.1v5.1c0,0.7,1.2,1.5,1.9,1.1c7.4-4,16.5-3.7,23.2-0.1c0.8,0.4,1.9-0.4,1.9-1.1v-5.3c0-0.7-0.5-1.4-1.3-1.9
		c-3.8-2.2-8.2-2.8-12.4-2.7l11.2-16.5c1-1.5,1.6-2.4,1.6-3.1V-59c0-0.7-0.4-0.1-1.1-0.1h-21.8V-59.2z M401.8-53.9
		c2.1,0,3.6,0.9,4.4,3.3c0.9,2.8,0.9,6.2,0.9,9.2c0,4.5-0.2,11.8-5.3,11.8c-5.2,0-5.1-9.1-5.1-13.4
		C396.6-47.2,396.9-53.9,401.8-53.9z M254-41.2v1.5c0,2.6,0.7,4.9-0.6,7.2c-1,1.9-2.4,3.1-4.2,3.1c-2.5,0-4.5-2-4.5-5
		C244.7-40.2,250-41.2,254-41.2z M341-41.2v1.5c0,2.6,0.4,4.9-0.9,7.2c-1,1.9-2.5,3.1-4.4,3.1c-2.5,0-4.3-2-4.3-5
		C331.5-40.2,337-41.2,341-41.2z"/>
	<path id="path257_3_" d="M384-21.2v5h3v-5H384z M287-20.2v35h3v-3.7c1,1.3,1.7,2.2,2.6,2.8s2.1,0.9,3.2,0.9c2.3,0,4.3-1.2,6-3.5
		c1.7-2.4,2.6-5.8,2.6-10.1c0-2.8-0.3-5.2-1.1-7.2c-0.7-2-1.7-3.5-3-4.5c-1.3-1-2.7-1.5-4.2-1.5c-1.1,0-2,0.3-2.9,0.9
		c-0.9,0.6-2.2,1.5-2.2,2.7v-11.8H287z M319.2-12.8c-2.3,0-4.2,0.7-5.5,2.1c-1.3,1.4-2,3.1-2,5.3c0,1.3,0.3,2.3,0.8,3.3
		s1.2,1.8,2.1,2.4c0.9,0.6,2.6,1.4,5.2,2.2c1.8,0.6,2.9,1.1,3.3,1.5c0.7,0.6,1,1.3,1,2.3c0,1.2-0.4,2.2-1.2,2.9
		c-0.8,0.8-1.9,1.1-3.3,1.1S317,9.9,316.1,9c-0.9-0.9-1.3-2.2-1.5-4l-3.3,0.7c0.8,5.5,3.5,8.2,8.2,8.2c2.5,0,4.5-0.7,5.9-2.2
		c1.5-1.5,2.2-3.6,2.2-6c0-1.3-0.2-2.5-0.7-3.4c-0.5-1-1.1-1.7-1.9-2.2c-0.8-0.6-2.6-1.3-5.4-2.2c-2-0.7-3.2-1.2-3.6-1.5
		c-0.7-0.5-1-1.3-1-2.2c0-1,0.3-1.8,1-2.4c0.7-0.6,1.8-0.9,3.3-0.9c2.6,0,4,1.4,4.3,4.2l3.3-0.5c-0.2-1.8-0.6-3.2-1.2-4.1
		c-0.6-0.9-1.5-1.7-2.6-2.3C322-12.6,320.7-12.8,319.2-12.8z M339.7-12.8c-2.7,0-4.9,1.1-6.7,3.4c-1.7,2.3-2.6,5.7-2.6,10.1
		c0,4.3,0.8,7.6,2.6,9.9c1.7,2.3,4,3.3,6.8,3.3c2.2,0,4.1-0.7,5.6-2.1c1.5-1.4,2.6-3.4,3.2-6.2L345.2,5c-1,3.5-2.8,5.2-5.3,5.2
		c-1.6,0-2.9-0.6-4-2.1c-1.1-1.5-1.8-3.4-1.9-6.4h14V0.4c0-4.3-0.5-7.6-2.3-9.9C344-11.7,342.3-12.8,339.7-12.8z M360-12.8
		c-0.8,0-1.9,0.3-2.5,0.9c-0.6,0.6-1.5,1.8-2.5,3.6v-3.9h-3v26h4V-0.1c0-1.9,0.2-3.7,0.6-5.3c0.2-0.9,0.7-1.7,1.3-2.2
		c0.6-0.5,1.3-0.8,2-0.8c0.8,0,1.6,0.3,2.4,0.9l1.1-4C362.3-12.4,361.2-12.8,360-12.8z M401-12.8c-2.6,0-4.8,1.1-6.5,3.3
		s-2.6,5.6-2.6,10s0.9,7.8,2.6,10c1.7,2.3,3.8,3.3,6.3,3.3c2.1,0,4-0.8,5.5-2.4c1.5-1.6,2.5-4,2.8-7l-3.3-0.5
		c-0.2,2.2-0.8,3.8-1.7,4.8c-0.9,1-2,1.5-3.3,1.5c-1.6,0-3-0.8-4-2.3c-1-1.6-1.5-4.1-1.5-7.5s0.5-5.8,1.6-7.4
		c1.1-1.6,2.5-2.4,4.1-2.4c1.1,0,2,0.4,2.8,1.3c0.8,0.9,1.3,2.2,1.6,3.9l3.3-0.7c-0.4-2.7-1.3-4.7-2.7-6.1
		C404.8-12.2,403.1-12.8,401-12.8z M420.1-12.8c-2.7,0-4.9,1.1-6.7,3.4c-1.7,2.3-2.6,5.7-2.6,10.1c0,4.3,0.8,7.6,2.6,9.9
		c1.7,2.3,4,3.3,6.8,3.3c2.2,0,4.1-0.7,5.6-2.1c1.5-1.4,2.6-3.4,3.2-6.2L425.6,5c-1,3.5-2.7,5.2-5.2,5.2c-1.6,0-3-0.6-4.1-2.1
		s-1.7-3.4-1.9-6.4H429V0.4c0-4.3-0.8-7.6-2.5-9.9C424.7-11.7,422.7-12.8,420.1-12.8z M439.9-12.8c-2.3,0-4.2,0.7-5.5,2.1
		c-1.3,1.4-2,3.1-2,5.3c0,1.3,0.2,2.3,0.7,3.3s1.2,1.8,2.1,2.4c0.9,0.6,2.6,1.4,5.2,2.2c1.8,0.6,3,1.1,3.4,1.5c0.7,0.6,1,1.3,1,2.3
		c0,1.2-0.4,2.2-1.2,2.9c-0.8,0.8-1.9,1.1-3.3,1.1c-1.5,0-2.6-0.4-3.5-1.3c-0.9-0.9-1.4-2.2-1.6-4l-3.3,0.7c0.8,5.5,3.5,8.2,8.2,8.2
		c2.5,0,4.5-0.7,6-2.2s2.2-3.6,2.2-6c0-1.3-0.2-2.5-0.7-3.4c-0.5-1-1.2-1.7-2-2.2c-0.8-0.6-2.5-1.3-5.3-2.2c-2-0.7-3.3-1.2-3.7-1.5
		c-0.7-0.5-1-1.3-1-2.2c0-1,0.4-1.8,1.1-2.4s1.8-0.9,3.3-0.9c2.6,0,4,1.4,4.3,4.2l3.3-0.5c-0.2-1.8-0.6-3.2-1.2-4.1
		c-0.6-0.9-1.5-1.7-2.6-2.3C442.7-12.6,441.4-12.8,439.9-12.8z M363.5-12.2l7.5,26h3.2l7.5-26h-3.4l-4.4,15.6
		c-0.5,1.9-1,3.5-1.3,4.9c-0.4-1.7-0.7-3.4-1.2-5.2L367-12.2H363.5z M384-12.2v26h3v-26H384z M274.6-12c-2.7,0-4.8,1.2-6.5,3.5
		c-1.7,2.3-2.7,5.7-2.7,10.1c0,4.3,0.9,7.5,2.6,9.8s4,3.4,6.8,3.4c2.2,0,4-0.8,5.5-2.1c1.5-1.4,2.5-3.4,3.1-6.2L280.1,6
		c-1,3.5-2.7,5.2-5.2,5.2c-1.6,0-2.9-0.6-4-2c-1.1-1.5-1.8-3.4-1.9-6.4h14.6l0.1-1.3c0-4.3-0.9-7.7-2.6-10
		C279.2-10.8,277.1-12,274.6-12z M236.9-11.2l6,26h3.5l3.9-20l0.7,4.5l3.2,15.5h3.4l6.1-26h-3.2l-3.3,14.7l-1.1,4.9l-1-4.9
		l-2.9-14.8h-3.4l-3.1,14.9l-1,5.3l-1.2-5.4l-3.2-14.7H236.9z M450-11.2v1h3v9h1v-9h3v-1H450z M459-11.2v10h1v-8.5l3.4,8.5h1.2
		l2.4-8.3v8.3h1v-10h-1.1l-2.3,6.9c-0.2,0.7-0.4,1.2-0.5,1.6l-0.5-1.5l-2.3-7H459z M339.6-9.3c1.7,0,3,1.2,4.1,2.8
		c0.7,1.1,1.2,2.3,1.4,5.3H334c0.1-3,0.7-4.4,1.8-5.7C336.9-8.2,338.1-9.3,339.6-9.3z M420-9.3c1.7,0,3,1.2,4.1,2.8
		c0.7,1.1,1.2,2.3,1.4,5.3h-11.1c0.1-3,0.7-4.4,1.8-5.7C417.3-8.2,418.6-9.3,420-9.3z M274.6-8.4c1.6,0,3,1.2,4,2.8
		c0.7,1.1,1.2,2.4,1.4,5.4h-10.9c0.1-3,0.7-4.5,1.7-5.8S273.1-8.4,274.6-8.4z M295.8-8.4c1.5,0,2.8,0.8,3.8,2.4c1,1.6,1.5,4,1.5,7.4
		c0,3.3-0.5,5.7-1.5,7.4s-2.3,2.5-3.7,2.5c-1,0-1.9-0.3-2.7-1s-1.4-1.7-1.9-3c-0.4-1.3-0.7-3.3-0.7-6c0-3.1,0.6-5.5,1.6-7.1
		C293.2-7.5,294.4-8.4,295.8-8.4z"/>
	<path id="polygon287_3_" class="st2" d="M188.9-35.6l-12.8,5.5l11.8,5.1l13.7-5.1L188.9-35.6z M169.2-28.7L168.5-4L187,4.2v-25.6
		L169.2-28.7z M208-28.7l-18,6.4V1.9L208-5V-28.7z"/>
	<path id="polygon311_3_" class="st2" d="M228.2-105.5l-12.9,5.5l11.9,5.1L241-100L228.2-105.5z M210-98.2v24.7l16.1,4.6l0.4-22.5
		L210-98.2z M246-96.9l-16,6.4v24.3l16-6.9V-96.9z"/>
	<path id="use3387_3_" class="st2" d="M167.8-70.8L155-65.3l11.8,5.1l13.7-5.1L167.8-70.8z M148.2-63.9l-0.7,24.7L166-31v-25.6
		L148.2-63.9z M186-63.9l-17,6.4v24.2l17-6.9V-63.9z"/>
	<path id="use3389_3_" class="st2" d="M209-71.7l-12.8,5.5l11.8,5.1l13.7-5.1L209-71.7z M189.7-64.8l-0.4,24.7l18.7,8.2v-25.6
		L189.7-64.8z M228-64.8l-18,6.4v24.2l18-6.9V-64.8z"/>
	<path id="use3391_3_" class="st2" d="M268.4-105.5l-12.8,5.5l11.8,5.1l13.7-5.1L268.4-105.5z M249-98.7L248.5-74l18.6,8.2v-25.6
		L249-98.7z M287-98.7l-16,6.5V-68l16-6.9V-98.7z"/>
</g>
</svg>
