<?xml version="1.0" encoding="utf-8"?>
<!-- Generator: Adobe Illustrator 19.1.0, SVG Export Plug-In . SVG Version: 6.00 Build 0)  -->
<svg version="1.1" id="Layer_1" xmlns="http://www.w3.org/2000/svg" xmlns:xlink="http://www.w3.org/1999/xlink" x="0px" y="0px"
	 viewBox="-139 291 320 280" style="enable-background:new -139 291 320 280;" xml:space="preserve">
<style type="text/css">
	.st0{fill:#303030;}
	.st1{fill:#FFFFFF;}
	.st2{fill:#37474F;}
	.st3{fill:#212121;}
	.st4{fill:#E53935;}
</style>
<path d="M151,471.4c0,6.5-5.3,11.8-11.8,11.8H-97.2c-6.5,0-11.8-5.3-11.8-11.8V306c0-6.5,5.3-11.8,11.8-11.8h236.3
	c6.5,0,11.8,5.3,11.8,11.8L151,471.4L151,471.4z"/>
<path class="st0" d="M137.7,313.3c0-3.2-2.6-5.8-5.8-5.8H-89.7c-3.2,0-5.8,2.6-5.8,5.8v141.9c0,3.2,2.6,5.8,5.8,5.8h221.4
	c3.2,0,5.8-2.6,5.8-5.8L137.7,313.3L137.7,313.3z"/>
<g>
	<path class="st1" d="M-82.9,327.9v-1.3h2.1v-4.1h-2.1v-1.3h3.7v5.4h2.1v1.3C-77.1,327.9-82.9,327.9-82.9,327.9z M-79.9,320.2
		c-0.3,0-0.6-0.1-0.9-0.2c-0.3-0.1-0.3-0.3-0.3-0.6v-0.1c0-0.3,0.1-0.4,0.3-0.6c0.3-0.1,0.5-0.2,0.9-0.2c0.3,0,0.6,0.1,0.9,0.2
		c0.3,0.1,0.3,0.3,0.3,0.6v0.1c0,0.3-0.1,0.4-0.3,0.6C-79.3,320.2-79.5,320.2-79.9,320.2z"/>
	<path class="st1" d="M-73.6,327.9v-5.4h-1.8v-1.3h1.8v-0.4c0-0.7,0.3-1.1,0.8-1.6c0.5-0.3,1.1-0.5,1.9-0.5c0.3,0,0.6,0,1,0.1
		c0.3,0.1,0.5,0.1,0.8,0.2l-0.3,1.1c-0.2-0.1-0.4-0.1-0.7-0.2c-0.3,0-0.4-0.1-0.7-0.1c-0.3,0-0.6,0.1-0.9,0.3
		c-0.2,0.2-0.3,0.4-0.3,0.7v0.3h2.6v1.3H-72v5.4L-73.6,327.9L-73.6,327.9z"/>
	<path class="st1" d="M-53.8,326.4c-0.3,0.6-0.6,1-1,1.3c-0.4,0.3-1.1,0.3-2,0.3c-0.9,0-1.6-0.2-2.2-0.6c-0.5-0.4-0.9-1-0.9-1.9
		v-1.7c0-0.9,0.3-1.5,0.8-1.9c0.5-0.4,1.3-0.7,2.2-0.7c1,0,1.6,0.3,2.2,0.7c0.5,0.4,0.8,1.1,0.8,1.9v1.1h-4.3v0.6
		c0,0.4,0.1,0.8,0.3,1c0.3,0.2,0.6,0.3,1,0.3s0.8-0.1,1-0.2c0.3-0.1,0.4-0.3,0.6-0.7L-53.8,326.4z M-58.1,323.7v0.3h2.7v-0.3
		c0-0.5-0.1-0.9-0.3-1.1c-0.2-0.2-0.5-0.3-1-0.3c-0.5,0-0.8,0.1-1,0.3C-58,322.9-58.1,323.2-58.1,323.7z"/>
	<path class="st1" d="M-51.7,327.9v-6.6h1.6v1.1h0.3c0.2-0.4,0.4-0.8,0.8-1s0.7-0.3,1.2-0.3c0.5,0,1,0.2,1.3,0.5
		c0.3,0.3,0.4,0.8,0.4,1.4v1.1h-1.6v-0.6c0-0.3-0.1-0.6-0.3-0.8c-0.2-0.2-0.4-0.3-0.7-0.3s-0.6,0.1-0.9,0.2
		c-0.3,0.2-0.5,0.3-0.7,0.7v4.5L-51.7,327.9L-51.7,327.9z"/>
	<path class="st1" d="M-44,327.9v-6.6h1.6v1.1h0.3c0.2-0.4,0.4-0.8,0.8-1s0.7-0.3,1.2-0.3c0.5,0,1,0.2,1.3,0.5
		c0.3,0.3,0.4,0.8,0.4,1.4v1.1h-1.6v-0.6c0-0.3-0.1-0.6-0.3-0.8c-0.2-0.2-0.4-0.3-0.7-0.3s-0.6,0.1-0.9,0.2
		c-0.3,0.2-0.5,0.3-0.7,0.7v4.5L-44,327.9L-44,327.9z"/>
	<path class="st1" d="M-25.9,328.1c-0.4,0-0.8-0.1-1-0.3s-0.3-0.3-0.3-0.7v-0.3c0-0.3,0.1-0.5,0.3-0.7s0.5-0.3,1-0.3s0.8,0.1,1,0.3
		c0.3,0.2,0.3,0.4,0.3,0.7v0.3c0,0.3-0.1,0.5-0.3,0.7S-25.5,328.1-25.9,328.1z M-26.7,324.6l-0.3-5.5h2.1l-0.3,5.5H-26.7z"/>
	<path class="st1" d="M-21.4,323.1v-1.5h6.3v1.5C-15.1,323.1-21.4,323.1-21.4,323.1z M-21.4,326.4V325h6.3v1.5H-21.4z"/>
	<path class="st1" d="M-5.8,327.9v-6.6h1.6v1.1h0.3c0.2-0.4,0.4-0.7,0.8-1s0.8-0.3,1.2-0.3c0.6,0,1,0.2,1.4,0.6
		c0.3,0.3,0.5,0.9,0.5,1.6v4.6h-1.6v-4.3c0-0.3-0.1-0.6-0.3-0.8s-0.4-0.3-0.7-0.3s-0.6,0.1-0.9,0.3s-0.6,0.4-0.8,0.7v4.4H-5.8z"/>
	<path class="st1" d="M2,327.9v-1.3h2.1v-4.1H2v-1.3h3.7v5.4h2.1v1.3C7.8,327.9,2,327.9,2,327.9z M5.1,320.2c-0.3,0-0.6-0.1-0.9-0.2
		c-0.3-0.1-0.3-0.3-0.3-0.6v-0.1c0-0.3,0.1-0.4,0.3-0.6c0.3-0.1,0.5-0.2,0.9-0.2c0.3,0,0.6,0.1,0.9,0.2s0.3,0.3,0.3,0.6v0.1
		c0,0.3-0.1,0.4-0.3,0.6C5.7,320.2,5.4,320.2,5.1,320.2z"/>
	<path class="st1" d="M9.8,327.9v-1.3H12v-6.3H9.8V319h3.8v7.5h2.1v1.3L9.8,327.9L9.8,327.9L9.8,327.9z"/>
</g>
<path class="st2" d="M120.2,539.6c-9.1-23.9-24.4-29.5-36.7-31.7c-10.3-1.8-23.1-5.7-27.7-8.2c-0.2-2.1-0.3-6.2,0.2-13.2
	c0.3-0.3,0.5-0.5,0.8-0.9l-0.2-0.1c6.1-8.1,9-15.9,10.3-21.1c3.9-2.8,8.1-8.1,10.5-18.6c1.4-6.1,2.4-13.7-1.9-19.2
	c-0.1-0.2-0.2-0.3-0.3-0.3c3.9-38.4-20.7-57.8-35.2-62.9l-0.2-0.1l-0.2-0.1c-5.5-1.6-10.7-2.5-15.6-2.5c-1.1,0-2.3,0.1-3.3,0.2
	c-1-0.1-2.2-0.2-3.2-0.2c-4.9,0-10.1,0.9-15.6,2.5l-0.2,0.1l-0.2,0.1c-14.5,5-39.1,24.4-35.2,62.9c-0.1,0.2-0.2,0.3-0.3,0.3
	c-4.3,5.5-3.3,13.2-1.9,19.2c2.4,10.5,6.6,15.9,10.5,18.6c1.3,5.1,4.2,12.7,10.1,20.8l0,0l0.1,0.1c0.3,0.4,0.6,0.9,1,1.4
	c0.3,6.6,0.3,10.7,0.2,12.8c-4.6,2.5-17.4,6.3-27.6,8.1c-12.4,2.2-27.7,7.8-36.7,31.7c-1.6,4.1-1,8.5,1.5,12
	c9.3,13.5,58.3,16.3,97.8,16.3s88.6-2.9,97.8-16.4C121.2,548,121.7,543.7,120.2,539.6z M-4.9,504.6c0.6-1.6,0.9-4.8,0.9-8.2
	c5.9,4.4,13.8,8.6,23.2,9c0.5,0,1,0.1,1.6,0.1c8.6,0,16.9-3.2,25-9.3c0,3.6,0.3,6.8,0.9,8.5c1,2.6,6.6,5.2,13.3,7.5
	c-9.7,9.5-23.6,15.5-39.1,15.5s-29.4-6.1-39.1-15.5C-11.6,509.8-6,507.2-4.9,504.6z"/>
<g>
	<g id="Pads_2_">
		<g>
			<path class="st3" d="M-37.4,416.6c-2.3,0-4.2,1.8-4.2,4.2v33.1c0,2.3,1.8,4.2,4.2,4.2c2.3,0,4.2-1.8,4.2-4.2v-33.2
				C-33.3,418.4-35.2,416.6-37.4,416.6z M79.1,416.6c-2.3,0-4.2,1.8-4.2,4.2v33.1c0,2.3,1.8,4.2,4.2,4.2c2.3,0,4.2-1.8,4.2-4.2
				v-33.2C83.2,418.4,81.4,416.6,79.1,416.6z"/>
		</g>
	</g>
	<g id="Frame_7_">
		<g>
			<path class="st4" d="M91.5,414.3c0,0,1.6-57.5-70.5-57.5s-70.8,57.5-70.8,57.5c-5.8,2.5-8.3,6.3-8.3,22.9
				c0,22.4,16.6,20.7,16.6,20.7v-45.5c0,0,2-49.1,62.6-49.1s62.2,49.1,62.2,49.1v45.5c0,0,16.6,1.7,16.6-20.7
				C99.8,420.6,97.3,416.8,91.5,414.3z"/>
		</g>
	</g>
</g>
</svg>
