<?xml version="1.0" encoding="utf-8"?>
<!-- Generator: Adobe Illustrator 19.1.0, SVG Export Plug-In . SVG Version: 6.00 Build 0)  -->
<svg version="1.1" id="Layer_1" xmlns="http://www.w3.org/2000/svg" xmlns:xlink="http://www.w3.org/1999/xlink" x="0px" y="0px"
	 viewBox="0 -25 320 320" style="enable-background:new 0 -25 320 320;" xml:space="preserve">
<style type="text/css">
	.st0{fill:#303030;}
	.st1{fill:#FFFFFF;}
	.st2{fill:#37474F;}
	.st3{fill:#212121;}
	.st4{fill:#E53935;}
</style>
<path d="M310,181.7c0,7.5-6.1,13.6-13.6,13.6H23.6c-7.5,0-13.6-6.1-13.6-13.6V-9.2c0-7.5,6.1-13.6,13.6-13.6h272.7
	c7.5,0,13.6,6.1,13.6,13.6L310,181.7L310,181.7z"/>
<path class="st0" d="M294.6-0.8c0-3.7-3-6.7-6.7-6.7H32.3c-3.7,0-6.7,3-6.7,6.7v163.7c0,3.7,3,6.7,6.7,6.7h255.5
	c3.7,0,6.7-3,6.7-6.7V-0.8H294.6z"/>
<g>
	<path class="st1" d="M40.1,16.1v-1.5h2.4V9.9h-2.4V8.4h4.3v6.2h2.4v1.5H40.1z M43.6,7.2c-0.4,0-0.7-0.1-1-0.2s-0.4-0.3-0.4-0.7V6.2
		c0-0.3,0.1-0.5,0.4-0.7c0.3-0.1,0.6-0.2,1-0.2s0.7,0.1,1,0.2S45,5.9,45,6.2v0.1c0,0.3-0.1,0.5-0.4,0.7C44.3,7.2,44,7.2,43.6,7.2z"
		/>
	<path class="st1" d="M50.9,16.1V9.9h-2.1V8.4h2.1V7.9c0-0.8,0.3-1.3,0.9-1.8c0.6-0.4,1.3-0.6,2.2-0.6c0.4,0,0.7,0,1.1,0.1
		c0.3,0.1,0.6,0.1,0.9,0.2l-0.3,1.3C55.5,7,55.2,7,54.9,6.9c-0.3,0-0.5-0.1-0.8-0.1c-0.4,0-0.7,0.1-1,0.3c-0.2,0.2-0.4,0.5-0.4,0.8
		v0.4h3v1.5h-3V16L50.9,16.1L50.9,16.1z"/>
	<path class="st1" d="M73.7,14.4c-0.3,0.7-0.7,1.2-1.2,1.5s-1.3,0.4-2.3,0.4s-1.9-0.2-2.5-0.7s-1-1.2-1-2.2v-2c0-1,0.3-1.7,0.9-2.2
		s1.5-0.8,2.5-0.8c1.1,0,1.9,0.3,2.5,0.8s0.9,1.3,0.9,2.2v1.3h-5v0.7c0,0.5,0.1,0.9,0.4,1.1s0.7,0.4,1.2,0.4s0.9-0.1,1.1-0.2
		c0.3-0.1,0.5-0.4,0.7-0.8L73.7,14.4z M68.7,11.2v0.4h3.1v-0.3c0-0.6-0.1-1-0.4-1.3c-0.2-0.2-0.6-0.4-1.2-0.4S69.3,9.7,69,10
		C68.8,10.3,68.7,10.7,68.7,11.2z"/>
	<path class="st1" d="M76.1,16.1V8.5H78v1.3h0.4c0.2-0.5,0.5-0.9,0.9-1.1s0.8-0.3,1.4-0.3s1.1,0.2,1.5,0.6s0.5,0.9,0.5,1.6v1.3h-1.8
		v-0.7c0-0.4-0.1-0.7-0.3-0.9c-0.2-0.2-0.5-0.3-0.8-0.3s-0.7,0.1-1,0.2c-0.3,0.2-0.6,0.4-0.8,0.8v5.2L76.1,16.1L76.1,16.1z"/>
	<path class="st1" d="M85,16.1V8.5h1.9v1.3h0.4c0.2-0.5,0.5-0.9,0.9-1.1s0.8-0.3,1.4-0.3s1.1,0.2,1.5,0.6s0.5,0.9,0.5,1.6v1.3h-1.8
		v-0.7c0-0.4-0.1-0.7-0.3-0.9C89.3,10.1,89,10,88.7,10s-0.7,0.1-1,0.2c-0.3,0.2-0.6,0.4-0.8,0.8v5.2L85,16.1L85,16.1z"/>
	<path class="st1" d="M105.9,16.3c-0.5,0-0.9-0.1-1.2-0.3s-0.4-0.4-0.4-0.8v-0.4c0-0.4,0.1-0.6,0.4-0.8c0.3-0.2,0.6-0.3,1.2-0.3
		s0.9,0.1,1.2,0.3c0.3,0.2,0.4,0.5,0.4,0.8v0.4c0,0.4-0.1,0.6-0.4,0.8S106.4,16.3,105.9,16.3z M105,12.3l-0.4-6.4h2.4l-0.4,6.4H105z
		"/>
	<path class="st1" d="M111.1,10.6V8.9h7.3v1.7H111.1z M111.1,14.4v-1.7h7.3v1.7H111.1z"/>
	<path class="st1" d="M129.1,16.1V8.5h1.9v1.3h0.4c0.2-0.5,0.5-0.8,0.9-1.1s0.9-0.4,1.4-0.4c0.7,0,1.2,0.2,1.6,0.7
		c0.4,0.4,0.6,1,0.6,1.8v5.3H134v-5c0-0.4-0.1-0.7-0.3-0.9s-0.5-0.3-0.8-0.3s-0.7,0.1-1,0.3s-0.7,0.5-0.9,0.8v5.1H129.1z"/>
	<path class="st1" d="M138.1,16.1v-1.5h2.4V9.9h-2.4V8.4h4.3v6.2h2.4v1.5H138.1z M141.6,7.2c-0.4,0-0.7-0.1-1-0.2s-0.4-0.3-0.4-0.7
		V6.2c0-0.3,0.1-0.5,0.4-0.7c0.3-0.1,0.6-0.2,1-0.2s0.7,0.1,1,0.2s0.4,0.4,0.4,0.7v0.1c0,0.3-0.1,0.5-0.4,0.7
		C142.3,7.2,142,7.2,141.6,7.2z"/>
	<path class="st1" d="M147.1,16.1v-1.5h2.5V7.3h-2.5V5.8h4.4v8.7h2.4V16h-6.8L147.1,16.1L147.1,16.1z"/>
</g>
<path class="st2" d="M274.5,260.4c-10.5-27.6-28.2-34-42.4-36.6c-11.9-2.1-26.7-6.6-32-9.5c-0.2-2.4-0.3-7.2,0.2-15.2
	c0.3-0.3,0.6-0.6,0.9-1L201,198c7-9.4,10.4-18.3,11.9-24.3c4.5-3.2,9.3-9.4,12.1-21.5c1.6-7,2.8-15.8-2.2-22.2
	c-0.1-0.2-0.2-0.3-0.4-0.4c4.5-44.3-23.9-66.7-40.6-72.6l-0.2-0.1l-0.2-0.1c-6.3-1.9-12.4-2.9-18-2.9c-1.3,0-2.6,0.1-3.8,0.2
	c-1.2-0.1-2.5-0.2-3.7-0.2c-5.6,0-11.7,1-18,2.9l-0.2,0.1l-0.2,0.1c-16.7,5.8-45.1,28.2-40.6,72.6c-0.1,0.2-0.2,0.3-0.4,0.4
	c-5,6.3-3.8,15.2-2.2,22.2c2.8,12.1,7.6,18.3,12.1,21.5c1.5,5.9,4.8,14.7,11.7,24l0,0l0.1,0.1c0.4,0.5,0.7,1,1.1,1.6
	c0.4,7.6,0.4,12.3,0.2,14.8c-5.3,2.9-20.1,7.3-31.9,9.4c-14.3,2.5-32,9-42.4,36.6c-1.8,4.7-1.1,9.8,1.7,13.9
	c10.7,15.6,67.3,18.8,112.9,18.8S262,289.5,272.7,274C275.6,270.1,276.2,265.1,274.5,260.4z M130.1,220c0.7-1.9,1-5.5,1-9.5
	c6.8,5.1,15.9,9.9,26.8,10.4c0.6,0,1.2,0.1,1.8,0.1c9.9,0,19.5-3.7,28.8-10.7c0,4.1,0.3,7.8,1,9.8c1.1,3,7.6,6,15.3,8.6
	c-11.2,11-27.2,17.9-45.1,17.9s-33.9-7-45.1-17.9C122.4,226,128.9,223,130.1,220z"/>
<g>
	<g id="Pads_2_">
		<g>
			<path class="st3" d="M92.6,118.4c-2.6,0-4.8,2.1-4.8,4.8v38.2c0,2.6,2.1,4.8,4.8,4.8c2.6,0,4.8-2.1,4.8-4.8v-38.3
				C97.4,120.5,95.2,118.4,92.6,118.4z M227,118.4c-2.6,0-4.8,2.1-4.8,4.8v38.2c0,2.6,2.1,4.8,4.8,4.8c2.6,0,4.8-2.1,4.8-4.8v-38.3
				C231.8,120.5,229.7,118.4,227,118.4z"/>
		</g>
	</g>
	<g id="Frame_7_">
		<g>
			<path class="st4" d="M241.3,115.8c0,0,1.8-66.4-81.3-66.4s-81.7,66.4-81.7,66.4c-6.7,2.9-9.6,7.3-9.6,26.4
				c0,25.9,19.1,23.9,19.1,23.9v-52.5c0,0,2.3-56.7,72.2-56.7s71.8,56.7,71.8,56.7v52.5c0,0,19.1,2,19.1-23.9
				C250.9,123.1,248,118.7,241.3,115.8z"/>
		</g>
	</g>
</g>
</svg>
