<?xml version="1.0" encoding="utf-8"?>
<!-- Generator: Adobe Illustrator 19.1.0, SVG Export Plug-In . SVG Version: 6.00 Build 0)  -->
<svg version="1.1" id="Layer_1" xmlns="http://www.w3.org/2000/svg" xmlns:xlink="http://www.w3.org/1999/xlink" x="0px" y="0px"
	 viewBox="142 105 320 300" style="enable-background:new 142 105 320 300;" xml:space="preserve">
<style type="text/css">
	.st0{clip-path:url(#SVGID_2_);}
	.st1{fill:#FFFFFE;}
	.st2{fill:#BDBDBD;}
	.st3{fill:#303030;}
	.st4{fill:none;stroke:#81C784;stroke-width:2;stroke-linecap:round;stroke-linejoin:round;stroke-miterlimit:10;}
	.st5{fill:#3F51B5;}
	.st6{fill:#FFFFFF;}
	.st7{fill:#7AB439;}
	.st8{fill:#9D9D9D;}
	.st9{fill:none;}
</style>
<g>
	<defs>
		<rect id="SVGID_1_" x="163.1" y="105" width="277.8" height="300"/>
	</defs>
	<clipPath id="SVGID_2_">
		<use xlink:href="#SVGID_1_"  style="overflow:visible;"/>
	</clipPath>
	<g class="st0">
		<path class="st1" d="M396.9,107.6h-1.5c0,0,0-0.6,0-1.3s-0.7-1.3-1.5-1.3h-42.5c-0.8,0-1.5,0.6-1.5,1.3s0,1.3,0,1.3H210
			c-24.2,0-44,19.8-44,44v36.6c0,0-0.8,0-1.5,0c-0.7,0-1.5,0.5-1.5,1.3v22.7c0,0.8,0.8,1.6,1.5,1.6c0.7,0,1.5,0,1.5,0v29.3
			c0,0-0.8,0-1.5,0c-0.7,0-1.5,0.5-1.5,1.3v17.2c0,0.8,0.8,1.6,1.5,1.6c0.7,0,1.5,0,1.5,0v27.9c0,0-0.8,0-1.5,0
			c-0.7,0-1.5,0.5-1.5,1.3v17.2c0,0.8,0.8,1.6,1.5,1.6c0.7,0,1.5,0,1.5,0v333.1c0,24.2,19.8,44,44,44h186.9c24.2,0,44-19.8,44-44
			V151.5C440.9,127.4,421.1,107.6,396.9,107.6z"/>
		<g>
			<g>
				<path class="st2" d="M393.4,107v0.6c0,1.1,0.9,2,2,2h1.5c23.1,0,42,18.8,42,42v492.9c0,23.1-18.8,42-42,42H210
					c-23.1,0-42-18.8-42-42V311.3c0-1.1-0.9-2-2-2h-0.9v-16.2h0.9c1.1,0,2-0.9,2-2v-27.9c0-1.1-0.9-2-2-2h-0.9v-16.2h0.9
					c1.1,0,2-0.9,2-2v-29.3c0-1.1-0.9-2-2-2h-0.9v-21.7h0.9c1.1,0,2-0.9,2-2v-36.6c0-23.1,18.8-42,42-42h140c1.1,0,2-0.9,2-2V107
					H393.4 M394,105h-42.5c-0.8,0-1.5,0.6-1.5,1.3s0,1.3,0,1.3H210c-24.2,0-44,19.8-44,44v36.6c0,0-0.8,0-1.5,0
					c-0.7,0-1.5,0.5-1.5,1.3v22.7c0,0.8,0.8,1.6,1.5,1.6c0.7,0,1.5,0,1.5,0v29.3c0,0-0.8,0-1.5,0c-0.7,0-1.5,0.5-1.5,1.3v17.2
					c0,0.8,0.8,1.6,1.5,1.6c0.7,0,1.5,0,1.5,0v27.9c0,0-0.8,0-1.5,0c-0.7,0-1.5,0.5-1.5,1.3v17.2c0,0.8,0.8,1.6,1.5,1.6
					c0.7,0,1.5,0,1.5,0v333.1c0,24.2,19.8,44,44,44h186.9c24.2,0,44-19.8,44-44V151.5c0-24.2-19.8-44-44-44h-1.5c0,0,0-0.6,0-1.3
					S394.8,105,394,105L394,105z"/>
			</g>
		</g>
		<rect x="186.6" y="192.2" class="st3" width="234.5" height="416.3"/>
		<path class="st2" d="M326.2,152.3h-44c-3,0-5.5,2.5-5.5,5.5c0,3,2.5,5.5,5.5,5.5h44c3,0,5.5-2.5,5.5-5.5
			C331.7,154.7,329.2,152.3,326.2,152.3z"/>
		<circle class="st2" cx="303.5" cy="135.8" r="5.5"/>
		<circle class="st4" cx="303.5" cy="647.8" r="25.7"/>
		<g>
			<path class="st4" d="M308.6,637.5H298c-2.4,0-4.4,2-4.4,4.4v10.6c0,2.4,2,4.4,4.4,4.4h10.6c2.4,0,4.4-2,4.4-4.4v-10.6
				C313,639.4,311,637.5,308.6,637.5z"/>
		</g>
	</g>
</g>
<g>
	<g>
		<defs>
			<rect id="SVGID_3_" x="187" y="191" width="234" height="45"/>
		</defs>
		<use xlink:href="#SVGID_3_"  style="overflow:visible;fill-rule:evenodd;clip-rule:evenodd;fill:#212121;"/>
		<clipPath id="SVGID_4_">
			<use xlink:href="#SVGID_3_"  style="overflow:visible;"/>
		</clipPath>
	</g>
	<g>
		<circle class="st5" cx="397.6" cy="236.1" r="13.3"/>
		<path class="st6" d="M402.6,237h-4.1v4.1h-1.7V237h-4.1v-1.7h4.1v-4.1h1.7v4.1h4.1V237z"/>
	</g>
	<g>
		<path class="st6" d="M204.5,214v3.4c0,1.7-0.9,2.6-2.6,2.6h-0.6c-1.7,0-2.6-0.9-2.6-2.6v-10.9c0-1.7,0.9-2.5,2.6-2.5h0.6
			c1.7,0,2.6,0.9,2.6,2.5v2.9h-0.9v-3c0-1.1-0.6-1.7-1.7-1.7h-0.6c-1.2,0-1.8,0.6-1.8,1.7v10.9c0,1.1,0.6,1.7,1.8,1.7h0.6
			c1.1,0,1.7-0.6,1.7-1.7V214H204.5z"/>
		<path class="st6" d="M206.5,203.9h0.8v4.9c0.8-0.6,1.4-1,2.3-1h0.1c1.3,0,2,0.7,2,1.9v10.2h-0.8v-10.1c0-0.9-0.5-1.3-1.4-1.3h-0.1
			c-0.7,0-1.3,0.3-2.2,0.9v10.4h-0.8V203.9z"/>
		<path class="st6" d="M214.7,214.2v3.3c0,1.1,0.5,1.7,1.7,1.7h0.2c1.1,0,1.7-0.6,1.7-1.7v-1.4h0.8v1.4c0,1.6-0.9,2.5-2.5,2.5h-0.3
			c-1.7,0-2.5-0.9-2.5-2.5v-7.2c0-1.6,0.8-2.5,2.5-2.5h0.3c1.6,0,2.5,0.9,2.5,2.5v4H214.7z M214.7,213.4h3.6v-3.2
			c0-1.1-0.6-1.7-1.7-1.7h-0.2c-1.1,0-1.7,0.6-1.7,1.7V213.4z"/>
		<path class="st6" d="M225.4,210.2c0-1.1-0.5-1.6-1.6-1.6h-0.3c-1.1,0-1.6,0.5-1.6,1.6v7.3c0,1.1,0.5,1.6,1.6,1.6h0.3
			c1.1,0,1.6-0.5,1.6-1.6v-2.2h0.8v2.2c0,1.6-0.8,2.5-2.5,2.5h-0.4c-1.6,0-2.5-0.8-2.5-2.5v-7.3c0-1.6,0.8-2.5,2.5-2.5h0.4
			c1.6,0,2.5,0.8,2.5,2.5v1.8h-0.8V210.2z"/>
		<path class="st6" d="M233.6,207.8l-3.5,5.9l3.4,6.2h-1l-3.3-6v6h-0.8v-16h0.8v9.8l3.4-5.9H233.6z"/>
		<path class="st6" d="M238.8,210c0-0.9-0.5-1.4-1.5-1.4h-0.3c-1,0-1.5,0.5-1.5,1.4v1.1c0,0.8,0.3,1.2,0.9,1.6l2.1,1.3
			c0.9,0.6,1.3,1.2,1.3,2.3v1.3c0,1.5-0.8,2.3-2.4,2.3h-0.4c-1.6,0-2.4-0.8-2.4-2.3v-1.9h0.8v2c0,0.9,0.5,1.4,1.5,1.4h0.4
			c1,0,1.5-0.5,1.5-1.4v-1.3c0-0.8-0.3-1.2-0.9-1.6l-2.1-1.3c-0.9-0.6-1.3-1.2-1.3-2.3v-1.1c0-1.5,0.8-2.3,2.4-2.3h0.3
			c1.6,0,2.3,0.8,2.3,2.3v1.8h-0.8V210z"/>
	</g>
	<g>
		<path class="st7" d="M204.8,261.9L204,260h-3.5l-0.8,1.9h-1.9l3.6-8.5h1.7l3.6,8.5H204.8z M202.3,255.7l-1.1,2.7h2.2L202.3,255.7z
			"/>
		<path class="st7" d="M207.9,261.9v-8.8h1.8v8.8H207.9z"/>
		<path class="st7" d="M211.6,261.9v-8.8h1.8v8.8H211.6z"/>
		<path class="st7" d="M222.8,262.1c-2.5,0-4.3-1.9-4.3-4.3v0c0-2.4,1.8-4.3,4.4-4.3c1.6,0,2.5,0.5,3.3,1.3L225,256
			c-0.6-0.6-1.3-0.9-2.1-0.9c-1.4,0-2.4,1.2-2.4,2.6v0c0,1.4,1,2.6,2.4,2.6c1,0,1.5-0.4,2.2-1l1.2,1.2
			C225.4,261.5,224.4,262.1,222.8,262.1z"/>
		<path class="st7" d="M231.6,261.9v-3.6c0-0.9-0.4-1.3-1.1-1.3c-0.7,0-1.1,0.4-1.1,1.3v3.6h-1.8v-8.8h1.8v3.2c0.4-0.5,1-1,1.9-1
			c1.4,0,2.2,0.9,2.2,2.4v4.2H231.6z"/>
		<path class="st7" d="M241,259.3h-4.5c0.2,0.8,0.8,1.3,1.6,1.3c0.6,0,1.1-0.2,1.6-0.7l1,0.9c-0.6,0.7-1.5,1.2-2.6,1.2
			c-1.9,0-3.4-1.4-3.4-3.3v0c0-1.8,1.3-3.3,3.2-3.3c2.1,0,3.1,1.7,3.1,3.5v0C241,259.1,241,259.2,241,259.3z M237.9,256.8
			c-0.8,0-1.2,0.5-1.4,1.4h2.7C239.1,257.4,238.7,256.8,237.9,256.8z"/>
		<path class="st7" d="M245.4,262.1c-1.9,0-3.3-1.5-3.3-3.3v0c0-1.8,1.4-3.3,3.4-3.3c1.2,0,2,0.4,2.6,1.1l-1.1,1.2
			c-0.4-0.4-0.8-0.7-1.5-0.7c-0.9,0-1.6,0.8-1.6,1.8v0c0,1,0.6,1.8,1.6,1.8c0.6,0,1-0.3,1.5-0.7l1.1,1.1
			C247.4,261.6,246.7,262.1,245.4,262.1z"/>
		<path class="st7" d="M253.4,261.9l-1.7-2.6l-0.6,0.7v2h-1.8v-8.8h1.8v4.7l2.1-2.3h2.2l-2.4,2.5l2.5,3.9H253.4z"/>
		<path class="st7" d="M258.6,262c-0.9,0-1.9-0.3-2.8-1l0.8-1.2c0.7,0.5,1.4,0.8,2,0.8c0.5,0,0.8-0.2,0.8-0.5v0
			c0-0.4-0.6-0.5-1.3-0.7c-0.9-0.3-1.9-0.7-1.9-1.9v0c0-1.3,1.1-2,2.4-2c0.8,0,1.7,0.3,2.4,0.7l-0.7,1.3c-0.6-0.4-1.3-0.6-1.7-0.6
			c-0.4,0-0.7,0.2-0.7,0.4v0c0,0.4,0.6,0.5,1.3,0.8c0.9,0.3,1.9,0.7,1.9,1.9v0C261.1,261.4,260,262,258.6,262z"/>
		<path class="st7" d="M269.4,259.4H268v2.5h-1.8v-8.4h3.4c2,0,3.2,1.2,3.2,2.9v0C272.8,258.4,271.3,259.4,269.4,259.4z
			 M270.9,256.5c0-0.8-0.6-1.3-1.5-1.3H268v2.6h1.5C270.4,257.7,270.9,257.2,270.9,256.5L270.9,256.5z"/>
		<path class="st7" d="M277.6,261.9v-0.7c-0.4,0.5-1.1,0.8-1.9,0.8c-1.2,0-2.2-0.7-2.2-2v0c0-1.4,1.1-2.1,2.6-2.1
			c0.6,0,1.1,0.1,1.6,0.3v-0.1c0-0.8-0.5-1.2-1.4-1.2c-0.7,0-1.2,0.1-1.8,0.3l-0.5-1.4c0.7-0.3,1.4-0.5,2.5-0.5c2,0,2.9,1,2.9,2.8
			v3.7H277.6z M277.7,259.3c-0.3-0.1-0.7-0.2-1.2-0.2c-0.8,0-1.3,0.3-1.3,0.9v0c0,0.5,0.4,0.8,1,0.8c0.9,0,1.4-0.5,1.4-1.1V259.3z"
			/>
		<path class="st7" d="M283.2,262c-0.9,0-1.9-0.3-2.8-1l0.8-1.2c0.7,0.5,1.4,0.8,2,0.8c0.5,0,0.8-0.2,0.8-0.5v0
			c0-0.4-0.6-0.5-1.3-0.7c-0.9-0.3-1.9-0.7-1.9-1.9v0c0-1.3,1.1-2,2.4-2c0.8,0,1.7,0.3,2.4,0.7l-0.7,1.3c-0.6-0.4-1.3-0.6-1.7-0.6
			c-0.4,0-0.7,0.2-0.7,0.4v0c0,0.4,0.6,0.5,1.3,0.8c0.9,0.3,1.9,0.7,1.9,1.9v0C285.7,261.4,284.6,262,283.2,262z"/>
		<path class="st7" d="M289.1,262c-0.9,0-1.9-0.3-2.8-1l0.8-1.2c0.7,0.5,1.4,0.8,2,0.8c0.5,0,0.8-0.2,0.8-0.5v0
			c0-0.4-0.6-0.5-1.3-0.7c-0.9-0.3-1.9-0.7-1.9-1.9v0c0-1.3,1.1-2,2.4-2c0.8,0,1.7,0.3,2.4,0.7l-0.7,1.3c-0.6-0.4-1.3-0.6-1.7-0.6
			c-0.4,0-0.7,0.2-0.7,0.4v0c0,0.4,0.6,0.5,1.3,0.8c0.9,0.3,1.9,0.7,1.9,1.9v0C291.6,261.4,290.5,262,289.1,262z"/>
		<path class="st7" d="M292.9,254.8v-1.6h1.9v1.6H292.9z M293,261.9v-6.4h1.8v6.4H293z"/>
		<path class="st7" d="M300.6,261.9v-3.6c0-0.9-0.4-1.3-1.1-1.3s-1.1,0.4-1.1,1.3v3.6h-1.8v-6.4h1.8v0.9c0.4-0.5,1-1,1.9-1
			c1.4,0,2.2,0.9,2.2,2.4v4.2H300.6z"/>
		<path class="st7" d="M306.9,263.9c-1,0-2-0.2-2.8-0.7l0.6-1.4c0.7,0.4,1.3,0.6,2.2,0.6c1.2,0,1.8-0.6,1.8-1.8v-0.3
			c-0.5,0.6-1.1,1-2.1,1c-1.5,0-2.9-1.1-2.9-3v0c0-1.9,1.4-3,2.9-3c1,0,1.6,0.4,2.1,1v-0.8h1.8v5
			C310.5,262.9,309.3,263.9,306.9,263.9z M308.7,258.4c0-0.9-0.7-1.5-1.6-1.5s-1.6,0.6-1.6,1.5v0c0,0.9,0.7,1.5,1.6,1.5
			S308.7,259.3,308.7,258.4L308.7,258.4z"/>
	</g>
	<g>
		<path class="st6" d="M230.8,288v3.8h-0.9v-8.4h0.9v3.7h4.8v-3.7h0.9v8.4h-0.9V288H230.8z"/>
		<path class="st6" d="M242.2,291.8h-1v-7.5h-2.8v-0.9h6.6v0.9h-2.8V291.8z"/>
		<path class="st6" d="M249.9,291.8h-1v-7.5h-2.8v-0.9h6.6v0.9h-2.8V291.8z"/>
		<path class="st6" d="M257.5,288.9h-2v3h-0.9v-8.4h3.1c1.9,0,3.1,1,3.1,2.7C260.8,287.9,259.3,288.9,257.5,288.9z M257.6,284.3
			h-2.1v3.7h2.1c1.4,0,2.3-0.7,2.3-1.9C259.9,284.9,259,284.3,257.6,284.3z"/>
		<path class="st6" d="M262.3,286.9v-1.3h1.1v1.3H262.3z M262.3,291.8v-1.3h1.1v1.3H262.3z"/>
		<path class="st6" d="M273,292c-2.4,0-4.2-1.9-4.2-4.3c0-2.4,1.8-4.4,4.2-4.4c1.5,0,2.4,0.5,3.3,1.3l-0.6,0.7
			c-0.7-0.7-1.5-1.2-2.6-1.2c-1.9,0-3.3,1.5-3.3,3.5s1.4,3.5,3.3,3.5c1.2,0,1.9-0.4,2.7-1.2l0.6,0.6C275.5,291.4,274.6,292,273,292z
			"/>
		<path class="st6" d="M280.6,292c-1.9,0-3.2-1.5-3.2-3.2c0-1.8,1.4-3.3,3.2-3.3c1.9,0,3.2,1.5,3.2,3.2
			C283.9,290.5,282.5,292,280.6,292z M280.6,286.3c-1.3,0-2.3,1.1-2.3,2.4c0,1.3,1,2.4,2.3,2.4c1.3,0,2.3-1.1,2.3-2.4
			C282.9,287.4,281.9,286.3,280.6,286.3z"/>
		<path class="st6" d="M290.5,291.8v-1.2c-0.5,0.7-1.2,1.4-2.4,1.4c-1.5,0-3-1.2-3-3.2c0-2,1.5-3.2,3-3.2c1.2,0,1.9,0.6,2.4,1.3
			v-3.7h0.9v8.8H290.5z M288.3,286.3c-1.2,0-2.2,0.9-2.2,2.4c0,1.5,1,2.4,2.2,2.4c1.2,0,2.2-1,2.2-2.4
			C290.5,287.3,289.5,286.3,288.3,286.3z"/>
		<path class="st6" d="M296.2,291.2c0.9,0,1.5-0.3,2-0.9l0.6,0.5c-0.6,0.7-1.4,1.2-2.6,1.2c-1.7,0-3.1-1.3-3.1-3.2
			c0-1.8,1.3-3.2,3-3.2c1.8,0,2.9,1.5,2.9,3.3c0,0.1,0,0.2,0,0.3h-4.9C294.2,290.4,295.1,291.2,296.2,291.2z M298,288.4
			c-0.1-1.1-0.7-2.1-2-2.1c-1.1,0-1.9,0.9-2,2.1H298z"/>
		<path class="st6" d="M304.6,285.6l-0.7-0.5c0.8-1.1,1.5-1.8,3-1.8c1.5,0,2.6,1,2.6,2.4c0,1.2-0.6,2-2.1,3.3l-2.2,2h4.4v0.9h-5.9
			v-0.7l3-2.7c1.3-1.2,1.8-1.8,1.8-2.6c0-1-0.8-1.6-1.7-1.6C305.9,284.2,305.3,284.7,304.6,285.6z"/>
		<path class="st6" d="M314.6,292c-2.2,0-3.5-2-3.5-4.3c0-2.4,1.4-4.4,3.6-4.4c2.2,0,3.5,2,3.5,4.3C318.2,290,316.8,292,314.6,292z
			 M314.6,284.1c-1.6,0-2.6,1.6-2.6,3.5c0,1.9,1,3.5,2.6,3.5s2.5-1.6,2.5-3.5S316.2,284.1,314.6,284.1z"/>
		<path class="st6" d="M323.2,292c-2.2,0-3.5-2-3.5-4.3c0-2.4,1.4-4.4,3.6-4.4c2.2,0,3.5,2,3.5,4.3C326.8,290,325.4,292,323.2,292z
			 M323.2,284.1c-1.6,0-2.6,1.6-2.6,3.5c0,1.9,1,3.5,2.6,3.5s2.5-1.6,2.5-3.5S324.8,284.1,323.2,284.1z"/>
		<path class="st8" d="M233.7,306.4c-2.4,0-4.2-1.9-4.2-4.3c0-2.4,1.8-4.4,4.2-4.4c1.5,0,2.4,0.5,3.3,1.3l-0.6,0.7
			c-0.7-0.7-1.5-1.2-2.6-1.2c-1.9,0-3.3,1.5-3.3,3.5s1.4,3.5,3.3,3.5c1.2,0,1.9-0.4,2.7-1.2l0.6,0.6
			C236.2,305.8,235.2,306.4,233.7,306.4z"/>
		<path class="st8" d="M239.5,306.2h-0.9v-8.8h0.9v3.6c0.4-0.7,1.1-1.2,2.1-1.2c1.5,0,2.4,1,2.4,2.5v3.8h-0.9v-3.6
			c0-1.2-0.6-1.9-1.7-1.9c-1.1,0-1.9,0.8-1.9,1.9V306.2z"/>
		<path class="st8" d="M248.7,305.6c0.9,0,1.5-0.3,2-0.9l0.6,0.5c-0.6,0.7-1.4,1.2-2.6,1.2c-1.7,0-3.1-1.3-3.1-3.2
			c0-1.8,1.3-3.2,3-3.2c1.8,0,2.9,1.5,2.9,3.3c0,0.1,0,0.2,0,0.3h-4.9C246.6,304.8,247.6,305.6,248.7,305.6z M250.5,302.8
			c-0.1-1.1-0.7-2.1-2-2.1c-1.1,0-1.9,0.9-2,2.1H250.5z"/>
		<path class="st8" d="M255.8,306.4c-1.8,0-3.2-1.5-3.2-3.2c0-1.8,1.4-3.3,3.2-3.3c1.2,0,1.9,0.5,2.5,1.1l-0.6,0.6
			c-0.5-0.5-1-0.9-1.9-0.9c-1.3,0-2.2,1.1-2.2,2.4c0,1.4,1,2.4,2.3,2.4c0.8,0,1.4-0.4,1.9-0.9l0.6,0.6
			C257.8,305.9,257,306.4,255.8,306.4z"/>
		<path class="st8" d="M265.4,306.2h-1.1l-2.2-2.9l-1.3,1.3v1.6h-0.9v-8.8h0.9v6l3.3-3.5h1.2l-2.6,2.7L265.4,306.2z"/>
		<path class="st8" d="M269.2,305.6c0.9,0,1.5-0.3,2-0.9l0.6,0.5c-0.6,0.7-1.4,1.2-2.6,1.2c-1.7,0-3.1-1.3-3.1-3.2
			c0-1.8,1.3-3.2,3-3.2c1.8,0,2.9,1.5,2.9,3.3c0,0.1,0,0.2,0,0.3H267C267.1,304.8,268.1,305.6,269.2,305.6z M271,302.8
			c-0.1-1.1-0.7-2.1-2-2.1c-1.1,0-1.9,0.9-2,2.1H271z"/>
		<path class="st8" d="M278.5,306.2V305c-0.5,0.7-1.2,1.4-2.4,1.4c-1.5,0-3-1.2-3-3.2c0-2,1.5-3.2,3-3.2c1.2,0,1.9,0.6,2.4,1.3v-3.7
			h0.9v8.8H278.5z M276.3,300.7c-1.2,0-2.2,0.9-2.2,2.4c0,1.5,1,2.4,2.2,2.4c1.2,0,2.2-1,2.2-2.4
			C278.5,301.7,277.5,300.7,276.3,300.7z"/>
		<path class="st8" d="M285.1,298.7v-0.9h5.4v0.7l-2.6,2.9c1.5,0.1,2.8,0.8,2.8,2.4c0,1.5-1.2,2.5-2.8,2.5c-1.4,0-2.4-0.6-3.1-1.5
			l0.7-0.6c0.6,0.8,1.4,1.2,2.5,1.2c1,0,1.8-0.6,1.8-1.6c0-1.1-1-1.6-2.4-1.6h-0.5l-0.2-0.6l2.7-3H285.1z"/>
		<path class="st8" d="M295.7,306.4c-2.2,0-3.5-2-3.5-4.3c0-2.4,1.4-4.4,3.6-4.4c2.2,0,3.5,2,3.5,4.3
			C299.3,304.4,297.9,306.4,295.7,306.4z M295.7,298.5c-1.6,0-2.6,1.6-2.6,3.5c0,1.9,1,3.5,2.6,3.5c1.6,0,2.5-1.6,2.5-3.5
			S297.3,298.5,295.7,298.5z"/>
		<path class="st8" d="M303.1,306.3c-0.9,0-1.9-0.3-2.6-0.9l0.5-0.7c0.7,0.5,1.4,0.8,2.1,0.8c0.7,0,1.3-0.4,1.3-1v0
			c0-0.6-0.7-0.9-1.5-1.1c-1-0.3-2.1-0.6-2.1-1.8v0c0-1.1,0.9-1.8,2.1-1.8c0.8,0,1.6,0.3,2.2,0.7l-0.4,0.7c-0.6-0.4-1.2-0.6-1.8-0.6
			c-0.7,0-1.2,0.4-1.2,0.9v0c0,0.6,0.8,0.8,1.6,1.1c1,0.3,2,0.7,2,1.8v0C305.3,305.7,304.3,306.3,303.1,306.3z"/>
		<path class="st8" d="M311,301.2l-0.3-0.8c0.7-0.3,1.4-0.5,2.3-0.5c1.7,0,2.6,0.9,2.6,2.5v3.8h-0.9v-0.9c-0.4,0.6-1.2,1.1-2.2,1.1
			c-1.2,0-2.3-0.6-2.3-1.9c0-1.3,1.1-2,2.7-2c0.8,0,1.4,0.1,1.9,0.3v-0.2c0-1.1-0.7-1.7-1.8-1.7C312.1,300.7,311.5,300.9,311,301.2z
			 M311.1,304.4c0,0.8,0.7,1.2,1.6,1.2c1.1,0,2.1-0.7,2.1-1.7v-0.6c-0.5-0.1-1.1-0.3-1.8-0.3C311.7,303.1,311.1,303.6,311.1,304.4z"
			/>
		<path class="st8" d="M320.3,308.2c-1,0-2-0.3-2.8-0.9l0.4-0.7c0.7,0.5,1.5,0.8,2.4,0.8c1.4,0,2.3-0.8,2.3-2.2v-0.7
			c-0.5,0.7-1.3,1.3-2.4,1.3c-1.5,0-2.9-1.1-2.9-2.9c0-1.8,1.4-2.9,2.9-2.9c1.2,0,1.9,0.6,2.4,1.2V300h0.9v5.1
			C323.5,307.1,322.2,308.2,320.3,308.2z M320.3,300.7c-1.2,0-2.1,0.8-2.1,2.1c0,1.3,1,2.1,2.1,2.1c1.2,0,2.3-0.8,2.3-2.1
			C322.6,301.5,321.5,300.7,320.3,300.7z"/>
		<path class="st8" d="M328.4,306.4c-1.9,0-3.2-1.5-3.2-3.2c0-1.8,1.4-3.3,3.2-3.3c1.9,0,3.2,1.5,3.2,3.2
			C331.6,304.9,330.2,306.4,328.4,306.4z M328.4,300.7c-1.3,0-2.3,1.1-2.3,2.4c0,1.3,1,2.4,2.3,2.4c1.3,0,2.3-1.1,2.3-2.4
			C330.7,301.8,329.7,300.7,328.4,300.7z"/>
	</g>
	<g>
		<path class="st9" d="M387.6,285.7h20v20h-20V285.7z"/>
		<path class="st8" d="M392.6,294c-0.9,0-1.7,0.8-1.7,1.7c0,0.9,0.8,1.7,1.7,1.7c0.9,0,1.7-0.8,1.7-1.7
			C394.2,294.8,393.5,294,392.6,294z M402.6,294c-0.9,0-1.7,0.8-1.7,1.7c0,0.9,0.8,1.7,1.7,1.7c0.9,0,1.7-0.8,1.7-1.7
			C404.2,294.8,403.5,294,402.6,294z M397.6,294c-0.9,0-1.7,0.8-1.7,1.7c0,0.9,0.8,1.7,1.7,1.7c0.9,0,1.7-0.8,1.7-1.7
			C399.2,294.8,398.5,294,397.6,294z"/>
	</g>
	<path class="st7" d="M206.4,284.6c-6.1,0-11.1,5-11.1,11.1c0,6.1,5,11.1,11.1,11.1c6.1,0,11.1-5,11.1-11.1
		C217.6,289.6,212.6,284.6,206.4,284.6z M204.9,299.8l-4-4l1.1-1.1l2.8,2.8l6-6l1.1,1.1L204.9,299.8z"/>
	<g>
		<path class="st6" d="M232.9,329.4c1.9,0.4,2.7,1.1,2.7,2.4c0,1.5-1.2,2.4-2.9,2.4c-1.3,0-2.4-0.4-3.4-1.3l0.6-0.7
			c0.9,0.8,1.7,1.2,2.9,1.2c1.1,0,1.9-0.6,1.9-1.4c0-0.8-0.4-1.2-2.2-1.6c-1.9-0.4-2.8-1-2.8-2.4c0-1.3,1.2-2.3,2.8-2.3
			c1.2,0,2.1,0.3,3,1l-0.6,0.7c-0.8-0.6-1.6-0.9-2.4-0.9c-1.1,0-1.8,0.6-1.8,1.4C230.6,328.5,231,329,232.9,329.4z"/>
		<path class="st6" d="M245.8,333.6l-0.6,0.7l-1.1-1c-0.7,0.6-1.6,0.9-2.7,0.9c-2.6,0-4.3-2-4.3-4.3c0-2.3,1.7-4.4,4.3-4.4
			c2.6,0,4.3,2,4.3,4.3c0,1.1-0.4,2.1-1,2.8L245.8,333.6z M241.8,331.3l0.6-0.7l1.5,1.4c0.5-0.6,0.7-1.4,0.7-2.2
			c0-1.9-1.4-3.5-3.3-3.5s-3.3,1.5-3.3,3.5s1.4,3.5,3.3,3.5c0.7,0,1.4-0.2,1.9-0.6L241.8,331.3z"/>
		<path class="st6" d="M247.7,325.6h0.9v7.5h4.7v0.9h-5.7V325.6z"/>
		<path class="st6" d="M255,329.1v-1.3h1.1v1.3H255z M255,334v-1.3h1.1v1.3H255z"/>
		<path class="st6" d="M261.8,325.6h0.9v7.5h4.7v0.9h-5.7V325.6z"/>
		<path class="st6" d="M269.5,329l-0.3-0.8c0.7-0.3,1.4-0.5,2.3-0.5c1.7,0,2.6,0.9,2.6,2.5v3.8h-0.9v-0.9c-0.4,0.6-1.2,1.1-2.2,1.1
			c-1.2,0-2.3-0.6-2.3-1.9c0-1.3,1.1-2,2.7-2c0.8,0,1.4,0.1,1.9,0.3v-0.2c0-1.1-0.7-1.7-1.8-1.7C270.6,328.6,270,328.8,269.5,329z
			 M269.6,332.2c0,0.8,0.7,1.2,1.6,1.2c1.1,0,2.1-0.7,2.1-1.7v-0.6c-0.5-0.1-1.1-0.3-1.8-0.3C270.2,330.9,269.6,331.4,269.6,332.2z"
			/>
		<path class="st6" d="M277.2,332.3c0,0.8,0.4,1,1,1c0.3,0,0.6-0.1,0.9-0.2v0.8c-0.3,0.2-0.7,0.3-1.1,0.3c-1,0-1.8-0.5-1.8-1.8v-3.7
			h-0.9v-0.8h0.9V326h0.9v1.9h2v0.8h-2V332.3z"/>
		<path class="st6" d="M283.4,333.4c0.9,0,1.5-0.3,2-0.9l0.6,0.5c-0.6,0.7-1.4,1.2-2.6,1.2c-1.7,0-3.1-1.3-3.1-3.2
			c0-1.8,1.3-3.2,3-3.2c1.8,0,2.9,1.5,2.9,3.3c0,0.1,0,0.2,0,0.3h-4.9C281.3,332.6,282.3,333.4,283.4,333.4z M285.2,330.6
			c-0.1-1.1-0.7-2.1-2-2.1c-1.1,0-1.9,0.9-2,2.1H285.2z"/>
		<path class="st6" d="M288.7,334h-0.9v-6.2h0.9v1.1c0.4-0.7,1.1-1.2,2.1-1.2c1.5,0,2.4,1,2.4,2.5v3.8h-0.9v-3.6
			c0-1.2-0.6-1.9-1.7-1.9c-1.1,0-1.9,0.8-1.9,1.9V334z"/>
		<path class="st6" d="M297.9,334.2c-1.8,0-3.2-1.5-3.2-3.2c0-1.8,1.4-3.2,3.2-3.2c1.2,0,1.9,0.5,2.5,1.1l-0.6,0.6
			c-0.5-0.5-1-0.9-1.9-0.9c-1.3,0-2.2,1.1-2.2,2.4c0,1.4,1,2.4,2.3,2.4c0.8,0,1.4-0.4,1.9-0.9l0.6,0.6
			C299.8,333.7,299.1,334.2,297.9,334.2z"/>
		<path class="st6" d="M305,334.2c-0.5,1.3-1.1,1.8-2.1,1.8c-0.5,0-0.9-0.1-1.3-0.3l0.3-0.7c0.3,0.2,0.6,0.2,1,0.2
			c0.6,0,0.9-0.3,1.3-1.2l-2.8-6.2h1l2.3,5.2l2-5.2h1L305,334.2z"/>
		<path class="st6" d="M318.1,326.6v0.9l-4.6,2.3l4.6,2.3v0.9l-5.6-2.8v-0.8L318.1,326.6z"/>
		<path class="st6" d="M325.3,325.6h0.7v8.5H325v-7.5l-1.6,0.5l-0.2-0.8L325.3,325.6z"/>
		<path class="st6" d="M331.5,334.2c-2.2,0-3.5-2-3.5-4.3c0-2.4,1.4-4.4,3.6-4.4c2.2,0,3.5,2,3.5,4.3
			C335,332.2,333.6,334.2,331.5,334.2z M331.5,326.4c-1.6,0-2.6,1.6-2.6,3.5c0,1.9,1,3.5,2.6,3.5s2.5-1.6,2.5-3.5
			S333,326.4,331.5,326.4z"/>
		<path class="st6" d="M340,334.2c-2.2,0-3.5-2-3.5-4.3c0-2.4,1.4-4.4,3.6-4.4c2.2,0,3.5,2,3.5,4.3
			C343.6,332.2,342.2,334.2,340,334.2z M340,326.4c-1.6,0-2.6,1.6-2.6,3.5c0,1.9,1,3.5,2.6,3.5s2.5-1.6,2.5-3.5
			S341.6,326.4,340,326.4z"/>
		<path class="st6" d="M352.5,327.7c1.4,0,2.3,1,2.3,2.5v3.8h-0.9v-3.6c0-1.2-0.6-1.9-1.6-1.9c-0.9,0-1.7,0.7-1.7,1.9v3.6h-0.9v-3.6
			c0-1.2-0.6-1.8-1.6-1.8s-1.7,0.8-1.7,2v3.5h-0.9v-6.2h0.9v1c0.4-0.6,1-1.2,2-1.2c1,0,1.7,0.5,2,1.2
			C350.7,328.3,351.4,327.7,352.5,327.7z"/>
		<path class="st6" d="M358.8,334.2c-0.9,0-1.9-0.3-2.6-0.9l0.5-0.7c0.7,0.5,1.4,0.8,2.1,0.8c0.7,0,1.3-0.4,1.3-1v0
			c0-0.6-0.7-0.9-1.5-1.1c-1-0.3-2.1-0.6-2.1-1.8v0c0-1.1,0.9-1.8,2.1-1.8c0.8,0,1.6,0.3,2.2,0.7l-0.4,0.7c-0.6-0.4-1.2-0.6-1.8-0.6
			c-0.7,0-1.2,0.4-1.2,0.9v0c0,0.6,0.8,0.8,1.6,1.1c1,0.3,2,0.7,2,1.8v0C361,333.5,360.1,334.2,358.8,334.2z"/>
		<path class="st8" d="M233.7,348.6c-2.4,0-4.2-1.9-4.2-4.3c0-2.4,1.8-4.4,4.2-4.4c1.5,0,2.4,0.5,3.3,1.3l-0.6,0.7
			c-0.7-0.7-1.5-1.2-2.6-1.2c-1.9,0-3.3,1.5-3.3,3.5s1.4,3.5,3.3,3.5c1.2,0,1.9-0.4,2.7-1.2l0.6,0.6
			C236.2,348,235.2,348.6,233.7,348.6z"/>
		<path class="st8" d="M239.5,348.4h-0.9v-8.8h0.9v3.6c0.4-0.7,1.1-1.2,2.1-1.2c1.5,0,2.4,1,2.4,2.5v3.8h-0.9v-3.6
			c0-1.2-0.6-1.9-1.7-1.9c-1.1,0-1.9,0.8-1.9,1.9V348.4z"/>
		<path class="st8" d="M248.7,347.8c0.9,0,1.5-0.3,2-0.9l0.6,0.5c-0.6,0.7-1.4,1.2-2.6,1.2c-1.7,0-3.1-1.3-3.1-3.2
			c0-1.8,1.3-3.2,3-3.2c1.8,0,2.9,1.5,2.9,3.3c0,0.1,0,0.2,0,0.3h-4.9C246.6,347,247.6,347.8,248.7,347.8z M250.5,345
			c-0.1-1.1-0.7-2.1-2-2.1c-1.1,0-1.9,0.9-2,2.1H250.5z"/>
		<path class="st8" d="M255.8,348.6c-1.8,0-3.2-1.5-3.2-3.2c0-1.8,1.4-3.2,3.2-3.2c1.2,0,1.9,0.5,2.5,1.1l-0.6,0.6
			c-0.5-0.5-1-0.9-1.9-0.9c-1.3,0-2.2,1.1-2.2,2.4c0,1.4,1,2.4,2.3,2.4c0.8,0,1.4-0.4,1.9-0.9l0.6,0.6
			C257.8,348.1,257,348.6,255.8,348.6z"/>
		<path class="st8" d="M265.4,348.4h-1.1l-2.2-2.9l-1.3,1.3v1.6h-0.9v-8.8h0.9v6l3.3-3.5h1.2l-2.6,2.7L265.4,348.4z"/>
		<path class="st8" d="M269.2,347.8c0.9,0,1.5-0.3,2-0.9l0.6,0.5c-0.6,0.7-1.4,1.2-2.6,1.2c-1.7,0-3.1-1.3-3.1-3.2
			c0-1.8,1.3-3.2,3-3.2c1.8,0,2.9,1.5,2.9,3.3c0,0.1,0,0.2,0,0.3H267C267.1,347,268.1,347.8,269.2,347.8z M271,345
			c-0.1-1.1-0.7-2.1-2-2.1c-1.1,0-1.9,0.9-2,2.1H271z"/>
		<path class="st8" d="M278.5,348.4v-1.2c-0.5,0.7-1.2,1.4-2.4,1.4c-1.5,0-3-1.2-3-3.2c0-2,1.5-3.2,3-3.2c1.2,0,1.9,0.6,2.4,1.3
			v-3.7h0.9v8.8H278.5z M276.3,342.9c-1.2,0-2.2,0.9-2.2,2.4c0,1.5,1,2.4,2.2,2.4c1.2,0,2.2-1,2.2-2.4
			C278.5,343.9,277.5,342.9,276.3,342.9z"/>
		<path class="st8" d="M285.5,342.2l-0.7-0.5c0.8-1.1,1.5-1.8,3-1.8c1.5,0,2.6,1,2.6,2.4c0,1.2-0.6,2-2.1,3.3l-2.2,2h4.4v0.9h-5.9
			v-0.7l3-2.7c1.3-1.2,1.8-1.8,1.8-2.6c0-1-0.8-1.6-1.7-1.6C286.8,340.8,286.2,341.3,285.5,342.2z"/>
		<path class="st8" d="M299.4,342.1c1.4,0,2.3,1,2.3,2.5v3.8h-0.9v-3.6c0-1.2-0.6-1.9-1.6-1.9c-0.9,0-1.7,0.7-1.7,1.9v3.6h-0.9v-3.6
			c0-1.2-0.6-1.8-1.6-1.8s-1.7,0.8-1.7,2v3.5h-0.9v-6.2h0.9v1c0.4-0.6,1-1.2,2-1.2c1,0,1.7,0.5,2,1.2
			C297.7,342.7,298.3,342.1,299.4,342.1z"/>
		<path class="st8" d="M307.7,343.4l-0.3-0.8c0.7-0.3,1.4-0.5,2.3-0.5c1.7,0,2.6,0.9,2.6,2.5v3.8h-0.9v-0.9
			c-0.4,0.6-1.2,1.1-2.2,1.1c-1.2,0-2.3-0.6-2.3-1.9c0-1.3,1.1-2,2.7-2c0.8,0,1.4,0.1,1.9,0.3v-0.2c0-1.1-0.7-1.7-1.8-1.7
			C308.8,343,308.2,343.2,307.7,343.4z M307.8,346.6c0,0.8,0.7,1.2,1.6,1.2c1.1,0,2.1-0.7,2.1-1.7v-0.6c-0.5-0.1-1.1-0.3-1.8-0.3
			C308.4,345.3,307.8,345.8,307.8,346.6z"/>
		<path class="st8" d="M317,350.4c-1,0-2-0.3-2.8-0.9l0.4-0.7c0.7,0.5,1.5,0.8,2.4,0.8c1.4,0,2.3-0.8,2.3-2.2v-0.7
			c-0.5,0.7-1.3,1.3-2.4,1.3c-1.5,0-2.9-1.1-2.9-2.9c0-1.8,1.4-2.9,2.9-2.9c1.2,0,1.9,0.6,2.4,1.2v-1.1h0.9v5.1
			C320.2,349.4,318.9,350.4,317,350.4z M317,342.9c-1.2,0-2.1,0.8-2.1,2.1c0,1.3,1,2.1,2.1,2.1c1.2,0,2.3-0.8,2.3-2.1
			C319.3,343.7,318.2,342.9,317,342.9z"/>
		<path class="st8" d="M325,348.6c-1.9,0-3.2-1.5-3.2-3.2c0-1.8,1.4-3.2,3.2-3.2c1.9,0,3.2,1.5,3.2,3.2S326.9,348.6,325,348.6z
			 M325,342.9c-1.3,0-2.3,1.1-2.3,2.4c0,1.3,1,2.4,2.3,2.4c1.3,0,2.3-1.1,2.3-2.4C327.4,344,326.4,342.9,325,342.9z"/>
	</g>
	<g>
		<path class="st9" d="M387.6,327.9h20v20h-20V327.9z"/>
		<path class="st8" d="M392.6,336.2c-0.9,0-1.7,0.8-1.7,1.7c0,0.9,0.8,1.7,1.7,1.7c0.9,0,1.7-0.8,1.7-1.7
			C394.2,337,393.5,336.2,392.6,336.2z M402.6,336.2c-0.9,0-1.7,0.8-1.7,1.7c0,0.9,0.8,1.7,1.7,1.7c0.9,0,1.7-0.8,1.7-1.7
			C404.2,337,403.5,336.2,402.6,336.2z M397.6,336.2c-0.9,0-1.7,0.8-1.7,1.7c0,0.9,0.8,1.7,1.7,1.7c0.9,0,1.7-0.8,1.7-1.7
			C399.2,337,398.5,336.2,397.6,336.2z"/>
	</g>
	<path class="st7" d="M206.4,326.8c-6.1,0-11.1,5-11.1,11.1c0,6.1,5,11.1,11.1,11.1c6.1,0,11.1-5,11.1-11.1
		C217.6,331.8,212.6,326.8,206.4,326.8z M204.9,342.1l-4-4l1.1-1.1l2.8,2.8l6-6l1.1,1.1L204.9,342.1z"/>
	<g>
		<path class="st6" d="M232.8,376.3h-2.9v-8.4h2.9c2.6,0,4.5,1.8,4.5,4.2C237.2,374.4,235.4,376.3,232.8,376.3z M232.8,368.7h-2v6.6
			h2c2.1,0,3.5-1.4,3.5-3.3S234.9,368.7,232.8,368.7z"/>
		<path class="st6" d="M241.9,376.4c-1.9,0-3.2-1.5-3.2-3.2c0-1.8,1.4-3.3,3.2-3.3c1.9,0,3.2,1.5,3.2,3.2
			C245.2,374.9,243.8,376.4,241.9,376.4z M241.9,370.7c-1.3,0-2.3,1.1-2.3,2.4c0,1.3,1,2.4,2.3,2.4c1.3,0,2.3-1.1,2.3-2.4
			C244.2,371.8,243.2,370.7,241.9,370.7z"/>
		<path class="st6" d="M249.6,376.4c-1.8,0-3.2-1.5-3.2-3.2c0-1.8,1.4-3.3,3.2-3.3c1.2,0,1.9,0.5,2.5,1.1l-0.6,0.6
			c-0.5-0.5-1-0.9-1.9-0.9c-1.3,0-2.2,1.1-2.2,2.4c0,1.4,1,2.4,2.3,2.4c0.8,0,1.4-0.4,1.9-0.9l0.6,0.6
			C251.5,375.9,250.8,376.4,249.6,376.4z"/>
		<path class="st6" d="M259.2,376.3h-1.1l-2.2-2.9l-1.3,1.3v1.6h-0.9v-8.8h0.9v6l3.3-3.5h1.2l-2.6,2.7L259.2,376.3z"/>
		<path class="st6" d="M262.9,375.6c0.9,0,1.5-0.3,2-0.9l0.6,0.5c-0.6,0.7-1.4,1.2-2.6,1.2c-1.7,0-3.1-1.3-3.1-3.2
			c0-1.8,1.3-3.2,3-3.2c1.8,0,2.9,1.5,2.9,3.3c0,0.1,0,0.2,0,0.3h-4.9C260.9,374.8,261.9,375.6,262.9,375.6z M264.8,372.8
			c-0.1-1.1-0.7-2.1-2-2.1c-1.1,0-1.9,0.9-2,2.1H264.8z"/>
		<path class="st6" d="M268.2,376.3h-0.9v-6.2h0.9v1.6c0.5-1,1.4-1.8,2.5-1.7v1h-0.1c-1.4,0-2.5,1-2.5,2.8V376.3z"/>
		<path class="st6" d="M272.1,371.3v-1.3h1.1v1.3H272.1z M272.1,376.3V375h1.1v1.3H272.1z"/>
		<path class="st6" d="M279.8,376.3h-0.9v-6.2h0.9v1.6c0.5-1,1.4-1.8,2.5-1.7v1h-0.1c-1.4,0-2.5,1-2.5,2.8V376.3z"/>
		<path class="st6" d="M288.1,370.1h0.9v6.2h-0.9v-1.1c-0.4,0.7-1.1,1.2-2.1,1.2c-1.5,0-2.4-1-2.4-2.5v-3.8h0.9v3.6
			c0,1.2,0.6,1.9,1.7,1.9c1.1,0,1.9-0.8,1.9-1.9V370.1z"/>
		<path class="st6" d="M292,376.3h-0.9v-6.2h0.9v1.1c0.4-0.7,1.1-1.2,2.1-1.2c1.5,0,2.4,1,2.4,2.5v3.8h-0.9v-3.6
			c0-1.2-0.6-1.9-1.7-1.9c-1.1,0-1.9,0.8-1.9,1.9V376.3z"/>
		<path class="st6" d="M299.4,376.3h-0.9v-6.2h0.9v1.1c0.4-0.7,1.1-1.2,2.1-1.2c1.5,0,2.4,1,2.4,2.5v3.8H303v-3.6
			c0-1.2-0.6-1.9-1.7-1.9c-1.1,0-1.9,0.8-1.9,1.9V376.3z"/>
		<path class="st6" d="M305.9,368.7v-1h1.1v1H305.9z M306,376.3v-6.2h0.9v6.2H306z"/>
		<path class="st6" d="M310,376.3H309v-6.2h0.9v1.1c0.4-0.7,1.1-1.2,2.1-1.2c1.5,0,2.4,1,2.4,2.5v3.8h-0.9v-3.6
			c0-1.2-0.6-1.9-1.7-1.9c-1.1,0-1.9,0.8-1.9,1.9V376.3z"/>
		<path class="st6" d="M319.2,378.2c-1,0-2-0.3-2.8-0.9l0.4-0.7c0.7,0.5,1.5,0.8,2.4,0.8c1.4,0,2.3-0.8,2.3-2.2v-0.7
			c-0.5,0.7-1.3,1.3-2.4,1.3c-1.5,0-2.9-1.1-2.9-2.9c0-1.8,1.4-2.9,2.9-2.9c1.2,0,1.9,0.6,2.4,1.2v-1.1h0.9v5.1
			C322.3,377.2,321.1,378.2,319.2,378.2z M319.2,370.7c-1.2,0-2.1,0.8-2.1,2.1c0,1.3,1,2.1,2.1,2.1c1.2,0,2.3-0.8,2.3-2.1
			C321.4,371.6,320.3,370.7,319.2,370.7z"/>
		<path class="st8" d="M233.7,390.8c-2.4,0-4.2-1.9-4.2-4.3c0-2.4,1.8-4.4,4.2-4.4c1.5,0,2.4,0.5,3.3,1.3l-0.6,0.7
			c-0.7-0.7-1.5-1.2-2.6-1.2c-1.9,0-3.3,1.5-3.3,3.5s1.4,3.5,3.3,3.5c1.2,0,1.9-0.4,2.7-1.2l0.6,0.6
			C236.2,390.2,235.2,390.8,233.7,390.8z"/>
		<path class="st8" d="M239.5,390.7h-0.9v-8.8h0.9v3.6c0.4-0.7,1.1-1.2,2.1-1.2c1.5,0,2.4,1,2.4,2.5v3.8h-0.9V387
			c0-1.2-0.6-1.9-1.7-1.9c-1.1,0-1.9,0.8-1.9,1.9V390.7z"/>
		<path class="st8" d="M248.7,390c0.9,0,1.5-0.3,2-0.9l0.6,0.5c-0.6,0.7-1.4,1.2-2.6,1.2c-1.7,0-3.1-1.3-3.1-3.2
			c0-1.8,1.3-3.2,3-3.2c1.8,0,2.9,1.5,2.9,3.3c0,0.1,0,0.2,0,0.3h-4.9C246.6,389.2,247.6,390,248.7,390z M250.5,387.2
			c-0.1-1.1-0.7-2.1-2-2.1c-1.1,0-1.9,0.9-2,2.1H250.5z"/>
		<path class="st8" d="M255.8,390.8c-1.8,0-3.2-1.5-3.2-3.2c0-1.8,1.4-3.3,3.2-3.3c1.2,0,1.9,0.5,2.5,1.1l-0.6,0.6
			c-0.5-0.5-1-0.9-1.9-0.9c-1.3,0-2.2,1.1-2.2,2.4c0,1.4,1,2.4,2.3,2.4c0.8,0,1.4-0.4,1.9-0.9l0.6,0.6
			C257.8,390.3,257,390.8,255.8,390.8z"/>
		<path class="st8" d="M265.4,390.7h-1.1l-2.2-2.9l-1.3,1.3v1.6h-0.9v-8.8h0.9v6l3.3-3.5h1.2l-2.6,2.7L265.4,390.7z"/>
		<path class="st8" d="M269.2,390c0.9,0,1.5-0.3,2-0.9l0.6,0.5c-0.6,0.7-1.4,1.2-2.6,1.2c-1.7,0-3.1-1.3-3.1-3.2
			c0-1.8,1.3-3.2,3-3.2c1.8,0,2.9,1.5,2.9,3.3c0,0.1,0,0.2,0,0.3H267C267.1,389.2,268.1,390,269.2,390z M271,387.2
			c-0.1-1.1-0.7-2.1-2-2.1c-1.1,0-1.9,0.9-2,2.1H271z"/>
		<path class="st8" d="M278.5,390.7v-1.2c-0.5,0.7-1.2,1.4-2.4,1.4c-1.5,0-3-1.2-3-3.2c0-2,1.5-3.2,3-3.2c1.2,0,1.9,0.6,2.4,1.3
			v-3.7h0.9v8.8H278.5z M276.3,385.2c-1.2,0-2.2,0.9-2.2,2.4c0,1.5,1,2.4,2.2,2.4c1.2,0,2.2-1,2.2-2.4
			C278.5,386.1,277.5,385.2,276.3,385.2z"/>
		<path class="st8" d="M286.5,382.2h0.7v8.5h-0.9v-7.5l-1.6,0.5l-0.2-0.8L286.5,382.2z"/>
		<path class="st8" d="M291.9,390.8c-1.1,0-1.9-0.4-2.6-1l0.6-0.7c0.7,0.6,1.3,0.9,2.1,0.9c1.5,0,2.5-1.5,2.5-3.7
			c-0.5,0.7-1.2,1.3-2.4,1.3c-1.7,0-2.9-1.1-2.9-2.6c0-1.6,1.2-2.9,3-2.9c1,0,1.7,0.3,2.2,0.9c0.7,0.7,1,1.6,1,3.3
			C295.4,388.9,294,390.8,291.9,390.8z M292.1,383c-1.3,0-2,0.9-2,2c0,1.1,0.8,1.8,2.1,1.8c1.3,0,2.1-0.9,2.1-1.9
			C294.2,383.8,293.4,383,292.1,383z"/>
		<path class="st8" d="M304.3,384.3c1.4,0,2.3,1,2.3,2.5v3.8h-0.9V387c0-1.2-0.6-1.9-1.6-1.9c-0.9,0-1.7,0.7-1.7,1.9v3.6h-0.9V387
			c0-1.2-0.6-1.8-1.6-1.8s-1.7,0.8-1.7,2v3.5h-0.9v-6.2h0.9v1c0.4-0.6,1-1.2,2-1.2c1,0,1.7,0.5,2,1.2
			C302.5,384.9,303.2,384.3,304.3,384.3z"/>
		<path class="st8" d="M312.5,385.6l-0.3-0.8c0.7-0.3,1.4-0.5,2.3-0.5c1.7,0,2.6,0.9,2.6,2.5v3.8h-0.9v-0.9
			c-0.4,0.6-1.2,1.1-2.2,1.1c-1.2,0-2.3-0.6-2.3-1.9c0-1.3,1.1-2,2.7-2c0.8,0,1.4,0.1,1.9,0.3v-0.2c0-1.1-0.7-1.7-1.8-1.7
			C313.7,385.2,313.1,385.4,312.5,385.6z M312.6,388.8c0,0.8,0.7,1.2,1.6,1.2c1.1,0,2.1-0.7,2.1-1.7v-0.6c-0.5-0.1-1.1-0.3-1.8-0.3
			C313.3,387.5,312.6,388,312.6,388.8z"/>
		<path class="st8" d="M321.9,392.6c-1,0-2-0.3-2.8-0.9l0.4-0.7c0.7,0.5,1.5,0.8,2.4,0.8c1.4,0,2.3-0.8,2.3-2.2v-0.7
			c-0.5,0.7-1.3,1.3-2.4,1.3c-1.5,0-2.9-1.1-2.9-2.9c0-1.8,1.4-2.9,2.9-2.9c1.2,0,1.9,0.6,2.4,1.2v-1.1h0.9v5.1
			C325,391.6,323.8,392.6,321.9,392.6z M321.9,385.1c-1.2,0-2.1,0.8-2.1,2.1c0,1.3,1,2.1,2.1,2.1c1.2,0,2.3-0.8,2.3-2.1
			C324.1,386,323,385.1,321.9,385.1z"/>
		<path class="st8" d="M329.9,390.8c-1.9,0-3.2-1.5-3.2-3.2c0-1.8,1.4-3.3,3.2-3.3c1.9,0,3.2,1.5,3.2,3.2
			C333.2,389.3,331.8,390.8,329.9,390.8z M329.9,385.1c-1.3,0-2.3,1.1-2.3,2.4c0,1.3,1,2.4,2.3,2.4c1.3,0,2.3-1.1,2.3-2.4
			C332.2,386.2,331.2,385.1,329.9,385.1z"/>
	</g>
	<g>
		<path class="st9" d="M387.6,370.1h20v20h-20V370.1z"/>
		<path class="st8" d="M392.6,378.5c-0.9,0-1.7,0.8-1.7,1.7s0.8,1.7,1.7,1.7c0.9,0,1.7-0.8,1.7-1.7S393.5,378.5,392.6,378.5z
			 M402.6,378.5c-0.9,0-1.7,0.8-1.7,1.7s0.8,1.7,1.7,1.7c0.9,0,1.7-0.8,1.7-1.7S403.5,378.5,402.6,378.5z M397.6,378.5
			c-0.9,0-1.7,0.8-1.7,1.7s0.8,1.7,1.7,1.7c0.9,0,1.7-0.8,1.7-1.7S398.5,378.5,397.6,378.5z"/>
	</g>
	<path class="st7" d="M206.4,369c-6.1,0-11.1,5-11.1,11.1c0,6.1,5,11.1,11.1,11.1c6.1,0,11.1-5,11.1-11.1
		C217.6,374,212.6,369,206.4,369z M204.9,384.3l-4-4l1.1-1.1l2.8,2.8l6-6l1.1,1.1L204.9,384.3z"/>
</g>
</svg>
