<?xml version="1.0" encoding="utf-8"?>
<!-- Generator: Adobe Illustrator 19.1.0, SVG Export Plug-In . SVG Version: 6.00 Build 0)  -->
<svg version="1.1" id="Layer_1" xmlns="http://www.w3.org/2000/svg" xmlns:xlink="http://www.w3.org/1999/xlink" x="0px" y="0px"
	 viewBox="148 -138 320 320" style="enable-background:new 148 -138 320 320;" xml:space="preserve">
<style type="text/css">
	.st0{fill-rule:evenodd;clip-rule:evenodd;fill:#607D8B;}
	.st1{fill:#607D8B;}
	.st2{fill:#F57C00;}
	.st3{fill-rule:evenodd;clip-rule:evenodd;fill:#F57C00;}
</style>
<circle class="st0" cx="308" cy="96" r="18"/>
<circle class="st0" cx="258" cy="96" r="18"/>
<circle class="st0" cx="358" cy="96" r="18"/>
<g>
	<path class="st1" d="M352.1,141.3h-4.4v-3h4.4c0.5,0,1.1,0,1.6,0l0.1,3C353.3,141.3,352.7,141.3,352.1,141.3z M341.6,141.3h-6.1v-3
		h6.1V141.3z M329.4,141.3h-6.1v-3h6.1V141.3z M317.2,141.3h-6.1v-3h6.1V141.3z M305.1,141.3H299v-3h6.1V141.3z M292.9,141.3h-6.1
		v-3h6.1V141.3z M280.7,141.3h-6.1v-3h6.1V141.3z M268.5,141.3h-4.6c-0.5,0-1,0-1.5,0l0.1-3c0.5,0,0.9,0,1.4,0h4.6V141.3z
		 M256.1,140.5c-2.1-0.4-4.1-1.1-6.1-1.8l1.1-2.8c1.8,0.7,3.7,1.3,5.6,1.7L256.1,140.5z M360.1,140.5l-0.6-2.9
		c1.9-0.4,3.8-1,5.6-1.7l1.1,2.8C364.2,139.4,362.2,140,360.1,140.5z M244.4,135.8c-1.8-1.1-3.5-2.4-5.1-3.8l2-2.3
		c1.5,1.3,3,2.4,4.7,3.5L244.4,135.8z M371.8,135.7l-1.6-2.5c1.6-1,3.2-2.2,4.7-3.5l2,2.2C375.3,133.3,373.6,134.6,371.8,135.7z
		 M234.9,127.5c-1.3-1.6-2.5-3.4-3.6-5.2l2.6-1.5c1,1.7,2.1,3.3,3.3,4.8L234.9,127.5z M381.3,127.3l-2.3-1.9
		c1.2-1.5,2.3-3.1,3.3-4.8l2.6,1.5C383.8,123.9,382.6,125.7,381.3,127.3z M228.7,116.5c-0.7-2-1.3-4-1.6-6.1l3-0.5
		c0.3,1.9,0.8,3.8,1.5,5.6L228.7,116.5z M387.4,116.3l-2.8-1c0.6-1.8,1.1-3.7,1.5-5.6l3,0.5C388.6,112.3,388.1,114.3,387.4,116.3z
		 M229.5,104.1h-3l0-0.1c0-2.1,0.2-4.3,0.5-6.3l3,0.5c-0.3,1.9-0.5,3.9-0.5,5.8L229.5,104.1z M386.5,103.9c0-1.9-0.2-3.9-0.5-5.8
		l3-0.5c0.4,2.1,0.5,4.2,0.5,6.3L386.5,103.9z M231.4,92.5l-2.8-1c0.7-2,1.6-3.9,2.6-5.8l2.6,1.5C232.9,88.9,232.1,90.7,231.4,92.5z
		 M384.5,92.4c-0.6-1.8-1.5-3.6-2.4-5.3l2.6-1.5c1,1.8,1.9,3.8,2.6,5.8L384.5,92.4z M237.1,82.4l-2.3-1.9c1.3-1.6,2.8-3.2,4.4-4.6
		l2,2.2C239.7,79.4,238.3,80.8,237.1,82.4z M378.8,82.3c-1.2-1.5-2.6-2.9-4-4.2l2-2.3c1.6,1.4,3.1,2.9,4.4,4.6L378.8,82.3z
		 M245.8,74.7l-1.6-2.6c1.8-1.1,3.7-2.1,5.6-2.9L251,72C249.2,72.8,247.5,73.6,245.8,74.7z M370.1,74.6c-1.7-1-3.4-1.9-5.2-2.6
		l1.1-2.8c2,0.8,3.9,1.7,5.7,2.9L370.1,74.6z M256.6,70.3l-0.6-2.9c2.1-0.4,4.2-0.7,6.3-0.8l0.1,3C260.4,69.7,258.5,69.9,256.6,70.3
		z M359.3,70.3c-1.9-0.4-3.8-0.7-5.8-0.7l0.1-3c2.1,0.1,4.2,0.4,6.3,0.8L359.3,70.3z M347.5,69.5h-6.1v-3h6.1V69.5z M335.4,69.5
		h-6.1v-3h6.1V69.5z M323.2,69.5h-6.1v-3h6.1V69.5z M311,69.5h-6.1v-3h6.1V69.5z M298.8,69.5h-6.1v-3h6.1V69.5z M286.6,69.5h-6.1v-3
		h6.1V69.5z M274.5,69.5h-6.1v-3h6.1V69.5z"/>
</g>
<g>
	<g>
		<path class="st2" d="M287.1-54.8h-4.7v-9.8h4.6c2,0,3.2,1,3.2,2.5v0c0,1.1-0.6,1.7-1.3,2.1c1.1,0.4,1.8,1.1,1.8,2.4v0
			C290.8-55.7,289.3-54.8,287.1-54.8z M288.1-61.7c0-0.6-0.5-1-1.4-1h-2.1v2.1h2C287.5-60.6,288.1-60.9,288.1-61.7L288.1-61.7z
			 M288.6-57.8c0-0.7-0.5-1.1-1.6-1.1h-2.5v2.2h2.6C288.1-56.7,288.6-57,288.6-57.8L288.6-57.8z"/>
		<path class="st2" d="M296.7-54.8v-0.8c-0.5,0.6-1.2,1-2.3,1c-1.4,0-2.6-0.8-2.6-2.3v0c0-1.6,1.2-2.4,3-2.4c0.8,0,1.3,0.1,1.8,0.3
			v-0.1c0-0.9-0.5-1.4-1.6-1.4c-0.8,0-1.4,0.2-2.1,0.4l-0.5-1.6c0.8-0.4,1.6-0.6,2.9-0.6c2.3,0,3.3,1.2,3.3,3.2v4.4H296.7z
			 M296.8-57.8c-0.4-0.2-0.8-0.3-1.4-0.3c-0.9,0-1.5,0.4-1.5,1v0c0,0.6,0.5,0.9,1.2,0.9c1,0,1.7-0.5,1.7-1.3V-57.8z"/>
		<path class="st2" d="M303.2-54.6c-1.1,0-2.2-0.4-3.2-1.1l0.9-1.4c0.8,0.6,1.7,0.9,2.4,0.9c0.6,0,0.9-0.2,0.9-0.6v0
			c0-0.5-0.7-0.6-1.6-0.9c-1.1-0.3-2.2-0.8-2.2-2.3v0c0-1.5,1.2-2.4,2.7-2.4c1,0,2,0.3,2.8,0.9l-0.8,1.5c-0.7-0.4-1.5-0.7-2-0.7
			c-0.5,0-0.8,0.2-0.8,0.5v0c0,0.4,0.7,0.6,1.5,0.9c1,0.4,2.3,0.9,2.3,2.2v0C306.1-55.4,304.9-54.6,303.2-54.6z"/>
		<path class="st2" d="M310.2-54.7c-1.3,0-2.2-0.5-2.2-2.3v-3.6h-0.9v-1.8h0.9v-1.9h2.1v1.9h1.8v1.8h-1.8v3.2c0,0.5,0.2,0.7,0.7,0.7
			c0.4,0,0.7-0.1,1.1-0.3v1.7C311.4-54.8,310.9-54.7,310.2-54.7z"/>
		<path class="st2" d="M313.5-63.1V-65h2.2v1.9H313.5z M313.5-54.8v-7.5h2.1v7.5H313.5z"/>
		<path class="st2" d="M321.4-54.6c-2.3,0-4-1.7-4-3.9v0c0-2.2,1.7-3.9,4.1-3.9c2.3,0,4,1.7,4,3.9v0
			C325.4-56.4,323.7-54.6,321.4-54.6z M323.3-58.5c0-1.1-0.8-2.1-2-2.1c-1.2,0-1.9,0.9-1.9,2v0c0,1.1,0.8,2.1,2,2.1
			C322.6-56.4,323.3-57.4,323.3-58.5L323.3-58.5z"/>
		<path class="st2" d="M331.7-54.8V-59c0-1-0.5-1.5-1.3-1.5s-1.3,0.5-1.3,1.5v4.2H327v-7.5h2.1v1.1c0.5-0.6,1.1-1.2,2.2-1.2
			c1.6,0,2.5,1.1,2.5,2.8v4.9H331.7z"/>
		<path class="st2" d="M279.3-38v-9.8h2.2v9.8H279.3z"/>
		<path class="st2" d="M288.5-38v-4.2c0-1-0.5-1.5-1.3-1.5s-1.3,0.5-1.3,1.5v4.2h-2.1v-7.5h2.1v1.1c0.5-0.6,1.1-1.2,2.2-1.2
			c1.6,0,2.5,1.1,2.5,2.8v4.9H288.5z"/>
		<path class="st2" d="M295.1-37.8c-1.1,0-2.2-0.4-3.2-1.1l0.9-1.4c0.8,0.6,1.7,0.9,2.4,0.9c0.6,0,0.9-0.2,0.9-0.6v0
			c0-0.5-0.7-0.6-1.6-0.9c-1.1-0.3-2.2-0.8-2.2-2.3v0c0-1.5,1.2-2.4,2.7-2.4c1,0,2,0.3,2.8,0.9l-0.8,1.5c-0.7-0.4-1.5-0.7-2-0.7
			c-0.5,0-0.8,0.2-0.8,0.5v0c0,0.4,0.7,0.6,1.5,0.9c1,0.4,2.3,0.9,2.3,2.2v0C298-38.6,296.7-37.8,295.1-37.8z"/>
		<path class="st2" d="M302-37.9c-1.3,0-2.2-0.5-2.2-2.3v-3.6h-0.9v-1.8h0.9v-1.9h2.1v1.9h1.8v1.8H302v3.2c0,0.5,0.2,0.7,0.7,0.7
			c0.4,0,0.7-0.1,1.1-0.3v1.7C303.2-38,302.7-37.9,302-37.9z"/>
		<path class="st2" d="M309.7-38v-0.8c-0.5,0.6-1.2,1-2.3,1c-1.4,0-2.6-0.8-2.6-2.3v0c0-1.6,1.2-2.4,3-2.4c0.8,0,1.3,0.1,1.8,0.3
			v-0.1c0-0.9-0.5-1.4-1.6-1.4c-0.8,0-1.4,0.2-2.1,0.4l-0.5-1.6c0.8-0.4,1.6-0.6,2.9-0.6c2.3,0,3.3,1.2,3.3,3.2v4.4H309.7z
			 M309.7-41c-0.4-0.2-0.8-0.3-1.4-0.3c-0.9,0-1.5,0.4-1.5,1v0c0,0.6,0.5,0.9,1.2,0.9c1,0,1.7-0.5,1.7-1.3V-41z"/>
		<path class="st2" d="M318.3-38v-4.2c0-1-0.5-1.5-1.3-1.5s-1.3,0.5-1.3,1.5v4.2h-2.1v-7.5h2.1v1.1c0.5-0.6,1.1-1.2,2.2-1.2
			c1.6,0,2.5,1.1,2.5,2.8v4.9H318.3z"/>
		<path class="st2" d="M325.8-37.8c-2.3,0-3.9-1.7-3.9-3.9v0c0-2.1,1.6-3.9,3.9-3.9c1.4,0,2.3,0.5,3,1.3l-1.3,1.4
			c-0.5-0.5-1-0.8-1.7-0.8c-1.1,0-1.8,0.9-1.8,2v0c0,1.1,0.7,2.1,1.9,2.1c0.7,0,1.2-0.3,1.7-0.8l1.2,1.3
			C328.2-38.4,327.3-37.8,325.8-37.8z"/>
		<path class="st2" d="M337.3-41H332c0.2,1,0.9,1.5,1.8,1.5c0.7,0,1.2-0.2,1.8-0.8l1.2,1.1c-0.7,0.9-1.7,1.4-3.1,1.4
			c-2.3,0-3.9-1.6-3.9-3.9v0c0-2.1,1.5-3.9,3.7-3.9c2.5,0,3.7,1.9,3.7,4.1v0C337.3-41.3,337.3-41.2,337.3-41z M333.6-43.9
			c-0.9,0-1.5,0.6-1.6,1.6h3.2C335.1-43.3,334.5-43.9,333.6-43.9z"/>
	</g>
</g>
<g>
	<path class="st1" d="M275.8,130.3v-9.8h2.2v9.8H275.8z"/>
	<path class="st1" d="M285,130.3v-4.2c0-1-0.5-1.5-1.3-1.5c-0.8,0-1.3,0.5-1.3,1.5v4.2h-2.1v-7.5h2.1v1.1c0.5-0.6,1.1-1.2,2.2-1.2
		c1.6,0,2.5,1.1,2.5,2.8v4.9H285z"/>
	<path class="st1" d="M291.6,130.4c-1.1,0-2.2-0.3-3.2-1.1l0.9-1.4c0.8,0.6,1.7,0.9,2.4,0.9c0.6,0,0.9-0.2,0.9-0.6v0
		c0-0.5-0.7-0.6-1.6-0.9c-1.1-0.3-2.2-0.8-2.2-2.3v0c0-1.5,1.2-2.4,2.7-2.4c1,0,2,0.3,2.8,0.9l-0.8,1.5c-0.7-0.4-1.5-0.7-2-0.7
		c-0.5,0-0.8,0.2-0.8,0.5v0c0,0.4,0.7,0.6,1.5,0.9c1.1,0.4,2.3,0.9,2.3,2.2v0C294.4,129.6,293.2,130.4,291.6,130.4z"/>
	<path class="st1" d="M298.5,130.4c-1.3,0-2.2-0.5-2.2-2.3v-3.6h-0.9v-1.8h0.9v-1.9h2.1v1.9h1.8v1.8h-1.8v3.2c0,0.5,0.2,0.7,0.7,0.7
		c0.4,0,0.7-0.1,1-0.3v1.7C299.7,130.2,299.2,130.4,298.5,130.4z"/>
	<path class="st1" d="M306.2,130.3v-0.8c-0.5,0.6-1.2,1-2.3,1c-1.4,0-2.6-0.8-2.6-2.3v0c0-1.6,1.2-2.4,3-2.4c0.8,0,1.3,0.1,1.8,0.3
		v-0.1c0-0.9-0.5-1.4-1.6-1.4c-0.8,0-1.4,0.2-2.1,0.4l-0.5-1.6c0.8-0.4,1.6-0.6,2.9-0.6c2.3,0,3.3,1.2,3.3,3.2v4.4H306.2z
		 M306.2,127.2c-0.4-0.2-0.8-0.3-1.4-0.3c-0.9,0-1.5,0.4-1.5,1v0c0,0.6,0.5,0.9,1.2,0.9c1,0,1.7-0.5,1.7-1.3V127.2z"/>
	<path class="st1" d="M314.8,130.3v-4.2c0-1-0.5-1.5-1.3-1.5s-1.3,0.5-1.3,1.5v4.2h-2.1v-7.5h2.1v1.1c0.5-0.6,1.1-1.2,2.2-1.2
		c1.6,0,2.5,1.1,2.5,2.8v4.9H314.8z"/>
	<path class="st1" d="M322.3,130.4c-2.3,0-3.9-1.7-3.9-3.9v0c0-2.1,1.6-3.9,3.9-3.9c1.4,0,2.3,0.5,3,1.3l-1.3,1.4
		c-0.5-0.5-1-0.8-1.7-0.8c-1.1,0-1.8,0.9-1.8,2v0c0,1.1,0.7,2.1,1.9,2.1c0.7,0,1.2-0.3,1.7-0.8l1.2,1.3
		C324.7,129.9,323.8,130.4,322.3,130.4z"/>
	<path class="st1" d="M333.8,127.2h-5.2c0.2,1,0.9,1.5,1.8,1.5c0.7,0,1.2-0.2,1.8-0.8l1.2,1.1c-0.7,0.9-1.7,1.4-3.1,1.4
		c-2.3,0-3.9-1.6-3.9-3.9v0c0-2.1,1.5-3.9,3.7-3.9c2.5,0,3.7,1.9,3.7,4.1v0C333.8,126.9,333.8,127.1,333.8,127.2z M330.1,124.3
		c-0.9,0-1.5,0.6-1.6,1.6h3.2C331.6,125,331,124.3,330.1,124.3z"/>
	<path class="st1" d="M338,130.4c-1.1,0-2.2-0.3-3.2-1.1l0.9-1.4c0.8,0.6,1.7,0.9,2.4,0.9c0.6,0,0.9-0.2,0.9-0.6v0
		c0-0.5-0.7-0.6-1.6-0.9c-1.1-0.3-2.2-0.8-2.2-2.3v0c0-1.5,1.2-2.4,2.7-2.4c1,0,2,0.3,2.8,0.9l-0.8,1.5c-0.7-0.4-1.5-0.7-2-0.7
		c-0.5,0-0.8,0.2-0.8,0.5v0c0,0.4,0.7,0.6,1.5,0.9c1.1,0.4,2.3,0.9,2.3,2.2v0C340.9,129.6,339.6,130.4,338,130.4z"/>
</g>
<g>
	<g>
		<path class="st1" d="M287.4,153.2c2.2,0.5,3.2,1.3,3.2,2.8c0,1.7-1.4,2.8-3.3,2.8c-1.6,0-2.8-0.5-4-1.6l0.7-0.8
			c1,0.9,2,1.4,3.4,1.4c1.3,0,2.2-0.7,2.2-1.7c0-0.9-0.5-1.4-2.5-1.9c-2.3-0.5-3.3-1.2-3.3-2.8c0-1.6,1.4-2.7,3.2-2.7
			c1.4,0,2.5,0.4,3.4,1.2l-0.6,0.9c-0.9-0.7-1.8-1.1-2.8-1.1c-1.3,0-2.1,0.7-2.1,1.6C284.7,152.2,285.2,152.7,287.4,153.2z"/>
		<path class="st1" d="M295.8,157.8c1,0,1.7-0.4,2.3-1l0.7,0.6c-0.7,0.8-1.6,1.4-3,1.4c-2,0-3.6-1.5-3.6-3.8c0-2.1,1.5-3.8,3.5-3.8
			c2.1,0,3.4,1.7,3.4,3.8c0,0.1,0,0.2,0,0.3h-5.7C293.4,156.9,294.5,157.8,295.8,157.8z M297.9,154.6c-0.1-1.3-0.9-2.5-2.3-2.5
			c-1.3,0-2.2,1.1-2.4,2.5H297.9z"/>
		<path class="st1" d="M302,158.6h-1.1v-7.2h1.1v1.9c0.5-1.2,1.6-2.1,3-2v1.2h-0.1c-1.6,0-2.9,1.1-2.9,3.3V158.6z"/>
		<path class="st1" d="M311.9,151.4h1.2l-3.2,7.3h-1l-3.1-7.3h1.2l2.4,6L311.9,151.4z"/>
		<path class="st1" d="M314.8,149.8v-1.2h1.2v1.2H314.8z M314.9,158.6v-7.2h1.1v7.2H314.9z"/>
		<path class="st1" d="M321.7,158.8c-2.1,0-3.7-1.7-3.7-3.8c0-2.1,1.6-3.8,3.7-3.8c1.4,0,2.2,0.6,2.9,1.3l-0.7,0.8
			c-0.6-0.6-1.2-1.1-2.2-1.1c-1.5,0-2.6,1.2-2.6,2.8c0,1.6,1.1,2.8,2.7,2.8c0.9,0,1.6-0.5,2.2-1.1l0.7,0.6
			C324,158.2,323.1,158.8,321.7,158.8z"/>
		<path class="st1" d="M329.7,157.8c1,0,1.7-0.4,2.3-1l0.7,0.6c-0.7,0.8-1.6,1.4-3,1.4c-2,0-3.6-1.5-3.6-3.8c0-2.1,1.5-3.8,3.5-3.8
			c2.1,0,3.4,1.7,3.4,3.8c0,0.1,0,0.2,0,0.3h-5.7C327.3,156.9,328.4,157.8,329.7,157.8z M331.8,154.6c-0.1-1.3-0.9-2.5-2.3-2.5
			c-1.3,0-2.2,1.1-2.4,2.5H331.8z"/>
	</g>
</g>
<circle class="st3" cx="308" cy="-93" r="18"/>
<g>
	<path class="st1" d="M339.3,13.8V9.9h-4v3.9h-2.2V4h2.2v3.9h4V4h2.2v9.8H339.3z"/>
	<path class="st1" d="M350.6,10.8h-5.2c0.2,1,0.9,1.5,1.8,1.5c0.7,0,1.2-0.2,1.8-0.8l1.2,1.1c-0.7,0.9-1.7,1.4-3.1,1.4
		c-2.3,0-3.9-1.6-3.9-3.9v0c0-2.1,1.5-3.9,3.7-3.9c2.5,0,3.7,1.9,3.7,4.1v0C350.6,10.5,350.6,10.6,350.6,10.8z M346.9,7.9
		c-0.9,0-1.5,0.6-1.6,1.6h3.2C348.4,8.5,347.8,7.9,346.9,7.9z"/>
	<path class="st1" d="M356.6,13.8V13c-0.5,0.6-1.2,1-2.3,1c-1.4,0-2.6-0.8-2.6-2.3v0c0-1.6,1.2-2.4,3-2.4c0.8,0,1.3,0.1,1.8,0.3V9.4
		c0-0.9-0.5-1.4-1.6-1.4c-0.8,0-1.4,0.2-2.1,0.4l-0.5-1.6c0.8-0.4,1.6-0.6,2.9-0.6c2.3,0,3.3,1.2,3.3,3.2v4.4H356.6z M356.6,10.8
		c-0.4-0.2-0.8-0.3-1.4-0.3c-0.9,0-1.5,0.4-1.5,1v0c0,0.6,0.5,0.9,1.2,0.9c1,0,1.7-0.5,1.7-1.3V10.8z"/>
	<path class="st1" d="M360.6,13.8V3.6h2.1v10.2H360.6z"/>
	<path class="st1" d="M367.2,14c-1.3,0-2.2-0.5-2.2-2.3V8.1h-0.9V6.3h0.9V4.4h2.1v1.9h1.8v1.8h-1.8v3.2c0,0.5,0.2,0.7,0.7,0.7
		c0.4,0,0.7-0.1,1.1-0.3v1.7C368.5,13.8,367.9,14,367.2,14z"/>
	<path class="st1" d="M375.2,13.8V9.6c0-1-0.5-1.5-1.3-1.5s-1.3,0.5-1.3,1.5v4.2h-2.1V3.6h2.1v3.8c0.5-0.6,1.1-1.2,2.2-1.2
		c1.6,0,2.5,1.1,2.5,2.8v4.9H375.2z"/>
	<path class="st1" d="M388.2,14c-2.9,0-5-2.2-5-5v0c0-2.8,2.1-5.1,5.1-5.1c1.8,0,3,0.6,3.9,1.5l-1.4,1.6c-0.8-0.7-1.5-1.1-2.5-1.1
		c-1.7,0-2.8,1.4-2.8,3.1v0c0,1.7,1.2,3.1,2.8,3.1c1.1,0,1.8-0.4,2.6-1.1l1.4,1.4C391.3,13.3,390.1,14,388.2,14z"/>
	<path class="st1" d="M398.5,13.8V9.6c0-1-0.5-1.5-1.3-1.5s-1.3,0.5-1.3,1.5v4.2h-2.1V3.6h2.1v3.8c0.5-0.6,1.1-1.2,2.2-1.2
		c1.6,0,2.5,1.1,2.5,2.8v4.9H398.5z"/>
	<path class="st1" d="M409.5,10.8h-5.2c0.2,1,0.9,1.5,1.8,1.5c0.7,0,1.2-0.2,1.8-0.8l1.2,1.1c-0.7,0.9-1.7,1.4-3.1,1.4
		c-2.3,0-3.9-1.6-3.9-3.9v0c0-2.1,1.5-3.9,3.7-3.9c2.5,0,3.7,1.9,3.7,4.1v0C409.5,10.5,409.5,10.6,409.5,10.8z M405.8,7.9
		c-0.9,0-1.5,0.6-1.6,1.6h3.2C407.3,8.5,406.7,7.9,405.8,7.9z"/>
	<path class="st1" d="M414.6,14c-2.3,0-3.9-1.7-3.9-3.9v0c0-2.1,1.6-3.9,3.9-3.9c1.4,0,2.3,0.5,3,1.3l-1.3,1.4
		c-0.5-0.5-1-0.8-1.7-0.8c-1.1,0-1.8,0.9-1.8,2v0c0,1.1,0.7,2.1,1.9,2.1c0.7,0,1.2-0.3,1.7-0.8l1.2,1.3
		C416.9,13.4,416.1,14,414.6,14z"/>
	<path class="st1" d="M423.9,13.8l-2-3.1l-0.7,0.8v2.3h-2.1V3.6h2.1V9l2.5-2.7h2.5l-2.9,3l3,4.6H423.9z"/>
</g>
<path class="st0" d="M309,40.6V24.4c8.1-0.5,14.5-7.2,14.5-15.4c0-8.2-6.4-14.9-14.5-15.4V-16h-3v9.6c-7.6,1-13.5,7.5-13.5,15.4
	c0,7.9,5.9,14.4,13.5,15.4v15.2l-8.1-8.7l-2.2,2L308,46l12.3-13.2l-2.2-2L309,40.6z M320.5,8.9c0,6.9-5.6,12.5-12.5,12.5V16
	l-1.1,1.1c-0.4,0.4-0.9,0.6-1.4,0.6s-1-0.2-1.4-0.6l-5.9-5.9c-0.4-0.4-0.6-0.9-0.6-1.4s0.2-1,0.6-1.4l2.5-2.5
	c0.4-0.4,0.9-0.6,1.4-0.6c0.5,0,1,0.2,1.4,0.6l1.9,1.9l2.6-2.5v-8.8C314.9-3.6,320.5,2,320.5,8.9z"/>
<polygon class="st1" points="299.6,9.8 302.1,7.3 305.4,10.6 313.9,2.2 316.4,4.7 305.4,15.7 "/>
</svg>
