<?xml version="1.0" encoding="utf-8"?>
<!-- Generator: Adobe Illustrator 19.1.0, SVG Export Plug-In . SVG Version: 6.00 Build 0)  -->
<svg version="1.1" id="Layer_1" xmlns="http://www.w3.org/2000/svg" xmlns:xlink="http://www.w3.org/1999/xlink" x="0px" y="0px"
	 viewBox="1080 -90 320 320" style="enable-background:new 1080 -90 320 320;" xml:space="preserve">
<style type="text/css">
	.st0{fill:#607D8B;}
	.st1{fill:#66BB6A;}
	.st2{fill:#E53935;}
</style>
<g>
	<path class="st0" d="M1326.5,77.2c-2.1,0-4.1-0.1-6.1-0.3l0.3-3c1.9,0.2,3.9,0.3,5.8,0.3l0.1,0L1326.5,77.2L1326.5,77.2
		C1326.5,77.2,1326.5,77.2,1326.5,77.2z M1332.8,76.9l-0.3-3c2-0.2,3.9-0.5,5.8-0.9l0.6,2.9C1337,76.4,1334.9,76.7,1332.8,76.9z
		 M1314.2,76c-2-0.4-4-1-6-1.6l0.9-2.9c1.9,0.6,3.8,1.1,5.7,1.5L1314.2,76z M1345,74.3l-0.9-2.9c1.9-0.6,3.7-1.3,5.5-2.1l1.2,2.7
		C1348.9,72.9,1347,73.7,1345,74.3z M1302.4,72.2c-1.9-0.8-3.8-1.8-5.6-2.8l1.5-2.6c1.7,1,3.5,1.9,5.3,2.7L1302.4,72.2z
		 M1356.3,69.2l-1.5-2.6c1.7-1,3.4-2.1,5-3.2l1.8,2.4C1359.9,67.1,1358.1,68.2,1356.3,69.2z M1291.6,66c-1.7-1.2-3.3-2.5-4.8-3.9
		l2-2.2c1.5,1.3,3,2.6,4.6,3.7L1291.6,66z M1366.4,61.9l-2-2.2c1.5-1.3,2.9-2.7,4.2-4.2l2.2,2C1369.4,59,1367.9,60.5,1366.4,61.9z
		 M1282.4,57.7c-1.4-1.5-2.7-3.2-3.9-4.8l2.4-1.8c1.2,1.6,2.4,3.1,3.7,4.6L1282.4,57.7z M1374.7,52.7l-2.4-1.8
		c1.2-1.6,2.2-3.3,3.2-5l2.6,1.5C1377,49.2,1375.9,51,1374.7,52.7z M1275,47.6c-1-1.8-2-3.6-2.8-5.5l2.7-1.2
		c0.8,1.8,1.7,3.6,2.7,5.3L1275,47.6z M1380.9,41.9l-2.7-1.2c0.8-1.8,1.5-3.7,2.1-5.5l2.9,0.9C1382.5,38,1381.7,40,1380.9,41.9z
		 M1269.9,36.3c-0.6-2-1.2-4-1.6-6l2.9-0.6c0.4,1.9,0.9,3.8,1.5,5.7L1269.9,36.3z M1384.7,30.1l-2.9-0.6c0.4-1.9,0.7-3.9,0.9-5.8
		l3,0.3C1385.5,26,1385.2,28,1384.7,30.1z M1267.3,24.1c-0.2-2-0.3-4.1-0.3-6.2l3,0c0,2,0.1,4,0.3,5.9L1267.3,24.1z M1383,17.7
		c0-2-0.1-4-0.3-5.9l3-0.3c0.2,2,0.3,4.1,0.3,6.2L1383,17.7z M1270.3,12l-3-0.3c0.2-2.1,0.5-4.1,0.9-6.2l2.9,0.6
		C1270.8,8.1,1270.5,10,1270.3,12z M1381.8,6c-0.4-1.9-0.9-3.8-1.5-5.7l2.9-0.9c0.6,2,1.2,4,1.6,6L1381.8,6z M1272.7,0.4l-2.9-0.9
		c0.6-2,1.4-3.9,2.2-5.8l2.7,1.2C1274-3.3,1273.3-1.4,1272.7,0.4z M1378.1-5.3c-0.8-1.8-1.7-3.6-2.7-5.3l2.6-1.5
		c1,1.8,2,3.7,2.8,5.5L1378.1-5.3z M1277.5-10.3l-2.6-1.5c1-1.8,2.2-3.6,3.4-5.2l2.4,1.8C1279.5-13.7,1278.5-12.1,1277.5-10.3z
		 M1372.2-15.5c-1.2-1.6-2.4-3.1-3.7-4.6l2.2-2c1.4,1.5,2.7,3.2,3.9,4.8L1372.2-15.5z M1284.4-19.9l-2.2-2c1.4-1.5,2.9-3,4.4-4.4
		l2,2.2C1287.1-22.8,1285.7-21.4,1284.4-19.9z M1364.3-24.3c-1.5-1.3-3-2.6-4.6-3.7l1.8-2.4c1.7,1.2,3.3,2.5,4.8,3.9L1364.3-24.3z
		 M1293.1-27.9l-1.8-2.4c1.7-1.2,3.4-2.4,5.2-3.4l1.5,2.6C1296.4-30.1,1294.7-29,1293.1-27.9z M1354.7-31.2c-1.7-1-3.5-1.9-5.3-2.7
		l1.2-2.7c1.9,0.8,3.8,1.8,5.5,2.8L1354.7-31.2z M1303.3-33.8l-1.2-2.7c1.9-0.8,3.8-1.6,5.8-2.3l0.9,2.8
		C1307-35.3,1305.1-34.6,1303.3-33.8z M1344-36c-1.9-0.6-3.8-1.1-5.7-1.5l0.6-2.9c2,0.4,4,1,6,1.6L1344-36z M1314.5-37.5l-0.6-2.9
		c2-0.4,4.1-0.8,6.1-1l0.3,3C1318.4-38.2,1316.5-37.9,1314.5-37.5z M1332.4-38.4c-1.9-0.2-3.9-0.3-5.9-0.3l-0.2,0l0-3l0.2,0
		c2.1,0,4.2,0.1,6.2,0.3L1332.4-38.4z"/>
</g>
<path class="st1" d="M1346.2,17.8c-9.9,0-18,8.1-18,18s8.1,18,18,18s18-8.1,18-18S1356.1,17.8,1346.2,17.8z M1343.8,41.8l-5.2-5.2
	l2.1-2.1l3.1,3.1l7.8-7.8l2.1,2.1L1343.8,41.8z"/>
<path class="st1" d="M1346.2-19.8c-9.9,0-18,8.1-18,18s8.1,18,18,18s18-8.1,18-18S1356.1-19.8,1346.2-19.8z M1343.8,4.2l-5.2-5.2
	l2.1-2.1l3.1,3.1l7.8-7.8l2.1,2.1L1343.8,4.2z"/>
<path class="st1" d="M1306.8,17.8c-9.9,0-18,8.1-18,18s8.1,18,18,18s18-8.1,18-18S1316.8,17.8,1306.8,17.8z M1304.5,41.8l-5.2-5.2
	l2.1-2.1l3.1,3.1l7.8-7.8l2.1,2.1L1304.5,41.8z"/>
<path class="st2" d="M1306.8-19.8c-9.9,0-18,8.1-18,18s8.1,18,18,18c9.9,0,18-8.1,18-18S1316.8-19.8,1306.8-19.8z M1312.8,2.4
	l-1.8,1.8l-4.2-4.2l-4.2,4.2l-1.8-1.8l4.2-4.2l-4.2-4.2l1.8-1.8l4.2,4.2l4.2-4.2l1.8,1.8l-4.2,4.2L1312.8,2.4z"/>
<g>
	<path class="st0" d="M1159.1,71.8l0-3c2,0,4-0.1,5.9-0.4l0.4,3C1163.3,71.6,1161.2,71.7,1159.1,71.8z M1152.8,71.4
		c-2.1-0.2-4.2-0.6-6.2-1.1l0.7-2.9c1.9,0.4,3.9,0.8,5.8,1L1152.8,71.4z M1171.6,70.3l-0.7-2.9c1.9-0.5,3.8-1,5.7-1.7l1,2.8
		C1175.6,69.2,1173.6,69.8,1171.6,70.3z M1140.6,68.5c-2-0.7-3.9-1.5-5.8-2.5l1.3-2.7c1.8,0.9,3.6,1.7,5.4,2.3L1140.6,68.5z
		 M1183.3,66l-1.4-2.7c1.8-0.9,3.5-1.9,5.1-3l1.7,2.5C1187,64,1185.2,65,1183.3,66z M1129.4,62.9c-1.7-1.1-3.4-2.4-5-3.7l1.9-2.3
		c1.5,1.3,3.1,2.5,4.8,3.5L1129.4,62.9z M1193.8,59.1l-1.9-2.3c1.5-1.3,3-2.6,4.3-4.1l2.2,2.1C1196.9,56.3,1195.4,57.7,1193.8,59.1z
		 M1119.8,54.9c-1.4-1.5-2.8-3.1-4-4.8l2.4-1.8c1.2,1.6,2.5,3.1,3.8,4.5L1119.8,54.9z M1202.4,49.9l-2.4-1.8c1.2-1.6,2.3-3.3,3.3-5
		l2.6,1.5C1204.8,46.5,1203.6,48.3,1202.4,49.9z M1112.3,44.9c-1-1.8-2-3.7-2.8-5.6l2.8-1.2c0.8,1.8,1.7,3.6,2.7,5.3L1112.3,44.9z
		 M1208.6,39.1l-2.8-1.2c0.8-1.8,1.5-3.7,2-5.6l2.9,0.9C1210.2,35.2,1209.5,37.2,1208.6,39.1z M1107.3,33.4c-0.6-2-1.1-4-1.5-6.1
		l3-0.5c0.3,1.9,0.8,3.9,1.4,5.8L1107.3,33.4z M1212.2,27.1l-3-0.5c0.3-1.9,0.6-3.9,0.7-5.9l3,0.2
		C1212.8,22.9,1212.6,25,1212.2,27.1z M1105.1,21c-0.1-1.1-0.1-2.2-0.1-3.3c0-1,0-2,0.1-3l3,0.2c-0.1,0.9-0.1,1.9-0.1,2.8
		c0,1,0,2.1,0.1,3.1L1105.1,21z M1209.9,14.7c-0.1-2-0.3-3.9-0.7-5.9l3-0.5c0.4,2.1,0.6,4.1,0.7,6.2L1209.9,14.7z M1108.7,9l-3-0.5
		c0.4-2.1,0.8-4.1,1.4-6.1l2.9,0.8C1109.5,5.2,1109.1,7.1,1108.7,9z M1207.9,3.1c-0.6-1.9-1.2-3.8-2-5.6l2.8-1.2
		c0.8,1.9,1.6,3.9,2.2,5.9L1207.9,3.1z M1112.1-2.3l-2.8-1.2c0.8-1.9,1.8-3.8,2.8-5.6l2.6,1.5C1113.8-5.9,1112.9-4.1,1112.1-2.3z
		 M1203.2-7.8c-1-1.7-2.1-3.4-3.3-4.9l2.4-1.8c1.2,1.7,2.4,3.4,3.5,5.2L1203.2-7.8z M1118-12.6l-2.4-1.8c1.2-1.7,2.6-3.3,4-4.8
		l2.2,2.1C1120.4-15.7,1119.2-14.2,1118-12.6z M1196.1-17.3c-1.4-1.4-2.8-2.8-4.3-4.1l1.9-2.3c1.6,1.3,3.1,2.8,4.6,4.3L1196.1-17.3z
		 M1126.1-21.2l-1.9-2.3c1.6-1.3,3.3-2.6,5-3.8l1.7,2.5C1129.2-23.7,1127.6-22.5,1126.1-21.2z M1187-24.9c-1.6-1.1-3.4-2.1-5.1-3
		l1.3-2.7c1.9,0.9,3.7,2,5.4,3.1L1187-24.9z M1135.9-27.8l-1.4-2.7c1.9-0.9,3.8-1.8,5.8-2.5l1,2.8
		C1139.5-29.4,1137.7-28.6,1135.9-27.8z M1176.4-30.2c-1.9-0.7-3.8-1.2-5.7-1.7l0.7-2.9c2,0.5,4.1,1.1,6,1.8L1176.4-30.2z
		 M1147-31.8l-0.7-2.9c2-0.5,4.1-0.9,6.2-1.1l0.4,3C1150.9-32.7,1149-32.3,1147-31.8z M1164.9-32.9c-2-0.2-3.9-0.3-5.9-0.3l-0.2,0
		l0-3l0.2,0c2.1,0,4.2,0.1,6.3,0.4L1164.9-32.9z"/>
</g>
<path class="st1" d="M1180.7,12.2c-9.9,0-18,8.1-18,18s8.1,18,18,18s18-8.1,18-18S1190.6,12.2,1180.7,12.2z M1178.3,36.2l-5.2-5.2
	l2.1-2.1l3.1,3.1l7.8-7.8l2.1,2.1L1178.3,36.2z"/>
<path class="st1" d="M1137.3,12.2c-9.9,0-18,8.1-18,18s8.1,18,18,18s18-8.1,18-18S1147.3,12.2,1137.3,12.2z M1135,36.2l-5.2-5.2
	l2.1-2.1l3.1,3.1l7.8-7.8l2.1,2.1L1135,36.2z"/>
<path class="st2" d="M1159-25.2c-9.9,0-18,8.1-18,18s8.1,18,18,18s18-8.1,18-18S1168.9-25.2,1159-25.2z M1165-3.1l-1.8,1.8l-4.2-4.2
	l-4.2,4.2l-1.8-1.8l4.2-4.2l-4.2-4.2l1.8-1.8l4.2,4.2l4.2-4.2l1.8,1.8l-4.2,4.2L1165-3.1z"/>
<g>
	<path class="st1" d="M1159,145.2c-9.4,0-18.2-5.1-22.9-13.2l4.3-2.5c3.9,6.7,10.9,10.8,18.6,10.8c11.9,0,21.5-9.6,21.5-21.5
		s-9.6-21.5-21.5-21.5v-5c14.6,0,26.5,11.9,26.5,26.5S1173.6,145.2,1159,145.2z"/>
</g>
<g>
	<path class="st2" d="M1136.1,132c-2.4-4-3.6-8.5-3.6-13.3c0-14.6,11.9-26.5,26.5-26.5v5c-11.9,0-21.5,9.6-21.5,21.5
		c0,3.9,1,7.5,2.9,10.7L1136.1,132z"/>
</g>
<path class="st1" d="M1159,100.8c-9.9,0-18,8.1-18,18s8.1,18,18,18s18-8.1,18-18S1168.9,100.8,1159,100.8z M1156,126.2h-5.6v-2.3
	c0-1.2,0.2-1.9,1.1-3l2.5-3.1c0.5-0.6,0.7-1.1,0.7-1.8v-2.2c0-0.9-0.4-1.3-1.3-1.3h-0.4c-0.9,0-1.3,0.4-1.3,1.3v2.8h-1.2v-2.8
	c0-1.7,0.8-2.5,2.5-2.5h0.5c1.7,0,2.5,0.9,2.5,2.5v2c0,1-0.2,1.8-1,2.7l-2.5,3.1c-0.6,0.8-0.8,1.2-0.8,2.3v1h4.3V126.2z
	 M1158.1,126.8h-1.1l2.7-16h1.1L1158.1,126.8z M1167.6,123.7c0,1.7-0.8,2.6-2.6,2.6h-0.6c-1.7,0-2.5-0.9-2.5-2.5v-2.4h1.2v2.4
	c0,0.9,0.5,1.3,1.4,1.3h0.5c0.9,0,1.4-0.4,1.4-1.3v-3.1c0-1-0.5-1.4-1.4-1.4h-1.6v-1.2h1.5c0.9,0,1.4-0.5,1.4-1.4v-2.8
	c0-0.9-0.4-1.3-1.3-1.3h-0.5c-0.9,0-1.3,0.4-1.3,1.3v2.1h-1.2v-2.1c0-1.7,0.8-2.6,2.6-2.6h0.5c1.7,0,2.6,0.9,2.6,2.6v2.4
	c0,1.3-0.5,2-1.3,2.2c0.9,0.3,1.4,0.9,1.4,2V123.7z"/>
<g>
	<path class="st1" d="M1326.5,100.8c-9.9,0-18,8.1-18,18s8.1,18,18,18s18-8.1,18-18S1336.4,100.8,1326.5,100.8z M1324,123.7
		c0,1.7-0.8,2.6-2.6,2.6h-0.6c-1.7,0-2.5-0.9-2.5-2.5v-2.4h1.2v2.4c0,0.9,0.5,1.3,1.4,1.3h0.5c0.9,0,1.4-0.4,1.4-1.3v-3.1
		c0-1-0.5-1.4-1.4-1.4h-1.6v-1.2h1.5c0.9,0,1.4-0.5,1.4-1.4v-2.8c0-0.9-0.4-1.3-1.3-1.3h-0.5c-0.9,0-1.3,0.4-1.3,1.3v2.1h-1.2v-2.1
		c0-1.7,0.8-2.6,2.6-2.6h0.5c1.7,0,2.6,0.9,2.6,2.6v2.4c0,1.3-0.5,2-1.3,2.2c0.9,0.3,1.4,0.9,1.4,2V123.7z M1326.2,126.8h-1.1
		l2.7-16h1.1L1326.2,126.8z M1335.3,123.2h-1.2v2.9h-1.1v-2.9h-4.1v-1.2l3.7-10.6h1.6v10.6h1.2V123.2z"/>
	<polygon class="st1" points="1333,122.1 1333,113.4 1330,122.1 	"/>
</g>
<g>
	<path class="st2" d="M1305,118.8h-5c0-14.6,11.9-26.5,26.5-26.5v5C1314.6,97.2,1305,106.9,1305,118.8z"/>
</g>
<g>
	<path class="st1" d="M1326.5,145.2c-14.6,0-26.5-11.9-26.5-26.5h5c0,11.9,9.6,21.5,21.5,21.5s21.5-9.6,21.5-21.5
		s-9.6-21.5-21.5-21.5v-5c14.6,0,26.5,11.9,26.5,26.5S1341.1,145.2,1326.5,145.2z"/>
</g>
<g>
	<g>
		<rect x="1231.5" y="16.2" class="st0" width="14.6" height="3"/>
	</g>
	<g>
		<g>
			<polygon class="st0" points="1238.6,27 1237.1,25.3 1245.2,17.8 1237.1,10.2 1238.6,8.6 1248.5,17.8 			"/>
		</g>
	</g>
</g>
<g>
	<g>
		<path class="st0" d="M1124.4-48.9c-1.9,0-3.8-0.7-5.3-2l1.6-2c1.1,0.9,2.3,1.5,3.8,1.5c1.1,0,1.8-0.5,1.8-1.2v0
			c0-0.7-0.4-1.1-2.5-1.6c-2.5-0.6-4.2-1.4-4.2-3.9v0c0-2.3,1.8-3.8,4.4-3.8c1.8,0,3.4,0.6,4.7,1.6l-1.4,2.1
			c-1.1-0.8-2.2-1.2-3.3-1.2s-1.6,0.5-1.6,1.1v0c0,0.8,0.5,1.1,2.7,1.7c2.6,0.7,4,1.6,4,3.8v0C1129-50.3,1127.1-48.9,1124.4-48.9z"
			/>
		<path class="st0" d="M1131.4-49.1v-12.6h9.5v2.5h-6.8v2.6h5.9v2.5h-5.9v2.6h6.8v2.5H1131.4z"/>
		<path class="st0" d="M1151.1-49.1l-2.7-4h-2.2v4h-2.8v-12.6h5.8c3,0,4.8,1.6,4.8,4.2v0c0,2-1.1,3.3-2.7,3.9l3.1,4.5H1151.1z
			 M1151.2-57.4c0-1.2-0.8-1.8-2.2-1.8h-2.8v3.6h2.8C1150.4-55.6,1151.2-56.3,1151.2-57.4L1151.2-57.4z"/>
		<path class="st0" d="M1162.6-49h-2.4l-5.1-12.7h3.1l3.3,8.9l3.3-8.9h3L1162.6-49z"/>
		<path class="st0" d="M1169.8-49.1v-12.6h2.8v12.6H1169.8z"/>
		<path class="st0" d="M1181.6-48.9c-3.7,0-6.5-2.9-6.5-6.5v0c0-3.6,2.7-6.5,6.6-6.5c2.4,0,3.8,0.8,5,1.9l-1.8,2
			c-1-0.9-2-1.4-3.2-1.4c-2.1,0-3.7,1.8-3.7,3.9v0c0,2.2,1.5,4,3.7,4c1.4,0,2.3-0.6,3.3-1.5l1.8,1.8
			C1185.5-49.8,1184-48.9,1181.6-48.9z"/>
		<path class="st0" d="M1189-49.1v-12.6h9.5v2.5h-6.8v2.6h5.9v2.5h-5.9v2.6h6.8v2.5H1189z"/>
	</g>
</g>
<g>
	<g>
		<path class="st0" d="M1177.7,168.9h1.6v14.7h-1.3l-9.5-12.1v12.1h-1.6v-14.7h1.6l9.3,11.8V168.9z"/>
		<path class="st0" d="M1188,182.4c1.5,0,2.5-0.6,3.4-1.5l1,0.9c-1.1,1.2-2.4,2-4.5,2c-3,0-5.4-2.3-5.4-5.7c0-3.1,2.2-5.7,5.2-5.7
			c3.2,0,5.1,2.6,5.1,5.8c0,0.1,0,0.3,0,0.5h-8.6C1184.4,181.1,1186.1,182.4,1188,182.4z M1191.2,177.6c-0.2-2-1.3-3.7-3.5-3.7
			c-1.9,0-3.3,1.6-3.5,3.7H1191.2z"/>
		<path class="st0" d="M1206,181.4l2.9-8.7h1.7l-3.8,10.9h-1.4l-2.9-8.6l-2.9,8.6h-1.4l-3.8-10.9h1.7l2.9,8.7l2.9-8.8h1.3
			L1206,181.4z"/>
		<path class="st0" d="M1221.6,168.9v14.7h-1.7v-14.7H1221.6z"/>
		<path class="st0" d="M1227.3,183.6h-1.6v-10.9h1.6v1.9c0.7-1.2,1.8-2.1,3.7-2.1c2.6,0,4.2,1.8,4.2,4.3v6.7h-1.6v-6.3
			c0-2-1.1-3.3-3-3.3c-1.9,0-3.3,1.4-3.3,3.4V183.6z"/>
		<path class="st0" d="M1242.2,183.8c-1.6,0-3.3-0.6-4.5-1.6l0.8-1.2c1.2,0.9,2.5,1.4,3.8,1.4c1.3,0,2.2-0.7,2.2-1.7v0
			c0-1.1-1.3-1.5-2.7-1.9c-1.7-0.5-3.6-1.1-3.6-3.1v0c0-1.9,1.6-3.1,3.7-3.1c1.3,0,2.8,0.5,3.9,1.2l-0.7,1.2c-1-0.7-2.2-1.1-3.2-1.1
			c-1.3,0-2.1,0.7-2.1,1.6v0c0,1,1.3,1.4,2.8,1.9c1.7,0.5,3.5,1.2,3.5,3.1v0C1246,182.6,1244.3,183.8,1242.2,183.8z"/>
		<path class="st0" d="M1251,180.5c0,1.3,0.7,1.8,1.8,1.8c0.5,0,1-0.1,1.6-0.4v1.4c-0.6,0.3-1.2,0.5-2,0.5c-1.7,0-3.1-0.9-3.1-3.1
			v-6.6h-1.5v-1.4h1.5v-3.3h1.6v3.3h3.4v1.4h-3.4V180.5z"/>
		<path class="st0" d="M1257.9,174.8l-0.5-1.3c1.2-0.5,2.4-0.9,3.9-0.9c3,0,4.6,1.5,4.6,4.4v6.6h-1.6v-1.6c-0.8,1-2,1.9-3.9,1.9
			c-2,0-4.1-1.1-4.1-3.4c0-2.3,1.9-3.5,4.6-3.5c1.4,0,2.4,0.2,3.3,0.5V177c0-2-1.2-3-3.2-3C1259.9,174,1258.9,174.3,1257.9,174.8z
			 M1258.1,180.3c0,1.4,1.3,2.2,2.7,2.2c2,0,3.6-1.2,3.6-2.9v-1c-0.8-0.2-1.9-0.5-3.2-0.5C1259.3,178.1,1258.1,179,1258.1,180.3z"/>
		<path class="st0" d="M1271.1,183.6h-1.6v-10.9h1.6v1.9c0.7-1.2,1.8-2.1,3.7-2.1c2.6,0,4.2,1.8,4.2,4.3v6.7h-1.6v-6.3
			c0-2-1.1-3.3-3-3.3c-1.9,0-3.3,1.4-3.3,3.4V183.6z"/>
		<path class="st0" d="M1287.3,183.8c-3.2,0-5.6-2.6-5.6-5.6c0-3.1,2.4-5.7,5.6-5.7c2.1,0,3.3,0.9,4.3,1.9l-1.1,1.1
			c-0.9-0.9-1.8-1.6-3.3-1.6c-2.2,0-3.9,1.9-3.9,4.2c0,2.4,1.7,4.2,4,4.2c1.4,0,2.5-0.7,3.3-1.6l1,1
			C1290.6,183,1289.3,183.8,1287.3,183.8z"/>
		<path class="st0" d="M1298.9,182.4c1.5,0,2.5-0.6,3.4-1.5l1,0.9c-1.1,1.2-2.4,2-4.5,2c-3,0-5.4-2.3-5.4-5.7c0-3.1,2.2-5.7,5.2-5.7
			c3.2,0,5.1,2.6,5.1,5.8c0,0.1,0,0.3,0,0.5h-8.6C1295.3,181.1,1297,182.4,1298.9,182.4z M1302,177.6c-0.2-2-1.3-3.7-3.5-3.7
			c-1.9,0-3.3,1.6-3.5,3.7H1302z"/>
		<path class="st0" d="M1310.1,183.8c-1.6,0-3.3-0.6-4.5-1.6l0.8-1.2c1.2,0.9,2.5,1.4,3.8,1.4c1.3,0,2.2-0.7,2.2-1.7v0
			c0-1.1-1.3-1.5-2.7-1.9c-1.7-0.5-3.6-1.1-3.6-3.1v0c0-1.9,1.6-3.1,3.7-3.1c1.3,0,2.8,0.5,3.9,1.2l-0.7,1.2c-1-0.7-2.2-1.1-3.2-1.1
			c-1.3,0-2.1,0.7-2.1,1.6v0c0,1,1.3,1.4,2.8,1.9c1.7,0.5,3.5,1.2,3.5,3.1v0C1314,182.6,1312.3,183.8,1310.1,183.8z"/>
		<path class="st0" d="M1128,207.8c-4.2,0-7.4-3.3-7.4-7.6c0-4.2,3.1-7.6,7.4-7.6c2.7,0,4.3,0.9,5.7,2.3l-1.1,1.2
			c-1.2-1.2-2.6-2-4.6-2c-3.3,0-5.7,2.6-5.7,6c0,3.4,2.5,6.1,5.7,6.1c2,0,3.3-0.8,4.7-2.1l1.1,1.1
			C1132.3,206.8,1130.6,207.8,1128,207.8z"/>
		<path class="st0" d="M1138.1,207.6h-1.6v-15.3h1.6v6.4c0.7-1.2,1.8-2.1,3.7-2.1c2.6,0,4.2,1.8,4.2,4.3v6.7h-1.6v-6.3
			c0-2-1.1-3.3-3-3.3c-1.9,0-3.3,1.4-3.3,3.4V207.6z"/>
		<path class="st0" d="M1154.2,206.4c1.5,0,2.5-0.6,3.4-1.5l1,0.9c-1.1,1.2-2.4,2-4.5,2c-3,0-5.4-2.3-5.4-5.7c0-3.1,2.2-5.7,5.2-5.7
			c3.2,0,5.1,2.6,5.1,5.8c0,0.1,0,0.3,0,0.5h-8.6C1150.6,205.1,1152.3,206.4,1154.2,206.4z M1157.4,201.6c-0.2-2-1.3-3.7-3.5-3.7
			c-1.9,0-3.3,1.6-3.5,3.7H1157.4z"/>
		<path class="st0" d="M1166.7,207.8c-3.2,0-5.6-2.6-5.6-5.6c0-3.1,2.4-5.7,5.6-5.7c2.1,0,3.3,0.9,4.3,1.9l-1.1,1.1
			c-0.9-0.9-1.8-1.6-3.3-1.6c-2.2,0-3.9,1.9-3.9,4.2c0,2.4,1.7,4.2,4,4.2c1.4,0,2.5-0.7,3.3-1.6l1,1
			C1170.1,207,1168.8,207.8,1166.7,207.8z"/>
		<path class="st0" d="M1183.5,207.6h-1.9l-3.9-5.1l-2.2,2.2v2.8h-1.6v-15.3h1.6v10.6l5.9-6.1h2l-4.6,4.7L1183.5,207.6z"/>
		<path class="st0" d="M1190.1,206.4c1.5,0,2.5-0.6,3.4-1.5l1,0.9c-1.1,1.2-2.4,2-4.5,2c-3,0-5.4-2.3-5.4-5.7c0-3.1,2.2-5.7,5.2-5.7
			c3.2,0,5.1,2.6,5.1,5.8c0,0.1,0,0.3,0,0.5h-8.6C1186.5,205.1,1188.1,206.4,1190.1,206.4z M1193.2,201.6c-0.2-2-1.3-3.7-3.5-3.7
			c-1.9,0-3.3,1.6-3.5,3.7H1193.2z"/>
		<path class="st0" d="M1206.4,207.6v-2.2c-0.9,1.3-2.2,2.4-4.2,2.4c-2.6,0-5.2-2.1-5.2-5.6c0-3.6,2.6-5.7,5.2-5.7
			c2,0,3.3,1.1,4.2,2.3v-6.6h1.6v15.3H1206.4z M1202.5,197.9c-2.1,0-3.8,1.6-3.8,4.2c0,2.6,1.8,4.2,3.8,4.2c2,0,3.9-1.7,3.9-4.2
			C1206.5,199.6,1204.6,197.9,1202.5,197.9z"/>
		<path class="st0" d="M1231.9,207.6h-1.8l-1.7-3.9h-8l-1.7,3.9h-1.7l6.7-14.8h1.6L1231.9,207.6z M1224.4,194.7l-3.4,7.5h6.7
			L1224.4,194.7z"/>
		<path class="st0" d="M1242,196.7h1.6v10.9h-1.6v-1.9c-0.7,1.2-1.8,2.1-3.7,2.1c-2.6,0-4.2-1.8-4.2-4.3v-6.7h1.6v6.3
			c0,2,1.1,3.3,3,3.3c1.8,0,3.3-1.4,3.3-3.4V196.7z"/>
		<path class="st0" d="M1249.4,204.5c0,1.3,0.7,1.8,1.8,1.8c0.5,0,1-0.1,1.6-0.4v1.4c-0.6,0.3-1.2,0.5-2,0.5c-1.7,0-3.1-0.9-3.1-3.1
			v-6.6h-1.5v-1.4h1.5v-3.3h1.6v3.3h3.4v1.4h-3.4V204.5z"/>
		<path class="st0" d="M1260.4,207.8c-3.3,0-5.6-2.6-5.6-5.6c0-3.1,2.4-5.7,5.7-5.7c3.3,0,5.6,2.6,5.6,5.6
			C1266.1,205.2,1263.7,207.8,1260.4,207.8z M1260.4,197.9c-2.4,0-4,1.9-4,4.2s1.7,4.2,4,4.2c2.4,0,4-1.9,4-4.2
			C1264.4,199.8,1262.7,197.9,1260.4,197.9z"/>
		<path class="st0" d="M1281.4,196.5c2.5,0,4,1.7,4,4.4v6.7h-1.6v-6.3c0-2.1-1-3.3-2.8-3.3c-1.6,0-3,1.2-3,3.4v6.3h-1.6v-6.4
			c0-2-1.1-3.2-2.8-3.2s-3,1.4-3,3.4v6.2h-1.6v-10.9h1.6v1.8c0.7-1.1,1.7-2.1,3.5-2.1c1.8,0,2.9,0.9,3.5,2.2
			C1278.4,197.5,1279.5,196.5,1281.4,196.5z"/>
		<path class="st0" d="M1289.6,198.8l-0.5-1.3c1.2-0.5,2.4-0.9,3.9-0.9c3,0,4.6,1.5,4.6,4.4v6.6h-1.6v-1.6c-0.8,1-2,1.9-3.9,1.9
			c-2,0-4.1-1.1-4.1-3.4c0-2.3,1.9-3.5,4.6-3.5c1.4,0,2.4,0.2,3.3,0.5V201c0-2-1.2-3-3.2-3C1291.6,198,1290.6,198.3,1289.6,198.8z
			 M1289.8,204.3c0,1.4,1.3,2.2,2.7,2.2c2,0,3.6-1.2,3.6-2.9v-1c-0.8-0.2-1.9-0.5-3.2-0.5C1290.9,202.1,1289.8,203,1289.8,204.3z"/>
		<path class="st0" d="M1303.2,204.5c0,1.3,0.7,1.8,1.8,1.8c0.5,0,1-0.1,1.6-0.4v1.4c-0.6,0.3-1.2,0.5-2,0.5c-1.7,0-3.1-0.9-3.1-3.1
			v-6.6h-1.5v-1.4h1.5v-3.3h1.6v3.3h3.4v1.4h-3.4V204.5z"/>
		<path class="st0" d="M1309.5,194.4v-1.8h1.8v1.8H1309.5z M1309.6,207.6v-10.9h1.6v10.9H1309.6z"/>
		<path class="st0" d="M1319.9,207.8c-3.2,0-5.6-2.6-5.6-5.6c0-3.1,2.4-5.7,5.6-5.7c2.1,0,3.3,0.9,4.3,1.9l-1.1,1.1
			c-0.9-0.9-1.8-1.6-3.3-1.6c-2.2,0-3.9,1.9-3.9,4.2c0,2.4,1.7,4.2,4,4.2c1.4,0,2.5-0.7,3.3-1.6l1,1
			C1323.3,207,1322,207.8,1319.9,207.8z"/>
		<path class="st0" d="M1327.6,198.8l-0.5-1.3c1.2-0.5,2.4-0.9,3.9-0.9c3,0,4.6,1.5,4.6,4.4v6.6h-1.6v-1.6c-0.8,1-2,1.9-3.9,1.9
			c-2,0-4.1-1.1-4.1-3.4c0-2.3,1.9-3.5,4.6-3.5c1.4,0,2.4,0.2,3.3,0.5V201c0-2-1.2-3-3.2-3C1329.7,198,1328.7,198.3,1327.6,198.8z
			 M1327.8,204.3c0,1.4,1.3,2.2,2.7,2.2c2,0,3.6-1.2,3.6-2.9v-1c-0.8-0.2-1.9-0.5-3.2-0.5C1329,202.1,1327.8,203,1327.8,204.3z"/>
		<path class="st0" d="M1339.3,207.6v-15.3h1.6v15.3H1339.3z"/>
		<path class="st0" d="M1344.8,207.6v-15.3h1.6v15.3H1344.8z"/>
		<path class="st0" d="M1355.5,207.9c-0.9,2.2-2,3.1-3.6,3.1c-0.9,0-1.6-0.2-2.3-0.5l0.5-1.3c0.5,0.3,1,0.4,1.7,0.4
			c1,0,1.6-0.5,2.2-2l-4.9-10.8h1.8l3.9,9l3.5-9h1.7L1355.5,207.9z"/>
	</g>
</g>
<g>
	<g>
		<path class="st0" d="M1291.9-48.9c-1.9,0-3.8-0.7-5.3-2l1.6-2c1.1,0.9,2.3,1.5,3.8,1.5c1.1,0,1.8-0.5,1.8-1.2v0
			c0-0.7-0.4-1.1-2.5-1.6c-2.5-0.6-4.2-1.4-4.2-3.9v0c0-2.3,1.8-3.8,4.4-3.8c1.8,0,3.4,0.6,4.7,1.6l-1.4,2.1
			c-1.1-0.8-2.2-1.2-3.3-1.2s-1.6,0.5-1.6,1.1v0c0,0.8,0.5,1.1,2.7,1.7c2.6,0.7,4,1.6,4,3.8v0C1296.6-50.3,1294.7-48.9,1291.9-48.9z
			"/>
		<path class="st0" d="M1299-49.1v-12.6h9.5v2.5h-6.8v2.6h5.9v2.5h-5.9v2.6h6.8v2.5H1299z"/>
		<path class="st0" d="M1318.7-49.1l-2.7-4h-2.2v4h-2.8v-12.6h5.8c3,0,4.8,1.6,4.8,4.2v0c0,2-1.1,3.3-2.7,3.9l3.1,4.5H1318.7z
			 M1318.7-57.4c0-1.2-0.8-1.8-2.2-1.8h-2.8v3.6h2.8C1318-55.6,1318.7-56.3,1318.7-57.4L1318.7-57.4z"/>
		<path class="st0" d="M1330.1-49h-2.4l-5.1-12.7h3.1l3.3,8.9l3.3-8.9h3L1330.1-49z"/>
		<path class="st0" d="M1337.3-49.1v-12.6h2.8v12.6H1337.3z"/>
		<path class="st0" d="M1349.1-48.9c-3.7,0-6.5-2.9-6.5-6.5v0c0-3.6,2.7-6.5,6.6-6.5c2.4,0,3.8,0.8,5,1.9l-1.8,2
			c-1-0.9-2-1.4-3.2-1.4c-2.1,0-3.7,1.8-3.7,3.9v0c0,2.2,1.5,4,3.7,4c1.4,0,2.3-0.6,3.3-1.5l1.8,1.8
			C1353-49.8,1351.6-48.9,1349.1-48.9z"/>
		<path class="st0" d="M1356.5-49.1v-12.6h9.5v2.5h-6.8v2.6h5.9v2.5h-5.9v2.6h6.8v2.5H1356.5z"/>
	</g>
</g>
</svg>
