<?xml version="1.0" encoding="utf-8"?>
<!-- Generator: Adobe Illustrator 19.1.0, SVG Export Plug-In . SVG Version: 6.00 Build 0)  -->
<svg version="1.1" id="Layer_1" xmlns="http://www.w3.org/2000/svg" xmlns:xlink="http://www.w3.org/1999/xlink" x="0px" y="0px"
	 viewBox="148 -138 320 300" style="enable-background:new 148 -138 320 300;" xml:space="preserve">
<style type="text/css">
	.st0{fill:none;}
	.st1{fill:#F5F5F5;}
	.st2{fill:#FFFFFF;}
	.st3{fill:#BDBDBD;}
	.st4{fill:#E0E0E0;}
	.st5{fill:#F7F7F7;}
	.st6{fill:#434343;}
	.st7{fill:#B1B1B1;}
	.st8{fill:#3D3C40;}
	.st9{fill:#F44336;}
	.st10{fill:#A3A3A3;}
	.st11{fill:#00579B;}
	.st12{fill:#E53A35;}
	.st13{fill:#F05323;}
	.st14{fill:#ED6D23;}
	.st15{fill:#F78C1F;}
	.st16{fill:#FCB316;}
	.st17{fill:#F4F5F6;}
	.st18{fill:#DDDDDE;}
	.st19{fill:#CED0D3;}
	.st20{fill:#5F5E63;}
	.st21{fill:#E8A723;}
	.st22{fill:#3EB890;}
	.st23{fill:#E01765;}
	.st24{fill:#472A49;}
	.st25{fill:#CC2027;}
	.st26{fill:#70CADB;}
	.st27{fill:#1A937D;}
	.st28{fill:#65863A;}
	.st29{fill:#607D8B;}
</style>
<rect x="169.2" y="-138" class="st0" width="277.8" height="300"/>
<rect x="169.2" y="-138" class="st0" width="277.8" height="300"/>
<g>
	<path class="st1" d="M447-91.5c0-24.1-19.8-43.9-44-43.9h-1.5c0,0,0-0.6,0-1.3s-0.7-1.3-1.5-1.3h-42.5c-0.8,0-1.5,0.6-1.5,1.3
		s0,1.3,0,1.3H216.1c-24.2,0-44,19.8-44,44v36.6c0,0-0.8,0-1.5,0s-1.5,0.5-1.5,1.3v22.7c0,0.8,0.8,1.6,1.5,1.6s1.5,0,1.5,0V0.1
		c0,0-0.8,0-1.5,0s-1.5,0.5-1.5,1.3v17.2c0,0.8,0.8,1.6,1.5,1.6s1.5,0,1.5,0v27.9c0,0-0.8,0-1.5,0s-1.5,0.5-1.5,1.3v17.2
		c0,0.8,0.8,1.6,1.5,1.6s1.5,0,1.5,0V162H447V-91.5z"/>
</g>
<rect x="192.7" y="-51" class="st2" width="234" height="213"/>
<path class="st3" d="M332.2-90.7h-44c-3,0-5.5,2.5-5.5,5.5s2.5,5.5,5.5,5.5h44c3,0,5.5-2.5,5.5-5.5
	C337.8-88.3,335.2-90.7,332.2-90.7z"/>
<path class="st4" d="M221,101.1h-17c-1.7,0-3-1.3-3-3v-17c0-1.7,1.3-3,3-3h17c1.7,0,3,1.3,3,3v17C224,99.8,222.7,101.1,221,101.1z"
	/>
<circle class="st3" cx="309.5" cy="-107.2" r="5.5"/>
<g>
	<path class="st0" d="M403-133.4h-1.5c-1.1,0-2-0.9-2-2v-0.6H358v0.4c0,1.1-0.9,2-2,2H216c-23.2,0-42,18.9-42,42V-55
		c0,1.1-0.9,2-2,2h-0.9v21.7h0.9c1.1,0,2,0.9,2,2V0c0,1.1-0.9,2-2,2h-0.9v16.2h0.9c1.1,0,2,0.9,2,2v27.9c0,1.1-0.9,2-2,2h-0.9v16.2
		h0.9c1.1,0,2,0.9,2,2V162h271V-91.4C445-114.6,426-133.4,403-133.4z"/>
	<path class="st3" d="M174.1,68.3c0-1.1-0.9-2-2-2h-0.9V50.1h0.9c1.1,0,2-0.9,2-2V20.2c0-1.1-0.9-2-2-2h-0.9V2h0.9c1.1,0,2-0.9,2-2
		v-29.3c0-1.1-0.9-2-2-2h-0.9V-53h0.9c1.1,0,2-0.9,2-2v-36.6c0-23.1,18.8-42,42-42h140c1.1,0,2-0.9,2-2v-0.4h41.4v0.6
		c0,1.1,0.9,2,2,2h1.5c23.1,0,42,18.8,42,42V162h2V-91.5c0-24.2-19.8-44-44-44h-1.5c0,0,0-0.6,0-1.3s-0.6-1.2-1.4-1.2h-42.5
		c-0.8,0-1.5,0.6-1.5,1.3s0,1.3,0,1.3h-140c-24.2,0-44,19.8-44,44v36.6c0,0-0.8,0-1.5,0s-1.5,0.5-1.5,1.3v22.7
		c0,0.8,0.8,1.6,1.5,1.6s1.5,0,1.5,0V0.1c0,0-0.8,0-1.5,0s-1.5,0.5-1.5,1.3v17.2c0,0.8,0.8,1.6,1.5,1.6s1.5,0,1.5,0v27.9
		c0,0-0.8,0-1.5,0s-1.5,0.5-1.5,1.3v17.2c0,0.8,0.8,1.6,1.5,1.6s1.5,0,1.5,0V162h2V68.3z"/>
</g>
<rect x="277" y="-10" class="st5" width="25" height="11"/>
<g>
	<path class="st6" d="M236-6.9c0.5,0,1,0.1,1.5,0.3c0.4,0.2,0.8,0.4,1.1,0.7s0.5,0.7,0.7,1.2s0.3,1,0.3,1.5c0,0.6-0.1,1.1-0.3,1.5
		c-0.2,0.5-0.4,0.8-0.7,1.2s-0.7,0.6-1.1,0.7c-0.4,0.2-0.9,0.3-1.5,0.3c-0.5,0-1-0.1-1.5-0.3c-0.4-0.2-0.8-0.4-1.1-0.7
		s-0.6-0.7-0.7-1.2s-0.3-1-0.3-1.5c0-0.6,0.1-1.1,0.3-1.5c0.2-0.5,0.4-0.8,0.7-1.2c0.3-0.3,0.7-0.6,1.1-0.7
		C235-6.8,235.5-6.9,236-6.9z M236-0.8c0.6,0,1-0.2,1.3-0.6s0.4-1,0.4-1.8s-0.1-1.4-0.4-1.8c-0.3-0.4-0.7-0.6-1.3-0.6
		s-1.1,0.2-1.3,0.6c-0.3,0.4-0.4,1-0.4,1.8s0.1,1.4,0.4,1.8C235-1,235.4-0.8,236-0.8z"/>
	<path class="st6" d="M240.9,2.7v-9.5h1.1c0.2,0,0.4,0.1,0.4,0.3l0.1,0.7c0.3-0.3,0.6-0.6,1-0.8c0.4-0.2,0.8-0.3,1.3-0.3
		c0.4,0,0.8,0.1,1.1,0.2c0.3,0.2,0.6,0.4,0.8,0.7c0.2,0.3,0.4,0.7,0.5,1.1s0.2,1,0.2,1.6c0,0.5-0.1,1-0.2,1.5
		c-0.1,0.5-0.4,0.9-0.6,1.2c-0.3,0.3-0.6,0.6-1,0.8s-0.8,0.3-1.3,0.3c-0.4,0-0.8-0.1-1-0.2c-0.3-0.1-0.5-0.3-0.8-0.5v2.9
		C242.5,2.7,240.9,2.7,240.9,2.7z M244.3-5.5c-0.4,0-0.7,0.1-0.9,0.2c-0.3,0.2-0.5,0.4-0.7,0.6v3.2c0.2,0.2,0.4,0.4,0.6,0.5
		s0.5,0.1,0.8,0.1s0.5,0,0.7-0.1s0.4-0.2,0.5-0.4s0.3-0.5,0.3-0.8c0.1-0.3,0.1-0.7,0.1-1.1s0-0.8-0.1-1.1c-0.1-0.3-0.2-0.5-0.3-0.7
		s-0.3-0.3-0.5-0.4C244.7-5.5,244.5-5.5,244.3-5.5z"/>
	<path class="st6" d="M253.2-5.4c0,0.1-0.1,0.1-0.1,0.2s-0.1,0-0.2,0c-0.1,0-0.2,0-0.3-0.1c-0.1,0-0.2-0.1-0.3-0.2s-0.3-0.1-0.4-0.2
		c-0.2,0-0.4-0.1-0.6-0.1c-0.3,0-0.6,0.1-0.8,0.2s-0.3,0.3-0.3,0.6c0,0.2,0,0.3,0.2,0.4c0.1,0.1,0.2,0.2,0.4,0.3
		c0.2,0.1,0.4,0.2,0.6,0.2s0.4,0.1,0.6,0.2c0.2,0.1,0.4,0.2,0.6,0.3c0.2,0.1,0.4,0.2,0.6,0.4c0.2,0.1,0.3,0.3,0.4,0.5
		c0.1,0.2,0.2,0.5,0.2,0.7c0,0.3-0.1,0.7-0.2,1c-0.1,0.3-0.3,0.5-0.5,0.8c-0.2,0.2-0.5,0.4-0.9,0.5s-0.8,0.2-1.2,0.2
		c-0.2,0-0.5,0-0.7-0.1c-0.2,0-0.5-0.1-0.7-0.2S249.2,0,249-0.1c-0.2-0.1-0.3-0.2-0.5-0.4l0.4-0.7c0.1-0.1,0.1-0.1,0.2-0.2
		c0.1,0,0.2-0.1,0.3-0.1s0.2,0,0.3,0.1s0.2,0.1,0.3,0.2s0.3,0.1,0.4,0.2s0.4,0.1,0.6,0.1c0.2,0,0.4,0,0.5-0.1c0.1,0,0.3-0.1,0.4-0.2
		c0.1-0.1,0.2-0.2,0.2-0.3s0.1-0.2,0.1-0.3c0-0.2-0.1-0.3-0.2-0.4c-0.1-0.1-0.2-0.2-0.4-0.3s-0.4-0.2-0.6-0.2
		c-0.2-0.1-0.4-0.1-0.7-0.2s-0.4-0.2-0.7-0.3c-0.2-0.1-0.4-0.2-0.6-0.4c-0.2-0.2-0.3-0.3-0.4-0.6c-0.1-0.2-0.2-0.5-0.2-0.8
		s0.1-0.6,0.2-0.8s0.3-0.5,0.5-0.7s0.5-0.4,0.8-0.5s0.7-0.2,1.2-0.2s0.9,0.1,1.4,0.2c0.4,0.2,0.7,0.4,1,0.6L253.2-5.4z"/>
	<path class="st6" d="M258.1-6.9c0.5,0,0.9,0.1,1.3,0.2s0.7,0.4,1,0.6c0.3,0.3,0.5,0.6,0.6,1c0.2,0.4,0.2,0.9,0.2,1.4
		c0,0.3,0,0.4-0.1,0.5C261-3,260.9-3,260.8-3h-4.4c0,0.4,0.1,0.7,0.2,1s0.2,0.5,0.4,0.7c0.2,0.2,0.4,0.3,0.6,0.4s0.5,0.1,0.8,0.1
		s0.5,0,0.7-0.1s0.4-0.1,0.5-0.2c0.2-0.1,0.3-0.2,0.4-0.2c0.1-0.1,0.2-0.1,0.3-0.1c0.1,0,0.3,0.1,0.3,0.2l0.5,0.6
		c-0.2,0.2-0.4,0.4-0.6,0.6s-0.5,0.3-0.7,0.4c-0.3,0.1-0.5,0.2-0.8,0.2s-0.5,0.1-0.8,0.1c-0.5,0-1-0.1-1.4-0.2s-0.8-0.4-1.1-0.7
		s-0.6-0.7-0.7-1.2c-0.2-0.5-0.3-1-0.3-1.7c0-0.5,0.1-1,0.2-1.4c0.2-0.4,0.4-0.8,0.7-1.1s0.7-0.6,1.1-0.8
		C257-6.8,257.5-6.9,258.1-6.9z M258.1-5.7c-0.5,0-0.9,0.1-1.2,0.4s-0.5,0.7-0.5,1.2h3.3c0-0.2,0-0.4-0.1-0.6s-0.2-0.4-0.3-0.5
		s-0.3-0.3-0.5-0.4C258.6-5.6,258.4-5.7,258.1-5.7z"/>
	<path class="st6" d="M265.5-6.9c0.5,0,0.9,0.1,1.3,0.2s0.7,0.4,1,0.6c0.3,0.3,0.5,0.6,0.6,1c0.2,0.4,0.2,0.9,0.2,1.4
		c0,0.3,0,0.4-0.1,0.5c0,0.2-0.1,0.2-0.2,0.2h-4.4c0,0.4,0.1,0.7,0.2,1s0.2,0.5,0.4,0.7c0.2,0.2,0.4,0.3,0.6,0.4s0.5,0.1,0.8,0.1
		s0.5,0,0.7-0.1s0.4-0.1,0.5-0.2c0.2-0.1,0.3-0.2,0.4-0.2c0.1-0.1,0.2-0.1,0.3-0.1c0.1,0,0.3,0.1,0.3,0.2l0.5,0.6
		c-0.2,0.2-0.4,0.4-0.6,0.6s-0.5,0.3-0.7,0.4c-0.3,0.1-0.5,0.2-0.8,0.2s-0.5,0.1-0.8,0.1c-0.5,0-1-0.1-1.4-0.2s-0.8-0.4-1.1-0.7
		s-0.6-0.7-0.7-1.2c-0.2-0.5-0.3-1-0.3-1.7c0-0.5,0.1-1,0.2-1.4c0.2-0.4,0.4-0.8,0.7-1.1s0.7-0.6,1.1-0.8
		C264.5-6.8,265-6.9,265.5-6.9z M265.6-5.7c-0.5,0-0.9,0.1-1.2,0.4s-0.5,0.7-0.5,1.2h3.3c0-0.2,0-0.4-0.1-0.6s-0.2-0.4-0.3-0.5
		s-0.3-0.3-0.5-0.4C266.1-5.6,265.8-5.7,265.6-5.7z"/>
</g>
<g>
	<path class="st7" d="M315.1,0.4c-0.5,0-1-0.1-1.4-0.2s-0.8-0.3-1.1-0.6c-0.3-0.2-0.5-0.5-0.7-0.9s-0.2-0.7-0.2-1.2
		c0-0.6,0.2-1.2,0.5-1.6s0.8-0.7,1.4-0.9c-0.5-0.2-0.9-0.5-1.2-0.9c-0.3-0.4-0.4-0.9-0.4-1.4c0-0.4,0.1-0.7,0.2-1s0.3-0.6,0.6-0.8
		c0.3-0.2,0.6-0.4,1-0.6s0.8-0.2,1.2-0.2c0.5,0,0.9,0.1,1.2,0.2s0.7,0.3,1,0.6c0.3,0.2,0.5,0.5,0.6,0.8s0.2,0.7,0.2,1
		c0,0.5-0.1,1-0.4,1.4s-0.7,0.7-1.2,0.9c0.6,0.2,1.1,0.5,1.4,0.9s0.5,0.9,0.5,1.6c0,0.4-0.1,0.8-0.2,1.2c-0.2,0.4-0.4,0.7-0.7,0.9
		c-0.3,0.2-0.7,0.4-1.1,0.6C316,0.4,315.6,0.4,315.1,0.4z M315.1-0.6c0.3,0,0.6,0,0.9-0.1s0.5-0.2,0.7-0.4s0.3-0.4,0.4-0.6
		s0.1-0.5,0.1-0.8s-0.1-0.6-0.2-0.9s-0.3-0.4-0.5-0.6s-0.4-0.3-0.7-0.3s-0.5-0.1-0.8-0.1s-0.5,0-0.8,0.1s-0.5,0.2-0.7,0.3
		c-0.2,0.2-0.3,0.4-0.5,0.6c0,0.3,0,0.6,0,1c0,0.3,0,0.5,0.1,0.8s0.2,0.4,0.4,0.6c0.2,0.2,0.4,0.3,0.7,0.4
		C314.4-0.6,314.7-0.6,315.1-0.6z M315.1-5.4c0.3,0,0.6,0,0.8-0.2c0.2-0.1,0.4-0.2,0.6-0.4s0.2-0.4,0.3-0.6c0.1-0.2,0.1-0.4,0.1-0.7
		c0-0.2,0-0.5-0.1-0.7c-0.1-0.2-0.2-0.4-0.3-0.5c-0.2-0.2-0.3-0.3-0.6-0.4S315.4-9,315.1-9s-0.6,0-0.8,0.1s-0.4,0.2-0.6,0.4
		s-0.3,0.3-0.3,0.5c-0.1,0.2-0.1,0.4-0.1,0.7c0,0.2,0,0.5,0.1,0.7s0.2,0.4,0.3,0.6s0.3,0.3,0.6,0.4C314.5-5.4,314.7-5.4,315.1-5.4z"
		/>
	<path class="st7" d="M320-5.7c0-0.1,0-0.2,0.1-0.3c0-0.1,0.1-0.2,0.2-0.3c0.1-0.1,0.2-0.1,0.3-0.2c0.1,0,0.2-0.1,0.3-0.1
		c0.1,0,0.2,0,0.3,0.1c0.1,0,0.2,0.1,0.3,0.2c0.1,0.1,0.1,0.2,0.2,0.3c0,0.1,0.1,0.2,0.1,0.3c0,0.1,0,0.2-0.1,0.3
		c0,0.1-0.1,0.2-0.2,0.3c-0.1,0.1-0.2,0.1-0.3,0.2s-0.2,0.1-0.3,0.1c-0.1,0-0.2,0-0.3-0.1s-0.2-0.1-0.3-0.2
		c-0.1-0.1-0.1-0.2-0.2-0.3S320-5.6,320-5.7z M320-0.4c0-0.1,0-0.2,0.1-0.3c0-0.1,0.1-0.2,0.2-0.3s0.2-0.1,0.3-0.2
		c0.1,0,0.2-0.1,0.3-0.1c0.1,0,0.2,0,0.3,0.1c0.1,0,0.2,0.1,0.3,0.2c0.1,0.1,0.1,0.2,0.2,0.3c0,0.1,0.1,0.2,0.1,0.3s0,0.2-0.1,0.3
		c0,0.1-0.1,0.2-0.2,0.3s-0.2,0.1-0.3,0.2s-0.2,0.1-0.3,0.1c-0.1,0-0.2,0-0.3-0.1s-0.2-0.1-0.3-0.2c-0.1-0.1-0.1-0.2-0.2-0.3
		S320-0.3,320-0.4z"/>
	<path class="st7" d="M329.5-9.2c0,0.2-0.1,0.3-0.2,0.4s-0.3,0.2-0.6,0.2h-3.2L325-6c0.3-0.1,0.5-0.1,0.8-0.1c0.2,0,0.5,0,0.7,0
		c0.5,0,1,0.1,1.4,0.2c0.4,0.2,0.7,0.4,1,0.6c0.3,0.3,0.5,0.6,0.6,1s0.2,0.8,0.2,1.2c0,0.5-0.1,1-0.3,1.4c-0.2,0.4-0.4,0.8-0.8,1.1
		s-0.7,0.5-1.1,0.7s-0.9,0.2-1.4,0.2c-0.3,0-0.6,0-0.8-0.1c-0.3-0.1-0.5-0.1-0.8-0.2c-0.2-0.1-0.5-0.2-0.7-0.3s-0.4-0.3-0.5-0.4
		l0.4-0.5c0.1-0.1,0.2-0.2,0.3-0.2c0.1,0,0.2,0,0.3,0.1s0.3,0.2,0.4,0.2c0.2,0.1,0.4,0.2,0.6,0.2s0.5,0.1,0.8,0.1s0.7-0.1,0.9-0.2
		c0.3-0.1,0.5-0.3,0.7-0.5s0.4-0.5,0.5-0.7c0.1-0.3,0.2-0.6,0.2-1c0-0.3,0-0.6-0.1-0.8s-0.2-0.5-0.4-0.6s-0.4-0.3-0.7-0.4
		s-0.6-0.1-1-0.1c-0.3,0-0.5,0-0.8,0.1c-0.3,0-0.6,0.1-0.8,0.2L323.9-5l0.8-4.7h4.8L329.5-9.2L329.5-9.2z"/>
	<path class="st7" d="M334.9-9.8c0.4,0,0.8,0.1,1.2,0.2s0.7,0.3,0.9,0.5c0.3,0.2,0.5,0.5,0.6,0.8s0.2,0.7,0.2,1.1
		c0,0.3,0,0.6-0.1,0.9c-0.1,0.2-0.2,0.5-0.3,0.7c-0.2,0.2-0.3,0.3-0.5,0.5c-0.2,0.1-0.5,0.2-0.7,0.3c0.7,0.2,1.1,0.5,1.5,0.9
		c0.3,0.4,0.5,0.9,0.5,1.5c0,0.5-0.1,0.9-0.3,1.2c-0.2,0.4-0.4,0.7-0.7,0.9c-0.3,0.3-0.7,0.5-1.1,0.6s-0.8,0.2-1.3,0.2
		s-1-0.1-1.4-0.2s-0.7-0.3-1-0.5s-0.5-0.5-0.6-0.8c-0.2-0.3-0.3-0.7-0.4-1l0.5-0.2c0.1-0.1,0.3-0.1,0.4,0c0.1,0,0.2,0.1,0.3,0.2
		c0.1,0.1,0.1,0.3,0.2,0.5s0.2,0.4,0.4,0.5c0.2,0.2,0.4,0.3,0.6,0.4s0.6,0.2,0.9,0.2s0.7-0.1,0.9-0.2s0.5-0.3,0.7-0.4
		c0.2-0.2,0.3-0.4,0.4-0.6s0.1-0.4,0.1-0.7s0-0.5-0.1-0.7s-0.2-0.4-0.4-0.6c-0.2-0.2-0.5-0.3-0.8-0.4c-0.3-0.1-0.8-0.1-1.3-0.1V-5
		c0.4,0,0.8-0.1,1.1-0.1c0.3-0.1,0.5-0.2,0.7-0.4c0.2-0.2,0.3-0.3,0.4-0.6s0.1-0.5,0.1-0.7c0-0.3,0-0.5-0.1-0.8
		c-0.1-0.2-0.2-0.4-0.4-0.5c-0.2-0.1-0.3-0.2-0.6-0.3c-0.2-0.1-0.5-0.1-0.7-0.1s-0.5,0-0.7,0.1s-0.4,0.2-0.6,0.3s-0.3,0.3-0.4,0.5
		s-0.2,0.4-0.2,0.6c-0.1,0.2-0.1,0.3-0.2,0.3c-0.1,0.1-0.2,0.1-0.4,0L331.6-7c0.1-0.5,0.2-0.9,0.4-1.2c0.2-0.4,0.4-0.6,0.7-0.9
		c0.3-0.2,0.6-0.4,1-0.5S334.5-9.8,334.9-9.8z"/>
	<path class="st7" d="M345.1-3.4v3.8h-1.4v-10h3c0.6,0,1.2,0.1,1.7,0.2c0.5,0.1,0.9,0.4,1.2,0.6c0.3,0.3,0.5,0.6,0.7,1
		c0.2,0.4,0.2,0.8,0.2,1.3s-0.1,0.9-0.2,1.3c-0.2,0.4-0.4,0.7-0.7,1c-0.3,0.3-0.7,0.5-1.2,0.7s-1,0.2-1.6,0.2h-1.7V-3.4z M345.1-4.5
		h1.6c0.4,0,0.7-0.1,1-0.2s0.5-0.2,0.7-0.4c0.2-0.2,0.4-0.4,0.5-0.7c0.1-0.3,0.2-0.5,0.2-0.8c0-0.6-0.2-1.1-0.6-1.5s-1-0.5-1.8-0.5
		h-1.6L345.1-4.5L345.1-4.5z"/>
	<path class="st7" d="M357.2-2.9c0.1,0.1,0.1,0.2,0.2,0.4c0-0.1,0.1-0.3,0.1-0.4c0.1-0.1,0.1-0.2,0.2-0.4l3.4-6.2
		c0.1-0.1,0.1-0.2,0.2-0.2s0.2,0,0.3,0h1v10h-1.2V-7c0-0.1,0-0.2,0-0.3c0-0.1,0-0.2,0-0.3L358-1.4c-0.1,0.2-0.3,0.3-0.5,0.3h-0.2
		c-0.2,0-0.4-0.1-0.5-0.3l-3.5-6.3c0,0.1,0,0.2,0,0.4c0,0.1,0,0.2,0,0.3v7.4h-1.2v-10h1c0.1,0,0.2,0,0.3,0c0.1,0,0.1,0.1,0.2,0.2
		l3.5,6.2C357.1-3.2,357.2-3.1,357.2-2.9z"/>
</g>
<g>
	<path class="st8" d="M233.2,20.5V8.6h2.4v0.5c0,0.1,0,0.2-0.1,0.2c-0.1,0.1-0.1,0.1-0.2,0.1h-1.1v10.3h1.1c0.1,0,0.2,0,0.2,0.1
		c0.1,0.1,0.1,0.1,0.1,0.2v0.5C235.6,20.5,233.2,20.5,233.2,20.5z"/>
	<path class="st8" d="M237,18.6V13l-0.7-0.1c-0.1,0-0.2-0.1-0.2-0.1c-0.1,0-0.1-0.1-0.1-0.2v-0.5h1v-0.6c0-0.4,0.1-0.7,0.2-1
		c0.1-0.3,0.3-0.5,0.5-0.7s0.4-0.4,0.7-0.5s0.6-0.2,0.9-0.2c0.3,0,0.6,0,0.8,0.1v0.6c0,0.1-0.1,0.2-0.2,0.2c-0.1,0-0.2,0-0.4,0
		s-0.4,0-0.5,0.1c-0.2,0.1-0.3,0.1-0.4,0.3s-0.2,0.3-0.3,0.5s-0.1,0.4-0.1,0.7v0.6h1.9V13h-1.9v5.6H237z"/>
	<path class="st8" d="M245.3,18.6c-0.1,0-0.2,0-0.3-0.1c-0.1,0-0.1-0.1-0.1-0.2l-0.1-0.6c-0.2,0.2-0.3,0.3-0.5,0.4s-0.3,0.2-0.5,0.3
		c-0.2,0.1-0.4,0.2-0.6,0.2c-0.2,0-0.4,0.1-0.7,0.1s-0.5,0-0.7-0.1s-0.4-0.2-0.6-0.3c-0.2-0.1-0.3-0.3-0.4-0.5
		c-0.1-0.2-0.1-0.5-0.1-0.8s0.1-0.5,0.2-0.8c0.1-0.2,0.4-0.5,0.7-0.6s0.7-0.3,1.3-0.5s1.1-0.2,1.9-0.2v-0.5c0-0.5-0.1-0.9-0.3-1.2
		s-0.5-0.4-1-0.4c-0.3,0-0.5,0-0.7,0.1s-0.4,0.2-0.5,0.2c-0.1,0.1-0.3,0.2-0.4,0.2c-0.1,0.1-0.2,0.1-0.3,0.1s-0.1,0-0.2-0.1
		c-0.1,0-0.1-0.1-0.1-0.2l-0.2-0.4c0.4-0.4,0.8-0.6,1.2-0.8s0.9-0.3,1.4-0.3c0.4,0,0.7,0.1,1,0.2c0.3,0.1,0.5,0.3,0.7,0.5
		s0.3,0.5,0.4,0.8s0.1,0.6,0.1,1v4.2h-0.6V18.6z M242.8,17.9c0.2,0,0.4,0,0.6-0.1c0.2,0,0.3-0.1,0.5-0.2s0.3-0.2,0.4-0.3
		c0.1-0.1,0.3-0.2,0.4-0.4v-1.4c-0.5,0-1,0.1-1.4,0.1c-0.4,0.1-0.7,0.2-0.9,0.3c-0.2,0.1-0.4,0.2-0.5,0.4c-0.1,0.1-0.2,0.3-0.2,0.5
		s0,0.3,0.1,0.4s0.1,0.2,0.2,0.3c0.1,0.1,0.2,0.1,0.3,0.2C242.5,17.9,242.7,17.9,242.8,17.9z"/>
	<path class="st8" d="M249.1,9.9c0,0.1,0,0.2-0.1,0.3c0,0.1-0.1,0.2-0.2,0.3s-0.2,0.1-0.3,0.2c-0.1,0-0.2,0.1-0.3,0.1
		s-0.2,0-0.3-0.1c-0.1,0-0.2-0.1-0.3-0.2s-0.1-0.2-0.2-0.3c0-0.1-0.1-0.2-0.1-0.3s0-0.2,0.1-0.3c0-0.1,0.1-0.2,0.2-0.3
		s0.2-0.1,0.3-0.2c0.1,0,0.2-0.1,0.3-0.1s0.2,0,0.3,0.1c0.1,0,0.2,0.1,0.3,0.2s0.1,0.2,0.2,0.3C249,9.7,249.1,9.8,249.1,9.9z
		 M248.8,12v6.6h-1.2V12H248.8z"/>
	<path class="st8" d="M251.9,9v9.6h-1.2V9H251.9z"/>
	<path class="st8" d="M254.9,12v4.2c0,0.5,0.1,0.9,0.3,1.2c0.2,0.3,0.6,0.4,1,0.4c0.3,0,0.7-0.1,1-0.2c0.3-0.2,0.6-0.4,0.8-0.7V12
		h1.2v6.6h-0.7c-0.2,0-0.3-0.1-0.3-0.2l-0.1-0.7c-0.3,0.3-0.6,0.6-1,0.8c-0.4,0.2-0.8,0.3-1.2,0.3c-0.4,0-0.7-0.1-1-0.2
		s-0.5-0.3-0.7-0.5s-0.3-0.5-0.4-0.8c-0.1-0.3-0.1-0.6-0.1-1V12H254.9z"/>
	<path class="st8" d="M261,18.6V12h0.7c0.1,0,0.2,0,0.3,0.1c0,0,0.1,0.1,0.1,0.2l0.1,1c0.2-0.5,0.5-0.8,0.8-1.1s0.7-0.4,1.1-0.4
		c0.1,0,0.3,0,0.4,0s0.2,0.1,0.3,0.1l-0.1,0.9c0,0.1-0.1,0.2-0.2,0.2s-0.1,0-0.3,0c-0.1,0-0.2,0-0.4,0c-0.2,0-0.4,0-0.6,0.1
		s-0.3,0.2-0.4,0.3s-0.2,0.3-0.3,0.4c-0.1,0.2-0.2,0.4-0.3,0.6v4.2H261z"/>
	<path class="st8" d="M268.2,11.9c0.4,0,0.8,0.1,1.1,0.2c0.3,0.1,0.6,0.3,0.9,0.6c0.2,0.2,0.4,0.6,0.6,0.9c0.1,0.4,0.2,0.8,0.2,1.3
		c0,0.2,0,0.3-0.1,0.4s-0.1,0.1-0.2,0.1h-4.4c0,0.4,0.1,0.8,0.2,1.1s0.2,0.6,0.4,0.8c0.2,0.2,0.4,0.4,0.6,0.5
		c0.3,0.1,0.5,0.2,0.8,0.2s0.5,0,0.8-0.1c0.2-0.1,0.4-0.1,0.5-0.2c0.2-0.1,0.3-0.2,0.4-0.2c0.1-0.1,0.2-0.1,0.3-0.1
		c0.1,0,0.2,0,0.2,0.1l0.3,0.4c-0.1,0.2-0.3,0.3-0.5,0.5s-0.4,0.2-0.6,0.3c-0.2,0.1-0.5,0.1-0.7,0.2s-0.5,0.1-0.7,0.1
		c-0.5,0-0.9-0.1-1.3-0.2c-0.4-0.2-0.7-0.4-1-0.7s-0.5-0.7-0.7-1.1s-0.2-0.9-0.2-1.5c0-0.5,0.1-0.9,0.2-1.3c0.1-0.4,0.3-0.7,0.6-1
		s0.6-0.5,1-0.7C267.3,12,267.7,11.9,268.2,11.9z M268.2,12.8c-0.6,0-1,0.2-1.3,0.5s-0.5,0.8-0.6,1.3h3.6c0-0.3,0-0.5-0.1-0.7
		s-0.2-0.4-0.3-0.6c-0.1-0.2-0.3-0.3-0.5-0.4S268.5,12.8,268.2,12.8z"/>
	<path class="st8" d="M271.4,20c0-0.1,0-0.2,0.1-0.2c0.1-0.1,0.1-0.1,0.2-0.1h1.1V9.4h-1.1c-0.1,0-0.2,0-0.2-0.1
		c-0.1-0.1-0.1-0.1-0.1-0.2V8.6h2.4v11.8h-2.4V20z"/>
	<path class="st8" d="M287.1,18.6h-1.3v-4.2h-5v4.2h-1.3V9.3h1.3v4.2h5V9.3h1.3V18.6z"/>
	<path class="st8" d="M295.8,9.3v1.1h-3v8.3h-1.3v-8.3h-3V9.3H295.8z"/>
	<path class="st8" d="M303.4,9.3v1.1h-3v8.3h-1.3v-8.3h-3V9.3H303.4z"/>
	<path class="st8" d="M306.1,15.1v3.5h-1.3V9.3h2.7c0.6,0,1.1,0.1,1.5,0.2c0.4,0.1,0.8,0.3,1.1,0.6c0.3,0.3,0.5,0.6,0.6,0.9
		c0.1,0.4,0.2,0.8,0.2,1.2s-0.1,0.8-0.2,1.2c-0.2,0.4-0.4,0.7-0.7,0.9c-0.3,0.3-0.7,0.5-1.1,0.6s-0.9,0.2-1.5,0.2
		C307.4,15.1,306.1,15.1,306.1,15.1z M306.1,14.1h1.5c0.4,0,0.7,0,1-0.1s0.5-0.2,0.7-0.4s0.3-0.4,0.4-0.6s0.1-0.5,0.1-0.8
		c0-0.6-0.2-1.1-0.5-1.4c-0.4-0.3-0.9-0.5-1.7-0.5h-1.5V14.1z"/>
	<path class="st8" d="M320.4,10.7c0,0.1-0.1,0.1-0.1,0.1s-0.1,0-0.2,0s-0.2,0-0.3-0.1s-0.2-0.2-0.4-0.2c-0.1-0.1-0.3-0.2-0.5-0.2
		c-0.2-0.1-0.5-0.1-0.8-0.1s-0.5,0-0.7,0.1s-0.4,0.2-0.5,0.3s-0.3,0.3-0.3,0.5c-0.1,0.2-0.1,0.4-0.1,0.6c0,0.3,0.1,0.5,0.2,0.6
		s0.3,0.3,0.5,0.4c0.2,0.1,0.4,0.2,0.7,0.3s0.5,0.2,0.8,0.3s0.6,0.2,0.8,0.3s0.5,0.3,0.7,0.5s0.4,0.4,0.5,0.7s0.2,0.6,0.2,1
		s-0.1,0.8-0.2,1.1s-0.3,0.7-0.6,0.9c-0.3,0.3-0.6,0.5-1,0.6s-0.8,0.2-1.3,0.2c-0.6,0-1.2-0.1-1.7-0.3s-0.9-0.5-1.3-0.9l0.4-0.6
		l0.1-0.1c0,0,0.1,0,0.2,0s0.1,0,0.2,0.1c0.1,0,0.2,0.1,0.2,0.2c0.1,0.1,0.2,0.1,0.3,0.2c0.1,0.1,0.2,0.2,0.4,0.2s0.3,0.1,0.5,0.2
		c0.2,0,0.4,0.1,0.6,0.1c0.3,0,0.6,0,0.8-0.1c0.2-0.1,0.4-0.2,0.6-0.3c0.2-0.2,0.3-0.3,0.4-0.5s0.1-0.4,0.1-0.7
		c0-0.3-0.1-0.5-0.2-0.7s-0.3-0.3-0.5-0.5c-0.2-0.1-0.4-0.2-0.7-0.3s-0.5-0.2-0.8-0.3s-0.5-0.2-0.8-0.3s-0.5-0.3-0.7-0.5
		s-0.4-0.4-0.5-0.7s-0.2-0.6-0.2-1c0-0.3,0.1-0.6,0.2-1c0.1-0.3,0.3-0.6,0.6-0.8s0.5-0.4,0.9-0.6s0.8-0.2,1.2-0.2
		c0.5,0,1,0.1,1.4,0.2s0.8,0.4,1.1,0.7L320.4,10.7z"/>
	<path class="st8" d="M325,11.9c0.4,0,0.8,0.1,1.1,0.2c0.3,0.1,0.6,0.3,0.9,0.6s0.4,0.6,0.6,0.9c0.1,0.4,0.2,0.8,0.2,1.3
		c0,0.2,0,0.3-0.1,0.4s-0.1,0.1-0.2,0.1h-4.4c0,0.4,0.1,0.8,0.2,1.1c0.1,0.3,0.2,0.6,0.4,0.8c0.2,0.2,0.4,0.4,0.7,0.5
		c0.3,0.1,0.5,0.2,0.8,0.2s0.5,0,0.8-0.1c0.2-0.1,0.4-0.1,0.5-0.2c0.2-0.1,0.3-0.2,0.4-0.2c0.1-0.1,0.2-0.1,0.3-0.1
		c0.1,0,0.2,0,0.2,0.1l0.3,0.4c-0.1,0.2-0.3,0.3-0.5,0.5s-0.4,0.2-0.6,0.3s-0.5,0.1-0.7,0.2c-0.2,0-0.5,0.1-0.7,0.1
		c-0.5,0-0.9-0.1-1.3-0.2c-0.4-0.2-0.7-0.4-1-0.7s-0.5-0.7-0.7-1.1s-0.2-0.9-0.2-1.5c0-0.5,0.1-0.9,0.2-1.3s0.3-0.7,0.6-1
		s0.6-0.5,1-0.7C324.1,12,324.5,11.9,325,11.9z M325,12.8c-0.6,0-1,0.2-1.3,0.5s-0.5,0.8-0.6,1.3h3.6c0-0.3,0-0.5-0.1-0.7
		s-0.2-0.4-0.3-0.6c-0.1-0.2-0.3-0.3-0.5-0.4S325.3,12.8,325,12.8z"/>
	<path class="st8" d="M329.2,18.6V12h0.7c0.1,0,0.2,0,0.3,0.1c0,0,0.1,0.1,0.1,0.2l0.1,1c0.2-0.5,0.5-0.8,0.8-1.1s0.7-0.4,1.1-0.4
		c0.1,0,0.3,0,0.4,0s0.2,0.1,0.3,0.1l-0.1,0.9c0,0.1-0.1,0.2-0.2,0.2s-0.2,0-0.3,0c-0.1,0-0.2,0-0.4,0c-0.2,0-0.4,0-0.6,0.1
		s-0.3,0.2-0.4,0.3s-0.2,0.3-0.3,0.4c-0.1,0.2-0.2,0.4-0.3,0.6v4.2H329.2z"/>
	<path class="st8" d="M333.1,12h0.9c0.1,0,0.2,0,0.2,0.1c0.1,0,0.1,0.1,0.1,0.2l1.7,4.2c0.1,0.2,0.1,0.3,0.1,0.5s0.1,0.3,0.1,0.5
		c0-0.2,0.1-0.3,0.1-0.5s0.1-0.3,0.1-0.5l1.7-4.2c0-0.1,0.1-0.1,0.1-0.2s0.1-0.1,0.2-0.1h0.9l-2.7,6.6h-1L333.1,12z"/>
	<path class="st8" d="M342.1,9.9c0,0.1,0,0.2-0.1,0.3c0,0.1-0.1,0.2-0.2,0.3s-0.2,0.1-0.3,0.2c-0.1,0-0.2,0.1-0.3,0.1
		s-0.2,0-0.3-0.1s-0.2-0.1-0.3-0.2c-0.1-0.1-0.1-0.2-0.2-0.3c0-0.1-0.1-0.2-0.1-0.3s0-0.2,0.1-0.3c0-0.1,0.1-0.2,0.2-0.3
		s0.2-0.1,0.3-0.2s0.2-0.1,0.3-0.1s0.2,0,0.3,0.1c0.1,0,0.2,0.1,0.3,0.2c0.1,0.1,0.1,0.2,0.2,0.3C342,9.7,342.1,9.8,342.1,9.9z
		 M341.8,12v6.6h-1.2V12H341.8z"/>
	<path class="st8" d="M348.3,13.2l-0.1,0.1h-0.1c-0.1,0-0.1,0-0.2-0.1s-0.2-0.1-0.3-0.2c-0.1-0.1-0.3-0.1-0.4-0.2
		c-0.2-0.1-0.4-0.1-0.6-0.1c-0.3,0-0.6,0.1-0.9,0.2s-0.5,0.3-0.6,0.5c-0.2,0.2-0.3,0.5-0.4,0.8s-0.1,0.7-0.1,1c0,0.4,0,0.8,0.1,1.1
		s0.2,0.6,0.4,0.8c0.2,0.2,0.4,0.4,0.6,0.5s0.5,0.2,0.8,0.2s0.5,0,0.7-0.1s0.3-0.1,0.5-0.2c0.1-0.1,0.2-0.2,0.3-0.2
		c0.1-0.1,0.2-0.1,0.2-0.1c0.1,0,0.2,0,0.2,0.1l0.3,0.4c-0.1,0.2-0.3,0.3-0.5,0.5c-0.2,0.1-0.4,0.2-0.6,0.3s-0.4,0.1-0.7,0.2
		c-0.2,0-0.5,0.1-0.7,0.1c-0.4,0-0.8-0.1-1.1-0.2c-0.4-0.2-0.7-0.4-0.9-0.7c-0.3-0.3-0.5-0.6-0.6-1.1c-0.1-0.4-0.2-0.9-0.2-1.4
		s0.1-0.9,0.2-1.4s0.3-0.8,0.6-1.1c0.3-0.3,0.6-0.5,1-0.7s0.8-0.3,1.3-0.3s0.9,0.1,1.2,0.2s0.7,0.4,0.9,0.6L348.3,13.2z"/>
	<path class="st8" d="M352.5,11.9c0.4,0,0.8,0.1,1.1,0.2c0.3,0.1,0.6,0.3,0.9,0.6s0.4,0.6,0.6,0.9c0.1,0.4,0.2,0.8,0.2,1.3
		c0,0.2,0,0.3-0.1,0.4s-0.1,0.1-0.2,0.1h-4.4c0,0.4,0.1,0.8,0.2,1.1c0.1,0.3,0.2,0.6,0.4,0.8c0.2,0.2,0.4,0.4,0.7,0.5
		c0.3,0.1,0.5,0.2,0.8,0.2s0.5,0,0.8-0.1c0.2-0.1,0.4-0.1,0.5-0.2c0.2-0.1,0.3-0.2,0.4-0.2c0.1-0.1,0.2-0.1,0.3-0.1
		c0.1,0,0.2,0,0.2,0.1l0.3,0.4c-0.1,0.2-0.3,0.3-0.5,0.5s-0.4,0.2-0.6,0.3s-0.5,0.1-0.7,0.2c-0.2,0-0.5,0.1-0.7,0.1
		c-0.5,0-0.9-0.1-1.3-0.2c-0.4-0.2-0.7-0.4-1-0.7s-0.5-0.7-0.7-1.1s-0.2-0.9-0.2-1.5c0-0.5,0.1-0.9,0.2-1.3s0.3-0.7,0.6-1
		s0.6-0.5,1-0.7C351.6,12,352,11.9,352.5,11.9z M352.5,12.8c-0.6,0-1,0.2-1.3,0.5s-0.5,0.8-0.6,1.3h3.6c0-0.3,0-0.5-0.1-0.7
		s-0.2-0.4-0.3-0.6c-0.1-0.2-0.3-0.3-0.5-0.4S352.8,12.8,352.5,12.8z"/>
	<path class="st8" d="M356.5,17.8c0-0.2,0.1-0.4,0.2-0.5s0.3-0.2,0.6-0.2c0.1,0,0.2,0,0.3,0.1s0.2,0.1,0.2,0.2s0.1,0.2,0.2,0.3
		c0,0.1,0.1,0.2,0.1,0.4c0,0.2,0,0.4-0.1,0.6s-0.1,0.4-0.2,0.6s-0.2,0.4-0.4,0.6c-0.2,0.2-0.3,0.4-0.5,0.5l-0.2-0.2l-0.1-0.1V20
		v-0.1c0,0,0-0.1,0.1-0.1c0,0,0.1-0.1,0.2-0.2s0.1-0.2,0.2-0.3s0.1-0.2,0.2-0.3c0.1-0.1,0.1-0.3,0.1-0.4h-0.1
		c-0.2,0-0.4-0.1-0.5-0.2C356.5,18.2,356.5,18,356.5,17.8z"/>
	<path class="st8" d="M363,20.8V12h0.7c0.2,0,0.3,0.1,0.3,0.2l0.1,0.8c0.3-0.3,0.6-0.6,1-0.8s0.8-0.3,1.2-0.3c0.4,0,0.7,0.1,1,0.2
		c0.3,0.1,0.6,0.4,0.8,0.6s0.4,0.6,0.5,1.1c0.1,0.4,0.2,0.9,0.2,1.5c0,0.5-0.1,0.9-0.2,1.4c-0.1,0.4-0.3,0.8-0.6,1.1
		c-0.2,0.3-0.5,0.5-0.9,0.7s-0.8,0.3-1.2,0.3c-0.4,0-0.7-0.1-1-0.2s-0.5-0.3-0.8-0.6v2.9H363V20.8z M365.9,12.8
		c-0.4,0-0.7,0.1-1,0.3s-0.5,0.4-0.8,0.7V17c0.2,0.3,0.4,0.5,0.7,0.6c0.3,0.1,0.5,0.2,0.8,0.2c0.6,0,1.1-0.2,1.4-0.7
		c0.3-0.4,0.5-1.1,0.5-1.9c0-0.4,0-0.8-0.1-1.1s-0.2-0.6-0.3-0.8c-0.1-0.2-0.3-0.3-0.5-0.4C366.4,12.9,366.2,12.8,365.9,12.8z"/>
	<path class="st8" d="M373,11.9c0.5,0,0.9,0.1,1.3,0.2c0.4,0.2,0.7,0.4,1,0.7s0.5,0.7,0.6,1.1c0.1,0.4,0.2,0.9,0.2,1.4
		s-0.1,1-0.2,1.4s-0.4,0.8-0.6,1.1c-0.3,0.3-0.6,0.5-1,0.7s-0.8,0.2-1.3,0.2s-0.9-0.1-1.3-0.2s-0.7-0.4-1-0.7
		c-0.3-0.3-0.5-0.7-0.6-1.1s-0.2-0.9-0.2-1.4s0.1-1,0.2-1.4s0.4-0.8,0.6-1.1c0.3-0.3,0.6-0.5,1-0.7C372.1,12,372.5,11.9,373,11.9z
		 M373,17.8c0.6,0,1.1-0.2,1.5-0.7c0.3-0.4,0.5-1,0.5-1.8s-0.2-1.4-0.5-1.8c-0.3-0.4-0.8-0.7-1.5-0.7c-0.3,0-0.6,0.1-0.9,0.2
		c-0.2,0.1-0.4,0.3-0.6,0.5s-0.3,0.5-0.4,0.8S371,15,371,15.4c0,0.8,0.2,1.4,0.5,1.8S372.4,17.8,373,17.8z"/>
	<path class="st8" d="M377.6,18.6V12h0.7c0.1,0,0.2,0,0.3,0.1c0,0,0.1,0.1,0.1,0.2l0.1,1c0.2-0.5,0.5-0.8,0.8-1.1s0.7-0.4,1.1-0.4
		c0.1,0,0.3,0,0.4,0s0.2,0.1,0.3,0.1l-0.1,0.9c0,0.1-0.1,0.2-0.2,0.2s-0.2,0-0.3,0c-0.1,0-0.2,0-0.4,0c-0.2,0-0.4,0-0.6,0.1
		s-0.3,0.2-0.4,0.3s-0.2,0.3-0.3,0.4c-0.1,0.2-0.2,0.4-0.3,0.6v4.2H377.6z"/>
	<path class="st8" d="M384.4,18.7c-0.5,0-0.9-0.1-1.2-0.4c-0.3-0.3-0.4-0.7-0.4-1.3v-4H382c-0.1,0-0.1,0-0.2-0.1
		c0,0-0.1-0.1-0.1-0.2v-0.5l1.1-0.1l0.3-2c0-0.1,0-0.1,0.1-0.2c0,0,0.1-0.1,0.2-0.1h0.6v2.3h1.9V13H384v4c0,0.3,0.1,0.5,0.2,0.6
		s0.3,0.2,0.5,0.2c0.1,0,0.2,0,0.3,0c0.1,0,0.2-0.1,0.2-0.1c0.1,0,0.1-0.1,0.2-0.1h0.1c0.1,0,0.1,0,0.2,0.1l0.3,0.6
		c-0.2,0.2-0.4,0.3-0.7,0.4C385,18.6,384.7,18.7,384.4,18.7z"/>
	<path class="st8" d="M393.2,18.7c-0.5,0-0.9-0.1-1.3-0.2s-0.7-0.3-1-0.5s-0.5-0.5-0.6-0.8c-0.2-0.3-0.2-0.7-0.2-1.1
		c0-0.6,0.2-1.1,0.5-1.5s0.8-0.7,1.3-0.8c-0.5-0.2-0.9-0.5-1.1-0.8s-0.4-0.8-0.4-1.3c0-0.3,0.1-0.7,0.2-1s0.3-0.6,0.6-0.8
		c0.2-0.2,0.5-0.4,0.9-0.5s0.7-0.2,1.2-0.2c0.4,0,0.8,0.1,1.2,0.2s0.6,0.3,0.9,0.5c0.2,0.2,0.4,0.5,0.6,0.8c0.1,0.3,0.2,0.6,0.2,1
		c0,0.5-0.1,0.9-0.4,1.3c-0.3,0.4-0.6,0.6-1.1,0.8c0.6,0.2,1,0.4,1.3,0.8c0.3,0.4,0.5,0.9,0.5,1.5c0,0.4-0.1,0.8-0.2,1.1
		c-0.2,0.3-0.4,0.6-0.6,0.8c-0.3,0.2-0.6,0.4-1,0.5C394.1,18.6,393.7,18.7,393.2,18.7z M393.2,17.8c0.3,0,0.6,0,0.8-0.1
		s0.4-0.2,0.6-0.4c0.2-0.2,0.3-0.3,0.4-0.6c0.1-0.2,0.1-0.5,0.1-0.7c0-0.3-0.1-0.6-0.2-0.8s-0.2-0.4-0.4-0.6
		c-0.2-0.1-0.4-0.2-0.6-0.3s-0.5-0.1-0.7-0.1c-0.3,0-0.5,0-0.7,0.1s-0.4,0.2-0.6,0.3s-0.3,0.3-0.4,0.6c-0.1,0.2-0.2,0.5-0.2,0.8
		s0,0.5,0.1,0.7c0.1,0.2,0.2,0.4,0.4,0.6c0.2,0.2,0.4,0.3,0.6,0.4S392.9,17.8,393.2,17.8z M393.2,13.3c0.3,0,0.6,0,0.8-0.1
		c0.2-0.1,0.4-0.2,0.5-0.4s0.2-0.3,0.3-0.5s0.1-0.4,0.1-0.6c0-0.2,0-0.4-0.1-0.6c-0.1-0.2-0.2-0.4-0.3-0.5c-0.1-0.1-0.3-0.3-0.5-0.3
		s-0.5-0.1-0.7-0.1s-0.5,0-0.7,0.1s-0.4,0.2-0.5,0.3s-0.2,0.3-0.3,0.5c-0.1,0.2-0.1,0.4-0.1,0.6c0,0.2,0,0.4,0.1,0.6
		s0.2,0.4,0.3,0.5c0.1,0.2,0.3,0.3,0.5,0.4C392.6,13.2,392.9,13.3,393.2,13.3z"/>
	<path class="st8" d="M404.1,13.9c0,0.8-0.1,1.5-0.3,2.1s-0.4,1.1-0.7,1.5c-0.3,0.4-0.7,0.7-1.1,0.9c-0.4,0.2-0.9,0.3-1.3,0.3
		c-0.5,0-0.9-0.1-1.3-0.3c-0.4-0.2-0.8-0.5-1.1-0.9c-0.3-0.4-0.5-0.9-0.7-1.5s-0.3-1.3-0.3-2.1s0.1-1.5,0.3-2.1
		c0.2-0.6,0.4-1.1,0.7-1.5c0.3-0.4,0.7-0.7,1.1-0.9s0.9-0.3,1.3-0.3c0.5,0,0.9,0.1,1.3,0.3s0.8,0.5,1.1,0.9c0.3,0.4,0.5,0.9,0.7,1.5
		C404,12.4,404.1,13.1,404.1,13.9z M402.9,13.9c0-0.7-0.1-1.3-0.2-1.8s-0.3-0.9-0.5-1.2s-0.4-0.5-0.7-0.6s-0.5-0.2-0.8-0.2
		s-0.6,0.1-0.8,0.2c-0.3,0.1-0.5,0.3-0.7,0.6s-0.4,0.7-0.5,1.2s-0.2,1.1-0.2,1.8s0.1,1.3,0.2,1.8c0.1,0.5,0.3,0.9,0.5,1.2
		s0.4,0.5,0.7,0.6c0.3,0.1,0.5,0.2,0.8,0.2s0.6-0.1,0.8-0.2c0.3-0.1,0.5-0.3,0.7-0.6c0.2-0.3,0.4-0.7,0.5-1.2S402.9,14.6,402.9,13.9
		z"/>
	<path class="st8" d="M408.6,14.2h3.2v1h-3.2V14.2z"/>
	<path class="st8" d="M233.6,33.7h2v-6.3c0-0.2,0-0.4,0-0.6l-1.7,1.4c-0.1,0-0.1,0.1-0.2,0.1c-0.1,0-0.1,0-0.2,0c0,0-0.1,0-0.1-0.1
		l-0.1-0.1l-0.4-0.5l2.8-2.4h0.9v8.4h1.8v0.9h-5v-0.8H233.6z"/>
	<path class="st8" d="M245.3,25.9c0,0.1,0,0.2-0.1,0.3c0,0.1-0.1,0.2-0.2,0.3c-0.1,0.1-0.2,0.1-0.3,0.2c-0.1,0-0.2,0.1-0.3,0.1
		s-0.2,0-0.3-0.1c-0.1,0-0.2-0.1-0.3-0.2s-0.1-0.2-0.2-0.3c0-0.1-0.1-0.2-0.1-0.3c0-0.1,0-0.2,0.1-0.3c0-0.1,0.1-0.2,0.2-0.3
		s0.2-0.1,0.3-0.2c0.1,0,0.2-0.1,0.3-0.1s0.2,0,0.3,0.1c0.1,0,0.2,0.1,0.3,0.2s0.1,0.2,0.2,0.3C245.2,25.7,245.3,25.8,245.3,25.9z
		 M245,28v6.6h-1.2V28H245z"/>
	<path class="st8" d="M246.9,34.6V28h0.7c0.2,0,0.3,0.1,0.3,0.2L248,29c0.3-0.3,0.6-0.6,1-0.8c0.4-0.2,0.8-0.3,1.2-0.3
		s0.7,0.1,1,0.2s0.5,0.3,0.7,0.5s0.3,0.5,0.4,0.8c0.1,0.3,0.1,0.6,0.1,1v4.2h-1.2v-4.2c0-0.5-0.1-0.9-0.3-1.2s-0.6-0.4-1-0.4
		c-0.3,0-0.7,0.1-1,0.2c-0.3,0.2-0.6,0.4-0.8,0.7v4.8L246.9,34.6L246.9,34.6z"/>
	<path class="st8" d="M258,29.1c-0.1,0.1-0.1,0.1-0.2,0.1s-0.1,0-0.2-0.1c-0.1,0-0.2-0.1-0.3-0.2c-0.1-0.1-0.3-0.1-0.4-0.2
		c-0.2,0-0.4-0.1-0.6-0.1s-0.4,0-0.5,0.1c-0.2,0.1-0.3,0.1-0.4,0.2c-0.1,0.1-0.2,0.2-0.3,0.3c-0.1,0.1-0.1,0.2-0.1,0.4
		c0,0.2,0,0.3,0.1,0.4s0.2,0.2,0.4,0.3c0.2,0.1,0.3,0.2,0.5,0.2c0.2,0.1,0.4,0.1,0.6,0.2c0.2,0.1,0.4,0.2,0.6,0.2
		c0.2,0.1,0.4,0.2,0.5,0.3c0.2,0.1,0.3,0.3,0.4,0.5s0.1,0.4,0.1,0.7s-0.1,0.6-0.2,0.8s-0.3,0.5-0.5,0.7s-0.5,0.3-0.8,0.4
		c-0.3,0.1-0.7,0.2-1.1,0.2c-0.5,0-0.9-0.1-1.2-0.2c-0.4-0.1-0.7-0.3-0.9-0.6l0.3-0.4c0-0.1,0.1-0.1,0.1-0.1s0.1,0,0.2,0
		c0.1,0,0.2,0,0.2,0.1c0.1,0.1,0.2,0.1,0.3,0.2c0.1,0.1,0.3,0.1,0.5,0.2s0.4,0.1,0.7,0.1c0.2,0,0.4,0,0.6-0.1s0.3-0.1,0.4-0.2
		c0.1-0.1,0.2-0.2,0.2-0.3c0.1-0.1,0.1-0.3,0.1-0.4c0-0.2,0-0.3-0.1-0.5c-0.1-0.1-0.2-0.2-0.4-0.3s-0.3-0.2-0.5-0.2
		c-0.2-0.1-0.4-0.1-0.6-0.2s-0.4-0.1-0.6-0.2c-0.2-0.1-0.4-0.2-0.5-0.3c-0.2-0.1-0.3-0.3-0.4-0.5s-0.1-0.4-0.1-0.7
		c0-0.3,0.1-0.5,0.2-0.7s0.3-0.4,0.5-0.6s0.4-0.3,0.7-0.4s0.6-0.2,1-0.2s0.8,0.1,1.2,0.2c0.3,0.1,0.6,0.3,0.9,0.6L258,29.1z"/>
	<path class="st8" d="M261.8,34.7c-0.5,0-0.9-0.1-1.2-0.4c-0.3-0.3-0.4-0.7-0.4-1.3v-4h-0.8c-0.1,0-0.1,0-0.2-0.1
		c0,0-0.1-0.1-0.1-0.2v-0.5l1.1-0.1l0.3-2c0-0.1,0-0.1,0.1-0.2s0.1-0.1,0.2-0.1h0.6v2.3h1.9V29h-1.9v4c0,0.3,0.1,0.5,0.2,0.6
		s0.3,0.2,0.5,0.2c0.1,0,0.2,0,0.3,0c0.1,0,0.2-0.1,0.2-0.1s0.1-0.1,0.2-0.1h0.1c0.1,0,0.1,0,0.2,0.1l0.3,0.6
		c-0.2,0.2-0.4,0.3-0.7,0.4S262.1,34.7,261.8,34.7z"/>
	<path class="st8" d="M268.6,34.6c-0.1,0-0.2,0-0.3-0.1c-0.1,0-0.1-0.1-0.1-0.2l-0.1-0.6c-0.2,0.2-0.3,0.3-0.5,0.4
		c-0.2,0.1-0.3,0.2-0.5,0.3s-0.4,0.2-0.6,0.2s-0.4,0.1-0.7,0.1c-0.3,0-0.5,0-0.7-0.1s-0.4-0.2-0.6-0.3s-0.3-0.3-0.4-0.5
		S264,33.3,264,33s0.1-0.5,0.2-0.8c0.1-0.2,0.4-0.5,0.7-0.6s0.7-0.3,1.3-0.5s1.1-0.2,1.9-0.2v-0.5c0-0.5-0.1-0.9-0.3-1.2
		c-0.2-0.3-0.5-0.4-1-0.4c-0.3,0-0.5,0-0.7,0.1s-0.4,0.2-0.5,0.2c-0.1,0.1-0.3,0.2-0.4,0.2c-0.1,0.1-0.2,0.1-0.3,0.1
		c-0.1,0-0.1,0-0.2-0.1c-0.1,0-0.1-0.1-0.1-0.2l-0.2-0.4c0.4-0.4,0.8-0.6,1.2-0.8c0.4-0.2,0.9-0.3,1.4-0.3c0.4,0,0.7,0.1,1,0.2
		s0.5,0.3,0.7,0.5s0.3,0.5,0.4,0.8s0.1,0.6,0.1,1v4.2h-0.6V34.6z M266.2,33.9c0.2,0,0.4,0,0.6-0.1c0.2,0,0.3-0.1,0.5-0.2
		s0.3-0.2,0.4-0.3s0.3-0.2,0.4-0.4v-1.4c-0.5,0-1,0.1-1.4,0.1c-0.4,0.1-0.7,0.2-0.9,0.3c-0.2,0.1-0.4,0.2-0.5,0.4
		c-0.1,0.1-0.2,0.3-0.2,0.5s0,0.3,0.1,0.4c0.1,0.1,0.1,0.2,0.2,0.3s0.2,0.1,0.3,0.2C265.9,33.9,266,33.9,266.2,33.9z"/>
	<path class="st8" d="M270.9,34.6V28h0.7c0.2,0,0.3,0.1,0.3,0.2L272,29c0.3-0.3,0.6-0.6,1-0.8c0.4-0.2,0.8-0.3,1.2-0.3
		c0.4,0,0.7,0.1,1,0.2s0.5,0.3,0.7,0.5s0.3,0.5,0.4,0.8s0.1,0.6,0.1,1v4.2h-1.2v-4.2c0-0.5-0.1-0.9-0.3-1.2s-0.6-0.4-1-0.4
		c-0.3,0-0.7,0.1-1,0.2c-0.3,0.2-0.6,0.4-0.8,0.7v4.8L270.9,34.6L270.9,34.6z"/>
	<path class="st8" d="M282.7,29.2l-0.1,0.1h-0.1c-0.1,0-0.1,0-0.2-0.1s-0.2-0.1-0.3-0.2s-0.3-0.1-0.4-0.2s-0.4-0.1-0.6-0.1
		c-0.3,0-0.6,0.1-0.9,0.2s-0.5,0.3-0.6,0.5c-0.2,0.2-0.3,0.5-0.4,0.8s-0.1,0.7-0.1,1c0,0.4,0,0.8,0.1,1.1c0.1,0.3,0.2,0.6,0.4,0.8
		c0.2,0.2,0.4,0.4,0.6,0.5s0.5,0.2,0.8,0.2s0.5,0,0.7-0.1s0.3-0.1,0.5-0.2c0.1-0.1,0.2-0.2,0.3-0.2c0.1-0.1,0.2-0.1,0.2-0.1
		c0.1,0,0.2,0,0.2,0.1l0.3,0.4c-0.1,0.2-0.3,0.3-0.5,0.5c-0.2,0.1-0.4,0.2-0.6,0.3s-0.4,0.1-0.7,0.2c-0.2,0-0.5,0.1-0.7,0.1
		c-0.4,0-0.8-0.1-1.1-0.2c-0.4-0.2-0.7-0.4-0.9-0.7c-0.3-0.3-0.5-0.6-0.6-1.1c-0.1-0.4-0.2-0.9-0.2-1.4s0.1-0.9,0.2-1.4
		c0.1-0.4,0.3-0.8,0.6-1.1s0.6-0.5,1-0.7s0.8-0.3,1.3-0.3s0.9,0.1,1.2,0.2s0.7,0.4,0.9,0.6L282.7,29.2z"/>
	<path class="st8" d="M287,27.9c0.4,0,0.8,0.1,1.1,0.2c0.3,0.1,0.6,0.3,0.9,0.6c0.2,0.2,0.4,0.6,0.6,0.9c0.1,0.4,0.2,0.8,0.2,1.3
		c0,0.2,0,0.3-0.1,0.4s-0.1,0.1-0.2,0.1H285c0,0.4,0.1,0.8,0.2,1.1s0.2,0.6,0.4,0.8c0.2,0.2,0.4,0.4,0.6,0.5
		c0.3,0.1,0.5,0.2,0.8,0.2s0.5,0,0.8-0.1c0.2-0.1,0.4-0.1,0.5-0.2c0.2-0.1,0.3-0.2,0.4-0.2c0.1-0.1,0.2-0.1,0.3-0.1
		c0.1,0,0.2,0,0.2,0.1l0.3,0.4c-0.1,0.2-0.3,0.3-0.5,0.5s-0.4,0.2-0.6,0.3s-0.5,0.1-0.7,0.2S287.2,35,287,35c-0.5,0-0.9-0.1-1.3-0.2
		c-0.4-0.2-0.7-0.4-1-0.7s-0.5-0.7-0.7-1.1c-0.2-0.4-0.2-0.9-0.2-1.5c0-0.5,0.1-0.9,0.2-1.3s0.3-0.7,0.6-1s0.6-0.5,1-0.7
		C286,28,286.5,27.9,287,27.9z M287,28.8c-0.6,0-1,0.2-1.3,0.5s-0.5,0.8-0.6,1.3h3.6c0-0.3,0-0.5-0.1-0.7s-0.2-0.4-0.3-0.6
		c-0.1-0.2-0.3-0.3-0.5-0.4S287.2,28.8,287,28.8z"/>
	<path class="st8" d="M295.9,25.9c0,0.1,0,0.2-0.1,0.3c0,0.1-0.1,0.2-0.2,0.3c-0.1,0.1-0.2,0.1-0.3,0.2c-0.1,0-0.2,0.1-0.3,0.1
		s-0.2,0-0.3-0.1c-0.1,0-0.2-0.1-0.3-0.2c-0.1-0.1-0.1-0.2-0.2-0.3c0-0.1-0.1-0.2-0.1-0.3c0-0.1,0-0.2,0.1-0.3
		c0-0.1,0.1-0.2,0.2-0.3s0.2-0.1,0.3-0.2c0.1,0,0.2-0.1,0.3-0.1s0.2,0,0.3,0.1c0.1,0,0.2,0.1,0.3,0.2s0.1,0.2,0.2,0.3
		C295.9,25.7,295.9,25.8,295.9,25.9z M295.7,28v6.6h-1.2V28H295.7z"/>
	<path class="st8" d="M297.6,34.6V28h0.7c0.2,0,0.3,0.1,0.3,0.2l0.1,0.7c0.3-0.3,0.6-0.6,1-0.8c0.4-0.2,0.8-0.3,1.2-0.3
		c0.4,0,0.7,0.1,1,0.2s0.5,0.3,0.7,0.5s0.3,0.5,0.4,0.8s0.1,0.6,0.1,1v4.2h-1.2v-4.2c0-0.5-0.1-0.9-0.3-1.2s-0.6-0.4-1-0.4
		c-0.3,0-0.7,0.1-1,0.2c-0.3,0.2-0.6,0.4-0.8,0.7v4.8h-1.2V34.6z"/>
	<path class="st8" d="M310.2,34.7c-0.5,0-0.9-0.1-1.2-0.4c-0.3-0.3-0.4-0.7-0.4-1.3v-4h-0.8c-0.1,0-0.1,0-0.2-0.1
		c0,0-0.1-0.1-0.1-0.2v-0.5l1.1-0.1l0.3-2c0-0.1,0-0.1,0.1-0.2s0.1-0.1,0.2-0.1h0.6v2.3h1.9V29h-1.9v4c0,0.3,0.1,0.5,0.2,0.6
		s0.3,0.2,0.5,0.2c0.1,0,0.2,0,0.3,0c0.1,0,0.2-0.1,0.2-0.1s0.1-0.1,0.2-0.1h0.1c0.1,0,0.1,0,0.2,0.1l0.3,0.6
		c-0.2,0.2-0.4,0.3-0.7,0.4C310.8,34.6,310.5,34.7,310.2,34.7z"/>
	<path class="st8" d="M312.8,34.6V25h1.2v3.9c0.3-0.3,0.6-0.5,0.9-0.7s0.7-0.3,1.2-0.3c0.4,0,0.7,0.1,1,0.2s0.5,0.3,0.7,0.5
		s0.3,0.5,0.4,0.8s0.1,0.6,0.1,1v4.2h-1.2v-4.2c0-0.5-0.1-0.9-0.3-1.2s-0.6-0.4-1-0.4c-0.3,0-0.7,0.1-1,0.2
		c-0.3,0.2-0.6,0.4-0.8,0.7v4.8L312.8,34.6L312.8,34.6z"/>
	<path class="st8" d="M322.8,27.9c0.4,0,0.8,0.1,1.1,0.2c0.3,0.1,0.6,0.3,0.9,0.6s0.4,0.6,0.6,0.9c0.1,0.4,0.2,0.8,0.2,1.3
		c0,0.2,0,0.3-0.1,0.4s-0.1,0.1-0.2,0.1h-4.4c0,0.4,0.1,0.8,0.2,1.1s0.2,0.6,0.4,0.8c0.2,0.2,0.4,0.4,0.7,0.5
		c0.3,0.1,0.5,0.2,0.8,0.2s0.5,0,0.8-0.1c0.2-0.1,0.4-0.1,0.5-0.2c0.2-0.1,0.3-0.2,0.4-0.2c0.1-0.1,0.2-0.1,0.3-0.1
		c0.1,0,0.2,0,0.2,0.1l0.3,0.4c-0.1,0.2-0.3,0.3-0.5,0.5s-0.4,0.2-0.6,0.3s-0.5,0.1-0.7,0.2c-0.2,0-0.5,0.1-0.7,0.1
		c-0.5,0-0.9-0.1-1.3-0.2c-0.4-0.2-0.7-0.4-1-0.7s-0.5-0.7-0.7-1.1s-0.2-0.9-0.2-1.5c0-0.5,0.1-0.9,0.2-1.3s0.3-0.7,0.6-1
		s0.6-0.5,1-0.7C321.9,28,322.3,27.9,322.8,27.9z M322.8,28.8c-0.6,0-1,0.2-1.3,0.5s-0.5,0.8-0.6,1.3h3.6c0-0.3,0-0.5-0.1-0.7
		s-0.2-0.4-0.3-0.6c-0.1-0.2-0.3-0.3-0.5-0.4S323,28.8,322.8,28.8z"/>
	<path class="st8" d="M329.3,28h0.9c0.1,0,0.2,0,0.2,0.1c0.1,0,0.1,0.1,0.1,0.2l1.3,4.2c0,0.2,0.1,0.3,0.1,0.4s0.1,0.3,0.1,0.4
		c0-0.1,0.1-0.3,0.1-0.4c0-0.1,0.1-0.3,0.1-0.4l1.4-4.3c0-0.1,0.1-0.1,0.1-0.2c0.1,0,0.1-0.1,0.2-0.1h0.5c0.1,0,0.2,0,0.2,0.1
		c0.1,0,0.1,0.1,0.1,0.2l1.4,4.3c0,0.2,0.1,0.3,0.1,0.4c0,0.1,0.1,0.3,0.1,0.4c0-0.1,0.1-0.3,0.1-0.4c0-0.1,0.1-0.3,0.1-0.5l1.3-4.2
		c0-0.1,0.1-0.1,0.1-0.2s0.1-0.1,0.2-0.1h0.9l-2.1,6.6H336c-0.1,0-0.2-0.1-0.2-0.2l-1.5-4.5c0-0.1-0.1-0.2-0.1-0.3
		c0-0.1,0-0.2-0.1-0.3c0,0.1,0,0.2-0.1,0.3c0,0.1-0.1,0.2-0.1,0.3l-1.5,4.5c0,0.1-0.1,0.2-0.3,0.2h-0.9L329.3,28z"/>
	<path class="st8" d="M342.8,27.9c0.4,0,0.8,0.1,1.1,0.2c0.3,0.1,0.6,0.3,0.9,0.6s0.4,0.6,0.6,0.9c0.1,0.4,0.2,0.8,0.2,1.3
		c0,0.2,0,0.3-0.1,0.4s-0.1,0.1-0.2,0.1h-4.4c0,0.4,0.1,0.8,0.2,1.1s0.2,0.6,0.4,0.8c0.2,0.2,0.4,0.4,0.7,0.5
		c0.3,0.1,0.5,0.2,0.8,0.2s0.5,0,0.8-0.1c0.2-0.1,0.4-0.1,0.5-0.2c0.2-0.1,0.3-0.2,0.4-0.2c0.1-0.1,0.2-0.1,0.3-0.1
		c0.1,0,0.2,0,0.2,0.1l0.3,0.4c-0.1,0.2-0.3,0.3-0.5,0.5s-0.4,0.2-0.6,0.3s-0.5,0.1-0.7,0.2c-0.2,0-0.5,0.1-0.7,0.1
		c-0.5,0-0.9-0.1-1.3-0.2c-0.4-0.2-0.7-0.4-1-0.7s-0.5-0.7-0.7-1.1s-0.2-0.9-0.2-1.5c0-0.5,0.1-0.9,0.2-1.3s0.3-0.7,0.6-1
		s0.6-0.5,1-0.7C341.9,28,342.3,27.9,342.8,27.9z M342.8,28.8c-0.6,0-1,0.2-1.3,0.5s-0.5,0.8-0.6,1.3h3.6c0-0.3,0-0.5-0.1-0.7
		s-0.2-0.4-0.3-0.6c-0.1-0.2-0.3-0.3-0.5-0.4S343.1,28.8,342.8,28.8z"/>
	<path class="st8" d="M347,34.6V25h1.2v4c0.3-0.3,0.6-0.6,0.9-0.8c0.4-0.2,0.8-0.3,1.2-0.3c0.4,0,0.7,0.1,1,0.2s0.6,0.4,0.8,0.6
		s0.4,0.6,0.5,1s0.2,0.8,0.2,1.3s-0.1,1-0.2,1.5c-0.1,0.4-0.3,0.8-0.6,1.1c-0.2,0.3-0.5,0.5-0.9,0.7s-0.7,0.3-1.2,0.3
		c-0.4,0-0.8-0.1-1.1-0.2s-0.6-0.4-0.8-0.7l-0.1,0.6c0,0.2-0.1,0.2-0.3,0.2H347V34.6z M349.9,28.8c-0.4,0-0.7,0.1-1,0.3
		c-0.3,0.2-0.5,0.4-0.8,0.7V33c0.2,0.3,0.4,0.5,0.7,0.6c0.3,0.1,0.5,0.2,0.8,0.2c0.6,0,1.1-0.2,1.4-0.7c0.3-0.4,0.5-1.1,0.5-2
		c0-0.8-0.1-1.4-0.4-1.8C350.9,29,350.4,28.8,349.9,28.8z"/>
	<path class="st8" d="M359.9,27.9c0.3,0,0.6,0,0.8,0.1s0.5,0.2,0.7,0.3h1.8v0.4c0,0.1-0.1,0.2-0.3,0.3l-0.7,0.1
		c0.1,0.3,0.2,0.6,0.2,0.9s-0.1,0.6-0.2,0.9s-0.3,0.5-0.5,0.7s-0.5,0.3-0.8,0.4s-0.6,0.1-1,0.1c-0.3,0-0.6,0-0.9-0.1
		c-0.1,0.1-0.2,0.2-0.3,0.3c-0.1,0.1-0.1,0.2-0.1,0.3c0,0.2,0.1,0.3,0.2,0.4s0.3,0.1,0.5,0.2s0.4,0.1,0.7,0.1c0.3,0,0.5,0,0.8,0
		s0.6,0.1,0.8,0.1s0.5,0.1,0.7,0.2c0.2,0.1,0.4,0.3,0.5,0.4c0.1,0.2,0.2,0.4,0.2,0.7s-0.1,0.6-0.2,0.8s-0.3,0.5-0.6,0.7
		c-0.3,0.2-0.6,0.4-1,0.5s-0.8,0.2-1.3,0.2s-0.9,0-1.3-0.1s-0.7-0.2-0.9-0.4s-0.4-0.3-0.5-0.6c-0.1-0.2-0.2-0.4-0.2-0.7
		s0.1-0.6,0.3-0.8c0.2-0.2,0.5-0.4,0.8-0.5c-0.2-0.1-0.3-0.2-0.5-0.3c-0.1-0.1-0.2-0.3-0.2-0.6c0-0.1,0-0.2,0.1-0.3
		c0-0.1,0.1-0.2,0.2-0.3s0.2-0.2,0.3-0.3c0.1-0.1,0.2-0.2,0.4-0.2c-0.3-0.2-0.6-0.4-0.8-0.7c-0.2-0.3-0.3-0.7-0.3-1.1
		c0-0.3,0.1-0.6,0.2-0.9s0.3-0.5,0.5-0.7s0.5-0.3,0.8-0.4S359.5,27.9,359.9,27.9z M362,34.9c0-0.2,0-0.3-0.1-0.4s-0.2-0.2-0.4-0.2
		c-0.2-0.1-0.3-0.1-0.5-0.1s-0.4,0-0.6-0.1s-0.5,0-0.7,0s-0.5,0-0.7-0.1c-0.2,0.1-0.4,0.3-0.6,0.4c-0.2,0.2-0.2,0.4-0.2,0.6
		c0,0.1,0,0.3,0.1,0.4c0.1,0.1,0.2,0.2,0.3,0.3c0.2,0.1,0.4,0.2,0.6,0.2c0.2,0.1,0.5,0.1,0.8,0.1s0.6,0,0.8-0.1s0.5-0.1,0.6-0.2
		s0.3-0.2,0.4-0.4C361.9,35.3,362,35.1,362,34.9z M359.9,31.4c0.2,0,0.4,0,0.6-0.1s0.3-0.2,0.4-0.3c0.1-0.1,0.2-0.3,0.3-0.4
		s0.1-0.3,0.1-0.5c0-0.4-0.1-0.7-0.4-1c-0.2-0.2-0.6-0.4-1.1-0.4s-0.8,0.1-1.1,0.4s-0.4,0.6-0.4,1c0,0.2,0,0.4,0.1,0.5
		c0.1,0.2,0.2,0.3,0.3,0.4c0.1,0.1,0.3,0.2,0.4,0.3S359.6,31.4,359.9,31.4z"/>
	<path class="st8" d="M364.3,34.6V28h0.7c0.1,0,0.2,0,0.3,0.1c0,0,0.1,0.1,0.1,0.2l0.1,1c0.2-0.5,0.5-0.8,0.8-1.1
		c0.3-0.3,0.7-0.4,1.1-0.4c0.1,0,0.3,0,0.4,0s0.2,0.1,0.3,0.1l-0.1,0.9c0,0.1-0.1,0.2-0.2,0.2s-0.2,0-0.3,0c-0.1,0-0.2,0-0.4,0
		c-0.2,0-0.4,0-0.6,0.1s-0.3,0.2-0.4,0.3s-0.2,0.3-0.3,0.4c-0.1,0.2-0.2,0.4-0.3,0.6v4.2C365.5,34.6,364.3,34.6,364.3,34.6z"/>
	<path class="st8" d="M371.6,27.9c0.5,0,0.9,0.1,1.3,0.2c0.4,0.2,0.7,0.4,1,0.7c0.3,0.3,0.5,0.7,0.6,1.1s0.2,0.9,0.2,1.4
		s-0.1,1-0.2,1.4c-0.1,0.4-0.4,0.8-0.6,1.1c-0.3,0.3-0.6,0.5-1,0.7s-0.8,0.2-1.3,0.2s-0.9-0.1-1.3-0.2s-0.7-0.4-1-0.7
		s-0.5-0.7-0.6-1.1s-0.2-0.9-0.2-1.4s0.1-1,0.2-1.4s0.4-0.8,0.6-1.1c0.3-0.3,0.6-0.5,1-0.7C370.7,28,371.1,27.9,371.6,27.9z
		 M371.6,33.8c0.6,0,1.1-0.2,1.5-0.7c0.3-0.4,0.5-1,0.5-1.8s-0.2-1.4-0.5-1.8s-0.8-0.7-1.5-0.7c-0.3,0-0.6,0.1-0.9,0.2
		c-0.2,0.1-0.4,0.3-0.6,0.5s-0.3,0.5-0.4,0.8s-0.1,0.7-0.1,1.1c0,0.8,0.2,1.4,0.5,1.8S370.9,33.8,371.6,33.8z"/>
	<path class="st8" d="M377.3,28v4.2c0,0.5,0.1,0.9,0.3,1.2c0.2,0.3,0.6,0.4,1,0.4c0.3,0,0.7-0.1,1-0.2c0.3-0.2,0.6-0.4,0.8-0.7V28
		h1.2v6.6h-0.7c-0.2,0-0.3-0.1-0.3-0.2l-0.1-0.7c-0.3,0.3-0.6,0.6-1,0.8s-0.8,0.3-1.2,0.3c-0.4,0-0.7-0.1-1-0.2s-0.5-0.3-0.7-0.5
		s-0.3-0.5-0.4-0.8s-0.1-0.6-0.1-1V28H377.3z"/>
	<path class="st8" d="M383.4,36.8V28h0.7c0.2,0,0.3,0.1,0.3,0.2l0.1,0.8c0.3-0.3,0.6-0.6,1-0.8c0.4-0.2,0.8-0.3,1.2-0.3
		c0.4,0,0.7,0.1,1,0.2s0.6,0.4,0.8,0.6s0.4,0.6,0.5,1.1c0.1,0.4,0.2,0.9,0.2,1.5c0,0.5-0.1,0.9-0.2,1.4c-0.1,0.4-0.3,0.8-0.6,1.1
		c-0.2,0.3-0.5,0.5-0.9,0.7s-0.8,0.3-1.2,0.3c-0.4,0-0.7-0.1-1-0.2c-0.3-0.1-0.5-0.3-0.8-0.6v2.9h-1.1V36.8z M386.4,28.8
		c-0.4,0-0.7,0.1-1,0.3s-0.5,0.4-0.8,0.7V33c0.2,0.3,0.4,0.5,0.7,0.6c0.3,0.1,0.5,0.2,0.8,0.2c0.6,0,1.1-0.2,1.4-0.7
		c0.3-0.4,0.5-1.1,0.5-1.9c0-0.4,0-0.8-0.1-1.1c-0.1-0.3-0.2-0.6-0.3-0.8c-0.1-0.2-0.3-0.3-0.5-0.4
		C386.9,28.9,386.6,28.8,386.4,28.8z"/>
</g>
<g>
	<path class="st9" d="M240.2,50h0.9c0.1,0,0.2,0,0.2,0.1c0.1,0,0.1,0.1,0.1,0.2l1.3,4.2c0,0.2,0.1,0.3,0.1,0.4s0.1,0.3,0.1,0.4
		c0-0.1,0.1-0.3,0.1-0.4c0-0.1,0.1-0.3,0.1-0.4l1.4-4.3c0-0.1,0.1-0.1,0.1-0.2s0.1-0.1,0.2-0.1h0.5c0.1,0,0.2,0,0.2,0.1
		c0.1,0,0.1,0.1,0.1,0.2l1.4,4.3c0,0.2,0.1,0.3,0.1,0.4c0,0.1,0.1,0.3,0.1,0.4c0-0.1,0.1-0.3,0.1-0.4c0-0.1,0.1-0.3,0.1-0.5l1.3-4.2
		c0-0.1,0.1-0.1,0.1-0.2c0.1,0,0.1-0.1,0.2-0.1h0.9l-2.1,6.6h-0.9c-0.1,0-0.2-0.1-0.2-0.2l-1.5-4.5c0-0.1-0.1-0.2-0.1-0.3
		s0-0.2-0.1-0.3c0,0.1,0,0.2-0.1,0.3c0,0.1-0.1,0.2-0.1,0.3l-1.5,4.5c0,0.1-0.1,0.2-0.3,0.2h-0.9L240.2,50z"/>
	<path class="st9" d="M253.7,49.9c0.4,0,0.8,0.1,1.1,0.2c0.3,0.1,0.6,0.3,0.9,0.6c0.2,0.2,0.4,0.6,0.6,0.9c0.1,0.4,0.2,0.8,0.2,1.3
		c0,0.2,0,0.3-0.1,0.4s-0.1,0.1-0.2,0.1h-4.4c0,0.4,0.1,0.8,0.2,1.1s0.2,0.6,0.4,0.8s0.4,0.4,0.6,0.5c0.3,0.1,0.5,0.2,0.8,0.2
		s0.5,0,0.8-0.1c0.2-0.1,0.4-0.1,0.5-0.2c0.2-0.1,0.3-0.2,0.4-0.2c0.1-0.1,0.2-0.1,0.3-0.1s0.2,0,0.2,0.1l0.3,0.4
		c-0.1,0.2-0.3,0.3-0.5,0.5s-0.4,0.2-0.6,0.3c-0.2,0.1-0.5,0.1-0.7,0.2S254,57,253.8,57c-0.5,0-0.9-0.1-1.3-0.2
		c-0.4-0.2-0.7-0.4-1-0.7s-0.5-0.7-0.7-1.1c-0.2-0.4-0.2-0.9-0.2-1.5c0-0.5,0.1-0.9,0.2-1.3c0.1-0.4,0.3-0.7,0.6-1s0.6-0.5,1-0.7
		C252.8,50,253.3,49.9,253.7,49.9z M253.8,50.8c-0.6,0-1,0.2-1.3,0.5s-0.5,0.8-0.6,1.3h3.6c0-0.3,0-0.5-0.1-0.7s-0.2-0.4-0.3-0.6
		c-0.1-0.2-0.3-0.3-0.5-0.4S254,50.8,253.8,50.8z"/>
	<path class="st9" d="M257.9,56.6V47h1.2v4c0.3-0.3,0.6-0.6,0.9-0.8c0.4-0.2,0.8-0.3,1.2-0.3c0.4,0,0.7,0.1,1,0.2
		c0.3,0.1,0.6,0.4,0.8,0.6c0.2,0.3,0.4,0.6,0.5,1s0.2,0.8,0.2,1.3s-0.1,1-0.2,1.5c-0.1,0.4-0.3,0.8-0.6,1.1s-0.5,0.5-0.9,0.7
		s-0.7,0.3-1.2,0.3c-0.4,0-0.8-0.1-1.1-0.2s-0.6-0.4-0.8-0.7l-0.1,0.6c0,0.2-0.1,0.2-0.3,0.2h-0.6V56.6z M260.8,50.8
		c-0.4,0-0.7,0.1-1,0.3s-0.5,0.4-0.8,0.7V55c0.2,0.3,0.4,0.5,0.7,0.6s0.5,0.2,0.8,0.2c0.6,0,1.1-0.2,1.4-0.7c0.3-0.4,0.5-1.1,0.5-2
		c0-0.8-0.1-1.4-0.4-1.8S261.4,50.8,260.8,50.8z"/>
	<path class="st9" d="M271.4,51.9c0,0.8-0.1,1.5-0.3,2.1s-0.4,1.1-0.7,1.5c-0.3,0.4-0.7,0.7-1.1,0.9s-0.9,0.3-1.3,0.3
		c-0.5,0-0.9-0.1-1.3-0.3s-0.8-0.5-1.1-0.9c-0.3-0.4-0.5-0.9-0.7-1.5s-0.3-1.3-0.3-2.1s0.1-1.5,0.3-2.1s0.4-1.1,0.7-1.5
		c0.3-0.4,0.7-0.7,1.1-0.9s0.9-0.3,1.3-0.3c0.5,0,0.9,0.1,1.3,0.3s0.8,0.5,1.1,0.9s0.5,0.9,0.7,1.5S271.4,51.1,271.4,51.9z
		 M270.2,51.9c0-0.7-0.1-1.3-0.2-1.8s-0.3-0.9-0.5-1.2s-0.4-0.5-0.7-0.6c-0.3-0.1-0.5-0.2-0.8-0.2s-0.6,0.1-0.8,0.2
		c-0.3,0.1-0.5,0.3-0.7,0.6s-0.4,0.7-0.5,1.2s-0.2,1.1-0.2,1.8s0.1,1.3,0.2,1.8s0.3,0.9,0.5,1.2s0.4,0.5,0.7,0.6
		c0.3,0.1,0.5,0.2,0.8,0.2s0.6-0.1,0.8-0.2c0.3-0.1,0.5-0.3,0.7-0.6s0.4-0.7,0.5-1.2S270.2,52.6,270.2,51.9z"/>
	<path class="st9" d="M273.4,55.7h2v-6.3c0-0.2,0-0.4,0-0.6l-1.7,1.4c-0.1,0-0.1,0.1-0.2,0.1s-0.1,0-0.2,0c0,0-0.1,0-0.1-0.1
		l-0.1-0.1l-0.4-0.5l2.8-2.4h0.9v8.4h1.8v0.9h-5v-0.8H273.4z"/>
	<path class="st8" d="M280.2,51c0-0.1,0-0.2,0.1-0.3c0-0.1,0.1-0.2,0.2-0.3s0.2-0.1,0.3-0.2c0.1,0,0.2-0.1,0.3-0.1
		c0.1,0,0.2,0,0.3,0.1c0.1,0,0.2,0.1,0.3,0.2s0.1,0.2,0.2,0.3c0,0.1,0.1,0.2,0.1,0.3s0,0.2-0.1,0.3c0,0.1-0.1,0.2-0.2,0.3
		s-0.2,0.1-0.3,0.2s-0.2,0.1-0.3,0.1c-0.1,0-0.2,0-0.3-0.1s-0.2-0.1-0.3-0.2c-0.1-0.1-0.1-0.2-0.2-0.3S280.2,51.1,280.2,51z
		 M280.2,55.9c0-0.1,0-0.2,0.1-0.3c0-0.1,0.1-0.2,0.2-0.3s0.2-0.1,0.3-0.2c0.1,0,0.2-0.1,0.3-0.1c0.1,0,0.2,0,0.3,0.1
		c0.1,0,0.2,0.1,0.3,0.2s0.1,0.2,0.2,0.3c0,0.1,0.1,0.2,0.1,0.3s0,0.2-0.1,0.3c0,0.1-0.1,0.2-0.2,0.3s-0.2,0.1-0.3,0.2
		s-0.2,0.1-0.3,0.1c-0.1,0-0.2,0-0.3-0.1s-0.2-0.1-0.3-0.2c-0.1-0.1-0.1-0.2-0.2-0.3C280.2,56.1,280.2,56,280.2,55.9z"/>
	<path class="st8" d="M286.8,56.6V50h0.7c0.1,0,0.2,0,0.3,0.1c0,0,0.1,0.1,0.1,0.2l0.1,1c0.2-0.5,0.5-0.8,0.8-1.1s0.7-0.4,1.1-0.4
		c0.1,0,0.3,0,0.4,0s0.2,0.1,0.3,0.1l-0.1,0.9c0,0.1-0.1,0.2-0.2,0.2s-0.1,0-0.3,0c-0.1,0-0.2,0-0.4,0c-0.2,0-0.4,0-0.6,0.1
		s-0.3,0.2-0.4,0.3s-0.2,0.3-0.3,0.4c-0.1,0.2-0.2,0.4-0.3,0.6v4.2H286.8z"/>
	<path class="st8" d="M294,49.9c0.4,0,0.8,0.1,1.1,0.2c0.3,0.1,0.6,0.3,0.9,0.6c0.2,0.2,0.4,0.6,0.6,0.9c0.1,0.4,0.2,0.8,0.2,1.3
		c0,0.2,0,0.3-0.1,0.4s-0.1,0.1-0.2,0.1h-4.4c0,0.4,0.1,0.8,0.2,1.1s0.2,0.6,0.4,0.8c0.2,0.2,0.4,0.4,0.6,0.5
		c0.3,0.1,0.5,0.2,0.8,0.2s0.5,0,0.8-0.1c0.2-0.1,0.4-0.1,0.5-0.2c0.2-0.1,0.3-0.2,0.4-0.2c0.1-0.1,0.2-0.1,0.3-0.1
		c0.1,0,0.2,0,0.2,0.1l0.3,0.4c-0.1,0.2-0.3,0.3-0.5,0.5s-0.4,0.2-0.6,0.3s-0.5,0.1-0.7,0.2s-0.5,0.1-0.7,0.1
		c-0.5,0-0.9-0.1-1.3-0.2c-0.4-0.2-0.7-0.4-1-0.7s-0.5-0.7-0.7-1.1c-0.2-0.4-0.2-0.9-0.2-1.5c0-0.5,0.1-0.9,0.2-1.3
		c0.1-0.4,0.3-0.7,0.6-1s0.6-0.5,1-0.7C293.1,50,293.5,49.9,294,49.9z M294,50.8c-0.6,0-1,0.2-1.3,0.5s-0.5,0.8-0.6,1.3h3.6
		c0-0.3,0-0.5-0.1-0.7s-0.2-0.4-0.3-0.6c-0.1-0.2-0.3-0.3-0.5-0.4S294.3,50.8,294,50.8z"/>
	<path class="st8" d="M302,51.1c-0.1,0.1-0.1,0.1-0.2,0.1s-0.1,0-0.2-0.1c-0.1,0-0.2-0.1-0.3-0.2c-0.1-0.1-0.3-0.1-0.4-0.2
		c-0.2,0-0.4-0.1-0.6-0.1s-0.4,0-0.5,0.1c-0.2,0.1-0.3,0.1-0.4,0.2c-0.1,0.1-0.2,0.2-0.3,0.3c-0.1,0.1-0.1,0.2-0.1,0.4
		s0,0.3,0.1,0.4c0.1,0.1,0.2,0.2,0.4,0.3c0.2,0.1,0.3,0.2,0.5,0.2c0.2,0.1,0.4,0.1,0.6,0.2c0.2,0.1,0.4,0.2,0.6,0.2
		c0.2,0.1,0.4,0.2,0.5,0.3c0.2,0.1,0.3,0.3,0.4,0.5s0.1,0.4,0.1,0.7s-0.1,0.6-0.2,0.8s-0.3,0.5-0.5,0.7s-0.5,0.3-0.8,0.4
		c-0.3,0.1-0.7,0.2-1.1,0.2c-0.5,0-0.9-0.1-1.2-0.2c-0.4-0.1-0.7-0.3-0.9-0.6l0.3-0.4c0-0.1,0.1-0.1,0.1-0.1s0.1,0,0.2,0
		s0.2,0,0.2,0.1c0.1,0.1,0.2,0.1,0.3,0.2c0.1,0.1,0.3,0.1,0.5,0.2s0.4,0.1,0.7,0.1c0.2,0,0.4,0,0.6-0.1s0.3-0.1,0.4-0.2
		c0.1-0.1,0.2-0.2,0.2-0.3c0.1-0.1,0.1-0.3,0.1-0.4c0-0.2,0-0.3-0.1-0.5c-0.1-0.1-0.2-0.2-0.4-0.3s-0.3-0.2-0.5-0.2
		c-0.2-0.1-0.4-0.1-0.6-0.2s-0.4-0.1-0.6-0.2c-0.2-0.1-0.4-0.2-0.5-0.3c-0.2-0.1-0.3-0.3-0.4-0.5s-0.1-0.4-0.1-0.7s0.1-0.5,0.2-0.7
		s0.3-0.4,0.5-0.6c0.2-0.2,0.4-0.3,0.7-0.4c0.3-0.1,0.6-0.2,1-0.2s0.8,0.1,1.2,0.2c0.3,0.1,0.6,0.3,0.9,0.6L302,51.1z"/>
	<path class="st8" d="M303.8,58.8V50h0.7c0.2,0,0.3,0.1,0.3,0.2l0.1,0.8c0.3-0.3,0.6-0.6,1-0.8s0.8-0.3,1.2-0.3c0.4,0,0.7,0.1,1,0.2
		c0.3,0.1,0.6,0.4,0.8,0.6s0.4,0.6,0.5,1.1c0.1,0.4,0.2,0.9,0.2,1.5c0,0.5-0.1,0.9-0.2,1.4c-0.1,0.4-0.3,0.8-0.6,1.1
		c-0.2,0.3-0.5,0.5-0.9,0.7s-0.8,0.3-1.2,0.3c-0.4,0-0.7-0.1-1-0.2c-0.3-0.1-0.5-0.3-0.8-0.6v2.9h-1.1V58.8z M306.7,50.8
		c-0.4,0-0.7,0.1-1,0.3s-0.5,0.4-0.8,0.7V55c0.2,0.3,0.4,0.5,0.7,0.6c0.3,0.1,0.5,0.2,0.8,0.2c0.6,0,1.1-0.2,1.4-0.7
		c0.3-0.4,0.5-1.1,0.5-1.9c0-0.4,0-0.8-0.1-1.1s-0.2-0.6-0.3-0.8c-0.1-0.2-0.3-0.3-0.5-0.4C307.2,50.9,307,50.8,306.7,50.8z"/>
	<path class="st8" d="M313.9,49.9c0.5,0,0.9,0.1,1.3,0.2c0.4,0.2,0.7,0.4,1,0.7s0.5,0.7,0.6,1.1c0.1,0.4,0.2,0.9,0.2,1.4
		s-0.1,1-0.2,1.4s-0.4,0.8-0.6,1.1s-0.6,0.5-1,0.7s-0.8,0.2-1.3,0.2s-0.9-0.1-1.3-0.2c-0.4-0.2-0.7-0.4-1-0.7s-0.5-0.7-0.6-1.1
		c-0.1-0.4-0.2-0.9-0.2-1.4s0.1-1,0.2-1.4s0.4-0.8,0.6-1.1s0.6-0.5,1-0.7C312.9,50,313.4,49.9,313.9,49.9z M313.9,55.8
		c0.6,0,1.1-0.2,1.5-0.7s0.5-1,0.5-1.8s-0.2-1.4-0.5-1.8c-0.3-0.4-0.8-0.7-1.5-0.7c-0.3,0-0.6,0.1-0.9,0.2c-0.2,0.1-0.4,0.3-0.6,0.5
		s-0.3,0.5-0.4,0.8s-0.1,0.7-0.1,1.1c0,0.8,0.2,1.4,0.5,1.8C312.7,55.6,313.2,55.8,313.9,55.8z"/>
	<path class="st8" d="M318.5,56.6V50h0.7c0.2,0,0.3,0.1,0.3,0.2l0.1,0.7c0.3-0.3,0.6-0.6,1-0.8s0.8-0.3,1.2-0.3c0.4,0,0.7,0.1,1,0.2
		s0.5,0.3,0.7,0.5s0.3,0.5,0.4,0.8s0.1,0.6,0.1,1v4.2h-1.2v-4.2c0-0.5-0.1-0.9-0.3-1.2s-0.6-0.4-1-0.4c-0.3,0-0.7,0.1-1,0.2
		c-0.3,0.2-0.6,0.4-0.8,0.7v4.8h-1.2V56.6z"/>
	<path class="st8" d="M329.5,51.1c-0.1,0.1-0.1,0.1-0.2,0.1s-0.1,0-0.2-0.1c-0.1,0-0.2-0.1-0.3-0.2c-0.1-0.1-0.3-0.1-0.4-0.2
		c-0.2,0-0.4-0.1-0.6-0.1s-0.4,0-0.5,0.1c-0.2,0.1-0.3,0.1-0.4,0.2c-0.1,0.1-0.2,0.2-0.3,0.3c-0.1,0.1-0.1,0.2-0.1,0.4
		s0,0.3,0.1,0.4s0.2,0.2,0.4,0.3s0.3,0.2,0.5,0.2c0.2,0.1,0.4,0.1,0.6,0.2c0.2,0.1,0.4,0.2,0.6,0.2c0.2,0.1,0.4,0.2,0.5,0.3
		c0.2,0.1,0.3,0.3,0.4,0.5s0.1,0.4,0.1,0.7s-0.1,0.6-0.2,0.8c-0.1,0.3-0.3,0.5-0.5,0.7s-0.5,0.3-0.8,0.4c-0.3,0.1-0.7,0.2-1.1,0.2
		c-0.5,0-0.9-0.1-1.2-0.2c-0.4-0.1-0.7-0.3-0.9-0.6l0.3-0.4c0-0.1,0.1-0.1,0.1-0.1s0.1,0,0.2,0s0.2,0,0.2,0.1s0.2,0.1,0.3,0.2
		c0.1,0.1,0.3,0.1,0.5,0.2s0.4,0.1,0.7,0.1c0.2,0,0.4,0,0.6-0.1s0.3-0.1,0.4-0.2c0.1-0.1,0.2-0.2,0.2-0.3c0.1-0.1,0.1-0.3,0.1-0.4
		c0-0.2,0-0.3-0.1-0.5c-0.1-0.1-0.2-0.2-0.4-0.3c-0.2-0.1-0.3-0.2-0.5-0.2c-0.2-0.1-0.4-0.1-0.6-0.2c-0.2-0.1-0.4-0.1-0.6-0.2
		s-0.4-0.2-0.5-0.3c-0.2-0.1-0.3-0.3-0.4-0.5s-0.1-0.4-0.1-0.7s0.1-0.5,0.2-0.7s0.3-0.4,0.5-0.6c0.2-0.2,0.4-0.3,0.7-0.4
		c0.3-0.1,0.6-0.2,1-0.2s0.8,0.1,1.2,0.2c0.3,0.1,0.6,0.3,0.9,0.6L329.5,51.1z"/>
	<path class="st8" d="M334,49.9c0.4,0,0.8,0.1,1.1,0.2c0.3,0.1,0.6,0.3,0.9,0.6s0.4,0.6,0.6,0.9c0.1,0.4,0.2,0.8,0.2,1.3
		c0,0.2,0,0.3-0.1,0.4s-0.1,0.1-0.2,0.1h-4.4c0,0.4,0.1,0.8,0.2,1.1s0.2,0.6,0.4,0.8c0.2,0.2,0.4,0.4,0.7,0.5
		c0.3,0.1,0.5,0.2,0.8,0.2s0.5,0,0.8-0.1c0.2-0.1,0.4-0.1,0.5-0.2c0.2-0.1,0.3-0.2,0.4-0.2c0.1-0.1,0.2-0.1,0.3-0.1
		c0.1,0,0.2,0,0.2,0.1l0.3,0.4c-0.1,0.2-0.3,0.3-0.5,0.5s-0.4,0.2-0.6,0.3s-0.5,0.1-0.7,0.2c-0.2,0-0.5,0.1-0.7,0.1
		c-0.5,0-0.9-0.1-1.3-0.2c-0.4-0.2-0.7-0.4-1-0.7s-0.5-0.7-0.7-1.1s-0.2-0.9-0.2-1.5c0-0.5,0.1-0.9,0.2-1.3s0.3-0.7,0.6-1
		s0.6-0.5,1-0.7C333.1,50,333.6,49.9,334,49.9z M334.1,50.8c-0.6,0-1,0.2-1.3,0.5s-0.5,0.8-0.6,1.3h3.6c0-0.3,0-0.5-0.1-0.7
		s-0.2-0.4-0.3-0.6c-0.1-0.2-0.3-0.3-0.5-0.4S334.3,50.8,334.1,50.8z"/>
	<path class="st8" d="M346.1,51.2l-0.1,0.1h-0.1c-0.1,0-0.1,0-0.2-0.1s-0.2-0.1-0.3-0.2c-0.1-0.1-0.3-0.1-0.4-0.2
		c-0.2-0.1-0.4-0.1-0.6-0.1c-0.3,0-0.6,0.1-0.9,0.2s-0.5,0.3-0.6,0.5c-0.2,0.2-0.3,0.5-0.4,0.8s-0.1,0.7-0.1,1c0,0.4,0,0.8,0.1,1.1
		s0.2,0.6,0.4,0.8c0.2,0.2,0.4,0.4,0.6,0.5s0.5,0.2,0.8,0.2s0.5,0,0.7-0.1s0.3-0.1,0.5-0.2c0.1-0.1,0.2-0.2,0.3-0.2
		c0.1-0.1,0.2-0.1,0.2-0.1c0.1,0,0.2,0,0.2,0.1l0.3,0.4c-0.1,0.2-0.3,0.3-0.5,0.5c-0.2,0.1-0.4,0.2-0.6,0.3s-0.4,0.1-0.7,0.2
		c-0.2,0-0.5,0.1-0.7,0.1c-0.4,0-0.8-0.1-1.1-0.2c-0.4-0.2-0.7-0.4-0.9-0.7c-0.3-0.3-0.5-0.6-0.6-1.1c-0.1-0.4-0.2-0.9-0.2-1.4
		s0.1-0.9,0.2-1.4s0.3-0.8,0.6-1.1c0.3-0.3,0.6-0.5,1-0.7s0.8-0.3,1.3-0.3s0.9,0.1,1.2,0.2s0.7,0.4,0.9,0.6L346.1,51.2z"/>
	<path class="st8" d="M350.4,49.9c0.5,0,0.9,0.1,1.3,0.2c0.4,0.2,0.7,0.4,1,0.7s0.5,0.7,0.6,1.1c0.1,0.4,0.2,0.9,0.2,1.4
		s-0.1,1-0.2,1.4s-0.4,0.8-0.6,1.1c-0.3,0.3-0.6,0.5-1,0.7s-0.8,0.2-1.3,0.2s-0.9-0.1-1.3-0.2s-0.7-0.4-1-0.7s-0.5-0.7-0.6-1.1
		s-0.2-0.9-0.2-1.4s0.1-1,0.2-1.4s0.4-0.8,0.6-1.1c0.3-0.3,0.6-0.5,1-0.7C349.5,50,349.9,49.9,350.4,49.9z M350.4,55.8
		c0.6,0,1.1-0.2,1.5-0.7c0.3-0.4,0.5-1,0.5-1.8s-0.2-1.4-0.5-1.8c-0.3-0.4-0.8-0.7-1.5-0.7c-0.3,0-0.6,0.1-0.9,0.2
		c-0.2,0.1-0.4,0.3-0.6,0.5s-0.3,0.5-0.4,0.8s-0.1,0.7-0.1,1.1c0,0.8,0.2,1.4,0.5,1.8S349.7,55.8,350.4,55.8z"/>
	<path class="st8" d="M359.7,56.6c-0.2,0-0.3-0.1-0.3-0.2l-0.1-0.8c-0.3,0.3-0.6,0.6-1,0.8s-0.8,0.3-1.2,0.3c-0.4,0-0.7-0.1-1-0.2
		c-0.3-0.1-0.6-0.4-0.8-0.6c-0.2-0.3-0.4-0.6-0.5-1.1s-0.2-0.9-0.2-1.4s0.1-0.9,0.2-1.4s0.3-0.8,0.6-1.1c0.2-0.3,0.5-0.5,0.9-0.7
		s0.8-0.3,1.2-0.3c0.4,0,0.7,0.1,1,0.2c0.3,0.1,0.5,0.3,0.8,0.6V47h1.2v9.6H359.7z M357.5,55.7c0.4,0,0.7-0.1,1-0.3s0.5-0.4,0.8-0.7
		v-3.2c-0.2-0.3-0.5-0.5-0.7-0.6c-0.3-0.1-0.5-0.2-0.8-0.2c-0.6,0-1.1,0.2-1.4,0.7c-0.3,0.4-0.5,1.1-0.5,1.9c0,0.4,0,0.8,0.1,1.1
		s0.2,0.6,0.3,0.8c0.1,0.2,0.3,0.3,0.5,0.4C357,55.7,357.2,55.7,357.5,55.7z"/>
	<path class="st8" d="M365,49.9c0.4,0,0.8,0.1,1.1,0.2c0.3,0.1,0.6,0.3,0.9,0.6s0.4,0.6,0.6,0.9c0.1,0.4,0.2,0.8,0.2,1.3
		c0,0.2,0,0.3-0.1,0.4s-0.1,0.1-0.2,0.1H363c0,0.4,0.1,0.8,0.2,1.1s0.2,0.6,0.4,0.8c0.2,0.2,0.4,0.4,0.7,0.5
		c0.3,0.1,0.5,0.2,0.8,0.2s0.5,0,0.8-0.1c0.2-0.1,0.4-0.1,0.5-0.2c0.2-0.1,0.3-0.2,0.4-0.2c0.1-0.1,0.2-0.1,0.3-0.1
		c0.1,0,0.2,0,0.2,0.1l0.3,0.4c-0.1,0.2-0.3,0.3-0.5,0.5s-0.4,0.2-0.6,0.3s-0.5,0.1-0.7,0.2c-0.2,0-0.5,0.1-0.7,0.1
		c-0.5,0-0.9-0.1-1.3-0.2c-0.4-0.2-0.7-0.4-1-0.7s-0.5-0.7-0.7-1.1s-0.2-0.9-0.2-1.5c0-0.5,0.1-0.9,0.2-1.3s0.3-0.7,0.6-1
		s0.6-0.5,1-0.7C364.1,50,364.5,49.9,365,49.9z M365,50.8c-0.6,0-1,0.2-1.3,0.5s-0.5,0.8-0.6,1.3h3.6c0-0.3,0-0.5-0.1-0.7
		s-0.2-0.4-0.3-0.6c-0.1-0.2-0.3-0.3-0.5-0.4S365.3,50.8,365,50.8z"/>
	<path class="st8" d="M377.9,47.8c0,0.2-0.1,0.3-0.2,0.4c-0.1,0.1-0.3,0.2-0.5,0.2h-2.9l-0.4,2.4c0.2-0.1,0.5-0.1,0.7-0.1
		s0.4,0,0.6,0c0.5,0,0.9,0.1,1.3,0.2c0.4,0.1,0.7,0.3,0.9,0.6c0.2,0.3,0.4,0.5,0.6,0.9s0.2,0.7,0.2,1.1c0,0.5-0.1,0.9-0.3,1.3
		s-0.4,0.7-0.7,1c-0.3,0.3-0.7,0.5-1.1,0.7s-0.8,0.2-1.3,0.2c-0.3,0-0.5,0-0.8-0.1s-0.5-0.1-0.7-0.2c-0.2-0.1-0.4-0.2-0.6-0.3
		s-0.4-0.2-0.5-0.4l0.4-0.5c0.1-0.1,0.2-0.2,0.3-0.2c0.1,0,0.2,0,0.3,0.1s0.2,0.1,0.4,0.2c0.2,0.1,0.3,0.2,0.5,0.2
		c0.2,0.1,0.5,0.1,0.8,0.1s0.6-0.1,0.9-0.2c0.3-0.1,0.5-0.3,0.7-0.4s0.3-0.4,0.4-0.7s0.1-0.6,0.1-0.9c0-0.3,0-0.6-0.1-0.8
		s-0.2-0.4-0.4-0.6c-0.2-0.2-0.4-0.3-0.6-0.4c-0.3-0.1-0.6-0.1-0.9-0.1c-0.2,0-0.5,0-0.7,0.1c-0.3,0-0.5,0.1-0.8,0.2l-0.7-0.2
		l0.7-4.4h4.4L377.9,47.8L377.9,47.8z"/>
	<path class="st8" d="M386.2,51.9c0,0.8-0.1,1.5-0.3,2.1s-0.4,1.1-0.7,1.5c-0.3,0.4-0.7,0.7-1.1,0.9s-0.9,0.3-1.3,0.3
		c-0.5,0-0.9-0.1-1.3-0.3s-0.8-0.5-1.1-0.9c-0.3-0.4-0.5-0.9-0.7-1.5s-0.3-1.3-0.3-2.1s0.1-1.5,0.3-2.1c0.2-0.6,0.4-1.1,0.7-1.5
		c0.3-0.4,0.7-0.7,1.1-0.9s0.9-0.3,1.3-0.3c0.5,0,0.9,0.1,1.3,0.3s0.8,0.5,1.1,0.9c0.3,0.4,0.5,0.9,0.7,1.5S386.2,51.1,386.2,51.9z
		 M385,51.9c0-0.7-0.1-1.3-0.2-1.8s-0.3-0.9-0.5-1.2s-0.4-0.5-0.7-0.6c-0.3-0.1-0.5-0.2-0.8-0.2s-0.6,0.1-0.8,0.2
		c-0.3,0.1-0.5,0.3-0.7,0.6s-0.4,0.7-0.5,1.2s-0.2,1.1-0.2,1.8s0.1,1.3,0.2,1.8s0.3,0.9,0.5,1.2s0.4,0.5,0.7,0.6
		c0.3,0.1,0.5,0.2,0.8,0.2s0.6-0.1,0.8-0.2c0.3-0.1,0.5-0.3,0.7-0.6s0.4-0.7,0.5-1.2S385,52.6,385,51.9z"/>
	<path class="st8" d="M390.5,47.2c0.4,0,0.8,0.1,1.1,0.2c0.3,0.1,0.6,0.3,0.9,0.5c0.2,0.2,0.4,0.5,0.6,0.8c0.1,0.3,0.2,0.6,0.2,1
		c0,0.3,0,0.6-0.1,0.8s-0.2,0.4-0.3,0.6s-0.3,0.3-0.5,0.4s-0.4,0.2-0.7,0.3c0.6,0.2,1.1,0.4,1.4,0.8s0.5,0.8,0.5,1.4
		c0,0.4-0.1,0.8-0.2,1.2c-0.2,0.3-0.4,0.6-0.7,0.9c-0.3,0.2-0.6,0.4-1,0.6c-0.4,0.1-0.8,0.2-1.2,0.2c-0.5,0-0.9-0.1-1.3-0.2
		c-0.4-0.1-0.6-0.3-0.9-0.5c-0.2-0.2-0.4-0.5-0.6-0.8s-0.3-0.6-0.4-1l0.5-0.2c0.1-0.1,0.3-0.1,0.4,0c0.1,0,0.2,0.1,0.3,0.2
		c0.1,0.1,0.1,0.3,0.2,0.4c0.1,0.2,0.2,0.3,0.3,0.5s0.3,0.3,0.6,0.4s0.5,0.2,0.9,0.2c0.3,0,0.6-0.1,0.9-0.2c0.2-0.1,0.4-0.2,0.6-0.4
		s0.3-0.4,0.4-0.6c0.1-0.2,0.1-0.4,0.1-0.6c0-0.3,0-0.5-0.1-0.7s-0.2-0.4-0.4-0.5s-0.4-0.3-0.7-0.4c-0.3-0.1-0.7-0.1-1.2-0.1v-0.8
		c0.4,0,0.7,0,1-0.1s0.5-0.2,0.7-0.3s0.3-0.3,0.4-0.5s0.1-0.4,0.1-0.7s0-0.5-0.1-0.7s-0.2-0.4-0.3-0.5c-0.1-0.1-0.3-0.2-0.5-0.3
		s-0.4-0.1-0.7-0.1c-0.2,0-0.5,0-0.7,0.1s-0.4,0.2-0.5,0.3c-0.2,0.1-0.3,0.3-0.4,0.4c-0.1,0.2-0.2,0.4-0.2,0.6
		c-0.1,0.2-0.1,0.3-0.2,0.3s-0.2,0.1-0.4,0l-0.6-0.1c0.1-0.4,0.2-0.8,0.4-1.1c0.2-0.3,0.4-0.6,0.7-0.8c0.3-0.2,0.6-0.4,0.9-0.5
		C389.7,47.2,390.1,47.2,390.5,47.2z"/>
</g>
<g>
	<path class="st10" d="M280.3-0.6v-7.2h2.3c0.4,0,0.8,0,1.1,0.1c0.3,0.1,0.6,0.2,0.8,0.4s0.4,0.4,0.5,0.6s0.1,0.5,0.1,0.8
		c0,0.2,0,0.3-0.1,0.5s-0.1,0.3-0.2,0.5c-0.1,0.1-0.2,0.3-0.4,0.4c-0.2,0.1-0.4,0.2-0.6,0.3c0.5,0.1,0.9,0.3,1.2,0.6
		c0.3,0.3,0.4,0.6,0.4,1.1c0,0.3-0.1,0.6-0.2,0.8s-0.3,0.5-0.5,0.6c-0.2,0.2-0.5,0.3-0.8,0.4s-0.7,0.1-1.1,0.1
		C282.8-0.6,280.3-0.6,280.3-0.6z M281.3-4.6h1.3c0.3,0,0.5,0,0.7-0.1s0.4-0.1,0.5-0.2s0.2-0.2,0.3-0.4c0.1-0.2,0.1-0.3,0.1-0.5
		c0-0.4-0.1-0.7-0.4-0.9c-0.3-0.2-0.6-0.3-1.2-0.3h-1.3V-4.6z M281.3-3.9v2.5h1.6c0.3,0,0.5,0,0.7-0.1s0.4-0.2,0.5-0.3
		s0.2-0.3,0.3-0.4s0.1-0.3,0.1-0.5c0-0.4-0.1-0.7-0.4-0.9s-0.7-0.3-1.2-0.3C282.9-3.9,281.3-3.9,281.3-3.9z"/>
	<path class="st10" d="M293.5-4.2c0,0.5-0.1,1-0.3,1.5c-0.2,0.4-0.4,0.8-0.7,1.2s-0.7,0.6-1.1,0.8s-0.9,0.3-1.4,0.3s-1-0.1-1.4-0.3
		s-0.8-0.4-1.1-0.8s-0.5-0.7-0.7-1.2s-0.3-0.9-0.3-1.5s0.1-1,0.3-1.5s0.4-0.8,0.7-1.2c0.3-0.3,0.7-0.6,1.1-0.8
		C289-7.9,289.5-8,290-8s1,0.1,1.4,0.3c0.4,0.2,0.8,0.4,1.1,0.8c0.3,0.3,0.5,0.7,0.7,1.2C293.4-5.2,293.5-4.7,293.5-4.2z M292.5-4.2
		c0-0.4-0.1-0.8-0.2-1.2c-0.1-0.4-0.3-0.6-0.5-0.9c-0.2-0.2-0.5-0.4-0.8-0.6C290.7-7,290.4-7,290-7s-0.7,0.1-1,0.2s-0.6,0.3-0.8,0.6
		s-0.4,0.5-0.5,0.9s-0.2,0.7-0.2,1.2s0.1,0.8,0.2,1.2c0.1,0.3,0.3,0.6,0.5,0.9c0.2,0.2,0.5,0.4,0.8,0.6c0.3,0.1,0.7,0.2,1,0.2
		c0.4,0,0.7-0.1,1-0.2s0.6-0.3,0.8-0.6c0.2-0.2,0.4-0.5,0.5-0.9C292.5-3.4,292.5-3.8,292.5-4.2z"/>
	<path class="st10" d="M299.5-7.8V-7h-2.3v6.4h-1V-7h-2.3v-0.8H299.5z"/>
</g>
<g>
	<path class="st11" d="M221,10h-17c-1.6,0-3-1.4-3-3v-17c0-1.6,1.4-3,3-3h17c1.6,0,3,1.4,3,3V7C224,8.6,222.6,10,221,10z"/>
	<polygon class="st12" points="219.7,-5.8 205.3,-5.8 208.9,-8.7 216.1,-8.7 	"/>
	<rect x="205.3" y="-5.8" class="st13" width="14.4" height="2.9"/>
	<rect x="205.3" y="-2.9" class="st14" width="14.4" height="2.9"/>
	<rect x="205.3" y="-0.1" class="st15" width="14.4" height="2.9"/>
	<polygon class="st16" points="216.1,5.7 208.9,5.7 205.3,2.8 219.7,2.8 	"/>
	<g>
		<path class="st2" d="M212.8-8.7c3.8,0,6.9,3.1,6.9,6.9v0.6c0,3.8-3.1,6.9-6.9,6.9h-0.6c-3.8,0-6.9-3.1-6.9-6.9v-0.6
			c0-3.8,3.1-6.9,6.9-6.9H212.8 M212.8-10.7h-0.6c-4.9,0-8.9,4-8.9,8.9v0.6c0,4.9,4,8.9,8.9,8.9h0.6c4.9,0,8.9-4,8.9-8.9v-0.6
			C221.7-6.7,217.7-10.7,212.8-10.7L212.8-10.7z"/>
	</g>
</g>
<g>
	<path class="st6" d="M238,85.7c-0.1,0.1-0.1,0.1-0.2,0.2c0,0-0.1,0.1-0.2,0.1c-0.1,0-0.2,0-0.3-0.1s-0.2-0.1-0.3-0.2
		s-0.3-0.1-0.4-0.2c-0.2-0.1-0.4-0.1-0.6-0.1c-0.3,0-0.6,0.1-0.8,0.2s-0.4,0.3-0.6,0.5c-0.2,0.2-0.3,0.5-0.3,0.7
		c-0.1,0.3-0.1,0.6-0.1,1s0,0.7,0.1,1s0.2,0.5,0.4,0.8c0.2,0.2,0.3,0.4,0.6,0.5s0.5,0.2,0.7,0.2s0.5,0,0.7-0.1s0.3-0.1,0.4-0.2
		c0.1-0.1,0.2-0.2,0.3-0.2c0.1-0.1,0.2-0.1,0.3-0.1s0.2,0.1,0.3,0.2l0.5,0.6c-0.2,0.2-0.4,0.4-0.6,0.6c-0.2,0.2-0.5,0.3-0.7,0.4
		s-0.5,0.2-0.7,0.2s-0.5,0.1-0.8,0.1c-0.4,0-0.9-0.1-1.3-0.2c-0.4-0.2-0.7-0.4-1-0.7c-0.3-0.3-0.5-0.7-0.7-1.2s-0.3-1-0.3-1.6
		c0-0.5,0.1-1,0.2-1.5c0.2-0.5,0.4-0.8,0.7-1.2c0.3-0.3,0.7-0.6,1.1-0.8s0.9-0.3,1.5-0.3c0.5,0,1,0.1,1.4,0.3
		c0.4,0.2,0.8,0.4,1.1,0.7L238,85.7z"/>
	<path class="st6" d="M241.4,81v10.4h-1.7V81H241.4z"/>
	<path class="st6" d="M245.1,82.1c0,0.1,0,0.3-0.1,0.4s-0.1,0.2-0.2,0.3c-0.1,0.1-0.2,0.2-0.4,0.2c-0.1,0.1-0.3,0.1-0.4,0.1
		c-0.1,0-0.3,0-0.4-0.1c-0.1-0.1-0.2-0.1-0.3-0.2s-0.2-0.2-0.2-0.3c-0.1-0.1-0.1-0.3-0.1-0.4c0-0.2,0-0.3,0.1-0.4s0.1-0.3,0.2-0.4
		c0.1-0.1,0.2-0.2,0.3-0.2c0.1-0.1,0.3-0.1,0.4-0.1c0.2,0,0.3,0,0.4,0.1c0.1,0.1,0.3,0.1,0.4,0.2c0.1,0.1,0.2,0.2,0.2,0.4
		C245.1,81.8,245.1,82,245.1,82.1z M244.9,84.2v7.2h-1.7v-7.2H244.9z"/>
	<path class="st6" d="M247.1,91.4v-5.9l-0.6-0.1c-0.1,0-0.2-0.1-0.3-0.1c-0.1-0.1-0.1-0.2-0.1-0.3v-0.7h1.1v-0.4
		c0-0.4,0.1-0.8,0.2-1.1c0.1-0.3,0.3-0.6,0.5-0.8s0.5-0.4,0.8-0.5s0.7-0.2,1.1-0.2c0.3,0,0.6,0,0.9,0.1v0.9c0,0.1,0,0.1-0.1,0.2
		s-0.1,0.1-0.1,0.1c-0.1,0-0.1,0-0.2,0c-0.1,0-0.1,0-0.2,0c-0.2,0-0.4,0-0.5,0.1c-0.2,0-0.3,0.1-0.4,0.2s-0.2,0.3-0.3,0.4
		c-0.1,0.2-0.1,0.4-0.1,0.7v0.4h2.9v-0.6c0-0.4,0.1-0.8,0.2-1.1c0.1-0.3,0.3-0.6,0.5-0.8s0.5-0.4,0.8-0.5s0.7-0.2,1.1-0.2
		c0.2,0,0.3,0,0.5,0s0.3,0.1,0.5,0.1v0.9c0,0.1-0.1,0.2-0.2,0.3c-0.1,0-0.2,0.1-0.4,0.1s-0.4,0-0.5,0.1c-0.2,0-0.3,0.1-0.4,0.2
		c-0.1,0.1-0.2,0.3-0.3,0.4c-0.1,0.2-0.1,0.4-0.1,0.7v0.6h1.9v1.2h-1.8v5.9h-1.7v-5.9H249v5.9h-1.9V91.4z"/>
</g>
<g>
	<path class="st7" d="M267.2,91.4c-0.5,0-1-0.1-1.4-0.2s-0.8-0.3-1.1-0.6c-0.3-0.2-0.5-0.5-0.7-0.9s-0.2-0.7-0.2-1.2
		c0-0.6,0.2-1.2,0.5-1.6s0.8-0.7,1.4-0.9c-0.5-0.2-0.9-0.5-1.2-0.9c-0.3-0.4-0.4-0.9-0.4-1.4c0-0.4,0.1-0.7,0.2-1s0.4-0.6,0.6-0.8
		c0.3-0.2,0.6-0.4,1-0.6s0.8-0.2,1.2-0.2c0.5,0,0.9,0.1,1.2,0.2c0.4,0.1,0.7,0.3,1,0.6c0.3,0.2,0.5,0.5,0.6,0.8s0.2,0.7,0.2,1
		c0,0.5-0.1,1-0.4,1.4s-0.7,0.7-1.2,0.9c0.6,0.2,1.1,0.5,1.4,0.9s0.5,0.9,0.5,1.6c0,0.4-0.1,0.8-0.2,1.2c-0.2,0.4-0.4,0.7-0.7,0.9
		c-0.3,0.2-0.7,0.4-1.1,0.6C268.1,91.4,267.7,91.4,267.2,91.4z M267.2,90.4c0.3,0,0.6,0,0.9-0.1s0.5-0.2,0.7-0.4
		c0.2-0.2,0.3-0.4,0.4-0.6s0.1-0.5,0.1-0.8s-0.1-0.6-0.2-0.9c-0.1-0.2-0.3-0.4-0.5-0.6s-0.4-0.3-0.7-0.3s-0.5-0.1-0.8-0.1
		s-0.5,0-0.8,0.1s-0.5,0.2-0.7,0.3c-0.2,0.2-0.3,0.4-0.5,0.6c-0.1,0.2-0.2,0.5-0.2,0.9c0,0.3,0,0.5,0.1,0.8s0.2,0.4,0.4,0.6
		c0.2,0.2,0.4,0.3,0.7,0.4C266.6,90.4,266.9,90.4,267.2,90.4z M267.2,85.6c0.3,0,0.6-0.1,0.8-0.2c0.2-0.1,0.4-0.2,0.6-0.4
		s0.2-0.4,0.3-0.6c0.1-0.2,0.1-0.4,0.1-0.7c0-0.2,0-0.5-0.1-0.7s-0.2-0.4-0.3-0.5c-0.2-0.2-0.3-0.3-0.6-0.4
		c-0.2-0.1-0.5-0.1-0.8-0.1s-0.6,0-0.8,0.1c-0.2,0.1-0.4,0.2-0.6,0.4c-0.2,0.2-0.3,0.3-0.3,0.5c-0.1,0.2-0.1,0.4-0.1,0.7
		c0,0.2,0,0.5,0.1,0.7s0.2,0.4,0.3,0.6c0.1,0.2,0.3,0.3,0.6,0.4C266.6,85.6,266.9,85.6,267.2,85.6z"/>
	<path class="st7" d="M272.1,85.3c0-0.1,0-0.2,0.1-0.3s0.1-0.2,0.2-0.3c0.1-0.1,0.2-0.1,0.3-0.2c0.1,0,0.2-0.1,0.3-0.1
		c0.1,0,0.2,0,0.3,0.1c0.1,0,0.2,0.1,0.3,0.2c0.1,0.1,0.1,0.2,0.2,0.3c0,0.1,0.1,0.2,0.1,0.3c0,0.1,0,0.2-0.1,0.3
		c0,0.1-0.1,0.2-0.2,0.3c-0.1,0.1-0.2,0.1-0.3,0.2s-0.2,0.1-0.3,0.1c-0.1,0-0.2,0-0.3-0.1s-0.2-0.1-0.3-0.2
		c-0.1-0.1-0.1-0.2-0.2-0.3S272.1,85.4,272.1,85.3z M272.1,90.6c0-0.1,0-0.2,0.1-0.3s0.1-0.2,0.2-0.3c0.1-0.1,0.2-0.1,0.3-0.2
		c0.1,0,0.2-0.1,0.3-0.1c0.1,0,0.2,0,0.3,0.1c0.1,0,0.2,0.1,0.3,0.2c0.1,0.1,0.1,0.2,0.2,0.3c0,0.1,0.1,0.2,0.1,0.3
		c0,0.1,0,0.2-0.1,0.3c0,0.1-0.1,0.2-0.2,0.3c-0.1,0.1-0.2,0.1-0.3,0.2s-0.2,0.1-0.3,0.1c-0.1,0-0.2,0-0.3-0.1s-0.2-0.1-0.3-0.2
		c-0.1-0.1-0.1-0.2-0.2-0.3S272.1,90.7,272.1,90.6z"/>
	<path class="st7" d="M281.6,81.8c0,0.2-0.1,0.3-0.2,0.4s-0.3,0.2-0.6,0.2h-3.1l-0.5,2.6c0.3-0.1,0.5-0.1,0.8-0.1c0.2,0,0.5,0,0.7,0
		c0.5,0,1,0.1,1.4,0.2c0.4,0.2,0.7,0.4,1,0.6c0.3,0.3,0.5,0.6,0.6,1s0.2,0.8,0.2,1.2c0,0.5-0.1,1-0.3,1.4c-0.2,0.4-0.4,0.8-0.8,1.1
		c-0.3,0.3-0.7,0.5-1.1,0.7s-0.9,0.2-1.4,0.2c-0.3,0-0.6,0-0.8-0.1s-0.5-0.1-0.8-0.2c-0.2-0.1-0.5-0.2-0.7-0.3
		c-0.2-0.1-0.4-0.3-0.5-0.4l0.4-0.5c0.1-0.1,0.2-0.2,0.3-0.2c0.1,0,0.2,0,0.3,0.1s0.3,0.2,0.4,0.2c0.2,0.1,0.4,0.2,0.6,0.2
		c0.2,0.1,0.5,0.1,0.8,0.1c0.4,0,0.7-0.1,0.9-0.2c0.3-0.1,0.5-0.3,0.7-0.5s0.4-0.5,0.5-0.7s0.2-0.6,0.2-1c0-0.3,0-0.6-0.1-0.8
		s-0.2-0.5-0.4-0.6c-0.2-0.2-0.4-0.3-0.7-0.4s-0.6-0.1-1-0.1c-0.3,0-0.5,0-0.8,0.1s-0.6,0.1-0.8,0.2L276,86l0.8-4.7h4.8V81.8z"/>
	<path class="st7" d="M287.1,81.2c0.4,0,0.8,0.1,1.2,0.2c0.4,0.1,0.7,0.3,0.9,0.5c0.3,0.2,0.5,0.5,0.6,0.8s0.2,0.7,0.2,1.1
		c0,0.3,0,0.6-0.1,0.9c-0.1,0.2-0.2,0.5-0.3,0.7c-0.2,0.2-0.3,0.3-0.5,0.5c-0.2,0.1-0.5,0.2-0.7,0.3c0.7,0.2,1.1,0.5,1.5,0.9
		c0.3,0.4,0.5,0.9,0.5,1.5c0,0.5-0.1,0.9-0.3,1.2c-0.2,0.4-0.4,0.7-0.7,0.9c-0.3,0.3-0.7,0.5-1.1,0.6s-0.8,0.2-1.3,0.2
		s-1-0.1-1.4-0.2s-0.7-0.3-1-0.5s-0.5-0.5-0.6-0.8s-0.3-0.7-0.4-1l0.5-0.2c0.1-0.1,0.3-0.1,0.4,0c0.1,0,0.2,0.1,0.3,0.2
		c0.1,0.1,0.1,0.3,0.2,0.5s0.2,0.4,0.4,0.5s0.4,0.3,0.6,0.4s0.6,0.2,0.9,0.2c0.4,0,0.7-0.1,0.9-0.2s0.5-0.3,0.7-0.4
		c0.2-0.2,0.3-0.4,0.4-0.6s0.1-0.4,0.1-0.7c0-0.3,0-0.5-0.1-0.7s-0.2-0.4-0.4-0.6c-0.2-0.2-0.5-0.3-0.8-0.4s-0.8-0.1-1.3-0.1V86
		c0.4,0,0.8-0.1,1.1-0.1c0.3-0.1,0.5-0.2,0.7-0.4c0.2-0.2,0.3-0.3,0.4-0.6c0.1-0.2,0.1-0.5,0.1-0.7c0-0.3,0-0.5-0.1-0.8
		c-0.1-0.2-0.2-0.4-0.4-0.5s-0.3-0.2-0.6-0.3c-0.2-0.1-0.5-0.1-0.7-0.1c-0.3,0-0.5,0-0.7,0.1s-0.4,0.2-0.6,0.3s-0.3,0.3-0.4,0.5
		S285,83.8,285,84c-0.1,0.2-0.1,0.3-0.2,0.3s-0.2,0.1-0.4,0l-0.7-0.1c0.1-0.5,0.2-0.9,0.4-1.2c0.2-0.4,0.4-0.6,0.7-0.9
		s0.6-0.4,1-0.5S286.6,81.2,287.1,81.2z"/>
	<path class="st7" d="M297.2,87.6v3.8h-1.4v-10h3c0.6,0,1.2,0.1,1.7,0.2s0.9,0.4,1.2,0.6c0.3,0.3,0.5,0.6,0.7,1s0.2,0.8,0.2,1.3
		s-0.1,0.9-0.2,1.3c-0.2,0.4-0.4,0.7-0.7,1c-0.3,0.3-0.7,0.5-1.2,0.7s-1,0.2-1.6,0.2L297.2,87.6L297.2,87.6z M297.2,86.5h1.6
		c0.4,0,0.7-0.1,1-0.2s0.5-0.2,0.7-0.4c0.2-0.2,0.4-0.4,0.5-0.7c0.1-0.3,0.2-0.5,0.2-0.8c0-0.6-0.2-1.1-0.6-1.5s-1-0.5-1.8-0.5h-1.6
		L297.2,86.5L297.2,86.5z"/>
	<path class="st7" d="M309.4,88.1c0.1,0.1,0.1,0.2,0.2,0.4c0-0.1,0.1-0.3,0.1-0.4c0.1-0.1,0.1-0.2,0.2-0.4l3.4-6.2
		c0.1-0.1,0.1-0.2,0.2-0.2s0.2,0,0.3,0h1v10h-1.2V84c0-0.1,0-0.2,0-0.3c0-0.1,0-0.2,0-0.3l-3.4,6.3c-0.1,0.2-0.3,0.3-0.5,0.3h-0.2
		c-0.2,0-0.4-0.1-0.5-0.3l-3.5-6.3c0,0.1,0,0.2,0,0.4s0,0.2,0,0.3v7.4h-1.2v-10h1c0.1,0,0.2,0,0.3,0s0.1,0.1,0.2,0.2l3.5,6.2
		C309.2,87.8,309.3,87.9,309.4,88.1z"/>
</g>
<g>
	<path class="st8" d="M234.5,109.6h-1.3v-9.3h1.3V109.6z"/>
	<path class="st8" d="M237.4,99.6c0.2,0.3,0.3,0.6,0.4,1s0.1,0.7,0,1s-0.2,0.7-0.3,1c-0.2,0.3-0.4,0.6-0.7,0.8l-0.4-0.2
		c-0.1,0-0.1-0.1-0.1-0.2s0-0.1,0.1-0.2s0.2-0.3,0.3-0.5s0.1-0.4,0.2-0.6c0-0.2,0-0.5,0-0.7s-0.1-0.5-0.3-0.7
		c-0.1-0.1-0.1-0.2,0-0.2c0-0.1,0.1-0.1,0.2-0.2L237.4,99.6z"/>
	<path class="st8" d="M239.3,109.6V103h0.7c0.2,0,0.3,0.1,0.3,0.2l0.1,0.7c0.2-0.3,0.5-0.5,0.8-0.7s0.7-0.3,1.1-0.3
		c0.4,0,0.8,0.1,1.1,0.4s0.5,0.6,0.6,1c0.1-0.2,0.2-0.4,0.4-0.6c0.1-0.2,0.3-0.3,0.5-0.4s0.4-0.2,0.6-0.2c0.2-0.1,0.4-0.1,0.6-0.1
		c0.3,0,0.7,0.1,0.9,0.2c0.3,0.1,0.5,0.3,0.7,0.5s0.3,0.5,0.4,0.8c0.1,0.3,0.1,0.7,0.1,1.1v4.2H247v-4.2c0-0.5-0.1-0.9-0.3-1.2
		c-0.2-0.3-0.6-0.4-1-0.4c-0.2,0-0.4,0-0.5,0.1c-0.2,0.1-0.3,0.2-0.5,0.3c-0.1,0.1-0.2,0.3-0.3,0.5s-0.1,0.4-0.1,0.7v4.2h-1.2v-4.2
		c0-0.5-0.1-0.9-0.3-1.2c-0.2-0.3-0.5-0.4-0.9-0.4c-0.3,0-0.6,0.1-0.8,0.2s-0.5,0.4-0.7,0.6v4.9L239.3,109.6L239.3,109.6z"/>
	<path class="st8" d="M256.1,102.9c0.5,0,0.9,0.1,1.3,0.2c0.4,0.2,0.7,0.4,1,0.7s0.5,0.7,0.6,1.1s0.2,0.9,0.2,1.4s-0.1,1-0.2,1.4
		s-0.4,0.8-0.6,1.1s-0.6,0.5-1,0.7s-0.8,0.2-1.3,0.2s-0.9-0.1-1.3-0.2c-0.4-0.2-0.7-0.4-1-0.7s-0.5-0.7-0.6-1.1s-0.2-0.9-0.2-1.4
		s0.1-1,0.2-1.4c0.1-0.4,0.4-0.8,0.6-1.1s0.6-0.5,1-0.7C255.2,103,255.6,102.9,256.1,102.9z M256.1,108.8c0.6,0,1.1-0.2,1.5-0.7
		s0.5-1,0.5-1.8s-0.2-1.4-0.5-1.8s-0.8-0.7-1.5-0.7c-0.3,0-0.6,0.1-0.9,0.2c-0.2,0.1-0.4,0.3-0.6,0.5c-0.2,0.2-0.3,0.5-0.4,0.8
		c-0.1,0.3-0.1,0.7-0.1,1.1c0,0.8,0.2,1.4,0.5,1.8S255.5,108.8,256.1,108.8z"/>
	<path class="st8" d="M260.7,109.6V103h0.7c0.2,0,0.3,0.1,0.3,0.2l0.1,0.7c0.3-0.3,0.6-0.6,1-0.8c0.4-0.2,0.8-0.3,1.2-0.3
		c0.4,0,0.7,0.1,1,0.2s0.5,0.3,0.7,0.5s0.3,0.5,0.4,0.8s0.1,0.6,0.1,1v4.2H265v-4.2c0-0.5-0.1-0.9-0.3-1.2s-0.6-0.4-1-0.4
		c-0.3,0-0.7,0.1-1,0.2c-0.3,0.2-0.6,0.4-0.8,0.7v4.8h-1.2V109.6z"/>
	<path class="st8" d="M272.8,100.9c0,0.1,0,0.2-0.1,0.3c0,0.1-0.1,0.2-0.2,0.3c-0.1,0.1-0.2,0.1-0.3,0.2c-0.1,0-0.2,0.1-0.3,0.1
		s-0.2,0-0.3-0.1c-0.1,0-0.2-0.1-0.3-0.2c-0.1-0.1-0.1-0.2-0.2-0.3c0-0.1-0.1-0.2-0.1-0.3c0-0.1,0-0.2,0.1-0.3
		c0-0.1,0.1-0.2,0.2-0.3s0.2-0.1,0.3-0.2c0.1,0,0.2-0.1,0.3-0.1s0.2,0,0.3,0.1c0.1,0,0.2,0.1,0.3,0.2s0.1,0.2,0.2,0.3
		C272.8,100.7,272.8,100.8,272.8,100.9z M272.5,103v6.6h-1.2V103H272.5z"/>
	<path class="st8" d="M276.4,109.7c-0.5,0-0.9-0.1-1.2-0.4c-0.3-0.3-0.4-0.7-0.4-1.3v-4H274c-0.1,0-0.1,0-0.2-0.1
		c0,0-0.1-0.1-0.1-0.2v-0.5l1.1-0.1l0.3-2c0-0.1,0-0.1,0.1-0.2s0.1-0.1,0.2-0.1h0.6v2.3h1.9v0.8H276v4c0,0.3,0.1,0.5,0.2,0.6
		s0.3,0.2,0.5,0.2c0.1,0,0.2,0,0.3,0c0.1,0,0.2-0.1,0.2-0.1s0.1-0.1,0.2-0.1h0.1c0.1,0,0.1,0,0.2,0.1l0.3,0.6
		c-0.2,0.2-0.4,0.3-0.7,0.4S276.7,109.7,276.4,109.7z"/>
	<path class="st8" d="M279.1,108.9c0-0.1,0-0.2,0.1-0.3c0-0.1,0.1-0.2,0.2-0.3c0.1-0.1,0.2-0.1,0.3-0.2c0.1,0,0.2-0.1,0.3-0.1
		c0.1,0,0.2,0,0.3,0.1c0.1,0,0.2,0.1,0.3,0.2s0.1,0.2,0.2,0.3c0,0.1,0.1,0.2,0.1,0.3c0,0.1,0,0.2-0.1,0.3c0,0.1-0.1,0.2-0.2,0.3
		c-0.1,0.1-0.2,0.1-0.3,0.2s-0.2,0.1-0.3,0.1c-0.1,0-0.2,0-0.3-0.1c-0.1,0-0.2-0.1-0.3-0.2c-0.1-0.1-0.1-0.2-0.2-0.3
		S279.1,109,279.1,108.9z M280.5,100.3v3.7c0,0.2,0,0.4,0,0.6s0,0.4,0,0.6s0,0.4,0,0.6s0,0.4-0.1,0.6h-0.8c0-0.2,0-0.4-0.1-0.6
		s0-0.4,0-0.6s0-0.4,0-0.6s0-0.4,0-0.6v-3.7H280.5z"/>
</g>
<g>
	<path class="st9" d="M233,63.5c-0.8,0-1.5-0.7-1.5-1.5V44c0-0.8,0.7-1.5,1.5-1.5s1.5,0.7,1.5,1.5v18
		C234.5,62.8,233.8,63.5,233,63.5z"/>
</g>
<rect x="277" y="129" class="st5" width="25" height="11"/>
<g>
	<path class="st6" d="M236,132.1c0.5,0,1,0.1,1.5,0.3c0.4,0.2,0.8,0.4,1.1,0.7s0.5,0.7,0.7,1.2s0.3,1,0.3,1.5c0,0.6-0.1,1.1-0.3,1.5
		c-0.2,0.5-0.4,0.8-0.7,1.2s-0.7,0.6-1.1,0.7c-0.4,0.2-0.9,0.3-1.5,0.3c-0.5,0-1-0.1-1.5-0.3c-0.4-0.2-0.8-0.4-1.1-0.7
		s-0.6-0.7-0.7-1.2s-0.3-1-0.3-1.5c0-0.6,0.1-1.1,0.3-1.5s0.4-0.8,0.7-1.2c0.3-0.3,0.7-0.6,1.1-0.7C235,132.2,235.5,132.1,236,132.1
		z M236,138.2c0.6,0,1-0.2,1.3-0.6c0.3-0.4,0.4-1,0.4-1.8s-0.1-1.4-0.4-1.8c-0.3-0.4-0.7-0.6-1.3-0.6s-1.1,0.2-1.3,0.6
		c-0.3,0.4-0.4,1-0.4,1.8s0.1,1.4,0.4,1.8C235,138,235.4,138.2,236,138.2z"/>
	<path class="st6" d="M240.9,141.7v-9.5h1.1c0.2,0,0.4,0.1,0.4,0.3l0.1,0.7c0.3-0.3,0.6-0.6,1-0.8s0.8-0.3,1.3-0.3
		c0.4,0,0.8,0.1,1.1,0.2c0.3,0.2,0.6,0.4,0.8,0.7s0.4,0.7,0.5,1.1s0.2,1,0.2,1.6c0,0.5-0.1,1-0.2,1.5c-0.1,0.5-0.4,0.9-0.6,1.2
		c-0.3,0.3-0.6,0.6-1,0.8s-0.8,0.3-1.3,0.3c-0.4,0-0.8-0.1-1-0.2c-0.3-0.1-0.5-0.3-0.8-0.5v2.9H240.9z M244.3,133.5
		c-0.4,0-0.7,0.1-0.9,0.2c-0.3,0.2-0.5,0.4-0.7,0.6v3.2c0.2,0.2,0.4,0.4,0.6,0.5s0.5,0.1,0.8,0.1s0.5,0,0.7-0.1s0.4-0.2,0.5-0.4
		s0.3-0.5,0.3-0.8c0.1-0.3,0.1-0.7,0.1-1.1c0-0.4,0-0.8-0.1-1.1s-0.2-0.5-0.3-0.7s-0.3-0.3-0.5-0.4
		C244.7,133.5,244.5,133.5,244.3,133.5z"/>
	<path class="st6" d="M253.2,133.6c0,0.1-0.1,0.1-0.1,0.2s-0.1,0-0.2,0c-0.1,0-0.2,0-0.3-0.1c-0.1,0-0.2-0.1-0.3-0.2
		s-0.3-0.1-0.4-0.2c-0.2,0-0.4-0.1-0.6-0.1c-0.3,0-0.6,0.1-0.8,0.2c-0.2,0.1-0.3,0.3-0.3,0.6c0,0.2,0,0.3,0.2,0.4
		c0.1,0.1,0.2,0.2,0.4,0.3s0.4,0.2,0.6,0.2s0.4,0.1,0.6,0.2c0.2,0.1,0.4,0.2,0.6,0.3s0.4,0.2,0.6,0.4c0.2,0.1,0.3,0.3,0.4,0.5
		c0.1,0.2,0.2,0.5,0.2,0.7c0,0.3-0.1,0.7-0.2,1c-0.1,0.3-0.3,0.5-0.5,0.8c-0.2,0.2-0.5,0.4-0.9,0.5s-0.8,0.2-1.2,0.2
		c-0.2,0-0.5,0-0.7-0.1c-0.2,0-0.5-0.1-0.7-0.2c-0.2-0.1-0.4-0.2-0.6-0.3c-0.2-0.1-0.3-0.2-0.5-0.4l0.4-0.7c0.1-0.1,0.1-0.1,0.2-0.2
		c0.1,0,0.2-0.1,0.3-0.1s0.2,0,0.3,0.1s0.2,0.1,0.3,0.2s0.3,0.1,0.4,0.2s0.4,0.1,0.6,0.1c0.2,0,0.4,0,0.5-0.1c0.1,0,0.3-0.1,0.4-0.2
		c0.1-0.1,0.2-0.2,0.2-0.3s0.1-0.2,0.1-0.3c0-0.2-0.1-0.3-0.2-0.4c-0.1-0.1-0.2-0.2-0.4-0.3s-0.4-0.2-0.6-0.2
		c-0.2-0.1-0.4-0.1-0.7-0.2c-0.2-0.1-0.4-0.2-0.7-0.3s-0.4-0.2-0.6-0.4s-0.3-0.3-0.4-0.6c-0.1-0.2-0.2-0.5-0.2-0.8s0.1-0.6,0.2-0.8
		s0.3-0.5,0.5-0.7s0.5-0.4,0.8-0.5s0.7-0.2,1.2-0.2s0.9,0.1,1.4,0.2c0.4,0.2,0.7,0.4,1,0.6L253.2,133.6z"/>
	<path class="st6" d="M258.1,132.1c0.5,0,0.9,0.1,1.3,0.2c0.4,0.1,0.7,0.4,1,0.6c0.3,0.3,0.5,0.6,0.6,1c0.2,0.4,0.2,0.9,0.2,1.4
		c0,0.3,0,0.4-0.1,0.5s-0.2,0.1-0.3,0.1h-4.4c0,0.4,0.1,0.7,0.2,1s0.2,0.5,0.4,0.7c0.2,0.2,0.4,0.3,0.6,0.4c0.2,0.1,0.5,0.1,0.8,0.1
		s0.5,0,0.7-0.1s0.4-0.1,0.5-0.2c0.2-0.1,0.3-0.2,0.4-0.2c0.1-0.1,0.2-0.1,0.3-0.1c0.1,0,0.3,0.1,0.3,0.2l0.5,0.6
		c-0.2,0.2-0.4,0.4-0.6,0.6c-0.2,0.2-0.5,0.3-0.7,0.4c-0.3,0.1-0.5,0.2-0.8,0.2s-0.5,0.1-0.8,0.1c-0.5,0-1-0.1-1.4-0.2
		c-0.4-0.2-0.8-0.4-1.1-0.7s-0.6-0.7-0.7-1.2c-0.2-0.5-0.3-1-0.3-1.7c0-0.5,0.1-1,0.2-1.4c0.2-0.4,0.4-0.8,0.7-1.1s0.7-0.6,1.1-0.8
		C257,132.2,257.5,132.1,258.1,132.1z M258.1,133.3c-0.5,0-0.9,0.1-1.2,0.4c-0.3,0.3-0.5,0.7-0.5,1.2h3.3c0-0.2,0-0.4-0.1-0.6
		c-0.1-0.2-0.2-0.4-0.3-0.5s-0.3-0.3-0.5-0.4C258.6,133.4,258.4,133.3,258.1,133.3z"/>
	<path class="st6" d="M265.5,132.1c0.5,0,0.9,0.1,1.3,0.2c0.4,0.1,0.7,0.4,1,0.6c0.3,0.3,0.5,0.6,0.6,1c0.2,0.4,0.2,0.9,0.2,1.4
		c0,0.3,0,0.4-0.1,0.5s-0.2,0.1-0.3,0.1h-4.4c0,0.4,0.1,0.7,0.2,1s0.2,0.5,0.4,0.7c0.2,0.2,0.4,0.3,0.6,0.4c0.2,0.1,0.5,0.1,0.8,0.1
		s0.5,0,0.7-0.1s0.4-0.1,0.5-0.2c0.2-0.1,0.3-0.2,0.4-0.2c0.1-0.1,0.2-0.1,0.3-0.1c0.1,0,0.3,0.1,0.3,0.2l0.5,0.6
		c-0.2,0.2-0.4,0.4-0.6,0.6c-0.2,0.2-0.5,0.3-0.7,0.4c-0.3,0.1-0.5,0.2-0.8,0.2s-0.5,0.1-0.8,0.1c-0.5,0-1-0.1-1.4-0.2
		c-0.4-0.2-0.8-0.4-1.1-0.7s-0.6-0.7-0.7-1.2c-0.2-0.5-0.3-1-0.3-1.7c0-0.5,0.1-1,0.2-1.4c0.2-0.4,0.4-0.8,0.7-1.1s0.7-0.6,1.1-0.8
		C264.5,132.2,265,132.1,265.5,132.1z M265.6,133.3c-0.5,0-0.9,0.1-1.2,0.4c-0.3,0.3-0.5,0.7-0.5,1.2h3.3c0-0.2,0-0.4-0.1-0.6
		c-0.1-0.2-0.2-0.4-0.3-0.5s-0.3-0.3-0.5-0.4C266.1,133.4,265.8,133.3,265.6,133.3z"/>
</g>
<g>
	<path class="st7" d="M315.1,139.4c-0.5,0-1-0.1-1.4-0.2c-0.4-0.1-0.8-0.3-1.1-0.6c-0.3-0.2-0.5-0.5-0.7-0.9s-0.2-0.7-0.2-1.2
		c0-0.6,0.2-1.2,0.5-1.6s0.8-0.7,1.4-0.9c-0.5-0.2-0.9-0.5-1.2-0.9c-0.3-0.4-0.4-0.9-0.4-1.4c0-0.4,0.1-0.7,0.2-1s0.3-0.6,0.6-0.8
		c0.3-0.2,0.6-0.4,1-0.6s0.8-0.2,1.2-0.2c0.5,0,0.9,0.1,1.2,0.2s0.7,0.3,1,0.6c0.3,0.2,0.5,0.5,0.6,0.8s0.2,0.7,0.2,1
		c0,0.5-0.1,1-0.4,1.4s-0.7,0.7-1.2,0.9c0.6,0.2,1.1,0.5,1.4,0.9s0.5,0.9,0.5,1.6c0,0.4-0.1,0.8-0.2,1.2c-0.2,0.4-0.4,0.7-0.7,0.9
		c-0.3,0.2-0.7,0.4-1.1,0.6C316,139.4,315.6,139.4,315.1,139.4z M315.1,138.4c0.3,0,0.6,0,0.9-0.1s0.5-0.2,0.7-0.4s0.3-0.4,0.4-0.6
		s0.1-0.5,0.1-0.8s-0.1-0.6-0.2-0.9c-0.1-0.2-0.3-0.4-0.5-0.6c-0.2-0.2-0.4-0.3-0.7-0.3s-0.5-0.1-0.8-0.1s-0.5,0-0.8,0.1
		s-0.5,0.2-0.7,0.3c-0.2,0.2-0.3,0.4-0.5,0.6c-0.1,0.2-0.2,0.5-0.2,0.9c0,0.3,0,0.5,0.1,0.8s0.2,0.4,0.4,0.6
		c0.2,0.2,0.4,0.3,0.7,0.4C314.4,138.4,314.7,138.4,315.1,138.4z M315.1,133.6c0.3,0,0.6-0.1,0.8-0.2c0.2-0.1,0.4-0.2,0.6-0.4
		s0.2-0.4,0.3-0.6c0.1-0.2,0.1-0.4,0.1-0.7c0-0.2,0-0.5-0.1-0.7s-0.2-0.4-0.3-0.5c-0.2-0.2-0.3-0.3-0.6-0.4
		c-0.2-0.1-0.5-0.1-0.8-0.1s-0.6,0-0.8,0.1c-0.2,0.1-0.4,0.2-0.6,0.4s-0.3,0.3-0.3,0.5s-0.1,0.4-0.1,0.7c0,0.2,0,0.5,0.1,0.7
		s0.2,0.4,0.3,0.6s0.3,0.3,0.6,0.4C314.5,133.6,314.7,133.6,315.1,133.6z"/>
	<path class="st7" d="M320,133.3c0-0.1,0-0.2,0.1-0.3c0-0.1,0.1-0.2,0.2-0.3s0.2-0.1,0.3-0.2c0.1,0,0.2-0.1,0.3-0.1
		c0.1,0,0.2,0,0.3,0.1c0.1,0,0.2,0.1,0.3,0.2c0.1,0.1,0.1,0.2,0.2,0.3c0,0.1,0.1,0.2,0.1,0.3s0,0.2-0.1,0.3c0,0.1-0.1,0.2-0.2,0.3
		s-0.2,0.1-0.3,0.2s-0.2,0.1-0.3,0.1c-0.1,0-0.2,0-0.3-0.1s-0.2-0.1-0.3-0.2c-0.1-0.1-0.1-0.2-0.2-0.3S320,133.4,320,133.3z
		 M320,138.6c0-0.1,0-0.2,0.1-0.3c0-0.1,0.1-0.2,0.2-0.3s0.2-0.1,0.3-0.2c0.1,0,0.2-0.1,0.3-0.1c0.1,0,0.2,0,0.3,0.1
		c0.1,0,0.2,0.1,0.3,0.2c0.1,0.1,0.1,0.2,0.2,0.3c0,0.1,0.1,0.2,0.1,0.3s0,0.2-0.1,0.3c0,0.1-0.1,0.2-0.2,0.3s-0.2,0.1-0.3,0.2
		s-0.2,0.1-0.3,0.1c-0.1,0-0.2,0-0.3-0.1s-0.2-0.1-0.3-0.2c-0.1-0.1-0.1-0.2-0.2-0.3S320,138.7,320,138.6z"/>
	<path class="st7" d="M329.5,129.8c0,0.2-0.1,0.3-0.2,0.4s-0.3,0.2-0.6,0.2h-3.2L325,133c0.3-0.1,0.5-0.1,0.8-0.1c0.2,0,0.5,0,0.7,0
		c0.5,0,1,0.1,1.4,0.2c0.4,0.2,0.7,0.4,1,0.6c0.3,0.3,0.5,0.6,0.6,1s0.2,0.8,0.2,1.2c0,0.5-0.1,1-0.3,1.4c-0.2,0.4-0.4,0.8-0.8,1.1
		s-0.7,0.5-1.1,0.7s-0.9,0.2-1.4,0.2c-0.3,0-0.6,0-0.8-0.1s-0.5-0.1-0.8-0.2c-0.2-0.1-0.5-0.2-0.7-0.3s-0.4-0.3-0.5-0.4l0.4-0.5
		c0.1-0.1,0.2-0.2,0.3-0.2c0.1,0,0.2,0,0.3,0.1s0.3,0.2,0.4,0.2c0.2,0.1,0.4,0.2,0.6,0.2s0.5,0.1,0.8,0.1s0.7-0.1,0.9-0.2
		c0.3-0.1,0.5-0.3,0.7-0.5s0.4-0.5,0.5-0.7s0.2-0.6,0.2-1c0-0.3,0-0.6-0.1-0.8s-0.2-0.5-0.4-0.6s-0.4-0.3-0.7-0.4s-0.6-0.1-1-0.1
		c-0.3,0-0.5,0-0.8,0.1c-0.3,0-0.6,0.1-0.8,0.2l-0.8-0.2l0.8-4.7h4.8v0.5H329.5z"/>
	<path class="st7" d="M336.9,135.7h1.5v0.7c0,0.1,0,0.1-0.1,0.2c0,0.1-0.1,0.1-0.2,0.1h-1.2v2.6h-1.1v-2.6h-4.5
		c-0.1,0-0.2,0-0.2-0.1c-0.1-0.1-0.1-0.1-0.1-0.2l-0.1-0.6l4.9-6.5h1.2L336.9,135.7L336.9,135.7z M335.8,131.6c0-0.1,0-0.3,0-0.4
		c0-0.1,0-0.3,0-0.4l-3.7,5h3.6v-4.2H335.8z"/>
	<path class="st7" d="M345.1,135.6v3.8h-1.4v-10h3c0.6,0,1.2,0.1,1.7,0.2c0.5,0.1,0.9,0.4,1.2,0.6c0.3,0.3,0.5,0.6,0.7,1
		s0.2,0.8,0.2,1.3s-0.1,0.9-0.2,1.3c-0.2,0.4-0.4,0.7-0.7,1c-0.3,0.3-0.7,0.5-1.2,0.7s-1,0.2-1.6,0.2h-1.7V135.6z M345.1,134.5h1.6
		c0.4,0,0.7-0.1,1-0.2c0.3-0.1,0.5-0.2,0.7-0.4s0.4-0.4,0.5-0.7s0.2-0.5,0.2-0.8c0-0.6-0.2-1.1-0.6-1.5s-1-0.5-1.8-0.5h-1.6
		L345.1,134.5L345.1,134.5z"/>
	<path class="st7" d="M357.2,136.1c0.1,0.1,0.1,0.2,0.2,0.4c0-0.1,0.1-0.3,0.1-0.4c0.1-0.1,0.1-0.2,0.2-0.4l3.4-6.2
		c0.1-0.1,0.1-0.2,0.2-0.2s0.2,0,0.3,0h1v10h-1.2V132c0-0.1,0-0.2,0-0.3s0-0.2,0-0.3l-3.4,6.3c-0.1,0.2-0.3,0.3-0.5,0.3h-0.2
		c-0.2,0-0.4-0.1-0.5-0.3l-3.5-6.3c0,0.1,0,0.2,0,0.4c0,0.1,0,0.2,0,0.3v7.4h-1.2v-10h1c0.1,0,0.2,0,0.3,0c0.1,0,0.1,0.1,0.2,0.2
		l3.5,6.2C357.1,135.8,357.2,135.9,357.2,136.1z"/>
</g>
<g>
	<path class="st8" d="M233.2,159.5v-11.8h2.4v0.5c0,0.1,0,0.2-0.1,0.2c-0.1,0.1-0.1,0.1-0.2,0.1h-1.1v10.3h1.1c0.1,0,0.2,0,0.2,0.1
		c0.1,0.1,0.1,0.1,0.1,0.2v0.5h-2.4V159.5z"/>
	<path class="st8" d="M236.5,157.6V151h0.7c0.1,0,0.2,0,0.3,0.1c0,0,0.1,0.1,0.1,0.2l0.1,1c0.2-0.5,0.5-0.8,0.8-1.1s0.7-0.4,1.1-0.4
		c0.1,0,0.3,0,0.4,0c0.1,0,0.2,0.1,0.3,0.1l-0.1,0.9c0,0.1-0.1,0.2-0.2,0.2c-0.1,0-0.1,0-0.3,0c-0.1,0-0.2,0-0.4,0s-0.4,0-0.6,0.1
		c-0.2,0.1-0.3,0.2-0.4,0.3c-0.1,0.1-0.2,0.3-0.3,0.4c-0.1,0.2-0.2,0.4-0.3,0.6v4.2H236.5z"/>
	<path class="st8" d="M243.7,150.9c0.4,0,0.8,0.1,1.1,0.2c0.3,0.1,0.6,0.3,0.9,0.6c0.2,0.2,0.4,0.6,0.6,0.9c0.1,0.4,0.2,0.8,0.2,1.3
		c0,0.2,0,0.3-0.1,0.4s-0.1,0.1-0.2,0.1h-4.4c0,0.4,0.1,0.8,0.2,1.1s0.2,0.6,0.4,0.8s0.4,0.4,0.6,0.5c0.3,0.1,0.5,0.2,0.8,0.2
		s0.5,0,0.8-0.1c0.2-0.1,0.4-0.1,0.5-0.2c0.2-0.1,0.3-0.2,0.4-0.2c0.1-0.1,0.2-0.1,0.3-0.1s0.2,0,0.2,0.1l0.3,0.4
		c-0.1,0.2-0.3,0.3-0.5,0.5s-0.4,0.2-0.6,0.3c-0.2,0.1-0.5,0.1-0.7,0.2s-0.5,0.1-0.7,0.1c-0.5,0-0.9-0.1-1.3-0.2
		c-0.4-0.2-0.7-0.4-1-0.7s-0.5-0.7-0.7-1.1c-0.2-0.4-0.2-0.9-0.2-1.5c0-0.5,0.1-0.9,0.2-1.3c0.1-0.4,0.3-0.7,0.6-1s0.6-0.5,1-0.7
		C242.8,151,243.2,150.9,243.7,150.9z M243.7,151.8c-0.6,0-1,0.2-1.3,0.5s-0.5,0.8-0.6,1.3h3.6c0-0.3,0-0.5-0.1-0.7
		s-0.2-0.4-0.3-0.6c-0.1-0.2-0.3-0.3-0.5-0.4S244,151.8,243.7,151.8z"/>
	<path class="st8" d="M251.7,152.1c-0.1,0.1-0.1,0.1-0.2,0.1c-0.1,0-0.1,0-0.2-0.1c-0.1,0-0.2-0.1-0.3-0.2c-0.1-0.1-0.3-0.1-0.4-0.2
		c-0.2,0-0.4-0.1-0.6-0.1c-0.2,0-0.4,0-0.5,0.1c-0.2,0.1-0.3,0.1-0.4,0.2c-0.1,0.1-0.2,0.2-0.3,0.3s-0.1,0.2-0.1,0.4s0,0.3,0.1,0.4
		c0.1,0.1,0.2,0.2,0.4,0.3s0.3,0.2,0.5,0.2c0.2,0.1,0.4,0.1,0.6,0.2c0.2,0.1,0.4,0.2,0.6,0.2c0.2,0.1,0.4,0.2,0.5,0.3
		c0.2,0.1,0.3,0.3,0.4,0.5c0.1,0.2,0.1,0.4,0.1,0.7s-0.1,0.6-0.2,0.8s-0.3,0.5-0.5,0.7s-0.5,0.3-0.8,0.4c-0.3,0.1-0.7,0.2-1.1,0.2
		c-0.5,0-0.9-0.1-1.2-0.2c-0.4-0.1-0.7-0.3-0.9-0.6l0.3-0.4c0-0.1,0.1-0.1,0.1-0.1s0.1,0,0.2,0c0.1,0,0.2,0,0.2,0.1
		c0.1,0.1,0.2,0.1,0.3,0.2c0.1,0.1,0.3,0.1,0.5,0.2s0.4,0.1,0.7,0.1c0.2,0,0.4,0,0.6-0.1c0.2-0.1,0.3-0.1,0.4-0.2
		c0.1-0.1,0.2-0.2,0.2-0.3c0.1-0.1,0.1-0.3,0.1-0.4c0-0.2,0-0.3-0.1-0.5c-0.1-0.1-0.2-0.2-0.4-0.3s-0.3-0.2-0.5-0.2
		c-0.2-0.1-0.4-0.1-0.6-0.2s-0.4-0.1-0.6-0.2c-0.2-0.1-0.4-0.2-0.5-0.3c-0.2-0.1-0.3-0.3-0.4-0.5s-0.1-0.4-0.1-0.7s0.1-0.5,0.2-0.7
		s0.3-0.4,0.5-0.6c0.2-0.2,0.4-0.3,0.7-0.4c0.3-0.1,0.6-0.2,1-0.2s0.8,0.1,1.2,0.2c0.3,0.1,0.6,0.3,0.9,0.6L251.7,152.1z"/>
	<path class="st8" d="M255.5,157.7c-0.5,0-0.9-0.1-1.2-0.4c-0.3-0.3-0.4-0.7-0.4-1.3v-4h-0.8c-0.1,0-0.1,0-0.2-0.1
		c0,0-0.1-0.1-0.1-0.2v-0.5l1.1-0.1l0.3-2c0-0.1,0-0.1,0.1-0.2s0.1-0.1,0.2-0.1h0.6v2.3h1.9v0.8h-1.9v4c0,0.3,0.1,0.5,0.2,0.6
		c0.1,0.1,0.3,0.2,0.5,0.2c0.1,0,0.2,0,0.3,0s0.2-0.1,0.2-0.1s0.1-0.1,0.2-0.1h0.1c0.1,0,0.1,0,0.2,0.1l0.3,0.6
		c-0.2,0.2-0.4,0.3-0.7,0.4S255.8,157.7,255.5,157.7z"/>
	<path class="st8" d="M262.3,157.6c-0.1,0-0.2,0-0.3-0.1c-0.1,0-0.1-0.1-0.1-0.2l-0.1-0.6c-0.2,0.2-0.3,0.3-0.5,0.4
		c-0.2,0.1-0.3,0.2-0.5,0.3s-0.4,0.2-0.6,0.2s-0.4,0.1-0.7,0.1c-0.3,0-0.5,0-0.7-0.1s-0.4-0.2-0.6-0.3s-0.3-0.3-0.4-0.5
		s-0.1-0.5-0.1-0.8s0.1-0.5,0.2-0.8c0.1-0.2,0.4-0.5,0.7-0.6s0.7-0.3,1.3-0.5s1.1-0.2,1.9-0.2v-0.5c0-0.5-0.1-0.9-0.3-1.2
		c-0.2-0.3-0.5-0.4-1-0.4c-0.3,0-0.5,0-0.7,0.1s-0.4,0.2-0.5,0.2c-0.1,0.1-0.3,0.2-0.4,0.2c-0.1,0.1-0.2,0.1-0.3,0.1
		c-0.1,0-0.1,0-0.2-0.1c-0.1,0-0.1-0.1-0.1-0.2l-0.2-0.4c0.4-0.4,0.8-0.6,1.2-0.8c0.4-0.2,0.9-0.3,1.4-0.3c0.4,0,0.7,0.1,1,0.2
		c0.3,0.1,0.5,0.3,0.7,0.5s0.3,0.5,0.4,0.8s0.1,0.6,0.1,1v4.2h-0.6V157.6z M259.9,156.9c0.2,0,0.4,0,0.6-0.1c0.2,0,0.3-0.1,0.5-0.2
		s0.3-0.2,0.4-0.3s0.3-0.2,0.4-0.4v-1.4c-0.5,0-1,0.1-1.4,0.1c-0.4,0.1-0.7,0.2-0.9,0.3c-0.2,0.1-0.4,0.2-0.5,0.4
		c-0.1,0.1-0.2,0.3-0.2,0.5s0,0.3,0.1,0.4c0.1,0.1,0.1,0.2,0.2,0.3s0.2,0.1,0.3,0.2C259.6,156.9,259.7,156.9,259.9,156.9z"/>
	<path class="st8" d="M264.6,157.6V151h0.7c0.1,0,0.2,0,0.3,0.1c0,0,0.1,0.1,0.1,0.2l0.1,1c0.2-0.5,0.5-0.8,0.8-1.1s0.7-0.4,1.1-0.4
		c0.1,0,0.3,0,0.4,0s0.2,0.1,0.3,0.1l-0.1,0.9c0,0.1-0.1,0.2-0.2,0.2s-0.1,0-0.3,0c-0.1,0-0.2,0-0.4,0c-0.2,0-0.4,0-0.6,0.1
		s-0.3,0.2-0.4,0.3s-0.2,0.3-0.3,0.4c-0.1,0.2-0.2,0.4-0.3,0.6v4.2H264.6z"/>
	<path class="st8" d="M271.4,157.7c-0.5,0-0.9-0.1-1.2-0.4c-0.3-0.3-0.4-0.7-0.4-1.3v-4H269c-0.1,0-0.1,0-0.2-0.1
		c0,0-0.1-0.1-0.1-0.2v-0.5l1.1-0.1l0.3-2c0-0.1,0-0.1,0.1-0.2s0.1-0.1,0.2-0.1h0.6v2.3h1.9v0.8H271v4c0,0.3,0.1,0.5,0.2,0.6
		s0.3,0.2,0.5,0.2c0.1,0,0.2,0,0.3,0c0.1,0,0.2-0.1,0.2-0.1s0.1-0.1,0.2-0.1h0.1c0.1,0,0.1,0,0.2,0.1l0.3,0.6
		c-0.2,0.2-0.4,0.3-0.7,0.4S271.7,157.7,271.4,157.7z"/>
	<path class="st8" d="M273.5,159c0-0.1,0-0.2,0.1-0.2c0.1-0.1,0.1-0.1,0.2-0.1h1.1v-10.3h-1.1c-0.1,0-0.2,0-0.2-0.1
		c-0.1-0.1-0.1-0.1-0.1-0.2v-0.5h2.4v11.8h-2.4V159z"/>
	<path class="st8" d="M280.4,151h0.9c0.1,0,0.2,0,0.2,0.1c0.1,0,0.1,0.1,0.1,0.2l1.3,4.2c0,0.2,0.1,0.3,0.1,0.4s0.1,0.3,0.1,0.4
		c0-0.1,0.1-0.3,0.1-0.4c0-0.1,0.1-0.3,0.1-0.4l1.4-4.3c0-0.1,0.1-0.1,0.1-0.2s0.1-0.1,0.2-0.1h0.5c0.1,0,0.2,0,0.2,0.1
		c0.1,0,0.1,0.1,0.1,0.2l1.4,4.3c0,0.2,0.1,0.3,0.1,0.4c0,0.1,0.1,0.3,0.1,0.4c0-0.1,0.1-0.3,0.1-0.4c0-0.1,0.1-0.3,0.1-0.5l1.3-4.2
		c0-0.1,0.1-0.1,0.1-0.2c0.1,0,0.1-0.1,0.2-0.1h0.9l-2.1,6.6h-0.9c-0.1,0-0.2-0.1-0.2-0.2l-1.5-4.5c0-0.1-0.1-0.2-0.1-0.3
		s0-0.2-0.1-0.3c0,0.1,0,0.2-0.1,0.3c0,0.1-0.1,0.2-0.1,0.3l-1.5,4.5c0,0.1-0.1,0.2-0.3,0.2h-0.9L280.4,151z"/>
	<path class="st8" d="M293.9,150.9c0.4,0,0.8,0.1,1.1,0.2c0.3,0.1,0.6,0.3,0.9,0.6c0.2,0.2,0.4,0.6,0.6,0.9c0.1,0.4,0.2,0.8,0.2,1.3
		c0,0.2,0,0.3-0.1,0.4s-0.1,0.1-0.2,0.1H292c0,0.4,0.1,0.8,0.2,1.1s0.2,0.6,0.4,0.8c0.2,0.2,0.4,0.4,0.6,0.5
		c0.3,0.1,0.5,0.2,0.8,0.2s0.5,0,0.8-0.1c0.2-0.1,0.4-0.1,0.5-0.2c0.2-0.1,0.3-0.2,0.4-0.2c0.1-0.1,0.2-0.1,0.3-0.1
		c0.1,0,0.2,0,0.2,0.1l0.3,0.4c-0.1,0.2-0.3,0.3-0.5,0.5s-0.4,0.2-0.6,0.3s-0.5,0.1-0.7,0.2s-0.5,0.1-0.7,0.1
		c-0.5,0-0.9-0.1-1.3-0.2c-0.4-0.2-0.7-0.4-1-0.7s-0.5-0.7-0.7-1.1c-0.2-0.4-0.2-0.9-0.2-1.5c0-0.5,0.1-0.9,0.2-1.3
		c0.1-0.4,0.3-0.7,0.6-1s0.6-0.5,1-0.7C293,151,293.4,150.9,293.9,150.9z M293.9,151.8c-0.6,0-1,0.2-1.3,0.5s-0.5,0.8-0.6,1.3h3.6
		c0-0.3,0-0.5-0.1-0.7s-0.2-0.4-0.3-0.6c-0.1-0.2-0.3-0.3-0.5-0.4S294.2,151.8,293.9,151.8z"/>
	<path class="st8" d="M298,157.6V148h1.2v3.9c0.3-0.3,0.6-0.6,0.9-0.8c0.4-0.2,0.8-0.3,1.2-0.3c0.4,0,0.7,0.1,1,0.2
		c0.3,0.1,0.6,0.4,0.8,0.6c0.2,0.3,0.4,0.6,0.5,1s0.2,0.8,0.2,1.3s-0.1,1-0.2,1.5c-0.1,0.4-0.3,0.8-0.6,1.1s-0.5,0.5-0.9,0.7
		s-0.7,0.3-1.2,0.3c-0.4,0-0.8-0.1-1.1-0.2s-0.6-0.4-0.8-0.7l-0.1,0.6c0,0.2-0.1,0.2-0.3,0.2H298V157.6z M301,151.8
		c-0.4,0-0.7,0.1-1,0.3s-0.5,0.4-0.8,0.7v3.2c0.2,0.3,0.4,0.5,0.7,0.6s0.5,0.2,0.8,0.2c0.6,0,1.1-0.2,1.4-0.7c0.3-0.4,0.5-1.1,0.5-2
		c0-0.8-0.1-1.4-0.4-1.8S301.5,151.8,301,151.8z"/>
	<path class="st8" d="M311.6,152.9c0,0.8-0.1,1.5-0.3,2.1s-0.4,1.1-0.7,1.5c-0.3,0.4-0.7,0.7-1.1,0.9s-0.9,0.3-1.3,0.3
		c-0.5,0-0.9-0.1-1.3-0.3s-0.8-0.5-1.1-0.9c-0.3-0.4-0.5-0.9-0.7-1.5s-0.3-1.3-0.3-2.1s0.1-1.5,0.3-2.1s0.4-1.1,0.7-1.5
		c0.3-0.4,0.7-0.7,1.1-0.9s0.9-0.3,1.3-0.3c0.5,0,0.9,0.1,1.3,0.3s0.8,0.5,1.1,0.9c0.3,0.4,0.5,0.9,0.7,1.5S311.6,152.1,311.6,152.9
		z M310.3,152.9c0-0.7-0.1-1.3-0.2-1.8s-0.3-0.9-0.5-1.2s-0.4-0.5-0.7-0.6c-0.3-0.1-0.5-0.2-0.8-0.2s-0.6,0.1-0.8,0.2
		c-0.3,0.1-0.5,0.3-0.7,0.6s-0.4,0.7-0.5,1.2s-0.2,1.1-0.2,1.8s0.1,1.3,0.2,1.8s0.3,0.9,0.5,1.2s0.4,0.5,0.7,0.6
		c0.3,0.1,0.5,0.2,0.8,0.2s0.6-0.1,0.8-0.2c0.3-0.1,0.5-0.3,0.7-0.6s0.4-0.7,0.5-1.2S310.3,153.6,310.3,152.9z"/>
	<path class="st8" d="M313.6,156.7h2v-6.3c0-0.2,0-0.4,0-0.6l-1.7,1.4c-0.1,0-0.1,0.1-0.2,0.1s-0.1,0-0.2,0s-0.1,0-0.1-0.1l-0.1-0.1
		l-0.4-0.5l2.8-2.4h0.9v8.4h1.8v0.9h-5v-0.8H313.6z"/>
</g>
<g>
	<path class="st10" d="M280.3,138.4v-7.2h2.3c0.4,0,0.8,0,1.1,0.1c0.3,0.1,0.6,0.2,0.8,0.4s0.4,0.4,0.5,0.6c0.1,0.2,0.1,0.5,0.1,0.8
		c0,0.2,0,0.3-0.1,0.5s-0.1,0.3-0.2,0.5c-0.1,0.1-0.2,0.3-0.4,0.4c-0.2,0.1-0.4,0.2-0.6,0.3c0.5,0.1,0.9,0.3,1.2,0.6
		c0.3,0.3,0.4,0.6,0.4,1.1c0,0.3-0.1,0.6-0.2,0.8s-0.3,0.5-0.5,0.6c-0.2,0.2-0.5,0.3-0.8,0.4c-0.3,0.1-0.7,0.1-1.1,0.1L280.3,138.4
		L280.3,138.4z M281.3,134.4h1.3c0.3,0,0.5,0,0.7-0.1s0.4-0.1,0.5-0.2c0.1-0.1,0.2-0.2,0.3-0.4s0.1-0.3,0.1-0.5
		c0-0.4-0.1-0.7-0.4-0.9s-0.6-0.3-1.2-0.3h-1.3V134.4z M281.3,135.1v2.5h1.6c0.3,0,0.5,0,0.7-0.1s0.4-0.2,0.5-0.3s0.2-0.3,0.3-0.4
		s0.1-0.3,0.1-0.5c0-0.4-0.1-0.7-0.4-0.9s-0.7-0.3-1.2-0.3H281.3z"/>
	<path class="st10" d="M293.5,134.8c0,0.5-0.1,1-0.3,1.5c-0.2,0.4-0.4,0.8-0.7,1.2c-0.3,0.3-0.7,0.6-1.1,0.8s-0.9,0.3-1.4,0.3
		s-1-0.1-1.4-0.3s-0.8-0.4-1.1-0.8c-0.3-0.3-0.5-0.7-0.7-1.2s-0.3-0.9-0.3-1.5s0.1-1,0.3-1.5s0.4-0.8,0.7-1.2
		c0.3-0.3,0.7-0.6,1.1-0.8s0.9-0.3,1.4-0.3s1,0.1,1.4,0.3s0.8,0.4,1.1,0.8c0.3,0.3,0.5,0.7,0.7,1.2
		C293.4,133.8,293.5,134.3,293.5,134.8z M292.5,134.8c0-0.4-0.1-0.8-0.2-1.2c-0.1-0.3-0.3-0.6-0.5-0.9c-0.2-0.2-0.5-0.4-0.8-0.6
		c-0.3-0.1-0.7-0.2-1-0.2c-0.4,0-0.7,0.1-1,0.2c-0.3,0.1-0.6,0.3-0.8,0.6s-0.4,0.5-0.5,0.9s-0.2,0.7-0.2,1.2s0.1,0.8,0.2,1.2
		c0.1,0.3,0.3,0.6,0.5,0.9s0.5,0.4,0.8,0.6c0.3,0.1,0.7,0.2,1,0.2c0.4,0,0.7-0.1,1-0.2c0.3-0.1,0.6-0.3,0.8-0.6
		c0.2-0.2,0.4-0.5,0.5-0.9C292.5,135.6,292.5,135.2,292.5,134.8z"/>
	<path class="st10" d="M299.5,131.2v0.8h-2.3v6.3h-1V132h-2.3v-0.8H299.5z"/>
</g>
<g>
	<path class="st11" d="M221,149h-17c-1.6,0-3-1.4-3-3v-17c0-1.7,1.4-3,3-3h17c1.6,0,3,1.3,3,3v17C224,147.6,222.6,149,221,149z"/>
	<polygon class="st12" points="219.7,133.2 205.3,133.2 208.9,130.3 216.1,130.3 	"/>
	<rect x="205.3" y="133.2" class="st13" width="14.4" height="2.9"/>
	<rect x="205.3" y="136.1" class="st14" width="14.4" height="2.9"/>
	<rect x="205.3" y="138.9" class="st15" width="14.4" height="2.9"/>
	<polygon class="st16" points="216.1,144.7 208.9,144.7 205.3,141.8 219.7,141.8 	"/>
	<g>
		<path class="st2" d="M212.8,130.3c3.8,0,6.9,3.1,6.9,6.9v0.6c0,3.8-3.1,6.9-6.9,6.9h-0.6c-3.8,0-6.9-3.1-6.9-6.9v-0.6
			c0-3.8,3.1-6.9,6.9-6.9H212.8 M212.8,128.3h-0.6c-4.9,0-8.9,4-8.9,8.9v0.6c0,4.9,4,8.9,8.9,8.9h0.6c4.9,0,8.9-4,8.9-8.9v-0.6
			C221.7,132.3,217.7,128.3,212.8,128.3L212.8,128.3z"/>
	</g>
</g>
<rect x="192.7" y="-51" class="st17" width="234" height="29"/>
<g>
	<rect x="192.6" y="-22.2" class="st18" width="234" height="0.5"/>
</g>
<g>
	<path d="M240.1-34.4l-0.5,2.8h-1c-0.1,0-0.2,0-0.3-0.1c-0.1,0-0.2-0.1-0.2-0.2c-0.1-0.1-0.1-0.2-0.1-0.3c0-0.1,0-0.2,0-0.3l0.3-1.9
		h-1.2l-0.3,2c0,0.1-0.1,0.3-0.1,0.3c-0.1,0.1-0.1,0.2-0.2,0.2s-0.2,0.1-0.3,0.1s-0.2,0-0.3,0h-1l0.5-2.8h-0.6
		c-0.2,0-0.4-0.1-0.5-0.2s-0.1-0.3-0.1-0.7l0.1-0.7h1.2l0.3-1.7h-1.4l0.2-0.9c0-0.2,0.1-0.4,0.3-0.5c0.1-0.1,0.4-0.2,0.7-0.2h0.5
		l0.4-2.1c0-0.2,0.1-0.4,0.3-0.5s0.4-0.2,0.6-0.2h1l-0.5,2.8h1.2l0.5-2.8h1c0.1,0,0.2,0,0.3,0.1c0.1,0,0.2,0.1,0.2,0.2
		s0.1,0.1,0.1,0.2s0,0.2,0,0.3l-0.4,2h1.4l-0.2,0.9c0,0.2-0.1,0.4-0.3,0.5c-0.1,0.1-0.4,0.2-0.7,0.2h-0.4l-0.3,1.7h0.8
		c0.2,0,0.4,0.1,0.5,0.2c0.1,0.1,0.1,0.3,0.1,0.7l-0.1,0.7h-1.5V-34.4z M237.4-35.9h1.2l0.3-1.7h-1.2L237.4-35.9z"/>
	<path d="M243-31.6v-10.5h2.2v3.9c0.3-0.2,0.5-0.4,0.9-0.5s0.7-0.2,1.1-0.2c0.4,0,0.7,0.1,1.1,0.2s0.6,0.3,0.8,0.6
		c0.2,0.2,0.4,0.5,0.5,0.9s0.2,0.7,0.2,1.1v4.6h-2.2v-4.6c0-0.4-0.1-0.6-0.2-0.8c-0.2-0.2-0.4-0.3-0.7-0.3c-0.2,0-0.5,0.1-0.7,0.2
		s-0.4,0.2-0.6,0.4v5.2H243V-31.6z"/>
	<path d="M253.6-31.5c-0.3,0-0.6,0-0.9-0.2c-0.3-0.1-0.5-0.2-0.7-0.4s-0.3-0.4-0.4-0.7c-0.1-0.3-0.1-0.6-0.1-0.9v-3.8h-0.6
		c-0.1,0-0.2,0-0.3-0.1s-0.1-0.2-0.1-0.3v-0.8l1.2-0.2l0.4-1.8c0.1-0.2,0.2-0.3,0.5-0.3h1.1v2.1h2.7l0.4-1.8
		c0.1-0.2,0.2-0.3,0.5-0.3h1.1v2.1h1.8v1.5h-1.8v3.6c0,0.2,0,0.3,0.1,0.4c0.1,0.1,0.2,0.2,0.4,0.2c0.1,0,0.1,0,0.2,0s0.1,0,0.1-0.1
		s0.1,0,0.1-0.1h0.1c0.1,0,0.1,0,0.2,0l0.1,0.1l0.7,1c-0.3,0.2-0.6,0.4-0.9,0.5s-0.7,0.2-1.1,0.2c-0.3,0-0.6,0-0.9-0.2
		c-0.3-0.1-0.5-0.2-0.7-0.4s-0.3-0.4-0.4-0.7s-0.1-0.6-0.1-0.9v-3.8h-2.6v3.6c0,0.2,0,0.3,0.1,0.4c0.1,0.1,0.2,0.2,0.4,0.2
		c0.1,0,0.1,0,0.2,0c0.1,0,0.1,0,0.1-0.1s0.1,0,0.1-0.1h0.1c0.1,0,0.1,0,0.2,0s0.1,0.1,0.1,0.1l0.7,1c-0.3,0.2-0.6,0.4-0.9,0.5
		S254-31.5,253.6-31.5z"/>
	<path d="M261.2-29.3v-9.6h1.3c0.3,0,0.4,0.1,0.5,0.4l0.2,0.5c0.1-0.2,0.3-0.3,0.5-0.4c0.2-0.1,0.3-0.2,0.5-0.3s0.4-0.2,0.6-0.2
		c0.2-0.1,0.4-0.1,0.7-0.1c0.4,0,0.7,0.1,1,0.3s0.6,0.4,0.8,0.7s0.4,0.7,0.5,1.2s0.2,1,0.2,1.6c0,0.5-0.1,1-0.2,1.5
		c-0.2,0.5-0.4,0.9-0.6,1.2c-0.3,0.3-0.6,0.6-1,0.8c-0.4,0.2-0.8,0.3-1.3,0.3c-0.4,0-0.7-0.1-1-0.2s-0.5-0.3-0.7-0.4v2.8L261.2-29.3
		L261.2-29.3z M264.7-37.4c-0.2,0-0.3,0-0.4,0s-0.2,0.1-0.4,0.1c-0.1,0.1-0.2,0.1-0.3,0.2s-0.2,0.2-0.3,0.3v3.1
		c0.2,0.2,0.3,0.3,0.5,0.4c0.2,0.1,0.4,0.1,0.6,0.1s0.4,0,0.6-0.1s0.3-0.2,0.4-0.4s0.2-0.4,0.3-0.7c0.1-0.3,0.1-0.6,0.1-1
		s0-0.7-0.1-1s-0.1-0.5-0.2-0.6s-0.2-0.3-0.4-0.3C265-37.3,264.9-37.4,264.7-37.4z"/>
	<path d="M274.6-30.9v1.4h-5.5v-1.4H274.6z"/>
	<path d="M280.6-37.3c-0.1,0.1-0.1,0.2-0.2,0.2s-0.1,0.1-0.2,0.1s-0.2,0-0.3-0.1c-0.1,0-0.2-0.1-0.3-0.1c-0.1-0.1-0.3-0.1-0.4-0.1
		s-0.3-0.1-0.5-0.1c-0.3,0-0.5,0.1-0.6,0.2c-0.1,0.1-0.2,0.3-0.2,0.4c0,0.1,0,0.2,0.1,0.3s0.2,0.2,0.4,0.2c0.2,0.1,0.3,0.1,0.5,0.2
		s0.4,0.1,0.6,0.2c0.2,0.1,0.4,0.2,0.6,0.3s0.4,0.2,0.5,0.4s0.3,0.3,0.4,0.5s0.1,0.5,0.1,0.8c0,0.4-0.1,0.7-0.2,1s-0.3,0.6-0.6,0.8
		c-0.3,0.2-0.6,0.4-1,0.5s-0.8,0.2-1.3,0.2c-0.2,0-0.5,0-0.7-0.1s-0.5-0.1-0.7-0.2s-0.4-0.2-0.6-0.3c-0.2-0.1-0.4-0.2-0.5-0.4
		l0.5-0.8c0.1-0.1,0.1-0.2,0.2-0.2c0.1-0.1,0.2-0.1,0.3-0.1c0.1,0,0.2,0,0.3,0.1c0.1,0.1,0.2,0.1,0.3,0.2c0.1,0.1,0.3,0.1,0.4,0.2
		c0.2,0.1,0.4,0.1,0.6,0.1s0.3,0,0.4-0.1c0.1,0,0.2-0.1,0.3-0.1s0.1-0.1,0.2-0.2s0-0.2,0-0.2c0-0.1,0-0.3-0.1-0.4
		c-0.1-0.1-0.2-0.2-0.4-0.2c-0.2-0.1-0.3-0.1-0.5-0.2c-0.2-0.1-0.4-0.1-0.6-0.2c-0.2-0.1-0.4-0.2-0.6-0.3s-0.4-0.2-0.5-0.4
		c-0.2-0.2-0.3-0.4-0.4-0.6c-0.1-0.2-0.1-0.5-0.1-0.8s0.1-0.6,0.2-0.9c0.1-0.3,0.3-0.5,0.5-0.7s0.5-0.4,0.9-0.5s0.8-0.2,1.3-0.2
		c0.3,0,0.5,0,0.8,0.1c0.2,0,0.5,0.1,0.7,0.2c0.2,0.1,0.4,0.2,0.6,0.3s0.3,0.2,0.5,0.4L280.6-37.3z"/>
	<path d="M285.5-39c0.5,0,0.9,0.1,1.3,0.2s0.7,0.4,1,0.7s0.5,0.6,0.7,1s0.2,0.9,0.2,1.4c0,0.2,0,0.3,0,0.4c0,0.1,0,0.2-0.1,0.2
		c0,0.1-0.1,0.1-0.2,0.1s-0.1,0-0.2,0H284c0.1,0.6,0.3,1,0.6,1.3c0.3,0.3,0.7,0.4,1.2,0.4c0.3,0,0.5,0,0.7-0.1s0.3-0.1,0.5-0.2
		c0.1-0.1,0.3-0.1,0.4-0.2c0.1-0.1,0.2-0.1,0.4-0.1c0.2,0,0.3,0.1,0.4,0.2l0.6,0.8c-0.2,0.3-0.5,0.5-0.7,0.6
		c-0.3,0.2-0.5,0.3-0.8,0.4s-0.5,0.2-0.8,0.2s-0.5,0.1-0.8,0.1c-0.5,0-1-0.1-1.4-0.2c-0.4-0.2-0.8-0.4-1.2-0.7
		c-0.3-0.3-0.6-0.7-0.8-1.2c-0.2-0.5-0.3-1.1-0.3-1.7c0-0.5,0.1-0.9,0.2-1.4c0.2-0.4,0.4-0.8,0.7-1.1c0.3-0.3,0.7-0.6,1.1-0.8
		S284.9-39,285.5-39z M285.5-37.5c-0.4,0-0.7,0.1-1,0.4c-0.2,0.2-0.4,0.6-0.5,1h2.7c0-0.2,0-0.3-0.1-0.5c0-0.2-0.1-0.3-0.2-0.4
		c-0.1-0.1-0.2-0.2-0.4-0.3C286-37.5,285.8-37.5,285.5-37.5z"/>
	<path d="M289.9-31.6v-7.3h1.3c0.1,0,0.2,0,0.3,0s0.1,0,0.2,0.1c0,0,0.1,0.1,0.1,0.2c0,0.1,0,0.1,0.1,0.2l0.1,0.6
		c0.2-0.4,0.5-0.7,0.8-0.9s0.6-0.3,1-0.3c0.3,0,0.6,0.1,0.8,0.2l-0.1,1.6c0,0.1-0.1,0.2-0.1,0.2c-0.1,0-0.1,0.1-0.2,0.1h-0.1
		c-0.1,0-0.1,0-0.2,0s-0.1,0-0.2,0s-0.1,0-0.2,0c-0.3,0-0.6,0.1-0.8,0.3c-0.2,0.2-0.3,0.4-0.5,0.7v4.4L289.9-31.6L289.9-31.6z"/>
	<path d="M299.3-31.6h-2l-2.8-7.3h1.8c0.2,0,0.3,0,0.4,0.1s0.2,0.2,0.2,0.3l1,3.3c0.1,0.3,0.2,0.5,0.2,0.8c0.1,0.3,0.1,0.5,0.2,0.8
		c0.1-0.3,0.1-0.5,0.2-0.8s0.2-0.5,0.2-0.8l1-3.3c0-0.1,0.1-0.2,0.2-0.3s0.2-0.1,0.4-0.1h1.7L299.3-31.6z"/>
	<path d="M305.4-40.9c0,0.2,0,0.3-0.1,0.5s-0.2,0.3-0.3,0.4c-0.1,0.1-0.3,0.2-0.4,0.3c-0.2,0.1-0.3,0.1-0.5,0.1s-0.3,0-0.5-0.1
		s-0.3-0.2-0.4-0.3s-0.2-0.2-0.3-0.4c-0.1-0.2-0.1-0.3-0.1-0.5s0-0.3,0.1-0.5s0.2-0.3,0.3-0.4s0.3-0.2,0.4-0.3
		c0.2-0.1,0.3-0.1,0.5-0.1s0.4,0,0.5,0.1c0.2,0.1,0.3,0.2,0.4,0.3s0.2,0.3,0.3,0.4C305.3-41.2,305.4-41.1,305.4-40.9z M305.2-38.9
		v7.3H303v-7.3H305.2z"/>
	<path d="M312.1-37.2c-0.1,0.1-0.1,0.1-0.2,0.2c-0.1,0-0.1,0.1-0.3,0.1c-0.1,0-0.2,0-0.3-0.1s-0.2-0.1-0.3-0.2s-0.2-0.1-0.4-0.2
		c-0.1-0.1-0.3-0.1-0.5-0.1c-0.3,0-0.5,0-0.7,0.1s-0.4,0.2-0.5,0.4s-0.2,0.4-0.3,0.7s-0.1,0.6-0.1,0.9c0,0.7,0.1,1.2,0.4,1.6
		c0.3,0.4,0.6,0.6,1.1,0.6c0.3,0,0.5,0,0.6-0.1s0.3-0.1,0.4-0.2c0.1-0.1,0.2-0.1,0.3-0.2c0.1-0.1,0.2-0.1,0.3-0.1
		c0.2,0,0.3,0.1,0.4,0.2l0.6,0.8c-0.2,0.3-0.5,0.5-0.7,0.6c-0.2,0.2-0.5,0.3-0.8,0.4s-0.5,0.2-0.8,0.2s-0.5,0.1-0.8,0.1
		c-0.4,0-0.9-0.1-1.3-0.3s-0.8-0.4-1.1-0.7c-0.3-0.3-0.5-0.7-0.7-1.2s-0.3-1-0.3-1.6c0-0.5,0.1-1,0.2-1.5c0.2-0.5,0.4-0.8,0.7-1.2
		s0.7-0.6,1.1-0.8s1-0.3,1.6-0.3s1.1,0.1,1.5,0.3s0.8,0.4,1.2,0.8L312.1-37.2z"/>
	<path d="M316.7-39c0.5,0,0.9,0.1,1.3,0.2c0.4,0.1,0.7,0.4,1,0.7s0.5,0.6,0.7,1s0.2,0.9,0.2,1.4c0,0.2,0,0.3,0,0.4
		c0,0.1,0,0.2-0.1,0.2c0,0.1-0.1,0.1-0.2,0.1s-0.1,0-0.2,0h-4.2c0.1,0.6,0.3,1,0.6,1.3s0.7,0.4,1.2,0.4c0.3,0,0.5,0,0.7-0.1
		s0.3-0.1,0.5-0.2c0.1-0.1,0.3-0.1,0.4-0.2c0.1-0.1,0.2-0.1,0.4-0.1c0.2,0,0.3,0.1,0.4,0.2l0.6,0.8c-0.2,0.3-0.5,0.5-0.7,0.6
		c-0.3,0.2-0.5,0.3-0.8,0.4s-0.5,0.2-0.8,0.2s-0.5,0.1-0.8,0.1c-0.5,0-1-0.1-1.4-0.2c-0.4-0.2-0.8-0.4-1.2-0.7
		c-0.3-0.3-0.6-0.7-0.8-1.2s-0.3-1.1-0.3-1.7c0-0.5,0.1-0.9,0.2-1.4c0.2-0.4,0.4-0.8,0.7-1.1s0.7-0.6,1.1-0.8S316.1-39,316.7-39z
		 M316.7-37.5c-0.4,0-0.7,0.1-1,0.4c-0.2,0.2-0.4,0.6-0.5,1h2.7c0-0.2,0-0.3-0.1-0.5c0-0.2-0.1-0.3-0.2-0.4
		c-0.1-0.1-0.2-0.2-0.4-0.3C317.2-37.5,317-37.5,316.7-37.5z"/>
</g>
<polygon class="st19" points="339,-38 335,-33.4 331,-38 "/>
<path class="st20" d="M391.7-33.8h-0.6l-0.2-0.2c0.7-0.8,1.2-1.9,1.2-3.1c0-2.7-2.2-4.8-4.8-4.8c-2.7,0-4.8,2.2-4.8,4.8
	c0,2.7,2.2,4.8,4.8,4.8c1.2,0,2.3-0.4,3.1-1.2l0.2,0.2v0.6l2.7,2.7l1.1-1.1L391.7-33.8z M387.2-33.8c-1.9,0-3.3-1.5-3.3-3.3
	c0-1.9,1.5-3.3,3.3-3.3s3.3,1.5,3.3,3.3C390.6-35.3,389.1-33.8,387.2-33.8z"/>
<path class="st20" d="M405.2-37.1c-0.7,0-1.2,0.5-1.2,1.2s0.5,1.2,1.2,1.2s1.2-0.5,1.2-1.2S405.9-37.1,405.2-37.1z M405.2-42
	c-0.7,0-1.2,0.5-1.2,1.2s0.5,1.2,1.2,1.2s1.2-0.5,1.2-1.2S405.9-42,405.2-42z M405.2-32.2c-0.6,0-1.1,0.5-1.1,1.1s0.5,1.1,1.1,1.1
	s1.1-0.5,1.1-1.1S405.8-32.2,405.2-32.2z M407.6-30.3H419v-1.6h-11.3v1.6H407.6z M407.6-35.1H419v-1.6h-11.3v1.6H407.6z M407.6-41.6
	v1.6H419v-1.6H407.6z"/>
<g>
	<g>
		<path class="st21" d="M214.6-44.4c-0.3-0.8-1.2-1.3-2-1s-1.3,1.2-1,2l4.1,12.8c0.3,0.8,1.1,1.2,2,1s1.4-1.1,1.1-2
			C218.7-31.7,214.6-44.4,214.6-44.4z"/>
		<path class="st22" d="M208.1-42.3c-0.3-0.8-1.2-1.3-2-1s-1.3,1.2-1,2l4.1,12.8c0.3,0.8,1.1,1.2,2,1s1.4-1.1,1.1-2
			C212.3-29.6,208.1-42.3,208.1-42.3z"/>
		<path class="st23" d="M219.8-33.9c0.8-0.3,1.3-1.2,1-2s-1.2-1.3-2-1L206-32.8c-0.8,0.3-1.2,1.1-1,2s1.1,1.4,2,1.1
			C207-29.7,219.8-33.9,219.8-33.9z"/>
		<path class="st24" d="M208.7-30.3c0.8-0.3,1.9-0.6,3-1c-0.3-0.8-0.6-1.9-1-3l-3,1L208.7-30.3z"/>
		<path class="st25" d="M215.1-32.3c1.2-0.4,2.2-0.7,3-1c-0.3-0.8-0.6-1.9-1-3l-3,1L215.1-32.3z"/>
		<path class="st26" d="M217.7-40.3c0.8-0.3,1.3-1.2,1-2s-1.2-1.3-2-1l-12.8,4.1c-0.8,0.3-1.2,1.1-1,2s1.1,1.4,2,1.1
			C205-36.1,217.7-40.3,217.7-40.3z"/>
		<path class="st27" d="M206.6-36.7c0.8-0.3,1.9-0.6,3-1c-0.4-1.2-0.7-2.2-1-3l-3,1L206.6-36.7z"/>
		<path class="st28" d="M213-38.8c1.2-0.4,2.2-0.7,3-1c-0.4-1.2-0.7-2.2-1-3l-3,1L213-38.8z"/>
	</g>
</g>
<g>
	<g>
		<polygon class="st3" points="427.5,161.5 426.5,161.5 426.5,-51 193.5,-51 193.5,161.5 192.5,161.5 192.5,-52 427.5,-52 		"/>
	</g>
</g>
<path class="st29" d="M212.5,93.1c2.2,0,4-1.8,4-4c0-2.2-1.8-4-4-4s-4,1.8-4,4C208.5,91.3,210.3,93.1,212.5,93.1z M212.5,95.1
	c-2.7,0-8,1.3-8,4v2h16v-2C220.5,96.4,215.2,95.1,212.5,95.1z"/>
</svg>
