<?xml version="1.0" encoding="utf-8"?>
<!-- Generator: Adobe Illustrator 19.1.0, SVG Export Plug-In . SVG Version: 6.00 Build 0)  -->
<svg version="1.1" id="Layer_1" xmlns="http://www.w3.org/2000/svg" xmlns:xlink="http://www.w3.org/1999/xlink" x="0px" y="0px"
	 viewBox="148 -138 320 300" style="enable-background:new 148 -138 320 300;" xml:space="preserve">
<style type="text/css">
	.st0{fill:none;}
	.st1{fill:#F5F5F5;}
	.st2{fill:#FFFFFF;}
	.st3{fill:#BDBDBD;}
	.st4{fill:#F7F7F7;}
	.st5{fill:#434343;}
	.st6{fill:#B1B1B1;}
	.st7{fill:#3D3C40;}
	.st8{fill:#F44336;}
	.st9{fill:#A3A3A3;}
	.st10{fill:#00579B;}
	.st11{fill:#E53A35;}
	.st12{fill:#F05323;}
	.st13{fill:#ED6D23;}
	.st14{fill:#F78C1F;}
	.st15{fill:#FCB316;}
	.st16{fill:none;stroke:#F44336;stroke-width:3;stroke-linecap:round;stroke-linejoin:round;stroke-miterlimit:10;}
	.st17{fill:#F4F5F6;}
	.st18{fill:#DDDDDE;}
	.st19{fill:#CED0D3;}
	.st20{fill:#5F5E63;}
	.st21{fill:#E8A723;}
	.st22{fill:#3EB890;}
	.st23{fill:#E01765;}
	.st24{fill:#472A49;}
	.st25{fill:#CC2027;}
	.st26{fill:#70CADB;}
	.st27{fill:#1A937D;}
	.st28{fill:#65863A;}
	.st29{fill:#E0E0E0;}
	.st30{fill:#607D8B;}
</style>
<rect x="169.2" y="-138" class="st0" width="277.8" height="300"/>
<rect x="169.2" y="-138" class="st0" width="277.8" height="300"/>
<g>
	<g>
		<path class="st1" d="M447-91.5c0-24.1-19.8-43.9-44-43.9h-1.5c0,0,0-0.6,0-1.3s-0.7-1.3-1.5-1.3h-42.5c-0.8,0-1.5,0.6-1.5,1.3
			s0,1.3,0,1.3H216.1c-24.2,0-44,19.8-44,44v36.6c0,0-0.8,0-1.5,0s-1.5,0.5-1.5,1.3v22.7c0,0.8,0.8,1.6,1.5,1.6s1.5,0,1.5,0V0.1
			c0,0-0.8,0-1.5,0s-1.5,0.5-1.5,1.3v17.2c0,0.8,0.8,1.6,1.5,1.6s1.5,0,1.5,0v27.9c0,0-0.8,0-1.5,0s-1.5,0.5-1.5,1.3v17.2
			c0,0.8,0.8,1.6,1.5,1.6s1.5,0,1.5,0V162H447V-91.5z"/>
	</g>
	<g>
		<rect x="192.7" y="-51" class="st2" width="234" height="213"/>
	</g>
	<path class="st3" d="M332.2-90.7h-44c-3,0-5.5,2.5-5.5,5.5s2.5,5.5,5.5,5.5h44c3,0,5.5-2.5,5.5-5.5
		C337.8-88.3,335.2-90.7,332.2-90.7z"/>
	<circle class="st3" cx="309.5" cy="-107.2" r="5.5"/>
	<g>
		<path class="st0" d="M403-133.4h-1.5c-1.1,0-2-0.9-2-2v-0.6H358v0.4c0,1.1-0.9,2-2,2h-140c-23.2,0-42,18.9-42,42V-55
			c0,1.1-0.9,2-2,2h-0.9v21.7h0.9c1.1,0,2,0.9,2,2V0c0,1.1-0.9,2-2,2h-0.9v16.2h0.9c1.1,0,2,0.9,2,2v27.9c0,1.1-0.9,2-2,2h-0.9v16.2
			h0.9c1.1,0,2,0.9,2,2V162H445V-91.4C445-114.6,426-133.4,403-133.4z"/>
		<path class="st3" d="M174.1,68.3c0-1.1-0.9-2-2-2h-0.9V50.1h0.9c1.1,0,2-0.9,2-2V20.2c0-1.1-0.9-2-2-2h-0.9V2h0.9c1.1,0,2-0.9,2-2
			v-29.3c0-1.1-0.9-2-2-2h-0.9V-53h0.9c1.1,0,2-0.9,2-2v-36.6c0-23.1,18.8-42,42-42h140c1.1,0,2-0.9,2-2v-0.4h41.4v0.6
			c0,1.1,0.9,2,2,2h1.5c23.1,0,42,18.8,42,42V162h2V-91.5c0-24.2-19.8-44-44-44h-1.5c0,0,0-0.6,0-1.3s-0.6-1.2-1.4-1.2h-42.5
			c-0.8,0-1.5,0.6-1.5,1.3s0,1.3,0,1.3h-140c-24.2,0-44,19.8-44,44v36.6c0,0-0.8,0-1.5,0s-1.5,0.5-1.5,1.3v22.7
			c0,0.8,0.8,1.6,1.5,1.6s1.5,0,1.5,0V0.1c0,0-0.8,0-1.5,0s-1.5,0.5-1.5,1.3v17.2c0,0.8,0.8,1.6,1.5,1.6s1.5,0,1.5,0v27.9
			c0,0-0.8,0-1.5,0s-1.5,0.5-1.5,1.3v17.2c0,0.8,0.8,1.6,1.5,1.6s1.5,0,1.5,0V162h2V68.3z"/>
	</g>
</g>
<rect x="278" y="-10" class="st4" width="25" height="11"/>
<g>
	<path class="st5" d="M236.1-6.9c0.5,0,1,0.1,1.5,0.3c0.4,0.2,0.8,0.4,1.1,0.7c0.3,0.3,0.6,0.7,0.7,1.2c0.2,0.5,0.3,1,0.3,1.5
		c0,0.6-0.1,1.1-0.3,1.6c-0.2,0.5-0.4,0.9-0.7,1.2s-0.7,0.6-1.1,0.7c-0.4,0.2-0.9,0.3-1.5,0.3c-0.5,0-1-0.1-1.5-0.3
		c-0.4-0.2-0.8-0.4-1.1-0.7s-0.6-0.7-0.7-1.2c-0.2-0.5-0.3-1-0.3-1.6c0-0.6,0.1-1.1,0.3-1.5c0.2-0.5,0.4-0.8,0.7-1.2
		c0.3-0.3,0.7-0.6,1.1-0.7C235-6.8,235.5-6.9,236.1-6.9z M236.1-0.9c0.6,0,1-0.2,1.2-0.6c0.3-0.4,0.4-0.9,0.4-1.7
		c0-0.7-0.1-1.3-0.4-1.7c-0.3-0.4-0.7-0.6-1.2-0.6c-0.6,0-1,0.2-1.2,0.6c-0.3,0.4-0.4,0.9-0.4,1.7c0,0.8,0.1,1.3,0.4,1.7
		S235.5-0.9,236.1-0.9z"/>
	<path class="st5" d="M240.9,2.8v-9.5h1.2c0.2,0,0.4,0.1,0.5,0.3l0.1,0.6c0.1-0.2,0.3-0.3,0.5-0.4c0.2-0.1,0.3-0.2,0.5-0.3
		c0.2-0.1,0.4-0.2,0.6-0.2c0.2-0.1,0.4-0.1,0.7-0.1c0.4,0,0.7,0.1,1.1,0.2c0.3,0.2,0.6,0.4,0.8,0.7c0.2,0.3,0.4,0.7,0.5,1.2
		s0.2,1,0.2,1.6c0,0.5-0.1,1-0.2,1.5c-0.1,0.5-0.4,0.9-0.6,1.2c-0.3,0.3-0.6,0.6-1,0.8c-0.4,0.2-0.8,0.3-1.3,0.3
		c-0.4,0-0.7-0.1-1-0.2c-0.3-0.1-0.5-0.3-0.7-0.5v2.9H240.9z M244.3-5.4c-0.3,0-0.6,0.1-0.9,0.2c-0.2,0.1-0.4,0.3-0.7,0.6v3.2
		c0.2,0.2,0.4,0.4,0.6,0.4s0.4,0.1,0.7,0.1c0.2,0,0.4,0,0.6-0.1c0.2-0.1,0.4-0.2,0.5-0.4c0.1-0.2,0.2-0.4,0.3-0.7s0.1-0.6,0.1-1.1
		c0-0.4,0-0.7-0.1-1c-0.1-0.3-0.2-0.5-0.3-0.7c-0.1-0.2-0.3-0.3-0.4-0.4C244.7-5.4,244.5-5.4,244.3-5.4z"/>
	<path class="st5" d="M253.4-5.3c-0.1,0.1-0.1,0.1-0.2,0.2s-0.1,0.1-0.2,0.1c-0.1,0-0.2,0-0.3-0.1c-0.1,0-0.2-0.1-0.3-0.2
		c-0.1-0.1-0.3-0.1-0.4-0.2c-0.2,0-0.3-0.1-0.5-0.1c-0.3,0-0.6,0.1-0.7,0.2c-0.2,0.1-0.3,0.3-0.3,0.5c0,0.1,0,0.3,0.1,0.4
		c0.1,0.1,0.2,0.2,0.4,0.3c0.2,0.1,0.3,0.1,0.5,0.2c0.2,0.1,0.4,0.1,0.6,0.2c0.2,0.1,0.4,0.2,0.6,0.3c0.2,0.1,0.4,0.2,0.5,0.4
		c0.2,0.1,0.3,0.3,0.4,0.5c0.1,0.2,0.1,0.5,0.1,0.8c0,0.4-0.1,0.7-0.2,1s-0.3,0.6-0.6,0.8c-0.2,0.2-0.6,0.4-0.9,0.5
		c-0.4,0.1-0.8,0.2-1.3,0.2c-0.2,0-0.5,0-0.7-0.1s-0.5-0.1-0.7-0.2s-0.4-0.2-0.6-0.3c-0.2-0.1-0.4-0.2-0.5-0.4l0.4-0.7
		c0.1-0.1,0.1-0.1,0.2-0.2c0.1,0,0.2-0.1,0.3-0.1c0.1,0,0.2,0,0.3,0.1c0.1,0.1,0.2,0.1,0.3,0.2c0.1,0.1,0.3,0.1,0.4,0.2
		c0.2,0.1,0.4,0.1,0.6,0.1c0.2,0,0.3,0,0.5-0.1c0.1,0,0.2-0.1,0.3-0.2s0.1-0.2,0.2-0.2c0-0.1,0.1-0.2,0.1-0.3c0-0.2-0.1-0.3-0.2-0.4
		c-0.1-0.1-0.2-0.2-0.4-0.3s-0.3-0.1-0.6-0.2c-0.2-0.1-0.4-0.1-0.6-0.2c-0.2-0.1-0.4-0.2-0.6-0.3s-0.4-0.2-0.6-0.4
		c-0.2-0.2-0.3-0.3-0.4-0.6c-0.1-0.2-0.2-0.5-0.2-0.8c0-0.3,0.1-0.6,0.2-0.9c0.1-0.3,0.3-0.5,0.5-0.7c0.2-0.2,0.5-0.4,0.9-0.5
		c0.3-0.1,0.8-0.2,1.2-0.2c0.5,0,1,0.1,1.4,0.3s0.8,0.4,1,0.7L253.4-5.3z"/>
	<path class="st5" d="M258.2-6.9c0.5,0,0.9,0.1,1.3,0.2s0.7,0.4,1,0.6c0.3,0.3,0.5,0.6,0.7,1c0.2,0.4,0.2,0.9,0.2,1.4
		c0,0.1,0,0.3,0,0.4c0,0.1,0,0.2-0.1,0.2c0,0.1-0.1,0.1-0.1,0.1c-0.1,0-0.1,0-0.2,0h-4.3c0.1,0.7,0.3,1.2,0.6,1.5
		c0.3,0.3,0.8,0.5,1.3,0.5c0.3,0,0.5,0,0.7-0.1s0.4-0.1,0.5-0.2c0.1-0.1,0.3-0.1,0.4-0.2c0.1-0.1,0.2-0.1,0.4-0.1
		c0.1,0,0.3,0.1,0.3,0.2l0.6,0.7c-0.2,0.2-0.4,0.4-0.7,0.6c-0.2,0.2-0.5,0.3-0.8,0.4c-0.3,0.1-0.5,0.2-0.8,0.2
		c-0.3,0-0.5,0.1-0.8,0.1c-0.5,0-1-0.1-1.4-0.2c-0.4-0.2-0.8-0.4-1.1-0.7s-0.6-0.7-0.8-1.2s-0.3-1-0.3-1.7c0-0.5,0.1-1,0.2-1.4
		c0.2-0.4,0.4-0.8,0.7-1.1c0.3-0.3,0.7-0.6,1.1-0.8S257.7-6.9,258.2-6.9z M258.2-5.5c-0.5,0-0.8,0.1-1.1,0.4
		c-0.3,0.3-0.4,0.6-0.5,1.1h3c0-0.2,0-0.4-0.1-0.6c-0.1-0.2-0.1-0.3-0.3-0.5c-0.1-0.1-0.3-0.3-0.4-0.3
		C258.7-5.5,258.5-5.5,258.2-5.5z"/>
	<path class="st5" d="M265.7-6.9c0.5,0,0.9,0.1,1.3,0.2s0.7,0.4,1,0.6c0.3,0.3,0.5,0.6,0.7,1c0.2,0.4,0.2,0.9,0.2,1.4
		c0,0.1,0,0.3,0,0.4c0,0.1,0,0.2-0.1,0.2c0,0.1-0.1,0.1-0.1,0.1c-0.1,0-0.1,0-0.2,0h-4.3c0.1,0.7,0.3,1.2,0.6,1.5
		c0.3,0.3,0.8,0.5,1.3,0.5c0.3,0,0.5,0,0.7-0.1s0.4-0.1,0.5-0.2c0.1-0.1,0.3-0.1,0.4-0.2c0.1-0.1,0.2-0.1,0.4-0.1
		c0.1,0,0.3,0.1,0.3,0.2l0.6,0.7c-0.2,0.2-0.4,0.4-0.7,0.6c-0.2,0.2-0.5,0.3-0.8,0.4c-0.3,0.1-0.5,0.2-0.8,0.2
		c-0.3,0-0.5,0.1-0.8,0.1c-0.5,0-1-0.1-1.4-0.2c-0.4-0.2-0.8-0.4-1.1-0.7s-0.6-0.7-0.8-1.2s-0.3-1-0.3-1.7c0-0.5,0.1-1,0.2-1.4
		c0.2-0.4,0.4-0.8,0.7-1.1c0.3-0.3,0.7-0.6,1.1-0.8S265.2-6.9,265.7-6.9z M265.7-5.5c-0.5,0-0.8,0.1-1.1,0.4
		c-0.3,0.3-0.4,0.6-0.5,1.1h3c0-0.2,0-0.4-0.1-0.6c-0.1-0.2-0.1-0.3-0.3-0.5c-0.1-0.1-0.3-0.3-0.4-0.3C266.2-5.5,266-5.5,265.7-5.5z
		"/>
</g>
<g>
	<path class="st6" d="M316.1,0.5c-0.5,0-1-0.1-1.4-0.2c-0.4-0.1-0.8-0.3-1.1-0.6c-0.3-0.3-0.5-0.6-0.7-0.9c-0.2-0.4-0.3-0.8-0.3-1.2
		c0-0.6,0.2-1.1,0.5-1.5c0.3-0.4,0.8-0.7,1.4-0.9c-0.5-0.2-0.9-0.5-1.1-0.9c-0.3-0.4-0.4-0.8-0.4-1.4c0-0.4,0.1-0.7,0.2-1.1
		s0.4-0.6,0.6-0.9s0.6-0.4,1-0.6s0.8-0.2,1.3-0.2c0.5,0,0.9,0.1,1.3,0.2c0.4,0.1,0.7,0.3,1,0.6c0.3,0.2,0.5,0.5,0.6,0.9
		s0.2,0.7,0.2,1.1c0,0.5-0.1,1-0.4,1.4c-0.3,0.4-0.6,0.7-1.1,0.9c0.6,0.2,1.1,0.5,1.4,0.9c0.3,0.4,0.5,0.9,0.5,1.5
		c0,0.4-0.1,0.8-0.3,1.2c-0.2,0.4-0.4,0.7-0.7,0.9c-0.3,0.3-0.7,0.4-1.1,0.6C317,0.4,316.6,0.5,316.1,0.5z M316.1-0.7
		c0.3,0,0.6,0,0.8-0.1c0.2-0.1,0.4-0.2,0.6-0.4c0.2-0.2,0.3-0.3,0.4-0.6s0.1-0.4,0.1-0.7c0-0.3,0-0.6-0.1-0.8s-0.2-0.4-0.4-0.6
		c-0.2-0.1-0.4-0.3-0.6-0.3c-0.2-0.1-0.5-0.1-0.8-0.1c-0.3,0-0.5,0-0.8,0.1c-0.2,0.1-0.4,0.2-0.6,0.3c-0.2,0.1-0.3,0.3-0.4,0.6
		s-0.1,0.5-0.1,0.8c0,0.3,0,0.5,0.1,0.7s0.2,0.4,0.4,0.6c0.2,0.2,0.4,0.3,0.6,0.4S315.8-0.7,316.1-0.7z M316.1-5.5
		c0.3,0,0.6,0,0.8-0.1s0.4-0.2,0.5-0.4c0.1-0.2,0.2-0.3,0.3-0.5c0.1-0.2,0.1-0.4,0.1-0.6s0-0.4-0.1-0.6c-0.1-0.2-0.2-0.4-0.3-0.5
		c-0.1-0.1-0.3-0.3-0.5-0.3s-0.4-0.1-0.7-0.1s-0.5,0-0.7,0.1c-0.2,0.1-0.4,0.2-0.5,0.3c-0.1,0.1-0.2,0.3-0.3,0.5s-0.1,0.4-0.1,0.6
		s0,0.4,0.1,0.6c0.1,0.2,0.2,0.4,0.3,0.5c0.1,0.2,0.3,0.3,0.5,0.4S315.8-5.5,316.1-5.5z"/>
	<path class="st6" d="M320.9-5.6c0-0.1,0-0.3,0.1-0.4s0.1-0.2,0.2-0.3c0.1-0.1,0.2-0.2,0.3-0.2c0.1-0.1,0.2-0.1,0.4-0.1
		s0.3,0,0.4,0.1c0.1,0.1,0.2,0.1,0.3,0.2c0.1,0.1,0.2,0.2,0.2,0.3c0.1,0.1,0.1,0.2,0.1,0.4c0,0.1,0,0.3-0.1,0.4
		c-0.1,0.1-0.1,0.2-0.2,0.3c-0.1,0.1-0.2,0.2-0.3,0.2c-0.1,0-0.2,0.1-0.4,0.1s-0.3,0-0.4-0.1c-0.1,0-0.2-0.1-0.3-0.2
		C321.1-5,321-5.1,321-5.2S320.9-5.5,320.9-5.6z M320.9-0.5c0-0.1,0-0.3,0.1-0.4s0.1-0.2,0.2-0.3c0.1-0.1,0.2-0.2,0.3-0.2
		c0.1-0.1,0.2-0.1,0.4-0.1s0.3,0,0.4,0.1c0.1,0.1,0.2,0.1,0.3,0.2c0.1,0.1,0.2,0.2,0.2,0.3c0.1,0.1,0.1,0.2,0.1,0.4
		c0,0.1,0,0.3-0.1,0.4c-0.1,0.1-0.1,0.2-0.2,0.3c-0.1,0.1-0.2,0.2-0.3,0.2c-0.1,0-0.2,0.1-0.4,0.1s-0.3,0-0.4-0.1
		c-0.1,0-0.2-0.1-0.3-0.2C321.1,0.1,321,0,321-0.1S320.9-0.4,320.9-0.5z"/>
	<path class="st6" d="M330.6-9.1c0,0.2-0.1,0.4-0.2,0.5c-0.1,0.1-0.4,0.2-0.7,0.2h-3L326.4-6c0.5-0.1,0.9-0.1,1.3-0.1
		c0.5,0,1,0.1,1.4,0.2s0.7,0.4,1,0.6s0.5,0.6,0.6,1s0.2,0.8,0.2,1.2c0,0.5-0.1,1-0.3,1.5c-0.2,0.4-0.4,0.8-0.8,1.1s-0.7,0.5-1.2,0.7
		c-0.5,0.2-0.9,0.3-1.5,0.3c-0.3,0-0.6,0-0.9-0.1c-0.3-0.1-0.5-0.1-0.8-0.2s-0.5-0.2-0.7-0.4s-0.4-0.3-0.6-0.4l0.5-0.6
		c0.1-0.1,0.2-0.2,0.4-0.2c0.1,0,0.2,0,0.3,0.1c0.1,0.1,0.3,0.2,0.4,0.2c0.2,0.1,0.4,0.2,0.6,0.2s0.5,0.1,0.8,0.1
		c0.3,0,0.6-0.1,0.9-0.2c0.3-0.1,0.5-0.3,0.7-0.5c0.2-0.2,0.3-0.4,0.4-0.7s0.1-0.6,0.1-0.9c0-0.3,0-0.6-0.1-0.8
		c-0.1-0.2-0.2-0.4-0.4-0.6c-0.2-0.2-0.4-0.3-0.6-0.4c-0.3-0.1-0.6-0.1-0.9-0.1c-0.2,0-0.5,0-0.8,0.1c-0.3,0-0.5,0.1-0.8,0.2
		l-0.9-0.3l0.8-4.8h4.9V-9.1z"/>
	<path class="st6" d="M336-9.8c0.4,0,0.9,0.1,1.2,0.2s0.7,0.3,0.9,0.5s0.5,0.5,0.6,0.8c0.1,0.3,0.2,0.7,0.2,1c0,0.6-0.1,1.1-0.4,1.5
		c-0.3,0.4-0.7,0.6-1.2,0.8c1.3,0.4,1.9,1.2,1.9,2.4c0,0.5-0.1,0.9-0.3,1.3c-0.2,0.4-0.4,0.7-0.7,1s-0.7,0.5-1.1,0.6
		c-0.4,0.1-0.9,0.2-1.3,0.2c-0.5,0-1-0.1-1.3-0.2c-0.4-0.1-0.7-0.3-1-0.5c-0.3-0.2-0.5-0.5-0.7-0.8s-0.3-0.7-0.5-1.1l0.7-0.3
		c0.2-0.1,0.3-0.1,0.5-0.1c0.2,0,0.3,0.1,0.3,0.3c0.1,0.1,0.2,0.3,0.3,0.5c0.1,0.2,0.2,0.3,0.4,0.5S334.8-1,335-1
		c0.2,0.1,0.5,0.1,0.8,0.1c0.3,0,0.6-0.1,0.8-0.2s0.4-0.2,0.6-0.4c0.2-0.2,0.3-0.4,0.4-0.6c0.1-0.2,0.1-0.4,0.1-0.6
		c0-0.3,0-0.5-0.1-0.7c-0.1-0.2-0.2-0.4-0.4-0.5c-0.2-0.1-0.4-0.3-0.7-0.4c-0.3-0.1-0.7-0.1-1.3-0.1v-1.1c0.4,0,0.8,0,1.1-0.1
		c0.3-0.1,0.5-0.2,0.7-0.3c0.2-0.1,0.3-0.3,0.4-0.5c0.1-0.2,0.1-0.4,0.1-0.7c0-0.3,0-0.5-0.1-0.7c-0.1-0.2-0.2-0.4-0.3-0.5
		c-0.1-0.1-0.3-0.2-0.5-0.3c-0.2-0.1-0.4-0.1-0.7-0.1c-0.2,0-0.4,0-0.6,0.1c-0.2,0.1-0.4,0.2-0.5,0.3c-0.2,0.1-0.3,0.3-0.4,0.4
		c-0.1,0.2-0.2,0.3-0.2,0.5c-0.1,0.2-0.2,0.3-0.3,0.4c-0.1,0.1-0.3,0.1-0.5,0l-0.8-0.1c0.1-0.5,0.2-0.9,0.4-1.3
		c0.2-0.4,0.4-0.7,0.7-0.9c0.3-0.2,0.6-0.4,1-0.5S335.6-9.8,336-9.8z"/>
	<path class="st6" d="M346.2-3.3v3.6h-1.6V-9.7h3.1c0.7,0,1.2,0.1,1.7,0.2c0.5,0.2,0.9,0.4,1.2,0.6c0.3,0.3,0.5,0.6,0.7,1
		s0.2,0.8,0.2,1.3c0,0.5-0.1,0.9-0.2,1.3c-0.2,0.4-0.4,0.7-0.7,1s-0.7,0.5-1.2,0.7c-0.5,0.2-1,0.2-1.7,0.2H346.2z M346.2-4.6h1.5
		c0.4,0,0.7,0,1-0.1s0.5-0.2,0.7-0.4c0.2-0.2,0.3-0.4,0.4-0.6c0.1-0.2,0.1-0.5,0.1-0.8c0-0.3,0-0.6-0.1-0.8
		c-0.1-0.2-0.2-0.4-0.4-0.6c-0.2-0.2-0.4-0.3-0.7-0.4c-0.3-0.1-0.6-0.1-1-0.1h-1.5V-4.6z"/>
	<path class="st6" d="M358.4-3.2c0.1,0.1,0.1,0.3,0.2,0.4c0.1-0.1,0.1-0.3,0.2-0.4s0.1-0.3,0.2-0.4l3.2-5.8c0.1-0.1,0.1-0.2,0.2-0.2
		c0.1,0,0.2,0,0.3,0h1.2V0.4h-1.4v-6.9c0-0.1,0-0.2,0-0.4c0-0.1,0-0.3,0-0.4l-3.2,6c-0.1,0.2-0.3,0.4-0.6,0.4h-0.2
		c-0.3,0-0.5-0.1-0.6-0.4l-3.3-6c0,0.1,0,0.3,0,0.4c0,0.1,0,0.3,0,0.4v6.9h-1.4V-9.7h1.2c0.1,0,0.3,0,0.3,0c0.1,0,0.2,0.1,0.2,0.2
		l3.2,5.9C358.2-3.5,358.3-3.3,358.4-3.2z"/>
</g>
<g>
	<path class="st7" d="M233.1,20.6v-12h2.5v0.6c0,0.1,0,0.2-0.1,0.3c-0.1,0.1-0.2,0.1-0.3,0.1h-1v10.1h1c0.1,0,0.2,0,0.3,0.1
		c0.1,0.1,0.1,0.2,0.1,0.3v0.6H233.1z"/>
	<path class="st7" d="M237,18.6v-5.5l-0.6-0.1c-0.1,0-0.2-0.1-0.3-0.1c-0.1-0.1-0.1-0.1-0.1-0.2v-0.6h1v-0.6c0-0.4,0.1-0.7,0.2-1
		c0.1-0.3,0.3-0.6,0.5-0.8c0.2-0.2,0.5-0.4,0.8-0.5c0.3-0.1,0.6-0.2,1-0.2c0.2,0,0.3,0,0.4,0c0.1,0,0.3,0.1,0.4,0.1l0,0.7
		c0,0.1-0.1,0.2-0.2,0.2c-0.1,0-0.2,0-0.4,0c-0.2,0-0.4,0-0.5,0.1c-0.2,0-0.3,0.1-0.4,0.2s-0.2,0.3-0.3,0.4s-0.1,0.4-0.1,0.7v0.5
		h1.8v1h-1.8v5.5H237z"/>
	<path class="st7" d="M245.5,18.6c-0.1,0-0.2,0-0.3-0.1c-0.1,0-0.1-0.1-0.2-0.2l-0.1-0.5c-0.2,0.2-0.3,0.3-0.5,0.4
		c-0.2,0.1-0.3,0.2-0.5,0.3c-0.2,0.1-0.4,0.1-0.6,0.2c-0.2,0-0.4,0.1-0.7,0.1c-0.3,0-0.5,0-0.8-0.1c-0.2-0.1-0.4-0.2-0.6-0.3
		c-0.2-0.2-0.3-0.3-0.4-0.6c-0.1-0.2-0.1-0.5-0.1-0.8c0-0.3,0.1-0.5,0.2-0.7c0.1-0.2,0.4-0.5,0.7-0.7c0.3-0.2,0.7-0.4,1.2-0.5
		c0.5-0.1,1.1-0.2,1.9-0.2v-0.4c0-0.5-0.1-0.8-0.3-1.1s-0.5-0.4-0.9-0.4c-0.3,0-0.5,0-0.7,0.1c-0.2,0.1-0.3,0.1-0.5,0.2
		s-0.3,0.2-0.4,0.2c-0.1,0.1-0.2,0.1-0.3,0.1c-0.1,0-0.2,0-0.2-0.1c-0.1,0-0.1-0.1-0.2-0.2l-0.3-0.5c0.7-0.7,1.6-1,2.7-1
		c0.4,0,0.7,0.1,1,0.2c0.3,0.1,0.5,0.3,0.7,0.5c0.2,0.2,0.4,0.5,0.5,0.8c0.1,0.3,0.2,0.7,0.2,1v4.2H245.5z M243,17.7
		c0.4,0,0.7-0.1,0.9-0.2c0.3-0.1,0.5-0.3,0.8-0.6v-1.2c-0.5,0-0.9,0.1-1.3,0.1s-0.6,0.1-0.8,0.2c-0.2,0.1-0.4,0.2-0.5,0.3
		c-0.1,0.1-0.1,0.3-0.1,0.4c0,0.2,0,0.3,0.1,0.4c0,0.1,0.1,0.2,0.2,0.3c0.1,0.1,0.2,0.1,0.3,0.2S242.9,17.7,243,17.7z"/>
	<path class="st7" d="M249.4,10c0,0.1,0,0.2-0.1,0.4s-0.1,0.2-0.2,0.3c-0.1,0.1-0.2,0.2-0.3,0.2c-0.1,0-0.2,0.1-0.4,0.1
		c-0.1,0-0.2,0-0.4-0.1s-0.2-0.1-0.3-0.2c-0.1-0.1-0.1-0.2-0.2-0.3c-0.1-0.1-0.1-0.2-0.1-0.4c0-0.1,0-0.3,0.1-0.4
		c0-0.1,0.1-0.2,0.2-0.3c0.1-0.1,0.2-0.2,0.3-0.2s0.2-0.1,0.4-0.1c0.1,0,0.3,0,0.4,0.1c0.1,0,0.2,0.1,0.3,0.2
		c0.1,0.1,0.2,0.2,0.2,0.3C249.4,9.7,249.4,9.9,249.4,10z M249.2,12v6.6h-1.4V12H249.2z"/>
	<path class="st7" d="M252.4,9v9.6H251V9H252.4z"/>
	<path class="st7" d="M255.4,12v4.2c0,0.4,0.1,0.8,0.3,1c0.2,0.2,0.5,0.4,0.9,0.4c0.3,0,0.6-0.1,0.9-0.2c0.3-0.1,0.5-0.3,0.8-0.6V12
		h1.4v6.6h-0.8c-0.2,0-0.3-0.1-0.4-0.3l-0.1-0.6c-0.3,0.3-0.6,0.5-0.9,0.7s-0.7,0.3-1.2,0.3c-0.4,0-0.7-0.1-1-0.2
		c-0.3-0.1-0.5-0.3-0.7-0.5c-0.2-0.2-0.3-0.5-0.4-0.8c-0.1-0.3-0.1-0.7-0.1-1V12H255.4z"/>
	<path class="st7" d="M261.4,18.6V12h0.8c0.1,0,0.2,0,0.3,0.1c0.1,0.1,0.1,0.1,0.1,0.3l0.1,0.9c0.2-0.4,0.5-0.8,0.8-1
		c0.3-0.2,0.6-0.4,1.1-0.4c0.1,0,0.3,0,0.4,0c0.1,0,0.2,0.1,0.3,0.1l-0.1,1.1c0,0.1,0,0.1-0.1,0.2c0,0-0.1,0-0.1,0
		c-0.1,0-0.2,0-0.3,0c-0.1,0-0.2,0-0.4,0c-0.2,0-0.4,0-0.5,0.1c-0.2,0.1-0.3,0.1-0.4,0.2c-0.1,0.1-0.2,0.2-0.3,0.4
		c-0.1,0.2-0.2,0.3-0.3,0.5v4.1H261.4z"/>
	<path class="st7" d="M268.7,11.9c0.4,0,0.8,0.1,1.1,0.2c0.3,0.1,0.6,0.3,0.9,0.6c0.3,0.3,0.4,0.6,0.6,0.9s0.2,0.8,0.2,1.3
		c0,0.2,0,0.4-0.1,0.4c0,0.1-0.1,0.1-0.3,0.1H267c0,0.4,0.1,0.7,0.2,1c0.1,0.3,0.2,0.5,0.4,0.7c0.2,0.2,0.4,0.3,0.6,0.4
		c0.2,0.1,0.5,0.1,0.8,0.1c0.3,0,0.5,0,0.7-0.1c0.2-0.1,0.4-0.1,0.5-0.2c0.1-0.1,0.3-0.1,0.4-0.2c0.1-0.1,0.2-0.1,0.3-0.1
		c0.1,0,0.2,0,0.3,0.1l0.4,0.5c-0.2,0.2-0.4,0.4-0.6,0.5s-0.4,0.2-0.7,0.3s-0.5,0.1-0.7,0.2s-0.5,0.1-0.7,0.1
		c-0.5,0-0.9-0.1-1.3-0.2c-0.4-0.2-0.7-0.4-1-0.7c-0.3-0.3-0.5-0.7-0.7-1.1s-0.2-1-0.2-1.5c0-0.5,0.1-0.9,0.2-1.3
		c0.1-0.4,0.4-0.7,0.6-1s0.6-0.5,1-0.7C267.8,12,268.2,11.9,268.7,11.9z M268.8,12.9c-0.5,0-0.9,0.1-1.2,0.4
		c-0.3,0.3-0.5,0.7-0.6,1.2h3.3c0-0.2,0-0.5-0.1-0.7c-0.1-0.2-0.2-0.4-0.3-0.5c-0.1-0.1-0.3-0.3-0.5-0.4
		C269.2,12.9,269,12.9,268.8,12.9z"/>
	<path class="st7" d="M272,20c0-0.1,0-0.2,0.1-0.3c0.1-0.1,0.2-0.1,0.3-0.1h1V9.5h-1c-0.1,0-0.2,0-0.3-0.1C272,9.3,272,9.3,272,9.2
		V8.6h2.5v12H272V20z"/>
	<path class="st7" d="M287.7,18.6h-1.5v-4.2h-4.7v4.2H280V9.3h1.5v4.1h4.7V9.3h1.5V18.6z"/>
	<path class="st7" d="M296.4,9.3v1.3h-2.9v8.1H292v-8.1H289V9.3H296.4z"/>
	<path class="st7" d="M304.1,9.3v1.3h-2.9v8.1h-1.5v-8.1h-2.9V9.3H304.1z"/>
	<path class="st7" d="M307,15.2v3.4h-1.5V9.3h2.9c0.6,0,1.1,0.1,1.6,0.2c0.4,0.1,0.8,0.3,1.1,0.6c0.3,0.3,0.5,0.6,0.7,0.9
		s0.2,0.8,0.2,1.2c0,0.4-0.1,0.9-0.2,1.2c-0.2,0.4-0.4,0.7-0.7,1c-0.3,0.3-0.7,0.5-1.1,0.6c-0.4,0.1-1,0.2-1.6,0.2H307z M307,14h1.4
		c0.3,0,0.6,0,0.9-0.1c0.3-0.1,0.5-0.2,0.6-0.4c0.2-0.2,0.3-0.3,0.4-0.6c0.1-0.2,0.1-0.5,0.1-0.8c0-0.3,0-0.5-0.1-0.7
		c-0.1-0.2-0.2-0.4-0.4-0.6c-0.2-0.2-0.4-0.3-0.6-0.3s-0.6-0.1-0.9-0.1H307V14z"/>
	<path class="st7" d="M321.1,10.9c0,0.1-0.1,0.1-0.1,0.2c-0.1,0-0.1,0.1-0.2,0.1c-0.1,0-0.2,0-0.3-0.1c-0.1-0.1-0.2-0.1-0.4-0.2
		c-0.1-0.1-0.3-0.2-0.5-0.2c-0.2-0.1-0.4-0.1-0.7-0.1c-0.3,0-0.5,0-0.7,0.1s-0.4,0.2-0.5,0.3c-0.1,0.1-0.2,0.3-0.3,0.4
		c-0.1,0.2-0.1,0.3-0.1,0.5c0,0.2,0.1,0.4,0.2,0.6c0.1,0.2,0.3,0.3,0.5,0.4c0.2,0.1,0.4,0.2,0.7,0.3c0.3,0.1,0.5,0.2,0.8,0.3
		c0.3,0.1,0.5,0.2,0.8,0.3c0.3,0.1,0.5,0.3,0.7,0.5c0.2,0.2,0.4,0.4,0.5,0.7c0.1,0.3,0.2,0.6,0.2,1c0,0.4-0.1,0.8-0.2,1.2
		c-0.1,0.4-0.3,0.7-0.6,1c-0.3,0.3-0.6,0.5-1,0.6s-0.8,0.2-1.4,0.2c-0.3,0-0.6,0-0.9-0.1c-0.3-0.1-0.6-0.1-0.8-0.2
		c-0.3-0.1-0.5-0.2-0.7-0.4c-0.2-0.2-0.4-0.3-0.6-0.5l0.4-0.7c0-0.1,0.1-0.1,0.1-0.1c0.1,0,0.1-0.1,0.2-0.1c0.1,0,0.2,0,0.3,0.1
		c0.1,0.1,0.3,0.2,0.4,0.3c0.2,0.1,0.4,0.2,0.6,0.3c0.2,0.1,0.5,0.1,0.9,0.1c0.6,0,1-0.1,1.3-0.4c0.3-0.3,0.5-0.6,0.5-1.1
		c0-0.3-0.1-0.5-0.2-0.6s-0.3-0.3-0.5-0.4c-0.2-0.1-0.4-0.2-0.7-0.3c-0.3-0.1-0.5-0.2-0.8-0.3c-0.3-0.1-0.5-0.2-0.8-0.3
		c-0.3-0.1-0.5-0.3-0.7-0.5c-0.2-0.2-0.4-0.4-0.5-0.7c-0.1-0.3-0.2-0.6-0.2-1.1c0-0.3,0.1-0.7,0.2-1c0.1-0.3,0.3-0.6,0.6-0.8
		c0.3-0.2,0.6-0.4,0.9-0.6c0.4-0.1,0.8-0.2,1.3-0.2c0.5,0,1,0.1,1.5,0.3c0.4,0.2,0.8,0.4,1.2,0.7L321.1,10.9z"/>
	<path class="st7" d="M325.9,11.9c0.4,0,0.8,0.1,1.1,0.2c0.3,0.1,0.6,0.3,0.9,0.6c0.3,0.3,0.4,0.6,0.6,0.9s0.2,0.8,0.2,1.3
		c0,0.2,0,0.4-0.1,0.4c0,0.1-0.1,0.1-0.3,0.1h-4.3c0,0.4,0.1,0.7,0.2,1c0.1,0.3,0.2,0.5,0.4,0.7c0.2,0.2,0.4,0.3,0.6,0.4
		c0.2,0.1,0.5,0.1,0.8,0.1c0.3,0,0.5,0,0.7-0.1c0.2-0.1,0.4-0.1,0.5-0.2c0.1-0.1,0.3-0.1,0.4-0.2c0.1-0.1,0.2-0.1,0.3-0.1
		c0.1,0,0.2,0,0.3,0.1l0.4,0.5c-0.2,0.2-0.4,0.4-0.6,0.5s-0.4,0.2-0.7,0.3s-0.5,0.1-0.7,0.2s-0.5,0.1-0.7,0.1
		c-0.5,0-0.9-0.1-1.3-0.2c-0.4-0.2-0.7-0.4-1-0.7s-0.5-0.7-0.7-1.1c-0.2-0.4-0.2-1-0.2-1.5c0-0.5,0.1-0.9,0.2-1.3
		c0.1-0.4,0.4-0.7,0.6-1c0.3-0.3,0.6-0.5,1-0.7C324.9,12,325.4,11.9,325.9,11.9z M325.9,12.9c-0.5,0-0.9,0.1-1.2,0.4
		c-0.3,0.3-0.5,0.7-0.6,1.2h3.3c0-0.2,0-0.5-0.1-0.7c-0.1-0.2-0.2-0.4-0.3-0.5s-0.3-0.3-0.5-0.4C326.4,12.9,326.1,12.9,325.9,12.9z"
		/>
	<path class="st7" d="M330,18.6V12h0.8c0.1,0,0.2,0,0.3,0.1c0.1,0.1,0.1,0.1,0.1,0.3l0.1,0.9c0.2-0.4,0.5-0.8,0.8-1
		c0.3-0.2,0.6-0.4,1.1-0.4c0.1,0,0.3,0,0.4,0c0.1,0,0.2,0.1,0.3,0.1l-0.1,1.1c0,0.1,0,0.1-0.1,0.2c0,0-0.1,0-0.1,0
		c-0.1,0-0.2,0-0.3,0c-0.1,0-0.2,0-0.4,0c-0.2,0-0.4,0-0.5,0.1c-0.2,0.1-0.3,0.1-0.4,0.2c-0.1,0.1-0.2,0.2-0.3,0.4
		c-0.1,0.2-0.2,0.3-0.3,0.5v4.1H330z"/>
	<path class="st7" d="M334,12h1.2c0.1,0,0.2,0,0.3,0.1s0.1,0.1,0.1,0.2l1.5,3.9c0.1,0.2,0.1,0.4,0.2,0.5c0,0.2,0.1,0.4,0.1,0.5
		c0-0.2,0.1-0.4,0.1-0.5s0.1-0.4,0.2-0.5l1.5-3.9c0-0.1,0.1-0.1,0.1-0.2c0.1-0.1,0.2-0.1,0.3-0.1h1.1l-2.7,6.6h-1.3L334,12z"/>
	<path class="st7" d="M343.3,10c0,0.1,0,0.2-0.1,0.4s-0.1,0.2-0.2,0.3c-0.1,0.1-0.2,0.2-0.3,0.2c-0.1,0-0.2,0.1-0.4,0.1
		c-0.1,0-0.2,0-0.4-0.1s-0.2-0.1-0.3-0.2c-0.1-0.1-0.1-0.2-0.2-0.3s-0.1-0.2-0.1-0.4c0-0.1,0-0.3,0.1-0.4c0-0.1,0.1-0.2,0.2-0.3
		c0.1-0.1,0.2-0.2,0.3-0.2s0.2-0.1,0.4-0.1c0.1,0,0.3,0,0.4,0.1c0.1,0,0.2,0.1,0.3,0.2c0.1,0.1,0.2,0.2,0.2,0.3
		C343.2,9.7,343.3,9.9,343.3,10z M343,12v6.6h-1.4V12H343z"/>
	<path class="st7" d="M349.5,13.3c0,0.1-0.1,0.1-0.1,0.1c0,0-0.1,0-0.2,0c-0.1,0-0.2,0-0.2-0.1s-0.2-0.1-0.3-0.2
		c-0.1-0.1-0.2-0.1-0.4-0.2c-0.2-0.1-0.4-0.1-0.6-0.1c-0.3,0-0.6,0.1-0.8,0.2c-0.2,0.1-0.4,0.3-0.6,0.5c-0.2,0.2-0.3,0.4-0.3,0.7
		c-0.1,0.3-0.1,0.6-0.1,1c0,0.4,0,0.7,0.1,1c0.1,0.3,0.2,0.5,0.4,0.7c0.2,0.2,0.3,0.4,0.6,0.5s0.5,0.2,0.7,0.2c0.3,0,0.5,0,0.7-0.1
		s0.3-0.1,0.4-0.2c0.1-0.1,0.2-0.1,0.3-0.2s0.2-0.1,0.3-0.1c0.1,0,0.2,0,0.3,0.1l0.4,0.5c-0.2,0.2-0.3,0.4-0.5,0.5s-0.4,0.2-0.6,0.3
		s-0.4,0.1-0.7,0.2c-0.2,0-0.5,0.1-0.7,0.1c-0.4,0-0.8-0.1-1.2-0.2c-0.4-0.2-0.7-0.4-0.9-0.7s-0.5-0.6-0.6-1.1
		c-0.2-0.4-0.2-0.9-0.2-1.4c0-0.5,0.1-0.9,0.2-1.4c0.1-0.4,0.3-0.8,0.6-1.1c0.3-0.3,0.6-0.5,1-0.7c0.4-0.2,0.8-0.3,1.4-0.3
		c0.5,0,0.9,0.1,1.3,0.2c0.4,0.2,0.7,0.4,1,0.7L349.5,13.3z"/>
	<path class="st7" d="M353.7,11.9c0.4,0,0.8,0.1,1.1,0.2c0.3,0.1,0.6,0.3,0.9,0.6c0.3,0.3,0.4,0.6,0.6,0.9s0.2,0.8,0.2,1.3
		c0,0.2,0,0.4-0.1,0.4c0,0.1-0.1,0.1-0.3,0.1h-4.3c0,0.4,0.1,0.7,0.2,1c0.1,0.3,0.2,0.5,0.4,0.7c0.2,0.2,0.4,0.3,0.6,0.4
		c0.2,0.1,0.5,0.1,0.8,0.1c0.3,0,0.5,0,0.7-0.1c0.2-0.1,0.4-0.1,0.5-0.2c0.1-0.1,0.3-0.1,0.4-0.2c0.1-0.1,0.2-0.1,0.3-0.1
		c0.1,0,0.2,0,0.3,0.1l0.4,0.5c-0.2,0.2-0.4,0.4-0.6,0.5s-0.4,0.2-0.7,0.3s-0.5,0.1-0.7,0.2s-0.5,0.1-0.7,0.1
		c-0.5,0-0.9-0.1-1.3-0.2c-0.4-0.2-0.7-0.4-1-0.7s-0.5-0.7-0.7-1.1c-0.2-0.4-0.2-1-0.2-1.5c0-0.5,0.1-0.9,0.2-1.3
		c0.1-0.4,0.4-0.7,0.6-1c0.3-0.3,0.6-0.5,1-0.7C352.8,12,353.2,11.9,353.7,11.9z M353.7,12.9c-0.5,0-0.9,0.1-1.2,0.4
		c-0.3,0.3-0.5,0.7-0.6,1.2h3.3c0-0.2,0-0.5-0.1-0.7c-0.1-0.2-0.2-0.4-0.3-0.5s-0.3-0.3-0.5-0.4C354.2,12.9,354,12.9,353.7,12.9z"/>
	<path class="st7" d="M357.6,17.7c0-0.1,0-0.2,0.1-0.3s0.1-0.2,0.2-0.3c0.1-0.1,0.2-0.1,0.3-0.2c0.1,0,0.2-0.1,0.3-0.1
		c0.1,0,0.3,0,0.4,0.1c0.1,0.1,0.2,0.1,0.3,0.2c0.1,0.1,0.1,0.2,0.2,0.3c0,0.1,0.1,0.3,0.1,0.4c0,0.2,0,0.4-0.1,0.6
		s-0.1,0.4-0.3,0.7s-0.3,0.4-0.4,0.6c-0.2,0.2-0.4,0.4-0.6,0.6l-0.2-0.2c0,0-0.1-0.1-0.1-0.1c0,0,0-0.1,0-0.1c0-0.1,0-0.1,0.1-0.2
		c0-0.1,0.1-0.1,0.2-0.2c0.1-0.1,0.1-0.2,0.2-0.3c0.1-0.1,0.1-0.2,0.2-0.3s0.1-0.2,0.1-0.4h0c-0.1,0-0.2,0-0.3-0.1
		c-0.1,0-0.2-0.1-0.3-0.2s-0.1-0.2-0.2-0.3S357.6,17.8,357.6,17.7z"/>
	<path class="st7" d="M364.1,20.8V12h0.8c0.2,0,0.3,0.1,0.4,0.3l0.1,0.7c0.1-0.2,0.3-0.3,0.4-0.4c0.2-0.1,0.3-0.2,0.5-0.3
		c0.2-0.1,0.4-0.2,0.6-0.2c0.2-0.1,0.4-0.1,0.7-0.1c0.4,0,0.7,0.1,1,0.2c0.3,0.1,0.6,0.4,0.8,0.7c0.2,0.3,0.4,0.6,0.5,1.1
		c0.1,0.4,0.2,0.9,0.2,1.5c0,0.5-0.1,0.9-0.2,1.4c-0.1,0.4-0.3,0.8-0.6,1.1c-0.2,0.3-0.5,0.6-0.9,0.7c-0.4,0.2-0.7,0.3-1.2,0.3
		c-0.4,0-0.7-0.1-1-0.2c-0.3-0.1-0.5-0.3-0.7-0.5v2.8H364.1z M367.1,13c-0.4,0-0.7,0.1-0.9,0.2c-0.3,0.2-0.5,0.4-0.7,0.7V17
		c0.2,0.3,0.4,0.4,0.6,0.5c0.2,0.1,0.5,0.2,0.8,0.2c0.5,0,1-0.2,1.3-0.6s0.5-1,0.5-1.8c0-0.4,0-0.8-0.1-1c-0.1-0.3-0.2-0.5-0.3-0.7
		c-0.1-0.2-0.3-0.3-0.5-0.4C367.5,13,367.3,13,367.1,13z"/>
	<path class="st7" d="M374.3,11.9c0.5,0,0.9,0.1,1.3,0.2c0.4,0.2,0.7,0.4,1,0.7c0.3,0.3,0.5,0.7,0.6,1.1c0.2,0.4,0.2,0.9,0.2,1.4
		c0,0.5-0.1,1-0.2,1.4c-0.2,0.4-0.4,0.8-0.6,1.1s-0.6,0.5-1,0.7s-0.8,0.2-1.3,0.2c-0.5,0-0.9-0.1-1.3-0.2s-0.7-0.4-1-0.7
		c-0.3-0.3-0.5-0.7-0.7-1.1c-0.2-0.4-0.2-0.9-0.2-1.4c0-0.5,0.1-1,0.2-1.4c0.2-0.4,0.4-0.8,0.7-1.1c0.3-0.3,0.6-0.5,1-0.7
		C373.3,12,373.8,11.9,374.3,11.9z M374.3,17.6c0.6,0,1-0.2,1.3-0.6c0.3-0.4,0.4-1,0.4-1.7c0-0.7-0.1-1.3-0.4-1.7
		c-0.3-0.4-0.7-0.6-1.3-0.6c-0.6,0-1.1,0.2-1.4,0.6c-0.3,0.4-0.4,1-0.4,1.7c0,0.7,0.1,1.3,0.4,1.7C373.2,17.4,373.7,17.6,374.3,17.6
		z"/>
	<path class="st7" d="M378.8,18.6V12h0.8c0.1,0,0.2,0,0.3,0.1c0.1,0.1,0.1,0.1,0.1,0.3l0.1,0.9c0.2-0.4,0.5-0.8,0.8-1
		c0.3-0.2,0.6-0.4,1.1-0.4c0.1,0,0.3,0,0.4,0c0.1,0,0.2,0.1,0.3,0.1l-0.1,1.1c0,0.1,0,0.1-0.1,0.2c0,0-0.1,0-0.1,0
		c-0.1,0-0.2,0-0.3,0c-0.1,0-0.2,0-0.4,0c-0.2,0-0.4,0-0.5,0.1c-0.2,0.1-0.3,0.1-0.4,0.2c-0.1,0.1-0.2,0.2-0.3,0.4
		c-0.1,0.2-0.2,0.3-0.3,0.5v4.1H378.8z"/>
	<path class="st7" d="M385.7,18.7c-0.5,0-1-0.2-1.3-0.5c-0.3-0.3-0.4-0.7-0.4-1.3v-3.9h-0.7c-0.1,0-0.1,0-0.2-0.1
		c-0.1,0-0.1-0.1-0.1-0.2v-0.6l1.1-0.2l0.3-1.9c0-0.1,0.1-0.1,0.1-0.2c0.1,0,0.1-0.1,0.2-0.1h0.7v2.2h1.8v1h-1.8v3.8
		c0,0.2,0.1,0.4,0.2,0.5c0.1,0.1,0.3,0.2,0.5,0.2c0.1,0,0.2,0,0.3,0c0.1,0,0.1-0.1,0.2-0.1c0.1,0,0.1-0.1,0.1-0.1c0,0,0.1,0,0.1,0
		c0.1,0,0.1,0,0.2,0.1l0.4,0.7c-0.2,0.2-0.5,0.3-0.8,0.4C386.4,18.7,386,18.7,385.7,18.7z"/>
	<path class="st7" d="M394.5,18.7c-0.5,0-0.9-0.1-1.3-0.2c-0.4-0.1-0.7-0.3-1-0.5c-0.3-0.2-0.5-0.5-0.7-0.9
		c-0.2-0.3-0.2-0.7-0.2-1.1c0-0.6,0.1-1.1,0.4-1.4c0.3-0.4,0.7-0.7,1.3-0.8c-0.5-0.2-0.8-0.5-1.1-0.8s-0.4-0.8-0.4-1.3
		c0-0.4,0.1-0.7,0.2-1s0.3-0.6,0.6-0.8c0.3-0.2,0.6-0.4,0.9-0.5c0.4-0.1,0.7-0.2,1.2-0.2c0.4,0,0.8,0.1,1.2,0.2
		c0.4,0.1,0.7,0.3,0.9,0.5c0.3,0.2,0.5,0.5,0.6,0.8c0.1,0.3,0.2,0.6,0.2,1c0,0.5-0.1,0.9-0.4,1.3s-0.6,0.6-1.1,0.8
		c0.6,0.2,1,0.5,1.3,0.8c0.3,0.4,0.4,0.9,0.4,1.4c0,0.4-0.1,0.8-0.2,1.1c-0.2,0.3-0.4,0.6-0.7,0.9c-0.3,0.2-0.6,0.4-1,0.5
		S395,18.7,394.5,18.7z M394.5,17.6c0.3,0,0.5,0,0.8-0.1c0.2-0.1,0.4-0.2,0.6-0.3c0.1-0.1,0.3-0.3,0.3-0.5s0.1-0.4,0.1-0.7
		c0-0.3,0-0.5-0.1-0.7s-0.2-0.4-0.4-0.5s-0.3-0.2-0.6-0.3s-0.5-0.1-0.7-0.1c-0.3,0-0.5,0-0.7,0.1c-0.2,0.1-0.4,0.2-0.6,0.3
		s-0.3,0.3-0.4,0.5s-0.1,0.5-0.1,0.7c0,0.2,0,0.5,0.1,0.7s0.2,0.4,0.3,0.5c0.1,0.1,0.3,0.3,0.6,0.3C394,17.6,394.2,17.6,394.5,17.6z
		 M394.5,13.2c0.3,0,0.5,0,0.7-0.1c0.2-0.1,0.4-0.2,0.5-0.3c0.1-0.1,0.2-0.3,0.3-0.5c0.1-0.2,0.1-0.4,0.1-0.6c0-0.2,0-0.4-0.1-0.6
		c-0.1-0.2-0.2-0.3-0.3-0.5s-0.3-0.2-0.5-0.3s-0.4-0.1-0.7-0.1c-0.3,0-0.5,0-0.7,0.1c-0.2,0.1-0.4,0.2-0.5,0.3
		c-0.1,0.1-0.2,0.3-0.3,0.5c-0.1,0.2-0.1,0.4-0.1,0.6c0,0.2,0,0.4,0.1,0.6c0.1,0.2,0.1,0.4,0.3,0.5c0.1,0.1,0.3,0.3,0.5,0.3
		C394,13.2,394.2,13.2,394.5,13.2z"/>
	<path class="st7" d="M405.5,13.9c0,0.8-0.1,1.5-0.3,2.1c-0.2,0.6-0.4,1.1-0.7,1.5c-0.3,0.4-0.7,0.7-1.1,0.9s-0.9,0.3-1.3,0.3
		c-0.5,0-0.9-0.1-1.3-0.3s-0.8-0.5-1.1-0.9c-0.3-0.4-0.5-0.9-0.7-1.5c-0.2-0.6-0.3-1.3-0.3-2.1c0-0.8,0.1-1.5,0.3-2.1
		c0.2-0.6,0.4-1.1,0.7-1.5c0.3-0.4,0.7-0.7,1.1-0.9s0.9-0.3,1.3-0.3c0.5,0,0.9,0.1,1.3,0.3s0.8,0.5,1.1,0.9c0.3,0.4,0.5,0.9,0.7,1.5
		C405.4,12.4,405.5,13.1,405.5,13.9z M404,13.9c0-0.7-0.1-1.3-0.2-1.7c-0.1-0.5-0.3-0.8-0.4-1.1c-0.2-0.3-0.4-0.5-0.6-0.6
		c-0.2-0.1-0.5-0.2-0.7-0.2c-0.3,0-0.5,0.1-0.7,0.2c-0.2,0.1-0.4,0.3-0.6,0.6c-0.2,0.3-0.3,0.6-0.4,1.1c-0.1,0.5-0.2,1-0.2,1.7
		c0,0.7,0.1,1.3,0.2,1.7c0.1,0.5,0.3,0.8,0.4,1.1c0.2,0.3,0.4,0.5,0.6,0.6s0.5,0.2,0.7,0.2c0.3,0,0.5-0.1,0.7-0.2s0.4-0.3,0.6-0.6
		c0.2-0.3,0.3-0.6,0.4-1.1C404,15.2,404,14.6,404,13.9z"/>
	<path class="st7" d="M409.8,14.1h3.3v1.2h-3.3V14.1z"/>
	<path class="st7" d="M233.6,33.6h1.9v-5.9c0-0.2,0-0.4,0-0.6l-1.5,1.3c-0.1,0.1-0.1,0.1-0.2,0.1c-0.1,0-0.1,0-0.2,0
		c-0.1,0-0.1,0-0.2-0.1c0,0-0.1-0.1-0.1-0.1l-0.4-0.6l2.8-2.4h1.1v8.3h1.8v1.1h-5.1V33.6z"/>
	<path class="st7" d="M245.3,26c0,0.1,0,0.2-0.1,0.4s-0.1,0.2-0.2,0.3c-0.1,0.1-0.2,0.2-0.3,0.2c-0.1,0-0.2,0.1-0.4,0.1
		c-0.1,0-0.2,0-0.4-0.1s-0.2-0.1-0.3-0.2c-0.1-0.1-0.1-0.2-0.2-0.3c-0.1-0.1-0.1-0.2-0.1-0.4c0-0.1,0-0.3,0.1-0.4
		c0-0.1,0.1-0.2,0.2-0.3c0.1-0.1,0.2-0.2,0.3-0.2s0.2-0.1,0.4-0.1c0.1,0,0.3,0,0.4,0.1c0.1,0,0.2,0.1,0.3,0.2
		c0.1,0.1,0.2,0.2,0.2,0.3S245.3,25.9,245.3,26z M245.1,28v6.6h-1.4V28H245.1z"/>
	<path class="st7" d="M246.8,34.6V28h0.8c0.2,0,0.3,0.1,0.4,0.3l0.1,0.6c0.1-0.1,0.3-0.3,0.4-0.4s0.3-0.2,0.5-0.3s0.4-0.2,0.6-0.2
		c0.2,0,0.4-0.1,0.6-0.1c0.4,0,0.7,0.1,1,0.2s0.5,0.3,0.7,0.5c0.2,0.2,0.3,0.5,0.4,0.8c0.1,0.3,0.1,0.7,0.1,1v4.2h-1.4v-4.2
		c0-0.4-0.1-0.8-0.3-1c-0.2-0.2-0.5-0.4-0.9-0.4c-0.3,0-0.6,0.1-0.9,0.2c-0.3,0.1-0.5,0.3-0.8,0.6v4.8H246.8z"/>
	<path class="st7" d="M258.1,29.2c0,0.1-0.1,0.1-0.1,0.1c0,0-0.1,0-0.2,0c-0.1,0-0.2,0-0.2-0.1c-0.1,0-0.2-0.1-0.3-0.2
		c-0.1-0.1-0.3-0.1-0.4-0.2c-0.2,0-0.3-0.1-0.6-0.1c-0.2,0-0.3,0-0.5,0.1c-0.1,0-0.3,0.1-0.4,0.2c-0.1,0.1-0.2,0.2-0.2,0.3
		c-0.1,0.1-0.1,0.2-0.1,0.3c0,0.2,0,0.3,0.1,0.4s0.2,0.2,0.4,0.3c0.2,0.1,0.3,0.1,0.5,0.2s0.4,0.1,0.6,0.2c0.2,0.1,0.4,0.2,0.6,0.2
		c0.2,0.1,0.4,0.2,0.5,0.3c0.2,0.1,0.3,0.3,0.4,0.5s0.1,0.4,0.1,0.7c0,0.3-0.1,0.6-0.2,0.9c-0.1,0.3-0.3,0.5-0.5,0.7
		c-0.2,0.2-0.5,0.3-0.8,0.5s-0.7,0.2-1.1,0.2c-0.2,0-0.5,0-0.7-0.1s-0.4-0.1-0.6-0.2c-0.2-0.1-0.4-0.2-0.5-0.3
		c-0.2-0.1-0.3-0.2-0.4-0.3l0.3-0.5c0-0.1,0.1-0.1,0.1-0.2c0.1,0,0.1-0.1,0.2-0.1c0.1,0,0.2,0,0.3,0.1s0.2,0.1,0.3,0.2
		s0.3,0.1,0.4,0.2c0.2,0.1,0.4,0.1,0.6,0.1c0.2,0,0.4,0,0.5-0.1c0.2,0,0.3-0.1,0.4-0.2s0.2-0.2,0.2-0.3c0-0.1,0.1-0.2,0.1-0.4
		c0-0.2,0-0.3-0.1-0.4c-0.1-0.1-0.2-0.2-0.4-0.3c-0.2-0.1-0.3-0.1-0.5-0.2c-0.2-0.1-0.4-0.1-0.6-0.2c-0.2-0.1-0.4-0.1-0.6-0.2
		c-0.2-0.1-0.4-0.2-0.5-0.3s-0.3-0.3-0.4-0.5c-0.1-0.2-0.1-0.4-0.1-0.7c0-0.3,0.1-0.5,0.2-0.8c0.1-0.2,0.3-0.4,0.5-0.6
		c0.2-0.2,0.5-0.3,0.8-0.4c0.3-0.1,0.6-0.2,1-0.2c0.4,0,0.9,0.1,1.2,0.2c0.4,0.1,0.7,0.3,0.9,0.6L258.1,29.2z"/>
	<path class="st7" d="M261.9,34.7c-0.6,0-1-0.2-1.3-0.5c-0.3-0.3-0.4-0.7-0.4-1.3v-3.9h-0.7c-0.1,0-0.1,0-0.2-0.1
		c-0.1,0-0.1-0.1-0.1-0.2v-0.6l1.1-0.2l0.3-1.9c0-0.1,0.1-0.1,0.1-0.2c0.1,0,0.1-0.1,0.2-0.1h0.7v2.2h1.8v1h-1.8v3.8
		c0,0.2,0.1,0.4,0.2,0.5c0.1,0.1,0.3,0.2,0.5,0.2c0.1,0,0.2,0,0.3,0c0.1,0,0.1-0.1,0.2-0.1c0.1,0,0.1-0.1,0.1-0.1s0.1,0,0.1,0
		c0.1,0,0.1,0,0.2,0.1l0.4,0.7c-0.2,0.2-0.5,0.3-0.8,0.4C262.6,34.7,262.3,34.7,261.9,34.7z"/>
	<path class="st7" d="M268.8,34.6c-0.1,0-0.2,0-0.3-0.1c-0.1,0-0.1-0.1-0.2-0.2l-0.1-0.5c-0.2,0.2-0.3,0.3-0.5,0.4
		c-0.2,0.1-0.3,0.2-0.5,0.3c-0.2,0.1-0.4,0.1-0.6,0.2c-0.2,0-0.4,0.1-0.7,0.1c-0.3,0-0.5,0-0.8-0.1c-0.2-0.1-0.4-0.2-0.6-0.3
		c-0.2-0.2-0.3-0.3-0.4-0.6c-0.1-0.2-0.1-0.5-0.1-0.8c0-0.3,0.1-0.5,0.2-0.7c0.1-0.2,0.4-0.5,0.7-0.7c0.3-0.2,0.7-0.4,1.2-0.5
		c0.5-0.1,1.1-0.2,1.9-0.2v-0.4c0-0.5-0.1-0.8-0.3-1.1s-0.5-0.4-0.9-0.4c-0.3,0-0.5,0-0.7,0.1c-0.2,0.1-0.3,0.1-0.5,0.2
		s-0.3,0.2-0.4,0.2c-0.1,0.1-0.2,0.1-0.3,0.1c-0.1,0-0.2,0-0.2-0.1c-0.1,0-0.1-0.1-0.2-0.2l-0.3-0.5c0.7-0.7,1.6-1,2.7-1
		c0.4,0,0.7,0.1,1,0.2s0.5,0.3,0.7,0.5c0.2,0.2,0.4,0.5,0.5,0.8c0.1,0.3,0.2,0.7,0.2,1v4.2H268.8z M266.4,33.7
		c0.4,0,0.7-0.1,0.9-0.2c0.3-0.1,0.5-0.3,0.8-0.6v-1.2c-0.5,0-0.9,0.1-1.3,0.1s-0.6,0.1-0.8,0.2c-0.2,0.1-0.4,0.2-0.5,0.3
		c-0.1,0.1-0.1,0.3-0.1,0.4c0,0.2,0,0.3,0.1,0.4c0,0.1,0.1,0.2,0.2,0.3c0.1,0.1,0.2,0.1,0.3,0.2S266.3,33.7,266.4,33.7z"/>
	<path class="st7" d="M271.1,34.6V28h0.8c0.2,0,0.3,0.1,0.4,0.3l0.1,0.6c0.1-0.1,0.3-0.3,0.4-0.4s0.3-0.2,0.5-0.3s0.4-0.2,0.6-0.2
		c0.2,0,0.4-0.1,0.6-0.1c0.4,0,0.7,0.1,1,0.2s0.5,0.3,0.7,0.5c0.2,0.2,0.3,0.5,0.4,0.8c0.1,0.3,0.1,0.7,0.1,1v4.2h-1.4v-4.2
		c0-0.4-0.1-0.8-0.3-1c-0.2-0.2-0.5-0.4-0.9-0.4c-0.3,0-0.6,0.1-0.9,0.2c-0.3,0.1-0.5,0.3-0.8,0.6v4.8H271.1z"/>
	<path class="st7" d="M283.1,29.3c0,0.1-0.1,0.1-0.1,0.1c0,0-0.1,0-0.2,0s-0.2,0-0.2-0.1s-0.2-0.1-0.3-0.2c-0.1-0.1-0.2-0.1-0.4-0.2
		c-0.2-0.1-0.4-0.1-0.6-0.1c-0.3,0-0.6,0.1-0.8,0.2c-0.2,0.1-0.4,0.3-0.6,0.5c-0.2,0.2-0.3,0.4-0.3,0.7c-0.1,0.3-0.1,0.6-0.1,1
		c0,0.4,0,0.7,0.1,1c0.1,0.3,0.2,0.5,0.4,0.7s0.3,0.4,0.6,0.5s0.5,0.2,0.7,0.2c0.3,0,0.5,0,0.7-0.1s0.3-0.1,0.4-0.2s0.2-0.1,0.3-0.2
		c0.1-0.1,0.2-0.1,0.3-0.1c0.1,0,0.2,0,0.3,0.1l0.4,0.5c-0.2,0.2-0.3,0.4-0.5,0.5c-0.2,0.1-0.4,0.2-0.6,0.3
		c-0.2,0.1-0.4,0.1-0.7,0.2s-0.5,0.1-0.7,0.1c-0.4,0-0.8-0.1-1.2-0.2c-0.4-0.2-0.7-0.4-0.9-0.7s-0.5-0.6-0.6-1.1
		c-0.2-0.4-0.2-0.9-0.2-1.4c0-0.5,0.1-0.9,0.2-1.4c0.1-0.4,0.3-0.8,0.6-1.1s0.6-0.5,1-0.7c0.4-0.2,0.8-0.3,1.4-0.3
		c0.5,0,0.9,0.1,1.3,0.2s0.7,0.4,1,0.7L283.1,29.3z"/>
	<path class="st7" d="M287.3,27.9c0.4,0,0.8,0.1,1.1,0.2c0.3,0.1,0.6,0.3,0.9,0.6c0.3,0.3,0.4,0.6,0.6,0.9s0.2,0.8,0.2,1.3
		c0,0.2,0,0.4-0.1,0.4c0,0.1-0.1,0.1-0.3,0.1h-4.3c0,0.4,0.1,0.7,0.2,1c0.1,0.3,0.2,0.5,0.4,0.7c0.2,0.2,0.4,0.3,0.6,0.4
		c0.2,0.1,0.5,0.1,0.8,0.1c0.3,0,0.5,0,0.7-0.1c0.2-0.1,0.4-0.1,0.5-0.2c0.1-0.1,0.3-0.1,0.4-0.2c0.1-0.1,0.2-0.1,0.3-0.1
		c0.1,0,0.2,0,0.3,0.1l0.4,0.5c-0.2,0.2-0.4,0.4-0.6,0.5s-0.4,0.2-0.7,0.3s-0.5,0.1-0.7,0.2s-0.5,0.1-0.7,0.1
		c-0.5,0-0.9-0.1-1.3-0.2c-0.4-0.2-0.7-0.4-1-0.7c-0.3-0.3-0.5-0.7-0.7-1.1s-0.2-1-0.2-1.5c0-0.5,0.1-0.9,0.2-1.3
		c0.1-0.4,0.4-0.7,0.6-1s0.6-0.5,1-0.7C286.4,28,286.8,27.9,287.3,27.9z M287.3,28.9c-0.5,0-0.9,0.1-1.2,0.4
		c-0.3,0.3-0.5,0.7-0.6,1.2h3.3c0-0.2,0-0.5-0.1-0.7c-0.1-0.2-0.2-0.4-0.3-0.5c-0.1-0.1-0.3-0.3-0.5-0.4
		C287.8,28.9,287.6,28.9,287.3,28.9z"/>
	<path class="st7" d="M296.3,26c0,0.1,0,0.2-0.1,0.4s-0.1,0.2-0.2,0.3c-0.1,0.1-0.2,0.2-0.3,0.2c-0.1,0-0.2,0.1-0.4,0.1
		c-0.1,0-0.2,0-0.4-0.1s-0.2-0.1-0.3-0.2c-0.1-0.1-0.1-0.2-0.2-0.3c-0.1-0.1-0.1-0.2-0.1-0.4c0-0.1,0-0.3,0.1-0.4
		c0-0.1,0.1-0.2,0.2-0.3c0.1-0.1,0.2-0.2,0.3-0.2s0.2-0.1,0.4-0.1c0.1,0,0.3,0,0.4,0.1c0.1,0,0.2,0.1,0.3,0.2
		c0.1,0.1,0.2,0.2,0.2,0.3S296.3,25.9,296.3,26z M296.1,28v6.6h-1.4V28H296.1z"/>
	<path class="st7" d="M297.9,34.6V28h0.8c0.2,0,0.3,0.1,0.4,0.3l0.1,0.6c0.1-0.1,0.3-0.3,0.4-0.4s0.3-0.2,0.5-0.3s0.4-0.2,0.6-0.2
		c0.2,0,0.4-0.1,0.6-0.1c0.4,0,0.7,0.1,1,0.2s0.5,0.3,0.7,0.5c0.2,0.2,0.3,0.5,0.4,0.8c0.1,0.3,0.1,0.7,0.1,1v4.2h-1.4v-4.2
		c0-0.4-0.1-0.8-0.3-1c-0.2-0.2-0.5-0.4-0.9-0.4c-0.3,0-0.6,0.1-0.9,0.2c-0.3,0.1-0.5,0.3-0.8,0.6v4.8H297.9z"/>
	<path class="st7" d="M310.5,34.7c-0.5,0-1-0.2-1.3-0.5c-0.3-0.3-0.4-0.7-0.4-1.3v-3.9h-0.7c-0.1,0-0.1,0-0.2-0.1
		c-0.1,0-0.1-0.1-0.1-0.2v-0.6l1.1-0.2l0.3-1.9c0-0.1,0.1-0.1,0.1-0.2s0.1-0.1,0.2-0.1h0.7v2.2h1.8v1h-1.8v3.8
		c0,0.2,0.1,0.4,0.2,0.5c0.1,0.1,0.3,0.2,0.5,0.2c0.1,0,0.2,0,0.3,0c0.1,0,0.1-0.1,0.2-0.1c0.1,0,0.1-0.1,0.1-0.1c0,0,0.1,0,0.1,0
		c0.1,0,0.1,0,0.2,0.1l0.4,0.7c-0.2,0.2-0.5,0.3-0.8,0.4C311.1,34.7,310.8,34.7,310.5,34.7z"/>
	<path class="st7" d="M313.2,34.6V25h1.4v3.8c0.3-0.3,0.6-0.5,0.9-0.6c0.3-0.2,0.7-0.2,1.1-0.2c0.4,0,0.7,0.1,1,0.2s0.5,0.3,0.7,0.5
		s0.3,0.5,0.4,0.8c0.1,0.3,0.1,0.7,0.1,1v4.2h-1.4v-4.2c0-0.4-0.1-0.8-0.3-1c-0.2-0.2-0.5-0.4-0.9-0.4c-0.3,0-0.6,0.1-0.9,0.2
		c-0.3,0.1-0.5,0.3-0.8,0.6v4.8H313.2z"/>
	<path class="st7" d="M323.2,27.9c0.4,0,0.8,0.1,1.1,0.2c0.3,0.1,0.6,0.3,0.9,0.6c0.3,0.3,0.4,0.6,0.6,0.9s0.2,0.8,0.2,1.3
		c0,0.2,0,0.4-0.1,0.4c0,0.1-0.1,0.1-0.3,0.1h-4.3c0,0.4,0.1,0.7,0.2,1c0.1,0.3,0.2,0.5,0.4,0.7c0.2,0.2,0.4,0.3,0.6,0.4
		c0.2,0.1,0.5,0.1,0.8,0.1c0.3,0,0.5,0,0.7-0.1c0.2-0.1,0.4-0.1,0.5-0.2c0.1-0.1,0.3-0.1,0.4-0.2c0.1-0.1,0.2-0.1,0.3-0.1
		c0.1,0,0.2,0,0.3,0.1l0.4,0.5c-0.2,0.2-0.4,0.4-0.6,0.5s-0.4,0.2-0.7,0.3s-0.5,0.1-0.7,0.2s-0.5,0.1-0.7,0.1
		c-0.5,0-0.9-0.1-1.3-0.2c-0.4-0.2-0.7-0.4-1-0.7s-0.5-0.7-0.7-1.1c-0.2-0.4-0.2-1-0.2-1.5c0-0.5,0.1-0.9,0.2-1.3
		c0.1-0.4,0.4-0.7,0.6-1c0.3-0.3,0.6-0.5,1-0.7C322.3,28,322.7,27.9,323.2,27.9z M323.2,28.9c-0.5,0-0.9,0.1-1.2,0.4
		c-0.3,0.3-0.5,0.7-0.6,1.2h3.3c0-0.2,0-0.5-0.1-0.7c-0.1-0.2-0.2-0.4-0.3-0.5s-0.3-0.3-0.5-0.4C323.7,28.9,323.5,28.9,323.2,28.9z"
		/>
	<path class="st7" d="M329.6,28h1.1c0.1,0,0.2,0,0.3,0.1s0.1,0.1,0.1,0.2l1.1,3.9c0,0.2,0.1,0.4,0.1,0.5c0,0.2,0.1,0.3,0.1,0.5
		c0-0.2,0.1-0.3,0.1-0.5c0-0.2,0.1-0.3,0.2-0.5l1.2-3.9c0-0.1,0.1-0.1,0.1-0.2c0.1,0,0.1-0.1,0.2-0.1h0.6c0.1,0,0.2,0,0.3,0.1
		c0.1,0,0.1,0.1,0.1,0.2l1.2,3.9c0,0.2,0.1,0.4,0.1,0.5c0,0.2,0.1,0.3,0.1,0.5c0.1-0.3,0.1-0.7,0.2-1l1.1-3.9c0-0.1,0.1-0.1,0.1-0.2
		c0.1-0.1,0.2-0.1,0.3-0.1h1.1l-2.1,6.6h-1.1c-0.1,0-0.2-0.1-0.3-0.3l-1.3-4.1c0-0.1-0.1-0.2-0.1-0.3c0-0.1-0.1-0.2-0.1-0.3
		c0,0.2-0.1,0.5-0.2,0.7l-1.3,4.1c0,0.2-0.1,0.3-0.3,0.3h-1.1L329.6,28z"/>
	<path class="st7" d="M343.3,27.9c0.4,0,0.8,0.1,1.1,0.2c0.3,0.1,0.6,0.3,0.9,0.6c0.3,0.3,0.4,0.6,0.6,0.9s0.2,0.8,0.2,1.3
		c0,0.2,0,0.4-0.1,0.4c0,0.1-0.1,0.1-0.3,0.1h-4.3c0,0.4,0.1,0.7,0.2,1c0.1,0.3,0.2,0.5,0.4,0.7c0.2,0.2,0.4,0.3,0.6,0.4
		c0.2,0.1,0.5,0.1,0.8,0.1c0.3,0,0.5,0,0.7-0.1c0.2-0.1,0.4-0.1,0.5-0.2c0.1-0.1,0.3-0.1,0.4-0.2c0.1-0.1,0.2-0.1,0.3-0.1
		c0.1,0,0.2,0,0.3,0.1l0.4,0.5c-0.2,0.2-0.4,0.4-0.6,0.5s-0.4,0.2-0.7,0.3s-0.5,0.1-0.7,0.2s-0.5,0.1-0.7,0.1
		c-0.5,0-0.9-0.1-1.3-0.2c-0.4-0.2-0.7-0.4-1-0.7s-0.5-0.7-0.7-1.1c-0.2-0.4-0.2-1-0.2-1.5c0-0.5,0.1-0.9,0.2-1.3
		c0.1-0.4,0.4-0.7,0.6-1c0.3-0.3,0.6-0.5,1-0.7C342.4,28,342.8,27.9,343.3,27.9z M343.3,28.9c-0.5,0-0.9,0.1-1.2,0.4
		c-0.3,0.3-0.5,0.7-0.6,1.2h3.3c0-0.2,0-0.5-0.1-0.7c-0.1-0.2-0.2-0.4-0.3-0.5s-0.3-0.3-0.5-0.4C343.8,28.9,343.6,28.9,343.3,28.9z"
		/>
	<path class="st7" d="M347.4,34.6V25h1.4v3.9c0.3-0.3,0.6-0.5,0.9-0.7c0.3-0.2,0.7-0.3,1.2-0.3c0.4,0,0.7,0.1,1,0.2
		c0.3,0.1,0.6,0.4,0.8,0.6c0.2,0.3,0.4,0.6,0.5,1c0.1,0.4,0.2,0.9,0.2,1.4c0,0.5-0.1,1-0.2,1.5c-0.1,0.4-0.3,0.8-0.6,1.1
		c-0.2,0.3-0.5,0.6-0.9,0.7c-0.4,0.2-0.7,0.3-1.2,0.3c-0.2,0-0.4,0-0.6-0.1c-0.2,0-0.3-0.1-0.5-0.2s-0.3-0.2-0.4-0.3
		c-0.1-0.1-0.2-0.2-0.4-0.4l-0.1,0.5c0,0.1-0.1,0.2-0.1,0.2c-0.1,0-0.1,0.1-0.2,0.1H347.4z M350.4,29c-0.3,0-0.6,0.1-0.9,0.2
		c-0.3,0.2-0.5,0.4-0.7,0.7V33c0.2,0.3,0.4,0.4,0.6,0.5c0.2,0.1,0.5,0.2,0.8,0.2c0.5,0,1-0.2,1.3-0.6s0.5-1,0.5-1.9
		c0-0.8-0.1-1.3-0.4-1.7S350.9,29,350.4,29z"/>
	<path class="st7" d="M360.4,27.9c0.3,0,0.6,0,0.8,0.1c0.2,0.1,0.5,0.2,0.7,0.3h1.9v0.5c0,0.2-0.1,0.3-0.3,0.3l-0.7,0.1
		c0.1,0.3,0.2,0.5,0.2,0.8c0,0.3-0.1,0.6-0.2,0.9c-0.1,0.3-0.3,0.5-0.5,0.7c-0.2,0.2-0.5,0.3-0.8,0.4c-0.3,0.1-0.7,0.1-1,0.1
		c-0.1,0-0.3,0-0.4,0c-0.1,0-0.3,0-0.4-0.1c-0.1,0.1-0.2,0.2-0.3,0.2c-0.1,0.1-0.1,0.2-0.1,0.3c0,0.1,0.1,0.2,0.2,0.3
		c0.1,0.1,0.3,0.1,0.5,0.1c0.2,0,0.4,0.1,0.7,0.1c0.3,0,0.5,0,0.8,0c0.3,0,0.5,0.1,0.8,0.1c0.3,0.1,0.5,0.1,0.7,0.2
		c0.2,0.1,0.4,0.3,0.5,0.5c0.1,0.2,0.2,0.4,0.2,0.8c0,0.3-0.1,0.6-0.2,0.8c-0.1,0.3-0.3,0.5-0.6,0.7c-0.3,0.2-0.6,0.4-1,0.5
		c-0.4,0.1-0.8,0.2-1.3,0.2c-0.5,0-0.9,0-1.3-0.1c-0.4-0.1-0.7-0.2-0.9-0.4c-0.2-0.2-0.4-0.3-0.5-0.6s-0.2-0.4-0.2-0.7
		c0-0.3,0.1-0.6,0.3-0.8c0.2-0.2,0.5-0.4,0.8-0.5c-0.2-0.1-0.3-0.2-0.4-0.4s-0.2-0.4-0.2-0.6c0-0.1,0-0.2,0.1-0.3
		c0-0.1,0.1-0.2,0.2-0.3s0.2-0.2,0.3-0.3c0.1-0.1,0.2-0.2,0.4-0.2c-0.3-0.2-0.6-0.4-0.8-0.7c-0.2-0.3-0.3-0.7-0.3-1.1
		c0-0.3,0.1-0.6,0.2-0.9c0.1-0.3,0.3-0.5,0.5-0.7c0.2-0.2,0.5-0.3,0.8-0.4C359.7,27.9,360,27.9,360.4,27.9z M362.3,34.9
		c0-0.1,0-0.3-0.1-0.3c-0.1-0.1-0.2-0.2-0.3-0.2c-0.1-0.1-0.3-0.1-0.5-0.1c-0.2,0-0.4,0-0.6-0.1c-0.2,0-0.4,0-0.7,0
		c-0.2,0-0.4,0-0.6-0.1c-0.2,0.1-0.4,0.2-0.5,0.4c-0.1,0.2-0.2,0.3-0.2,0.5c0,0.1,0,0.3,0.1,0.4c0.1,0.1,0.2,0.2,0.3,0.3
		c0.1,0.1,0.3,0.1,0.5,0.2c0.2,0,0.5,0.1,0.8,0.1c0.6,0,1.1-0.1,1.4-0.3C362.2,35.5,362.3,35.2,362.3,34.9z M360.4,31.2
		c0.4,0,0.8-0.1,1-0.3c0.2-0.2,0.3-0.5,0.3-0.9c0-0.4-0.1-0.7-0.3-0.9c-0.2-0.2-0.5-0.3-1-0.3c-0.4,0-0.8,0.1-1,0.3
		c-0.2,0.2-0.3,0.5-0.3,0.9c0,0.2,0,0.3,0.1,0.5c0.1,0.1,0.1,0.3,0.2,0.4c0.1,0.1,0.2,0.2,0.4,0.2C360,31.2,360.2,31.2,360.4,31.2z"
		/>
	<path class="st7" d="M364.8,34.6V28h0.8c0.1,0,0.2,0,0.3,0.1c0.1,0.1,0.1,0.1,0.1,0.3l0.1,0.9c0.2-0.4,0.5-0.8,0.8-1
		c0.3-0.2,0.6-0.4,1.1-0.4c0.1,0,0.3,0,0.4,0c0.1,0,0.2,0.1,0.3,0.1l-0.1,1.1c0,0.1,0,0.1-0.1,0.2c0,0-0.1,0-0.1,0
		c-0.1,0-0.2,0-0.3,0c-0.1,0-0.2,0-0.4,0c-0.2,0-0.4,0-0.5,0.1c-0.2,0.1-0.3,0.1-0.4,0.2c-0.1,0.1-0.2,0.2-0.3,0.4
		c-0.1,0.2-0.2,0.3-0.3,0.5v4.1H364.8z"/>
	<path class="st7" d="M372.3,27.9c0.5,0,0.9,0.1,1.3,0.2s0.7,0.4,1,0.7c0.3,0.3,0.5,0.7,0.6,1.1c0.2,0.4,0.2,0.9,0.2,1.4
		c0,0.5-0.1,1-0.2,1.4c-0.2,0.4-0.4,0.8-0.6,1.1s-0.6,0.5-1,0.7s-0.8,0.2-1.3,0.2c-0.5,0-0.9-0.1-1.3-0.2s-0.7-0.4-1-0.7
		c-0.3-0.3-0.5-0.7-0.7-1.1c-0.2-0.4-0.2-0.9-0.2-1.4c0-0.5,0.1-1,0.2-1.4c0.2-0.4,0.4-0.8,0.7-1.1c0.3-0.3,0.6-0.5,1-0.7
		S371.8,27.9,372.3,27.9z M372.3,33.6c0.6,0,1-0.2,1.3-0.6c0.3-0.4,0.4-1,0.4-1.7c0-0.7-0.1-1.3-0.4-1.7c-0.3-0.4-0.7-0.6-1.3-0.6
		c-0.6,0-1.1,0.2-1.4,0.6c-0.3,0.4-0.4,1-0.4,1.7c0,0.7,0.1,1.3,0.4,1.7C371.2,33.4,371.7,33.6,372.3,33.6z"/>
	<path class="st7" d="M378.2,28v4.2c0,0.4,0.1,0.8,0.3,1c0.2,0.2,0.5,0.4,0.9,0.4c0.3,0,0.6-0.1,0.9-0.2s0.5-0.3,0.8-0.6V28h1.4v6.6
		h-0.8c-0.2,0-0.3-0.1-0.4-0.3l-0.1-0.6c-0.3,0.3-0.6,0.5-0.9,0.7s-0.7,0.3-1.2,0.3c-0.4,0-0.7-0.1-1-0.2c-0.3-0.1-0.5-0.3-0.7-0.5
		c-0.2-0.2-0.3-0.5-0.4-0.8c-0.1-0.3-0.1-0.7-0.1-1V28H378.2z"/>
	<path class="st7" d="M384.1,36.8V28h0.8c0.2,0,0.3,0.1,0.4,0.3l0.1,0.7c0.1-0.2,0.3-0.3,0.4-0.4c0.2-0.1,0.3-0.2,0.5-0.3
		c0.2-0.1,0.4-0.2,0.6-0.2c0.2-0.1,0.4-0.1,0.7-0.1c0.4,0,0.7,0.1,1,0.2c0.3,0.1,0.6,0.4,0.8,0.7c0.2,0.3,0.4,0.6,0.5,1.1
		c0.1,0.4,0.2,0.9,0.2,1.5c0,0.5-0.1,0.9-0.2,1.4c-0.1,0.4-0.3,0.8-0.6,1.1c-0.2,0.3-0.5,0.6-0.9,0.7c-0.4,0.2-0.7,0.3-1.2,0.3
		c-0.4,0-0.7-0.1-1-0.2c-0.3-0.1-0.5-0.3-0.7-0.5v2.8H384.1z M387.2,29c-0.4,0-0.7,0.1-0.9,0.2c-0.3,0.2-0.5,0.4-0.7,0.7V33
		c0.2,0.3,0.4,0.4,0.6,0.5c0.2,0.1,0.5,0.2,0.8,0.2c0.5,0,1-0.2,1.3-0.6s0.5-1,0.5-1.8c0-0.4,0-0.8-0.1-1c-0.1-0.3-0.2-0.5-0.3-0.7
		c-0.1-0.2-0.3-0.3-0.5-0.4C387.6,29,387.4,29,387.2,29z"/>
</g>
<g>
	<path class="st8" d="M240.2,50h1.1c0.1,0,0.2,0,0.3,0.1c0.1,0.1,0.1,0.1,0.1,0.2l1.1,3.9c0,0.2,0.1,0.4,0.1,0.5
		c0,0.2,0.1,0.3,0.1,0.5c0-0.2,0.1-0.3,0.1-0.5c0-0.2,0.1-0.3,0.2-0.5l1.2-3.9c0-0.1,0.1-0.1,0.1-0.2c0.1,0,0.1-0.1,0.2-0.1h0.6
		c0.1,0,0.2,0,0.3,0.1s0.1,0.1,0.1,0.2l1.2,3.9c0,0.2,0.1,0.4,0.1,0.5c0,0.2,0.1,0.3,0.1,0.5c0.1-0.3,0.1-0.7,0.2-1l1.1-3.9
		c0-0.1,0.1-0.1,0.1-0.2c0.1-0.1,0.2-0.1,0.3-0.1h1.1l-2.1,6.6h-1.1c-0.1,0-0.2-0.1-0.3-0.3l-1.3-4.1c0-0.1-0.1-0.2-0.1-0.3
		c0-0.1-0.1-0.2-0.1-0.3c0,0.2-0.1,0.5-0.2,0.7l-1.3,4.1c0,0.2-0.1,0.3-0.3,0.3h-1.1L240.2,50z"/>
	<path class="st8" d="M253.9,49.9c0.4,0,0.8,0.1,1.1,0.2c0.3,0.1,0.6,0.3,0.9,0.6c0.3,0.3,0.4,0.6,0.6,0.9s0.2,0.8,0.2,1.3
		c0,0.2,0,0.4-0.1,0.4c0,0.1-0.1,0.1-0.3,0.1h-4.3c0,0.4,0.1,0.7,0.2,1c0.1,0.3,0.2,0.5,0.4,0.7c0.2,0.2,0.4,0.3,0.6,0.4
		c0.2,0.1,0.5,0.1,0.8,0.1c0.3,0,0.5,0,0.7-0.1c0.2-0.1,0.4-0.1,0.5-0.2c0.1-0.1,0.3-0.1,0.4-0.2c0.1-0.1,0.2-0.1,0.3-0.1
		c0.1,0,0.2,0,0.3,0.1l0.4,0.5c-0.2,0.2-0.4,0.4-0.6,0.5s-0.4,0.2-0.7,0.3s-0.5,0.1-0.7,0.2s-0.5,0.1-0.7,0.1
		c-0.5,0-0.9-0.1-1.3-0.2c-0.4-0.2-0.7-0.4-1-0.7c-0.3-0.3-0.5-0.7-0.7-1.1s-0.2-1-0.2-1.5c0-0.5,0.1-0.9,0.2-1.3
		c0.1-0.4,0.4-0.7,0.6-1s0.6-0.5,1-0.7C252.9,50,253.4,49.9,253.9,49.9z M253.9,50.9c-0.5,0-0.9,0.1-1.2,0.4
		c-0.3,0.3-0.5,0.7-0.6,1.2h3.3c0-0.2,0-0.5-0.1-0.7c-0.1-0.2-0.2-0.4-0.3-0.5c-0.1-0.1-0.3-0.3-0.5-0.4
		C254.4,50.9,254.1,50.9,253.9,50.9z"/>
	<path class="st8" d="M258,56.6V47h1.4v3.9c0.3-0.3,0.6-0.5,0.9-0.7s0.7-0.3,1.2-0.3c0.4,0,0.7,0.1,1,0.2c0.3,0.1,0.6,0.4,0.8,0.6
		c0.2,0.3,0.4,0.6,0.5,1c0.1,0.4,0.2,0.9,0.2,1.4c0,0.5-0.1,1-0.2,1.5s-0.3,0.8-0.6,1.1c-0.2,0.3-0.5,0.6-0.9,0.7
		c-0.4,0.2-0.7,0.3-1.2,0.3c-0.2,0-0.4,0-0.6-0.1s-0.3-0.1-0.5-0.2c-0.1-0.1-0.3-0.2-0.4-0.3c-0.1-0.1-0.2-0.2-0.4-0.4l-0.1,0.5
		c0,0.1-0.1,0.2-0.1,0.2c-0.1,0-0.1,0.1-0.2,0.1H258z M261,51c-0.3,0-0.6,0.1-0.9,0.2c-0.3,0.2-0.5,0.4-0.7,0.7V55
		c0.2,0.3,0.4,0.4,0.6,0.5s0.5,0.2,0.8,0.2c0.6,0,1-0.2,1.3-0.6s0.5-1,0.5-1.9c0-0.8-0.1-1.3-0.4-1.7S261.5,51,261,51z"/>
	<path class="st8" d="M271.6,51.9c0,0.8-0.1,1.5-0.3,2.1c-0.2,0.6-0.4,1.1-0.7,1.5c-0.3,0.4-0.7,0.7-1.1,0.9s-0.9,0.3-1.3,0.3
		s-0.9-0.1-1.3-0.3s-0.8-0.5-1.1-0.9c-0.3-0.4-0.5-0.9-0.7-1.5c-0.2-0.6-0.3-1.3-0.3-2.1c0-0.8,0.1-1.5,0.3-2.1
		c0.2-0.6,0.4-1.1,0.7-1.5c0.3-0.4,0.7-0.7,1.1-0.9s0.9-0.3,1.3-0.3s0.9,0.1,1.3,0.3s0.8,0.5,1.1,0.9c0.3,0.4,0.5,0.9,0.7,1.5
		C271.6,50.4,271.6,51.1,271.6,51.9z M270.2,51.9c0-0.7-0.1-1.3-0.2-1.7s-0.3-0.8-0.4-1.1c-0.2-0.3-0.4-0.5-0.6-0.6
		s-0.5-0.2-0.7-0.2c-0.3,0-0.5,0.1-0.7,0.2c-0.2,0.1-0.4,0.3-0.6,0.6s-0.3,0.6-0.4,1.1s-0.2,1-0.2,1.7c0,0.7,0.1,1.3,0.2,1.7
		c0.1,0.5,0.3,0.8,0.4,1.1s0.4,0.5,0.6,0.6c0.2,0.1,0.5,0.2,0.7,0.2c0.3,0,0.5-0.1,0.7-0.2s0.4-0.3,0.6-0.6c0.2-0.3,0.3-0.6,0.4-1.1
		C270.1,53.2,270.2,52.6,270.2,51.9z"/>
	<path class="st8" d="M273.6,55.6h1.9v-5.9c0-0.2,0-0.4,0-0.6l-1.5,1.3c-0.1,0.1-0.1,0.1-0.2,0.1c-0.1,0-0.1,0-0.2,0
		c-0.1,0-0.1,0-0.2-0.1c0,0-0.1-0.1-0.1-0.1l-0.4-0.6l2.8-2.4h1.1v8.3h1.8v1.1h-5.1V55.6z"/>
	<path class="st7" d="M280.3,51.1c0-0.1,0-0.2,0.1-0.4c0-0.1,0.1-0.2,0.2-0.3c0.1-0.1,0.2-0.1,0.3-0.2c0.1,0,0.2-0.1,0.4-0.1
		c0.1,0,0.2,0,0.4,0.1c0.1,0,0.2,0.1,0.3,0.2c0.1,0.1,0.1,0.2,0.2,0.3c0,0.1,0.1,0.2,0.1,0.4c0,0.1,0,0.2-0.1,0.4
		c0,0.1-0.1,0.2-0.2,0.3c-0.1,0.1-0.2,0.1-0.3,0.2c-0.1,0-0.2,0.1-0.4,0.1c-0.1,0-0.2,0-0.4-0.1c-0.1,0-0.2-0.1-0.3-0.2
		c-0.1-0.1-0.1-0.2-0.2-0.3C280.3,51.3,280.3,51.2,280.3,51.1z M280.3,55.8c0-0.1,0-0.2,0.1-0.4c0-0.1,0.1-0.2,0.2-0.3
		c0.1-0.1,0.2-0.1,0.3-0.2c0.1,0,0.2-0.1,0.4-0.1c0.1,0,0.2,0,0.4,0.1c0.1,0,0.2,0.1,0.3,0.2c0.1,0.1,0.1,0.2,0.2,0.3
		s0.1,0.2,0.1,0.4c0,0.1,0,0.2-0.1,0.4c0,0.1-0.1,0.2-0.2,0.3c-0.1,0.1-0.2,0.1-0.3,0.2c-0.1,0-0.2,0.1-0.4,0.1
		c-0.1,0-0.2,0-0.4-0.1c-0.1,0-0.2-0.1-0.3-0.2c-0.1-0.1-0.1-0.2-0.2-0.3C280.3,56.1,280.3,55.9,280.3,55.8z"/>
	<path class="st7" d="M286.9,56.6V50h0.8c0.1,0,0.2,0,0.3,0.1c0.1,0.1,0.1,0.1,0.1,0.3l0.1,0.9c0.2-0.4,0.5-0.8,0.8-1
		c0.3-0.2,0.6-0.4,1.1-0.4c0.1,0,0.3,0,0.4,0c0.1,0,0.2,0.1,0.3,0.1l-0.1,1.1c0,0.1,0,0.1-0.1,0.2c0,0-0.1,0-0.1,0
		c-0.1,0-0.2,0-0.3,0c-0.1,0-0.2,0-0.4,0c-0.2,0-0.4,0-0.5,0.1c-0.2,0.1-0.3,0.1-0.4,0.2c-0.1,0.1-0.2,0.2-0.3,0.4
		c-0.1,0.2-0.2,0.3-0.3,0.5v4.1H286.9z"/>
	<path class="st7" d="M294.3,49.9c0.4,0,0.8,0.1,1.1,0.2c0.3,0.1,0.6,0.3,0.9,0.6c0.3,0.3,0.4,0.6,0.6,0.9s0.2,0.8,0.2,1.3
		c0,0.2,0,0.4-0.1,0.4c0,0.1-0.1,0.1-0.3,0.1h-4.3c0,0.4,0.1,0.7,0.2,1c0.1,0.3,0.2,0.5,0.4,0.7c0.2,0.2,0.4,0.3,0.6,0.4
		c0.2,0.1,0.5,0.1,0.8,0.1c0.3,0,0.5,0,0.7-0.1c0.2-0.1,0.4-0.1,0.5-0.2c0.1-0.1,0.3-0.1,0.4-0.2c0.1-0.1,0.2-0.1,0.3-0.1
		c0.1,0,0.2,0,0.3,0.1l0.4,0.5c-0.2,0.2-0.4,0.4-0.6,0.5s-0.4,0.2-0.7,0.3s-0.5,0.1-0.7,0.2s-0.5,0.1-0.7,0.1
		c-0.5,0-0.9-0.1-1.3-0.2c-0.4-0.2-0.7-0.4-1-0.7c-0.3-0.3-0.5-0.7-0.7-1.1s-0.2-1-0.2-1.5c0-0.5,0.1-0.9,0.2-1.3
		c0.1-0.4,0.4-0.7,0.6-1s0.6-0.5,1-0.7C293.3,50,293.8,49.9,294.3,49.9z M294.3,50.9c-0.5,0-0.9,0.1-1.2,0.4
		c-0.3,0.3-0.5,0.7-0.6,1.2h3.3c0-0.2,0-0.5-0.1-0.7c-0.1-0.2-0.2-0.4-0.3-0.5c-0.1-0.1-0.3-0.3-0.5-0.4
		C294.8,50.9,294.6,50.9,294.3,50.9z"/>
	<path class="st7" d="M302.4,51.2c0,0.1-0.1,0.1-0.1,0.1c0,0-0.1,0-0.2,0c-0.1,0-0.2,0-0.2-0.1c-0.1,0-0.2-0.1-0.3-0.2
		c-0.1-0.1-0.3-0.1-0.4-0.2c-0.2,0-0.3-0.1-0.6-0.1c-0.2,0-0.3,0-0.5,0.1c-0.1,0-0.3,0.1-0.4,0.2c-0.1,0.1-0.2,0.2-0.2,0.3
		c-0.1,0.1-0.1,0.2-0.1,0.3c0,0.2,0,0.3,0.1,0.4s0.2,0.2,0.4,0.3c0.2,0.1,0.3,0.1,0.5,0.2s0.4,0.1,0.6,0.2c0.2,0.1,0.4,0.2,0.6,0.2
		c0.2,0.1,0.4,0.2,0.5,0.3c0.2,0.1,0.3,0.3,0.4,0.5s0.1,0.4,0.1,0.7c0,0.3-0.1,0.6-0.2,0.9c-0.1,0.3-0.3,0.5-0.5,0.7
		c-0.2,0.2-0.5,0.3-0.8,0.5s-0.7,0.2-1.1,0.2c-0.2,0-0.5,0-0.7-0.1s-0.4-0.1-0.6-0.2c-0.2-0.1-0.4-0.2-0.5-0.3
		c-0.2-0.1-0.3-0.2-0.4-0.3l0.3-0.5c0-0.1,0.1-0.1,0.1-0.2c0.1,0,0.1-0.1,0.2-0.1c0.1,0,0.2,0,0.3,0.1s0.2,0.1,0.3,0.2
		s0.3,0.1,0.4,0.2c0.2,0.1,0.4,0.1,0.6,0.1c0.2,0,0.4,0,0.5-0.1c0.2,0,0.3-0.1,0.4-0.2s0.2-0.2,0.2-0.3c0-0.1,0.1-0.2,0.1-0.4
		c0-0.2,0-0.3-0.1-0.4c-0.1-0.1-0.2-0.2-0.4-0.3c-0.2-0.1-0.3-0.1-0.5-0.2c-0.2-0.1-0.4-0.1-0.6-0.2c-0.2-0.1-0.4-0.1-0.6-0.2
		c-0.2-0.1-0.4-0.2-0.5-0.3s-0.3-0.3-0.4-0.5c-0.1-0.2-0.1-0.4-0.1-0.7c0-0.3,0.1-0.5,0.2-0.8c0.1-0.2,0.3-0.4,0.5-0.6
		c0.2-0.2,0.5-0.3,0.8-0.4c0.3-0.1,0.6-0.2,1-0.2c0.4,0,0.9,0.1,1.2,0.2c0.4,0.1,0.7,0.3,0.9,0.6L302.4,51.2z"/>
	<path class="st7" d="M304.1,58.8V50h0.8c0.2,0,0.3,0.1,0.4,0.3l0.1,0.7c0.1-0.2,0.3-0.3,0.4-0.4c0.2-0.1,0.3-0.2,0.5-0.3
		c0.2-0.1,0.4-0.2,0.6-0.2c0.2-0.1,0.4-0.1,0.7-0.1c0.4,0,0.7,0.1,1,0.2c0.3,0.1,0.6,0.4,0.8,0.7s0.4,0.6,0.5,1.1
		c0.1,0.4,0.2,0.9,0.2,1.5c0,0.5-0.1,0.9-0.2,1.4s-0.3,0.8-0.6,1.1c-0.2,0.3-0.5,0.6-0.9,0.7c-0.4,0.2-0.7,0.3-1.2,0.3
		c-0.4,0-0.7-0.1-1-0.2s-0.5-0.3-0.7-0.5v2.8H304.1z M307.1,51c-0.4,0-0.7,0.1-0.9,0.2c-0.3,0.2-0.5,0.4-0.7,0.7V55
		c0.2,0.3,0.4,0.4,0.6,0.5s0.5,0.2,0.8,0.2c0.5,0,1-0.2,1.3-0.6c0.3-0.4,0.5-1,0.5-1.8c0-0.4,0-0.8-0.1-1c-0.1-0.3-0.2-0.5-0.3-0.7
		c-0.1-0.2-0.3-0.3-0.5-0.4C307.6,51,307.3,51,307.1,51z"/>
	<path class="st7" d="M314.3,49.9c0.5,0,0.9,0.1,1.3,0.2s0.7,0.4,1,0.7c0.3,0.3,0.5,0.7,0.6,1.1c0.2,0.4,0.2,0.9,0.2,1.4
		c0,0.5-0.1,1-0.2,1.4c-0.2,0.4-0.4,0.8-0.6,1.1s-0.6,0.5-1,0.7s-0.8,0.2-1.3,0.2c-0.5,0-0.9-0.1-1.3-0.2s-0.7-0.4-1-0.7
		c-0.3-0.3-0.5-0.7-0.7-1.1c-0.2-0.4-0.2-0.9-0.2-1.4c0-0.5,0.1-1,0.2-1.4c0.2-0.4,0.4-0.8,0.7-1.1c0.3-0.3,0.6-0.5,1-0.7
		S313.8,49.9,314.3,49.9z M314.3,55.6c0.6,0,1-0.2,1.3-0.6s0.4-1,0.4-1.7c0-0.7-0.1-1.3-0.4-1.7c-0.3-0.4-0.7-0.6-1.3-0.6
		c-0.6,0-1.1,0.2-1.4,0.6c-0.3,0.4-0.4,1-0.4,1.7c0,0.7,0.1,1.3,0.4,1.7S313.7,55.6,314.3,55.6z"/>
	<path class="st7" d="M318.8,56.6V50h0.8c0.2,0,0.3,0.1,0.4,0.3l0.1,0.6c0.1-0.1,0.3-0.3,0.4-0.4c0.2-0.1,0.3-0.2,0.5-0.3
		c0.2-0.1,0.4-0.2,0.6-0.2c0.2,0,0.4-0.1,0.6-0.1c0.4,0,0.7,0.1,1,0.2s0.5,0.3,0.7,0.5s0.3,0.5,0.4,0.8c0.1,0.3,0.1,0.7,0.1,1v4.2
		h-1.4v-4.2c0-0.4-0.1-0.8-0.3-1c-0.2-0.2-0.5-0.4-0.9-0.4c-0.3,0-0.6,0.1-0.9,0.2c-0.3,0.1-0.5,0.3-0.8,0.6v4.8H318.8z"/>
	<path class="st7" d="M330.1,51.2c0,0.1-0.1,0.1-0.1,0.1c0,0-0.1,0-0.2,0c-0.1,0-0.2,0-0.2-0.1c-0.1,0-0.2-0.1-0.3-0.2
		S329,51,328.9,51c-0.2,0-0.3-0.1-0.6-0.1c-0.2,0-0.3,0-0.5,0.1s-0.3,0.1-0.4,0.2c-0.1,0.1-0.2,0.2-0.2,0.3s-0.1,0.2-0.1,0.3
		c0,0.2,0,0.3,0.1,0.4c0.1,0.1,0.2,0.2,0.4,0.3c0.2,0.1,0.3,0.1,0.5,0.2c0.2,0.1,0.4,0.1,0.6,0.2c0.2,0.1,0.4,0.2,0.6,0.2
		s0.4,0.2,0.5,0.3c0.2,0.1,0.3,0.3,0.4,0.5c0.1,0.2,0.1,0.4,0.1,0.7c0,0.3-0.1,0.6-0.2,0.9c-0.1,0.3-0.3,0.5-0.5,0.7
		c-0.2,0.2-0.5,0.3-0.8,0.5c-0.3,0.1-0.7,0.2-1.1,0.2c-0.2,0-0.5,0-0.7-0.1c-0.2,0-0.4-0.1-0.6-0.2c-0.2-0.1-0.4-0.2-0.5-0.3
		s-0.3-0.2-0.4-0.3l0.3-0.5c0-0.1,0.1-0.1,0.1-0.2c0.1,0,0.1-0.1,0.2-0.1c0.1,0,0.2,0,0.3,0.1s0.2,0.1,0.3,0.2s0.3,0.1,0.4,0.2
		c0.2,0.1,0.4,0.1,0.6,0.1c0.2,0,0.4,0,0.5-0.1c0.2,0,0.3-0.1,0.4-0.2s0.2-0.2,0.2-0.3c0-0.1,0.1-0.2,0.1-0.4c0-0.2,0-0.3-0.1-0.4
		c-0.1-0.1-0.2-0.2-0.4-0.3c-0.2-0.1-0.3-0.1-0.5-0.2c-0.2-0.1-0.4-0.1-0.6-0.2c-0.2-0.1-0.4-0.1-0.6-0.2c-0.2-0.1-0.4-0.2-0.5-0.3
		s-0.3-0.3-0.4-0.5c-0.1-0.2-0.1-0.4-0.1-0.7c0-0.3,0.1-0.5,0.2-0.8c0.1-0.2,0.3-0.4,0.5-0.6c0.2-0.2,0.5-0.3,0.8-0.4
		c0.3-0.1,0.6-0.2,1-0.2c0.4,0,0.9,0.1,1.2,0.2c0.4,0.1,0.7,0.3,0.9,0.6L330.1,51.2z"/>
	<path class="st7" d="M334.6,49.9c0.4,0,0.8,0.1,1.1,0.2c0.3,0.1,0.6,0.3,0.9,0.6c0.3,0.3,0.4,0.6,0.6,0.9s0.2,0.8,0.2,1.3
		c0,0.2,0,0.4-0.1,0.4c0,0.1-0.1,0.1-0.3,0.1h-4.3c0,0.4,0.1,0.7,0.2,1c0.1,0.3,0.2,0.5,0.4,0.7c0.2,0.2,0.4,0.3,0.6,0.4
		c0.2,0.1,0.5,0.1,0.8,0.1c0.3,0,0.5,0,0.7-0.1c0.2-0.1,0.4-0.1,0.5-0.2c0.1-0.1,0.3-0.1,0.4-0.2c0.1-0.1,0.2-0.1,0.3-0.1
		c0.1,0,0.2,0,0.3,0.1l0.4,0.5c-0.2,0.2-0.4,0.4-0.6,0.5s-0.4,0.2-0.7,0.3s-0.5,0.1-0.7,0.2s-0.5,0.1-0.7,0.1
		c-0.5,0-0.9-0.1-1.3-0.2c-0.4-0.2-0.7-0.4-1-0.7s-0.5-0.7-0.7-1.1c-0.2-0.4-0.2-1-0.2-1.5c0-0.5,0.1-0.9,0.2-1.3
		c0.1-0.4,0.4-0.7,0.6-1c0.3-0.3,0.6-0.5,1-0.7C333.7,50,334.1,49.9,334.6,49.9z M334.6,50.9c-0.5,0-0.9,0.1-1.2,0.4
		c-0.3,0.3-0.5,0.7-0.6,1.2h3.3c0-0.2,0-0.5-0.1-0.7c-0.1-0.2-0.2-0.4-0.3-0.5s-0.3-0.3-0.5-0.4C335.1,50.9,334.9,50.9,334.6,50.9z"
		/>
	<path class="st7" d="M346.6,51.3c0,0.1-0.1,0.1-0.1,0.1c0,0-0.1,0-0.2,0c-0.1,0-0.2,0-0.2-0.1s-0.2-0.1-0.3-0.2
		c-0.1-0.1-0.2-0.1-0.4-0.2c-0.2-0.1-0.4-0.1-0.6-0.1c-0.3,0-0.6,0.1-0.8,0.2c-0.2,0.1-0.4,0.3-0.6,0.5c-0.2,0.2-0.3,0.4-0.3,0.7
		c-0.1,0.3-0.1,0.6-0.1,1c0,0.4,0,0.7,0.1,1c0.1,0.3,0.2,0.5,0.4,0.7c0.2,0.2,0.3,0.4,0.6,0.5s0.5,0.2,0.7,0.2c0.3,0,0.5,0,0.7-0.1
		s0.3-0.1,0.4-0.2c0.1-0.1,0.2-0.1,0.3-0.2s0.2-0.1,0.3-0.1c0.1,0,0.2,0,0.3,0.1l0.4,0.5c-0.2,0.2-0.3,0.4-0.5,0.5s-0.4,0.2-0.6,0.3
		s-0.4,0.1-0.7,0.2c-0.2,0-0.5,0.1-0.7,0.1c-0.4,0-0.8-0.1-1.2-0.2c-0.4-0.2-0.7-0.4-0.9-0.7s-0.5-0.6-0.6-1.1
		c-0.2-0.4-0.2-0.9-0.2-1.4c0-0.5,0.1-0.9,0.2-1.4c0.1-0.4,0.3-0.8,0.6-1.1c0.3-0.3,0.6-0.5,1-0.7c0.4-0.2,0.8-0.3,1.4-0.3
		c0.5,0,0.9,0.1,1.3,0.2c0.4,0.2,0.7,0.4,1,0.7L346.6,51.3z"/>
	<path class="st7" d="M350.9,49.9c0.5,0,0.9,0.1,1.3,0.2s0.7,0.4,1,0.7c0.3,0.3,0.5,0.7,0.6,1.1c0.2,0.4,0.2,0.9,0.2,1.4
		c0,0.5-0.1,1-0.2,1.4c-0.2,0.4-0.4,0.8-0.6,1.1s-0.6,0.5-1,0.7s-0.8,0.2-1.3,0.2c-0.5,0-0.9-0.1-1.3-0.2s-0.7-0.4-1-0.7
		c-0.3-0.3-0.5-0.7-0.7-1.1c-0.2-0.4-0.2-0.9-0.2-1.4c0-0.5,0.1-1,0.2-1.4c0.2-0.4,0.4-0.8,0.7-1.1c0.3-0.3,0.6-0.5,1-0.7
		S350.4,49.9,350.9,49.9z M350.9,55.6c0.6,0,1-0.2,1.3-0.6c0.3-0.4,0.4-1,0.4-1.7c0-0.7-0.1-1.3-0.4-1.7c-0.3-0.4-0.7-0.6-1.3-0.6
		c-0.6,0-1.1,0.2-1.4,0.6c-0.3,0.4-0.4,1-0.4,1.7c0,0.7,0.1,1.3,0.4,1.7C349.9,55.4,350.3,55.6,350.9,55.6z"/>
	<path class="st7" d="M360.3,56.6c-0.2,0-0.3-0.1-0.4-0.3l-0.1-0.7c-0.1,0.2-0.3,0.3-0.4,0.4c-0.2,0.1-0.3,0.2-0.5,0.3
		c-0.2,0.1-0.4,0.2-0.6,0.2c-0.2,0.1-0.4,0.1-0.7,0.1c-0.4,0-0.7-0.1-1-0.2s-0.6-0.4-0.8-0.7c-0.2-0.3-0.4-0.6-0.5-1.1
		c-0.1-0.4-0.2-0.9-0.2-1.5c0-0.5,0.1-1,0.2-1.4c0.1-0.4,0.3-0.8,0.6-1.1c0.2-0.3,0.5-0.6,0.9-0.7c0.4-0.2,0.7-0.3,1.2-0.3
		c0.4,0,0.7,0.1,1,0.2c0.3,0.1,0.5,0.3,0.7,0.5V47h1.4v9.6H360.3z M358.1,55.6c0.4,0,0.7-0.1,0.9-0.2c0.3-0.2,0.5-0.4,0.7-0.7v-3.1
		c-0.2-0.2-0.4-0.4-0.6-0.5c-0.2-0.1-0.5-0.2-0.8-0.2c-0.5,0-1,0.2-1.3,0.6s-0.5,1-0.5,1.8c0,0.4,0,0.8,0.1,1
		c0.1,0.3,0.2,0.5,0.3,0.7c0.1,0.2,0.3,0.3,0.5,0.4C357.6,55.6,357.9,55.6,358.1,55.6z"/>
	<path class="st7" d="M365.6,49.9c0.4,0,0.8,0.1,1.1,0.2c0.3,0.1,0.6,0.3,0.9,0.6c0.3,0.3,0.4,0.6,0.6,0.9s0.2,0.8,0.2,1.3
		c0,0.2,0,0.4-0.1,0.4c0,0.1-0.1,0.1-0.3,0.1h-4.3c0,0.4,0.1,0.7,0.2,1c0.1,0.3,0.2,0.5,0.4,0.7c0.2,0.2,0.4,0.3,0.6,0.4
		c0.2,0.1,0.5,0.1,0.8,0.1c0.3,0,0.5,0,0.7-0.1c0.2-0.1,0.4-0.1,0.5-0.2c0.1-0.1,0.3-0.1,0.4-0.2c0.1-0.1,0.2-0.1,0.3-0.1
		c0.1,0,0.2,0,0.3,0.1l0.4,0.5c-0.2,0.2-0.4,0.4-0.6,0.5s-0.4,0.2-0.7,0.3s-0.5,0.1-0.7,0.2s-0.5,0.1-0.7,0.1
		c-0.5,0-0.9-0.1-1.3-0.2c-0.4-0.2-0.7-0.4-1-0.7s-0.5-0.7-0.7-1.1c-0.2-0.4-0.2-1-0.2-1.5c0-0.5,0.1-0.9,0.2-1.3
		c0.1-0.4,0.4-0.7,0.6-1c0.3-0.3,0.6-0.5,1-0.7C364.7,50,365.1,49.9,365.6,49.9z M365.6,50.9c-0.5,0-0.9,0.1-1.2,0.4
		c-0.3,0.3-0.5,0.7-0.6,1.2h3.3c0-0.2,0-0.5-0.1-0.7c-0.1-0.2-0.2-0.4-0.3-0.5s-0.3-0.3-0.5-0.4C366.1,50.9,365.9,50.9,365.6,50.9z"
		/>
	<path class="st7" d="M378.6,47.9c0,0.2-0.1,0.4-0.2,0.5c-0.1,0.1-0.3,0.2-0.6,0.2H375l-0.4,2.2c0.4-0.1,0.9-0.1,1.2-0.1
		c0.5,0,0.9,0.1,1.3,0.2c0.4,0.1,0.7,0.3,0.9,0.6c0.3,0.3,0.4,0.6,0.6,0.9c0.1,0.3,0.2,0.7,0.2,1.1c0,0.5-0.1,1-0.3,1.4
		c-0.2,0.4-0.4,0.8-0.7,1c-0.3,0.3-0.7,0.5-1.1,0.7s-0.9,0.2-1.4,0.2c-0.3,0-0.6,0-0.8-0.1s-0.5-0.1-0.7-0.2
		c-0.2-0.1-0.4-0.2-0.6-0.3c-0.2-0.1-0.4-0.3-0.5-0.4l0.4-0.6c0.1-0.1,0.2-0.2,0.4-0.2c0.1,0,0.2,0,0.3,0.1c0.1,0.1,0.2,0.1,0.4,0.2
		s0.3,0.2,0.5,0.2c0.2,0.1,0.4,0.1,0.7,0.1c0.3,0,0.6-0.1,0.8-0.2c0.2-0.1,0.4-0.2,0.6-0.4c0.2-0.2,0.3-0.4,0.4-0.6
		c0.1-0.3,0.1-0.5,0.1-0.8c0-0.3,0-0.5-0.1-0.7s-0.2-0.4-0.4-0.6c-0.2-0.2-0.4-0.3-0.6-0.3s-0.5-0.1-0.8-0.1c-0.2,0-0.5,0-0.7,0.1
		s-0.5,0.1-0.7,0.2l-0.9-0.2l0.8-4.5h4.5V47.9z"/>
	<path class="st7" d="M386.8,51.9c0,0.8-0.1,1.5-0.3,2.1c-0.2,0.6-0.4,1.1-0.7,1.5c-0.3,0.4-0.7,0.7-1.1,0.9s-0.9,0.3-1.3,0.3
		c-0.5,0-0.9-0.1-1.3-0.3s-0.8-0.5-1.1-0.9c-0.3-0.4-0.5-0.9-0.7-1.5c-0.2-0.6-0.3-1.3-0.3-2.1c0-0.8,0.1-1.5,0.3-2.1
		c0.2-0.6,0.4-1.1,0.7-1.5c0.3-0.4,0.7-0.7,1.1-0.9s0.9-0.3,1.3-0.3c0.5,0,0.9,0.1,1.3,0.3s0.8,0.5,1.1,0.9c0.3,0.4,0.5,0.9,0.7,1.5
		C386.7,50.4,386.8,51.1,386.8,51.9z M385.4,51.9c0-0.7-0.1-1.3-0.2-1.7c-0.1-0.5-0.3-0.8-0.4-1.1c-0.2-0.3-0.4-0.5-0.6-0.6
		s-0.5-0.2-0.7-0.2c-0.3,0-0.5,0.1-0.7,0.2s-0.4,0.3-0.6,0.6c-0.2,0.3-0.3,0.6-0.4,1.1s-0.2,1-0.2,1.7c0,0.7,0.1,1.3,0.2,1.7
		c0.1,0.5,0.3,0.8,0.4,1.1c0.2,0.3,0.4,0.5,0.6,0.6s0.5,0.2,0.7,0.2c0.3,0,0.5-0.1,0.7-0.2s0.4-0.3,0.6-0.6c0.2-0.3,0.3-0.6,0.4-1.1
		C385.3,53.2,385.4,52.6,385.4,51.9z"/>
	<path class="st7" d="M391.1,47.2c0.4,0,0.8,0.1,1.1,0.2s0.6,0.3,0.9,0.5c0.2,0.2,0.4,0.5,0.6,0.8c0.1,0.3,0.2,0.6,0.2,1
		c0,0.6-0.1,1.1-0.4,1.4s-0.7,0.6-1.1,0.7c1.2,0.3,1.7,1.1,1.7,2.2c0,0.5-0.1,0.9-0.3,1.2c-0.2,0.4-0.4,0.6-0.7,0.9s-0.6,0.4-1,0.6
		c-0.4,0.1-0.8,0.2-1.2,0.2c-0.5,0-0.9-0.1-1.2-0.2c-0.4-0.1-0.7-0.3-0.9-0.5c-0.3-0.2-0.5-0.5-0.6-0.8s-0.3-0.6-0.4-1l0.6-0.3
		c0.2-0.1,0.3-0.1,0.5-0.1c0.1,0,0.2,0.1,0.3,0.2c0.1,0.1,0.1,0.3,0.2,0.4c0.1,0.2,0.2,0.3,0.3,0.4c0.1,0.1,0.3,0.2,0.5,0.3
		c0.2,0.1,0.5,0.1,0.7,0.1c0.3,0,0.6,0,0.8-0.1c0.2-0.1,0.4-0.2,0.6-0.4c0.1-0.2,0.3-0.3,0.3-0.5c0.1-0.2,0.1-0.4,0.1-0.6
		c0-0.2,0-0.5-0.1-0.6c-0.1-0.2-0.2-0.4-0.3-0.5c-0.2-0.1-0.4-0.2-0.7-0.3c-0.3-0.1-0.7-0.1-1.2-0.1v-1c0.4,0,0.7,0,1-0.1
		c0.3-0.1,0.5-0.2,0.6-0.3c0.2-0.1,0.3-0.3,0.4-0.5c0.1-0.2,0.1-0.4,0.1-0.6c0-0.2,0-0.4-0.1-0.6c-0.1-0.2-0.2-0.3-0.3-0.5
		c-0.1-0.1-0.3-0.2-0.5-0.3c-0.2-0.1-0.4-0.1-0.6-0.1c-0.2,0-0.4,0-0.6,0.1c-0.2,0.1-0.3,0.1-0.5,0.3c-0.1,0.1-0.3,0.2-0.4,0.4
		c-0.1,0.2-0.2,0.3-0.2,0.5c-0.1,0.2-0.1,0.3-0.2,0.4c-0.1,0.1-0.2,0.1-0.4,0l-0.7-0.1c0.1-0.4,0.2-0.8,0.4-1.2
		c0.2-0.3,0.4-0.6,0.7-0.8c0.3-0.2,0.6-0.4,0.9-0.5C390.3,47.2,390.7,47.2,391.1,47.2z"/>
</g>
<g>
	<path class="st9" d="M281.2-0.6v-7.2h2.4c0.5,0,0.9,0,1.2,0.1s0.6,0.2,0.8,0.4c0.2,0.2,0.4,0.4,0.5,0.6c0.1,0.2,0.1,0.5,0.1,0.8
		c0,0.2,0,0.3-0.1,0.5C286-5.2,286-5.1,285.8-5s-0.2,0.3-0.4,0.4c-0.2,0.1-0.4,0.2-0.6,0.3c0.5,0.1,0.9,0.3,1.1,0.6s0.4,0.6,0.4,1.1
		c0,0.3-0.1,0.6-0.2,0.8c-0.1,0.3-0.3,0.5-0.5,0.7s-0.5,0.3-0.8,0.4c-0.3,0.1-0.7,0.2-1.1,0.2H281.2z M282.3-4.6h1.2
		c0.5,0,0.9-0.1,1.1-0.3c0.2-0.2,0.4-0.5,0.4-0.8c0-0.4-0.1-0.7-0.3-0.9c-0.2-0.2-0.6-0.3-1.1-0.3h-1.2V-4.6z M282.3-3.8v2.3h1.5
		c0.3,0,0.5,0,0.7-0.1c0.2-0.1,0.3-0.1,0.4-0.3c0.1-0.1,0.2-0.2,0.2-0.4s0.1-0.3,0.1-0.5c0-0.3-0.1-0.6-0.3-0.8
		c-0.2-0.2-0.6-0.3-1.1-0.3H282.3z"/>
	<path class="st9" d="M294.6-4.2c0,0.5-0.1,1-0.3,1.5s-0.4,0.8-0.7,1.2c-0.3,0.3-0.7,0.6-1.1,0.8c-0.4,0.2-0.9,0.3-1.5,0.3
		c-0.5,0-1-0.1-1.5-0.3c-0.4-0.2-0.8-0.4-1.1-0.8c-0.3-0.3-0.6-0.7-0.7-1.2s-0.3-0.9-0.3-1.5c0-0.5,0.1-1,0.3-1.5
		c0.2-0.4,0.4-0.8,0.7-1.2c0.3-0.3,0.7-0.6,1.1-0.8c0.4-0.2,0.9-0.3,1.5-0.3c0.5,0,1,0.1,1.5,0.3c0.4,0.2,0.8,0.4,1.1,0.8
		c0.3,0.3,0.6,0.7,0.7,1.2C294.5-5.2,294.6-4.7,294.6-4.2z M293.4-4.2c0-0.4-0.1-0.8-0.2-1.1c-0.1-0.3-0.3-0.6-0.5-0.8
		c-0.2-0.2-0.5-0.4-0.8-0.5c-0.3-0.1-0.6-0.2-1-0.2c-0.4,0-0.7,0.1-1,0.2c-0.3,0.1-0.5,0.3-0.8,0.5s-0.4,0.5-0.5,0.8
		s-0.2,0.7-0.2,1.1c0,0.4,0.1,0.8,0.2,1.1s0.3,0.6,0.5,0.8c0.2,0.2,0.5,0.4,0.8,0.5c0.3,0.1,0.6,0.2,1,0.2c0.4,0,0.7-0.1,1-0.2
		c0.3-0.1,0.5-0.3,0.8-0.5c0.2-0.2,0.4-0.5,0.5-0.8C293.3-3.4,293.4-3.8,293.4-4.2z"/>
	<path class="st9" d="M300.6-7.8v1h-2.2v6.2h-1.2v-6.2H295v-1H300.6z"/>
</g>
<g>
	<path class="st10" d="M222,10h-19c-1.1,0-2-0.9-2-2v-19c0-1.1,0.9-2,2-2h19c1.1,0,2,0.9,2,2V8C224,9.1,223.1,10,222,10z"/>
	<polygon class="st11" points="219.7,-5.8 205.3,-5.8 208.9,-8.7 216.1,-8.7 	"/>
	<rect x="205.3" y="-5.8" class="st12" width="14.4" height="2.9"/>
	<rect x="205.3" y="-2.9" class="st13" width="14.4" height="2.9"/>
	<rect x="205.3" y="-0.1" class="st14" width="14.4" height="2.9"/>
	<polygon class="st15" points="216.1,5.7 208.9,5.7 205.3,2.8 219.7,2.8 	"/>
	<g>
		<path class="st2" d="M212.8-8.7c3.8,0,6.9,3.1,6.9,6.9v0.6c0,3.8-3.1,6.9-6.9,6.9h-0.6c-3.8,0-6.9-3.1-6.9-6.9v-0.6
			c0-3.8,3.1-6.9,6.9-6.9H212.8 M212.8-10.7h-0.6c-4.9,0-8.9,4-8.9,8.9v0.6c0,4.9,4,8.9,8.9,8.9h0.6c4.9,0,8.9-4,8.9-8.9v-0.6
			C221.7-6.7,217.7-10.7,212.8-10.7L212.8-10.7z"/>
	</g>
</g>
<g>
	<path class="st5" d="M238,85.8c-0.1,0.1-0.1,0.1-0.2,0.2c-0.1,0-0.1,0.1-0.2,0.1c-0.1,0-0.2,0-0.3-0.1s-0.2-0.1-0.3-0.2
		s-0.2-0.1-0.4-0.2c-0.2-0.1-0.3-0.1-0.6-0.1c-0.3,0-0.5,0.1-0.8,0.2c-0.2,0.1-0.4,0.3-0.5,0.5c-0.1,0.2-0.2,0.4-0.3,0.7
		c-0.1,0.3-0.1,0.6-0.1,0.9c0,0.7,0.1,1.3,0.4,1.7c0.3,0.4,0.7,0.6,1.2,0.6c0.2,0,0.3,0,0.5,0c0.1,0,0.2-0.1,0.3-0.1
		c0.1,0,0.2-0.1,0.2-0.2c0.1-0.1,0.1-0.1,0.2-0.2s0.1-0.1,0.2-0.1s0.1,0,0.2,0c0.1,0,0.3,0.1,0.3,0.2l0.6,0.7
		c-0.2,0.2-0.4,0.4-0.7,0.6s-0.5,0.3-0.7,0.4c-0.2,0.1-0.5,0.2-0.8,0.2c-0.3,0-0.5,0.1-0.8,0.1c-0.4,0-0.9-0.1-1.3-0.2
		c-0.4-0.2-0.7-0.4-1-0.7c-0.3-0.3-0.5-0.7-0.7-1.2c-0.2-0.5-0.3-1-0.3-1.6c0-0.5,0.1-1,0.2-1.5c0.2-0.5,0.4-0.8,0.7-1.2
		c0.3-0.3,0.7-0.6,1.1-0.8s1-0.3,1.5-0.3c0.6,0,1,0.1,1.4,0.3s0.8,0.4,1.1,0.8L238,85.8z"/>
	<path class="st5" d="M241.5,81v10.4h-1.9V81H241.5z"/>
	<path class="st5" d="M245.3,82.2c0,0.2,0,0.3-0.1,0.5s-0.2,0.3-0.3,0.4c-0.1,0.1-0.2,0.2-0.4,0.3s-0.3,0.1-0.5,0.1
		c-0.2,0-0.3,0-0.5-0.1c-0.1-0.1-0.3-0.1-0.4-0.3c-0.1-0.1-0.2-0.2-0.3-0.4s-0.1-0.3-0.1-0.5s0-0.3,0.1-0.5s0.1-0.3,0.3-0.4
		c0.1-0.1,0.2-0.2,0.4-0.3c0.1-0.1,0.3-0.1,0.5-0.1c0.2,0,0.3,0,0.5,0.1s0.3,0.1,0.4,0.3c0.1,0.1,0.2,0.2,0.3,0.4
		S245.3,82,245.3,82.2z M245.1,84.2v7.2h-1.9v-7.2H245.1z"/>
	<path class="st5" d="M247.3,91.5v-5.8l-0.6-0.1c-0.1,0-0.3-0.1-0.4-0.2c-0.1-0.1-0.1-0.2-0.1-0.3v-0.8h1.1v-0.3
		c0-0.4,0.1-0.8,0.2-1.1c0.1-0.3,0.3-0.6,0.5-0.8c0.2-0.2,0.5-0.4,0.9-0.5s0.7-0.2,1.2-0.2c0.2,0,0.3,0,0.5,0c0.2,0,0.3,0.1,0.5,0.1
		l0,1c0,0.1-0.1,0.2-0.2,0.3c-0.1,0-0.2,0.1-0.4,0.1c-0.2,0-0.4,0-0.5,0.1c-0.2,0-0.3,0.1-0.4,0.2c-0.1,0.1-0.2,0.2-0.2,0.4
		s-0.1,0.4-0.1,0.6v0.3h2.7v-0.6c0-0.4,0.1-0.8,0.2-1.1s0.3-0.6,0.5-0.8c0.2-0.2,0.5-0.4,0.9-0.5s0.7-0.2,1.2-0.2c0.2,0,0.3,0,0.5,0
		c0.2,0,0.3,0.1,0.5,0.1l0,1c0,0.1-0.1,0.2-0.2,0.3c-0.1,0-0.2,0.1-0.4,0.1c-0.2,0-0.4,0-0.5,0.1c-0.2,0-0.3,0.1-0.4,0.2
		c-0.1,0.1-0.2,0.2-0.2,0.4c-0.1,0.2-0.1,0.4-0.1,0.6v0.5h1.8v1.3h-1.7v5.8h-1.9v-5.8h-2.7v5.8H247.3z"/>
</g>
<g>
	<path class="st6" d="M268.2,91.5c-0.5,0-1-0.1-1.4-0.2c-0.4-0.1-0.8-0.3-1.1-0.6c-0.3-0.3-0.5-0.6-0.7-0.9s-0.3-0.8-0.3-1.2
		c0-0.6,0.2-1.1,0.5-1.5c0.3-0.4,0.8-0.7,1.4-0.9c-0.5-0.2-0.9-0.5-1.1-0.9c-0.3-0.4-0.4-0.8-0.4-1.4c0-0.4,0.1-0.7,0.2-1.1
		s0.4-0.6,0.6-0.9s0.6-0.4,1-0.6c0.4-0.1,0.8-0.2,1.3-0.2s0.9,0.1,1.3,0.2c0.4,0.1,0.7,0.3,1,0.6c0.3,0.2,0.5,0.5,0.6,0.9
		s0.2,0.7,0.2,1.1c0,0.5-0.1,1-0.4,1.4c-0.3,0.4-0.6,0.7-1.1,0.9c0.6,0.2,1.1,0.5,1.4,0.9s0.5,0.9,0.5,1.5c0,0.4-0.1,0.8-0.3,1.2
		s-0.4,0.7-0.7,0.9c-0.3,0.3-0.7,0.4-1.1,0.6C269.2,91.4,268.7,91.5,268.2,91.5z M268.2,90.3c0.3,0,0.6,0,0.8-0.1
		c0.2-0.1,0.4-0.2,0.6-0.4c0.2-0.2,0.3-0.3,0.4-0.6s0.1-0.4,0.1-0.7c0-0.3,0-0.6-0.1-0.8c-0.1-0.2-0.2-0.4-0.4-0.6
		c-0.2-0.1-0.4-0.3-0.6-0.3c-0.2-0.1-0.5-0.1-0.8-0.1c-0.3,0-0.5,0-0.8,0.1c-0.2,0.1-0.4,0.2-0.6,0.3c-0.2,0.1-0.3,0.3-0.4,0.6
		c-0.1,0.2-0.1,0.5-0.1,0.8c0,0.3,0,0.5,0.1,0.7s0.2,0.4,0.4,0.6c0.2,0.2,0.4,0.3,0.6,0.4C267.6,90.2,267.9,90.3,268.2,90.3z
		 M268.2,85.5c0.3,0,0.6,0,0.8-0.1c0.2-0.1,0.4-0.2,0.5-0.4s0.2-0.3,0.3-0.5c0.1-0.2,0.1-0.4,0.1-0.6s0-0.4-0.1-0.6
		c-0.1-0.2-0.2-0.4-0.3-0.5c-0.1-0.1-0.3-0.3-0.5-0.3c-0.2-0.1-0.4-0.1-0.7-0.1s-0.5,0-0.7,0.1s-0.4,0.2-0.5,0.3
		c-0.1,0.1-0.2,0.3-0.3,0.5c-0.1,0.2-0.1,0.4-0.1,0.6s0,0.4,0.1,0.6c0.1,0.2,0.2,0.4,0.3,0.5c0.1,0.2,0.3,0.3,0.5,0.4
		C267.6,85.5,267.9,85.5,268.2,85.5z"/>
	<path class="st6" d="M273,85.4c0-0.1,0-0.3,0.1-0.4c0-0.1,0.1-0.2,0.2-0.3c0.1-0.1,0.2-0.2,0.3-0.2c0.1-0.1,0.2-0.1,0.4-0.1
		s0.3,0,0.4,0.1c0.1,0.1,0.2,0.1,0.3,0.2c0.1,0.1,0.2,0.2,0.2,0.3s0.1,0.2,0.1,0.4c0,0.1,0,0.3-0.1,0.4c-0.1,0.1-0.1,0.2-0.2,0.3
		c-0.1,0.1-0.2,0.2-0.3,0.2c-0.1,0-0.2,0.1-0.4,0.1s-0.3,0-0.4-0.1c-0.1,0-0.2-0.1-0.3-0.2c-0.1-0.1-0.2-0.2-0.2-0.3
		C273.1,85.7,273,85.5,273,85.4z M273,90.5c0-0.1,0-0.3,0.1-0.4c0-0.1,0.1-0.2,0.2-0.3c0.1-0.1,0.2-0.2,0.3-0.2
		c0.1-0.1,0.2-0.1,0.4-0.1s0.3,0,0.4,0.1c0.1,0.1,0.2,0.1,0.3,0.2c0.1,0.1,0.2,0.2,0.2,0.3s0.1,0.2,0.1,0.4c0,0.1,0,0.3-0.1,0.4
		s-0.1,0.2-0.2,0.3c-0.1,0.1-0.2,0.2-0.3,0.2c-0.1,0-0.2,0.1-0.4,0.1s-0.3,0-0.4-0.1c-0.1,0-0.2-0.1-0.3-0.2
		c-0.1-0.1-0.2-0.2-0.2-0.3C273.1,90.8,273,90.6,273,90.5z"/>
	<path class="st6" d="M282.7,81.9c0,0.2-0.1,0.4-0.2,0.5s-0.4,0.2-0.7,0.2h-3l-0.4,2.3c0.5-0.1,0.9-0.1,1.3-0.1c0.5,0,1,0.1,1.4,0.2
		c0.4,0.2,0.7,0.4,1,0.6s0.5,0.6,0.6,1s0.2,0.8,0.2,1.2c0,0.5-0.1,1-0.3,1.5s-0.4,0.8-0.8,1.1s-0.7,0.5-1.2,0.7
		c-0.5,0.2-0.9,0.3-1.5,0.3c-0.3,0-0.6,0-0.9-0.1c-0.3-0.1-0.5-0.1-0.8-0.2c-0.2-0.1-0.5-0.2-0.7-0.4c-0.2-0.1-0.4-0.3-0.6-0.4
		l0.5-0.6c0.1-0.1,0.2-0.2,0.4-0.2c0.1,0,0.2,0,0.3,0.1c0.1,0.1,0.3,0.2,0.4,0.2c0.2,0.1,0.4,0.2,0.6,0.2s0.5,0.1,0.8,0.1
		c0.3,0,0.6-0.1,0.9-0.2c0.3-0.1,0.5-0.3,0.7-0.5s0.3-0.4,0.4-0.7s0.1-0.6,0.1-0.9c0-0.3,0-0.6-0.1-0.8c-0.1-0.2-0.2-0.4-0.4-0.6
		c-0.2-0.2-0.4-0.3-0.6-0.4s-0.6-0.1-0.9-0.1c-0.2,0-0.5,0-0.8,0.1s-0.5,0.1-0.8,0.2l-0.9-0.3l0.8-4.8h4.9V81.9z"/>
	<path class="st6" d="M288.1,81.2c0.4,0,0.9,0.1,1.2,0.2s0.7,0.3,0.9,0.5c0.3,0.2,0.5,0.5,0.6,0.8c0.1,0.3,0.2,0.7,0.2,1
		c0,0.6-0.1,1.1-0.4,1.5s-0.7,0.6-1.2,0.8c1.3,0.4,1.9,1.2,1.9,2.4c0,0.5-0.1,0.9-0.3,1.3c-0.2,0.4-0.4,0.7-0.7,1
		c-0.3,0.3-0.7,0.5-1.1,0.6c-0.4,0.1-0.9,0.2-1.3,0.2c-0.5,0-1-0.1-1.3-0.2s-0.7-0.3-1-0.5c-0.3-0.2-0.5-0.5-0.7-0.8
		c-0.2-0.3-0.3-0.7-0.5-1.1l0.7-0.3c0.2-0.1,0.3-0.1,0.5-0.1c0.2,0,0.3,0.1,0.3,0.3c0.1,0.1,0.2,0.3,0.3,0.5
		c0.1,0.2,0.2,0.3,0.4,0.5s0.3,0.3,0.5,0.4c0.2,0.1,0.5,0.1,0.8,0.1c0.3,0,0.6-0.1,0.8-0.2s0.4-0.2,0.6-0.4c0.2-0.2,0.3-0.4,0.4-0.6
		c0.1-0.2,0.1-0.4,0.1-0.6c0-0.3,0-0.5-0.1-0.7c-0.1-0.2-0.2-0.4-0.4-0.5c-0.2-0.1-0.4-0.3-0.7-0.4c-0.3-0.1-0.7-0.1-1.3-0.1v-1.1
		c0.4,0,0.8,0,1.1-0.1c0.3-0.1,0.5-0.2,0.7-0.3c0.2-0.1,0.3-0.3,0.4-0.5c0.1-0.2,0.1-0.4,0.1-0.7c0-0.3,0-0.5-0.1-0.7
		c-0.1-0.2-0.2-0.4-0.3-0.5c-0.1-0.1-0.3-0.2-0.5-0.3c-0.2-0.1-0.4-0.1-0.7-0.1c-0.2,0-0.4,0-0.6,0.1s-0.4,0.2-0.5,0.3
		c-0.2,0.1-0.3,0.3-0.4,0.4s-0.2,0.3-0.2,0.5c-0.1,0.2-0.2,0.3-0.3,0.4c-0.1,0.1-0.3,0.1-0.5,0l-0.8-0.1c0.1-0.5,0.2-0.9,0.4-1.3
		c0.2-0.4,0.4-0.7,0.7-0.9s0.6-0.4,1-0.5S287.7,81.2,288.1,81.2z"/>
	<path class="st6" d="M298.4,87.7v3.6h-1.6V81.3h3.1c0.7,0,1.2,0.1,1.7,0.2c0.5,0.2,0.9,0.4,1.2,0.6c0.3,0.3,0.5,0.6,0.7,1
		c0.2,0.4,0.2,0.8,0.2,1.3c0,0.5-0.1,0.9-0.2,1.3c-0.2,0.4-0.4,0.7-0.7,1c-0.3,0.3-0.7,0.5-1.2,0.7c-0.5,0.2-1,0.2-1.7,0.2H298.4z
		 M298.4,86.4h1.5c0.4,0,0.7,0,1-0.1c0.3-0.1,0.5-0.2,0.7-0.4c0.2-0.2,0.3-0.4,0.4-0.6c0.1-0.2,0.1-0.5,0.1-0.8c0-0.3,0-0.6-0.1-0.8
		c-0.1-0.2-0.2-0.4-0.4-0.6c-0.2-0.2-0.4-0.3-0.7-0.4c-0.3-0.1-0.6-0.1-1-0.1h-1.5V86.4z"/>
	<path class="st6" d="M310.5,87.8c0.1,0.1,0.1,0.3,0.2,0.4c0.1-0.1,0.1-0.3,0.2-0.4s0.1-0.3,0.2-0.4l3.2-5.8
		c0.1-0.1,0.1-0.2,0.2-0.2s0.2,0,0.3,0h1.2v10.1h-1.4v-6.9c0-0.1,0-0.2,0-0.4c0-0.1,0-0.3,0-0.4l-3.2,6c-0.1,0.2-0.3,0.4-0.6,0.4
		h-0.2c-0.3,0-0.5-0.1-0.6-0.4l-3.3-6c0,0.1,0,0.3,0,0.4s0,0.3,0,0.4v6.9h-1.4V81.3h1.2c0.1,0,0.3,0,0.3,0c0.1,0,0.2,0.1,0.2,0.2
		l3.2,5.9C310.3,87.5,310.4,87.7,310.5,87.8z"/>
</g>
<g>
	<path class="st7" d="M234.6,109.6h-1.5v-9.4h1.5V109.6z"/>
	<path class="st7" d="M237.6,99.6c0.2,0.3,0.3,0.7,0.4,1s0.1,0.7,0,1.1c-0.1,0.3-0.2,0.7-0.4,1s-0.4,0.6-0.7,0.9l-0.4-0.3
		c-0.1,0-0.1-0.1-0.1-0.2s0-0.1,0.1-0.2c0.1-0.1,0.2-0.3,0.3-0.5c0.1-0.2,0.1-0.4,0.2-0.6c0-0.2,0-0.5,0-0.7c0-0.2-0.1-0.5-0.3-0.7
		c-0.1-0.1-0.1-0.2-0.1-0.3c0-0.1,0.1-0.1,0.2-0.2L237.6,99.6z"/>
	<path class="st7" d="M239.4,109.6V103h0.8c0.2,0,0.3,0.1,0.4,0.3l0.1,0.6c0.1-0.1,0.2-0.3,0.4-0.4c0.1-0.1,0.3-0.2,0.4-0.3
		c0.1-0.1,0.3-0.2,0.5-0.2c0.2,0,0.4-0.1,0.6-0.1c0.2,0,0.4,0,0.6,0.1c0.2,0.1,0.3,0.1,0.5,0.3c0.1,0.1,0.3,0.2,0.4,0.4
		s0.2,0.3,0.2,0.5c0.1-0.2,0.2-0.4,0.4-0.6c0.2-0.2,0.3-0.3,0.5-0.4c0.2-0.1,0.4-0.2,0.6-0.2c0.2,0,0.4-0.1,0.6-0.1
		c0.4,0,0.7,0.1,1,0.2c0.3,0.1,0.5,0.3,0.7,0.5s0.3,0.5,0.4,0.8c0.1,0.3,0.1,0.7,0.1,1.1v4.2h-1.4v-4.2c0-0.5-0.1-0.8-0.3-1.1
		c-0.2-0.2-0.5-0.4-0.9-0.4c-0.2,0-0.3,0-0.5,0.1c-0.2,0.1-0.3,0.1-0.4,0.3c-0.1,0.1-0.2,0.3-0.3,0.4c-0.1,0.2-0.1,0.4-0.1,0.6v4.2
		h-1.4v-4.2c0-0.5-0.1-0.8-0.3-1.1c-0.2-0.2-0.5-0.3-0.9-0.3c-0.3,0-0.5,0.1-0.7,0.2c-0.2,0.1-0.4,0.3-0.6,0.5v4.9H239.4z"/>
	<path class="st7" d="M256.3,102.9c0.5,0,0.9,0.1,1.3,0.2s0.7,0.4,1,0.7c0.3,0.3,0.5,0.7,0.6,1.1c0.2,0.4,0.2,0.9,0.2,1.4
		c0,0.5-0.1,1-0.2,1.4c-0.2,0.4-0.4,0.8-0.6,1.1c-0.3,0.3-0.6,0.5-1,0.7s-0.8,0.2-1.3,0.2c-0.5,0-0.9-0.1-1.3-0.2s-0.7-0.4-1-0.7
		c-0.3-0.3-0.5-0.7-0.7-1.1c-0.2-0.4-0.2-0.9-0.2-1.4c0-0.5,0.1-1,0.2-1.4c0.2-0.4,0.4-0.8,0.7-1.1c0.3-0.3,0.6-0.5,1-0.7
		S255.8,102.9,256.3,102.9z M256.3,108.6c0.6,0,1-0.2,1.3-0.6s0.4-1,0.4-1.7c0-0.7-0.1-1.3-0.4-1.7c-0.3-0.4-0.7-0.6-1.3-0.6
		c-0.6,0-1.1,0.2-1.4,0.6c-0.3,0.4-0.4,1-0.4,1.7c0,0.7,0.1,1.3,0.4,1.7C255.3,108.4,255.7,108.6,256.3,108.6z"/>
	<path class="st7" d="M260.9,109.6V103h0.8c0.2,0,0.3,0.1,0.4,0.3l0.1,0.6c0.1-0.1,0.3-0.3,0.4-0.4s0.3-0.2,0.5-0.3s0.4-0.2,0.6-0.2
		c0.2,0,0.4-0.1,0.6-0.1c0.4,0,0.7,0.1,1,0.2s0.5,0.3,0.7,0.5c0.2,0.2,0.3,0.5,0.4,0.8c0.1,0.3,0.1,0.7,0.1,1v4.2h-1.4v-4.2
		c0-0.4-0.1-0.8-0.3-1c-0.2-0.2-0.5-0.4-0.9-0.4c-0.3,0-0.6,0.1-0.9,0.2c-0.3,0.1-0.5,0.3-0.8,0.6v4.8H260.9z"/>
	<path class="st7" d="M273.1,101c0,0.1,0,0.2-0.1,0.4s-0.1,0.2-0.2,0.3c-0.1,0.1-0.2,0.2-0.3,0.2c-0.1,0-0.2,0.1-0.4,0.1
		c-0.1,0-0.2,0-0.4-0.1s-0.2-0.1-0.3-0.2c-0.1-0.1-0.1-0.2-0.2-0.3c-0.1-0.1-0.1-0.2-0.1-0.4c0-0.1,0-0.3,0.1-0.4
		c0-0.1,0.1-0.2,0.2-0.3c0.1-0.1,0.2-0.2,0.3-0.2s0.2-0.1,0.4-0.1c0.1,0,0.3,0,0.4,0.1c0.1,0,0.2,0.1,0.3,0.2
		c0.1,0.1,0.2,0.2,0.2,0.3S273.1,100.9,273.1,101z M272.9,103v6.6h-1.4V103H272.9z"/>
	<path class="st7" d="M276.8,109.7c-0.6,0-1-0.2-1.3-0.5c-0.3-0.3-0.4-0.7-0.4-1.3v-3.9h-0.7c-0.1,0-0.1,0-0.2-0.1
		c-0.1,0-0.1-0.1-0.1-0.2v-0.6l1.1-0.2l0.3-1.9c0-0.1,0.1-0.1,0.1-0.2c0.1,0,0.1-0.1,0.2-0.1h0.7v2.2h1.8v1h-1.8v3.8
		c0,0.2,0.1,0.4,0.2,0.5c0.1,0.1,0.3,0.2,0.5,0.2c0.1,0,0.2,0,0.3,0c0.1,0,0.1-0.1,0.2-0.1c0.1,0,0.1-0.1,0.1-0.1s0.1,0,0.1,0
		c0.1,0,0.1,0,0.2,0.1l0.4,0.7c-0.2,0.2-0.5,0.3-0.8,0.4C277.4,109.7,277.1,109.7,276.8,109.7z"/>
	<path class="st7" d="M279.4,108.8c0-0.1,0-0.2,0.1-0.4c0-0.1,0.1-0.2,0.2-0.3c0.1-0.1,0.2-0.1,0.3-0.2s0.2-0.1,0.4-0.1
		c0.1,0,0.2,0,0.4,0.1c0.1,0,0.2,0.1,0.3,0.2c0.1,0.1,0.1,0.2,0.2,0.3s0.1,0.2,0.1,0.4c0,0.1,0,0.2-0.1,0.4c0,0.1-0.1,0.2-0.2,0.3
		c-0.1,0.1-0.2,0.1-0.3,0.2c-0.1,0-0.2,0.1-0.4,0.1c-0.1,0-0.2,0-0.4-0.1s-0.2-0.1-0.3-0.2c-0.1-0.1-0.1-0.2-0.2-0.3
		C279.4,109.1,279.4,108.9,279.4,108.8z M281,100.3v3.7c0,0.4,0,0.8-0.1,1.1s-0.1,0.8-0.1,1.2h-0.9c-0.1-0.4-0.1-0.8-0.1-1.2
		c0-0.4,0-0.8,0-1.1v-3.7H281z"/>
</g>
<line class="st16" x1="233" y1="44" x2="233" y2="62"/>
<rect x="278" y="129" class="st4" width="25" height="11"/>
<g>
	<path class="st5" d="M236.1,132.1c0.5,0,1,0.1,1.5,0.3c0.4,0.2,0.8,0.4,1.1,0.7c0.3,0.3,0.6,0.7,0.7,1.2c0.2,0.5,0.3,1,0.3,1.5
		s-0.1,1.1-0.3,1.6c-0.2,0.5-0.4,0.8-0.7,1.2s-0.7,0.6-1.1,0.7c-0.4,0.2-0.9,0.3-1.5,0.3c-0.5,0-1-0.1-1.5-0.3
		c-0.4-0.2-0.8-0.4-1.1-0.7s-0.6-0.7-0.7-1.2c-0.2-0.5-0.3-1-0.3-1.6s0.1-1.1,0.3-1.5c0.2-0.5,0.4-0.8,0.7-1.2
		c0.3-0.3,0.7-0.6,1.1-0.7C235,132.2,235.5,132.1,236.1,132.1z M236.1,138.1c0.6,0,1-0.2,1.2-0.6c0.3-0.4,0.4-0.9,0.4-1.7
		c0-0.7-0.1-1.3-0.4-1.7c-0.3-0.4-0.7-0.6-1.2-0.6c-0.6,0-1,0.2-1.2,0.6s-0.4,0.9-0.4,1.7c0,0.8,0.1,1.3,0.4,1.7
		S235.5,138.1,236.1,138.1z"/>
	<path class="st5" d="M240.9,141.8v-9.5h1.2c0.2,0,0.4,0.1,0.5,0.3l0.1,0.6c0.1-0.2,0.3-0.3,0.5-0.4c0.2-0.1,0.3-0.2,0.5-0.3
		s0.4-0.2,0.6-0.2c0.2-0.1,0.4-0.1,0.7-0.1c0.4,0,0.7,0.1,1.1,0.2c0.3,0.2,0.6,0.4,0.8,0.7c0.2,0.3,0.4,0.7,0.5,1.2s0.2,1,0.2,1.6
		c0,0.5-0.1,1-0.2,1.5c-0.1,0.5-0.4,0.9-0.6,1.2c-0.3,0.3-0.6,0.6-1,0.8c-0.4,0.2-0.8,0.3-1.3,0.3c-0.4,0-0.7-0.1-1-0.2
		c-0.3-0.1-0.5-0.3-0.7-0.5v2.9H240.9z M244.3,133.6c-0.3,0-0.6,0.1-0.9,0.2c-0.2,0.1-0.4,0.3-0.7,0.6v3.2c0.2,0.2,0.4,0.4,0.6,0.4
		s0.4,0.1,0.7,0.1c0.2,0,0.4,0,0.6-0.1c0.2-0.1,0.4-0.2,0.5-0.4s0.2-0.4,0.3-0.7s0.1-0.6,0.1-1.1c0-0.4,0-0.7-0.1-1
		c-0.1-0.3-0.2-0.5-0.3-0.7s-0.3-0.3-0.4-0.4C244.7,133.6,244.5,133.6,244.3,133.6z"/>
	<path class="st5" d="M253.4,133.7c-0.1,0.1-0.1,0.1-0.2,0.2s-0.1,0.1-0.2,0.1c-0.1,0-0.2,0-0.3-0.1c-0.1,0-0.2-0.1-0.3-0.2
		c-0.1-0.1-0.3-0.1-0.4-0.2s-0.3-0.1-0.5-0.1c-0.3,0-0.6,0.1-0.7,0.2c-0.2,0.1-0.3,0.3-0.3,0.5c0,0.1,0,0.3,0.1,0.4
		c0.1,0.1,0.2,0.2,0.4,0.3c0.2,0.1,0.3,0.1,0.5,0.2c0.2,0.1,0.4,0.1,0.6,0.2c0.2,0.1,0.4,0.2,0.6,0.3c0.2,0.1,0.4,0.2,0.5,0.4
		c0.2,0.1,0.3,0.3,0.4,0.5c0.1,0.2,0.1,0.5,0.1,0.8c0,0.3-0.1,0.7-0.2,1s-0.3,0.6-0.6,0.8c-0.2,0.2-0.6,0.4-0.9,0.5
		s-0.8,0.2-1.3,0.2c-0.2,0-0.5,0-0.7-0.1s-0.5-0.1-0.7-0.2c-0.2-0.1-0.4-0.2-0.6-0.3c-0.2-0.1-0.4-0.2-0.5-0.3l0.4-0.7
		c0.1-0.1,0.1-0.2,0.2-0.2c0.1,0,0.2-0.1,0.3-0.1c0.1,0,0.2,0,0.3,0.1c0.1,0.1,0.2,0.1,0.3,0.2c0.1,0.1,0.3,0.1,0.4,0.2
		c0.2,0.1,0.4,0.1,0.6,0.1c0.2,0,0.3,0,0.5-0.1c0.1,0,0.2-0.1,0.3-0.2s0.1-0.2,0.2-0.2c0-0.1,0.1-0.2,0.1-0.3c0-0.2-0.1-0.3-0.2-0.4
		c-0.1-0.1-0.2-0.2-0.4-0.3c-0.2-0.1-0.3-0.1-0.6-0.2c-0.2-0.1-0.4-0.1-0.6-0.2c-0.2-0.1-0.4-0.2-0.6-0.3c-0.2-0.1-0.4-0.2-0.6-0.4
		c-0.2-0.2-0.3-0.3-0.4-0.6c-0.1-0.2-0.2-0.5-0.2-0.8c0-0.3,0.1-0.6,0.2-0.9c0.1-0.3,0.3-0.5,0.5-0.7c0.2-0.2,0.5-0.4,0.9-0.5
		c0.3-0.1,0.8-0.2,1.2-0.2c0.5,0,1,0.1,1.4,0.3s0.8,0.4,1,0.7L253.4,133.7z"/>
	<path class="st5" d="M258.2,132.1c0.5,0,0.9,0.1,1.3,0.2c0.4,0.1,0.7,0.4,1,0.6c0.3,0.3,0.5,0.6,0.7,1c0.2,0.4,0.2,0.9,0.2,1.4
		c0,0.1,0,0.3,0,0.4c0,0.1,0,0.2-0.1,0.2c0,0.1-0.1,0.1-0.1,0.1c-0.1,0-0.1,0-0.2,0h-4.3c0.1,0.7,0.3,1.2,0.6,1.5
		c0.3,0.3,0.8,0.5,1.3,0.5c0.3,0,0.5,0,0.7-0.1s0.4-0.1,0.5-0.2c0.1-0.1,0.3-0.1,0.4-0.2c0.1-0.1,0.2-0.1,0.4-0.1
		c0.1,0,0.3,0.1,0.3,0.2l0.6,0.7c-0.2,0.2-0.4,0.4-0.7,0.6c-0.2,0.2-0.5,0.3-0.8,0.4c-0.3,0.1-0.5,0.2-0.8,0.2
		c-0.3,0-0.5,0.1-0.8,0.1c-0.5,0-1-0.1-1.4-0.2c-0.4-0.2-0.8-0.4-1.1-0.7s-0.6-0.7-0.8-1.2s-0.3-1-0.3-1.7c0-0.5,0.1-1,0.2-1.4
		c0.2-0.4,0.4-0.8,0.7-1.1c0.3-0.3,0.7-0.6,1.1-0.8S257.7,132.1,258.2,132.1z M258.2,133.5c-0.5,0-0.8,0.1-1.1,0.4s-0.4,0.6-0.5,1.1
		h3c0-0.2,0-0.4-0.1-0.6s-0.1-0.3-0.3-0.5s-0.3-0.3-0.4-0.3C258.7,133.5,258.5,133.5,258.2,133.5z"/>
	<path class="st5" d="M265.7,132.1c0.5,0,0.9,0.1,1.3,0.2c0.4,0.1,0.7,0.4,1,0.6c0.3,0.3,0.5,0.6,0.7,1c0.2,0.4,0.2,0.9,0.2,1.4
		c0,0.1,0,0.3,0,0.4c0,0.1,0,0.2-0.1,0.2c0,0.1-0.1,0.1-0.1,0.1c-0.1,0-0.1,0-0.2,0h-4.3c0.1,0.7,0.3,1.2,0.6,1.5
		c0.3,0.3,0.8,0.5,1.3,0.5c0.3,0,0.5,0,0.7-0.1s0.4-0.1,0.5-0.2c0.1-0.1,0.3-0.1,0.4-0.2c0.1-0.1,0.2-0.1,0.4-0.1
		c0.1,0,0.3,0.1,0.3,0.2l0.6,0.7c-0.2,0.2-0.4,0.4-0.7,0.6c-0.2,0.2-0.5,0.3-0.8,0.4c-0.3,0.1-0.5,0.2-0.8,0.2
		c-0.3,0-0.5,0.1-0.8,0.1c-0.5,0-1-0.1-1.4-0.2c-0.4-0.2-0.8-0.4-1.1-0.7s-0.6-0.7-0.8-1.2s-0.3-1-0.3-1.7c0-0.5,0.1-1,0.2-1.4
		c0.2-0.4,0.4-0.8,0.7-1.1c0.3-0.3,0.7-0.6,1.1-0.8S265.2,132.1,265.7,132.1z M265.7,133.5c-0.5,0-0.8,0.1-1.1,0.4s-0.4,0.6-0.5,1.1
		h3c0-0.2,0-0.4-0.1-0.6s-0.1-0.3-0.3-0.5s-0.3-0.3-0.4-0.3C266.2,133.5,266,133.5,265.7,133.5z"/>
</g>
<g>
	<path class="st6" d="M316.1,139.5c-0.5,0-1-0.1-1.4-0.2c-0.4-0.1-0.8-0.3-1.1-0.6c-0.3-0.3-0.5-0.6-0.7-0.9s-0.3-0.8-0.3-1.2
		c0-0.6,0.2-1.1,0.5-1.5s0.8-0.7,1.4-0.9c-0.5-0.2-0.9-0.5-1.1-0.9c-0.3-0.4-0.4-0.8-0.4-1.4c0-0.4,0.1-0.7,0.2-1.1s0.4-0.6,0.6-0.9
		s0.6-0.4,1-0.6c0.4-0.1,0.8-0.2,1.3-0.2c0.5,0,0.9,0.1,1.3,0.2c0.4,0.1,0.7,0.3,1,0.6c0.3,0.2,0.5,0.5,0.6,0.9s0.2,0.7,0.2,1.1
		c0,0.5-0.1,1-0.4,1.4c-0.3,0.4-0.6,0.7-1.1,0.9c0.6,0.2,1.1,0.5,1.4,0.9s0.5,0.9,0.5,1.5c0,0.4-0.1,0.8-0.3,1.2s-0.4,0.7-0.7,0.9
		c-0.3,0.3-0.7,0.4-1.1,0.6C317,139.4,316.6,139.5,316.1,139.5z M316.1,138.3c0.3,0,0.6,0,0.8-0.1c0.2-0.1,0.4-0.2,0.6-0.4
		c0.2-0.2,0.3-0.3,0.4-0.6s0.1-0.4,0.1-0.7c0-0.3,0-0.6-0.1-0.8c-0.1-0.2-0.2-0.4-0.4-0.6c-0.2-0.1-0.4-0.3-0.6-0.3
		c-0.2-0.1-0.5-0.1-0.8-0.1c-0.3,0-0.5,0-0.8,0.1c-0.2,0.1-0.4,0.2-0.6,0.3c-0.2,0.1-0.3,0.3-0.4,0.6c-0.1,0.2-0.1,0.5-0.1,0.8
		c0,0.3,0,0.5,0.1,0.7s0.2,0.4,0.4,0.6c0.2,0.2,0.4,0.3,0.6,0.4S315.8,138.3,316.1,138.3z M316.1,133.5c0.3,0,0.6,0,0.8-0.1
		c0.2-0.1,0.4-0.2,0.5-0.4c0.1-0.2,0.2-0.3,0.3-0.5c0.1-0.2,0.1-0.4,0.1-0.6s0-0.4-0.1-0.6c-0.1-0.2-0.2-0.4-0.3-0.5
		c-0.1-0.1-0.3-0.3-0.5-0.3s-0.4-0.1-0.7-0.1s-0.5,0-0.7,0.1c-0.2,0.1-0.4,0.2-0.5,0.3c-0.1,0.1-0.2,0.3-0.3,0.5s-0.1,0.4-0.1,0.6
		s0,0.4,0.1,0.6c0.1,0.2,0.2,0.4,0.3,0.5c0.1,0.2,0.3,0.3,0.5,0.4C315.5,133.5,315.8,133.5,316.1,133.5z"/>
	<path class="st6" d="M320.9,133.4c0-0.1,0-0.3,0.1-0.4s0.1-0.2,0.2-0.3c0.1-0.1,0.2-0.2,0.3-0.2c0.1-0.1,0.2-0.1,0.4-0.1
		s0.3,0,0.4,0.1c0.1,0.1,0.2,0.1,0.3,0.2c0.1,0.1,0.2,0.2,0.2,0.3c0.1,0.1,0.1,0.2,0.1,0.4c0,0.1,0,0.3-0.1,0.4
		c-0.1,0.1-0.1,0.2-0.2,0.3c-0.1,0.1-0.2,0.2-0.3,0.2c-0.1,0-0.2,0.1-0.4,0.1s-0.3,0-0.4-0.1c-0.1,0-0.2-0.1-0.3-0.2
		c-0.1-0.1-0.2-0.2-0.2-0.3C320.9,133.7,320.9,133.5,320.9,133.4z M320.9,138.5c0-0.1,0-0.3,0.1-0.4s0.1-0.2,0.2-0.3
		c0.1-0.1,0.2-0.2,0.3-0.2c0.1-0.1,0.2-0.1,0.4-0.1s0.3,0,0.4,0.1c0.1,0.1,0.2,0.1,0.3,0.2c0.1,0.1,0.2,0.2,0.2,0.3
		c0.1,0.1,0.1,0.2,0.1,0.4c0,0.1,0,0.3-0.1,0.4c-0.1,0.1-0.1,0.2-0.2,0.3c-0.1,0.1-0.2,0.2-0.3,0.2c-0.1,0-0.2,0.1-0.4,0.1
		s-0.3,0-0.4-0.1c-0.1,0-0.2-0.1-0.3-0.2c-0.1-0.1-0.2-0.2-0.2-0.3S320.9,138.6,320.9,138.5z"/>
	<path class="st6" d="M330.6,129.9c0,0.2-0.1,0.4-0.2,0.5c-0.1,0.1-0.4,0.2-0.7,0.2h-3l-0.4,2.3c0.5-0.1,0.9-0.1,1.3-0.1
		c0.5,0,1,0.1,1.4,0.2s0.7,0.4,1,0.6s0.5,0.6,0.6,1s0.2,0.8,0.2,1.2c0,0.5-0.1,1-0.3,1.5c-0.2,0.4-0.4,0.8-0.8,1.1s-0.7,0.5-1.2,0.7
		c-0.5,0.2-0.9,0.3-1.5,0.3c-0.3,0-0.6,0-0.9-0.1c-0.3-0.1-0.5-0.1-0.8-0.2c-0.2-0.1-0.5-0.2-0.7-0.4s-0.4-0.3-0.6-0.4l0.5-0.6
		c0.1-0.1,0.2-0.2,0.4-0.2c0.1,0,0.2,0,0.3,0.1s0.3,0.2,0.4,0.2c0.2,0.1,0.4,0.2,0.6,0.2s0.5,0.1,0.8,0.1c0.3,0,0.6-0.1,0.9-0.2
		c0.3-0.1,0.5-0.3,0.7-0.5s0.3-0.4,0.4-0.7s0.1-0.6,0.1-0.9c0-0.3,0-0.6-0.1-0.8c-0.1-0.2-0.2-0.4-0.4-0.6c-0.2-0.2-0.4-0.3-0.6-0.4
		c-0.3-0.1-0.6-0.1-0.9-0.1c-0.2,0-0.5,0-0.8,0.1c-0.3,0-0.5,0.1-0.8,0.2l-0.9-0.3l0.8-4.8h4.9V129.9z"/>
	<path class="st6" d="M338.2,135.6h1.4v0.9c0,0.1,0,0.2-0.1,0.2s-0.1,0.1-0.2,0.1h-1.1v2.5h-1.3v-2.5h-4.4c-0.1,0-0.2,0-0.3-0.1
		c-0.1-0.1-0.1-0.1-0.2-0.2l-0.2-0.8l4.8-6.4h1.4V135.6z M336.8,132c0-0.1,0-0.3,0-0.5s0-0.3,0-0.5l-3.4,4.6h3.3V132z"/>
	<path class="st6" d="M346.2,135.7v3.6h-1.6v-10.1h3.1c0.7,0,1.2,0.1,1.7,0.2c0.5,0.2,0.9,0.4,1.2,0.6c0.3,0.3,0.5,0.6,0.7,1
		s0.2,0.8,0.2,1.3c0,0.5-0.1,0.9-0.2,1.3c-0.2,0.4-0.4,0.7-0.7,1s-0.7,0.5-1.2,0.7c-0.5,0.2-1,0.2-1.7,0.2H346.2z M346.2,134.4h1.5
		c0.4,0,0.7,0,1-0.1c0.3-0.1,0.5-0.2,0.7-0.4c0.2-0.2,0.3-0.4,0.4-0.6c0.1-0.2,0.1-0.5,0.1-0.8c0-0.3,0-0.6-0.1-0.8
		c-0.1-0.2-0.2-0.4-0.4-0.6c-0.2-0.2-0.4-0.3-0.7-0.4c-0.3-0.1-0.6-0.1-1-0.1h-1.5V134.4z"/>
	<path class="st6" d="M358.4,135.8c0.1,0.1,0.1,0.3,0.2,0.4c0.1-0.1,0.1-0.3,0.2-0.4s0.1-0.3,0.2-0.4l3.2-5.8
		c0.1-0.1,0.1-0.2,0.2-0.2s0.2,0,0.3,0h1.2v10.1h-1.4v-6.9c0-0.1,0-0.2,0-0.4c0-0.1,0-0.3,0-0.4l-3.2,6c-0.1,0.2-0.3,0.4-0.6,0.4
		h-0.2c-0.3,0-0.5-0.1-0.6-0.4l-3.3-6c0,0.1,0,0.3,0,0.4c0,0.1,0,0.3,0,0.4v6.9h-1.4v-10.1h1.2c0.1,0,0.3,0,0.3,0
		c0.1,0,0.2,0.1,0.2,0.2l3.2,5.9C358.2,135.5,358.3,135.7,358.4,135.8z"/>
</g>
<g>
	<path class="st7" d="M233.1,159.6v-12h2.5v0.6c0,0.1,0,0.2-0.1,0.3s-0.2,0.1-0.3,0.1h-1v10.1h1c0.1,0,0.2,0,0.3,0.1
		c0.1,0.1,0.1,0.2,0.1,0.3v0.6H233.1z"/>
	<path class="st7" d="M236.5,157.6V151h0.8c0.1,0,0.2,0,0.3,0.1c0.1,0.1,0.1,0.1,0.1,0.3l0.1,0.9c0.2-0.4,0.5-0.8,0.8-1
		c0.3-0.2,0.6-0.4,1.1-0.4c0.1,0,0.3,0,0.4,0c0.1,0,0.2,0.1,0.3,0.1l-0.1,1.1c0,0.1,0,0.1-0.1,0.2c0,0-0.1,0-0.1,0
		c-0.1,0-0.2,0-0.3,0c-0.1,0-0.2,0-0.4,0c-0.2,0-0.4,0-0.5,0.1c-0.2,0.1-0.3,0.1-0.4,0.2c-0.1,0.1-0.2,0.2-0.3,0.4
		c-0.1,0.2-0.2,0.3-0.3,0.5v4.1H236.5z"/>
	<path class="st7" d="M243.9,150.9c0.4,0,0.8,0.1,1.1,0.2c0.3,0.1,0.6,0.3,0.9,0.6c0.3,0.3,0.4,0.6,0.6,0.9s0.2,0.8,0.2,1.3
		c0,0.2,0,0.4-0.1,0.4c0,0.1-0.1,0.1-0.3,0.1h-4.3c0,0.4,0.1,0.7,0.2,1c0.1,0.3,0.2,0.5,0.4,0.7c0.2,0.2,0.4,0.3,0.6,0.4
		c0.2,0.1,0.5,0.1,0.8,0.1c0.3,0,0.5,0,0.7-0.1c0.2-0.1,0.4-0.1,0.5-0.2c0.1-0.1,0.3-0.1,0.4-0.2c0.1-0.1,0.2-0.1,0.3-0.1
		c0.1,0,0.2,0,0.3,0.1l0.4,0.5c-0.2,0.2-0.4,0.4-0.6,0.5s-0.4,0.2-0.7,0.3s-0.5,0.1-0.7,0.2s-0.5,0.1-0.7,0.1
		c-0.5,0-0.9-0.1-1.3-0.2c-0.4-0.2-0.7-0.4-1-0.7c-0.3-0.3-0.5-0.7-0.7-1.1s-0.2-1-0.2-1.5c0-0.5,0.1-0.9,0.2-1.3
		c0.1-0.4,0.4-0.7,0.6-1s0.6-0.5,1-0.7C243,151,243.4,150.9,243.9,150.9z M243.9,151.9c-0.5,0-0.9,0.1-1.2,0.4
		c-0.3,0.3-0.5,0.7-0.6,1.2h3.3c0-0.2,0-0.5-0.1-0.7c-0.1-0.2-0.2-0.4-0.3-0.5c-0.1-0.1-0.3-0.3-0.5-0.4
		C244.4,151.9,244.2,151.9,243.9,151.9z"/>
	<path class="st7" d="M252,152.2c0,0.1-0.1,0.1-0.1,0.1c0,0-0.1,0-0.2,0c-0.1,0-0.2,0-0.2-0.1c-0.1,0-0.2-0.1-0.3-0.2
		c-0.1-0.1-0.3-0.1-0.4-0.2c-0.2,0-0.3-0.1-0.6-0.1c-0.2,0-0.3,0-0.5,0.1c-0.1,0-0.3,0.1-0.4,0.2c-0.1,0.1-0.2,0.2-0.2,0.3
		c-0.1,0.1-0.1,0.2-0.1,0.3c0,0.2,0,0.3,0.1,0.4s0.2,0.2,0.4,0.3c0.2,0.1,0.3,0.1,0.5,0.2s0.4,0.1,0.6,0.2c0.2,0.1,0.4,0.2,0.6,0.2
		c0.2,0.1,0.4,0.2,0.5,0.3c0.2,0.1,0.3,0.3,0.4,0.5s0.1,0.4,0.1,0.7c0,0.3-0.1,0.6-0.2,0.9c-0.1,0.3-0.3,0.5-0.5,0.7
		c-0.2,0.2-0.5,0.3-0.8,0.5s-0.7,0.2-1.1,0.2c-0.2,0-0.5,0-0.7-0.1s-0.4-0.1-0.6-0.2c-0.2-0.1-0.4-0.2-0.5-0.3
		c-0.2-0.1-0.3-0.2-0.4-0.3l0.3-0.5c0-0.1,0.1-0.1,0.1-0.2c0.1,0,0.1-0.1,0.2-0.1c0.1,0,0.2,0,0.3,0.1s0.2,0.1,0.3,0.2
		s0.3,0.1,0.4,0.2c0.2,0.1,0.4,0.1,0.6,0.1c0.2,0,0.4,0,0.5-0.1c0.2,0,0.3-0.1,0.4-0.2s0.2-0.2,0.2-0.3c0-0.1,0.1-0.2,0.1-0.4
		c0-0.2,0-0.3-0.1-0.4c-0.1-0.1-0.2-0.2-0.4-0.3c-0.2-0.1-0.3-0.1-0.5-0.2c-0.2-0.1-0.4-0.1-0.6-0.2c-0.2-0.1-0.4-0.1-0.6-0.2
		c-0.2-0.1-0.4-0.2-0.5-0.3s-0.3-0.3-0.4-0.5c-0.1-0.2-0.1-0.4-0.1-0.7c0-0.3,0.1-0.5,0.2-0.8c0.1-0.2,0.3-0.4,0.5-0.6
		c0.2-0.2,0.5-0.3,0.8-0.4c0.3-0.1,0.6-0.2,1-0.2c0.4,0,0.9,0.1,1.2,0.2c0.4,0.1,0.7,0.3,0.9,0.6L252,152.2z"/>
	<path class="st7" d="M255.8,157.7c-0.6,0-1-0.2-1.3-0.5c-0.3-0.3-0.4-0.7-0.4-1.3v-3.9h-0.7c-0.1,0-0.1,0-0.2-0.1
		c-0.1,0-0.1-0.1-0.1-0.2v-0.6l1.1-0.2l0.3-1.9c0-0.1,0.1-0.1,0.1-0.2c0.1,0,0.1-0.1,0.2-0.1h0.7v2.2h1.8v1h-1.8v3.8
		c0,0.2,0.1,0.4,0.2,0.5c0.1,0.1,0.3,0.2,0.5,0.2c0.1,0,0.2,0,0.3,0c0.1,0,0.1-0.1,0.2-0.1c0.1,0,0.1-0.1,0.1-0.1s0.1,0,0.1,0
		c0.1,0,0.1,0,0.2,0.1l0.4,0.7c-0.2,0.2-0.5,0.3-0.8,0.4C256.4,157.7,256.1,157.7,255.8,157.7z"/>
	<path class="st7" d="M262.7,157.6c-0.1,0-0.2,0-0.3-0.1c-0.1,0-0.1-0.1-0.2-0.2l-0.1-0.5c-0.2,0.2-0.3,0.3-0.5,0.4
		c-0.2,0.1-0.3,0.2-0.5,0.3c-0.2,0.1-0.4,0.1-0.6,0.2c-0.2,0-0.4,0.1-0.7,0.1c-0.3,0-0.5,0-0.8-0.1c-0.2-0.1-0.4-0.2-0.6-0.3
		c-0.2-0.2-0.3-0.3-0.4-0.6c-0.1-0.2-0.1-0.5-0.1-0.8c0-0.3,0.1-0.5,0.2-0.7c0.1-0.2,0.4-0.5,0.7-0.7c0.3-0.2,0.7-0.4,1.2-0.5
		c0.5-0.1,1.1-0.2,1.9-0.2v-0.4c0-0.5-0.1-0.8-0.3-1.1s-0.5-0.4-0.9-0.4c-0.3,0-0.5,0-0.7,0.1c-0.2,0.1-0.3,0.1-0.5,0.2
		s-0.3,0.2-0.4,0.2c-0.1,0.1-0.2,0.1-0.3,0.1c-0.1,0-0.2,0-0.2-0.1c-0.1,0-0.1-0.1-0.2-0.2l-0.3-0.5c0.7-0.7,1.6-1,2.7-1
		c0.4,0,0.7,0.1,1,0.2s0.5,0.3,0.7,0.5c0.2,0.2,0.4,0.5,0.5,0.8c0.1,0.3,0.2,0.7,0.2,1v4.2H262.7z M260.3,156.7
		c0.4,0,0.7-0.1,0.9-0.2c0.3-0.1,0.5-0.3,0.8-0.6v-1.2c-0.5,0-0.9,0.1-1.3,0.1s-0.6,0.1-0.8,0.2c-0.2,0.1-0.4,0.2-0.5,0.3
		c-0.1,0.1-0.1,0.3-0.1,0.4c0,0.2,0,0.3,0.1,0.4c0,0.1,0.1,0.2,0.2,0.3c0.1,0.1,0.2,0.1,0.3,0.2S260.1,156.7,260.3,156.7z"/>
	<path class="st7" d="M265,157.6V151h0.8c0.1,0,0.2,0,0.3,0.1c0.1,0.1,0.1,0.1,0.1,0.3l0.1,0.9c0.2-0.4,0.5-0.8,0.8-1
		c0.3-0.2,0.6-0.4,1.1-0.4c0.1,0,0.3,0,0.4,0c0.1,0,0.2,0.1,0.3,0.1l-0.1,1.1c0,0.1,0,0.1-0.1,0.2c0,0-0.1,0-0.1,0
		c-0.1,0-0.2,0-0.3,0c-0.1,0-0.2,0-0.4,0c-0.2,0-0.4,0-0.5,0.1c-0.2,0.1-0.3,0.1-0.4,0.2c-0.1,0.1-0.2,0.2-0.3,0.4
		c-0.1,0.2-0.2,0.3-0.3,0.5v4.1H265z"/>
	<path class="st7" d="M271.9,157.7c-0.6,0-1-0.2-1.3-0.5c-0.3-0.3-0.4-0.7-0.4-1.3v-3.9h-0.7c-0.1,0-0.1,0-0.2-0.1
		c-0.1,0-0.1-0.1-0.1-0.2v-0.6l1.1-0.2l0.3-1.9c0-0.1,0.1-0.1,0.1-0.2c0.1,0,0.1-0.1,0.2-0.1h0.7v2.2h1.8v1h-1.8v3.8
		c0,0.2,0.1,0.4,0.2,0.5c0.1,0.1,0.3,0.2,0.5,0.2c0.1,0,0.2,0,0.3,0c0.1,0,0.1-0.1,0.2-0.1c0.1,0,0.1-0.1,0.1-0.1s0.1,0,0.1,0
		c0.1,0,0.1,0,0.2,0.1l0.4,0.7c-0.2,0.2-0.5,0.3-0.8,0.4C272.5,157.7,272.2,157.7,271.9,157.7z"/>
	<path class="st7" d="M274,159c0-0.1,0-0.2,0.1-0.3c0.1-0.1,0.2-0.1,0.3-0.1h1v-10.1h-1c-0.1,0-0.2,0-0.3-0.1s-0.1-0.2-0.1-0.3v-0.6
		h2.5v12H274V159z"/>
	<path class="st7" d="M280.8,151h1.1c0.1,0,0.2,0,0.3,0.1c0.1,0.1,0.1,0.1,0.1,0.2l1.1,3.9c0,0.2,0.1,0.4,0.1,0.5
		c0,0.2,0.1,0.3,0.1,0.5c0-0.2,0.1-0.3,0.1-0.5c0-0.2,0.1-0.3,0.2-0.5l1.2-3.9c0-0.1,0.1-0.1,0.1-0.2c0.1,0,0.1-0.1,0.2-0.1h0.6
		c0.1,0,0.2,0,0.3,0.1s0.1,0.1,0.1,0.2l1.2,3.9c0,0.2,0.1,0.4,0.1,0.5c0,0.2,0.1,0.3,0.1,0.5c0.1-0.3,0.1-0.7,0.2-1l1.1-3.9
		c0-0.1,0.1-0.1,0.1-0.2c0.1-0.1,0.2-0.1,0.3-0.1h1.1l-2.1,6.6h-1.1c-0.1,0-0.2-0.1-0.3-0.3l-1.3-4.1c0-0.1-0.1-0.2-0.1-0.3
		c0-0.1-0.1-0.2-0.1-0.3c0,0.2-0.1,0.5-0.2,0.7l-1.3,4.1c0,0.2-0.1,0.3-0.3,0.3H283L280.8,151z"/>
	<path class="st7" d="M294.5,150.9c0.4,0,0.8,0.1,1.1,0.2c0.3,0.1,0.6,0.3,0.9,0.6c0.3,0.3,0.4,0.6,0.6,0.9s0.2,0.8,0.2,1.3
		c0,0.2,0,0.4-0.1,0.4c0,0.1-0.1,0.1-0.3,0.1h-4.3c0,0.4,0.1,0.7,0.2,1c0.1,0.3,0.2,0.5,0.4,0.7c0.2,0.2,0.4,0.3,0.6,0.4
		c0.2,0.1,0.5,0.1,0.8,0.1c0.3,0,0.5,0,0.7-0.1c0.2-0.1,0.4-0.1,0.5-0.2c0.1-0.1,0.3-0.1,0.4-0.2c0.1-0.1,0.2-0.1,0.3-0.1
		c0.1,0,0.2,0,0.3,0.1l0.4,0.5c-0.2,0.2-0.4,0.4-0.6,0.5s-0.4,0.2-0.7,0.3s-0.5,0.1-0.7,0.2s-0.5,0.1-0.7,0.1
		c-0.5,0-0.9-0.1-1.3-0.2c-0.4-0.2-0.7-0.4-1-0.7c-0.3-0.3-0.5-0.7-0.7-1.1s-0.2-1-0.2-1.5c0-0.5,0.1-0.9,0.2-1.3
		c0.1-0.4,0.4-0.7,0.6-1s0.6-0.5,1-0.7C293.6,151,294,150.9,294.5,150.9z M294.5,151.9c-0.5,0-0.9,0.1-1.2,0.4
		c-0.3,0.3-0.5,0.7-0.6,1.2h3.3c0-0.2,0-0.5-0.1-0.7c-0.1-0.2-0.2-0.4-0.3-0.5c-0.1-0.1-0.3-0.3-0.5-0.4
		C295,151.9,294.8,151.9,294.5,151.9z"/>
	<path class="st7" d="M298.6,157.6V148h1.4v3.9c0.3-0.3,0.6-0.5,0.9-0.7s0.7-0.3,1.2-0.3c0.4,0,0.7,0.1,1,0.2
		c0.3,0.1,0.6,0.4,0.8,0.6c0.2,0.3,0.4,0.6,0.5,1c0.1,0.4,0.2,0.9,0.2,1.4c0,0.5-0.1,1-0.2,1.5s-0.3,0.8-0.6,1.1
		c-0.2,0.3-0.5,0.6-0.9,0.7c-0.4,0.2-0.7,0.3-1.2,0.3c-0.2,0-0.4,0-0.6-0.1s-0.3-0.1-0.5-0.2c-0.1-0.1-0.3-0.2-0.4-0.3
		c-0.1-0.1-0.2-0.2-0.4-0.4l-0.1,0.5c0,0.1-0.1,0.2-0.1,0.2c-0.1,0-0.1,0.1-0.2,0.1H298.6z M301.7,152c-0.3,0-0.6,0.1-0.9,0.2
		c-0.3,0.2-0.5,0.4-0.7,0.7v3.1c0.2,0.3,0.4,0.4,0.6,0.5s0.5,0.2,0.8,0.2c0.6,0,1-0.2,1.3-0.6s0.5-1,0.5-1.9c0-0.8-0.1-1.3-0.4-1.7
		S302.1,152,301.7,152z"/>
	<path class="st7" d="M312.3,152.9c0,0.8-0.1,1.5-0.3,2.1c-0.2,0.6-0.4,1.1-0.7,1.5c-0.3,0.4-0.7,0.7-1.1,0.9s-0.9,0.3-1.3,0.3
		c-0.5,0-0.9-0.1-1.3-0.3c-0.4-0.2-0.8-0.5-1.1-0.9c-0.3-0.4-0.5-0.9-0.7-1.5c-0.2-0.6-0.3-1.3-0.3-2.1c0-0.8,0.1-1.5,0.3-2.1
		c0.2-0.6,0.4-1.1,0.7-1.5c0.3-0.4,0.7-0.7,1.1-0.9c0.4-0.2,0.9-0.3,1.3-0.3c0.5,0,0.9,0.1,1.3,0.3s0.8,0.5,1.1,0.9
		c0.3,0.4,0.6,0.9,0.7,1.5C312.2,151.4,312.3,152.1,312.3,152.9z M310.9,152.9c0-0.7-0.1-1.3-0.2-1.7c-0.1-0.5-0.3-0.8-0.4-1.1
		s-0.4-0.5-0.6-0.6s-0.5-0.2-0.7-0.2c-0.3,0-0.5,0.1-0.7,0.2s-0.4,0.3-0.6,0.6s-0.3,0.6-0.4,1.1s-0.2,1-0.2,1.7
		c0,0.7,0.1,1.3,0.2,1.7c0.1,0.5,0.3,0.8,0.4,1.1s0.4,0.5,0.6,0.6s0.5,0.2,0.7,0.2c0.3,0,0.5-0.1,0.7-0.2s0.4-0.3,0.6-0.6
		s0.3-0.6,0.4-1.1C310.8,154.2,310.9,153.6,310.9,152.9z"/>
	<path class="st7" d="M314.2,156.6h2v-5.9c0-0.2,0-0.4,0-0.6l-1.5,1.3c-0.1,0.1-0.1,0.1-0.2,0.1c-0.1,0-0.1,0-0.2,0
		c-0.1,0-0.1,0-0.2-0.1c0,0-0.1-0.1-0.1-0.1l-0.4-0.6l2.8-2.4h1.1v8.3h1.8v1.1h-5.1V156.6z"/>
</g>
<g>
	<path class="st9" d="M281.2,138.4v-7.2h2.4c0.5,0,0.9,0,1.2,0.1c0.3,0.1,0.6,0.2,0.8,0.4s0.4,0.4,0.5,0.6c0.1,0.2,0.1,0.5,0.1,0.8
		c0,0.2,0,0.3-0.1,0.5c-0.1,0.2-0.1,0.3-0.2,0.4s-0.2,0.3-0.4,0.4c-0.2,0.1-0.4,0.2-0.6,0.3c0.5,0.1,0.9,0.3,1.1,0.6
		s0.4,0.6,0.4,1.1c0,0.3-0.1,0.6-0.2,0.8c-0.1,0.3-0.3,0.5-0.5,0.7s-0.5,0.3-0.8,0.4c-0.3,0.1-0.7,0.2-1.1,0.2H281.2z M282.3,134.4
		h1.2c0.5,0,0.9-0.1,1.1-0.3c0.2-0.2,0.4-0.5,0.4-0.8c0-0.4-0.1-0.7-0.3-0.9c-0.2-0.2-0.6-0.3-1.1-0.3h-1.2V134.4z M282.3,135.2v2.3
		h1.5c0.3,0,0.5,0,0.7-0.1c0.2-0.1,0.3-0.1,0.4-0.3c0.1-0.1,0.2-0.2,0.2-0.4c0.1-0.1,0.1-0.3,0.1-0.5c0-0.3-0.1-0.6-0.3-0.8
		c-0.2-0.2-0.6-0.3-1.1-0.3H282.3z"/>
	<path class="st9" d="M294.6,134.8c0,0.5-0.1,1-0.3,1.5c-0.2,0.4-0.4,0.8-0.7,1.2c-0.3,0.3-0.7,0.6-1.1,0.8
		c-0.4,0.2-0.9,0.3-1.5,0.3c-0.5,0-1-0.1-1.5-0.3c-0.4-0.2-0.8-0.4-1.1-0.8c-0.3-0.3-0.6-0.7-0.7-1.2c-0.2-0.5-0.3-0.9-0.3-1.5
		c0-0.5,0.1-1,0.3-1.5c0.2-0.4,0.4-0.8,0.7-1.2c0.3-0.3,0.7-0.6,1.1-0.8c0.4-0.2,0.9-0.3,1.5-0.3c0.5,0,1,0.1,1.5,0.3
		c0.4,0.2,0.8,0.4,1.1,0.8s0.6,0.7,0.7,1.2C294.5,133.8,294.6,134.3,294.6,134.8z M293.4,134.8c0-0.4-0.1-0.8-0.2-1.1
		c-0.1-0.3-0.3-0.6-0.5-0.8c-0.2-0.2-0.5-0.4-0.8-0.5c-0.3-0.1-0.6-0.2-1-0.2c-0.4,0-0.7,0.1-1,0.2c-0.3,0.1-0.5,0.3-0.8,0.5
		s-0.4,0.5-0.5,0.8s-0.2,0.7-0.2,1.1c0,0.4,0.1,0.8,0.2,1.1s0.3,0.6,0.5,0.8s0.5,0.4,0.8,0.5c0.3,0.1,0.6,0.2,1,0.2
		c0.4,0,0.7-0.1,1-0.2c0.3-0.1,0.5-0.3,0.8-0.5c0.2-0.2,0.4-0.5,0.5-0.8C293.3,135.6,293.4,135.2,293.4,134.8z"/>
	<path class="st9" d="M300.6,131.2v1h-2.2v6.2h-1.2v-6.2H295v-1H300.6z"/>
</g>
<g>
	<path class="st10" d="M222,149h-19c-1.1,0-2-0.9-2-2v-19c0-1.1,0.9-2,2-2h19c1.1,0,2,0.9,2,2v19C224,148.1,223.1,149,222,149z"/>
	<polygon class="st11" points="219.7,133.2 205.3,133.2 208.9,130.3 216.1,130.3 	"/>
	<rect x="205.3" y="133.2" class="st12" width="14.4" height="2.9"/>
	<rect x="205.3" y="136.1" class="st13" width="14.4" height="2.9"/>
	<rect x="205.3" y="138.9" class="st14" width="14.4" height="2.9"/>
	<polygon class="st15" points="216.1,144.7 208.9,144.7 205.3,141.8 219.7,141.8 	"/>
	<g>
		<path class="st2" d="M212.8,130.3c3.8,0,6.9,3.1,6.9,6.9v0.6c0,3.8-3.1,6.9-6.9,6.9h-0.6c-3.8,0-6.9-3.1-6.9-6.9v-0.6
			c0-3.8,3.1-6.9,6.9-6.9H212.8 M212.8,128.3h-0.6c-4.9,0-8.9,4-8.9,8.9v0.6c0,4.9,4,8.9,8.9,8.9h0.6c4.9,0,8.9-4,8.9-8.9v-0.6
			C221.7,132.3,217.7,128.3,212.8,128.3L212.8,128.3z"/>
	</g>
</g>
<rect x="192.7" y="-51" class="st17" width="234" height="29"/>
<g>
	<rect x="192.6" y="-22.2" class="st18" width="234" height="0.5"/>
</g>
<g>
	<path d="M240.1-34.4l-0.5,2.8h-1c-0.1,0-0.2,0-0.3-0.1c-0.1,0-0.2-0.1-0.2-0.2c-0.1-0.1-0.1-0.2-0.1-0.3c0-0.1,0-0.2,0-0.3l0.3-1.9
		h-1.2l-0.3,2c0,0.1-0.1,0.3-0.1,0.3c-0.1,0.1-0.1,0.2-0.2,0.2s-0.2,0.1-0.3,0.1s-0.2,0-0.3,0h-1l0.5-2.8h-0.6
		c-0.2,0-0.4-0.1-0.5-0.2s-0.1-0.3-0.1-0.7l0.1-0.7h1.2l0.3-1.7h-1.4l0.2-0.9c0-0.2,0.1-0.4,0.3-0.5c0.1-0.1,0.4-0.2,0.7-0.2h0.5
		l0.4-2.1c0-0.2,0.1-0.4,0.3-0.5c0.2-0.1,0.4-0.2,0.6-0.2h1l-0.5,2.8h1.2l0.5-2.8h1c0.1,0,0.2,0,0.3,0.1c0.1,0,0.2,0.1,0.2,0.2
		s0.1,0.1,0.1,0.2s0,0.2,0,0.3l-0.4,2h1.4l-0.2,0.9c0,0.2-0.1,0.4-0.3,0.5c-0.1,0.1-0.4,0.2-0.7,0.2h-0.4l-0.3,1.7h0.8
		c0.2,0,0.4,0.1,0.5,0.2c0.1,0.1,0.1,0.3,0.1,0.7l-0.1,0.7H240.1z M237.4-35.9h1.2l0.3-1.7h-1.2L237.4-35.9z"/>
	<path d="M243-31.6v-10.5h2.2v3.9c0.3-0.2,0.5-0.4,0.9-0.5s0.7-0.2,1.1-0.2c0.4,0,0.7,0.1,1.1,0.2s0.6,0.3,0.8,0.6
		c0.2,0.2,0.4,0.5,0.5,0.9s0.2,0.7,0.2,1.1v4.6h-2.2v-4.6c0-0.4-0.1-0.6-0.2-0.8c-0.2-0.2-0.4-0.3-0.7-0.3c-0.2,0-0.5,0.1-0.7,0.2
		s-0.4,0.2-0.6,0.4v5.2H243z"/>
	<path d="M253.6-31.5c-0.3,0-0.6,0-0.9-0.2c-0.3-0.1-0.5-0.2-0.7-0.4c-0.2-0.2-0.3-0.4-0.4-0.7c-0.1-0.3-0.1-0.6-0.1-0.9v-3.8h-0.6
		c-0.1,0-0.2,0-0.3-0.1c-0.1-0.1-0.1-0.2-0.1-0.3v-0.8l1.2-0.2l0.4-1.8c0.1-0.2,0.2-0.3,0.5-0.3h1.1v2.1h2.7l0.4-1.8
		c0.1-0.2,0.2-0.3,0.5-0.3h1.1v2.1h1.8v1.5h-1.8v3.6c0,0.2,0,0.3,0.1,0.4c0.1,0.1,0.2,0.2,0.4,0.2c0.1,0,0.1,0,0.2,0
		c0.1,0,0.1,0,0.1-0.1s0.1,0,0.1-0.1c0,0,0.1,0,0.1,0c0.1,0,0.1,0,0.2,0c0,0,0.1,0.1,0.1,0.1l0.7,1c-0.3,0.2-0.6,0.4-0.9,0.5
		s-0.7,0.2-1.1,0.2c-0.3,0-0.6,0-0.9-0.2c-0.3-0.1-0.5-0.2-0.7-0.4c-0.2-0.2-0.3-0.4-0.4-0.7c-0.1-0.3-0.1-0.6-0.1-0.9v-3.8h-2.6
		v3.6c0,0.2,0,0.3,0.1,0.4c0.1,0.1,0.2,0.2,0.4,0.2c0.1,0,0.1,0,0.2,0c0.1,0,0.1,0,0.1-0.1s0.1,0,0.1-0.1c0,0,0.1,0,0.1,0
		c0.1,0,0.1,0,0.2,0s0.1,0.1,0.1,0.1l0.7,1c-0.3,0.2-0.6,0.4-0.9,0.5S254-31.5,253.6-31.5z"/>
	<path d="M261.2-29.3v-9.6h1.3c0.3,0,0.4,0.1,0.5,0.4l0.2,0.5c0.1-0.2,0.3-0.3,0.5-0.4c0.2-0.1,0.3-0.2,0.5-0.3
		c0.2-0.1,0.4-0.2,0.6-0.2c0.2-0.1,0.4-0.1,0.7-0.1c0.4,0,0.7,0.1,1,0.3s0.6,0.4,0.8,0.7s0.4,0.7,0.5,1.2c0.1,0.5,0.2,1,0.2,1.6
		c0,0.5-0.1,1-0.2,1.5c-0.2,0.5-0.4,0.9-0.6,1.2c-0.3,0.3-0.6,0.6-1,0.8c-0.4,0.2-0.8,0.3-1.3,0.3c-0.4,0-0.7-0.1-1-0.2
		c-0.3-0.1-0.5-0.3-0.7-0.4v2.8H261.2z M264.7-37.4c-0.2,0-0.3,0-0.4,0c-0.1,0-0.2,0.1-0.4,0.1c-0.1,0.1-0.2,0.1-0.3,0.2
		s-0.2,0.2-0.3,0.3v3.1c0.2,0.2,0.3,0.3,0.5,0.4c0.2,0.1,0.4,0.1,0.6,0.1c0.2,0,0.4,0,0.6-0.1c0.2-0.1,0.3-0.2,0.4-0.4
		c0.1-0.2,0.2-0.4,0.3-0.7c0.1-0.3,0.1-0.6,0.1-1c0-0.4,0-0.7-0.1-1c-0.1-0.3-0.1-0.5-0.2-0.6s-0.2-0.3-0.4-0.3
		C265-37.3,264.9-37.4,264.7-37.4z"/>
	<path d="M274.6-30.9v1.4h-5.5v-1.4H274.6z"/>
	<path d="M280.6-37.3c-0.1,0.1-0.1,0.2-0.2,0.2c-0.1,0-0.1,0.1-0.2,0.1c-0.1,0-0.2,0-0.3-0.1c-0.1,0-0.2-0.1-0.3-0.1
		c-0.1-0.1-0.3-0.1-0.4-0.1s-0.3-0.1-0.5-0.1c-0.3,0-0.5,0.1-0.6,0.2c-0.1,0.1-0.2,0.3-0.2,0.4c0,0.1,0,0.2,0.1,0.3
		c0.1,0.1,0.2,0.2,0.4,0.2c0.2,0.1,0.3,0.1,0.5,0.2s0.4,0.1,0.6,0.2c0.2,0.1,0.4,0.2,0.6,0.3c0.2,0.1,0.4,0.2,0.5,0.4
		s0.3,0.3,0.4,0.5c0.1,0.2,0.1,0.5,0.1,0.8c0,0.4-0.1,0.7-0.2,1c-0.1,0.3-0.3,0.6-0.6,0.8c-0.3,0.2-0.6,0.4-1,0.5
		c-0.4,0.1-0.8,0.2-1.3,0.2c-0.2,0-0.5,0-0.7-0.1s-0.5-0.1-0.7-0.2c-0.2-0.1-0.4-0.2-0.6-0.3c-0.2-0.1-0.4-0.2-0.5-0.4l0.5-0.8
		c0.1-0.1,0.1-0.2,0.2-0.2c0.1-0.1,0.2-0.1,0.3-0.1c0.1,0,0.2,0,0.3,0.1c0.1,0.1,0.2,0.1,0.3,0.2c0.1,0.1,0.3,0.1,0.4,0.2
		c0.2,0.1,0.4,0.1,0.6,0.1c0.2,0,0.3,0,0.4-0.1c0.1,0,0.2-0.1,0.3-0.1s0.1-0.1,0.2-0.2s0-0.2,0-0.2c0-0.1,0-0.3-0.1-0.4
		c-0.1-0.1-0.2-0.2-0.4-0.2c-0.2-0.1-0.3-0.1-0.5-0.2c-0.2-0.1-0.4-0.1-0.6-0.2c-0.2-0.1-0.4-0.2-0.6-0.3c-0.2-0.1-0.4-0.2-0.5-0.4
		c-0.2-0.2-0.3-0.4-0.4-0.6c-0.1-0.2-0.1-0.5-0.1-0.8c0-0.3,0.1-0.6,0.2-0.9c0.1-0.3,0.3-0.5,0.5-0.7c0.2-0.2,0.5-0.4,0.9-0.5
		s0.8-0.2,1.3-0.2c0.3,0,0.5,0,0.8,0.1c0.2,0,0.5,0.1,0.7,0.2c0.2,0.1,0.4,0.2,0.6,0.3c0.2,0.1,0.3,0.2,0.5,0.4L280.6-37.3z"/>
	<path d="M285.5-39c0.5,0,0.9,0.1,1.3,0.2s0.7,0.4,1,0.7c0.3,0.3,0.5,0.6,0.7,1c0.2,0.4,0.2,0.9,0.2,1.4c0,0.2,0,0.3,0,0.4
		c0,0.1,0,0.2-0.1,0.2c0,0.1-0.1,0.1-0.2,0.1c-0.1,0-0.1,0-0.2,0h-4.2c0.1,0.6,0.3,1,0.6,1.3c0.3,0.3,0.7,0.4,1.2,0.4
		c0.3,0,0.5,0,0.7-0.1s0.3-0.1,0.5-0.2c0.1-0.1,0.3-0.1,0.4-0.2c0.1-0.1,0.2-0.1,0.4-0.1c0.2,0,0.3,0.1,0.4,0.2l0.6,0.8
		c-0.2,0.3-0.5,0.5-0.7,0.6c-0.3,0.2-0.5,0.3-0.8,0.4c-0.3,0.1-0.5,0.2-0.8,0.2s-0.5,0.1-0.8,0.1c-0.5,0-1-0.1-1.4-0.2
		c-0.4-0.2-0.8-0.4-1.2-0.7c-0.3-0.3-0.6-0.7-0.8-1.2c-0.2-0.5-0.3-1.1-0.3-1.7c0-0.5,0.1-0.9,0.2-1.4c0.2-0.4,0.4-0.8,0.7-1.1
		c0.3-0.3,0.7-0.6,1.1-0.8S284.9-39,285.5-39z M285.5-37.5c-0.4,0-0.7,0.1-1,0.4c-0.2,0.2-0.4,0.6-0.5,1h2.7c0-0.2,0-0.3-0.1-0.5
		c0-0.2-0.1-0.3-0.2-0.4c-0.1-0.1-0.2-0.2-0.4-0.3C286-37.5,285.8-37.5,285.5-37.5z"/>
	<path d="M289.9-31.6v-7.3h1.3c0.1,0,0.2,0,0.3,0s0.1,0,0.2,0.1c0,0,0.1,0.1,0.1,0.2c0,0.1,0,0.1,0.1,0.2l0.1,0.6
		c0.2-0.4,0.5-0.7,0.8-0.9c0.3-0.2,0.6-0.3,1-0.3c0.3,0,0.6,0.1,0.8,0.2l-0.1,1.6c0,0.1-0.1,0.2-0.1,0.2c-0.1,0-0.1,0.1-0.2,0.1
		c0,0-0.1,0-0.1,0c-0.1,0-0.1,0-0.2,0s-0.1,0-0.2,0c-0.1,0-0.1,0-0.2,0c-0.3,0-0.6,0.1-0.8,0.3c-0.2,0.2-0.3,0.4-0.5,0.7v4.4H289.9z
		"/>
	<path d="M299.3-31.6h-2l-2.8-7.3h1.8c0.2,0,0.3,0,0.4,0.1s0.2,0.2,0.2,0.3l1,3.3c0.1,0.3,0.2,0.5,0.2,0.8c0.1,0.3,0.1,0.5,0.2,0.8
		c0.1-0.3,0.1-0.5,0.2-0.8c0.1-0.3,0.2-0.5,0.2-0.8l1-3.3c0-0.1,0.1-0.2,0.2-0.3c0.1-0.1,0.2-0.1,0.4-0.1h1.7L299.3-31.6z"/>
	<path d="M305.4-40.9c0,0.2,0,0.3-0.1,0.5c-0.1,0.2-0.2,0.3-0.3,0.4c-0.1,0.1-0.3,0.2-0.4,0.3c-0.2,0.1-0.3,0.1-0.5,0.1
		c-0.2,0-0.3,0-0.5-0.1c-0.2-0.1-0.3-0.2-0.4-0.3s-0.2-0.2-0.3-0.4c-0.1-0.2-0.1-0.3-0.1-0.5c0-0.2,0-0.3,0.1-0.5
		c0.1-0.2,0.2-0.3,0.3-0.4s0.3-0.2,0.4-0.3c0.2-0.1,0.3-0.1,0.5-0.1c0.2,0,0.4,0,0.5,0.1c0.2,0.1,0.3,0.2,0.4,0.3
		c0.1,0.1,0.2,0.3,0.3,0.4C305.3-41.2,305.4-41.1,305.4-40.9z M305.2-38.9v7.3H303v-7.3H305.2z"/>
	<path d="M312.1-37.2c-0.1,0.1-0.1,0.1-0.2,0.2c-0.1,0-0.1,0.1-0.3,0.1c-0.1,0-0.2,0-0.3-0.1s-0.2-0.1-0.3-0.2s-0.2-0.1-0.4-0.2
		c-0.1-0.1-0.3-0.1-0.5-0.1c-0.3,0-0.5,0-0.7,0.1c-0.2,0.1-0.4,0.2-0.5,0.4c-0.1,0.2-0.2,0.4-0.3,0.7s-0.1,0.6-0.1,0.9
		c0,0.7,0.1,1.2,0.4,1.6c0.3,0.4,0.6,0.6,1.1,0.6c0.3,0,0.5,0,0.6-0.1s0.3-0.1,0.4-0.2c0.1-0.1,0.2-0.1,0.3-0.2
		c0.1-0.1,0.2-0.1,0.3-0.1c0.2,0,0.3,0.1,0.4,0.2l0.6,0.8c-0.2,0.3-0.5,0.5-0.7,0.6c-0.2,0.2-0.5,0.3-0.8,0.4
		c-0.3,0.1-0.5,0.2-0.8,0.2s-0.5,0.1-0.8,0.1c-0.4,0-0.9-0.1-1.3-0.3s-0.8-0.4-1.1-0.7c-0.3-0.3-0.5-0.7-0.7-1.2
		c-0.2-0.5-0.3-1-0.3-1.6c0-0.5,0.1-1,0.2-1.5c0.2-0.5,0.4-0.8,0.7-1.2s0.7-0.6,1.1-0.8s1-0.3,1.6-0.3c0.6,0,1.1,0.1,1.5,0.3
		c0.4,0.2,0.8,0.4,1.2,0.8L312.1-37.2z"/>
	<path d="M316.7-39c0.5,0,0.9,0.1,1.3,0.2c0.4,0.1,0.7,0.4,1,0.7s0.5,0.6,0.7,1c0.2,0.4,0.2,0.9,0.2,1.4c0,0.2,0,0.3,0,0.4
		c0,0.1,0,0.2-0.1,0.2c0,0.1-0.1,0.1-0.2,0.1c-0.1,0-0.1,0-0.2,0h-4.2c0.1,0.6,0.3,1,0.6,1.3s0.7,0.4,1.2,0.4c0.3,0,0.5,0,0.7-0.1
		s0.3-0.1,0.5-0.2c0.1-0.1,0.3-0.1,0.4-0.2c0.1-0.1,0.2-0.1,0.4-0.1c0.2,0,0.3,0.1,0.4,0.2l0.6,0.8c-0.2,0.3-0.5,0.5-0.7,0.6
		c-0.3,0.2-0.5,0.3-0.8,0.4c-0.3,0.1-0.5,0.2-0.8,0.2s-0.5,0.1-0.8,0.1c-0.5,0-1-0.1-1.4-0.2c-0.4-0.2-0.8-0.4-1.2-0.7
		c-0.3-0.3-0.6-0.7-0.8-1.2s-0.3-1.1-0.3-1.7c0-0.5,0.1-0.9,0.2-1.4c0.2-0.4,0.4-0.8,0.7-1.1s0.7-0.6,1.1-0.8S316.1-39,316.7-39z
		 M316.7-37.5c-0.4,0-0.7,0.1-1,0.4c-0.2,0.2-0.4,0.6-0.5,1h2.7c0-0.2,0-0.3-0.1-0.5c0-0.2-0.1-0.3-0.2-0.4
		c-0.1-0.1-0.2-0.2-0.4-0.3C317.2-37.5,317-37.5,316.7-37.5z"/>
</g>
<polygon class="st19" points="339,-38 335,-33.4 331,-38 "/>
<path class="st20" d="M391.7-33.8h-0.6l-0.2-0.2c0.7-0.8,1.2-1.9,1.2-3.1c0-2.7-2.2-4.8-4.8-4.8c-2.7,0-4.8,2.2-4.8,4.8
	c0,2.7,2.2,4.8,4.8,4.8c1.2,0,2.3-0.4,3.1-1.2l0.2,0.2v0.6l2.7,2.7l1.1-1.1L391.7-33.8z M387.2-33.8c-1.9,0-3.3-1.5-3.3-3.3
	c0-1.9,1.5-3.3,3.3-3.3s3.3,1.5,3.3,3.3C390.6-35.3,389.1-33.8,387.2-33.8z"/>
<path class="st20" d="M405.2-37.1c-0.7,0-1.2,0.5-1.2,1.2s0.5,1.2,1.2,1.2c0.7,0,1.2-0.5,1.2-1.2S405.9-37.1,405.2-37.1z M405.2-42
	c-0.7,0-1.2,0.5-1.2,1.2s0.5,1.2,1.2,1.2c0.7,0,1.2-0.5,1.2-1.2S405.9-42,405.2-42z M405.2-32.2c-0.6,0-1.1,0.5-1.1,1.1
	s0.5,1.1,1.1,1.1s1.1-0.5,1.1-1.1S405.8-32.2,405.2-32.2z M407.6-30.3H419v-1.6h-11.3V-30.3z M407.6-35.1H419v-1.6h-11.3V-35.1z
	 M407.6-41.6v1.6H419v-1.6H407.6z"/>
<g>
	<g>
		<path class="st21" d="M214.6-44.4c-0.3-0.8-1.2-1.3-2-1c-0.8,0.3-1.3,1.2-1,2l4.1,12.8c0.3,0.8,1.1,1.2,2,1c0.9-0.2,1.4-1.1,1.1-2
			C218.7-31.7,214.6-44.4,214.6-44.4z"/>
		<path class="st22" d="M208.1-42.3c-0.3-0.8-1.2-1.3-2-1c-0.8,0.3-1.3,1.2-1,2l4.1,12.8c0.3,0.8,1.1,1.2,2,1c0.9-0.2,1.4-1.1,1.1-2
			C212.3-29.6,208.1-42.3,208.1-42.3z"/>
		<path class="st23" d="M219.8-33.9c0.8-0.3,1.3-1.2,1-2c-0.3-0.8-1.2-1.3-2-1L206-32.8c-0.8,0.3-1.2,1.1-1,2c0.2,0.9,1.1,1.4,2,1.1
			C207-29.7,219.8-33.9,219.8-33.9z"/>
		<path class="st24" d="M208.7-30.3c0.8-0.3,1.9-0.6,3-1c-0.3-0.8-0.6-1.9-1-3l-3,1L208.7-30.3z"/>
		<path class="st25" d="M215.1-32.3c1.2-0.4,2.2-0.7,3-1c-0.3-0.8-0.6-1.9-1-3l-3,1L215.1-32.3z"/>
		<path class="st26" d="M217.7-40.3c0.8-0.3,1.3-1.2,1-2c-0.3-0.8-1.2-1.3-2-1l-12.8,4.1c-0.8,0.3-1.2,1.1-1,2
			c0.2,0.9,1.1,1.4,2,1.1C205-36.1,217.7-40.3,217.7-40.3z"/>
		<path class="st27" d="M206.6-36.7c0.8-0.3,1.9-0.6,3-1c-0.4-1.2-0.7-2.2-1-3l-3,1L206.6-36.7z"/>
		<path class="st28" d="M213-38.8c1.2-0.4,2.2-0.7,3-1c-0.4-1.2-0.7-2.2-1-3l-3,1L213-38.8z"/>
	</g>
</g>
<g>
	<polygon class="st3" points="427.5,161.5 426.5,161.5 426.5,-51 193.5,-51 193.5,161.5 192.5,161.5 192.5,-52 427.5,-52 	"/>
</g>
<path class="st29" d="M220.9,101.1h-17c-1.7,0-3-1.3-3-3v-17c0-1.7,1.3-3,3-3h17c1.7,0,3,1.3,3,3v17
	C223.9,99.8,222.6,101.1,220.9,101.1z"/>
<path class="st30" d="M212.4,93.1c2.2,0,4-1.8,4-4s-1.8-4-4-4s-4,1.8-4,4C208.4,91.3,210.2,93.1,212.4,93.1z M212.4,95.1
	c-2.7,0-8,1.3-8,4v2h16v-2C220.4,96.4,215.1,95.1,212.4,95.1z"/>
</svg>
