<?xml version="1.0" encoding="utf-8"?>
<!-- Generator: Adobe Illustrator 19.1.0, SVG Export Plug-In . SVG Version: 6.00 Build 0)  -->
<svg version="1.1" id="Layer_1" xmlns="http://www.w3.org/2000/svg" xmlns:xlink="http://www.w3.org/1999/xlink" x="0px" y="0px"
	 viewBox="148 -148 320 320" style="enable-background:new 148 -148 320 320;" xml:space="preserve">
<style type="text/css">
	.st0{fill:#757575;}
</style>
<g>
	<path class="st0" d="M386.9,35.5l-60.3-95.9l0,0l-4.4-73.5l0,0L317.8-60l0,0L265.4,2.9L228,11.3v69.5v4.4v68.2l55.9,4.4l153.5-7.5
		V53.1L386.9,35.5z M246.1,85.6h-11.4v-4.4h11.4V85.6z M276,0.7l46.2-55.4L376.7,32L283.9-1L276,0.7z M309.4,148.5l-16.7,0.9V11.7
		l16.7,5.7V148.5z M331,147.2l-15,0.9v-128l15,5.3V147.2z M349.5,146.3l-11.9,0.4V27.1l11.9,4.4V146.3z M366.2,145.5l-10.1,0.4V34.2
		l10.1,3.5V145.5z M381.6,144.6l-8.8,0.4V39.9l8.8,3.1V144.6z M395.7,144.1l-7.5,0.4v-99l7.5,2.6V144.1z M408,143.3l-5.7,0.4V50.4
		l5.7,2.2V143.3z M419.9,142.8l-5.3,0.4V54.8l5.3,1.8V142.8z M428.7,142.4h-2.2V58.8l2.2,0.9V142.4z"/>
	<path class="st0" d="M177.5,150.3l46.6,3.5V85.6v-4.4V12.6l-46.6,10.6V150.3z M210.4,81.7h8.8v4.4h-8.8V81.7z"/>
</g>
</svg>
