<?xml version="1.0" encoding="utf-8"?>
<!-- Generator: Adobe Illustrator 19.1.0, SVG Export Plug-In . SVG Version: 6.00 Build 0)  -->
<svg version="1.1" id="Layer_1" xmlns="http://www.w3.org/2000/svg" xmlns:xlink="http://www.w3.org/1999/xlink" x="0px" y="0px"
	 viewBox="148 -138 320 320" style="enable-background:new 148 -138 320 320;" xml:space="preserve">
<style type="text/css">
	.st0{fill:#607D8B;}
	.st1{fill-rule:evenodd;clip-rule:evenodd;fill:#607D8B;}
	.st2{fill:#F57C00;}
	.st3{fill-rule:evenodd;clip-rule:evenodd;fill:#F57C00;}
</style>
<g>
	<path class="st0" d="M278.6,162.2h-1.1v-3.9l-4.1-5.9h1.3l3.3,4.9l3.3-4.9h1.3l-4.1,5.9V162.2z"/>
	<path class="st0" d="M286,162.4c-2.2,0-3.8-1.7-3.8-3.8c0-2.1,1.6-3.8,3.8-3.8c2.2,0,3.8,1.7,3.8,3.8
		C289.8,160.7,288.2,162.4,286,162.4z M286,155.8c-1.6,0-2.6,1.2-2.6,2.8c0,1.6,1.1,2.8,2.7,2.8c1.6,0,2.7-1.2,2.7-2.8
		C288.7,157,287.5,155.8,286,155.8z"/>
	<path class="st0" d="M296.9,155h1.1v7.2h-1.1V161c-0.5,0.8-1.2,1.4-2.5,1.4c-1.8,0-2.8-1.2-2.8-2.9V155h1.1v4.2
		c0,1.3,0.7,2.2,2,2.2c1.2,0,2.2-0.9,2.2-2.3V155z"/>
	<path class="st0" d="M301.4,162.2h-1.1V155h1.1v1.9c0.5-1.2,1.6-2.1,3-2v1.2h-0.1c-1.6,0-2.9,1.1-2.9,3.3V162.2z"/>
	<path class="st0" d="M319.5,162.2h-1.2l-1.1-2.6h-5.3l-1.2,2.6h-1.1l4.5-9.9h1L319.5,162.2z M314.5,153.6l-2.2,5h4.5L314.5,153.6z"
		/>
	<path class="st0" d="M326.1,152.4h0.9l2.7,8.2l2.8-8.2h1.2l-3.5,9.9h-0.9l-2.7-8l-2.7,8H323l-3.5-9.9h1.2l2.8,8.2L326.1,152.4z"/>
	<path class="st0" d="M339,156.8c2.2,0.5,3.2,1.3,3.2,2.8c0,1.7-1.4,2.8-3.3,2.8c-1.6,0-2.8-0.5-4-1.6l0.7-0.8c1,0.9,2,1.4,3.4,1.4
		c1.3,0,2.2-0.7,2.2-1.7c0-0.9-0.5-1.4-2.5-1.9c-2.3-0.5-3.3-1.2-3.3-2.8c0-1.6,1.4-2.7,3.2-2.7c1.4,0,2.5,0.4,3.4,1.2l-0.6,0.9
		c-0.9-0.7-1.8-1.1-2.8-1.1c-1.3,0-2.1,0.7-2.1,1.6C336.3,155.8,336.8,156.3,339,156.8z"/>
	<path class="st0" d="M268.4,178.2c1,0,1.7-0.4,2.3-1l0.7,0.6c-0.7,0.8-1.6,1.4-3,1.4c-2,0-3.6-1.5-3.6-3.8c0-2.1,1.5-3.8,3.5-3.8
		c2.1,0,3.4,1.7,3.4,3.8c0,0.1,0,0.2,0,0.3h-5.7C266,177.4,267.1,178.2,268.4,178.2z M270.5,175c-0.1-1.3-0.9-2.5-2.3-2.5
		c-1.3,0-2.2,1.1-2.4,2.5H270.5z"/>
	<path class="st0" d="M274.6,179h-1.1v-7.2h1.1v1.3c0.5-0.8,1.2-1.4,2.5-1.4c1.8,0,2.8,1.2,2.8,2.9v4.5h-1.1v-4.2
		c0-1.3-0.7-2.2-2-2.2c-1.2,0-2.2,0.9-2.2,2.3V179z"/>
	<path class="st0" d="M287.5,171.8h1.2l-3.2,7.3h-1l-3.1-7.3h1.2l2.4,6L287.5,171.8z"/>
	<path class="st0" d="M290.3,170.2V169h1.2v1.2H290.3z M290.4,179v-7.2h1.1v7.2H290.4z"/>
	<path class="st0" d="M295.1,179H294v-7.2h1.1v1.9c0.5-1.2,1.6-2.1,3-2v1.2h-0.1c-1.6,0-2.9,1.1-2.9,3.3V179z"/>
	<path class="st0" d="M303,179.2c-2.2,0-3.8-1.7-3.8-3.8c0-2.1,1.6-3.8,3.8-3.8c2.2,0,3.8,1.7,3.8,3.8S305.2,179.2,303,179.2z
		 M303,172.6c-1.6,0-2.6,1.2-2.6,2.8c0,1.6,1.1,2.8,2.7,2.8c1.6,0,2.7-1.2,2.7-2.8C305.7,173.8,304.5,172.6,303,172.6z"/>
	<path class="st0" d="M309.8,179h-1.1v-7.2h1.1v1.3c0.5-0.8,1.2-1.4,2.5-1.4c1.8,0,2.8,1.2,2.8,2.9v4.5H314v-4.2
		c0-1.3-0.7-2.2-2-2.2c-1.2,0-2.2,0.9-2.2,2.3V179z"/>
	<path class="st0" d="M325.6,171.6c1.7,0,2.7,1.1,2.7,2.9v4.5h-1.1v-4.2c0-1.4-0.7-2.2-1.9-2.2c-1.1,0-2,0.8-2,2.2v4.2h-1.1v-4.3
		c0-1.4-0.7-2.2-1.9-2.2c-1.1,0-2,1-2,2.3v4.1h-1.1v-7.2h1.1v1.2c0.5-0.7,1.1-1.4,2.3-1.4c1.2,0,1.9,0.6,2.3,1.4
		C323.6,172.3,324.4,171.6,325.6,171.6z"/>
	<path class="st0" d="M333.8,178.2c1,0,1.7-0.4,2.3-1l0.7,0.6c-0.7,0.8-1.6,1.4-3,1.4c-2,0-3.6-1.5-3.6-3.8c0-2.1,1.5-3.8,3.5-3.8
		c2.1,0,3.4,1.7,3.4,3.8c0,0.1,0,0.2,0,0.3h-5.7C331.5,177.4,332.6,178.2,333.8,178.2z M336,175c-0.1-1.3-0.9-2.5-2.3-2.5
		c-1.3,0-2.2,1.1-2.4,2.5H336z"/>
	<path class="st0" d="M340,179h-1.1v-7.2h1.1v1.3c0.5-0.8,1.2-1.4,2.5-1.4c1.8,0,2.8,1.2,2.8,2.9v4.5h-1.1v-4.2c0-1.3-0.7-2.2-2-2.2
		c-1.2,0-2.2,0.9-2.2,2.3V179z"/>
	<path class="st0" d="M349,177c0,0.9,0.5,1.2,1.2,1.2c0.4,0,0.7-0.1,1.1-0.3v0.9c-0.4,0.2-0.8,0.3-1.3,0.3c-1.2,0-2-0.6-2-2v-4.4h-1
		v-1h1v-2.2h1.1v2.2h2.3v1H349V177z"/>
</g>
<circle class="st1" cx="308" cy="46" r="18"/>
<circle class="st1" cx="387.4" cy="3.5" r="18"/>
<circle class="st1" cx="228.6" cy="3.5" r="18"/>
<g>
	<path class="st0" d="M305,143.5c-2,0-4-0.1-6-0.3l0.2-3c2,0.1,3.9,0.2,5.9,0.3L305,143.5z M311.1,143.5l-0.1-3c2,0,3.9-0.1,5.9-0.3
		l0.2,3C315.1,143.3,313.1,143.4,311.1,143.5z M293,142.7c-2-0.2-4-0.5-6-0.8l0.5-3c1.9,0.3,3.9,0.6,5.9,0.8L293,142.7z
		 M323.1,142.7l-0.3-3c2-0.2,3.9-0.5,5.9-0.8l0.5,3C327.2,142.2,325.1,142.4,323.1,142.7z M281.1,140.8c-2-0.4-3.9-0.8-5.9-1.3
		l0.7-2.9c1.9,0.5,3.8,0.9,5.8,1.3L281.1,140.8z M335.1,140.8l-0.6-2.9c1.9-0.4,3.9-0.8,5.8-1.3l0.7,2.9
		C339,140,337,140.4,335.1,140.8z M269.3,138c-1.9-0.6-3.9-1.2-5.8-1.8l1-2.8c1.9,0.6,3.7,1.2,5.6,1.8L269.3,138z M346.8,137.9
		l-0.8-2.9c1.9-0.6,3.8-1.2,5.6-1.8l1,2.8C350.6,136.7,348.7,137.3,346.8,137.9z M257.9,134c-1.9-0.7-3.8-1.5-5.6-2.3l1.2-2.7
		c1.8,0.8,3.6,1.6,5.5,2.3L257.9,134z M358.2,134l-1.1-2.8c1.8-0.7,3.6-1.5,5.4-2.3l1.2,2.7C361.9,132.5,360.1,133.2,358.2,134z
		 M246.9,129.1c-1.8-0.9-3.6-1.9-5.3-2.8l1.5-2.6c1.7,1,3.5,1.9,5.2,2.8L246.9,129.1z M369.2,129.1l-1.3-2.7
		c1.7-0.9,3.5-1.8,5.2-2.8l1.5,2.6C372.8,127.2,371,128.2,369.2,129.1z M236.3,123.2c-1.7-1.1-3.4-2.2-5.1-3.3l1.7-2.5
		c1.6,1.1,3.3,2.2,5,3.2L236.3,123.2z M379.7,123.2l-1.6-2.6c1.7-1,3.3-2.1,4.9-3.2l1.7,2.5C383.1,121,381.4,122.1,379.7,123.2z
		 M226.3,116.4c-1.6-1.2-3.2-2.5-4.8-3.7l1.9-2.3c1.5,1.2,3.1,2.5,4.7,3.6L226.3,116.4z M389.7,116.4l-1.8-2.4
		c1.6-1.2,3.1-2.4,4.6-3.6l1.9,2.3C392.9,113.9,391.3,115.2,389.7,116.4z M399,108.7l-2-2.2c1.5-1.3,2.9-2.7,4.3-4l2.1,2.1
		C402,106,400.5,107.4,399,108.7z M217,108.7c-1.5-1.3-3-2.7-4.4-4.1l2.1-2.1c1.4,1.4,2.9,2.7,4.3,4L217,108.7z M407.6,100.3
		l-2.2-2.1c1.3-1.4,2.7-2.9,3.9-4.4l2.3,2C410.4,97.3,409,98.8,407.6,100.3z M208.4,100.3c-1.4-1.5-2.7-3-4-4.5l2.3-2
		c1.3,1.5,2.6,3,3.9,4.4L208.4,100.3z M200.5,91.1c-1.2-1.6-2.4-3.2-3.6-4.8l2.4-1.7c1.1,1.6,2.3,3.2,3.5,4.7L200.5,91.1z
		 M415.5,91.1l-2.4-1.9c1.2-1.5,2.4-3.1,3.5-4.7l2.4,1.7C418,87.9,416.7,89.5,415.5,91.1z M193.5,81.3c-1.1-1.7-2.2-3.4-3.2-5.1
		l2.6-1.5c1,1.7,2,3.4,3.1,5L193.5,81.3z M422.5,81.3l-2.5-1.6c1.1-1.6,2.1-3.3,3.1-5l2.6,1.5C424.7,77.9,423.6,79.6,422.5,81.3z
		 M187.4,70.9c-0.9-1.8-1.8-3.6-2.7-5.4l2.7-1.3c0.8,1.8,1.7,3.5,2.6,5.3L187.4,70.9z M428.7,70.9l-2.7-1.4c0.9-1.7,1.8-3.5,2.7-5.3
		l2.7,1.3C430.5,67.3,429.6,69.1,428.7,70.9z M182.2,60c-0.8-1.8-1.5-3.7-2.2-5.6l2.8-1c0.7,1.8,1.4,3.7,2.2,5.5L182.2,60z
		 M433.8,60l-2.8-1.2c0.8-1.8,1.5-3.7,2.2-5.5l2.8,1C435.4,56.2,434.6,58.1,433.8,60z M178,48.7c-0.6-1.9-1.2-3.9-1.7-5.8l2.9-0.8
		c0.5,1.9,1.1,3.8,1.7,5.7L178,48.7z M438,48.6l-2.9-0.9c0.6-1.9,1.2-3.8,1.7-5.7l2.9,0.8C439.2,44.8,438.7,46.7,438,48.6z
		 M174.8,37.1c-0.4-2-0.8-3.9-1.2-5.9l3-0.5c0.3,1.9,0.7,3.9,1.2,5.8L174.8,37.1z M441.2,36.9l-2.9-0.7c0.4-1.9,0.8-3.8,1.2-5.8
		l3,0.5C442,33,441.6,35,441.2,36.9z M172.7,25.2c-0.3-2-0.5-4-0.7-6l3-0.3c0.2,2,0.4,3.9,0.7,5.9L172.7,25.2z M443.3,25.1l-3-0.4
		c0.3-1.9,0.5-3.9,0.6-5.9l3,0.3C443.8,21,443.6,23.1,443.3,25.1z M171.6,13.2c-0.1-2-0.1-4-0.1-6l3,0c0,2,0,3.9,0.1,5.9L171.6,13.2
		z M444.4,13l-3-0.1c0.1-2,0.1-3.9,0.1-5.9V6.7h3V7C444.5,9,444.5,11,444.4,13z M174.6,1.2l-3-0.1c0.1-2,0.2-4,0.4-6l3,0.3
		C174.8-2.7,174.7-0.7,174.6,1.2z M441.4,0.8c-0.1-2-0.2-3.9-0.4-5.9l3-0.3c0.2,2,0.3,4,0.4,6L441.4,0.8z M175.6-10.5l-3-0.4
		c0.3-2,0.6-4,0.9-6l3,0.5C176.2-14.4,175.9-12.5,175.6-10.5z M440.3-11c-0.3-1.9-0.6-3.9-0.9-5.8l3-0.5c0.4,2,0.7,4,0.9,6L440.3-11
		z M177.7-22.1l-2.9-0.7c0.4-2,0.9-3.9,1.4-5.9l2.9,0.8C178.6-26,178.1-24.1,177.7-22.1z M438.2-22.6c-0.4-1.9-0.9-3.8-1.4-5.7
		l2.9-0.8c0.5,1.9,1,3.9,1.5,5.9L438.2-22.6z M180.8-33.5l-2.9-0.9c0.6-1.9,1.3-3.8,2-5.7l2.8,1C182-37.3,181.4-35.4,180.8-33.5z
		 M435.1-34c-0.6-1.9-1.3-3.7-1.9-5.6l2.8-1c0.7,1.9,1.4,3.8,2,5.7L435.1-34z M184.9-44.7l-2.8-1.2c0.8-1.9,1.6-3.7,2.5-5.5l2.7,1.3
		C186.4-48.3,185.6-46.5,184.9-44.7z M431-45c-0.8-1.8-1.6-3.6-2.4-5.4l2.7-1.3c0.9,1.8,1.7,3.7,2.5,5.5L431-45z M189.9-55.3
		l-2.7-1.4c0.9-1.8,1.9-3.5,2.9-5.3l2.6,1.5C191.8-58.8,190.8-57.1,189.9-55.3z M425.9-55.6c-0.9-1.7-1.9-3.5-2.9-5.1l2.6-1.5
		c1,1.7,2,3.5,3,5.3L425.9-55.6z M195.9-65.5l-2.5-1.6c1.1-1.7,2.2-3.4,3.4-5l2.4,1.7C198.1-68.8,197-67.2,195.9-65.5z M419.9-65.8
		c-1.1-1.6-2.2-3.3-3.3-4.9l2.4-1.7c1.2,1.6,2.3,3.3,3.4,5L419.9-65.8z M202.8-75.2l-2.4-1.8c1.2-1.6,2.5-3.2,3.8-4.7l2.3,2
		C205.2-78.2,204-76.7,202.8-75.2z M413-75.4c-1.2-1.5-2.5-3.1-3.7-4.6l2.3-2c1.3,1.5,2.6,3.1,3.8,4.7L413-75.4z M210.4-84.1l-2.2-2
		c1.4-1.5,2.8-2.9,4.2-4.3l2.1,2.1C213.2-87,211.8-85.6,210.4-84.1z M405.4-84.3c-1.3-1.4-2.7-2.8-4.1-4.2l2.1-2.1
		c1.4,1.4,2.9,2.9,4.2,4.3L405.4-84.3z M218.9-92.4l-2-2.2c1.5-1.3,3-2.7,4.6-3.9l1.9,2.3C221.8-95,220.3-93.7,218.9-92.4z
		 M396.9-92.6c-1.5-1.3-3-2.6-4.5-3.8l1.9-2.3c1.6,1.3,3.1,2.6,4.6,3.9L396.9-92.6z M228-99.9l-1.8-2.4c1.6-1.2,3.3-2.4,4.9-3.5
		l1.7,2.5C231.2-102.2,229.6-101.1,228-99.9z M387.8-100.1c-1.6-1.2-3.2-2.3-4.8-3.4l1.7-2.5c1.7,1.1,3.3,2.3,4.9,3.5L387.8-100.1z
		 M237.7-106.5l-1.6-2.5c1.7-1.1,3.4-2.1,5.2-3.1l1.5,2.6C241.1-108.6,239.4-107.6,237.7-106.5z M378-106.7c-1.7-1-3.4-2-5.1-3
		l1.5-2.6c1.8,1,3.5,2,5.2,3.1L378-106.7z M248-112.3l-1.3-2.7c1.8-0.9,3.6-1.8,5.4-2.6l1.2,2.7C251.6-114,249.8-113.2,248-112.3z
		 M367.6-112.5c-1.8-0.9-3.6-1.7-5.3-2.5l1.2-2.7c1.8,0.8,3.7,1.7,5.5,2.6L367.6-112.5z M258.8-117.1l-1.1-2.8
		c1.9-0.7,3.8-1.4,5.7-2.1l1,2.8C262.5-118.5,260.6-117.9,258.8-117.1z M356.8-117.3c-1.8-0.7-3.7-1.4-5.6-2l1-2.8
		c1.9,0.7,3.8,1.4,5.7,2.1L356.8-117.3z M269.9-121l-0.9-2.9c1.9-0.6,3.9-1.1,5.8-1.6l0.7,2.9C273.7-122.1,271.8-121.6,269.9-121z
		 M345.7-121.1c-1.9-0.6-3.8-1.1-5.7-1.5l0.7-2.9c1.9,0.5,3.9,1,5.8,1.6L345.7-121.1z M281.4-123.8l-0.6-2.9c2-0.4,4-0.8,5.9-1.1
		l0.5,3C285.3-124.6,283.3-124.2,281.4-123.8z M334.2-123.9c-1.9-0.4-3.9-0.7-5.8-1l0.5-3c2,0.3,4,0.7,5.9,1L334.2-123.9z
		 M293.1-125.7l-0.3-3c2-0.2,4-0.4,6-0.5l0.2,3C297-126.1,295-125.9,293.1-125.7z M322.5-125.7c-2-0.2-3.9-0.4-5.9-0.5l0.2-3
		c2,0.1,4,0.3,6,0.5L322.5-125.7z M304.8-126.5l-0.1-3c2,0,4-0.1,6,0l-0.1,3C308.8-126.5,306.8-126.5,304.8-126.5z"/>
</g>
<polygon class="st0" points="318.1,-7.2 309,2.6 309,-17 306,-17 306,1.5 297.9,-7.2 295.7,-5.2 308,8 320.3,-5.2 "/>
<polygon class="st0" points="365.9,-38.7 365.2,-26.2 353.1,-40.6 350.8,-38.7 362.9,-24.2 350.4,-25.8 350.1,-22.8 367.9,-20.6 
	368.9,-38.6 "/>
<polygon class="st0" points="265.6,-25.8 253.1,-24.2 265.2,-38.7 262.9,-40.6 250.8,-26.2 250.1,-38.7 247.1,-38.6 248.1,-20.6 
	265.9,-22.8 "/>
<g>
	<g>
		<path class="st2" d="M287.1-54.8h-4.7v-9.8h4.6c2,0,3.2,1,3.2,2.5v0c0,1.1-0.6,1.7-1.3,2.1c1.1,0.4,1.8,1.1,1.8,2.4v0
			C290.8-55.7,289.3-54.8,287.1-54.8z M288.1-61.7c0-0.6-0.5-1-1.4-1h-2.1v2.1h2C287.5-60.6,288.1-60.9,288.1-61.7L288.1-61.7z
			 M288.6-57.8c0-0.7-0.5-1.1-1.6-1.1h-2.5v2.2h2.6C288.1-56.7,288.6-57,288.6-57.8L288.6-57.8z"/>
		<path class="st2" d="M296.7-54.8v-0.8c-0.5,0.6-1.2,1-2.3,1c-1.4,0-2.6-0.8-2.6-2.3v0c0-1.6,1.2-2.4,3-2.4c0.8,0,1.3,0.1,1.8,0.3
			v-0.1c0-0.9-0.5-1.4-1.6-1.4c-0.8,0-1.4,0.2-2.1,0.4l-0.5-1.6c0.8-0.4,1.6-0.6,2.9-0.6c2.3,0,3.3,1.2,3.3,3.2v4.4H296.7z
			 M296.8-57.8c-0.4-0.2-0.8-0.3-1.4-0.3c-0.9,0-1.5,0.4-1.5,1v0c0,0.6,0.5,0.9,1.2,0.9c1,0,1.7-0.5,1.7-1.3V-57.8z"/>
		<path class="st2" d="M303.2-54.6c-1.1,0-2.2-0.4-3.2-1.1l0.9-1.4c0.8,0.6,1.7,0.9,2.4,0.9c0.6,0,0.9-0.2,0.9-0.6v0
			c0-0.5-0.7-0.6-1.6-0.9c-1.1-0.3-2.2-0.8-2.2-2.3v0c0-1.5,1.2-2.4,2.7-2.4c1,0,2,0.3,2.8,0.9l-0.8,1.5c-0.7-0.4-1.5-0.7-2-0.7
			c-0.5,0-0.8,0.2-0.8,0.5v0c0,0.4,0.7,0.6,1.5,0.9c1,0.4,2.3,0.9,2.3,2.2v0C306.1-55.4,304.9-54.6,303.2-54.6z"/>
		<path class="st2" d="M310.2-54.7c-1.3,0-2.2-0.5-2.2-2.3v-3.6h-0.9v-1.8h0.9v-1.9h2.1v1.9h1.8v1.8h-1.8v3.2c0,0.5,0.2,0.7,0.7,0.7
			c0.4,0,0.7-0.1,1.1-0.3v1.7C311.4-54.8,310.9-54.7,310.2-54.7z"/>
		<path class="st2" d="M313.5-63.1V-65h2.2v1.9H313.5z M313.5-54.8v-7.5h2.1v7.5H313.5z"/>
		<path class="st2" d="M321.4-54.6c-2.3,0-4-1.7-4-3.9v0c0-2.2,1.7-3.9,4.1-3.9c2.3,0,4,1.7,4,3.9v0
			C325.4-56.4,323.7-54.6,321.4-54.6z M323.3-58.5c0-1.1-0.8-2.1-2-2.1c-1.2,0-1.9,0.9-1.9,2v0c0,1.1,0.8,2.1,2,2.1
			C322.6-56.4,323.3-57.4,323.3-58.5L323.3-58.5z"/>
		<path class="st2" d="M331.7-54.8V-59c0-1-0.5-1.5-1.3-1.5s-1.3,0.5-1.3,1.5v4.2H327v-7.5h2.1v1.1c0.5-0.6,1.1-1.2,2.2-1.2
			c1.6,0,2.5,1.1,2.5,2.8v4.9H331.7z"/>
		<path class="st2" d="M279.3-38v-9.8h2.2v9.8H279.3z"/>
		<path class="st2" d="M288.5-38v-4.2c0-1-0.5-1.5-1.3-1.5s-1.3,0.5-1.3,1.5v4.2h-2.1v-7.5h2.1v1.1c0.5-0.6,1.1-1.2,2.2-1.2
			c1.6,0,2.5,1.1,2.5,2.8v4.9H288.5z"/>
		<path class="st2" d="M295.1-37.8c-1.1,0-2.2-0.4-3.2-1.1l0.9-1.4c0.8,0.6,1.7,0.9,2.4,0.9c0.6,0,0.9-0.2,0.9-0.6v0
			c0-0.5-0.7-0.6-1.6-0.9c-1.1-0.3-2.2-0.8-2.2-2.3v0c0-1.5,1.2-2.4,2.7-2.4c1,0,2,0.3,2.8,0.9l-0.8,1.5c-0.7-0.4-1.5-0.7-2-0.7
			c-0.5,0-0.8,0.2-0.8,0.5v0c0,0.4,0.7,0.6,1.5,0.9c1,0.4,2.3,0.9,2.3,2.2v0C298-38.6,296.7-37.8,295.1-37.8z"/>
		<path class="st2" d="M302-37.9c-1.3,0-2.2-0.5-2.2-2.3v-3.6h-0.9v-1.8h0.9v-1.9h2.1v1.9h1.8v1.8H302v3.2c0,0.5,0.2,0.7,0.7,0.7
			c0.4,0,0.7-0.1,1.1-0.3v1.7C303.2-38,302.7-37.9,302-37.9z"/>
		<path class="st2" d="M309.7-38v-0.8c-0.5,0.6-1.2,1-2.3,1c-1.4,0-2.6-0.8-2.6-2.3v0c0-1.6,1.2-2.4,3-2.4c0.8,0,1.3,0.1,1.8,0.3
			v-0.1c0-0.9-0.5-1.4-1.6-1.4c-0.8,0-1.4,0.2-2.1,0.4l-0.5-1.6c0.8-0.4,1.6-0.6,2.9-0.6c2.3,0,3.3,1.2,3.3,3.2v4.4H309.7z
			 M309.7-41c-0.4-0.2-0.8-0.3-1.4-0.3c-0.9,0-1.5,0.4-1.5,1v0c0,0.6,0.5,0.9,1.2,0.9c1,0,1.7-0.5,1.7-1.3V-41z"/>
		<path class="st2" d="M318.3-38v-4.2c0-1-0.5-1.5-1.3-1.5s-1.3,0.5-1.3,1.5v4.2h-2.1v-7.5h2.1v1.1c0.5-0.6,1.1-1.2,2.2-1.2
			c1.6,0,2.5,1.1,2.5,2.8v4.9H318.3z"/>
		<path class="st2" d="M325.8-37.8c-2.3,0-3.9-1.7-3.9-3.9v0c0-2.1,1.6-3.9,3.9-3.9c1.4,0,2.3,0.5,3,1.3l-1.3,1.4
			c-0.5-0.5-1-0.8-1.7-0.8c-1.1,0-1.8,0.9-1.8,2v0c0,1.1,0.7,2.1,1.9,2.1c0.7,0,1.2-0.3,1.7-0.8l1.2,1.3
			C328.2-38.4,327.3-37.8,325.8-37.8z"/>
		<path class="st2" d="M337.3-41H332c0.2,1,0.9,1.5,1.8,1.5c0.7,0,1.2-0.2,1.8-0.8l1.2,1.1c-0.7,0.9-1.7,1.4-3.1,1.4
			c-2.3,0-3.9-1.6-3.9-3.9v0c0-2.1,1.5-3.9,3.7-3.9c2.5,0,3.7,1.9,3.7,4.1v0C337.3-41.3,337.3-41.2,337.3-41z M333.6-43.9
			c-0.9,0-1.5,0.6-1.6,1.6h3.2C335.1-43.3,334.5-43.9,333.6-43.9z"/>
	</g>
</g>
<g>
	<g>
		<path class="st0" d="M365.7,42.1c-1.5,0-3-0.5-4.2-1.6l1.3-1.5c0.9,0.7,1.8,1.2,2.9,1.2c0.9,0,1.4-0.4,1.4-0.9v0
			c0-0.5-0.3-0.8-2-1.2c-2-0.5-3.2-1.1-3.2-3v0c0-1.8,1.4-3,3.4-3c1.4,0,2.6,0.4,3.6,1.2l-1.1,1.6c-0.9-0.6-1.7-1-2.5-1
			c-0.8,0-1.3,0.4-1.3,0.9v0c0,0.6,0.4,0.9,2.1,1.3c2,0.5,3.1,1.2,3.1,2.9v0C369.3,41,367.8,42.1,365.7,42.1z"/>
		<path class="st0" d="M378,38.9h-5.2c0.2,1,0.9,1.5,1.8,1.5c0.7,0,1.2-0.2,1.8-0.8l1.2,1.1c-0.7,0.9-1.7,1.4-3.1,1.4
			c-2.3,0-3.9-1.6-3.9-3.9v0c0-2.1,1.5-3.9,3.7-3.9c2.5,0,3.7,1.9,3.7,4.1v0C378,38.6,378,38.7,378,38.9z M374.3,36
			c-0.9,0-1.5,0.6-1.6,1.6h3.2C375.8,36.6,375.2,36,374.3,36z"/>
		<path class="st0" d="M384,36.5c-1.4,0-2.3,0.9-2.3,2.6v2.8h-2.1v-7.5h2.1v1.5c0.4-1,1.1-1.7,2.4-1.7v2.2H384z"/>
		<path class="st0" d="M389.6,42h-1.9l-3-7.6h2.3l1.7,5l1.7-5h2.2L389.6,42z"/>
		<path class="st0" d="M393.9,33.6v-1.9h2.2v1.9H393.9z M393.9,41.9v-7.5h2.1v7.5H393.9z"/>
		<path class="st0" d="M401.6,42.1c-2.3,0-3.9-1.7-3.9-3.9v0c0-2.1,1.6-3.9,3.9-3.9c1.4,0,2.3,0.5,3,1.3l-1.3,1.4
			c-0.5-0.5-1-0.8-1.7-0.8c-1.1,0-1.8,0.9-1.8,2v0c0,1.1,0.7,2.1,1.9,2.1c0.7,0,1.2-0.3,1.7-0.8l1.2,1.3
			C403.9,41.5,403.1,42.1,401.6,42.1z"/>
		<path class="st0" d="M413,38.9h-5.2c0.2,1,0.9,1.5,1.8,1.5c0.7,0,1.2-0.2,1.8-0.8l1.2,1.1c-0.7,0.9-1.7,1.4-3.1,1.4
			c-2.3,0-3.9-1.6-3.9-3.9v0c0-2.1,1.5-3.9,3.7-3.9c2.5,0,3.7,1.9,3.7,4.1v0C413,38.6,413,38.7,413,38.9z M409.4,36
			c-0.9,0-1.5,0.6-1.6,1.6h3.2C410.8,36.6,410.3,36,409.4,36z"/>
		<path class="st0" d="M353,54.7c0,2,0.8,3.3,2.7,4.6l-0.9,1.4c-2.6-1.4-3.9-3.3-3.9-6s1.3-4.6,3.9-6l0.9,1.4
			C353.8,51.4,353,52.7,353,54.7z"/>
		<path class="st0" d="M357.5,58.7v-9.8h7.4v1.9h-5.3v2h4.6v1.9h-4.6v2.1h5.3v1.9H357.5z"/>
		<path class="st0" d="M366.8,58.7v-9.8h2.2v7.8h4.9v2H366.8z"/>
		<path class="st0" d="M380.2,58.7h-4.7v-9.8h4.6c2,0,3.2,1,3.2,2.5v0c0,1.1-0.6,1.7-1.3,2.1c1.1,0.4,1.8,1.1,1.8,2.4v0
			C383.8,57.8,382.4,58.7,380.2,58.7z M381.1,51.8c0-0.6-0.5-1-1.4-1h-2.1v2.1h2C380.5,52.9,381.1,52.6,381.1,51.8L381.1,51.8z
			 M381.7,55.7c0-0.7-0.5-1.1-1.6-1.1h-2.5v2.2h2.6C381.1,56.8,381.7,56.5,381.7,55.7L381.7,55.7z"/>
		<path class="st0" d="M386.2,58.7h-0.9v-2.2h2.3v1.9c0,1.8-0.9,2.6-2.6,2.6l-0.2-0.9C385.8,60,386.2,59.5,386.2,58.7z"/>
		<path class="st0" d="M395.6,58.7l-2.1-3.1h-1.7v3.1h-2.2v-9.8h4.5c2.3,0,3.7,1.2,3.7,3.2v0c0,1.6-0.9,2.6-2.1,3l2.4,3.5H395.6z
			 M395.6,52.3c0-0.9-0.6-1.4-1.7-1.4h-2.1v2.8h2.2C395,53.7,395.6,53.1,395.6,52.3L395.6,52.3z"/>
		<path class="st0" d="M403.6,58.7h-3.8v-9.8h3.8c3.1,0,5.2,2.1,5.2,4.9v0C408.8,56.6,406.6,58.7,403.6,58.7z M406.5,53.8
			c0-1.7-1.2-3-3-3h-1.7v5.9h1.7C405.3,56.8,406.5,55.6,406.5,53.8L406.5,53.8z"/>
		<path class="st0" d="M414.2,58.9c-1.5,0-3-0.5-4.2-1.6l1.3-1.5c0.9,0.7,1.8,1.2,2.9,1.2c0.9,0,1.4-0.3,1.4-0.9v0
			c0-0.5-0.3-0.8-2-1.2c-2-0.5-3.2-1-3.2-3v0c0-1.8,1.4-3,3.4-3c1.4,0,2.6,0.4,3.6,1.2l-1.1,1.6c-0.9-0.6-1.7-1-2.5-1
			c-0.8,0-1.3,0.4-1.3,0.9v0c0,0.6,0.4,0.9,2.1,1.3c2,0.5,3.1,1.2,3.1,2.9v0C417.8,57.8,416.3,58.9,414.2,58.9z"/>
		<path class="st0" d="M420,60.7l-0.9-1.4c1.9-1.3,2.7-2.6,2.7-4.6c0-2-0.8-3.3-2.7-4.6l0.9-1.4c2.6,1.4,3.9,3.3,3.9,6
			S422.6,59.3,420,60.7z"/>
	</g>
</g>
<g>
	<g>
		<path class="st0" d="M215.6,41.9v-9.8h7.4V34h-5.3v2h4.6v1.9h-4.6V40h5.3v1.9H215.6z"/>
		<path class="st0" d="M229.6,42.1c-2.9,0-5-2.2-5-5v0c0-2.8,2.1-5.1,5.1-5.1c1.8,0,3,0.6,3.9,1.5l-1.4,1.6
			c-0.8-0.7-1.5-1.1-2.5-1.1c-1.7,0-2.8,1.4-2.8,3.1v0c0,1.7,1.2,3.1,2.8,3.1c1.1,0,1.8-0.4,2.6-1.1l1.4,1.4
			C232.6,41.4,231.5,42.1,229.6,42.1z"/>
		<path class="st0" d="M236.5,35.2l-1.5-1.2c1-1.3,1.9-2,3.7-2c2.1,0,3.4,1.2,3.4,3c0,1.6-0.8,2.5-2.6,3.8l-1.6,1.2h4.3v1.9h-7.3
			v-1.7l3.3-2.7c1.2-1,1.7-1.5,1.7-2.4c0-0.8-0.5-1.3-1.3-1.3C237.7,33.9,237.2,34.3,236.5,35.2z"/>
		<path class="st0" d="M200,58.7v-9.8h2.2v9.8H200z"/>
		<path class="st0" d="M209.1,58.7v-4.2c0-1-0.5-1.5-1.3-1.5c-0.8,0-1.3,0.5-1.3,1.5v4.2h-2.1v-7.5h2.1v1.1c0.5-0.6,1.1-1.2,2.2-1.2
			c1.6,0,2.5,1.1,2.5,2.8v4.9H209.1z"/>
		<path class="st0" d="M215.7,58.9c-1.1,0-2.2-0.3-3.2-1.1l0.9-1.4c0.8,0.6,1.7,0.9,2.4,0.9c0.6,0,0.9-0.2,0.9-0.6v0
			c0-0.5-0.7-0.6-1.6-0.9c-1.1-0.3-2.2-0.8-2.2-2.3v0c0-1.5,1.2-2.4,2.7-2.4c1,0,2,0.3,2.8,0.9l-0.8,1.5c-0.7-0.4-1.5-0.7-2-0.7
			c-0.5,0-0.8,0.2-0.8,0.5v0c0,0.4,0.7,0.6,1.5,0.9c1.1,0.4,2.3,0.9,2.3,2.2v0C218.6,58.1,217.3,58.9,215.7,58.9z"/>
		<path class="st0" d="M222.6,58.9c-1.3,0-2.2-0.5-2.2-2.3V53h-0.9v-1.8h0.9v-1.9h2.1v1.9h1.8V53h-1.8v3.2c0,0.5,0.2,0.7,0.7,0.7
			c0.4,0,0.7-0.1,1.1-0.3v1.7C223.9,58.7,223.4,58.9,222.6,58.9z"/>
		<path class="st0" d="M230.3,58.7v-0.8c-0.5,0.6-1.2,1-2.3,1c-1.4,0-2.6-0.8-2.6-2.3v0c0-1.6,1.2-2.4,3-2.4c0.8,0,1.3,0.1,1.8,0.3
			v-0.1c0-0.9-0.5-1.4-1.6-1.4c-0.8,0-1.4,0.2-2.1,0.4l-0.5-1.6c0.8-0.4,1.6-0.6,2.9-0.6c2.3,0,3.3,1.2,3.3,3.2v4.4H230.3z
			 M230.4,55.7c-0.4-0.2-0.8-0.3-1.4-0.3c-0.9,0-1.5,0.4-1.5,1v0c0,0.6,0.5,0.9,1.2,0.9c1,0,1.7-0.5,1.7-1.3V55.7z"/>
		<path class="st0" d="M239,58.7v-4.2c0-1-0.5-1.5-1.3-1.5c-0.8,0-1.3,0.5-1.3,1.5v4.2h-2.1v-7.5h2.1v1.1c0.5-0.6,1.1-1.2,2.2-1.2
			c1.6,0,2.5,1.1,2.5,2.8v4.9H239z"/>
		<path class="st0" d="M246.5,58.9c-2.3,0-3.9-1.7-3.9-3.9v0c0-2.1,1.6-3.9,3.9-3.9c1.4,0,2.3,0.5,3,1.3l-1.3,1.4
			c-0.5-0.5-1-0.8-1.7-0.8c-1.1,0-1.8,0.9-1.8,2v0c0,1.1,0.7,2.1,1.9,2.1c0.7,0,1.2-0.3,1.7-0.8l1.2,1.3
			C248.8,58.3,248,58.9,246.5,58.9z"/>
		<path class="st0" d="M257.9,55.7h-5.2c0.2,1,0.9,1.5,1.8,1.5c0.7,0,1.2-0.2,1.8-0.8l1.2,1.1c-0.7,0.9-1.7,1.4-3.1,1.4
			c-2.3,0-3.9-1.6-3.9-3.9v0c0-2.1,1.5-3.9,3.7-3.9c2.5,0,3.7,1.9,3.7,4.1v0C257.9,55.4,257.9,55.5,257.9,55.7z M254.3,52.8
			c-0.9,0-1.5,0.6-1.6,1.6h3.2C255.7,53.4,255.2,52.8,254.3,52.8z"/>
	</g>
</g>
<g>
	<g>
		<path class="st0" d="M283.4,84.4c-1.5,0-3-0.5-4.2-1.6l1.3-1.5c0.9,0.7,1.8,1.2,2.9,1.2c0.9,0,1.4-0.3,1.4-0.9v0
			c0-0.5-0.3-0.8-2-1.2c-2-0.5-3.2-1-3.2-3v0c0-1.8,1.4-3,3.4-3c1.4,0,2.6,0.4,3.6,1.2l-1.1,1.6c-0.9-0.6-1.7-1-2.5-1
			s-1.3,0.4-1.3,0.9v0c0,0.6,0.4,0.9,2.1,1.3c2,0.5,3.1,1.2,3.1,2.9v0C287,83.3,285.5,84.4,283.4,84.4z"/>
		<path class="st0" d="M295.6,81.2h-5.2c0.2,1,0.9,1.5,1.8,1.5c0.7,0,1.2-0.2,1.8-0.8l1.2,1.1c-0.7,0.9-1.7,1.4-3.1,1.4
			c-2.3,0-3.9-1.6-3.9-3.9v0c0-2.1,1.5-3.9,3.7-3.9c2.5,0,3.7,1.9,3.7,4.1v0C295.6,80.9,295.6,81.1,295.6,81.2z M292,78.3
			c-0.9,0-1.5,0.6-1.6,1.6h3.2C293.4,79,292.9,78.3,292,78.3z"/>
		<path class="st0" d="M300.8,84.4c-2.3,0-3.9-1.7-3.9-3.9v0c0-2.1,1.6-3.9,3.9-3.9c1.4,0,2.3,0.5,3,1.3l-1.3,1.4
			c-0.5-0.5-1-0.8-1.7-0.8c-1.1,0-1.8,0.9-1.8,2v0c0,1.1,0.7,2.1,1.9,2.1c0.7,0,1.2-0.3,1.7-0.8l1.2,1.3
			C303.1,83.9,302.3,84.4,300.8,84.4z"/>
		<path class="st0" d="M309.9,84.3v-1.1c-0.5,0.6-1.1,1.2-2.2,1.2c-1.6,0-2.5-1.1-2.5-2.8v-4.9h2.1v4.2c0,1,0.5,1.5,1.3,1.5
			s1.3-0.5,1.3-1.5v-4.2h2.1v7.5H309.9z"/>
		<path class="st0" d="M318.3,78.8c-1.4,0-2.3,0.9-2.3,2.6v2.8h-2.1v-7.5h2.1v1.5c0.4-1,1.1-1.7,2.4-1.7v2.2H318.3z"/>
		<path class="st0" d="M319.8,75.9V74h2.2v1.9H319.8z M319.9,84.3v-7.5h2.1v7.5H319.9z"/>
		<path class="st0" d="M326.6,84.4c-1.3,0-2.2-0.5-2.2-2.3v-3.6h-0.9v-1.8h0.9v-1.9h2.1v1.9h1.8v1.8h-1.8v3.2c0,0.5,0.2,0.7,0.7,0.7
			c0.4,0,0.7-0.1,1.1-0.3V84C327.8,84.2,327.3,84.4,326.6,84.4z"/>
		<path class="st0" d="M334.1,84.4c-0.6,1.5-1.2,2.1-2.5,2.1c-0.8,0-1.3-0.2-1.9-0.5l0.7-1.5c0.3,0.2,0.6,0.3,0.9,0.3
			c0.4,0,0.6-0.1,0.7-0.5l-2.9-7.5h2.3l1.7,5.1l1.6-5.1h2.2L334.1,84.4z"/>
		<path class="st0" d="M291.7,101.2c-3.1,0-5.2-2.1-5.2-5v0c0-2.8,2.2-5.1,5.1-5.1c1.8,0,2.8,0.5,3.9,1.3l-1.4,1.6
			c-0.8-0.6-1.4-1-2.6-1c-1.6,0-2.8,1.4-2.8,3.1v0c0,1.8,1.2,3.1,3,3.1c0.8,0,1.5-0.2,2-0.6v-1.4h-2.2v-1.9h4.3v4.3
			C294.9,100.5,293.5,101.2,291.7,101.2z"/>
		<path class="st0" d="M302.2,95.6c-1.4,0-2.3,0.9-2.3,2.6v2.8h-2.1v-7.5h2.1v1.5c0.4-1,1.1-1.7,2.4-1.7v2.2H302.2z"/>
		<path class="st0" d="M307.3,101.2c-2.3,0-4-1.7-4-3.9v0c0-2.2,1.7-3.9,4.1-3.9c2.3,0,4,1.7,4,3.9v0
			C311.4,99.5,309.7,101.2,307.3,101.2z M309.3,97.3c0-1.1-0.8-2.1-2-2.1c-1.2,0-1.9,0.9-1.9,2v0c0,1.1,0.8,2.1,2,2.1
			C308.6,99.4,309.3,98.5,309.3,97.3L309.3,97.3z"/>
		<path class="st0" d="M317.6,101.1V100c-0.5,0.6-1.1,1.2-2.2,1.2c-1.6,0-2.5-1.1-2.5-2.8v-4.9h2.1v4.2c0,1,0.5,1.5,1.3,1.5
			s1.3-0.5,1.3-1.5v-4.2h2.1v7.5H317.6z"/>
		<path class="st0" d="M326.1,101.2c-1.1,0-1.8-0.5-2.3-1.1v3.2h-2.1v-9.7h2.1v1.1c0.5-0.7,1.2-1.2,2.3-1.2c1.8,0,3.4,1.4,3.4,3.9v0
			C329.5,99.8,327.9,101.2,326.1,101.2z M327.4,97.3c0-1.2-0.8-2.1-1.8-2.1c-1,0-1.8,0.8-1.8,2.1v0c0,1.2,0.8,2.1,1.8,2.1
			C326.6,99.4,327.4,98.6,327.4,97.3L327.4,97.3z"/>
	</g>
</g>
<circle class="st3" cx="308" cy="-93" r="18"/>
</svg>
