<?xml version="1.0" encoding="utf-8"?>
<!-- Generator: Adobe Illustrator 19.1.0, SVG Export Plug-In . SVG Version: 6.00 Build 0)  -->
<svg version="1.1" id="Layer_1" xmlns="http://www.w3.org/2000/svg" xmlns:xlink="http://www.w3.org/1999/xlink" x="0px" y="0px"
	 viewBox="148 -138 320 320" style="enable-background:new 148 -138 320 320;" xml:space="preserve">
<style type="text/css">
	.st0{fill:#607D8B;}
	.st1{fill:#F57C00;}
	.st2{fill-rule:evenodd;clip-rule:evenodd;fill:#F57C00;}
</style>
<g>
	<path class="st0" d="M305,180.6c-2,0-4-0.1-6-0.3l0.2-3c2,0.1,3.9,0.2,5.9,0.3L305,180.6z M311.1,180.6l-0.1-3c2,0,3.9-0.1,5.9-0.3
		l0.2,3C315.1,180.5,313.1,180.6,311.1,180.6z M293,179.8c-2-0.2-4-0.5-6-0.9l0.5-3c1.9,0.3,3.9,0.6,5.8,0.9L293,179.8z
		 M323.2,179.7l-0.4-3c1.9-0.2,3.9-0.5,5.8-0.9l0.5,3C327.2,179.2,325.2,179.5,323.2,179.7z M281,177.7c-2-0.4-3.9-0.9-5.9-1.5
		l0.8-2.9c1.9,0.5,3.8,1,5.7,1.5L281,177.7z M335.1,177.7l-0.7-2.9c1.9-0.4,3.8-0.9,5.7-1.5l0.8,2.9
		C339,176.7,337,177.2,335.1,177.7z M269.4,174.4c-1.9-0.6-3.8-1.3-5.7-2.1l1.1-2.8c1.8,0.7,3.7,1.4,5.6,2L269.4,174.4z
		 M346.7,174.4l-1-2.8c1.9-0.6,3.7-1.3,5.6-2l1.1,2.8C350.6,173,348.6,173.7,346.7,174.4z M258.1,170c-1.8-0.8-3.7-1.7-5.5-2.6
		l1.4-2.7c1.7,0.9,3.5,1.8,5.3,2.6L258.1,170z M358,169.9l-1.2-2.7c1.8-0.8,3.6-1.7,5.3-2.6l1.4,2.7
		C361.7,168.2,359.8,169.1,358,169.9z M247.3,164.4c-1.7-1-3.5-2.1-5.2-3.2l1.6-2.5c1.6,1.1,3.3,2.1,5,3.1L247.3,164.4z
		 M368.8,164.4l-1.5-2.6c1.7-1,3.4-2,5-3.1l1.6,2.5C372.2,162.3,370.5,163.4,368.8,164.4z M237.1,157.9c-1.6-1.2-3.3-2.4-4.8-3.7
		l1.9-2.3c1.5,1.2,3.1,2.4,4.7,3.6L237.1,157.9z M378.9,157.8l-1.8-2.4c1.6-1.1,3.2-2.3,4.7-3.6l1.9,2.3
		C382.2,155.5,380.5,156.7,378.9,157.8z M227.6,150.3c-1.5-1.3-3-2.7-4.4-4.1l2.1-2.1c1.4,1.4,2.9,2.7,4.3,4L227.6,150.3z
		 M388.4,150.3l-2-2.2c1.5-1.3,2.9-2.7,4.3-4l2.1,2.1C391.4,147.6,389.9,149,388.4,150.3z M219,141.8c-1.4-1.5-2.7-3-4-4.5l2.3-1.9
		c1.3,1.5,2.6,3,3.9,4.4L219,141.8z M397,141.8l-2.2-2c1.3-1.4,2.7-2.9,3.9-4.4l2.3,1.9C399.8,138.8,398.4,140.4,397,141.8z
		 M211.2,132.6c-1.2-1.6-2.4-3.3-3.5-4.9l2.5-1.7c1.1,1.6,2.3,3.2,3.5,4.8L211.2,132.6z M404.8,132.6l-2.4-1.8
		c1.2-1.6,2.4-3.2,3.5-4.8l2.5,1.7C407.2,129.3,406.1,131,404.8,132.6z M204.3,122.6c-1.1-1.7-2.1-3.5-3-5.2l2.6-1.4
		c0.9,1.7,1.9,3.4,3,5.1L204.3,122.6z M411.7,122.6l-2.6-1.6c1-1.7,2-3.4,3-5.1l2.6,1.4C413.8,119.1,412.7,120.8,411.7,122.6z
		 M198.5,112c-0.9-1.8-1.7-3.7-2.5-5.5l2.8-1.2c0.8,1.8,1.6,3.6,2.4,5.4L198.5,112z M417.5,111.9l-2.7-1.3c0.9-1.8,1.7-3.6,2.4-5.4
		l2.8,1.2C419.2,108.2,418.4,110.1,417.5,111.9z M193.8,100.9c-0.7-1.9-1.3-3.8-1.9-5.7l2.9-0.9c0.6,1.9,1.2,3.8,1.9,5.6
		L193.8,100.9z M422.2,100.7l-2.8-1c0.7-1.8,1.3-3.7,1.9-5.6l2.9,0.9C423.5,96.9,422.9,98.8,422.2,100.7z M190.3,89.3
		c-0.5-1.9-1-3.9-1.3-5.9l2.9-0.6c0.4,1.9,0.8,3.9,1.3,5.8L190.3,89.3z M425.8,89.2l-2.9-0.7c0.5-1.9,0.9-3.8,1.3-5.8l2.9,0.6
		C426.7,85.2,426.3,87.2,425.8,89.2z M187.9,77.4c-0.3-2-0.6-4-0.8-6l3-0.3c0.2,2,0.4,3.9,0.7,5.9L187.9,77.4z M428.2,77.3l-3-0.4
		c0.3-1.9,0.5-3.9,0.7-5.9l3,0.3C428.7,73.3,428.5,75.3,428.2,77.3z M186.7,65.4c-0.1-2-0.2-4-0.2-6.1l3,0c0,2,0.1,4,0.2,5.9
		L186.7,65.4z M429.4,65.2l-3-0.1c0.1-1.9,0.1-3.9,0.1-5.9l0-0.3h3l0,0.2C429.5,61.2,429.5,63.2,429.4,65.2z M189.6,53.4l-3-0.1
		c0.1-2,0.2-4,0.4-6l3,0.3C189.9,49.5,189.7,51.4,189.6,53.4z M426.3,53c-0.1-2-0.3-3.9-0.4-5.9l3-0.3c0.2,2,0.4,4,0.5,6L426.3,53z
		 M190.8,41.6l-3-0.4c0.3-2,0.6-4,1-6l2.9,0.6C191.4,37.8,191.1,39.7,190.8,41.6z M425.2,41.3c-0.3-1.9-0.6-3.9-1-5.8l2.9-0.6
		c0.4,2,0.8,4,1.1,6L425.2,41.3z M193.1,30.1l-2.9-0.7c0.5-1.9,1-3.9,1.6-5.8l2.9,0.9C194.1,26.3,193.6,28.2,193.1,30.1z
		 M422.8,29.7c-0.5-1.9-1-3.8-1.6-5.7l2.9-0.9c0.6,1.9,1.1,3.9,1.6,5.8L422.8,29.7z M196.6,18.8l-2.8-1c0.7-1.9,1.4-3.8,2.2-5.7
		l2.8,1.2C198,15.1,197.2,16.9,196.6,18.8z M419.3,18.4c-0.7-1.8-1.4-3.7-2.2-5.5l2.8-1.2c0.8,1.8,1.5,3.7,2.2,5.6L419.3,18.4z
		 M201.2,7.9l-2.7-1.3c0.9-1.8,1.8-3.6,2.8-5.4l2.6,1.4C202.9,4.3,202,6.1,201.2,7.9z M414.7,7.6c-0.9-1.8-1.8-3.5-2.7-5.2l2.6-1.4
		c1,1.8,1.9,3.6,2.8,5.4L414.7,7.6z M206.8-2.5l-2.6-1.6c1-1.7,2.2-3.4,3.3-5.1l2.5,1.7C208.9-5.9,207.8-4.2,206.8-2.5z M409-2.8
		c-1-1.7-2.1-3.3-3.2-4.9l2.5-1.7c1.1,1.6,2.2,3.4,3.3,5.1L409-2.8z M213.5-12.3l-2.4-1.8c1.2-1.6,2.5-3.2,3.8-4.7l2.3,1.9
		C215.9-15.4,214.7-13.9,213.5-12.3z M402.4-12.5c-1.2-1.6-2.4-3.1-3.7-4.6l2.3-1.9c1.3,1.5,2.6,3.1,3.8,4.7L402.4-12.5z
		 M221.1-21.3l-2.2-2c1.4-1.5,2.8-2.9,4.2-4.3l2.1,2.1C223.8-24.2,222.4-22.8,221.1-21.3z M394.8-21.5c-1.3-1.4-2.7-2.9-4.1-4.2
		l2.1-2.2c1.4,1.4,2.9,2.9,4.2,4.3L394.8-21.5z M229.5-29.6l-2-2.2c1.5-1.3,3.1-2.6,4.6-3.9l1.9,2.3C232.5-32.2,231-30.9,229.5-29.6
		z M386.3-29.8c-1.5-1.3-3-2.6-4.5-3.8l1.9-2.3c1.6,1.2,3.1,2.6,4.6,3.9L386.3-29.8z M238.7-37l-1.8-2.4c1.6-1.2,3.3-2.3,5-3.4
		l1.6,2.5C242-39.2,240.3-38.1,238.7-37z M377-37.1c-1.6-1.1-3.2-2.3-4.9-3.3l1.6-2.5c1.7,1.1,3.4,2.2,5,3.4L377-37.1z M248.6-43.4
		l-1.5-2.6c1.7-1,3.5-2,5.3-2.9l1.4,2.7C252.1-45.3,250.3-44.4,248.6-43.4z M367.1-43.5c-1.7-1-3.4-1.9-5.2-2.8l1.4-2.7
		c1.8,0.9,3.6,1.9,5.3,2.9L367.1-43.5z M259.1-48.8l-1.2-2.7c1.8-0.8,3.7-1.6,5.6-2.4l1.1,2.8C262.7-50.4,260.9-49.6,259.1-48.8z
		 M356.6-48.9c-1.8-0.8-3.6-1.6-5.5-2.3l1.1-2.8c1.9,0.7,3.8,1.5,5.6,2.4L356.6-48.9z M270.1-53.1l-1-2.8c1.9-0.6,3.9-1.2,5.8-1.8
		l0.8,2.9C273.8-54.3,271.9-53.8,270.1-53.1z M345.6-53.2c-1.9-0.6-3.8-1.2-5.6-1.7l0.8-2.9c1.9,0.5,3.9,1.1,5.8,1.8L345.6-53.2z
		 M281.5-56.3l-0.7-2.9c2-0.4,4-0.9,5.9-1.2l0.5,3C285.3-57.2,283.4-56.8,281.5-56.3z M334.2-56.4c-1.9-0.4-3.9-0.8-5.8-1.2l0.5-3
		c2,0.3,4,0.7,5.9,1.2L334.2-56.4z M293.1-58.4l-0.4-3c2-0.2,4-0.5,6-0.6l0.2,3C297-58.8,295-58.6,293.1-58.4z M322.5-58.4
		c-1.9-0.2-3.9-0.4-5.9-0.6l0.2-3c2,0.1,4,0.3,6,0.6L322.5-58.4z M304.9-59.3l-0.1-3c2-0.1,4-0.1,6.1,0l-0.1,3
		C308.8-59.3,306.8-59.3,304.9-59.3z"/>
</g>
<g>
	<g>
		<path class="st1" d="M287.1,76.1h-4.7v-9.8h4.6c2,0,3.2,1,3.2,2.5v0c0,1.1-0.6,1.7-1.3,2.1c1.1,0.4,1.8,1.1,1.8,2.4v0
			C290.8,75.2,289.3,76.1,287.1,76.1z M288.1,69.2c0-0.6-0.5-1-1.4-1h-2.1v2.1h2C287.5,70.2,288.1,69.9,288.1,69.2L288.1,69.2z
			 M288.6,73.1c0-0.7-0.5-1.1-1.6-1.1h-2.5v2.2h2.6C288.1,74.2,288.6,73.8,288.6,73.1L288.6,73.1z"/>
		<path class="st1" d="M296.7,76.1v-0.8c-0.5,0.6-1.2,1-2.3,1c-1.4,0-2.6-0.8-2.6-2.3v0c0-1.6,1.2-2.4,3-2.4c0.8,0,1.3,0.1,1.8,0.3
			v-0.1c0-0.9-0.5-1.4-1.6-1.4c-0.8,0-1.4,0.2-2.1,0.4l-0.5-1.6c0.8-0.4,1.6-0.6,2.9-0.6c2.3,0,3.3,1.2,3.3,3.2v4.4H296.7z
			 M296.8,73c-0.4-0.2-0.8-0.3-1.4-0.3c-0.9,0-1.5,0.4-1.5,1v0c0,0.6,0.5,0.9,1.2,0.9c1,0,1.7-0.5,1.7-1.3V73z"/>
		<path class="st1" d="M303.2,76.2c-1.1,0-2.2-0.3-3.2-1.1l0.9-1.4c0.8,0.6,1.7,0.9,2.4,0.9c0.6,0,0.9-0.2,0.9-0.6v0
			c0-0.5-0.7-0.6-1.6-0.9c-1.1-0.3-2.2-0.8-2.2-2.3v0c0-1.5,1.2-2.4,2.7-2.4c1,0,2,0.3,2.8,0.9l-0.8,1.5c-0.7-0.4-1.5-0.7-2-0.7
			c-0.5,0-0.8,0.2-0.8,0.5v0c0,0.4,0.7,0.6,1.5,0.9c1.1,0.4,2.3,0.9,2.3,2.2v0C306.1,75.5,304.9,76.2,303.2,76.2z"/>
		<path class="st1" d="M310.2,76.2c-1.3,0-2.2-0.5-2.2-2.3v-3.6h-0.9v-1.8h0.9v-1.9h2.1v1.9h1.8v1.8h-1.8v3.2c0,0.5,0.2,0.7,0.7,0.7
			c0.4,0,0.7-0.1,1.1-0.3v1.7C311.4,76,310.9,76.2,310.2,76.2z"/>
		<path class="st1" d="M313.5,67.7v-1.9h2.2v1.9H313.5z M313.5,76.1v-7.5h2.1v7.5H313.5z"/>
		<path class="st1" d="M321.4,76.2c-2.3,0-4-1.7-4-3.9v0c0-2.2,1.7-3.9,4.1-3.9c2.3,0,4,1.7,4,3.9v0
			C325.4,74.5,323.7,76.2,321.4,76.2z M323.3,72.3c0-1.1-0.8-2.1-2-2.1c-1.2,0-1.9,0.9-1.9,2v0c0,1.1,0.8,2.1,2,2.1
			C322.6,74.4,323.3,73.5,323.3,72.3L323.3,72.3z"/>
		<path class="st1" d="M331.7,76.1v-4.2c0-1-0.5-1.5-1.3-1.5s-1.3,0.5-1.3,1.5v4.2H327v-7.5h2.1v1.1c0.5-0.6,1.1-1.2,2.2-1.2
			c1.6,0,2.5,1.1,2.5,2.8v4.9H331.7z"/>
		<path class="st1" d="M279.4,92.9v-9.8h2.2v9.8H279.4z"/>
		<path class="st1" d="M288.5,92.9v-4.2c0-1-0.5-1.5-1.3-1.5c-0.8,0-1.3,0.5-1.3,1.5v4.2h-2.1v-7.5h2.1v1.1c0.5-0.6,1.1-1.2,2.2-1.2
			c1.6,0,2.5,1.1,2.5,2.8v4.9H288.5z"/>
		<path class="st1" d="M295.1,93c-1.1,0-2.2-0.4-3.2-1.1l0.9-1.4c0.8,0.6,1.7,0.9,2.4,0.9c0.6,0,0.9-0.2,0.9-0.6v0
			c0-0.5-0.7-0.6-1.6-0.9c-1.1-0.3-2.2-0.8-2.2-2.3v0c0-1.5,1.2-2.4,2.7-2.4c1,0,2,0.3,2.8,0.9l-0.8,1.5c-0.7-0.4-1.5-0.7-2-0.7
			c-0.5,0-0.8,0.2-0.8,0.5v0c0,0.4,0.7,0.6,1.5,0.9c1.1,0.3,2.3,0.9,2.3,2.2v0C298,92.3,296.7,93,295.1,93z"/>
		<path class="st1" d="M302,93c-1.3,0-2.2-0.5-2.2-2.3v-3.6h-0.9v-1.8h0.9v-1.9h2.1v1.9h1.8v1.8H302v3.2c0,0.5,0.2,0.7,0.7,0.7
			c0.4,0,0.7-0.1,1.1-0.3v1.7C303.2,92.8,302.7,93,302,93z"/>
		<path class="st1" d="M309.7,92.9v-0.8c-0.5,0.6-1.2,1-2.3,1c-1.4,0-2.6-0.8-2.6-2.3v0c0-1.6,1.2-2.4,3-2.4c0.8,0,1.3,0.1,1.8,0.3
			v-0.1c0-0.9-0.5-1.4-1.6-1.4c-0.8,0-1.4,0.2-2.1,0.4l-0.5-1.6c0.8-0.4,1.6-0.6,2.9-0.6c2.3,0,3.3,1.2,3.3,3.2v4.4H309.7z
			 M309.7,89.8c-0.4-0.2-0.8-0.3-1.4-0.3c-0.9,0-1.5,0.4-1.5,1v0c0,0.6,0.5,0.9,1.2,0.9c1,0,1.7-0.5,1.7-1.3V89.8z"/>
		<path class="st1" d="M318.3,92.9v-4.2c0-1-0.5-1.5-1.3-1.5s-1.3,0.5-1.3,1.5v4.2h-2.1v-7.5h2.1v1.1c0.5-0.6,1.1-1.2,2.2-1.2
			c1.6,0,2.5,1.1,2.5,2.8v4.9H318.3z"/>
		<path class="st1" d="M325.8,93c-2.3,0-3.9-1.7-3.9-3.9v0c0-2.1,1.6-3.9,3.9-3.9c1.4,0,2.3,0.5,3,1.3l-1.3,1.4
			c-0.5-0.5-1-0.8-1.7-0.8c-1.1,0-1.8,0.9-1.8,2v0c0,1.1,0.7,2.1,1.9,2.1c0.7,0,1.2-0.3,1.7-0.8l1.2,1.3
			C328.2,92.5,327.3,93,325.8,93z"/>
		<path class="st1" d="M337.3,89.9H332c0.2,1,0.9,1.5,1.8,1.5c0.7,0,1.2-0.2,1.8-0.8l1.2,1.1c-0.7,0.9-1.7,1.4-3.1,1.4
			c-2.3,0-3.9-1.6-3.9-3.9v0c0-2.1,1.5-3.9,3.7-3.9c2.5,0,3.7,1.9,3.7,4.1v0C337.3,89.5,337.3,89.7,337.3,89.9z M333.6,86.9
			c-0.9,0-1.5,0.6-1.6,1.6h3.2C335.1,87.6,334.5,86.9,333.6,86.9z"/>
	</g>
</g>
<g>
	<path class="st0" d="M324-117c0.5,0,1-0.4,1-1v-6c0-0.6-0.5-1-1-1s-1,0.4-1,1v6C323-117.4,323.5-117,324-117z"/>
	<path class="st0" d="M340-125c-0.5,0-1,0.4-1,1v6c0,0.6,0.5,1,1,1s1-0.4,1-1v-6C341-124.6,340.5-125,340-125z"/>
	<path class="st0" d="M340-133c-3.5,0-6.5,2-8,4.9c-1.5-2.9-4.5-4.9-8-4.9s-6.5,2-8,4.9c-1.5-2.9-4.5-4.9-8-4.9s-6.5,2-8,4.9
		c-1.5-2.9-4.5-4.9-8-4.9s-6.5,2-8,4.9c-1.5-2.9-4.5-4.9-8-4.9c-5,0-9,4.1-9,9v18c0,4.9,4,9,9,9c2.9,0,5.4-1.3,7-3.3v9.3
		c0,2.8,2.2,5,5,5s5-2.2,5-5v-6.1c3-0.3,5.6-2.2,7-4.8c1.5,2.9,4.5,4.9,8,4.9s6.5-2,8-4.9c1.5,2.9,4.5,4.9,8,4.9s6.5-2,8-4.9
		c1.5,2.9,4.5,4.9,8,4.9c5,0,9-4,9-9v-18C349-128.9,345-133,340-133z M276-99c-3.9,0-7-3.2-7-7v-18c0-3.8,3.1-7,7-7s7,3.2,7,7l0,0
		v18l0,0C283-102.2,279.9-99,276-99z M292-99c-0.4,0-0.6-0.1-1-0.1v8.1c0,1.7-1.4,3-3,3s-3-1.3-3-3v-15v-18c0-3.8,3.1-7,7-7
		s7,3.2,7,7l0,0v18l0,0C299-102.2,295.9-99,292-99z M307.6-99c-3.8-0.2-6.6-3.4-6.6-7.2v-2.8c0-0.6,0.5-1,1-1h4c0.5,0,1,0.4,1,1v2.9
		c0,0.5,0.4,1,0.9,1.1c0.6,0.1,1.1-0.4,1.1-1v-3c0-1.7-1.4-3-3-3h-0.5c-2.5,0-4.5-2-4.5-4.5v-7.3c0-3.8,2.9-7,6.6-7.2
		c4-0.2,7.4,3,7.4,7l0,0v3c0,0.6-0.5,1-1,1h-4c-0.5,0-1-0.4-1-1v-2.9c0-0.5-0.4-1-0.9-1.1c-0.6-0.1-1.1,0.4-1.1,1v3c0,1.7,1.4,3,3,3
		h0.5c2.5,0,4.5,2,4.5,4.5v7.5l0,0C315-102,311.6-98.8,307.6-99z M323.6-99c-3.8-0.2-6.6-3.4-6.6-7.2v-17.6c0-3.8,2.9-7,6.6-7.2
		c4-0.2,7.4,3,7.4,7l0,0v12c0,0.6-0.5,1-1,1h-4c-1.6,0-3,1.3-3,3v1.9c0,0.5,0.4,1,0.9,1.1c0.6,0.1,1.1-0.4,1.1-1v-2.3
		c0-0.5,0.5-1,1-1h4c0.5,0,1,0.5,1,1v2.3l0,0C331-102,327.6-98.8,323.6-99z M347-112c0,0.6-0.5,1-1,1h-4c-1.6,0-3,1.3-3,3v1.9
		c0,0.5,0.4,1,0.9,1.1c0.6,0.1,1.1-0.4,1.1-1v-2.3c0-0.5,0.5-1,1-1h4c0.5,0,1,0.5,1,1v2.3c0,4-3.4,7.2-7.4,7
		c-3.8-0.2-6.6-3.4-6.6-7.2v-17.6c0-3.8,2.9-7,6.6-7.2c4-0.2,7.4,3,7.4,7V-112z"/>
	<path class="st0" d="M292-125c-0.5,0-1,0.4-1,1v18c0,0.6,0.5,1,1,1s1-0.4,1-1v-18C293-124.6,292.5-125,292-125z"/>
	<path class="st0" d="M276-125c-0.5,0-1,0.4-1,1v18c0,0.6,0.5,1,1,1s1-0.4,1-1v-18C277-124.6,276.5-125,276-125z"/>
</g>
<g>
	<path class="st0" d="M278.6,138.2h-1.1v-3.9l-4.1-5.9h1.3l3.3,4.9l3.3-4.9h1.3l-4.1,5.9V138.2z"/>
	<path class="st0" d="M286,138.4c-2.2,0-3.8-1.7-3.8-3.8c0-2.1,1.6-3.8,3.8-3.8c2.2,0,3.8,1.7,3.8,3.8
		C289.8,136.7,288.2,138.4,286,138.4z M286,131.8c-1.6,0-2.6,1.2-2.6,2.8c0,1.6,1.1,2.8,2.7,2.8c1.6,0,2.7-1.2,2.7-2.8
		C288.7,133,287.5,131.8,286,131.8z"/>
	<path class="st0" d="M296.9,131h1.1v7.2h-1.1V137c-0.5,0.8-1.2,1.4-2.5,1.4c-1.8,0-2.8-1.2-2.8-2.9V131h1.1v4.2
		c0,1.3,0.7,2.2,2,2.2c1.2,0,2.2-0.9,2.2-2.3V131z"/>
	<path class="st0" d="M301.4,138.2h-1.1V131h1.1v1.9c0.5-1.2,1.6-2.1,3-2v1.2h-0.1c-1.6,0-2.9,1.1-2.9,3.3V138.2z"/>
	<path class="st0" d="M319.5,138.2h-1.2l-1.1-2.6h-5.3l-1.2,2.6h-1.1l4.5-9.9h1L319.5,138.2z M314.5,129.6l-2.2,5h4.5L314.5,129.6z"
		/>
	<path class="st0" d="M326.1,128.4h0.9l2.7,8.2l2.8-8.2h1.2l-3.5,9.9h-0.9l-2.7-8l-2.7,8H323l-3.5-9.9h1.2l2.8,8.2L326.1,128.4z"/>
	<path class="st0" d="M339,132.8c2.2,0.5,3.2,1.3,3.2,2.8c0,1.7-1.4,2.8-3.3,2.8c-1.6,0-2.8-0.5-4-1.6l0.7-0.8c1,0.9,2,1.4,3.4,1.4
		c1.3,0,2.2-0.7,2.2-1.7c0-0.9-0.5-1.4-2.5-1.9c-2.3-0.5-3.3-1.2-3.3-2.8c0-1.6,1.4-2.7,3.2-2.7c1.4,0,2.5,0.4,3.4,1.2l-0.6,0.9
		c-0.9-0.7-1.8-1.1-2.8-1.1c-1.3,0-2.1,0.7-2.1,1.6C336.3,131.8,336.8,132.3,339,132.8z"/>
	<path class="st0" d="M268.4,154.2c1,0,1.7-0.4,2.3-1l0.7,0.6c-0.7,0.8-1.6,1.4-3,1.4c-2,0-3.6-1.5-3.6-3.8c0-2.1,1.5-3.8,3.5-3.8
		c2.1,0,3.4,1.7,3.4,3.8c0,0.1,0,0.2,0,0.3h-5.7C266,153.4,267.1,154.2,268.4,154.2z M270.5,151c-0.1-1.3-0.9-2.5-2.3-2.5
		c-1.3,0-2.2,1.1-2.4,2.5H270.5z"/>
	<path class="st0" d="M274.6,155h-1.1v-7.2h1.1v1.3c0.5-0.8,1.2-1.4,2.5-1.4c1.8,0,2.8,1.2,2.8,2.9v4.5h-1.1v-4.2
		c0-1.3-0.7-2.2-2-2.2c-1.2,0-2.2,0.9-2.2,2.3V155z"/>
	<path class="st0" d="M287.5,147.8h1.2l-3.2,7.3h-1l-3.1-7.3h1.2l2.4,6L287.5,147.8z"/>
	<path class="st0" d="M290.3,146.2V145h1.2v1.2H290.3z M290.4,155v-7.2h1.1v7.2H290.4z"/>
	<path class="st0" d="M295.1,155H294v-7.2h1.1v1.9c0.5-1.2,1.6-2.1,3-2v1.2h-0.1c-1.6,0-2.9,1.1-2.9,3.3V155z"/>
	<path class="st0" d="M303,155.2c-2.2,0-3.8-1.7-3.8-3.8c0-2.1,1.6-3.8,3.8-3.8c2.2,0,3.8,1.7,3.8,3.8S305.2,155.2,303,155.2z
		 M303,148.6c-1.6,0-2.6,1.2-2.6,2.8c0,1.6,1.1,2.8,2.7,2.8c1.6,0,2.7-1.2,2.7-2.8C305.7,149.8,304.5,148.6,303,148.6z"/>
	<path class="st0" d="M309.8,155h-1.1v-7.2h1.1v1.3c0.5-0.8,1.2-1.4,2.5-1.4c1.8,0,2.8,1.2,2.8,2.9v4.5H314v-4.2
		c0-1.3-0.7-2.2-2-2.2c-1.2,0-2.2,0.9-2.2,2.3V155z"/>
	<path class="st0" d="M325.6,147.6c1.7,0,2.7,1.1,2.7,2.9v4.5h-1.1v-4.2c0-1.4-0.7-2.2-1.9-2.2c-1.1,0-2,0.8-2,2.2v4.2h-1.1v-4.3
		c0-1.4-0.7-2.2-1.9-2.2c-1.1,0-2,1-2,2.3v4.1h-1.1v-7.2h1.1v1.2c0.5-0.7,1.1-1.4,2.3-1.4c1.2,0,1.9,0.6,2.3,1.4
		C323.6,148.3,324.4,147.6,325.6,147.6z"/>
	<path class="st0" d="M333.8,154.2c1,0,1.7-0.4,2.3-1l0.7,0.6c-0.7,0.8-1.6,1.4-3,1.4c-2,0-3.6-1.5-3.6-3.8c0-2.1,1.5-3.8,3.5-3.8
		c2.1,0,3.4,1.7,3.4,3.8c0,0.1,0,0.2,0,0.3h-5.7C331.5,153.4,332.6,154.2,333.8,154.2z M336,151c-0.1-1.3-0.9-2.5-2.3-2.5
		c-1.3,0-2.2,1.1-2.4,2.5H336z"/>
	<path class="st0" d="M340,155h-1.1v-7.2h1.1v1.3c0.5-0.8,1.2-1.4,2.5-1.4c1.8,0,2.8,1.2,2.8,2.9v4.5h-1.1v-4.2c0-1.3-0.7-2.2-2-2.2
		c-1.2,0-2.2,0.9-2.2,2.3V155z"/>
	<path class="st0" d="M349,153c0,0.9,0.5,1.2,1.2,1.2c0.4,0,0.7-0.1,1.1-0.3v0.9c-0.4,0.2-0.8,0.3-1.3,0.3c-1.2,0-2-0.6-2-2v-4.4h-1
		v-1h1v-2.2h1.1v2.2h2.3v1H349V153z"/>
</g>
<circle class="st2" cx="308.3" cy="37.8" r="18"/>
<polygon class="st0" points="318.4,-15.4 310,-6.4 310,-81 307,-81 307,-6 298.2,-15.4 296,-13.3 308.3,-0.2 320.6,-13.3 "/>
</svg>
