<?xml version="1.0" encoding="utf-8"?>
<!-- Generator: Adobe Illustrator 19.1.0, SVG Export Plug-In . SVG Version: 6.00 Build 0)  -->
<svg version="1.1" id="Layer_1" xmlns="http://www.w3.org/2000/svg" xmlns:xlink="http://www.w3.org/1999/xlink" x="0px" y="0px"
	 viewBox="148 -148 320 210" style="enable-background:new 148 -148 320 210;" xml:space="preserve">
<style type="text/css">
	.st0{fill:#607D8B;}
	.st1{fill:#66BB6A;}
	.st2{fill:#E53935;}
</style>
<g>
	<path class="st0" d="M389-7.9c-2.1,0-4.1-0.1-6.1-0.3l0.3-3c1.9,0.2,3.9,0.3,5.8,0.3h0.1L389-7.9L389-7.9L389-7.9z M395.3-8.2
		l-0.3-3c2-0.2,3.9-0.5,5.8-0.9l0.6,2.9C399.5-8.7,397.4-8.4,395.3-8.2z M376.7-9.1c-2-0.4-4-1-6-1.6l0.9-2.9
		c1.9,0.6,3.8,1.1,5.7,1.5L376.7-9.1z M407.5-10.8l-0.9-2.9c1.9-0.6,3.7-1.3,5.5-2.1l1.2,2.7C411.4-12.2,409.5-11.4,407.5-10.8z
		 M364.9-12.9c-1.9-0.8-3.8-1.8-5.6-2.8l1.5-2.6c1.7,1,3.5,1.9,5.3,2.7L364.9-12.9z M418.8-15.9l-1.5-2.6c1.7-1,3.4-2.1,5-3.2
		l1.8,2.4C422.4-18,420.6-16.9,418.8-15.9z M354.1-19.1c-1.7-1.2-3.3-2.5-4.8-3.9l2-2.2c1.5,1.3,3,2.6,4.6,3.7L354.1-19.1z
		 M428.9-23.2l-2-2.2c1.5-1.3,2.9-2.7,4.2-4.2l2.2,2C431.9-26.1,430.4-24.6,428.9-23.2z M344.9-27.4c-1.4-1.5-2.7-3.2-3.9-4.8
		l2.4-1.8c1.2,1.6,2.4,3.1,3.7,4.6L344.9-27.4z M437.2-32.4l-2.4-1.8c1.2-1.6,2.2-3.3,3.2-5l2.6,1.5
		C439.5-35.9,438.4-34.1,437.2-32.4z M337.5-37.5c-1-1.8-2-3.6-2.8-5.5l2.7-1.2c0.8,1.8,1.7,3.6,2.7,5.3L337.5-37.5z M443.4-43.2
		l-2.7-1.2c0.8-1.8,1.5-3.7,2.1-5.5l2.9,0.9C445-47.1,444.2-45.1,443.4-43.2z M332.4-48.8c-0.6-2-1.2-4-1.6-6l2.9-0.6
		c0.4,1.9,0.9,3.8,1.5,5.7L332.4-48.8z M447.2-55l-2.9-0.6c0.4-1.9,0.7-3.9,0.9-5.8l3,0.3C448-59.1,447.7-57.1,447.2-55z M329.8-61
		c-0.2-2-0.3-4.1-0.3-6.2h3c0,2,0.1,4,0.3,5.9L329.8-61z M445.5-67.4c0-2-0.1-4-0.3-5.9l3-0.3c0.2,2,0.3,4.1,0.3,6.2H445.5z
		 M332.8-73.1l-3-0.3c0.2-2.1,0.5-4.1,0.9-6.2l2.9,0.6C333.3-77,333-75.1,332.8-73.1z M444.3-79.1c-0.4-1.9-0.9-3.8-1.5-5.7l2.9-0.9
		c0.6,2,1.2,4,1.6,6L444.3-79.1z M335.2-84.7l-2.9-0.9c0.6-2,1.4-3.9,2.2-5.8l2.7,1.2C336.5-88.4,335.8-86.5,335.2-84.7z
		 M440.6-90.4c-0.8-1.8-1.7-3.6-2.7-5.3l2.6-1.5c1,1.8,2,3.7,2.8,5.5L440.6-90.4z M340-95.4l-2.6-1.5c1-1.8,2.2-3.6,3.4-5.2l2.4,1.8
		C342-98.8,341-97.2,340-95.4z M434.7-100.6c-1.2-1.6-2.4-3.1-3.7-4.6l2.2-2c1.4,1.5,2.7,3.2,3.9,4.8L434.7-100.6z M346.9-105
		l-2.2-2c1.4-1.5,2.9-3,4.4-4.4l2,2.2C349.6-107.9,348.2-106.5,346.9-105z M426.8-109.4c-1.5-1.3-3-2.6-4.6-3.7l1.8-2.4
		c1.7,1.2,3.3,2.5,4.8,3.9L426.8-109.4z M355.6-113l-1.8-2.4c1.7-1.2,3.4-2.4,5.2-3.4l1.5,2.6C358.9-115.2,357.2-114.1,355.6-113z
		 M417.2-116.3c-1.7-1-3.5-1.9-5.3-2.7l1.2-2.7c1.9,0.8,3.8,1.8,5.5,2.8L417.2-116.3z M365.8-118.9l-1.2-2.7
		c1.9-0.8,3.8-1.6,5.8-2.3l0.9,2.8C369.5-120.4,367.6-119.7,365.8-118.9z M406.5-121.1c-1.9-0.6-3.8-1.1-5.7-1.5l0.6-2.9
		c2,0.4,4,1,6,1.6L406.5-121.1z M377-122.6l-0.6-2.9c2-0.4,4.1-0.8,6.1-1l0.3,3C380.9-123.3,379-123,377-122.6z M394.9-123.5
		c-1.9-0.2-3.9-0.3-5.9-0.3h-0.2v-3h0.2c2.1,0,4.2,0.1,6.2,0.3L394.9-123.5z"/>
</g>
<path class="st1" d="M408.7-67.3c-9.9,0-18,8.1-18,18s8.1,18,18,18s18-8.1,18-18S418.6-67.3,408.7-67.3z M406.3-43.3l-5.2-5.2
	l2.1-2.1l3.1,3.1l7.8-7.8l2.1,2.1L406.3-43.3z"/>
<path class="st1" d="M408.7-104.9c-9.9,0-18,8.1-18,18s8.1,18,18,18s18-8.1,18-18S418.6-104.9,408.7-104.9z M406.3-80.9l-5.2-5.2
	l2.1-2.1l3.1,3.1l7.8-7.8l2.1,2.1L406.3-80.9z"/>
<path class="st1" d="M369.3-67.3c-9.9,0-18,8.1-18,18s8.1,18,18,18s18-8.1,18-18S379.3-67.3,369.3-67.3z M367-43.3l-5.2-5.2l2.1-2.1
	l3.1,3.1l7.8-7.8l2.1,2.1L367-43.3z"/>
<path class="st2" d="M369.3-104.9c-9.9,0-18,8.1-18,18s8.1,18,18,18s18-8.1,18-18S379.3-104.9,369.3-104.9z M375.3-82.7l-1.8,1.8
	l-4.2-4.2l-4.2,4.2l-1.8-1.8l4.2-4.2l-4.2-4.2l1.8-1.8l4.2,4.2l4.2-4.2l1.8,1.8l-4.2,4.2L375.3-82.7z"/>
<g>
	<path class="st0" d="M221.6-13.3v-3c2,0,4-0.1,5.9-0.4l0.4,3C225.8-13.5,223.7-13.4,221.6-13.3z M215.3-13.7
		c-2.1-0.2-4.2-0.6-6.2-1.1l0.7-2.9c1.9,0.4,3.9,0.8,5.8,1L215.3-13.7z M234.1-14.8l-0.7-2.9c1.9-0.5,3.8-1,5.7-1.7l1,2.8
		C238.1-15.9,236.1-15.3,234.1-14.8z M203.1-16.6c-2-0.7-3.9-1.5-5.8-2.5l1.3-2.7c1.8,0.9,3.6,1.7,5.4,2.3L203.1-16.6z M245.8-19.1
		l-1.4-2.7c1.8-0.9,3.5-1.9,5.1-3l1.7,2.5C249.5-21.1,247.7-20.1,245.8-19.1z M191.9-22.2c-1.7-1.1-3.4-2.4-5-3.7l1.9-2.3
		c1.5,1.3,3.1,2.5,4.8,3.5L191.9-22.2z M256.3-26l-1.9-2.3c1.5-1.3,3-2.6,4.3-4.1l2.2,2.1C259.4-28.8,257.9-27.4,256.3-26z
		 M182.3-30.2c-1.4-1.5-2.8-3.1-4-4.8l2.4-1.8c1.2,1.6,2.5,3.1,3.8,4.5L182.3-30.2z M264.9-35.2l-2.4-1.8c1.2-1.6,2.3-3.3,3.3-5
		l2.6,1.5C267.3-38.6,266.1-36.8,264.9-35.2z M174.8-40.2c-1-1.8-2-3.7-2.8-5.6l2.8-1.2c0.8,1.8,1.7,3.6,2.7,5.3L174.8-40.2z
		 M271.1-46l-2.8-1.2c0.8-1.8,1.5-3.7,2-5.6l2.9,0.9C272.7-49.9,272-47.9,271.1-46z M169.8-51.7c-0.6-2-1.1-4-1.5-6.1l3-0.5
		c0.3,1.9,0.8,3.9,1.4,5.8L169.8-51.7z M274.7-58l-3-0.5c0.3-1.9,0.6-3.9,0.7-5.9l3,0.2C275.3-62.2,275.1-60.1,274.7-58z
		 M167.6-64.1c-0.1-1.1-0.1-2.2-0.1-3.3c0-1,0-2,0.1-3l3,0.2c-0.1,0.9-0.1,1.9-0.1,2.8c0,1,0,2.1,0.1,3.1L167.6-64.1z M272.4-70.4
		c-0.1-2-0.3-3.9-0.7-5.9l3-0.5c0.4,2.1,0.6,4.1,0.7,6.2L272.4-70.4z M171.2-76.1l-3-0.5c0.4-2.1,0.8-4.1,1.4-6.1l2.9,0.8
		C172-79.9,171.6-78,171.2-76.1z M270.4-82c-0.6-1.9-1.2-3.8-2-5.6l2.8-1.2c0.8,1.9,1.6,3.9,2.2,5.9L270.4-82z M174.6-87.4l-2.8-1.2
		c0.8-1.9,1.8-3.8,2.8-5.6l2.6,1.5C176.3-91,175.4-89.2,174.6-87.4z M265.7-92.9c-1-1.7-2.1-3.4-3.3-4.9l2.4-1.8
		c1.2,1.7,2.4,3.4,3.5,5.2L265.7-92.9z M180.5-97.7l-2.4-1.8c1.2-1.7,2.6-3.3,4-4.8l2.2,2.1C182.9-100.8,181.7-99.3,180.5-97.7z
		 M258.6-102.4c-1.4-1.4-2.8-2.8-4.3-4.1l1.9-2.3c1.6,1.3,3.1,2.8,4.6,4.3L258.6-102.4z M188.6-106.3l-1.9-2.3
		c1.6-1.3,3.3-2.6,5-3.8l1.7,2.5C191.7-108.8,190.1-107.6,188.6-106.3z M249.5-110c-1.6-1.1-3.4-2.1-5.1-3l1.3-2.7
		c1.9,0.9,3.7,2,5.4,3.1L249.5-110z M198.4-112.9l-1.4-2.7c1.9-0.9,3.8-1.8,5.8-2.5l1,2.8C202-114.5,200.2-113.7,198.4-112.9z
		 M238.9-115.3c-1.9-0.7-3.8-1.2-5.7-1.7l0.7-2.9c2,0.5,4.1,1.1,6,1.8L238.9-115.3z M209.5-116.9l-0.7-2.9c2-0.5,4.1-0.9,6.2-1.1
		l0.4,3C213.4-117.8,211.5-117.4,209.5-116.9z M227.4-118c-2-0.2-3.9-0.3-5.9-0.3h-0.2v-3h0.2c2.1,0,4.2,0.1,6.3,0.4L227.4-118z"/>
</g>
<path class="st1" d="M243.2-72.9c-9.9,0-18,8.1-18,18s8.1,18,18,18s18-8.1,18-18S253.1-72.9,243.2-72.9z M240.8-48.9l-5.2-5.2
	l2.1-2.1l3.1,3.1l7.8-7.8l2.1,2.1L240.8-48.9z"/>
<path class="st1" d="M199.8-72.9c-9.9,0-18,8.1-18,18s8.1,18,18,18s18-8.1,18-18S209.8-72.9,199.8-72.9z M197.5-48.9l-5.2-5.2
	l2.1-2.1l3.1,3.1l7.8-7.8l2.1,2.1L197.5-48.9z"/>
<path class="st2" d="M221.5-110.3c-9.9,0-18,8.1-18,18s8.1,18,18,18s18-8.1,18-18S231.4-110.3,221.5-110.3z M227.5-88.2l-1.8,1.8
	l-4.2-4.2l-4.2,4.2l-1.8-1.8l4.2-4.2l-4.2-4.2l1.8-1.8l4.2,4.2l4.2-4.2l1.8,1.8l-4.2,4.2L227.5-88.2z"/>
<g>
	<path class="st1" d="M221.5,60.1c-9.4,0-18.2-5.1-22.9-13.2l4.3-2.5c3.9,6.7,10.9,10.8,18.6,10.8c11.9,0,21.5-9.6,21.5-21.5
		s-9.6-21.5-21.5-21.5v-5c14.6,0,26.5,11.9,26.5,26.5S236.1,60.1,221.5,60.1z"/>
</g>
<g>
	<path class="st2" d="M198.6,46.9c-2.4-4-3.6-8.5-3.6-13.3c0-14.6,11.9-26.5,26.5-26.5v5c-11.9,0-21.5,9.6-21.5,21.5
		c0,3.9,1,7.5,2.9,10.7L198.6,46.9z"/>
</g>
<path class="st1" d="M221.5,15.7c-9.9,0-18,8.1-18,18s8.1,18,18,18s18-8.1,18-18S231.4,15.7,221.5,15.7z M218.5,41.1h-5.6v-2.3
	c0-1.2,0.2-1.9,1.1-3l2.5-3.1c0.5-0.6,0.7-1.1,0.7-1.8v-2.2c0-0.9-0.4-1.3-1.3-1.3h-0.4c-0.9,0-1.3,0.4-1.3,1.3v2.8H213v-2.8
	c0-1.7,0.8-2.5,2.5-2.5h0.5c1.7,0,2.5,0.9,2.5,2.5v2c0,1-0.2,1.8-1,2.7l-2.5,3.1c-0.6,0.8-0.8,1.2-0.8,2.3v1h4.3L218.5,41.1
	L218.5,41.1z M220.6,41.7h-1.1l2.7-16h1.1L220.6,41.7z M230.1,38.6c0,1.7-0.8,2.6-2.6,2.6h-0.6c-1.7,0-2.5-0.9-2.5-2.5v-2.4h1.2v2.4
	c0,0.9,0.5,1.3,1.4,1.3h0.5c0.9,0,1.4-0.4,1.4-1.3v-3.1c0-1-0.5-1.4-1.4-1.4h-1.6V33h1.5c0.9,0,1.4-0.5,1.4-1.4v-2.8
	c0-0.9-0.4-1.3-1.3-1.3H227c-0.9,0-1.3,0.4-1.3,1.3v2.1h-1.2v-2.1c0-1.7,0.8-2.6,2.6-2.6h0.5c1.7,0,2.6,0.9,2.6,2.6v2.4
	c0,1.3-0.5,2-1.3,2.2c0.9,0.3,1.4,0.9,1.4,2v3.2H230.1z"/>
<g>
	<path class="st1" d="M389,15.7c-9.9,0-18,8.1-18,18s8.1,18,18,18s18-8.1,18-18S398.9,15.7,389,15.7z M386.5,38.6
		c0,1.7-0.8,2.6-2.6,2.6h-0.6c-1.7,0-2.5-0.9-2.5-2.5v-2.4h1.2v2.4c0,0.9,0.5,1.3,1.4,1.3h0.5c0.9,0,1.4-0.4,1.4-1.3v-3.1
		c0-1-0.5-1.4-1.4-1.4h-1.6V33h1.5c0.9,0,1.4-0.5,1.4-1.4v-2.8c0-0.9-0.4-1.3-1.3-1.3h-0.5c-0.9,0-1.3,0.4-1.3,1.3v2.1h-1.2v-2.1
		c0-1.7,0.8-2.6,2.6-2.6h0.5c1.7,0,2.6,0.9,2.6,2.6v2.4c0,1.3-0.5,2-1.3,2.2c0.9,0.3,1.4,0.9,1.4,2v3.2H386.5z M388.7,41.7h-1.1
		l2.7-16h1.1L388.7,41.7z M397.8,38.1h-1.2V41h-1.1v-2.9h-4.1v-1.2l3.7-10.6h1.6v10.6h1.2L397.8,38.1L397.8,38.1z"/>
	<polygon class="st1" points="395.5,37 395.5,28.3 392.5,37 	"/>
</g>
<g>
	<path class="st2" d="M367.5,33.7h-5c0-14.6,11.9-26.5,26.5-26.5v5C377.1,12.1,367.5,21.8,367.5,33.7z"/>
</g>
<g>
	<path class="st1" d="M389,60.1c-14.6,0-26.5-11.9-26.5-26.5h5c0,11.9,9.6,21.5,21.5,21.5s21.5-9.6,21.5-21.5s-9.6-21.5-21.5-21.5
		v-5c14.6,0,26.5,11.9,26.5,26.5S403.6,60.1,389,60.1z"/>
</g>
<g>
	<g>
		<rect x="294" y="-68.9" class="st0" width="14.6" height="3"/>
	</g>
	<g>
		<g>
			<polygon class="st0" points="301.1,-58.1 299.6,-59.8 307.7,-67.3 299.6,-74.9 301.1,-76.5 311,-67.3 			"/>
		</g>
	</g>
</g>
<g>
	<g>
		<path class="st0" d="M186.9-134c-1.9,0-3.8-0.7-5.3-2l1.6-2c1.1,0.9,2.3,1.5,3.8,1.5c1.1,0,1.8-0.5,1.8-1.2l0,0
			c0-0.7-0.4-1.1-2.5-1.6c-2.5-0.6-4.2-1.4-4.2-3.9l0,0c0-2.3,1.8-3.8,4.4-3.8c1.8,0,3.4,0.6,4.7,1.6l-1.4,2.1
			c-1.1-0.8-2.2-1.2-3.3-1.2s-1.6,0.5-1.6,1.1l0,0c0,0.8,0.5,1.1,2.7,1.7c2.6,0.7,4,1.6,4,3.8l0,0C191.5-135.4,189.6-134,186.9-134z
			"/>
		<path class="st0" d="M193.9-134.2v-12.6h9.5v2.5h-6.8v2.6h5.9v2.5h-5.9v2.6h6.8v2.5L193.9-134.2L193.9-134.2z"/>
		<path class="st0" d="M213.6-134.2l-2.7-4h-2.2v4h-2.8v-12.6h5.8c3,0,4.8,1.6,4.8,4.2l0,0c0,2-1.1,3.3-2.7,3.9l3.1,4.5
			C216.9-134.2,213.6-134.2,213.6-134.2z M213.7-142.5c0-1.2-0.8-1.8-2.2-1.8h-2.8v3.6h2.8C212.9-140.7,213.7-141.4,213.7-142.5
			L213.7-142.5z"/>
		<path class="st0" d="M225.1-134.1h-2.4l-5.1-12.7h3.1l3.3,8.9l3.3-8.9h3L225.1-134.1z"/>
		<path class="st0" d="M232.3-134.2v-12.6h2.8v12.6H232.3z"/>
		<path class="st0" d="M244.1-134c-3.7,0-6.5-2.9-6.5-6.5l0,0c0-3.6,2.7-6.5,6.6-6.5c2.4,0,3.8,0.8,5,1.9l-1.8,2
			c-1-0.9-2-1.4-3.2-1.4c-2.1,0-3.7,1.8-3.7,3.9l0,0c0,2.2,1.5,4,3.7,4c1.4,0,2.3-0.6,3.3-1.5l1.8,1.8
			C248-134.9,246.5-134,244.1-134z"/>
		<path class="st0" d="M251.5-134.2v-12.6h9.5v2.5h-6.8v2.6h5.9v2.5h-5.9v2.6h6.8v2.5L251.5-134.2L251.5-134.2z"/>
	</g>
</g>
<g>
	<g>
		<path class="st0" d="M354.4-134c-1.9,0-3.8-0.7-5.3-2l1.6-2c1.1,0.9,2.3,1.5,3.8,1.5c1.1,0,1.8-0.5,1.8-1.2l0,0
			c0-0.7-0.4-1.1-2.5-1.6c-2.5-0.6-4.2-1.4-4.2-3.9l0,0c0-2.3,1.8-3.8,4.4-3.8c1.8,0,3.4,0.6,4.7,1.6l-1.4,2.1
			c-1.1-0.8-2.2-1.2-3.3-1.2s-1.6,0.5-1.6,1.1l0,0c0,0.8,0.5,1.1,2.7,1.7c2.6,0.7,4,1.6,4,3.8l0,0C359.1-135.4,357.2-134,354.4-134z
			"/>
		<path class="st0" d="M361.5-134.2v-12.6h9.5v2.5h-6.8v2.6h5.9v2.5h-5.9v2.6h6.8v2.5L361.5-134.2L361.5-134.2z"/>
		<path class="st0" d="M381.2-134.2l-2.7-4h-2.2v4h-2.8v-12.6h5.8c3,0,4.8,1.6,4.8,4.2l0,0c0,2-1.1,3.3-2.7,3.9l3.1,4.5
			C384.5-134.2,381.2-134.2,381.2-134.2z M381.2-142.5c0-1.2-0.8-1.8-2.2-1.8h-2.8v3.6h2.8C380.5-140.7,381.2-141.4,381.2-142.5
			L381.2-142.5z"/>
		<path class="st0" d="M392.6-134.1h-2.4l-5.1-12.7h3.1l3.3,8.9l3.3-8.9h3L392.6-134.1z"/>
		<path class="st0" d="M399.8-134.2v-12.6h2.8v12.6H399.8z"/>
		<path class="st0" d="M411.6-134c-3.7,0-6.5-2.9-6.5-6.5l0,0c0-3.6,2.7-6.5,6.6-6.5c2.4,0,3.8,0.8,5,1.9l-1.8,2
			c-1-0.9-2-1.4-3.2-1.4c-2.1,0-3.7,1.8-3.7,3.9l0,0c0,2.2,1.5,4,3.7,4c1.4,0,2.3-0.6,3.3-1.5l1.8,1.8
			C415.5-134.9,414.1-134,411.6-134z"/>
		<path class="st0" d="M419-134.2v-12.6h9.5v2.5h-6.8v2.6h5.9v2.5h-5.9v2.6h6.8v2.5L419-134.2L419-134.2z"/>
	</g>
</g>
</svg>
