<?xml version="1.0" encoding="utf-8"?>
<!-- Generator: Adobe Illustrator 19.1.0, SVG Export Plug-In . SVG Version: 6.00 Build 0)  -->
<svg version="1.1" id="Layer_1" xmlns="http://www.w3.org/2000/svg" xmlns:xlink="http://www.w3.org/1999/xlink" x="0px" y="0px"
	 viewBox="148 -148 320 240" style="enable-background:new 148 -148 320 240;" xml:space="preserve">
<style type="text/css">
	.st0{fill:#757575;}
</style>
<g>
	<path class="st0" d="M370.6-9.4L323.1-85l0,0l-3.5-58l0,0l-3.5,58.3l0,0l-41.3,49.6l-29.5,6.6v54.8v3.5v53.8l44.1,3.5l121-5.9V4.4
		L370.6-9.4z M259.6,30.1h-9v-3.5h9V30.1z M283.2-36.9l36.4-43.7l43,68.4l-73.2-26L283.2-36.9z M309.5,79.7l-13.2,0.7V-28.2
		l13.2,4.5V79.7z M326.6,78.6l-11.8,0.7V-21.6l11.8,4.2V78.6z M341.2,77.9l-9.4,0.3v-94.3l9.4,3.5V77.9z M354.3,77.3l-8,0.3v-88.1
		l8,2.8V77.3z M366.5,76.6l-6.9,0.3V-6l6.9,2.4V76.6z M377.6,76.2l-5.9,0.3V-1.5l5.9,2.1V76.2z M387.3,75.6l-4.5,0.3V2.3l4.5,1.7
		V75.6z M396.7,75.2l-4.2,0.3V5.8l4.2,1.4V75.2z M403.6,74.9h-1.7V8.9l1.7,0.7V74.9z"/>
	<path class="st0" d="M205.5,81.1l36.7,2.8V30.1v-3.5v-54.1l-36.7,8.4V81.1z M231.5,27h6.9v3.5h-6.9V27z"/>
</g>
</svg>
