<?xml version="1.0" encoding="utf-8"?>
<!-- Generator: Adobe Illustrator 19.0.0, SVG Export Plug-In . SVG Version: 6.00 Build 0)  -->
<svg version="1.1" id="Layer_1" xmlns="http://www.w3.org/2000/svg" xmlns:xlink="http://www.w3.org/1999/xlink" x="0px" y="0px"
	 viewBox="0 0 302.9 361.5" style="enable-background:new 0 0 302.9 361.5;" xml:space="preserve">
<style type="text/css">
	.st0{fill:none;stroke:#BDBDBD;stroke-width:3;stroke-miterlimit:10;stroke-dasharray:6.0216,6.0216;}
	.st1{fill:#FAA629;}
	.st2{fill:none;}
	.st3{font-family:'GothamHTF-Bold';}
	.st4{font-size:18px;}
	.st5{fill:#BDBDBD;}
	.st6{font-size:15px;}
	.st7{font-family:'GothamHTF-Book';}
	.st8{fill:none;stroke:#BDBDBD;stroke-width:3;stroke-miterlimit:10;}
</style>
<circle id="XMLID_2_" class="st0" cx="151.4" cy="151" r="149.5"/>
<g>
	<path id="XMLID_27_" class="st1" d="M151.4,75c11.6,0,21,9.4,21,21s-9.4,21-21,21s-21-9.4-21-21S139.9,75,151.4,75 M151.4,72
		c-13.3,0-24,10.7-24,24s10.7,24,24,24s24-10.7,24-24S164.7,72,151.4,72L151.4,72z"/>
</g>
<rect id="XMLID_5_" x="78.9" y="32" class="st2" width="145" height="40"/>
<text transform="matrix(1 0 0 1 108.4647 57.1399)" class="st1 st3 st4">BASTION</text>
<g>
	<path id="XMLID_24_" class="st5" d="M151.4,176c11.6,0,21,9.4,21,21s-9.4,21-21,21s-21-9.4-21-21S139.9,176,151.4,176 M151.4,173
		c-13.3,0-24,10.7-24,24s10.7,24,24,24s24-10.7,24-24S164.7,173,151.4,173L151.4,173z"/>
</g>
<g>
	<path id="XMLID_21_" class="st5" d="M230.4,143.8L230.4,143.8c4.9,0,9.7,1.7,13.5,4.9c8.9,7.4,10,20.7,2.6,29.6
		c-4,4.8-9.9,7.5-16.1,7.5c-4.9,0-9.7-1.7-13.5-4.9c-8.9-7.4-10-20.7-2.6-29.6C218.3,146.6,224.2,143.8,230.4,143.8 M230.4,140.8
		c-6.8,0-13.7,2.9-18.4,8.6c-8.5,10.2-7.2,25.3,3,33.8c4.5,3.8,10,5.6,15.4,5.6c6.8,0,13.7-2.9,18.4-8.6c8.5-10.2,7.2-25.3-3-33.8
		C241.3,142.7,235.9,140.8,230.4,140.8L230.4,140.8z"/>
</g>
<g>
	<path id="XMLID_4_" class="st5" d="M72.5,143.8c6.2,0,12.1,2.7,16.1,7.5c7.4,8.9,6.3,22.1-2.6,29.6c-3.8,3.2-8.6,4.9-13.5,4.9
		c-6.2,0-12.1-2.7-16.1-7.5c-7.4-8.9-6.3-22.1,2.6-29.6C62.8,145.6,67.6,143.8,72.5,143.8 M72.5,140.8c-5.4,0-10.9,1.8-15.4,5.6
		c-10.2,8.5-11.5,23.7-3,33.8c4.7,5.7,11.5,8.6,18.4,8.6c5.4,0,10.9-1.8,15.4-5.6c10.2-8.5,11.5-23.7,3-33.8
		C86.1,143.8,79.3,140.8,72.5,140.8L72.5,140.8z"/>
</g>
<rect id="XMLID_3_" x="78.9" y="221" class="st2" width="145" height="40"/>
<text transform="matrix(1 0 0 1 123.0907 243.9495)" class="st5 st3 st6">GROUP</text>
<rect id="XMLID_6_" x="157.9" y="188.8" class="st2" width="145" height="40"/>
<text transform="matrix(1 0 0 1 215.313 211.7963)" class="st5 st3 st6">ELB</text>
<rect id="XMLID_18_" y="188.8" class="st2" width="145" height="40"/>
<text transform="matrix(1 0 0 1 31.9855 211.7963)" class="st5 st3 st6">INSTANCE</text>
<rect id="XMLID_1_" x="1.9" y="301.5" class="st2" width="299" height="60"/>
<text transform="matrix(1 0 0 1 44.4749 326.6399)" class="st5 st7 st4">Your AWS Environment</text>
<g>
	<line id="XMLID_17_" class="st8" x1="150.9" y1="140.5" x2="150.9" y2="158.5"/>
	<g id="XMLID_15_">
		<polygon id="XMLID_16_" class="st5" points="141.7,150.6 143.4,149.1 150.9,157.2 158.5,149.1 160.1,150.6 150.9,160.5 		"/>
	</g>
</g>
<g>
	<line id="XMLID_14_" class="st8" x1="184.2" y1="126.1" x2="197.3" y2="137.8"/>
	<g id="XMLID_10_">
		<polygon id="XMLID_13_" class="st5" points="185.6,139.7 185.6,137.4 196.7,137.3 195.7,126.2 197.9,126 199.1,139.5 		"/>
	</g>
</g>
<g>
	<line id="XMLID_9_" class="st8" x1="118.7" y1="126.1" x2="105.6" y2="137.8"/>
	<g id="XMLID_7_">
		<polygon id="XMLID_8_" class="st5" points="105,126 107.2,126.2 106.2,137.3 117.3,137.4 117.3,139.7 103.8,139.5 		"/>
	</g>
</g>
</svg>
