<?xml version="1.0" encoding="utf-8"?>
<!-- Generator: Adobe Illustrator 18.1.0, SVG Export Plug-In . SVG Version: 6.00 Build 0)  -->
<!DOCTYPE svg PUBLIC "-//W3C//DTD SVG 1.1//EN" "http://www.w3.org/Graphics/SVG/1.1/DTD/svg11.dtd">
<svg version="1.1" id="Layer_1" xmlns="http://www.w3.org/2000/svg" xmlns:xlink="http://www.w3.org/1999/xlink" x="0px" y="0px"
	 viewBox="87.8 270.9 436.4 250.1" enable-background="new 87.8 270.9 436.4 250.1" xml:space="preserve">
<g>
	<path fill="#E53A35" d="M173,318.8c0-20.5-16.8-37.3-37.3-37.3l0,0c-20.5,0-37.3,16.8-37.3,37.3v2.7H173V318.8z"/>
	<path fill="#E53A35" d="M183.6,318.8v2.7h74.5v-2.7c0-20.5-16.8-37.3-37.3-37.3l0,0C200.4,281.6,183.6,298.3,183.6,318.8z"/>
	<path fill="#E53A35" d="M343.3,318.8c0-21.3-17.8-38.3-39.1-37.3c-20,1.1-35.4,18.4-35.4,38.3v1.6h31.9v-2.7c0-3.2,2.9-5.9,6.1-5.3
		c2.7,0.5,4.5,2.9,4.5,5.6v2.4h31.9V318.8z"/>
	<path fill="#E53A35" d="M389.3,281.6c-20,1.1-35.4,18.4-35.4,38.3v1.6h74.5v-2.7C428.4,297.5,410.6,280.5,389.3,281.6z"/>
	<path fill="#E53A35" d="M474.4,281.6c-20,1.1-35.4,18.4-35.4,38.3v1.6h74.5v-2.7C513.5,297.5,495.7,280.5,474.4,281.6z"/>
</g>
<g>
	<rect x="98.5" y="321.5" fill="#F05323" width="74.5" height="45.2"/>
	<rect x="183.6" y="321.5" fill="#F05323" width="74.5" height="45.2"/>
	<path fill="#F05323" d="M319.3,350.8h-2.7c-8.8,0-16-7.2-16-16v-13.3h-31.9v37.3c0,2.9,0.5,5.6,1.3,8h71.8
		C338.5,357.4,329.7,350.8,319.3,350.8z"/>
	<path fill="#F05323" d="M316.6,340.1h21.3c2.9,0,5.3-2.4,5.3-5.3v-13.3h-31.9v13.3C311.3,337.7,313.7,340.1,316.6,340.1z"/>
	<rect x="353.9" y="321.5" fill="#F05323" width="74.5" height="45.2"/>
	<rect x="439" y="321.5" fill="#F05323" width="74.5" height="45.2"/>
</g>
<g>
	<rect x="98.5" y="366.7" fill="#ED6D23" width="74.5" height="47.9"/>
	<rect x="183.6" y="366.7" fill="#ED6D23" width="74.5" height="47.9"/>
	<path fill="#ED6D23" d="M300.7,414.4v-15.7c0-2.9-2.4-5.3-5.3-5.3h-21.3c-2.9,0-5.3,2.4-5.3,5.3v14.9c0,0.3,0,0.8,0,1.1h31.9V414.4
		z"/>
	<path fill="#ED6D23" d="M343.3,414.6v-39.9c0-2.9-0.5-5.6-1.3-8h-71.8c3.2,9.3,12.2,16,22.6,16h2.7c8.8,0,16,7.2,16,16v16H343.3z"
		/>
	<path fill="#ED6D23" d="M423.1,396.8h-21.3c-2.9,0-5.3,2.4-5.3,5.3v12.5h31.9v-12.5C428.4,399.2,426,396.8,423.1,396.8z"/>
	<path fill="#ED6D23" d="M353.9,366.7v46.8c0,0.3,0,0.8,0,1.1h31.9v-0.3V404c0-8.8,7.2-16,16-16h21.3c2.9,0,5.3-2.4,5.3-5.3v-16
		H353.9z"/>
	<path fill="#ED6D23" d="M439,413.6c0,0.3,0,0.8,0,1.1H471v-0.3V404c0-8.8,7.2-16,16-16h21.3c2.9,0,5.3-2.4,5.3-5.3v-16H439V413.6z"
		/>
	<path fill="#ED6D23" d="M508.2,396.8h-21.3c-2.9,0-5.3,2.4-5.3,5.3v12.5h31.9v-12.5C513.5,399.2,511.2,396.8,508.2,396.8z"/>
</g>
<g>
	<path fill="#F78C1F" d="M135.7,451.9c20.5,0,37.3-16.8,37.3-37.3l0,0H98.5l0,0C98.5,435.1,115.2,451.9,135.7,451.9z"/>
	<path fill="#F78C1F" d="M215.5,459.9v-8.5c1.9,0.3,3.5,0.5,5.3,0.5c20.5,0,37.3-16.8,37.3-37.3l0,0h-74.5l0,0v45.2H215.5z"/>
	<path fill="#F78C1F" d="M304.1,451.9c21.3,1.1,39.1-16,39.1-37.3l0,0h-31.9l0,0c0,3.2-2.9,5.9-6.1,5.3c-2.4-0.5-4.3-2.7-4.5-5.3
		h-31.9C269.3,434.3,284.4,450.8,304.1,451.9z"/>
	<path fill="#F78C1F" d="M396.5,414.6L396.5,414.6c0,3.2-2.9,5.9-6.1,5.3c-2.4-0.5-4.3-2.7-4.5-5.3h-31.9
		c0.5,19.7,15.7,36.2,35.4,37.3c21.3,1.1,39.1-16,39.1-37.3l0,0H396.5z"/>
	<path fill="#F78C1F" d="M481.6,414.6c0,3.2-2.9,5.9-6.1,5.3c-2.4-0.5-4.3-2.7-4.5-5.3H439c0.5,19.7,15.7,36.2,35.4,37.3
		c21.3,1.1,39.1-16,39.1-37.3l0,0H481.6L481.6,414.6z"/>
</g>
<path fill="#FCB316" d="M215.5,494.5v-34.6h-31.9v34.6c0,8.8,7.2,16,16,16C208.3,510.4,215.5,503.2,215.5,494.5z"/>
<g>
	<path fill="#EEEEEE" d="M391.1,356.1c2.9,0,5.3-2.4,5.3-5.3v-31.9c0-2.9-2.4-5.3-5.3-5.3s-5.3,2.4-5.3,5.3v31.9
		C385.8,353.7,388.2,356.1,391.1,356.1z"/>
	<path fill="#EEEEEE" d="M476.3,313.5c-2.9,0-5.3,2.4-5.3,5.3v31.9c0,2.9,2.4,5.3,5.3,5.3s5.3-2.4,5.3-5.3v-31.9
		C481.6,315.9,479.2,313.5,476.3,313.5z"/>
	<path fill="#EEEEEE" d="M476.3,270.9c-18.6,0-34.6,10.6-42.6,26.1c-8-15.4-23.9-26.1-42.6-26.1c-18.6,0-34.6,10.6-42.6,26.1
		c-8-15.4-23.9-26.1-42.6-26.1c-18.6,0-34.6,10.6-42.6,26.1c-8-15.4-23.9-26.1-42.6-26.1s-34.6,10.6-42.6,26.1
		c-8-15.4-23.9-26.1-42.6-26.1c-26.3,0-47.9,21.6-47.9,47.9v95.8c0,26.3,21.6,47.9,47.9,47.9c15.2,0,28.5-6.9,37.3-17.8v49.8
		c0,14.6,12,26.6,26.6,26.6c14.6,0,26.6-12,26.6-26.6v-32.2c16.2-1.9,30.1-11.7,37.3-25.8c8,15.4,23.9,26.1,42.6,26.1
		c18.6,0,34.6-10.6,42.6-26.1c8,15.4,23.9,26.1,42.6,26.1c18.6,0,34.6-10.6,42.6-26.1c8,15.4,23.9,26.1,42.6,26.1
		c26.3,0,47.9-21.6,47.9-47.9v-95.8C524.2,292.5,502.6,270.9,476.3,270.9z M135.7,451.9c-20.5,0-37.3-16.8-37.3-37.3v-95.8
		c0-20.5,16.8-37.3,37.3-37.3s37.3,16.8,37.3,37.3l0,0v95.8l0,0C173,435.1,156.2,451.9,135.7,451.9z M220.9,451.9
		c-1.9,0-3.5-0.3-5.3-0.5v43.1c0,8.8-7.2,16-16,16c-8.8,0-16-7.2-16-16v-79.8v-95.8c0-20.5,16.8-37.3,37.3-37.3s37.3,16.8,37.3,37.3
		l0,0v95.8l0,0C258.1,435.1,241.3,451.9,220.9,451.9z M304.1,451.9c-20-1.1-35.4-18.4-35.4-38.3v-14.9c0-2.9,2.4-5.3,5.3-5.3h21.3
		c2.9,0,5.3,2.4,5.3,5.3v15.7c0,2.7,1.9,5.1,4.5,5.6c3.5,0.5,6.1-2.1,6.1-5.3v-16c0-8.8-7.2-16-16-16h-2.7
		c-13.3,0-23.9-10.6-23.9-23.9v-38.8c0-20,15.4-37.3,35.4-38.3c21.3-1.1,39.1,16,39.1,37.3l0,0v16c0,2.9-2.4,5.3-5.3,5.3h-21.3
		c-2.9,0-5.3-2.4-5.3-5.3v-15.7c0-2.7-1.9-5.1-4.5-5.6c-3.5-0.5-6.1,2.1-6.1,5.3v16c0,8.8,7.2,16,16,16h2.7
		c13.3,0,23.9,10.6,23.9,23.9v39.9l0,0C343.3,435.9,325.4,452.9,304.1,451.9z M389.3,451.9c-20-1.1-35.4-18.4-35.4-38.3v-93.7
		c0-20,15.4-37.3,35.4-38.3c21.3-1.1,39.1,16,39.1,37.3l0,0v63.9c0,2.9-2.4,5.3-5.3,5.3h-21.3c-8.8,0-16,7.2-16,16v10.4
		c0,2.7,1.9,5.1,4.5,5.6c3.5,0.5,6.1-2.1,6.1-5.3v-12.5c0-2.9,2.4-5.3,5.3-5.3h21.3c2.9,0,5.3,2.4,5.3,5.3v12.5l0,0
		C428.4,435.9,410.6,452.9,389.3,451.9z M513.5,382.7c0,2.9-2.4,5.3-5.3,5.3h-21.3c-8.8,0-16,7.2-16,16v10.4c0,2.7,1.9,5.1,4.5,5.6
		c3.5,0.5,6.1-2.1,6.1-5.3v-12.5c0-2.9,2.4-5.3,5.3-5.3h21.3c2.9,0,5.3,2.4,5.3,5.3v12.5c0,21.3-17.8,38.3-39.1,37.3
		c-20-1.1-35.4-18.4-35.4-38.3v-93.7c0-20,15.4-37.3,35.4-38.3c21.3-1.1,39.1,16,39.1,37.3V382.7z"/>
	<path fill="#EEEEEE" d="M220.9,313.5c-2.9,0-5.3,2.4-5.3,5.3v95.8c0,2.9,2.4,5.3,5.3,5.3c2.9,0,5.3-2.4,5.3-5.3v-95.8
		C226.2,315.9,223.8,313.5,220.9,313.5z"/>
	<path fill="#EEEEEE" d="M135.7,313.5c-2.9,0-5.3,2.4-5.3,5.3v95.8c0,2.9,2.4,5.3,5.3,5.3c2.9,0,5.3-2.4,5.3-5.3v-95.8
		C141,315.9,138.6,313.5,135.7,313.5z"/>
</g>
</svg>
