<?xml version="1.0" encoding="utf-8"?>
<!-- Generator: Adobe Illustrator 18.1.1, SVG Export Plug-In . SVG Version: 6.00 Build 0)  -->
<!DOCTYPE svg PUBLIC "-//W3C//DTD SVG 1.1//EN" "http://www.w3.org/Graphics/SVG/1.1/DTD/svg11.dtd">
<svg version="1.1" id="Layer_1" xmlns="http://www.w3.org/2000/svg" xmlns:xlink="http://www.w3.org/1999/xlink" x="0px" y="0px"
	 viewBox="115 150 170 100" enable-background="new 115 150 170 100" xml:space="preserve">
<path fill="#303030" d="M136,221c-7.7,0-14-6.3-14-14v-36c0-7.7,6.3-14,14-14c7.7,0,14,6.3,14,14l0,0v36l0,0
	C150,214.7,143.7,221,136,221z"/>
<path fill="#303030" d="M168,221c-0.7,0-1.3-0.1-2-0.2V237c0,3.3-2.7,6-6,6c-3.3,0-6-2.7-6-6v-30v-36c0-7.7,6.3-14,14-14
	c7.7,0,14,6.3,14,14l0,0v36l0,0C182,214.7,175.7,221,168,221z"/>
<path fill="#303030" d="M199.3,221c-7.5-0.4-13.3-6.9-13.3-14.4V201c0-1.1,0.9-2,2-2h8c1.1,0,2,0.9,2,2v5.9c0,1,0.7,1.9,1.7,2.1
	c1.3,0.2,2.3-0.8,2.3-2v-6c0-3.3-2.7-6-6-6h-1c-5,0-9-4-9-9v-14.6c0-7.5,5.8-14,13.3-14.4c8-0.4,14.7,6,14.7,14l0,0v6
	c0,1.1-0.9,2-2,2h-8c-1.1,0-2-0.9-2-2v-5.9c0-1-0.7-1.9-1.7-2.1c-1.3-0.2-2.3,0.8-2.3,2v6c0,3.3,2.7,6,6,6h1c5,0,9,4,9,9v15l0,0
	C214,215,207.3,221.4,199.3,221z"/>
<path fill="#303030" d="M231.3,221c-7.5-0.4-13.3-6.9-13.3-14.4v-35.2c0-7.5,5.8-14,13.3-14.4c8-0.4,14.7,6,14.7,14l0,0v24
	c0,1.1-0.9,2-2,2h-8c-3.3,0-6,2.7-6,6v3.9c0,1,0.7,1.9,1.7,2.1c1.3,0.2,2.3-0.8,2.3-2v-4.7c0-1.1,0.9-2,2-2h8c1.1,0,2,0.9,2,2v4.7
	l0,0C246,215,239.3,221.4,231.3,221z"/>
<path fill="#303030" d="M278,195c0,1.1-0.9,2-2,2h-8c-3.3,0-6,2.7-6,6v3.9c0,1,0.7,1.9,1.7,2.1c1.3,0.2,2.3-0.8,2.3-2v-4.7
	c0-1.1,0.9-2,2-2h8c1.1,0,2,0.9,2,2v4.7c0,8-6.7,14.4-14.7,14c-7.5-0.4-13.3-6.9-13.3-14.4v-35.2c0-7.5,5.8-14,13.3-14.4
	c8-0.4,14.7,6,14.7,14V195z"/>
<path fill="#757575" d="M232,185c1.1,0,2-0.9,2-2v-12c0-1.1-0.9-2-2-2c-1.1,0-2,0.9-2,2v12C230,184.1,230.9,185,232,185z"/>
<path fill="#757575" d="M264,169c-1.1,0-2,0.9-2,2v12c0,1.1,0.9,2,2,2s2-0.9,2-2v-12C266,169.9,265.1,169,264,169z"/>
<path fill="#757575" d="M264,153c-7,0-13,4-16,9.8c-3-5.8-9-9.8-16-9.8s-13,4-16,9.8c-3-5.8-9-9.8-16-9.8s-13,4-16,9.8
	c-3-5.8-9-9.8-16-9.8s-13,4-16,9.8c-3-5.8-9-9.8-16-9.8c-9.9,0-18,8.1-18,18v36c0,9.9,8.1,18,18,18c5.7,0,10.7-2.6,14-6.7V237
	c0,5.5,4.5,10,10,10s10-4.5,10-10v-12.1c6.1-0.7,11.3-4.4,14-9.7c3,5.8,9,9.8,16,9.8s13-4,16-9.8c3,5.8,9,9.8,16,9.8s13-4,16-9.8
	c3,5.8,9,9.8,16,9.8c9.9,0,18-8.1,18-18v-36C282,161.1,273.9,153,264,153z M136,221c-7.7,0-14-6.3-14-14v-36c0-7.7,6.3-14,14-14
	c7.7,0,14,6.3,14,14l0,0v36l0,0C150,214.7,143.7,221,136,221z M168,221c-0.7,0-1.3-0.1-2-0.2V237c0,3.3-2.7,6-6,6c-3.3,0-6-2.7-6-6
	v-30v-36c0-7.7,6.3-14,14-14c7.7,0,14,6.3,14,14l0,0v36l0,0C182,214.7,175.7,221,168,221z M199.3,221c-7.5-0.4-13.3-6.9-13.3-14.4
	V201c0-1.1,0.9-2,2-2h8c1.1,0,2,0.9,2,2v5.9c0,1,0.7,1.9,1.7,2.1c1.3,0.2,2.3-0.8,2.3-2v-6c0-3.3-2.7-6-6-6h-1c-5,0-9-4-9-9v-14.6
	c0-7.5,5.8-14,13.3-14.4c8-0.4,14.7,6,14.7,14l0,0v6c0,1.1-0.9,2-2,2h-8c-1.1,0-2-0.9-2-2v-5.9c0-1-0.7-1.9-1.7-2.1
	c-1.3-0.2-2.3,0.8-2.3,2v6c0,3.3,2.7,6,6,6h1c5,0,9,4,9,9v15l0,0C214,215,207.3,221.4,199.3,221z M231.3,221
	c-7.5-0.4-13.3-6.9-13.3-14.4v-35.2c0-7.5,5.8-14,13.3-14.4c8-0.4,14.7,6,14.7,14l0,0v24c0,1.1-0.9,2-2,2h-8c-3.3,0-6,2.7-6,6v3.9
	c0,1,0.7,1.9,1.7,2.1c1.3,0.2,2.3-0.8,2.3-2v-4.7c0-1.1,0.9-2,2-2h8c1.1,0,2,0.9,2,2v4.7l0,0C246,215,239.3,221.4,231.3,221z
	 M278,195c0,1.1-0.9,2-2,2h-8c-3.3,0-6,2.7-6,6v3.9c0,1,0.7,1.9,1.7,2.1c1.3,0.2,2.3-0.8,2.3-2v-4.7c0-1.1,0.9-2,2-2h8
	c1.1,0,2,0.9,2,2v4.7c0,8-6.7,14.4-14.7,14c-7.5-0.4-13.3-6.9-13.3-14.4v-35.2c0-7.5,5.8-14,13.3-14.4c8-0.4,14.7,6,14.7,14V195z"/>
<path fill="#757575" d="M168,169c-1.1,0-2,0.9-2,2v36c0,1.1,0.9,2,2,2c1.1,0,2-0.9,2-2v-36C170,169.9,169.1,169,168,169z"/>
<path fill="#757575" d="M136,169c-1.1,0-2,0.9-2,2v36c0,1.1,0.9,2,2,2c1.1,0,2-0.9,2-2v-36C138,169.9,137.1,169,136,169z"/>
</svg>
