<?xml version="1.0" encoding="utf-8"?>
<!-- Generator: Adobe Illustrator 18.1.1, SVG Export Plug-In . SVG Version: 6.00 Build 0)  -->
<!DOCTYPE svg PUBLIC "-//W3C//DTD SVG 1.1//EN" "http://www.w3.org/Graphics/SVG/1.1/DTD/svg11.dtd">
<svg version="1.1" id="Layer_1" xmlns="http://www.w3.org/2000/svg" xmlns:xlink="http://www.w3.org/1999/xlink" x="0px" y="0px"
	 viewBox="0 0 1280 700" enable-background="new 0 0 1280 700" xml:space="preserve">
<g>
	<g>
		<defs>
			<rect id="SVGID_1_" x="235.6" y="155.6" width="808.9" height="544.4"/>
		</defs>
		<clipPath id="SVGID_2_">
			<use xlink:href="#SVGID_1_"  overflow="visible"/>
		</clipPath>
		<g clip-path="url(#SVGID_2_)">
			<g>
				<path fill="#969595" d="M640,163.3c-6.4,0-12.8,0.2-19,0.5l0.3,7.8c1.4,0,2.8-0.2,4-0.2l0,0h0.2l0,0h0.2l0,0c0,0,0,0,0.2,0l0,0
					c0,0,0,0,0.2,0l0,0c0,0,0,0,0.2,0l0,0c0,0,0,0,0.2,0l0,0l0,0c0,0,0,0,0.2,0l0,0c0,0,0,0,0.2,0l0,0c0.3,0,0.6,0,0.9,0l0,0h0.2
					l0,0h0.2l0,0h0.2l0,0h0.2l0,0c1.9,0,3.9-0.2,5.8-0.2l0,0h0.2l0,0h0.2l0,0h0.2l0,0h0.2l0,0h0.2l0,0h0.2l0,0h0.2l0,0
					c0,0,0,0,0.2,0l0,0c0.3,0,0.5,0,0.8,0l0,0h0.2l0,0c0,0,0,0,0.2,0l0,0c0,0,0,0,0.2,0l0,0c0,0,0,0,0.2,0l0,0c0,0,0,0,0.2,0l0,0
					c0,0,0,0,0.2,0l0,0c0,0,0,0,0.2,0l0,0c0,0,0,0,0.2,0l0,0c0,0,0,0,0.2,0l0,0c0,0,0,0,0.2,0l0,0c0,0,0,0,0.2,0l0,0h0.2
					c0,0,0,0,0.2,0l0,0c0,0,0,0,0.2,0c0,0,0,0,0.2,0l0,0c0,0,0,0,0.2,0l0,0c0,0,0,0,0.2,0l0,0c0,0,0,0,0.2,0l0,0c0,0,0,0,0.2,0
					c0,0,0,0,0.2,0l0,0c0,0,0,0,0.2,0l0,0c0,0,0,0,0.2,0l0,0c0,0,0,0,0.2,0l0,0c0,0,0,0,0.2,0l0,0c0,0,0,0,0.2,0l0,0c0,0,0,0,0.2,0
					l0,0h0.2v-7.9H640z M602,165.2c-6.2,0.6-12.6,1.4-19,2.3l1.1,7.6l0,0l0,0h0.2l0,0c2.6-0.3,5.3-0.8,8.1-1.1l0,0h0.2l0,0h0.2l0,0
					h0.2l0,0h0.2l0,0c0,0,0,0,0.2,0l0,0c0,0,0,0,0.2,0l0,0c0,0,0,0,0.2,0l0,0c0,0,0,0,0.2,0l0,0c0,0,0,0,0.2,0l0,0c0,0,0,0,0.2,0
					l0,0c0,0,0,0,0.2,0l0,0l0,0l0,0l0,0c0.2,0,0.3,0,0.5,0l0,0c0,0,0,0,0.2,0l0,0c0,0,0,0,0.2,0l0,0h0.2l0,0h0.2l0,0h0.2l0,0h0.2
					l0,0h0.2l0,0c0,0,0,0,0.2,0l0,0c0,0,0,0,0.2,0l0,0h0.2l0,0c0.8-0.2,1.6-0.2,2.3-0.3l0,0h0.2l0,0h0.2l0,0c0.2,0,0.2,0,0.3,0l0,0
					h0.2l0,0h0.2l0,0c0.3,0,0.8,0,1.1-0.2l0,0c0,0,0,0,0.2,0l0,0l0,0c0,0,0,0,0.2,0l0,0c0,0,0,0,0.2,0l0,0c0,0,0,0,0.2,0l0,0
					c0,0,0,0,0.2,0l0,0h0.2l0,0h0.2l0,0c0.3,0,0.6,0,0.9-0.2L602,165.2L602,165.2z M564.2,170.5c-6.2,1.2-12.4,2.5-18.7,4l1.9,7.6
					c2.2-0.5,4.2-1.1,6.4-1.6l0,0h0.2l0,0h0.2l0,0h0.2l0,0h0.2l0,0c0,0,0,0,0.2,0l0,0c0,0,0,0,0.2,0l0,0c0,0,0,0,0.2,0l0,0
					c0,0,0,0,0.2,0l0,0c0,0,0,0,0.2,0l0,0c0,0,0,0,0.2,0l0,0c0,0,0,0,0.2,0l0,0c0,0,0,0,0.2,0l0,0c0,0,0,0,0.2,0l0,0h0.2l0,0h0.2
					l0,0h0.2l0,0h0.2l0,0c0.9-0.2,1.9-0.5,2.8-0.6l0,0c1.1-0.2,2.2-0.5,3.3-0.6l0,0h0.2l0,0h0.2l0,0h0.2l0,0c0,0,0,0,0.2,0l0,0
					c0,0,0,0,0.2,0l0,0c0,0,0,0,0.2,0l0,0c0,0,0,0,0.2,0l0,0l0,0c0,0,0,0,0.2,0l0,0c0,0,0,0,0.2,0l0,0c0,0,0,0,0.2,0l0,0
					c0,0,0,0,0.2,0l0,0h0.2l0,0c0.5-0.2,0.9-0.2,1.4-0.3L564.2,170.5L564.2,170.5z M527.4,179.5c-6.1,1.9-12.1,3.7-18.2,5.9l2.5,7.3
					c4.4-1.6,8.9-3,13.2-4.4l0,0c0.2,0,0.2,0,0.3-0.2l0,0h0.2l0,0h0.2l0,0c0,0,0,0,0.2,0l0,0c0,0,0,0,0.2,0l0,0c0,0,0,0,0.2,0l0,0
					c0,0,0,0,0.2,0l0,0c0,0,0,0,0.2,0l0,0c0,0,0,0,0.2,0l0,0c0,0,0,0,0.2,0l0,0c0,0,0,0,0.2,0l0,0l0,0l0,0l0,0l0,0l0,0
					c0,0,0,0,0.2,0l0,0c0,0,0,0,0.2,0l0,0c0,0,0,0,0.2,0l0,0c0,0,0,0,0.2,0l0,0c0,0,0,0,0.2,0l0,0c0,0,0,0,0.2,0l0,0c0,0,0,0,0.2,0
					l0,0c0,0,0,0,0.2,0l0,0c0,0,0,0,0.2,0l0,0h0.2l0,0h0.2l0,0h0.2l0,0h0.2l0,0c0.2,0,0.3-0.2,0.6-0.2L527.4,179.5L527.4,179.5z
					 M491.4,192.1c-5.9,2.3-11.7,5-17.4,7.6l3.3,7c3.9-1.9,7.9-3.6,12-5.3l0,0h0.2l0,0l0,0l0,0l0,0c0,0,0,0,0.2,0l0,0c0,0,0,0,0.2,0
					l0,0c1.6-0.6,3.1-1.2,4.5-1.9L491.4,192.1L491.4,192.1z M456.8,208.1c-5.6,3-11.2,6.1-16.6,9.2l3.9,6.7c2.3-1.2,4.5-2.6,6.8-3.9
					l0,0c0,0,0,0,0.2,0c2.2-1.2,4.4-2.3,6.4-3.6l0,0h0.2l0,0h0.2l0,0c0,0,0,0,0.2,0l0,0c0,0,0,0,0.2,0l0,0c0,0,0,0,0.2,0l0,0
					c0,0,0,0,0.2,0l0,0c0,0,0,0,0.2,0l0,0l0,0l0,0l0,0l0,0l0,0c0,0,0,0,0.2,0l0,0c0,0,0,0,0.2,0l0,0c0,0,0,0,0.2,0l0,0
					c0,0,0,0,0.2,0l0,0c0,0,0,0,0.2,0l0,0h0.2l0,0c0.3-0.2,0.6-0.3,0.9-0.5L456.8,208.1L456.8,208.1z M423.9,227.3
					c-5.3,3.4-10.6,7-15.7,10.7l4.5,6.4c2-1.4,3.9-2.8,5.9-4.2l0,0c0,0,0,0,0.2-0.2l0,0c0,0,0.2,0,0.2-0.2l0,0c0,0,0.2,0,0.2-0.2
					l0,0c0,0,0.2,0,0.2-0.2l0,0c0,0,0.2,0,0.2-0.2l0,0c0.2-0.2,0.3-0.2,0.3-0.3l0,0c0,0,0.2,0,0.2-0.2l0,0c0,0,0.2,0,0.2-0.2l0,0
					c0.2,0,0.2-0.2,0.3-0.2l0,0c0.2-0.2,0.3-0.2,0.5-0.3l0,0c0,0,0.2,0,0.2-0.2l0,0c0,0,0.2,0,0.2-0.2l0,0c0,0,0.2,0,0.2-0.2l0,0
					c0,0,0,0,0.2,0l0,0c0,0,0,0,0.2-0.2l0,0c0.2-0.2,0.3-0.2,0.3-0.3l0,0c0,0,0.2,0,0.2-0.2l0,0c0,0,0.2,0,0.2-0.2l0,0
					c0,0,0,0,0.2,0l0,0c0,0,0,0,0.2,0l0,0c0,0,0,0,0.2-0.2l0,0l0.2-0.2l0,0c0,0,0,0,0.2,0l0,0c0,0,0,0,0.2,0l0,0c0,0,0,0,0.2-0.2
					l0,0c0,0,0,0,0.2,0l0,0c0,0,0.2,0,0.2-0.2l0,0c0.2-0.2,0.3-0.2,0.5-0.3l0,0c0,0,0.2,0,0.2-0.2l0,0c0.3-0.2,0.6-0.3,0.8-0.6l0,0
					c0.2-0.2,0.3-0.2,0.5-0.3l0,0c0,0,0.2,0,0.2-0.2l0,0h0.2l0,0c0,0,0,0,0.2,0l0,0c0,0,0,0,0.2,0l0,0c0,0,0,0,0.2,0l0,0
					c0,0,0,0,0.2,0l0,0c0,0,0,0,0.2,0l0,0c0,0,0,0,0.2,0l0,0c0,0,0,0,0.2,0l0,0c0,0,0,0,0.2,0l0,0c0,0,0,0,0.2,0l0,0l0,0l0,0l0,0
					c0,0,0,0,0.2,0l0,0c0,0,0,0,0.2,0l0,0c0,0,0,0,0.2,0l0,0c0,0,0,0,0.2,0l0,0c0,0,0,0,0.2,0l0,0c0,0,0,0,0.2,0l0,0c0,0,0,0,0.2,0
					l0,0c0.3-0.2,0.6-0.3,0.8-0.6L423.9,227.3L423.9,227.3z M393.1,249.5c-5,3.9-9.8,8.1-14.6,12.3l5.1,5.9c0.3-0.3,0.8-0.6,1.1-0.9
					l0,0c0,0,0,0,0.2-0.2l0,0c0,0,0,0,0.2,0l0,0l0,0l0,0l0,0l0,0l0,0l0,0l0,0c0,0,0,0,0.2,0l0,0c0,0,0,0,0.2,0l0,0c0,0,0,0,0.2,0
					l0,0c0,0,0,0,0.2-0.2l0,0c4-3.4,8.1-6.8,12.1-10.1L393.1,249.5L393.1,249.5z M364.5,274.7c-4.5,4.4-9,9-13.4,13.5l5.6,5.3
					c1.1-1.2,2.3-2.3,3.4-3.6l0,0c0,0,0,0,0.2-0.2l0,0c0,0,0,0,0-0.2l0,0l0,0l0,0l0,0l0,0l0,0l0,0l0,0c0,0,0,0,0-0.2l0,0
					c0,0,0,0,0.2-0.2l0,0c0,0,0,0,0.2-0.2l0,0c2.5-2.5,5-5,7.5-7.5l0,0c0,0,0,0,0.2-0.2l0,0c0,0,0,0,0.2-0.2l0,0l0,0l0,0l0,0l0,0
					l0,0l0,0l0,0c0,0,0,0,0.2,0l0,0c0,0,0,0,0.2-0.2l0,0c0,0,0,0,0.2-0.2l0,0c0.2-0.2,0.3-0.3,0.5-0.5L364.5,274.7L364.5,274.7z
					 M338.4,302.4c-4,4.8-8.1,9.8-12,14.8l6.2,4.8c1.2-1.6,2.5-3.1,3.7-4.7l0,0c0,0,0,0,0.2-0.2l0,0c0,0,0,0,0.2-0.2l0,0
					c0,0,0,0,0.2-0.2l0,0c0,0,0,0,0.2-0.2l0,0c0,0,0,0,0-0.2l0,0c0,0,0,0,0-0.2l0,0c0,0,0,0,0-0.2l0,0c0,0,0,0,0-0.2l0,0l0,0l0,0
					c0,0,0,0,0-0.2l0,0c0,0,0,0,0-0.2l0,0l0,0l0,0l0,0l0,0l0,0l0,0c0,0,0,0,0-0.2l0,0l0,0l0,0l0,0l0,0l0,0l0,0l0,0l0,0l0,0l0,0l0,0
					l0,0l0,0l0,0l0,0l0,0l0,0l0,0l0,0l0,0l0,0l0,0l0,0l0,0l0,0l0,0l0,0l0,0l0,0l0,0l0,0l0,0l0,0l0,0l0,0l0,0l0,0l0,0l0,0
					c0,0,0,0,0-0.2l0,0c0,0,0,0,0-0.2l0,0c0,0,0,0,0-0.2l0,0c0,0,0,0,0-0.2l0,0c0,0,0,0,0-0.2l0,0c0,0,0,0,0.2-0.2l0,0
					c0,0,0,0,0.2-0.2l0,0c0,0,0,0,0-0.2l0,0c0,0,0,0,0-0.2l0,0c0,0,0,0,0.2-0.2l0,0c0,0,0,0,0.2-0.2l0,0c0,0,0,0,0.2-0.2l0,0
					c0,0,0,0,0.2-0.2l0,0c0,0,0,0,0.2-0.2l0,0c0,0,0,0,0.2-0.2l0,0c0,0,0,0,0.2-0.2l0,0c0,0,0,0,0.2-0.2l0,0c0,0,0,0,0.2-0.2l0,0
					c0,0,0,0,0.2-0.2l0,0c0,0,0,0,0.2-0.2l0,0c0,0,0,0,0.2-0.2l0,0c0,0,0-0.2,0.2-0.2l0,0c0,0,0,0,0.2-0.2l0,0c0,0,0,0,0.2-0.2l0,0
					c0,0,0,0,0.2-0.2l0,0c0,0,0,0,0.2-0.2l0,0c0,0,0,0,0.2-0.2l0,0c0,0,0,0,0.2-0.2l0,0c0,0,0,0,0.2-0.2l0,0c0,0,0,0,0.2-0.2l0,0
					c0,0,0,0,0.2-0.2l0,0c0,0,0,0,0.2-0.2l0,0c0,0,0,0,0.2-0.2l0,0c0,0,0,0,0.2-0.2l0,0c0,0,0,0,0.2-0.2l0,0c0,0,0,0,0.2-0.2l0,0
					c0,0,0,0,0.2-0.2l0,0c0,0,0,0,0.2-0.2l0,0c0,0,0,0,0.2-0.2l0,0c0,0,0,0,0.2-0.2l0,0c0,0,0,0,0.2-0.2l0,0c0,0,0,0,0.2-0.2l0,0
					c0,0,0,0,0.2-0.2l0,0c0,0,0,0,0-0.2l0,0c0,0,0,0,0-0.2l0,0c0,0,0,0,0.2-0.2l0,0c0,0,0,0,0-0.2l0,0c0,0,0,0,0-0.2l0,0
					c0,0,0,0,0-0.2l0,0c0,0,0,0,0-0.2l0,0c0,0,0,0,0-0.2l0,0l0,0l0,0L338.4,302.4L338.4,302.4z M315,332.4
					c-3.6,5.1-7.2,10.6-10.6,15.9l6.5,4.2l0,0l0,0l0,0l0,0l0,0l0,0c0,0,0,0,0-0.2l0,0c0,0,0,0,0-0.2l0,0c0,0,0,0,0-0.2l0,0
					c0,0,0,0,0-0.2l0,0c0,0,0,0,0-0.2l0,0c0,0,0,0,0-0.2l0,0c0,0,0,0,0-0.2l0,0c0,0,0,0,0-0.2l0,0c0,0,0,0,0-0.2l0,0c0,0,0,0,0-0.2
					l0,0c0,0,0,0,0-0.2l0,0c0,0,0,0,0-0.2l0,0c0,0,0,0,0-0.2l0,0c0,0,0,0,0-0.2l0,0c0,0,0,0,0-0.2l0,0c0,0,0,0,0-0.2l0,0
					c0,0,0,0,0-0.2l0,0c0,0,0,0,0-0.2l0,0c0,0,0,0,0-0.2l0,0c0,0,0,0,0-0.2l0,0c0,0,0,0,0-0.2l0,0c0,0,0,0,0-0.2l0,0l0,0l0,0l0,0
					l0,0l0,0l0,0l0,0l0,0l0,0l0,0l0,0l0,0l0,0l0,0l0,0l0,0l0,0l0,0l0,0c0,0,0,0,0-0.2l0,0c0,0,0,0,0-0.2l0,0c0,0,0,0,0-0.2l0,0
					c0,0,0,0,0-0.2l0,0c0,0,0,0,0-0.2l0,0c0,0,0,0,0-0.2l0,0c0,0,0,0,0-0.2l0,0c2.3-3.6,4.7-7,7.2-10.4L315,332.4L315,332.4z
					 M294.7,364.6c-3.1,5.4-6.1,11.2-9,16.8l7,3.6c2.8-5.6,5.8-11,8.9-16.5L294.7,364.6L294.7,364.6z M277.6,398.5
					c-2.6,5.8-5,11.7-7.3,17.6l7.3,2.8c0.5-1.1,0.8-2.2,1.2-3.3l0,0v-0.2l0,0c0,0,0,0,0-0.2l0,0l0,0l0,0l0,0c1.9-4.5,3.7-9,5.8-13.5
					L277.6,398.5L277.6,398.5z M263.7,434.2c-2,6.1-3.9,12.1-5.6,18.2l7.5,2.2c1.7-6.1,3.6-12,5.4-17.9L263.7,434.2L263.7,434.2z
					 M253.4,470.7c-1.4,6.2-2.6,12.4-3.9,18.7l7.6,1.4c0.5-2.5,0.9-5,1.4-7.3l0,0c0,0,0,0,0-0.2l0,0c0,0,0,0,0-0.2l0,0
					c0,0,0,0,0-0.2l0,0c0,0,0,0,0-0.2l0,0c0,0,0,0,0-0.2l0,0l0,0l0,0l0,0c0,0,0,0,0-0.2l0,0c0,0,0,0,0-0.2l0,0c0,0,0,0,0-0.2l0,0
					c0,0,0,0,0-0.2l0,0c0,0,0,0,0-0.2l0,0c0,0,0,0,0-0.2l0,0c0,0,0,0,0-0.2l0,0v-0.2l0,0v-0.2l0,0v-0.2l0,0c0.2-0.6,0.3-1.4,0.5-2
					l0,0V479l0,0v-0.2l0,0v-0.2l0,0v-0.2l0,0c0,0,0,0,0-0.2l0,0c0,0,0,0,0-0.2l0,0V478l0,0v-0.2l0,0v-0.2l0,0v-0.2l0,0v-0.2l0,0
					c0,0,0,0,0-0.2l0,0c0,0,0,0,0-0.2l0,0v-0.2l0,0c0-0.3,0.2-0.5,0.2-0.8l0,0c0,0,0,0,0-0.2l0,0l0,0l0,0l0,0l0,0l0,0l0,0l0,0
					c0,0,0,0,0-0.2l0,0c0,0,0,0,0-0.2l0,0c0,0,0,0,0-0.2l0,0c0,0,0,0,0-0.2l0,0c0,0,0,0,0-0.2l0,0v-0.2l0,0v-0.2l0,0v-0.2l0,0
					c0.2-0.6,0.3-1.2,0.5-1.9L253.4,470.7L253.4,470.7z M246.8,508.2c-0.8,6.2-1.6,12.6-2,19l7.8,0.6c0-0.2,0-0.3,0-0.6l0,0
					c0,0,0,0,0-0.2l0,0c0,0,0,0,0-0.2l0,0c0,0,0,0,0-0.2l0,0c0,0,0,0,0-0.2l0,0l0,0c0,0,0,0,0-0.2l0,0c0,0,0,0,0-0.2l0,0
					c0,0,0,0,0-0.2l0,0c0,0,0,0,0-0.2l0,0c0,0,0,0,0-0.2l0,0v-0.2l0,0v-0.2l0,0c0-0.5,0.2-0.9,0.2-1.4l0,0v-0.2l0,0v-0.2l0,0v-0.2
					l0,0v-0.2l0,0v-0.2l0,0c0-0.2,0-0.2,0-0.3l0,0c0-0.2,0-0.2,0-0.3l0,0c0-0.5,0.2-0.8,0.2-1.2l0,0v-0.2l0,0v-0.2l0,0V521l0,0
					c0,0,0,0,0-0.2l0,0c0,0,0,0,0-0.2l0,0c0,0,0,0,0-0.2l0,0c0,0,0,0,0-0.2l0,0c0,0,0,0,0-0.2l0,0c0,0,0,0,0-0.2l0,0c0,0,0,0,0-0.2
					l0,0c0,0,0,0,0-0.2l0,0c0,0,0,0,0-0.2l0,0c0,0,0,0,0-0.2l0,0c0,0,0,0,0-0.2v-0.2l0,0c0,0,0,0,0-0.2l0,0c0,0,0,0,0-0.2l0,0
					c0,0,0,0,0-0.2l0,0c0,0,0,0,0-0.2l0,0c0,0,0,0,0-0.2l0,0c0,0,0,0,0-0.2l0,0c0,0,0,0,0-0.2l0,0c0,0,0,0,0-0.2l0,0c0,0,0,0,0-0.2
					l0,0c0,0,0,0,0-0.2l0,0c0,0,0,0,0-0.2l0,0v-0.2l0,0v-0.2l0,0c0.3-2.3,0.5-4.7,0.8-6.8l0,0c0,0,0,0,0-0.2l0,0c0,0,0,0,0-0.2l0,0
					c0,0,0,0,0-0.2l0,0l0,0l0,0l0,0c0,0,0,0,0-0.2l0,0c0,0,0,0,0-0.2l0,0c0,0,0,0,0-0.2l0,0l0,0L246.8,508.2L246.8,508.2z
					 M243.6,546.2c-0.2,4.5-0.3,9.2-0.3,13.8c0,1.7,0,3.4,0,5.1l7.8-0.2c0-0.5,0-0.8,0-1.2l0,0c0,0,0,0,0-0.2c0,0,0,0,0-0.2l0,0
					v-0.2l0,0c0-1.1,0-2,0-3.1l0,0c0-0.2,0-0.2,0-0.3l0,0l0,0l0,0l0,0v-0.2l0,0v-0.2l0,0v-0.2l0,0v-0.2l0,0v-0.2l0,0v-0.2l0,0v-0.2
					l0,0v-0.2l0,0v-0.2l0,0c0,0,0,0,0-0.2c0,0,0,0,0-0.2V558l0,0v-0.2c0,0,0,0,0-0.2v-0.2c0,0,0,0,0-0.2c0,0,0,0,0-0.2V557v-0.2
					c0,0,0,0,0-0.2c0,0,0,0,0-0.2c0,0,0,0,0-0.2c0,0,0,0,0-0.2v-0.2l0,0c0,0,0,0,0-0.2l0,0c0-0.2,0-0.3,0-0.5l0,0v-0.2l0,0
					c0-0.2,0-0.3,0-0.5l0,0v-0.2l0,0c0-0.2,0-0.3,0-0.5l0,0c0-2.6,0.2-5.3,0.2-7.9L243.6,546.2L243.6,546.2z M251.9,583.8l-7.8,0.5
					c0.3,6.4,0.9,12.8,1.6,19l7.8-0.8c-0.2-1.2-0.3-2.5-0.5-3.7l0,0v-0.2l0,0v-0.2l0,0v-0.2l0,0c0,0,0,0,0-0.2l0,0c0,0,0,0,0-0.2
					l0,0c0,0,0,0,0-0.2l0,0c0,0,0,0,0-0.2l0,0c0,0,0,0,0-0.2l0,0l0,0l0,0l0,0c0,0,0,0,0-0.2l0,0c0,0,0,0,0-0.2l0,0
					c0-0.3,0-0.8-0.2-1.1l0,0c0-0.2,0-0.2,0-0.3l0,0C252.4,591.6,252,587.7,251.9,583.8L251.9,583.8z M255.8,620.8l-7.6,1.2
					c0.9,6.2,2.2,12.6,3.4,18.7l7.6-1.6C258,633.1,256.9,627,255.8,620.8L255.8,620.8z M263.4,657.4l-7.5,1.9
					c1.6,6.1,3.3,12.3,5.1,18.4l7.5-2.3c-0.2-0.6-0.3-1.2-0.6-1.9l0,0c0,0,0,0,0-0.2l0,0c0,0,0,0,0-0.2l0,0c0,0,0,0,0-0.2l0,0l0,0
					c0,0,0,0,0-0.2l0,0c0,0,0,0,0-0.2l0,0c0,0,0,0,0-0.2l0,0c0,0,0,0,0-0.2l0,0c0,0,0,0,0-0.2l0,0V672l0,0c0,0,0,0,0-0.2l0,0v-0.2
					l0,0c0,0,0,0,0-0.2l0,0v-0.2l0,0v-0.2l0,0c-0.5-1.4-0.8-2.8-1.2-4.2l0,0c0-0.2,0-0.2-0.2-0.3l0,0v-0.2l0,0v-0.2l0,0
					c0,0,0,0,0-0.2l0,0c0,0,0,0,0-0.2l0,0c0,0,0,0,0-0.2l0,0v-0.2l0,0c0,0,0,0,0-0.2l0,0c0,0,0,0,0-0.2l0,0c0,0,0,0,0-0.2l0,0
					c0,0,0,0,0-0.2l0,0c0,0,0,0,0-0.2l0,0c0,0,0,0,0-0.2l0,0c0,0,0,0,0-0.2l0,0c0,0,0,0,0-0.2l0,0c0,0,0,0,0-0.2l0,0c0,0,0,0,0-0.2
					l0,0c0,0,0,0,0-0.2l0,0c0,0,0,0,0-0.2l0,0c0,0,0,0,0-0.2l0,0c0,0,0,0,0-0.2l0,0l0,0l0,0c0-0.2,0-0.2-0.2-0.3l0,0l0,0l0,0l0,0
					c0,0,0,0,0-0.2l0,0c0,0,0,0,0-0.2l0,0c0,0,0,0,0-0.2l0,0c0,0,0,0,0-0.2l0,0c0,0,0,0,0-0.2l0,0c0,0,0,0,0-0.2l0,0c0,0,0,0,0-0.2
					l0,0c0,0,0,0,0-0.2l0,0c0,0,0,0,0-0.2l0,0c0,0,0,0,0-0.2l0,0c0,0,0,0,0-0.2l0,0l0,0l0,0l0,0l0,0l0,0l0,0l0,0l0,0l0,0l0,0l0,0
					l0,0l0,0l0,0l0,0c0,0,0,0,0-0.2l0,0c0,0,0,0,0-0.2l0,0c0,0,0,0,0-0.2l0,0c0,0,0,0,0-0.2l0,0c0,0,0,0,0-0.2l0,0c0,0,0,0,0-0.2
					l0,0c0,0,0,0,0-0.2l0,0c0,0,0,0,0-0.2l0,0C263.9,658.9,263.6,658.2,263.4,657.4L263.4,657.4z M274.4,693l-7.3,2.6
					c2.2,5.9,4.5,12,7,17.7l7.2-3c-0.6-1.6-1.2-3.1-2-4.8l0,0v-0.2l0,0v-0.2l0,0c0,0,0,0,0-0.2l0,0c0,0,0,0,0-0.2l0,0c0,0,0,0,0-0.2
					l0,0c0,0,0,0,0-0.2l0,0c0,0,0,0,0-0.2l0,0c0,0,0,0,0-0.2l0,0c0,0,0,0,0-0.2l0,0c0,0,0,0,0-0.2l0,0c0,0,0,0,0-0.2l0,0
					c0,0,0,0,0-0.2l0,0c0,0,0,0,0-0.2l0,0l0,0l0,0l0,0l0,0l0,0l0,0l0,0l0,0l0,0l0,0l0,0l0,0l0,0l0,0l0,0l0,0l0,0c0,0,0,0,0-0.2l0,0
					c0,0,0,0,0-0.2l0,0c0,0,0,0,0-0.2l0,0c0,0,0,0,0-0.2l0,0c0,0,0,0,0-0.2l0,0c0,0,0,0,0-0.2l0,0c0,0,0,0,0-0.2l0,0c0,0,0,0,0-0.2
					l0,0c-0.2-0.5-0.3-0.9-0.5-1.2l0,0c0,0,0,0,0-0.2l0,0c0,0,0,0,0-0.2l0,0c0,0,0,0,0-0.2l0,0c0,0,0,0,0-0.2l0,0c0,0,0,0,0-0.2l0,0
					c0,0,0,0,0-0.2l0,0c0,0,0,0,0-0.2l0,0c0,0,0,0,0-0.2l0,0c0,0,0,0,0-0.2l0,0c0,0,0,0,0-0.2l0,0c0,0,0,0,0-0.2l0,0c0,0,0,0,0-0.2
					l0,0c0,0,0,0,0-0.2l0,0c0,0,0,0,0-0.2l0,0c0,0,0,0,0-0.2l0,0c0,0,0,0,0-0.2l0,0c0,0,0,0,0-0.2l0,0c0,0,0,0,0-0.2l0,0
					c0,0,0,0,0-0.2l0,0c0,0,0,0,0-0.2l0,0c0,0,0,0,0-0.2l0,0c0,0,0,0,0-0.2l0,0c0,0,0,0,0-0.2l0,0c0,0,0,0,0-0.2l0,0c0,0,0,0,0-0.2
					l0,0c0,0,0,0,0-0.2l0,0v-0.2l0,0v-0.2l0,0v-0.2l0,0C275.2,695.2,274.9,694.1,274.4,693L274.4,693z M288.9,727.4l-7,3.4
					c2.8,5.8,5.6,11.4,8.6,17l6.8-3.7c-1.9-3.4-3.6-6.7-5.3-10.1l0,0c0,0,0,0,0-0.2l0,0c0,0,0,0,0-0.2l0,0c0,0,0,0,0-0.2l0,0l0,0
					l0,0l0,0l0,0l0,0c0,0,0,0,0-0.2l0,0c0,0,0,0,0-0.2l0,0C290.6,731.1,289.8,729.2,288.9,727.4L288.9,727.4z M306.6,760.4l-6.7,4
					c3.3,5.4,6.7,10.9,10.3,16l6.5-4.4l0,0c0,0,0,0,0-0.2l0,0c0,0,0,0,0-0.2l0,0c0,0,0,0,0-0.2l0,0c0,0,0,0,0-0.2l0,0c0,0,0,0,0-0.2
					l0,0c0,0,0,0,0-0.2l0,0c0,0,0,0,0-0.2l0,0c0,0,0,0,0-0.2l0,0c0,0,0,0,0-0.2l0,0c0,0,0,0,0-0.2l0,0c0-0.2-0.2-0.2-0.2-0.3l0,0
					c0-0.2-0.2-0.2-0.2-0.3l0,0c0,0,0-0.2-0.2-0.2l0,0v-0.2l0,0c-0.2-0.3-0.5-0.6-0.6-0.9l0,0c0,0-0.2-0.2-0.2-0.3l0,0
					c0,0,0-0.2-0.2-0.2l0,0c0,0,0,0,0-0.2l0,0v-0.2l0,0c0,0,0,0,0-0.2l0,0c0,0,0,0,0-0.2l0,0c0,0,0,0,0-0.2l0,0c0,0,0,0,0-0.2l0,0
					v-0.2l0,0c0,0,0,0,0-0.2l0,0c0,0,0,0,0-0.2l0,0c0,0,0,0,0-0.2l0,0c0,0,0,0,0-0.2l0,0c0,0,0,0,0-0.2l0,0c0,0,0,0,0-0.2l0,0
					c0,0,0,0,0-0.2l0,0c0,0,0,0,0-0.2l0,0c0,0,0,0,0-0.2l0,0c0,0,0,0,0-0.2l0,0c0,0,0,0,0-0.2l0,0c0,0,0,0,0-0.2l0,0c0,0,0,0,0-0.2
					l0,0c0,0,0,0,0-0.2l0,0c0,0,0,0,0-0.2l0,0c0,0,0,0,0-0.2l0,0c0,0,0,0,0-0.2l0,0c0,0,0,0,0-0.2l0,0c0,0,0,0,0-0.2l0,0
					c0,0,0,0,0-0.2l0,0c0,0,0,0,0-0.2l0,0c0,0,0,0,0-0.2l0,0c0,0,0,0,0-0.2l0,0c0,0,0,0,0-0.2l0,0c0,0,0,0,0-0.2l0,0c0,0,0,0,0-0.2
					l0,0c0,0,0,0,0-0.2l0,0c0,0,0,0,0-0.2l0,0c0,0,0,0,0-0.2l0,0c0,0,0,0,0-0.2l0,0c0,0,0,0,0-0.2l0,0c0,0,0,0,0-0.2l0,0
					c0,0,0,0,0-0.2l0,0c0,0,0,0,0-0.2l0,0c0,0,0,0,0-0.2l0,0v-0.2l0,0c0,0,0,0,0-0.2l0,0c0,0,0,0,0-0.2l0,0l-0.2-0.2l0,0
					c0,0-0.2-0.2-0.2-0.3l0,0C309.1,764.6,307.9,762.4,306.6,760.4L306.6,760.4z M327.3,791.3l-6.2,4.7c3.7,5.1,7.6,10.1,11.7,15.1
					l6.1-5c-3.4-4.2-6.7-8.4-10-12.8l0,0c0,0,0,0-0.2-0.2l0,0c0,0,0,0,0-0.2l0,0l0,0l0,0l0,0l0,0l0,0c0,0,0,0,0-0.2l0,0
					c0,0,0,0,0-0.2l0,0c0,0,0,0-0.2-0.2l0,0C327.8,791.9,327.6,791.6,327.3,791.3L327.3,791.3z M351,820.2l-5.8,5.1
					c4.2,4.7,8.6,9.3,13.1,13.8l5.6-5.4c-0.3-0.3-0.5-0.6-0.8-0.8l0,0c0,0,0,0-0.2-0.2l0,0l0,0l0,0l0,0l0,0l0,0c0,0,0,0,0-0.2l0,0
					c-1.7-1.7-3.3-3.4-5-5.1l0,0c0,0,0,0-0.2-0.2l0,0l-0.2-0.2l0,0l0,0l0,0l0,0c0,0,0,0-0.2-0.2l0,0C355,824.6,353,822.4,351,820.2
					L351,820.2z M377.3,846.7l-5.3,5.8c4.7,4.2,9.5,8.6,14.3,12.6l5-5.9c-2.8-2.3-5.6-4.8-8.4-7.2l0,0c0,0,0,0-0.2,0l0,0l0,0l0,0
					l0,0l0,0l0,0c0,0,0,0-0.2,0l0,0C380.7,849.8,379,848.2,377.3,846.7L377.3,846.7z M405.9,870.6l-4.7,6.2c5,3.7,10.3,7.5,15.4,11
					l4.4-6.4C416,878,410.9,874.4,405.9,870.6L405.9,870.6z M436.7,891.6l-4,6.7c5.4,3.3,10.9,6.5,16.5,9.6l3.7-6.8l0,0h-0.2l0,0
					c0,0,0,0-0.2,0l0,0c0,0,0,0-0.2,0l0,0c0,0,0,0-0.2,0l0,0l0,0l0,0l0,0l0,0l0,0l0,0l0,0c0,0,0,0-0.2,0l0,0c0,0,0,0-0.2,0l0,0
					c0,0,0,0-0.2,0l0,0c0,0,0,0-0.2,0l0,0h-0.2l0,0h-0.2l0,0C446.3,897.4,441.5,894.4,436.7,891.6L436.7,891.6z M469.5,909.5l-3.4,7
					c5.8,2.8,11.5,5.4,17.3,7.9l3.1-7.2c-1.9-0.8-3.7-1.7-5.6-2.5l0,0h-0.2l0,0c0,0,0,0-0.2,0l0,0c0,0,0,0-0.2,0l0,0c0,0,0,0-0.2,0
					l0,0c0,0,0,0-0.2,0l0,0c0,0,0,0-0.2,0l0,0l0,0l0,0l0,0l0,0l0,0c0,0,0,0-0.2,0l0,0c0,0,0,0-0.2,0l0,0c0,0,0,0-0.2,0l0,0
					c0,0,0,0-0.2,0l0,0c0,0,0,0-0.2,0l0,0H479l0,0h-0.2l0,0h-0.2l0,0h-0.2l0,0C475.4,912.5,472.5,911.1,469.5,909.5L469.5,909.5z
					 M503.7,924.3l-2.8,7.3c5.9,2.2,12,4.4,18,6.2l2.3-7.5c-2.6-0.9-5.4-1.7-8.1-2.6l0,0h-0.2l0,0h-0.2l0,0h-0.2l0,0h-0.2l0,0h-0.2
					l0,0h-0.2l0,0c0,0,0,0-0.2,0l0,0c0,0,0,0-0.2,0l0,0c0,0,0,0-0.2,0l0,0c0,0,0,0-0.2,0l0,0c0,0,0,0-0.2,0l0,0c0,0,0,0-0.2,0l0,0
					c0,0,0,0-0.2,0l0,0c0,0,0,0-0.2,0l0,0c0,0,0,0-0.2,0l0,0c0,0,0,0-0.2,0l0,0c0,0,0,0-0.2,0l0,0c0,0,0,0-0.2,0l0,0c0,0,0,0-0.2,0
					l0,0c0,0,0,0-0.2,0l0,0c0,0,0,0-0.2,0l0,0c0,0,0,0-0.2,0l0,0c0,0,0,0-0.2,0l0,0h-0.2l0,0h-0.2l0,0h-0.2l0,0H509l0,0
					C507.6,925.7,505.6,925.1,503.7,924.3L503.7,924.3z M539.2,935.7l-2,7.5c6.1,1.6,12.3,3.1,18.5,4.5l1.7-7.6
					c-2.6-0.6-5.1-1.1-7.6-1.7l0,0h-0.2l0,0c0,0,0,0-0.2,0l0,0c0,0,0,0-0.2,0l0,0c0,0,0,0-0.2,0l0,0c0,0,0,0-0.2,0l0,0
					c0,0,0,0-0.2,0l0,0c0,0,0,0-0.2,0l0,0c0,0,0,0-0.2,0l0,0l0,0l0,0l0,0c0,0,0,0-0.2,0l0,0c0,0,0,0-0.2,0l0,0c0,0,0,0-0.2,0l0,0
					c0,0,0,0-0.2,0l0,0c0,0,0,0-0.2,0l0,0c0,0,0,0-0.2,0l0,0c0,0,0,0-0.2,0l0,0h-0.2l0,0h-0.2l0,0
					C544.5,937.1,541.8,936.4,539.2,935.7L539.2,935.7z M575.8,943.6l-1.2,7.6c6.2,1.1,12.6,1.9,18.8,2.6l0.9-7.8
					c-4-0.5-7.9-0.9-12-1.6l0,0h-0.2l0,0H582l0,0h-0.2l0,0h-0.2l0,0h-0.2l0,0h-0.2l0,0h-0.2l0,0c0,0,0,0-0.2,0l0,0c0,0,0,0-0.2,0
					l0,0c0,0,0,0-0.2,0l0,0h-0.2l0,0c0,0,0,0-0.2,0c0,0,0,0-0.2,0l0,0h-0.2l0,0c0,0,0,0-0.2,0l0,0c0,0,0,0-0.2,0l0,0c0,0,0,0-0.2,0
					l0,0h-0.2l0,0h-0.2l0,0C578.2,944.1,577,943.8,575.8,943.6L575.8,943.6z M612.8,948l-0.5,7.8c6.2,0.5,12.8,0.8,19,0.9l0.2-7.8
					c-3,0-6.1-0.2-9-0.3l0,0h-0.2l0,0h-0.2l0,0H622l0,0h-0.2l0,0c0,0,0,0-0.2,0l0,0h-0.2l0,0c-0.2,0-0.3,0-0.5,0l0,0c0,0,0,0-0.2,0
					l0,0c0,0,0,0-0.2,0l0,0c0,0,0,0-0.2,0l0,0l0,0l0,0l0,0c0,0,0,0-0.2,0l0,0c0,0,0,0-0.2,0l0,0c0,0,0,0-0.2,0l0,0c0,0,0,0-0.2,0
					l0,0c0,0,0,0-0.2,0l0,0c0,0,0,0-0.2,0l0,0h-0.2l0,0h-0.2l0,0c-0.2,0-0.2,0-0.3,0l0,0h-0.2l0,0c0,0,0,0-0.2,0l0,0c0,0,0,0-0.2,0
					l0,0c0,0,0,0-0.2,0l0,0c0,0,0,0-0.2,0l0,0c0,0,0,0-0.2,0l0,0c0,0,0,0-0.2,0l0,0l0,0l0,0c0,0,0,0-0.2,0l0,0l0,0c0,0,0,0-0.2,0
					l0,0c0,0,0,0-0.2,0l0,0c0,0,0,0-0.2,0l0,0C615.6,948.1,614.2,948.1,612.8,948L612.8,948z M668.8,947.8
					c-6.2,0.5-12.4,0.8-18.7,0.9l0.2,7.8c6.4-0.2,12.8-0.5,19-0.9L668.8,947.8L668.8,947.8z M705.8,943.3c-2.6,0.5-5.3,0.9-8.1,1.2
					l0,0h-0.2l0,0c0,0,0,0-0.2,0l0,0c0,0,0,0-0.2,0l0,0h-0.2l0,0c0,0,0,0-0.2,0l0,0c0,0,0,0-0.2,0l0,0c0,0,0,0-0.2,0l0,0
					c0,0,0,0-0.2,0l0,0c0,0,0,0-0.2,0l0,0c0,0,0,0-0.2,0l0,0c0,0,0,0-0.2,0l0,0c0,0,0,0-0.2,0l0,0h-0.2l0,0l0,0l0,0l0,0
					c0,0,0,0-0.2,0l0,0c0,0,0,0-0.2,0l0,0c0,0,0,0-0.2,0l0,0c0,0,0,0-0.2,0l0,0c0,0,0,0-0.2,0l0,0c0,0,0,0-0.2,0l0,0c0,0,0,0-0.2,0
					l0,0c0,0,0,0-0.2,0l0,0c0,0,0,0-0.2,0l0,0c0,0,0,0-0.2,0l0,0c0,0,0,0-0.2,0l0,0c0,0,0,0-0.2,0l0,0c0,0,0,0-0.2,0l0,0
					c0,0,0,0-0.2,0l0,0c0,0,0,0-0.2,0l0,0c0,0,0,0-0.2,0l0,0c0,0,0,0-0.2,0l0,0c0,0,0,0-0.2,0l0,0h-0.2l0,0h-0.2l0,0c0,0,0,0-0.2,0
					l0,0c0,0,0,0-0.2,0c0,0,0,0-0.2,0l0,0c0,0,0,0-0.2,0l0,0c0,0,0,0-0.2,0l0,0c0,0,0,0-0.2,0l0,0c0,0,0,0-0.2,0l0,0c0,0,0,0-0.2,0
					l0,0c0,0,0,0-0.2,0l0,0H691l0,0h-0.2l0,0c0,0,0,0-0.2,0l0,0h-0.2l0,0h-0.2l0,0c-1.1,0.2-2.2,0.3-3.1,0.5l0.9,7.8
					c6.2-0.8,12.6-1.7,18.8-2.8L705.8,943.3L705.8,943.3z M742.2,935.4c-0.8,0.2-1.6,0.5-2.2,0.6l0,0h-0.2l0,0h-0.2l0,0h-0.2l0,0
					h-0.2l0,0h-0.2l0,0h-0.2l0,0h-0.2l0,0c0,0,0,0-0.2,0l0,0c0,0,0,0-0.2,0l0,0c0,0,0,0-0.2,0l0,0c0,0,0,0-0.2,0l0,0c0,0,0,0-0.2,0
					l0,0c0,0,0,0-0.2,0l0,0c0,0,0,0-0.2,0l0,0c-0.2,0-0.2,0-0.3,0l0,0c-0.3,0-0.6,0.2-0.8,0.2l0,0h-0.2l0,0c0,0,0,0-0.2,0l0,0
					c0,0,0,0-0.2,0l0,0c0,0,0,0-0.2,0l0,0c0,0,0,0-0.2,0l0,0c0,0,0,0-0.2,0l0,0c0,0,0,0-0.2,0l0,0c0,0,0,0-0.2,0l0,0c0,0,0,0-0.2,0
					l0,0c0,0,0,0-0.2,0l0,0c0,0,0,0-0.2,0l0,0c0,0,0,0-0.2,0l0,0c0,0,0,0-0.2,0l0,0h-0.2l0,0h-0.2l0,0h-0.2l0,0
					c-3.4,0.9-7,1.7-10.6,2.5l1.7,7.6c6.2-1.4,12.4-3,18.5-4.5L742.2,935.4L742.2,935.4z M777.8,923.8c-1.1,0.5-2,0.8-3.1,1.2l0,0
					h-0.2l0,0c0,0,0,0-0.2,0l0,0c0,0,0,0-0.2,0l0,0c0,0,0,0-0.2,0l0,0c0,0,0,0-0.2,0l0,0l0,0l0,0l0,0c0,0,0,0-0.2,0l0,0
					c0,0,0,0-0.2,0l0,0h-0.2l0,0c-4.4,1.6-8.7,3.1-13.1,4.5l2.3,7.5c6.1-2,12-4,17.9-6.4L777.8,923.8L777.8,923.8z M812,908.9
					c-4.4,2.2-8.6,4.2-13.1,6.1l0,0c-0.2,0-0.2,0-0.3,0.2l0,0h-0.2l0,0c0,0,0,0-0.2,0l0,0c0,0,0,0-0.2,0l0,0c0,0,0,0-0.2,0l0,0
					c0,0,0,0-0.2,0l0,0c0,0,0,0-0.2,0l0,0l0,0l0,0l0,0l0,0l0,0c0,0,0,0-0.2,0l0,0c0,0,0,0-0.2,0l0,0c0,0,0,0-0.2,0l0,0
					c-0.8,0.3-1.4,0.6-2.2,0.9l3.1,7.2c5.8-2.5,11.7-5.3,17.3-8.1L812,908.9L812,908.9z M844.6,890.7c-0.9,0.6-1.9,1.1-2.8,1.7l0,0
					c0,0,0,0-0.2,0l0,0c0,0,0,0-0.2,0l0,0c0,0,0,0-0.2,0l0,0c0,0,0,0-0.2,0l0,0c0,0,0,0-0.2,0l0,0c0,0,0,0-0.2,0l0,0c0,0,0,0-0.2,0
					l0,0c0,0,0,0-0.2,0l0,0c0,0,0,0-0.2,0l0,0c0,0,0,0-0.2,0l0,0c0,0,0,0-0.2,0l0,0c0,0,0,0-0.2,0l0,0c0,0,0,0-0.2,0l0,0
					c0,0,0,0-0.2,0l0,0c0,0,0,0-0.2,0l0,0c0,0,0,0-0.2,0l0,0c0,0,0,0-0.2,0l0,0c0,0,0,0-0.2,0l0,0h-0.2l0,0
					c-3.6,2.2-7.2,4.2-10.9,6.2l3.7,6.8c5.4-3.1,11-6.4,16.5-9.6L844.6,890.7L844.6,890.7z M875.4,869.6c-1.7,1.2-3.3,2.5-5,3.7l0,0
					l-0.2,0.2l0,0l0,0l0,0l0,0c-0.8,0.6-1.7,1.2-2.5,1.9l0,0l-0.2,0.2l0,0c0,0,0,0-0.2,0.2l0,0l0,0l0,0l0,0c0,0,0,0-0.2,0.2l0,0
					c-2.2,1.6-4.4,3.1-6.5,4.7l4.4,6.4c5.1-3.6,10.4-7.3,15.4-11.2L875.4,869.6L875.4,869.6z M904,845.6
					C904,845.6,903.8,845.6,904,845.6C903.8,845.6,903.8,845.8,904,845.6C903.8,845.8,903.8,845.8,904,845.6
					c-0.2,0.2-0.2,0.2-0.2,0.2l0,0l0,0l0,0l0,0l0,0l0,0l0,0c0,0,0,0-0.2,0l0,0c0,0,0,0-0.2,0.2l0,0c0,0,0,0-0.2,0.2l0,0
					c0,0,0,0-0.2,0.2l0,0c0,0,0,0-0.2,0.2l0,0l-0.2,0.2l0,0c-1.1,1.1-2.3,2-3.4,3.1l0,0c-0.2,0.2-0.3,0.3-0.5,0.3l0,0
					c-0.2,0.2-0.3,0.3-0.5,0.3l0,0c-0.2,0.2-0.3,0.3-0.5,0.3l0,0c0,0,0,0-0.2,0.2l0,0c0,0,0,0-0.2,0.2l0,0c0,0,0,0-0.2,0.2l0,0
					c0,0,0,0-0.2,0.2l0,0c0,0,0,0-0.2,0l0,0c0,0,0,0-0.2,0l0,0c0,0,0,0-0.2,0l0,0c0,0,0,0-0.2,0l0,0l0,0l0,0l0,0l0,0l0,0l0,0l0,0
					l0,0l0,0l0,0l0,0l0,0l0,0l0,0l0,0l0,0l0,0l0,0l0,0l0,0l0,0l0,0l0,0l0,0l0,0l0,0l0,0l0,0l0,0l0,0l0,0l0,0l0,0l0,0l0,0l0,0l0,0
					l0,0l0,0l0,0l0,0l0,0l0,0l0,0l0,0l0,0l0,0c0,0,0,0-0.2,0l0,0c0,0,0,0-0.2,0l0,0c0,0,0,0-0.2,0l0,0c0,0,0,0-0.2,0.2l0,0
					c0,0,0,0-0.2,0.2l0,0c0,0,0,0-0.2,0.2l0,0c0,0,0,0-0.2,0.2l0,0c-0.2,0.2-0.3,0.3-0.5,0.3l0,0l-0.2,0.2l0,0l-0.2,0.2l0,0
					c-0.6,0.5-1.2,0.9-1.7,1.6l0,0c-0.2,0.2-0.3,0.3-0.5,0.3l0,0c-0.2,0.2-0.3,0.3-0.5,0.3l0,0c0,0-0.2,0-0.2,0.2l5,5.9
					c4.8-4,9.6-8.2,14.3-12.6L904,845.6L904,845.6z M930.1,819c-0.9,1.1-2,2.2-3,3.3l0,0c0,0,0,0-0.2,0.2l0,0c0,0,0,0-0.2,0.2l0,0
					c0,0,0,0-0.2,0.2l0,0l0,0l0,0l0,0l0,0l0,0l0,0l0,0l0,0l0,0l0,0l0,0l0,0l0,0l0,0l0,0l0,0l0,0c0,0,0,0,0,0.2l0,0c0,0,0,0-0.2,0.2
					l0,0c0,0,0,0,0,0.2l0,0c0,0,0,0-0.2,0.2l0,0c0,0,0,0-0.2,0.2l0,0c0,0,0,0-0.2,0.2l0,0c0,0,0,0-0.2,0.2l0,0c0,0,0,0-0.2,0.2l0,0
					l-0.2,0.2l0,0c-0.2,0.2-0.3,0.3-0.3,0.5l0,0l-0.2,0.2l0,0l-0.2,0.2l0,0c0,0,0,0-0.2,0.2l0,0c0,0,0,0-0.2,0.2l0,0
					c0,0,0,0-0.2,0.2l0,0c0,0,0,0-0.2,0.2l0,0l0,0l0,0c0,0,0,0,0,0.2l0,0c0,0,0,0-0.2,0.2l0,0c0,0,0,0-0.2,0.2l0,0l0,0l0,0l0,0l0,0
					c0,0,0,0,0,0.2l0,0l0,0l0,0l0,0l0,0l0,0l0,0l0,0l0,0l0,0l0,0l0,0l0,0l0,0l0,0l0,0c0,0,0,0,0,0.2l0,0c0,0,0,0,0,0.2l0,0l0,0l0,0
					c0,0,0,0,0,0.2l0,0c0,0,0,0-0.2,0.2l0,0c0,0,0,0-0.2,0.2l0,0c0,0,0,0-0.2,0.2l0,0c0,0,0,0-0.2,0.2l0,0c0,0,0,0-0.2,0.2l0,0
					c-1.4,1.4-2.6,2.8-4,4.2l5.6,5.4c4.4-4.5,8.9-9.2,13.1-13.8L930.1,819L930.1,819z M953.6,790.1c-3.1,4.2-6.4,8.4-9.6,12.6l0,0
					c0,0,0,0-0.2,0.2l0,0c0,0,0,0,0,0.2l0,0l0,0l0,0l0,0l0,0l0,0c0,0,0,0,0,0.2l0,0c-0.5,0.5-0.8,1.1-1.2,1.6l6.1,4.8
					c4-5,7.9-10,11.7-15.1L953.6,790.1L953.6,790.1z M974.3,759c-0.6,0.9-1.2,2-1.9,3l0,0v0.2l0,0v0.2l0,0v0.2l0,0v0.2l0,0
					c0,0,0,0,0,0.2l0,0c0,0,0,0,0,0.2l0,0c0,0,0,0,0,0.2l0,0l0,0l0,0l0,0l0,0l0,0l0,0l0,0l0,0l0,0l0,0c0,0,0,0,0,0.2l0,0
					c0,0,0,0,0,0.2l0,0c0,0,0,0,0,0.2l0,0l0,0l0,0l0,0l0,0l0,0l0,0l0,0l0,0l0,0l0,0l0,0l0,0l0,0l0,0l0,0c0,0,0,0,0,0.2l0,0v0.2l0,0
					c0,0,0,0,0,0.2l0,0c0,0,0,0,0,0.2l0,0c0,0,0,0,0,0.2l0,0c0,0,0,0,0,0.2l0,0c0,0,0,0,0,0.2l0,0c-0.5,0.6-0.8,1.2-1.2,2l0,0
					c0,0.2-0.2,0.2-0.2,0.3l0,0l0,0l0,0l0,0l0,0c0,0,0,0,0,0.2l0,0c0,0,0,0,0,0.2l0,0l0,0l0,0l0,0l0,0l0,0l0,0l0,0l0,0l0,0
					c0,0,0,0,0,0.2l0,0c0,0,0,0,0,0.2l0,0c0,0,0,0,0,0.2l0,0v0.2l0,0c0,0,0,0,0,0.2l0,0c0,0,0,0,0,0.2l0,0c0,0,0,0,0,0.2l0,0
					c0,0,0,0,0,0.2l0,0c0,0,0,0,0,0.2l0,0c0,0,0,0,0,0.2l0,0c0,0,0,0,0,0.2l0,0c0,0,0,0,0,0.2l0,0c0,0,0,0,0,0.2l0,0c0,0,0,0,0,0.2
					l0,0c0,0,0,0,0,0.2l0,0c0,0,0,0,0,0.2l0,0c0,0,0,0,0,0.2l0,0c0,0,0,0,0,0.2l0,0c0,0,0,0,0,0.2l0,0c0,0,0,0,0,0.2l0,0
					c0,0,0,0,0,0.2l0,0c0,0,0,0,0,0.2l0,0c0,0,0,0,0,0.2l0,0c0,0,0,0,0,0.2l0,0c0,0,0,0,0,0.2l0,0c0,0,0,0,0,0.2l0,0c0,0,0,0,0,0.2
					l0,0c0,0,0,0,0,0.2l0,0c0,0,0,0,0,0.2l0,0c0,0,0,0,0,0.2l0,0c0,0,0,0,0,0.2l0,0c0,0,0,0,0,0.2l0,0c0,0,0,0,0,0.2l0,0
					c0,0,0,0,0,0.2l0,0c0,0,0,0,0,0.2l0,0c0,0.2-0.2,0.2-0.2,0.3l0,0c0,0,0,0,0,0.2l0,0c0,0,0,0,0,0.2l0,0c0,0,0,0,0,0.2l0,0
					c0,0,0,0,0,0.2l0,0c0,0,0,0,0,0.2l0,0c0,0,0,0,0,0.2l0,0c0,0,0,0,0,0.2l0,0c0,0,0,0,0,0.2l0,0c0,0,0,0,0,0.2l0,0l6.5,4.4
					c3.4-5.3,6.8-10.7,10.1-16.2L974.3,759L974.3,759z M991.7,726c-0.9,2-2,4.2-3,6.2l0,0v0.2l0,0v0.2l0,0c0,0,0,0,0,0.2l0,0l0,0
					c0,0,0,0,0,0.2l0,0c0,0,0,0,0,0.2l0,0c0,0,0,0,0,0.2l0,0c0,0,0,0,0,0.2l0,0c0,0,0,0,0,0.2l0,0c0,0,0,0,0,0.2l0,0c0,0,0,0,0,0.2
					l0,0c0,0,0,0,0,0.2l0,0c0,0,0,0,0,0.2l0,0v0.2l0,0v0.2l0,0v0.2l0,0v0.2l0,0c-1.1,2-2.2,4.2-3.3,6.2l0,0
					c-0.2,0.2-0.2,0.3-0.3,0.5l0,0v0.2l0,0c0,0,0,0,0,0.2l0,0c0,0,0,0,0,0.2l0,0c0,0,0,0,0,0.2l0,0c0,0,0,0,0,0.2l0,0l0,0l0,0l0,0
					c0,0,0,0,0,0.2l0,0c0,0,0,0,0,0.2l0,0c0,0.2-0.2,0.3-0.2,0.5l6.8,3.7c3-5.6,5.9-11.4,8.6-17L991.7,726L991.7,726z M1006,691.4
					c-1.6,4.4-3.1,8.6-4.8,12.8l0,0v0.2l0,0v0.2l0,0c0,0,0,0,0,0.2l0,0c0,0,0,0,0,0.2l0,0c0,0,0,0,0,0.2l0,0c0,0,0,0,0,0.2l0,0
					c0,0,0,0,0,0.2l0,0c0,0,0,0,0,0.2l0,0l0,0l0,0l0,0c0,0,0,0,0,0.2l0,0c0,0,0,0,0,0.2l0,0c0,0,0,0,0,0.2l0,0c0,0,0,0,0,0.2l0,0
					c0,0,0,0,0,0.2l0,0c0,0,0,0,0,0.2l0,0v0.2l0,0c-0.3,0.8-0.6,1.6-0.9,2.3l7.2,3c2.5-5.9,4.7-11.8,6.8-17.7L1006,691.4L1006,691.4
					z M1017.1,655.8c-0.5,2-1.1,4.2-1.6,6.2l0,0v0.2l0,0v0.2l0,0v0.2l0,0c0,0,0,0,0,0.2l0,0c0,0,0,0,0,0.2l0,0c0,0,0,0,0,0.2l0,0
					c0,0,0,0,0,0.2l0,0c0,0,0,0,0,0.2l0,0c0,0,0,0,0,0.2l0,0c0,0,0,0,0,0.2l0,0l0,0c0,0,0,0,0,0.2l0,0c0,0,0,0,0,0.2l0,0
					c-0.9,3.3-1.9,6.7-3,10l7.5,2.3c1.9-6.1,3.6-12.3,5.1-18.4L1017.1,655.8L1017.1,655.8z M1024.4,619.3c-0.6,3.9-1.2,7.8-2,11.7
					l0,0v0.2l0,0c0,0,0,0,0,0.2l0,0l0,0l0,0l0,0c0,0,0,0,0,0.2l0,0c0,0,0,0,0,0.2l0,0c0,0,0,0,0,0.2l0,0c0,0,0,0,0,0.2l0,0
					c0,0,0,0,0,0.2l0,0v0.2l0,0v0.2l0,0v0.2l0,0v0.2l0,0c-0.3,1.7-0.6,3.3-0.9,5l7.6,1.6c1.2-6.2,2.3-12.4,3.3-18.8L1024.4,619.3
					L1024.4,619.3z M1028.3,582.1c-0.3,6.2-0.8,12.4-1.6,18.7l7.8,0.8c0.6-6.2,1.1-12.6,1.6-19L1028.3,582.1L1028.3,582.1z
					 M1036.4,544.4l-7.8,0.3c0.2,3.9,0.3,7.6,0.3,11.5l0,0c0,0.2,0,0.2,0,0.3l0,0c0,0,0,0,0,0.2l0,0c0,0,0,0,0,0.2l0,0v0.2l0,0
					c0,0,0,0,0,0.2l0,0c0,0,0,0,0,0.2l0,0v0.2l0,0l0,0l0,0l0,0c0,0,0,0,0,0.2l0,0v0.2l0,0c0,0,0,0,0,0.2l0,0c0,0,0,0,0,0.2l0,0v0.2
					l0,0c0,0,0,0,0,0.2l0,0c0,0,0,0,0,0.2l0,0v0.2l0,0c0,0,0,0,0,0.2l0,0c0,0,0,0,0,0.2l0,0v0.2l0,0v0.2l0,0c0,0,0,0,0,0.2l0,0v0.2
					l0,0l0,0l0,0v0.2l0,0c0,0,0,0,0,0.2l0,0v0.2l0,0l0,0c0,0.2,0,0.2,0,0.3l0,0c0,0.9,0,1.7,0,2.6h7.8c0-1.2,0-2.3,0-3.6
					C1036.7,554.9,1036.5,549.6,1036.4,544.4L1036.4,544.4z M1033.1,506.6l-7.8,1.1c0,0.5,0.2,0.9,0.2,1.4l0,0v0.2l0,0
					c0,0,0,0,0,0.2l0,0c0,0,0,0,0,0.2l0,0c0,0,0,0,0,0.2l0,0l0,0l0,0l0,0l0,0l0,0c0,0,0,0,0,0.2l0,0c0,0,0,0,0,0.2l0,0
					c0,0,0,0,0,0.2l0,0c0.5,3.3,0.8,6.5,1.1,9.8l0,0v0.2l0,0v0.2l0,0c0,0,0,0,0,0.2l0,0v0.2l0,0c0,0,0,0,0,0.2l0,0c0,0,0,0,0,0.2
					l0,0c0,0,0,0,0,0.2l0,0l0,0c0,0,0,0,0,0.2l0,0c0,0,0,0,0,0.2l0,0c0,0,0,0,0,0.2l0,0v0.2l0,0c0.2,1.4,0.3,2.8,0.3,4l7.8-0.6
					C1034.6,519.2,1033.9,512.9,1033.1,506.6L1033.1,506.6z M1026.2,469.2l-7.6,1.7c1.4,6.1,2.6,12.1,3.9,18.2l7.6-1.4
					C1028.9,481.6,1027.6,475.2,1026.2,469.2L1026.2,469.2z M1015.7,432.6l-7.3,2.5c0.3,0.8,0.6,1.7,0.9,2.6l0,0l0,0c0,0,0,0,0,0.2
					l0,0c0,0,0,0,0,0.2l0,0c0,0,0,0,0,0.2l0,0c0,0,0,0,0,0.2l0,0v0.2l0,0v0.2l0,0v0.2l0,0c1.6,4.7,3,9.5,4.4,14.2l7.5-2.2
					C1019.7,444.6,1017.8,438.5,1015.7,432.6L1015.7,432.6z M1001.8,397.1l-7.2,3.3c0.2,0.5,0.5,0.9,0.6,1.4l0,0c0,0,0,0,0,0.2l0,0
					c0,0,0,0,0,0.2l0,0c0,0,0,0,0,0.2l0,0c0,0,0,0,0,0.2l0,0l0,0l0,0l0,0c0,0,0,0,0,0.2l0,0c0,0,0,0,0,0.2l0,0c0,0,0,0,0,0.2l0,0
					c0,0,0,0,0,0.2l0,0v0.2l0,0c1.6,3.6,3.1,7,4.5,10.6l0,0v0.2l0,0c0,0,0,0,0,0.2l0,0c0,0,0,0,0,0.2l0,0c0,0,0,0,0,0.2l0,0
					c0,0,0,0,0,0.2l0,0l0,0c0,0,0,0,0,0.2l0,0c0,0,0,0,0,0.2l0,0c0.3,0.9,0.8,1.9,1.1,2.6l7.3-2.8
					C1007,408.8,1004.3,402.9,1001.8,397.1L1001.8,397.1z M984.6,363.2l-6.7,3.9c1.1,1.9,2,3.6,3.1,5.4l0,0c0,0,0,0,0,0.2l0,0v0.2
					l0,0c0,0,0,0,0,0.2l0,0c0,0,0,0,0,0.2l0,0c0,0,0,0,0,0.2l0,0c0,0,0,0,0,0.2l0,0l0,0l0,0l0,0l0,0l0,0l0,0l0,0l0,0l0,0l0,0l0,0
					l0,0l0,0c0,0,0,0,0,0.2l0,0c0,0,0,0,0,0.2l0,0c0,0,0,0,0,0.2l0,0c0,0,0,0,0,0.2l0,0c0,0,0,0,0,0.2l0,0c0,0,0,0,0,0.2l0,0
					c0,0,0,0,0,0.2l0,0c0,0,0,0,0,0.2l0,0c0,0,0,0,0,0.2l0,0c0,0,0,0,0,0.2l0,0v0.2l0,0c0,0,0,0,0,0.2l0,0v0.2l0,0c0,0,0,0,0,0.2
					l0,0c0,0,0,0,0,0.2l0,0c0,0,0,0,0,0.2l0,0c0,0,0,0,0,0.2l0,0c0,0,0,0,0,0.2l0,0v0.2l0,0v0.2l0,0v0.2l0,0v0.2l0,0v0.2l0,0v0.2
					l0,0v0.2l0,0v0.2l0,0v0.2l0,0v0.2l0,0c0,0,0,0,0,0.2l0,0c0,0,0,0,0,0.2l0,0c0,0,0,0,0,0.2l0,0c0,0,0,0,0,0.2l0,0c0,0,0,0,0,0.2
					l0,0v0.2l0,0v0.2l0,0v0.2l0,0v0.2l0,0v0.2l0,0c0,0,0,0,0,0.2l0,0c0,0,0,0,0,0.2l0,0c0,0,0,0,0,0.2l0,0c0,0,0,0,0,0.2l0,0
					c0,0,0,0,0,0.2l0,0c0,0,0,0,0,0.2l0,0c0,0,0,0,0,0.2l0,0c0,0,0,0,0,0.2l0,0c0,0,0,0,0,0.2l0,0c0,0,0,0,0,0.2l0,0c0,0,0,0,0,0.2
					l0,0c0,0,0,0,0,0.2l0,0c0,0,0,0,0,0.2l0,0c0,0,0,0,0,0.2l0,0l0,0l0,0l0,0l0,0l0,0l0,0l0,0c0,0,0,0,0,0.2l0,0c0,0,0,0,0,0.2l0,0
					c0,0,0,0,0,0.2l0,0c0,0,0,0,0,0.2l0,0c0,0,0,0,0,0.2l0,0v0.2l0,0c0.2,0.5,0.5,0.9,0.6,1.2l7-3.6
					C990.6,374.3,987.7,368.7,984.6,363.2L984.6,363.2z M964,331.2l-6.4,4.5c2.8,3.9,5.4,7.8,7.9,11.7l0,0c0,0,0,0,0,0.2l0,0l0,0
					l0,0l0,0c0,0,0,0,0,0.2l0,0c0,0,0,0,0,0.2l0,0v0.2l0,0c0.6,1.1,1.4,2,2,3.1l6.5-4.2C971.2,341.6,967.6,336.3,964,331.2
					L964,331.2z M940.5,301.2l-5.9,5.1c0.8,0.9,1.6,1.7,2.2,2.6l0,0c0,0,0,0,0.2,0.2l0,0c0,0,0,0,0.2,0.2l0,0c0,0,0,0,0.2,0.2l0,0
					c0,0,0,0,0.2,0.2l0,0c0,0,0,0,0.2,0.2l0,0c0,0,0,0,0,0.2l0,0c0,0,0,0,0,0.2l0,0c0,0,0,0,0,0.2l0,0c0,0,0,0,0,0.2l0,0
					c0,0,0,0,0,0.2l0,0c0,0,0,0,0,0.2l0,0c0,0,0,0,0,0.2l0,0l0,0l0,0l0,0l0,0l0,0l0,0l0,0l0,0l0,0l0,0l0,0l0,0l0,0l0,0l0,0l0,0l0,0
					l0,0l0,0l0,0l0,0l0,0l0,0l0,0l0,0l0,0l0,0l0,0l0,0l0,0l0,0l0,0l0,0l0,0l0,0l0,0l0,0l0,0l0,0l0,0l0,0c0,0,0,0,0,0.2l0,0
					c0,0,0,0,0,0.2l0,0c0,0,0,0,0,0.2l0,0c0,0,0,0,0,0.2l0,0c0,0,0,0,0,0.2l0,0c0,0,0,0,0,0.2l0,0c0,0,0,0,0,0.2l0,0l0,0l0,0l0,0
					l0,0c0,0,0,0,0,0.2l0,0c0,0,0,0,0,0.2l0,0l0,0l0,0l0,0l0,0c0,0,0,0,0,0.2l0,0c0,0,0,0,0,0.2l0,0l0,0l0,0c0,0,0,0,0,0.2l0,0
					c0,0,0,0,0,0.2l0,0c0,0,0,0,0,0.2l0,0c0,0,0,0,0,0.2l0,0c0,0,0,0,0,0.2l0,0c0,0,0,0,0,0.2l0,0c0,0,0,0,0,0.2l0,0l0,0l0,0l0,0
					l0,0c0,0,0,0,0,0.2l0,0c0,0,0,0,0,0.2l0,0c0,0,0,0,0,0.2l0,0c0,0,0,0,0,0.2l0,0c0,0,0,0,0,0.2l0,0c0,0,0,0,0,0.2l0,0
					c0,0,0,0,0,0.2l0,0c0,0,0,0,0,0.2l0,0c0,0,0,0,0,0.2l0,0c0,0,0,0,0,0.2l0,0c0,0,0,0,0,0.2l0,0c0,0,0,0,0,0.2l0,0c0,0,0,0,0,0.2
					l0,0c0,0,0,0,0,0.2l0,0c0,0,0,0,0,0.2l0,0c0,0,0,0,0,0.2l0,0c0,0,0,0,0,0.2l0,0c0,0,0,0,0,0.2l0,0c0,0,0,0,0,0.2l0,0
					c0,0,0,0,0,0.2l0,0c0,0,0,0,0,0.2l0,0c0,0,0,0,0,0.2l0,0c0,0,0,0,0,0.2l0,0c0,0,0,0,0,0.2l0,0c0,0,0,0,0,0.2l0,0c0,0,0,0,0,0.2
					l0,0c0,0,0,0,0,0.2l0,0c0,0,0,0,0,0.2l0,0c0,0,0,0,0.2,0.2l0,0c0,0,0,0,0.2,0.2l0,0c0,0,0,0,0,0.2l0,0c0,0,0,0,0,0.2l0,0
					c0,0,0,0,0.2,0.2l0,0c0,0,0,0,0.2,0.2l0,0c0,0,0,0,0.2,0.2l0,0c0.2,0.2,0.3,0.3,0.3,0.5l0,0c0.3,0.3,0.5,0.6,0.8,0.9l6.1-4.8
					C948.8,310.8,944.7,306,940.5,301.2L940.5,301.2z M914.4,273.5l-5.4,5.6l0,0l0,0l0,0l0,0l0,0l0,0l0,0l0,0l0,0l0,0l0,0
					c0,0,0,0,0.2,0.2l0,0c0,0,0,0,0.2,0.2l0,0c0,0,0,0,0.2,0.2l0,0c2.3,2.3,4.7,4.7,7,7l0,0l0.2,0.2l0,0c0,0,0,0,0.2,0.2l0,0
					c0,0,0,0,0.2,0.2l0,0c0,0,0,0,0.2,0.2l0,0c0,0,0,0,0.2,0.2l0,0l0,0l0,0l0,0l0,0l0,0l0,0l0,0l0,0l0,0l0,0l0,0l0,0l0,0l0,0l0,0
					l0,0l0,0l0,0l0,0l0,0l0,0l0,0l0,0c0,0,0,0,0.2,0.2l0,0c0,0,0,0,0.2,0.2l0,0c0,0,0,0,0.2,0.2l0,0c0,0,0,0,0.2,0.2l0,0
					c1.1,1.1,2,2.2,3.1,3.3l5.6-5.3C923.4,282.5,918.9,278,914.4,273.5L914.4,273.5z M885.6,248.6l-4.8,6.1c0.3,0.2,0.6,0.5,0.9,0.6
					l0,0c0,0,0,0,0.2,0.2l0,0c0,0,0,0,0.2,0.2l0,0c0,0,0,0,0.2,0l0,0c0,0,0,0,0.2,0l0,0c0,0,0,0,0.2,0l0,0c0,0,0,0,0.2,0l0,0l0,0
					l0,0l0,0l0,0l0,0l0,0l0,0l0,0l0,0l0,0l0,0l0,0l0,0l0,0l0,0l0,0l0,0l0,0l0,0l0,0l0,0l0,0l0,0l0,0l0,0l0,0l0,0l0,0l0,0l0,0l0,0
					l0,0l0,0l0,0l0,0l0,0l0,0l0,0l0,0l0,0l0,0l0,0l0,0l0,0l0,0l0,0l0,0l0,0l0,0l0,0l0,0l0,0c0,0,0,0,0.2,0l0,0c0,0,0,0,0.2,0l0,0
					c0,0,0,0,0.2,0l0,0c0,0,0,0,0.2,0l0,0c0,0,0,0,0.2,0.2l0,0c0,0,0,0,0.2,0.2l0,0c0,0,0,0,0.2,0.2l0,0c3.1,2.5,6.1,5.1,9,7.6
					l5.1-5.9C895.6,256.5,890.6,252.5,885.6,248.6L885.6,248.6z M854.7,226.3l-4.2,6.5c5.3,3.4,10.4,6.8,15.4,10.4l4.5-6.4
					C865.2,233.5,860,229.8,854.7,226.3L854.7,226.3z M821.7,207.4l-3.6,6.8h0.2l0,0h0.2l0,0h0.2l0,0c0,0,0,0,0.2,0l0,0
					c0,0,0,0,0.2,0l0,0c0,0,0,0,0.2,0l0,0c0,0,0,0,0.2,0l0,0c0,0,0,0,0.2,0l0,0l0,0l0,0l0,0l0,0l0,0l0,0l0,0l0,0l0,0l0,0l0,0l0,0
					l0,0c0,0,0,0,0.2,0l0,0c0,0,0,0,0.2,0l0,0c0,0,0,0,0.2,0l0,0c0,0,0,0,0.2,0l0,0c0,0,0,0,0.2,0l0,0c0,0,0,0,0.2,0l0,0
					c0,0,0,0,0.2,0l0,0c0,0,0,0,0.2,0l0,0c0,0,0,0,0.2,0l0,0c0,0,0,0,0.2,0l0,0c0,0,0,0,0.2,0l0,0c0,0,0,0,0.2,0l0,0c0,0,0,0,0.2,0
					l0,0c0,0,0,0,0.2,0l0,0c0,0,0,0,0.2,0l0,0c0,0,0,0,0.2,0l0,0c0,0,0,0,0.2,0l0,0c0,0,0,0,0.2,0l0,0c0,0,0,0,0.2,0l0,0
					c0,0,0,0,0.2,0l0,0c0,0,0,0,0.2,0l0,0c0,0,0,0,0.2,0l0,0c0,0,0,0,0.2,0l0,0c0,0,0,0,0.2,0l0,0c0,0,0,0,0.2,0l0,0c0,0,0,0,0.2,0
					l0,0c0,0,0,0,0.2,0l0,0c0,0,0,0,0.2,0l0,0c0,0,0,0,0.2,0l0,0c0,0,0,0,0.2,0l0,0l0,0l0,0l0,0l0,0l0,0l0,0l0,0l0,0l0,0l0,0l0,0
					l0,0l0,0l0,0l0,0l0,0l0,0l0,0l0,0c0,0,0,0,0.2,0l0,0c0,0,0,0,0.2,0l0,0c0,0,0,0,0.2,0l0,0c0,0,0,0,0.2,0l0,0c0,0,0,0,0.2,0l0,0
					c0,0,0,0,0.2,0l0,0c0,0,0,0,0.2,0l0,0c0,0,0,0,0.2,0l0,0c0,0,0,0,0.2,0l0,0c0,0,0,0,0.2,0l0,0c0,0,0,0,0.2,0l0,0c0,0,0,0,0.2,0
					l0,0c0,0,0,0,0.2,0l0,0c0,0,0,0,0.2,0l0,0c0,0,0,0,0.2,0l0,0c0,0,0,0,0.2,0l0,0c0,0,0,0,0.2,0l0,0c0,0,0,0,0.2,0l0,0
					c0,0,0,0,0.2,0l0,0c0,0,0,0,0.2,0l0,0c0,0,0,0,0.2,0l0,0c0,0,0,0,0.2,0l0,0c0,0,0,0,0.2,0l0,0c0,0,0,0,0.2,0l0,0c0,0,0,0,0.2,0
					l0,0c0,0,0,0,0.2,0l0,0c0,0,0,0,0.2,0l0,0c0,0,0,0,0.2,0l0,0c0,0,0,0,0.2,0l0,0c0,0,0,0,0.2,0l0,0c0,0,0,0,0.2,0l0,0
					c0,0,0,0,0.2,0l0,0l0,0l0,0c0,0,0,0,0.2,0l0,0c0,0,0,0,0.2,0l0,0c0,0,0,0,0.2,0l0,0l0,0c1.6,0.9,3.1,1.7,4.7,2.6l3.9-6.7
					C833,213.3,827.3,210.2,821.7,207.4L821.7,207.4z M787.2,191.5l-3,7.2c5.8,2.3,11.5,4.8,17.1,7.3l3.3-7
					C798.8,196.3,793.1,193.8,787.2,191.5L787.2,191.5z M751.1,179l-2.2,7.5c6.1,1.7,12,3.6,17.7,5.6l2.5-7.3
					C763.4,182.8,757.1,180.9,751.1,179L751.1,179z M714,170.2l-1.4,7.6c2.3,0.5,4.7,0.9,6.8,1.4l0,0h0.2l0,0h0.2l0,0c0,0,0,0,0.2,0
					l0,0c0,0,0,0,0.2,0l0,0l0,0c0,0,0,0,0.2,0l0,0c0,0,0,0,0.2,0l0,0c0,0,0,0,0.2,0l0,0c0,0,0,0,0.2,0l0,0c0,0,0,0,0.2,0l0,0h0.2
					l0,0c0,0,0,0,0.2,0l0,0h0.2l0,0h0.2l0,0c3.1,0.6,6.2,1.4,9.3,2.2l1.9-7.6C726.6,172.8,720.3,171.4,714,170.2L714,170.2z
					 M676.4,165l-0.8,7.8c6.2,0.6,12.4,1.2,18.5,2.2l1.1-7.8C689,166.3,682.8,165.5,676.4,165L676.4,165z M640,163.3v7.8h0.2l0,0
					c0,0,0,0,0.2,0l0,0c0,0,0,0,0.2,0l0,0c0,0,0,0,0.2,0l0,0c0,0,0,0,0.2,0l0,0h0.2l0,0h0.2l0,0c0,0,0,0,0.2,0l0,0c0,0,0,0,0.2,0
					l0,0c0,0,0,0,0.2,0l0,0c0,0,0,0,0.2,0l0,0h0.2l0,0h0.2l0,0c0,0,0,0,0.2,0l0,0c0,0,0,0,0.2,0l0,0c0,0,0,0,0.2,0l0,0
					c0,0,0,0,0.2,0l0,0h0.2l0,0c0,0,0,0,0.2,0l0,0c0,0,0,0,0.2,0l0,0c0,0,0,0,0.2,0l0,0c0,0,0,0,0.2,0l0,0h0.2l0,0h0.2l0,0
					c0,0,0,0,0.2,0l0,0c0,0,0,0,0.2,0l0,0c0,0,0,0,0.2,0l0,0h0.2l0,0c0.2,0,0.2,0,0.3,0l0,0h0.2l0,0c0,0,0,0,0.2,0l0,0
					c0,0,0,0,0.2,0l0,0h0.2l0,0h0.2l0,0h0.2l0,0h0.2l0,0h0.2l0,0h0.2l0,0h0.2l0,0c0.2,0,0.2,0,0.3,0l0,0h0.2l0,0c0,0,0,0,0.2,0l0,0
					h0.2l0,0c0.2,0,0.2,0,0.3,0l0,0h0.2l0,0c0,0,0,0,0.2,0l0,0c0,0,0,0,0.2,0l0,0h0.2l0,0c0.2,0,0.3,0,0.5,0l0,0h0.2l0,0h0.2l0,0
					c0.2,0,0.3,0,0.5,0l0,0h0.2l0,0h0.2l0,0h0.2l0,0c0.2,0,0.3,0,0.5,0l0,0h0.2l0,0h0.2l0,0h0.2l0,0c0.2,0,0.3,0,0.5,0l0,0h0.2l0,0
					h0.2l0,0h0.2l0,0c0.2,0,0.3,0,0.5,0l0,0h0.2l0,0h0.2l0,0h0.2l0,0c0.2,0,0.3,0,0.5,0l0,0h0.2l0,0h0.2l0,0c0.2,0,0.3,0,0.5,0l0,0
					h0.2l0,0h0.2l0,0h0.2l0,0c0.2,0,0.3,0,0.5,0l0,0h0.2l0,0h0.2l0,0h0.2l0,0c0.2,0,0.3,0,0.5,0l0,0h0.2l0,0h0.2l0,0h0.2l0,0
					c0.2,0,0.2,0,0.3,0l0,0h0.2l0,0h0.2l0,0c0,0,0,0,0.2,0l0,0h0.2l0,0l0,0l0.3-7.8C651.7,163.5,645.8,163.3,640,163.3L640,163.3z"
					/>
			</g>
			<circle fill="#FFB74D" cx="640" cy="560" r="46.7"/>
			<g>
				<path fill="#FFB74D" d="M584.3,654h-12.4v-26.1H584c5.3,0,8.6,2.6,8.6,6.7l0,0c0,3-1.6,4.7-3.4,5.6c3,1.1,4.8,3,4.8,6.4l0,0
					C594.1,651.6,590.2,654,584.3,654z M586.8,635.6c0-1.7-1.4-2.6-3.7-2.6h-5.6v5.6h5.3C585.2,638.4,586.8,637.6,586.8,635.6
					L586.8,635.6z M588.4,646c0-1.7-1.2-2.8-4.2-2.8h-6.7v5.8h6.8C586.8,649,588.4,648,588.4,646L588.4,646z"/>
				<path fill="#FFB74D" d="M610,654v-2.2c-1.4,1.6-3.3,2.5-6.1,2.5c-3.7,0-6.8-2.2-6.8-6.1l0,0c0-4.4,3.3-6.4,8.1-6.4
					c2,0,3.4,0.3,4.8,0.8v-0.3c0-2.3-1.4-3.7-4.4-3.7c-2.2,0-3.7,0.5-5.6,1.1l-1.4-4.4c2.2-0.9,4.4-1.6,7.8-1.6
					c6.2,0,8.9,3.3,8.9,8.6V654L610,654L610,654z M610,645.9c-0.9-0.5-2.2-0.8-3.6-0.8c-2.5,0-3.9,0.9-3.9,2.8l0,0
					c0,1.6,1.2,2.5,3.1,2.5c2.6,0,4.5-1.4,4.5-3.6v-0.9H610z"/>
				<path fill="#FFB74D" d="M627.2,654.3c-2.8,0-5.9-0.9-8.6-3l2.5-3.7c2.2,1.6,4.5,2.3,6.4,2.3c1.7,0,2.3-0.6,2.3-1.6l0,0
					c0-1.2-1.9-1.7-4.2-2.3c-2.8-0.8-5.9-2.2-5.9-6.1l0,0c0-4,3.3-6.4,7.3-6.4c2.5,0,5.3,0.9,7.5,2.3l-2.2,3.9
					c-2-1.1-3.9-1.9-5.4-1.9c-1.4,0-2,0.6-2,1.4l0,0c0,1.1,1.9,1.7,4,2.3c2.8,0.9,6.1,2.3,6.1,5.9l0,0
					C635,652.2,631.6,654.3,627.2,654.3z"/>
				<path fill="#FFB74D" d="M645.8,654.3c-3.4,0-5.8-1.4-5.8-6.1v-9.5h-2.3v-4.8h2.3v-5.1h5.6v5.1h4.7v4.8h-4.7v8.6
					c0,1.2,0.6,1.9,1.9,1.9c1.1,0,2-0.3,2.8-0.8v4.5C649,653.8,647.6,654.3,645.8,654.3z"/>
				<path fill="#FFB74D" d="M654.6,631.7v-5h5.9v5H654.6z M654.8,654v-20.1h5.6V654H654.8z"/>
				<path fill="#FFB74D" d="M675.6,654.4c-6.2,0-10.7-4.7-10.7-10.3l0,0c0-5.8,4.7-10.4,10.9-10.4s10.7,4.7,10.7,10.3l0,0
					C686.5,649.8,681.8,654.4,675.6,654.4z M680.9,644c0-3-2.2-5.6-5.3-5.6c-3.3,0-5.1,2.5-5.1,5.4l0,0c0,3,2.2,5.6,5.3,5.6
					S680.9,647,680.9,644L680.9,644z"/>
				<path fill="#FFB74D" d="M703.3,654v-11.2c0-2.6-1.2-4-3.4-4c-2.2,0-3.6,1.4-3.6,4V654h-5.6v-20.1h5.6v2.8c1.2-1.7,3-3.3,5.9-3.3
					c4.4,0,6.8,2.8,6.8,7.5v12.9h-5.8V654z"/>
			</g>
			<circle fill="#CECECE" cx="391.1" cy="357.8" r="46.7"/>
			<g>
				<path fill="#CECECE" d="M370.1,451.7l-5.6-8.4H360v8.4h-5.8v-26.1h12c6.2,0,9.8,3.3,9.8,8.6l0,0c0,4.2-2.3,6.8-5.6,8.1l6.4,9.3
					h-6.7V451.7z M370.1,434.5c0-2.5-1.7-3.7-4.5-3.7H360v7.5h5.8C368.6,438.4,370.1,436.8,370.1,434.5L370.1,434.5z"/>
				<path fill="#CECECE" d="M391.4,451.7h-10.3v-26.1h10.3c8.2,0,13.8,5.6,13.8,13.1l0,0C405.3,446,399.7,451.7,391.4,451.7z
					 M399.2,438.7c0-4.7-3.1-7.9-7.9-7.9h-4.5v15.7h4.5C396.1,446.6,399.2,443.3,399.2,438.7L399.2,438.7z"/>
				<path fill="#CECECE" d="M419.7,452c-3.9,0-7.9-1.4-11-4.2l3.4-4c2.3,1.9,4.8,3.1,7.8,3.1c2.3,0,3.7-0.9,3.7-2.5l0,0
					c0-1.4-0.9-2.2-5.3-3.3c-5.3-1.4-8.7-2.8-8.7-7.9l0,0c0-4.7,3.7-7.9,9.2-7.9c3.7,0,7,1.2,9.6,3.3l-3,4.4
					c-2.3-1.6-4.7-2.6-6.8-2.6c-2.2,0-3.4,0.9-3.4,2.3l0,0c0,1.7,1.1,2.3,5.6,3.4c5.3,1.4,8.2,3.3,8.2,7.8l0,0
					C429.2,449.2,425.3,452,419.7,452z"/>
			</g>
			<circle fill="#CECECE" cx="888.9" cy="357.8" r="46.7"/>
			<g>
				<path fill="#CECECE" d="M854.5,451.7v-26.1h19.8v5.1h-14v5.3h12.3v5.1h-12.3v5.4h14.2v5.1L854.5,451.7L854.5,451.7z"/>
				<path fill="#CECECE" d="M879.6,451.7v-26.1h5.8v20.8h13.1v5.3H879.6z"/>
				<path fill="#CECECE" d="M915,451.7h-12.4v-26.1h12.1c5.3,0,8.6,2.6,8.6,6.7l0,0c0,3-1.6,4.7-3.4,5.6c3,1.1,4.8,3,4.8,6.4l0,0
					C924.8,449.4,920.9,451.7,915,451.7z M917.7,433.4c0-1.7-1.4-2.6-3.7-2.6h-5.6v5.6h5.3C916.1,436.2,917.7,435.4,917.7,433.4
					L917.7,433.4z M919.1,443.8c0-1.7-1.2-2.8-4.2-2.8h-6.7v5.8h6.8C917.5,446.8,919.1,445.8,919.1,443.8L919.1,443.8z"/>
			</g>
			<circle fill="#CECECE" cx="640" cy="248.9" r="46.7"/>
			<g>
				<path fill="#CECECE" d="M560,342.8l-2.3-5.9h-11l-2.3,5.9h-5.9l11.2-26.3h5.3l11.2,26.3H560z M552.3,323.4l-3.4,8.4h7
					L552.3,323.4z"/>
				<path fill="#CECECE" d="M582.1,342.8V340c-1.2,1.7-3,3.3-5.9,3.3c-4.4,0-6.8-2.8-6.8-7.5v-12.9h5.6v11.2c0,2.6,1.2,4,3.4,4
					c2.2,0,3.6-1.4,3.6-4v-11.2h5.6V343h-5.4V342.8z"/>
				<path fill="#CECECE" d="M599.6,343.2c-3.4,0-5.8-1.4-5.8-6.1v-9.5h-2.3v-4.8h2.3v-5.1h5.6v5.1h4.7v4.8h-4.7v8.6
					c0,1.2,0.6,1.9,1.9,1.9c1.1,0,2-0.3,2.8-0.8v4.5C602.8,342.7,601.4,343.2,599.6,343.2z"/>
				<path fill="#CECECE" d="M618.1,343.3c-6.2,0-10.7-4.7-10.7-10.3l0,0c0-5.8,4.7-10.4,10.9-10.4s10.7,4.7,10.7,10.3l0,0
					C629,338.6,624.3,343.3,618.1,343.3z M623.4,332.9c0-3-2.2-5.6-5.3-5.6c-3.3,0-5.1,2.5-5.1,5.4l0,0c0,3,2.2,5.6,5.3,5.6
					C621.5,338.3,623.4,335.8,623.4,332.9L623.4,332.9z"/>
				<path fill="#CECECE" d="M640.2,343.2c-2.8,0-5.9-0.9-8.6-3l2.5-3.7c2.2,1.6,4.5,2.3,6.4,2.3c1.7,0,2.3-0.6,2.3-1.6l0,0
					c0-1.2-1.9-1.7-4.2-2.3c-2.8-0.8-5.9-2.2-5.9-6.1l0,0c0-4,3.3-6.4,7.3-6.4c2.5,0,5.3,0.9,7.5,2.3l-2.2,3.9
					c-2-1.1-3.9-1.9-5.4-1.9c-1.4,0-2,0.6-2,1.4l0,0c0,1.1,1.9,1.7,4,2.3c2.8,0.9,6.1,2.3,6.1,5.9l0,0
					C647.8,341.1,644.5,343.2,640.2,343.2z"/>
				<path fill="#CECECE" d="M661.3,343.3c-6.1,0-10.4-4.7-10.4-10.3l0,0c0-5.8,4.4-10.4,10.4-10.4c3.7,0,6.1,1.2,7.9,3.4l-3.4,3.7
					c-1.2-1.4-2.5-2.2-4.5-2.2c-2.8,0-4.8,2.5-4.8,5.4l0,0c0,3.1,2,5.6,5.1,5.6c1.9,0,3.3-0.8,4.7-2.2l3.3,3.4
					C667.5,341.8,665.2,343.3,661.3,343.3z"/>
				<path fill="#CECECE" d="M684.8,342.8v-2.2c-1.4,1.6-3.3,2.5-6.1,2.5c-3.7,0-6.8-2.2-6.8-6.1l0,0c0-4.4,3.3-6.4,8.1-6.4
					c2,0,3.4,0.3,4.8,0.8v-0.3c0-2.3-1.4-3.7-4.4-3.7c-2.2,0-3.7,0.5-5.6,1.1l-1.4-4.4c2.2-0.9,4.4-1.6,7.8-1.6
					c6.2,0,8.9,3.3,8.9,8.6v11.7H684.8L684.8,342.8z M685,334.8c-0.9-0.5-2.2-0.8-3.6-0.8c-2.5,0-3.9,0.9-3.9,2.8l0,0
					c0,1.6,1.2,2.5,3.1,2.5c2.6,0,4.5-1.4,4.5-3.6v-0.9H685z"/>
				<path fill="#CECECE" d="M695.5,342.8v-27.2h5.6v27.2H695.5z"/>
				<path fill="#CECECE" d="M725.1,334.8h-14c0.6,2.6,2.3,3.9,4.8,3.9c1.9,0,3.3-0.6,4.8-2l3.3,2.8c-1.9,2.3-4.5,3.7-8.2,3.7
					c-6.1,0-10.4-4.2-10.4-10.3l0,0c0-5.8,4-10.4,10-10.4c6.7,0,9.8,5.1,9.8,10.9l0,0C725.2,334,725.1,334.3,725.1,334.8z
					 M715.4,327c-2.3,0-3.9,1.7-4.4,4.2h8.6C719.3,328.7,717.8,327,715.4,327z"/>
				<path fill="#CECECE" d="M741.1,328.4c-3.7,0-6.1,2.3-6.1,7v7.5h-5.6v-20.1h5.6v4c1.1-2.8,3-4.5,6.4-4.4v5.9H741.1L741.1,328.4z"
					/>
				<path fill="#CECECE" d="M594.4,393.7c-3.3,0-6.4-0.8-8.9-2l1.9-4.2c2,1.1,4,1.9,6.7,1.9c3.9,0,5.8-1.9,5.8-5.4V383
					c-1.7,2-3.6,3.3-6.5,3.3c-4.7,0-8.9-3.4-8.9-9.3l0,0c0-5.9,4.4-9.3,8.9-9.3c3.1,0,5,1.2,6.5,3v-2.6h5.6v15.6
					C605.6,390.6,601.9,393.7,594.4,393.7z M600,376.6c0-2.8-2.2-4.7-4.8-4.7c-2.8,0-4.8,1.9-4.8,4.7l0,0c0,2.8,2,4.7,4.8,4.7
					C597.8,381.3,600,379.4,600,376.6L600,376.6z"/>
				<path fill="#CECECE" d="M622.4,373.2c-3.7,0-6.1,2.3-6.1,7v7.5h-5.6v-20.1h5.6v4c1.1-2.8,3-4.5,6.4-4.4v5.9L622.4,373.2
					L622.4,373.2z"/>
				<path fill="#CECECE" d="M636.1,388.1c-6.2,0-10.7-4.7-10.7-10.3l0,0c0-5.8,4.7-10.4,10.9-10.4s10.7,4.7,10.7,10.3l0,0
					C647,383.4,642.3,388.1,636.1,388.1z M641.4,377.7c0-3-2.2-5.6-5.3-5.6c-3.3,0-5.1,2.5-5.1,5.4l0,0c0,3,2.2,5.6,5.3,5.6
					C639.5,383.1,641.4,380.6,641.4,377.7L641.4,377.7z"/>
				<path fill="#CECECE" d="M663.6,387.6v-2.8c-1.2,1.7-3,3.3-5.9,3.3c-4.4,0-6.8-2.8-6.8-7.5v-12.9h5.6v11.2c0,2.6,1.2,4,3.4,4
					c2.2,0,3.6-1.4,3.6-4v-11.2h5.6v20.1h-5.4V387.6z"/>
				<path fill="#CECECE" d="M686.2,388c-3,0-4.8-1.4-6.2-3v8.6h-5.6v-26h5.6v2.8c1.4-1.9,3.3-3.3,6.2-3.3c4.7,0,9.2,3.7,9.2,10.3
					l0,0C695.4,384.4,691,388,686.2,388z M689.8,377.5c0-3.3-2.2-5.6-4.8-5.6c-2.6,0-4.8,2.2-4.8,5.6l0,0c0,3.3,2.2,5.6,4.8,5.6
					C687.6,383.1,689.8,381.1,689.8,377.5L689.8,377.5z"/>
			</g>
			<g>
				<g>
					
						<line fill="none" stroke="#969595" stroke-width="5" stroke-linecap="square" stroke-miterlimit="10" x1="640.8" y1="426.8" x2="640.8" y2="478.5"/>
					<g>
						<polygon fill="#969595" points="640.8,407.6 629.7,434.6 640.8,428.2 651.8,434.6 						"/>
					</g>
					<g>
						<polygon fill="#969595" points="640.8,497.8 629.7,470.7 640.8,477.1 651.8,470.7 						"/>
					</g>
				</g>
			</g>
			<g>
				<g>
					
						<line fill="none" stroke="#969595" stroke-width="5" stroke-linecap="square" stroke-miterlimit="10" x1="538.6" y1="474.6" x2="578.2" y2="507.7"/>
					<g>
						<polygon fill="#969595" points="523.8,462.3 537.5,488.1 539.7,475.5 551.6,471.2 						"/>
					</g>
					<g>
						<polygon fill="#969595" points="593,520 565.2,511.2 577.2,506.8 579.3,494.2 						"/>
					</g>
				</g>
			</g>
			<g>
				<g>
					
						<line fill="none" stroke="#969595" stroke-width="5" stroke-linecap="square" stroke-miterlimit="10" x1="743.1" y1="474.8" x2="703.3" y2="507.9"/>
					<g>
						<polygon fill="#969595" points="757.9,462.5 730.1,471.3 742,475.7 744.2,488.3 						"/>
					</g>
					<g>
						<polygon fill="#969595" points="688.5,520.2 702.4,494.4 704.4,507 716.5,511.3 						"/>
					</g>
				</g>
			</g>
		</g>
	</g>
</g>
</svg>
