<?xml version="1.0" encoding="utf-8"?>
<!-- Generator: Adobe Illustrator 18.1.1, SVG Export Plug-In . SVG Version: 6.00 Build 0)  -->
<!DOCTYPE svg PUBLIC "-//W3C//DTD SVG 1.1//EN" "http://www.w3.org/Graphics/SVG/1.1/DTD/svg11.dtd">
<svg version="1.1" id="Layer_1" xmlns="http://www.w3.org/2000/svg" xmlns:xlink="http://www.w3.org/1999/xlink" x="0px" y="0px"
	 viewBox="-594 313.9 90 82.1" enable-background="new -594 313.9 90 82.1" xml:space="preserve">
<g>
	<path fill="#424242" d="M-530.5,352.3l-13.7-21.8h0l-1-16.7l0,0l-1,16.8l0,0l-11.9,14.3l-8.5,1.9v15.8v1v15.5l12.7,1l34.9-1.7
		v-22.1L-530.5,352.3z M-562.5,363.7h-2.6v-1h2.6V363.7z M-555.7,344.4l10.5-12.6l12.4,19.7l-21.1-7.5L-555.7,344.4z M-548.1,378
		l-3.8,0.2v-31.3l3.8,1.3V378z M-543.2,377.7l-3.4,0.2v-29.1l3.4,1.2V377.7z M-539,377.5l-2.7,0.1v-27.2l2.7,1V377.5z M-535.2,377.3
		l-2.3,0.1V352l2.3,0.8V377.3z M-531.7,377.1l-2,0.1v-23.9l2,0.7V377.1z M-528.5,377l-1.7,0.1v-22.5l1.7,0.6V377z M-525.7,376.8
		l-1.3,0.1v-21.2l1.3,0.5V376.8z M-523,376.7l-1.2,0.1v-20.1l1.2,0.4V376.7z M-521,376.6l-0.5,0v-19l0.5,0.2V376.6z"/>
	<path fill="#424242" d="M-578.1,378.4l10.6,0.8v-15.5v-1v-15.6l-10.6,2.4V378.4z M-570.6,362.8h2v1h-2V362.8z"/>
</g>
</svg>
