<?xml version="1.0" encoding="utf-8"?>
<!-- Generator: Adobe Illustrator 18.1.1, SVG Export Plug-In . SVG Version: 6.00 Build 0)  -->
<!DOCTYPE svg PUBLIC "-//W3C//DTD SVG 1.1//EN" "http://www.w3.org/Graphics/SVG/1.1/DTD/svg11.dtd">
<svg version="1.1" id="Layer_1" xmlns="http://www.w3.org/2000/svg" xmlns:xlink="http://www.w3.org/1999/xlink" x="0px" y="0px"
	 viewBox="0 0 170 100" enable-background="new 0 0 170 100" xml:space="preserve">
<g>
	<path fill="#E53A35" d="M35,21c0-7.7-6.3-14-14-14h0C13.3,7,7,13.3,7,21v1h28V21z"/>
	<path fill="#E53A35" d="M39,21v1h28v-1c0-7.7-6.3-14-14-14h0C45.3,7,39,13.3,39,21z"/>
	<path fill="#E53A35" d="M99,21c0-8-6.7-14.4-14.7-14C76.8,7.4,71,13.9,71,21.4V22h12v-1c0-1.2,1.1-2.2,2.3-2c1,0.2,1.7,1.1,1.7,2.1
		V22h12V21z"/>
	<path fill="#E53A35" d="M116.3,7c-7.5,0.4-13.3,6.9-13.3,14.4V22h28v-1C131,13,124.3,6.6,116.3,7z"/>
	<path fill="#E53A35" d="M148.3,7c-7.5,0.4-13.3,6.9-13.3,14.4V22h28v-1C163,13,156.3,6.6,148.3,7z"/>
</g>
<g>
	<rect x="7" y="22" fill="#F05323" width="28" height="17"/>
	<rect x="39" y="22" fill="#F05323" width="28" height="17"/>
	<path fill="#F05323" d="M90,33h-1c-3.3,0-6-2.7-6-6v-5H71v14c0,1.1,0.2,2.1,0.5,3h27C97.2,35.5,93.9,33,90,33z"/>
	<path fill="#F05323" d="M89,29h8c1.1,0,2-0.9,2-2v-5H87v5C87,28.1,87.9,29,89,29z"/>
	<rect x="103" y="22" fill="#F05323" width="28" height="17"/>
	<rect x="135" y="22" fill="#F05323" width="28" height="17"/>
</g>
<g>
	<rect x="7" y="39" fill="#ED6D23" width="28" height="18"/>
	<rect x="39" y="39" fill="#ED6D23" width="28" height="18"/>
	<path fill="#ED6D23" d="M83,56.9V51c0-1.1-0.9-2-2-2h-8c-1.1,0-2,0.9-2,2v5.6c0,0.1,0,0.3,0,0.4h12C83,57,83,56.9,83,56.9z"/>
	<path fill="#ED6D23" d="M99,57V42c0-1.1-0.2-2.1-0.5-3h-27c1.2,3.5,4.6,6,8.5,6h1c3.3,0,6,2.7,6,6v6H99z"/>
	<path fill="#ED6D23" d="M129,50.3h-8c-1.1,0-2,0.9-2,2V57h12v-4.7C131,51.2,130.1,50.3,129,50.3z"/>
	<path fill="#ED6D23" d="M103,39v17.6c0,0.1,0,0.3,0,0.4h12c0,0,0-0.1,0-0.1V53c0-3.3,2.7-6,6-6h8c1.1,0,2-0.9,2-2v-6H103z"/>
	<path fill="#ED6D23" d="M135,56.6c0,0.1,0,0.3,0,0.4h12c0,0,0-0.1,0-0.1V53c0-3.3,2.7-6,6-6h8c1.1,0,2-0.9,2-2v-6h-28V56.6z"/>
	<path fill="#ED6D23" d="M161,50.3h-8c-1.1,0-2,0.9-2,2V57h12v-4.7C163,51.2,162.1,50.3,161,50.3z"/>
</g>
<g>
	<path fill="#F78C1F" d="M21,71c7.7,0,14-6.3,14-14v0H7v0C7,64.7,13.3,71,21,71z"/>
	<path fill="#F78C1F" d="M51,74v-3.2c0.7,0.1,1.3,0.2,2,0.2c7.7,0,14-6.3,14-14v0H39v0v17H51z"/>
	<path fill="#F78C1F" d="M84.3,71c8,0.4,14.7-6,14.7-14v0H87v0c0,1.2-1.1,2.2-2.3,2c-0.9-0.2-1.6-1-1.7-2H71
		C71.2,64.4,76.9,70.6,84.3,71z"/>
	<path fill="#F78C1F" d="M119,57L119,57c0,1.2-1.1,2.2-2.3,2c-0.9-0.2-1.6-1-1.7-2h-12c0.2,7.4,5.9,13.6,13.3,14
		c8,0.4,14.7-6,14.7-14v0H119z"/>
	<path fill="#F78C1F" d="M151,57c0,1.2-1.1,2.2-2.3,2c-0.9-0.2-1.6-1-1.7-2h-12c0.2,7.4,5.9,13.6,13.3,14c8,0.4,14.7-6,14.7-14v0
		L151,57L151,57z"/>
</g>
<path fill="#FCB316" d="M51,87V74H39v13c0,3.3,2.7,6,6,6S51,90.3,51,87z"/>
<g>
	<path fill="#EEEEEE" d="M117,35c1.1,0,2-0.9,2-2V21c0-1.1-0.9-2-2-2s-2,0.9-2,2v12C115,34.1,115.9,35,117,35z"/>
	<path fill="#EEEEEE" d="M149,19c-1.1,0-2,0.9-2,2v12c0,1.1,0.9,2,2,2s2-0.9,2-2V21C151,19.9,150.1,19,149,19z"/>
	<path fill="#EEEEEE" d="M149,3c-7,0-13,4-16,9.8C130,7,124,3,117,3s-13,4-16,9.8C98,7,92,3,85,3s-13,4-16,9.8C66,7,60,3,53,3
		s-13,4-16,9.8C34,7,28,3,21,3C11.1,3,3,11.1,3,21v36c0,9.9,8.1,18,18,18c5.7,0,10.7-2.6,14-6.7V87c0,5.5,4.5,10,10,10
		c5.5,0,10-4.5,10-10V74.9c6.1-0.7,11.3-4.4,14-9.7C72,71,78,75,85,75c7,0,13-4,16-9.8c3,5.8,9,9.8,16,9.8s13-4,16-9.8
		c3,5.8,9,9.8,16,9.8c9.9,0,18-8.1,18-18V21C167,11.1,158.9,3,149,3z M21,71c-7.7,0-14-6.3-14-14V21c0-7.7,6.3-14,14-14
		c7.7,0,14,6.3,14,14c0,0,0,0,0,0v36c0,0,0,0,0,0C35,64.7,28.7,71,21,71z M53,71c-0.7,0-1.3-0.1-2-0.2V87c0,3.3-2.7,6-6,6
		s-6-2.7-6-6V57V21c0-7.7,6.3-14,14-14c7.7,0,14,6.3,14,14c0,0,0,0,0,0v36c0,0,0,0,0,0C67,64.7,60.7,71,53,71z M84.3,71
		C76.8,70.6,71,64.1,71,56.6V51c0-1.1,0.9-2,2-2h8c1.1,0,2,0.9,2,2v5.9c0,1,0.7,1.9,1.7,2.1c1.3,0.2,2.3-0.8,2.3-2v-6
		c0-3.3-2.7-6-6-6h-1c-5,0-9-4-9-9V21.4c0-7.5,5.8-14,13.3-14.4c8-0.4,14.7,6,14.7,14c0,0,0,0,0,0v6c0,1.1-0.9,2-2,2h-8
		c-1.1,0-2-0.9-2-2v-5.9c0-1-0.7-1.9-1.7-2.1c-1.3-0.2-2.3,0.8-2.3,2v6c0,3.3,2.7,6,6,6h1c5,0,9,4,9,9v15c0,0,0,0,0,0
		C99,65,92.3,71.4,84.3,71z M116.3,71c-7.5-0.4-13.3-6.9-13.3-14.4V21.4c0-7.5,5.8-14,13.3-14.4c8-0.4,14.7,6,14.7,14c0,0,0,0,0,0
		v24c0,1.1-0.9,2-2,2h-8c-3.3,0-6,2.7-6,6v3.9c0,1,0.7,1.9,1.7,2.1c1.3,0.2,2.3-0.8,2.3-2v-4.7c0-1.1,0.9-2,2-2h8c1.1,0,2,0.9,2,2
		V57c0,0,0,0,0,0C131,65,124.3,71.4,116.3,71z M163,45c0,1.1-0.9,2-2,2h-8c-3.3,0-6,2.7-6,6v3.9c0,1,0.7,1.9,1.7,2.1
		c1.3,0.2,2.3-0.8,2.3-2v-4.7c0-1.1,0.9-2,2-2h8c1.1,0,2,0.9,2,2V57c0,8-6.7,14.4-14.7,14c-7.5-0.4-13.3-6.9-13.3-14.4V21.4
		c0-7.5,5.8-14,13.3-14.4c8-0.4,14.7,6,14.7,14V45z"/>
	<path fill="#EEEEEE" d="M53,19c-1.1,0-2,0.9-2,2v36c0,1.1,0.9,2,2,2s2-0.9,2-2V21C55,19.9,54.1,19,53,19z"/>
	<path fill="#EEEEEE" d="M21,19c-1.1,0-2,0.9-2,2v36c0,1.1,0.9,2,2,2s2-0.9,2-2V21C23,19.9,22.1,19,21,19z"/>
</g>
</svg>
