<?xml version="1.0" encoding="utf-8"?>
<!-- Generator: Adobe Illustrator 18.1.1, SVG Export Plug-In . SVG Version: 6.00 Build 0)  -->
<!DOCTYPE svg PUBLIC "-//W3C//DTD SVG 1.1//EN" "http://www.w3.org/Graphics/SVG/1.1/DTD/svg11.dtd">
<svg version="1.1" id="Layer_1" xmlns="http://www.w3.org/2000/svg" xmlns:xlink="http://www.w3.org/1999/xlink" x="0px" y="0px"
	 viewBox="0 0 262 310" enable-background="new 0 0 262 310" xml:space="preserve">
<g>
	<g>
		<defs>
			<rect id="SVGID_1_" x="10" y="10" width="242" height="300"/>
		</defs>
		<clipPath id="SVGID_2_">
			<use xlink:href="#SVGID_1_"  overflow="visible"/>
		</clipPath>
		<g clip-path="url(#SVGID_2_)">
			<g>
				<defs>
					<path id="SVGID_3_" d="M14.4,152.3h-3.2c-0.7,0-1.3-0.6-1.3-1.3v-13.3c0-0.7,0.6-1.3,1.3-1.3h3.2c0.7,0,1.3,0.6,1.3,1.3V151
						C15.7,151.7,15.1,152.3,14.4,152.3"/>
				</defs>
				<clipPath id="SVGID_4_">
					<use xlink:href="#SVGID_3_"  overflow="visible"/>
				</clipPath>
				<rect x="8.4" y="134.8" clip-path="url(#SVGID_4_)" fill="#9D9DA3" width="8.9" height="19.1"/>
			</g>
			<g>
				<defs>
					<path id="SVGID_5_" d="M14.4,177.7h-3.2c-0.7,0-1.3-0.6-1.3-1.3v-13.3c0-0.7,0.6-1.3,1.3-1.3h3.2c0.7,0,1.3,0.6,1.3,1.3v13.3
						C15.7,177.1,15.1,177.7,14.4,177.7"/>
				</defs>
				<clipPath id="SVGID_6_">
					<use xlink:href="#SVGID_5_"  overflow="visible"/>
				</clipPath>
				<rect x="8.4" y="160.2" clip-path="url(#SVGID_6_)" fill="#9D9DA3" width="8.9" height="19.1"/>
			</g>
			<path fill-rule="evenodd" clip-rule="evenodd" fill="#BDBDBD" d="M209.9,15.7h-26.7c-0.7,0-1.3-0.6-1.3-1.3v-3.2
				c0-0.7,0.6-1.3,1.3-1.3h26.7c0.7,0,1.3,0.6,1.3,1.3v3.2C211.1,15.1,210.6,15.7,209.9,15.7"/>
			<g>
				<defs>
					<path id="SVGID_7_" d="M45.3,506.9c-17.9,0-32.4-14.5-32.4-32.4v-429c0-17.9,14.5-32.4,32.4-32.4h171.4
						c17.9,0,32.4,14.5,32.4,32.4v429c0,17.9-14.5,32.4-32.4,32.4H45.3"/>
				</defs>
				<clipPath id="SVGID_8_">
					<use xlink:href="#SVGID_7_"  overflow="visible"/>
				</clipPath>
				<rect x="11.4" y="11.5" clip-path="url(#SVGID_8_)" fill="#FFFFFE" width="239.3" height="497"/>
			</g>
			<g>
				<defs>
					<path id="SVGID_9_" d="M216.7,12.5H45.3c-8.8,0-17.1,3.4-23.3,9.7s-9.7,14.5-9.7,23.3v429c0,8.8,3.4,17.1,9.7,23.3
						c6.3,6.3,14.5,9.7,23.3,9.7h171.4c8.8,0,17.1-3.4,23.3-9.7c6.3-6.3,9.7-14.5,9.7-23.3v-429c0-8.8-3.4-17.1-9.7-23.3
						C233.8,15.9,225.5,12.5,216.7,12.5 M216.7,13.8c17.5,0,31.7,14.3,31.7,31.8v429c0,17.5-14.3,31.8-31.7,31.8H45.3
						c-17.5,0-31.7-14.3-31.7-31.8v-429c0-17.5,14.3-31.8,31.7-31.8H216.7"/>
				</defs>
				<clipPath id="SVGID_10_">
					<use xlink:href="#SVGID_9_"  overflow="visible"/>
				</clipPath>
				<rect x="10.7" y="10.9" clip-path="url(#SVGID_10_)" fill="#9D9DA3" width="240.6" height="498.2"/>
			</g>
			<g>
				<defs>
					<ellipse id="SVGID_11_" cx="131" cy="472.8" rx="19.4" ry="19.4"/>
				</defs>
				<clipPath id="SVGID_12_">
					<use xlink:href="#SVGID_11_"  overflow="visible"/>
				</clipPath>
				<rect x="110.1" y="451.8" clip-path="url(#SVGID_12_)" fill="#FFFFFE" width="41.9" height="41.9"/>
			</g>
			<ellipse fill="none" stroke="#CBCCCB" stroke-width="5" stroke-miterlimit="10" cx="131" cy="472.8" rx="19.4" ry="19.4"/>
			<path fill-rule="evenodd" clip-rule="evenodd" fill="#BDBDBD" d="M102.6,52.5c0,1.4-1.1,2.4-2.4,2.4c-1.4,0-2.4-1.1-2.4-2.4
				c0-1.4,1.1-2.4,2.4-2.4C101.5,50,102.6,51.1,102.6,52.5"/>
			<path fill-rule="evenodd" clip-rule="evenodd" fill="#BDBDBD" d="M147.8,54.7h-33.6c-1.2,0-2.2-1-2.2-2.2c0-1.2,1-2.2,2.2-2.2
				h33.6c1.2,0,2.2,1,2.2,2.2C150.1,53.7,149.1,54.7,147.8,54.7"/>
			<path fill-rule="evenodd" clip-rule="evenodd" fill="#BDBDBD" d="M132.7,37.5c0,1-0.8,1.7-1.7,1.7c-0.9,0-1.7-0.8-1.7-1.7
				c0-1,0.8-1.7,1.7-1.7C132,35.7,132.7,36.5,132.7,37.5"/>
			<g>
				<defs>
					<rect id="SVGID_13_" x="29.5" y="79.5" width="203.1" height="361"/>
				</defs>
				<clipPath id="SVGID_14_">
					<use xlink:href="#SVGID_13_"  overflow="visible"/>
				</clipPath>
				<rect x="27.9" y="78" clip-path="url(#SVGID_14_)" fill="#303030" width="206.3" height="364.1"/>
			</g>
		</g>
		<g clip-path="url(#SVGID_2_)">
			<rect x="29.5" y="79.5" width="203.1" height="12.7"/>
			<g>
				<g>
					<g>
						<path fill-rule="evenodd" clip-rule="evenodd" fill="#FFFFFF" d="M82.9,87.6l1.2,1.3l1.2-1.3c0,0-0.6-0.5-1.2-0.5
							C83.4,87.1,82.9,87.6,82.9,87.6z M81.4,86l0.7,0.7c0,0,0.6-0.8,2-0.8c1.4,0,2,0.8,2,0.8l0.7-0.7c0,0-1.3-1.1-2.6-1.1
							C82.7,85,81.4,86,81.4,86z M84,83c-2.2,0-4.1,1.7-4.1,1.7l0.7,0.7c0,0,1.4-1.4,3.4-1.4c2.1,0,3.4,1.4,3.4,1.4l0.7-0.7
							C88.1,84.7,86.3,83,84,83z"/>
					</g>
				</g>
			</g>
			<g opacity="0.25">
				<g>
					<path fill-rule="evenodd" clip-rule="evenodd" fill="#FFFFFF" d="M209.7,84.4l-2.7-2.6v3.6l-2-1.9l-0.4,0.4l2.2,2.1l-2.2,2
						l0.4,0.4l2-1.7v3.4l2.7-2.4l-1.9-1.6L209.7,84.4z M207.6,83.3l1.1,1.2l-1.1,1V83.3z M208.7,87.7l-1.1,1.2v-2.2L208.7,87.7z"/>
				</g>
			</g>
			<g>
				<g>
					<path fill="#FFFFFF" d="M226.8,84v4h-12.3v-4H226.8 M227.2,83h-13c-0.4,0-0.6,0.3-0.6,0.6v4.8c0,0.4,0.3,0.6,0.6,0.6h13
						c0.4,0,0.6-0.3,0.6-0.6v-4.8C227.8,83.3,227.5,83,227.2,83L227.2,83z"/>
				</g>
				<path fill-rule="evenodd" clip-rule="evenodd" fill="#FFFFFF" d="M227.2,88.1c0,0.2-0.1,0.3-0.3,0.3h-12.4
					c-0.2,0-0.3-0.1-0.3-0.3v-4.1c0-0.2,0.1-0.3,0.3-0.3h12.4c0.2,0,0.3,0.1,0.3,0.3V88.1z"/>
				<path fill-rule="evenodd" clip-rule="evenodd" fill="#FFFFFF" d="M229.1,86.2c0,0.5-0.4,1-1,1v-2.2c0.5,0,1,0.4,1,1V86.2z"/>
			</g>
			<g>
				<circle fill="#FFFFFF" cx="35.3" cy="86.2" r="1.7"/>
				<circle fill="#FFFFFF" cx="39.8" cy="86.2" r="1.7"/>
				<circle fill="#FFFFFF" cx="44.2" cy="86.2" r="1.7"/>
				<g>
					<path fill="#FFFFFF" d="M48.7,85.4c0.4,0,0.7,0.3,0.7,0.7c0,0.4-0.3,0.7-0.7,0.7s-0.7-0.3-0.7-0.7
						C47.9,85.7,48.3,85.4,48.7,85.4 M48.7,84.4c-1,0-1.7,0.8-1.7,1.7c0,1,0.8,1.7,1.7,1.7c1,0,1.7-0.8,1.7-1.7
						C50.4,85.2,49.6,84.4,48.7,84.4L48.7,84.4z"/>
				</g>
				<g>
					<path fill="#FFFFFF" d="M53.1,85.4c0.4,0,0.7,0.3,0.7,0.7c0,0.4-0.3,0.7-0.7,0.7s-0.7-0.3-0.7-0.7
						C52.4,85.7,52.7,85.4,53.1,85.4 M53.1,84.4c-1,0-1.7,0.8-1.7,1.7c0,1,0.8,1.7,1.7,1.7s1.7-0.8,1.7-1.7
						C54.9,85.2,54.1,84.4,53.1,84.4L53.1,84.4z"/>
				</g>
			</g>
			<g>
				<path fill="#FFFFFF" d="M60.9,83.3l2.1,5.4h-0.8l-0.6-1.6h-2.3l-0.6,1.6H58l2.1-5.4H60.9z M61.4,86.5L60.5,84h0l-0.9,2.5H61.4z"
					/>
				<path fill="#FFFFFF" d="M67.2,83.3v0.6h-2.8v1.7h2.5v0.6h-2.5v2.5h-0.7v-5.4H67.2z"/>
				<path fill="#FFFFFF" d="M70.3,88.7c-0.3,0.1-0.6,0.2-0.9,0.2c-0.4,0-0.7-0.1-0.9-0.2s-0.4-0.2-0.5-0.4c-0.1-0.2-0.2-0.3-0.2-0.5
					s-0.1-0.3-0.1-0.4c0-0.2,0-0.4,0.1-0.6c0.1-0.2,0.2-0.3,0.3-0.4c0.1-0.1,0.2-0.2,0.4-0.4c0.2-0.1,0.3-0.2,0.5-0.3
					c-0.1-0.1-0.1-0.2-0.2-0.3c-0.1-0.1-0.1-0.2-0.2-0.3c-0.1-0.1-0.1-0.2-0.1-0.3s0-0.2,0-0.4c0-0.1,0-0.3,0.1-0.4
					c0.1-0.1,0.1-0.3,0.2-0.4s0.2-0.2,0.4-0.2s0.3-0.1,0.5-0.1c0.2,0,0.3,0,0.5,0.1c0.2,0,0.3,0.1,0.4,0.2c0.1,0.1,0.2,0.2,0.3,0.4
					c0.1,0.1,0.1,0.3,0.1,0.5c0,0.2,0,0.3-0.1,0.5c-0.1,0.1-0.1,0.3-0.2,0.4c-0.1,0.1-0.2,0.2-0.3,0.3c-0.1,0.1-0.2,0.2-0.4,0.3
					l1,1.2c0.1-0.3,0.2-0.6,0.2-0.8h0.6c0,0.2,0,0.3,0,0.4s0,0.2-0.1,0.3c0,0.1-0.1,0.2-0.1,0.3s-0.1,0.2-0.1,0.3l1.1,1.2h-0.8
					L71,88.1C70.8,88.3,70.6,88.5,70.3,88.7z M69,86.3c-0.1,0.1-0.2,0.2-0.3,0.3s-0.2,0.2-0.2,0.3c-0.1,0.1-0.1,0.3-0.1,0.4
					c0,0.1,0,0.3,0.1,0.4c0.1,0.1,0.1,0.2,0.2,0.3c0.1,0.1,0.2,0.1,0.3,0.2c0.1,0,0.3,0.1,0.4,0.1c0.2,0,0.5-0.1,0.7-0.2
					c0.2-0.1,0.4-0.3,0.5-0.5l-1.2-1.5C69.2,86.2,69.1,86.3,69,86.3z M69.8,85.2c0.1-0.1,0.2-0.1,0.2-0.2c0.1-0.1,0.1-0.2,0.2-0.3
					c0-0.1,0.1-0.2,0.1-0.3c0-0.2-0.1-0.3-0.2-0.4c-0.1-0.1-0.3-0.2-0.5-0.2c-0.2,0-0.3,0-0.4,0.1c-0.1,0.1-0.2,0.2-0.2,0.4
					c0,0.1,0,0.2,0,0.2s0.1,0.2,0.1,0.2s0.1,0.2,0.2,0.2c0.1,0.1,0.1,0.2,0.2,0.2C69.7,85.4,69.7,85.3,69.8,85.2z"/>
				<path fill="#FFFFFF" d="M76.5,83.3v0.6h-2.8v1.7h2.5v0.6h-2.5v2.5H73v-5.4H76.5z"/>
			</g>
			<g>
				<path fill="#FFFFFF" d="M118.7,85.6c0.1,0,0.3,0,0.4-0.1s0.2-0.1,0.3-0.2c0.1-0.1,0.1-0.2,0.1-0.4c0-0.2-0.1-0.4-0.2-0.5
					s-0.3-0.2-0.5-0.2c-0.3,0-0.5,0.1-0.6,0.3c-0.1,0.2-0.2,0.4-0.2,0.7h-1c0-0.3,0.1-0.5,0.1-0.8s0.2-0.4,0.4-0.6
					c0.2-0.2,0.4-0.3,0.6-0.4c0.2-0.1,0.5-0.1,0.7-0.1c0.2,0,0.4,0,0.6,0.1c0.2,0.1,0.4,0.2,0.6,0.3c0.2,0.1,0.3,0.3,0.4,0.5
					c0.1,0.2,0.2,0.4,0.2,0.6c0,0.3-0.1,0.5-0.2,0.7s-0.3,0.3-0.6,0.4v0c0.3,0.1,0.5,0.2,0.7,0.4s0.3,0.5,0.3,0.8
					c0,0.3-0.1,0.5-0.2,0.7c-0.1,0.2-0.3,0.4-0.4,0.5c-0.2,0.1-0.4,0.3-0.6,0.3c-0.2,0.1-0.5,0.1-0.7,0.1c-0.3,0-0.6,0-0.8-0.1
					c-0.2-0.1-0.5-0.2-0.6-0.4c-0.2-0.2-0.3-0.4-0.4-0.6c-0.1-0.2-0.1-0.5-0.1-0.8h1c0,0.1,0,0.3,0.1,0.4c0,0.1,0.1,0.2,0.2,0.3
					s0.2,0.2,0.3,0.2c0.1,0.1,0.2,0.1,0.4,0.1c0.2,0,0.4-0.1,0.6-0.2s0.3-0.4,0.3-0.6c0-0.2,0-0.4-0.1-0.5c-0.1-0.1-0.2-0.2-0.3-0.2
					c-0.1,0-0.3-0.1-0.4-0.1c-0.1,0-0.3,0-0.4,0v-0.8C118.4,85.6,118.5,85.6,118.7,85.6z"/>
				<path fill="#FFFFFF" d="M121.1,86.1v-1.2h1.2v1.2H121.1z M122.3,87.6v1.2h-1.2v-1.2H122.3z"/>
				<path fill="#FFFFFF" d="M122.9,84.8c0.1-0.4,0.2-0.6,0.4-0.9s0.4-0.4,0.6-0.5c0.2-0.1,0.5-0.1,0.8-0.1c0.3,0,0.5,0,0.8,0.1
					c0.2,0.1,0.4,0.2,0.6,0.5c0.2,0.2,0.3,0.5,0.4,0.9c0.1,0.4,0.2,0.8,0.2,1.3c0,0.5-0.1,1-0.2,1.3s-0.2,0.6-0.4,0.9
					c-0.2,0.2-0.4,0.4-0.6,0.5c-0.2,0.1-0.5,0.1-0.8,0.1c-0.3,0-0.5,0-0.8-0.1c-0.2-0.1-0.4-0.2-0.6-0.5s-0.3-0.5-0.4-0.9
					s-0.2-0.8-0.2-1.3C122.8,85.6,122.8,85.2,122.9,84.8z M123.9,86.7c0,0.2,0,0.4,0.1,0.6s0.1,0.4,0.3,0.5c0.1,0.1,0.3,0.2,0.5,0.2
					c0.2,0,0.4-0.1,0.5-0.2c0.1-0.1,0.2-0.3,0.3-0.5c0.1-0.2,0.1-0.4,0.1-0.6c0-0.2,0-0.4,0-0.6c0-0.1,0-0.2,0-0.3
					c0-0.1,0-0.3,0-0.4c0-0.1,0-0.3-0.1-0.4c0-0.1-0.1-0.3-0.1-0.4c-0.1-0.1-0.1-0.2-0.3-0.3c-0.1-0.1-0.2-0.1-0.4-0.1
					s-0.3,0-0.4,0.1c-0.1,0.1-0.2,0.2-0.2,0.3c-0.1,0.1-0.1,0.2-0.1,0.4s-0.1,0.3-0.1,0.4c0,0.1,0,0.3,0,0.4c0,0.1,0,0.2,0,0.3
					C123.8,86.3,123.8,86.5,123.9,86.7z"/>
				<path fill="#FFFFFF" d="M127,84.8c0.1-0.4,0.2-0.6,0.4-0.9s0.4-0.4,0.6-0.5c0.2-0.1,0.5-0.1,0.8-0.1c0.3,0,0.5,0,0.8,0.1
					c0.2,0.1,0.4,0.2,0.6,0.5c0.2,0.2,0.3,0.5,0.4,0.9c0.1,0.4,0.2,0.8,0.2,1.3c0,0.5-0.1,1-0.2,1.3s-0.2,0.6-0.4,0.9
					c-0.2,0.2-0.4,0.4-0.6,0.5c-0.2,0.1-0.5,0.1-0.8,0.1c-0.3,0-0.5,0-0.8-0.1c-0.2-0.1-0.4-0.2-0.6-0.5s-0.3-0.5-0.4-0.9
					s-0.2-0.8-0.2-1.3C126.8,85.6,126.9,85.2,127,84.8z M127.9,86.7c0,0.2,0,0.4,0.1,0.6s0.1,0.4,0.3,0.5c0.1,0.1,0.3,0.2,0.5,0.2
					c0.2,0,0.4-0.1,0.5-0.2c0.1-0.1,0.2-0.3,0.3-0.5c0.1-0.2,0.1-0.4,0.1-0.6c0-0.2,0-0.4,0-0.6c0-0.1,0-0.2,0-0.3
					c0-0.1,0-0.3,0-0.4c0-0.1,0-0.3-0.1-0.4c0-0.1-0.1-0.3-0.1-0.4c-0.1-0.1-0.1-0.2-0.3-0.3c-0.1-0.1-0.2-0.1-0.4-0.1
					s-0.3,0-0.4,0.1c-0.1,0.1-0.2,0.2-0.2,0.3c-0.1,0.1-0.1,0.2-0.1,0.4s-0.1,0.3-0.1,0.4c0,0.1,0,0.3,0,0.4c0,0.1,0,0.2,0,0.3
					C127.9,86.3,127.9,86.5,127.9,86.7z"/>
				<path fill="#FFFFFF" d="M136,83.4l2,5.4h-1.2l-0.4-1.2h-2l-0.4,1.2h-1.2l2.1-5.4H136z M136,86.7l-0.7-2h0l-0.7,2H136z"/>
				<path fill="#FFFFFF" d="M140,83.4l1.3,3.7h0l1.2-3.7h1.7v5.4h-1.1V85h0l-1.3,3.9h-0.9l-1.3-3.8h0v3.8h-1.1v-5.4H140z"/>
			</g>
		</g>
	</g>
	<g opacity="0.87">
		<g>
			<path fill="#FFFFFF" d="M203.2,240c0.9,0,1.8,0.8,1.8,1.8v32.4c0,1-0.8,1.8-1.7,1.8H58.8c-0.9,0-1.8-0.8-1.8-1.8v-32.4
				c0-1,0.8-1.8,1.8-1.8H203 M203.3,238H58.8c-2,0-3.8,1.7-3.8,3.8v32.4c0,2.1,1.7,3.8,3.8,3.8h144.5c2,0,3.7-1.7,3.7-3.8v-32.4
				C207,239.7,205.3,238,203.3,238L203.3,238z"/>
		</g>
		<g>
			<path fill="#FFFFFF" d="M82.2,263.2c-1.9,0-3.2-0.9-4-2l1.5-1.5c0.7,0.9,1.5,1.5,2.5,1.5c1.2,0,2-0.8,2-2.5v-8.3h2.3v8.3
				C86.4,261.7,84.7,263.2,82.2,263.2z"/>
			<path fill="#FFFFFF" d="M100.1,257.5c0,3.8-2.1,5.7-5.4,5.7c-3.3,0-5.4-1.9-5.4-5.5v-7.3h2.2v7.2c0,2.3,1.2,3.6,3.2,3.6
				c2,0,3.2-1.2,3.2-3.5v-7.3h2.2V257.5z"/>
			<path fill="#FFFFFF" d="M108.1,255.7c2.7,0.6,4,1.6,4,3.7c0,2.4-1.9,3.8-4.5,3.8c-1.9,0-3.7-0.7-5.2-2l1.3-1.6
				c1.2,1,2.4,1.6,4,1.6c1.4,0,2.2-0.6,2.2-1.6c0-0.9-0.5-1.4-2.8-1.9c-2.7-0.6-4.2-1.4-4.2-3.8c0-2.2,1.8-3.7,4.3-3.7
				c1.8,0,3.3,0.6,4.6,1.6l-1.2,1.7c-1.1-0.8-2.3-1.3-3.4-1.3c-1.3,0-2,0.7-2,1.5C105.1,254.7,105.7,255.1,108.1,255.7z"/>
			<path fill="#FFFFFF" d="M120.2,263h-2.2v-10.6h-4v-2.1h10.2v2.1h-4V263z"/>
			<path fill="#FFFFFF" d="M141.4,252.4h-7.2v3.4h6.3v2h-6.3v5.1h-2.2v-12.6h9.4V252.4z"/>
			<path fill="#FFFFFF" d="M146.3,250.4V263h-2.2v-12.6H146.3z"/>
			<path fill="#FFFFFF" d="M158,263l-3.3-4.8l-3.3,4.8h-2.5l4.6-6.4l-4.4-6.2h2.6l3.1,4.5l3.1-4.5h2.5l-4.4,6.2l4.6,6.4H158z"/>
			<path fill="#FFFFFF" d="M170.8,250.4V263h-2.2v-12.6H170.8z"/>
			<path fill="#FFFFFF" d="M179.5,263h-2.2v-10.6h-4v-2.1h10.2v2.1h-4V263z"/>
		</g>
	</g>
	<g opacity="0.87">
		<path fill="#EF5350" d="M96.3,146.8v18.8c0,0.9-0.4,1.2-1.2,1.2H95c-0.9,0-1.2-0.4-1.2-1.2v-18.8h-2.3c-0.9,0-1.2-0.3-1.2-1.2
			v-0.1c0-0.9,0.3-1.2,1.2-1.2h7.1c0.9,0,1.2,0.3,1.2,1.2v0.1c0,0.9-0.3,1.2-1.2,1.2H96.3z"/>
		<path fill="#EF5350" d="M103.7,154.1h4.2v-8.6c0-0.9,0.4-1.2,1.2-1.2h0.1c0.9,0,1.2,0.4,1.2,1.2v20c0,0.9-0.4,1.2-1.2,1.2h-0.1
			c-0.9,0-1.2-0.4-1.2-1.2v-9.1h-4.2v9.1c0,0.9-0.4,1.2-1.2,1.2h-0.1c-0.9,0-1.2-0.4-1.2-1.2v-20c0-0.9,0.4-1.2,1.2-1.2h0.1
			c0.9,0,1.2,0.4,1.2,1.2V154.1z"/>
		<path fill="#EF5350" d="M112.9,145.9c0-1.1,0.4-1.5,1.5-1.5h4.5c0.9,0,1.2,0.3,1.2,1.2v0.1c0,0.9-0.3,1.2-1.2,1.2h-3.4v7.4h3.3
			c0.8,0,1.1,0.3,1.1,1.1v0.1c0,0.8-0.3,1.2-1.1,1.2h-3.3v7.9h3.5c0.9,0,1.2,0.3,1.2,1.2v0.1c0,0.9-0.3,1.2-1.2,1.2h-4.5
			c-1.1,0-1.5-0.4-1.5-1.5V145.9z"/>
		<path fill="#EF5350" d="M131,152.7c0,1.8-0.7,3-2,3.5c1.3,0.4,2,1.4,2,3v6.4c0,0.9-0.4,1.2-1.2,1.2h-0.1c-0.9,0-1.2-0.4-1.2-1.2
			v-6.3c0-1.3-0.6-2-2-2h-1.9v8.2c0,0.9-0.4,1.2-1.2,1.2h-0.1c-0.9,0-1.2-0.4-1.2-1.2v-19.7c0-1.1,0.4-1.5,1.5-1.5h3.3
			c2.8,0,4.2,1.4,4.2,4.2V152.7z M128.4,148.4c0-1.1-0.6-1.7-1.7-1.7h-2.1v8.4h1.9c1.2,0,1.9-0.6,1.9-1.9V148.4z"/>
		<path fill="#EF5350" d="M133.4,145.9c0-1.1,0.4-1.5,1.5-1.5h4.5c0.9,0,1.2,0.3,1.2,1.2v0.1c0,0.9-0.3,1.2-1.2,1.2h-3.4v7.4h3.3
			c0.8,0,1.1,0.3,1.1,1.1v0.1c0,0.8-0.3,1.2-1.1,1.2h-3.3v7.9h3.5c0.9,0,1.2,0.3,1.2,1.2v0.1c0,0.9-0.3,1.2-1.2,1.2h-4.5
			c-1.1,0-1.5-0.4-1.5-1.5V145.9z"/>
		<path fill="#EF5350" d="M143.5,151c-0.1,0.2-0.3,0.3-0.6,0.3l-0.1,0c-0.4-0.1-0.5-0.4-0.3-0.7l0.2-0.5c0.3-0.8,0.4-1.4,0.5-1.9
			H143c-0.4,0-0.6-0.2-0.6-0.6v-2c0-0.9,0.4-1.2,1.2-1.2h0.1c0.8,0,1.2,0.4,1.2,1.2v1.3c0,0.8-0.1,1.3-0.2,1.7
			c-0.1,0.4-0.3,0.9-0.6,1.5L143.5,151z"/>
		<path fill="#EF5350" d="M153.7,155.4c1.6,1.2,2.1,2.2,2.1,4.2v3.3c0,2.8-1.4,4.2-4.2,4.2H151c-2.7,0-4.1-1.4-4.1-4.1v-3.6
			c0-0.9,0.4-1.2,1.2-1.2h0.1c0.9,0,1.2,0.4,1.2,1.2v3.6c0,1.1,0.6,1.7,1.7,1.7h0.5c1.1,0,1.7-0.6,1.7-1.7v-3.4
			c0-1.1-0.3-1.5-1.1-2.1l-3.1-2.3c-1.6-1.2-2.1-2.3-2.1-4.2v-2.7c0-2.8,1.4-4.2,4.2-4.2h0.6c2.7,0,4.1,1.4,4.1,4.1v2.9
			c0,0.9-0.4,1.2-1.2,1.2h-0.1c-0.9,0-1.2-0.4-1.2-1.2v-3c0-1.1-0.6-1.7-1.7-1.7h-0.4c-1.1,0-1.7,0.6-1.7,1.7v2.8
			c0,1.1,0.4,1.5,1.2,2.1L153.7,155.4z"/>
		<path fill="#EF5350" d="M170,166.8c-0.7,0-1.1-0.4-1.2-1.1l-0.4-2.8h-4.2l-0.4,2.8c-0.1,0.7-0.5,1-1.2,1h-0.1
			c-0.9,0-1.3-0.4-1.2-1.4l3-20c0.1-0.9,0.5-1.2,1.4-1.2h0.8c0.9,0,1.3,0.4,1.4,1.2l3,19.9C171.4,166.4,171,166.8,170,166.8
			L170,166.8z M164.6,160.7h3.5l-1.7-12.5L164.6,160.7z"/>
		<path fill="#EF5350" d="M93,196.8v7.2c0,0.9-0.4,1.2-1.2,1.2h-0.1c-0.9,0-1.2-0.4-1.2-1.2v-19.7c0-1.1,0.4-1.5,1.5-1.5h2.9
			c2.8,0,4.2,1.4,4.2,4.2v5.7c0,2.8-1.4,4.2-4.2,4.2H93z M96.4,186.8c0-1.1-0.6-1.7-1.7-1.7H93v9.3h1.8c1.1,0,1.7-0.6,1.7-1.7V186.8
			z"/>
		<path fill="#EF5350" d="M110,191.1c0,1.8-0.7,3-2,3.5c1.3,0.4,2,1.4,2,3v6.4c0,0.9-0.4,1.2-1.2,1.2h-0.1c-0.9,0-1.2-0.4-1.2-1.2
			v-6.3c0-1.3-0.6-2-2-2h-1.9v8.2c0,0.9-0.4,1.2-1.2,1.2h-0.1c-0.9,0-1.2-0.4-1.2-1.2v-19.7c0-1.1,0.4-1.5,1.5-1.5h3.3
			c2.8,0,4.2,1.4,4.2,4.2V191.1z M107.4,186.8c0-1.1-0.6-1.7-1.7-1.7h-2.1v8.4h1.9c1.2,0,1.9-0.6,1.9-1.9V186.8z"/>
		<path fill="#EF5350" d="M121.6,201.2c0,2.8-1.4,4.2-4.2,4.2h-1c-2.8,0-4.2-1.4-4.2-4.2v-14.5c0-2.8,1.4-4.2,4.2-4.2h1
			c2.8,0,4.2,1.4,4.2,4.2V201.2z M119,186.6c0-1.1-0.6-1.7-1.7-1.7h-0.8c-1.1,0-1.7,0.6-1.7,1.7v14.7c0,1.1,0.6,1.7,1.7,1.7h0.8
			c1.1,0,1.7-0.6,1.7-1.7V186.6z"/>
		<path fill="#EF5350" d="M132.8,190.2c0,1.8-0.6,3-1.9,3.5c1.3,0.5,2,1.7,2,3.5v3.8c0,2.8-1.4,4.2-4.2,4.2h-3.3
			c-1.1,0-1.5-0.4-1.5-1.5v-19.5c0-1.1,0.4-1.5,1.5-1.5h3.2c2.8,0,4.2,1.4,4.2,4.2V190.2z M130.3,186.8c0-1.1-0.6-1.7-1.7-1.7h-2.1
			v7.5h1.9c1.2,0,1.9-0.6,1.9-1.9V186.8z M126.5,194.9v8h2.1c1.1,0,1.7-0.6,1.7-1.7v-4.4c0-1.2-0.6-1.9-1.9-1.9H126.5z"/>
		<path fill="#EF5350" d="M135.2,184c0-0.9,0.4-1.2,1.2-1.2h0.1c0.9,0,1.2,0.4,1.2,1.2v18.8h3.1c0.9,0,1.2,0.3,1.2,1.2v0.1
			c0,0.9-0.3,1.2-1.2,1.2h-4.2c-1.1,0-1.5-0.4-1.5-1.5V184z"/>
		<path fill="#EF5350" d="M143.7,184.3c0-1.1,0.4-1.5,1.5-1.5h4.5c0.9,0,1.2,0.3,1.2,1.2v0.1c0,0.9-0.3,1.2-1.2,1.2h-3.4v7.4h3.3
			c0.8,0,1.1,0.3,1.1,1.1v0.1c0,0.8-0.3,1.2-1.1,1.2h-3.3v7.9h3.5c0.9,0,1.2,0.3,1.2,1.2v0.1c0,0.9-0.3,1.2-1.2,1.2h-4.5
			c-1.1,0-1.5-0.4-1.5-1.5V184.3z"/>
		<path fill="#EF5350" d="M159.6,205.2c-0.9,0-1.3-0.4-1.4-1.2l-2.9-17.4v17.5c0,0.8-0.4,1.2-1.2,1.2h-0.1c-0.8,0-1.2-0.4-1.2-1.2
			v-19.9c0-1.1,0.4-1.5,1.5-1.5h1.3c0.9,0,1.3,0.4,1.4,1.2l2.7,16.6l2.7-16.6c0.1-0.9,0.5-1.2,1.4-1.2h1.2c1.1,0,1.5,0.4,1.5,1.5
			V204c0,0.9-0.4,1.2-1.2,1.2h-0.1c-0.9,0-1.2-0.4-1.2-1.2v-17.4l-2.9,17.4c-0.1,0.8-0.6,1.2-1.4,1.2H159.6z"/>
		<path fill="#EF5350" d="M170.3,199.3c-0.3,0-0.4-0.1-0.4-0.4l-0.8-10.9v-4.1c0-0.9,0.4-1.2,1.2-1.2h0.1c0.9,0,1.2,0.4,1.2,1.2v4.2
			l-0.8,10.8C170.8,199.1,170.6,199.3,170.3,199.3L170.3,199.3z M170.3,201.3c0.9,0,1.2,0.4,1.2,1.2v1.5c0,0.9-0.4,1.2-1.2,1.2h-0.1
			c-0.9,0-1.2-0.4-1.2-1.2v-1.5C169.1,201.7,169.4,201.3,170.3,201.3L170.3,201.3z"/>
	</g>
</g>
</svg>
